<svg xmlns="http://www.w3.org/2000/svg" viewBox="0 0 569.81 178.01"><defs><style>.cls-1{fill:#6ba332;}.cls-1,.cls-5{opacity:0.5;}.cls-2{fill:blue;}.cls-3{fill:#221f20;}.cls-4,.cls-5{fill:#f3524d;}</style></defs><title>flowuniversity</title><g id="Layer_2" data-name="Layer 2"><g id="Layer_1-2" data-name="Layer 1"><rect class="cls-1" y="37.51" width="75.75" height="31.48" rx="15.74"/><rect class="cls-1" x="494.06" y="41.97" width="75.75" height="31.48" rx="15.74"/><path class="cls-2" d="M447.2,72.25H360.47V42.9H447.2Zm-85.73-1H446.2V43.9H361.47Z"/><path class="cls-3" d="M373.34,56.7H376v.75h-2.7v3.13h-.88V53.63H376v.75h-2.7Z"/><path class="cls-3" d="M381.66,58.19a2.45,2.45,0,0,1-2.45,2.5,2.52,2.52,0,1,1,2.45-2.5Zm-4.07,0A1.63,1.63,0,0,0,379.23,60a1.64,1.64,0,0,0,1.62-1.78,1.64,1.64,0,1,0-3.26,0Z"/><path class="cls-3" d="M383.66,55.78v.81a1.27,1.27,0,0,1,.44-.63,1.48,1.48,0,0,1,.91-.3h.19v.8H385a1.22,1.22,0,0,0-1,.56,1.74,1.74,0,0,0-.28,1.13v2.44h-.79v-4.8Z"/><path class="cls-3" d="M392.89,55.78v3.07a1.57,1.57,0,0,1-.48,1.34,2,2,0,0,1-1.38.5,2.06,2.06,0,0,1-1.39-.51,1.76,1.76,0,0,1-.48-1.33V55.78h.8v3A1.06,1.06,0,0,0,391,60a1.13,1.13,0,0,0,.85-.36,1.06,1.06,0,0,0,.21-.77V55.78Z"/><path class="cls-3" d="M395.14,55.78v.67a1.63,1.63,0,0,1,1.42-.79,1.68,1.68,0,0,1,1.12.4,1.56,1.56,0,0,1,.4,1.28v3.24h-.79V57.52a1.39,1.39,0,0,0-.17-.83,1,1,0,0,0-.75-.32,1.2,1.2,0,0,0-.92.41,1.13,1.13,0,0,0-.31.87v2.93h-.79v-4.8Z"/><path class="cls-3" d="M400.55,54.44a.51.51,0,1,1-.5-.52A.5.5,0,0,1,400.55,54.44Zm-.11,6.14h-.8v-4.8h.8Z"/><path class="cls-3" d="M405.67,55.78l-1.81,4.8H403l-1.76-4.8h.83l1.35,3.66,1.4-3.66Z"/><path class="cls-3" d="M406.86,58.43a1.48,1.48,0,0,0,.31.88,1.57,1.57,0,0,0,1.29.65,1.64,1.64,0,0,0,1.43-.82l.7.26a2.34,2.34,0,0,1-2.13,1.29,2.52,2.52,0,1,1,2.4-2.57c0,.06,0,.2,0,.31Zm3.16-.58a1.43,1.43,0,0,0-.27-.82,1.63,1.63,0,0,0-1.32-.66,1.53,1.53,0,0,0-1.29.67,1.79,1.79,0,0,0-.27.81Z"/><path class="cls-3" d="M412.8,55.78v.81a1.34,1.34,0,0,1,.44-.63,1.46,1.46,0,0,1,.91-.3h.19v.8h-.22a1.22,1.22,0,0,0-1,.56,1.74,1.74,0,0,0-.28,1.13v2.44H412v-4.8Z"/><path class="cls-3" d="M417.55,57.09V57c0-.45-.36-.73-.91-.73s-.86.27-.86.69.2.57,1.07.81a2.39,2.39,0,0,1,1.16.55,1.33,1.33,0,0,1,.39.93c0,.84-.69,1.4-1.71,1.4s-1.71-.51-1.79-1.48h.78a.89.89,0,0,0,1,.83c.54,0,.9-.28.9-.7s-.27-.63-1.1-.84c-1-.28-1.51-.71-1.51-1.44s.68-1.4,1.69-1.4a1.47,1.47,0,0,1,1.68,1.43Z"/><path class="cls-3" d="M420.52,54.44a.51.51,0,1,1-.5-.52A.5.5,0,0,1,420.52,54.44Zm-.11,6.14h-.79v-4.8h.79Z"/><path class="cls-3" d="M422.84,59.6c0,.24.07.29.37.29h.36v.69h-.74c-.56,0-.78-.22-.78-.75V56.47h-.66v-.69h.66V54.27h.79v1.51h.73v.69h-.73Z"/><path class="cls-3" d="M425.53,54.44a.5.5,0,0,1-.51.49.51.51,0,1,1,0-1A.5.5,0,0,1,425.53,54.44Zm-.12,6.14h-.79v-4.8h.79Z"/><path class="cls-3" d="M427.46,58.43a1.54,1.54,0,0,0,.31.88,1.6,1.6,0,0,0,1.29.65,1.65,1.65,0,0,0,1.44-.82l.7.26A2.47,2.47,0,1,1,429,55.66a2.39,2.39,0,0,1,2.44,2.46c0,.06,0,.2,0,.31Zm3.17-.58a1.59,1.59,0,0,0-.27-.82,1.67,1.67,0,0,0-1.33-.66,1.53,1.53,0,0,0-1.29.67,2.07,2.07,0,0,0-.27.81Z"/><path class="cls-3" d="M434.81,57.09V57c0-.45-.36-.73-.92-.73s-.86.27-.86.69.21.57,1.07.81a2.39,2.39,0,0,1,1.17.55,1.32,1.32,0,0,1,.38.93c0,.84-.68,1.4-1.7,1.4s-1.71-.51-1.8-1.48h.79a.88.88,0,0,0,1,.83c.54,0,.89-.28.89-.7s-.27-.63-1.09-.84c-1-.28-1.51-.71-1.51-1.44s.67-1.4,1.68-1.4a1.47,1.47,0,0,1,1.68,1.43Z"/><path class="cls-2" d="M277.88,108.68H201.15V79.33h76.73Zm-75.73-1h74.73V80.33H202.15Z"/><path class="cls-3" d="M228.25,95.44l-.64,1.6h-.9l2.61-6.94h1L232.91,97h-1l-.57-1.6Zm1.57-4.24-1.31,3.49h2.58Z"/><path class="cls-3" d="M234.55,97h-.8V90.1h.8v3a1.92,1.92,0,0,1,1.68-.94,2.31,2.31,0,0,1,2.28,2.53,2.28,2.28,0,0,1-2.24,2.5,1.93,1.93,0,0,1-1.72-.94Zm0-2.39a1.59,1.59,0,1,0,3.14,0,1.59,1.59,0,1,0-3.14,0Z"/><path class="cls-3" d="M244.21,94.66a2.45,2.45,0,0,1-2.45,2.5,2.52,2.52,0,1,1,2.45-2.5Zm-4.07,0a1.63,1.63,0,0,0,1.64,1.78,1.64,1.64,0,0,0,1.62-1.78,1.61,1.61,0,0,0-1.61-1.79A1.63,1.63,0,0,0,240.14,94.65Z"/><path class="cls-3" d="M249,92.24v3.07a1.59,1.59,0,0,1-.48,1.35,2,2,0,0,1-1.38.5,2.06,2.06,0,0,1-1.39-.51,1.78,1.78,0,0,1-.47-1.34V92.24h.79v3.05a1.07,1.07,0,0,0,1.07,1.16,1.17,1.17,0,0,0,.85-.36,1.07,1.07,0,0,0,.21-.78V92.24Z"/><path class="cls-3" d="M251.31,96.06c0,.24.07.3.36.3H252V97h-.74c-.56,0-.78-.22-.78-.75V92.94h-.67v-.7h.67v-1.5h.79v1.5H252v.7h-.73Z"/><path class="cls-2" d="M277.88,178H201.15V148.67h76.73Zm-75.73-1h74.73V149.67H202.15Z"/><path class="cls-3" d="M228.94,165.32a3,3,0,0,1-2.54,1.18,3.1,3.1,0,0,1-2.39-1,3.94,3.94,0,0,1-.92-2.57,3.36,3.36,0,0,1,3.32-3.6,3.43,3.43,0,0,1,1.74.47,3.5,3.5,0,0,1,.81.72l-.61.56a2.43,2.43,0,0,0-1.92-.95,2.82,2.82,0,0,0,0,5.59,2.29,2.29,0,0,0,1.88-1Z"/><path class="cls-3" d="M234.45,164a2.45,2.45,0,0,1-2.45,2.5,2.52,2.52,0,1,1,2.45-2.5Zm-4.07,0a1.63,1.63,0,0,0,1.64,1.78,1.64,1.64,0,0,0,1.62-1.78,1.61,1.61,0,0,0-1.61-1.79A1.63,1.63,0,0,0,230.38,164Z"/><path class="cls-3" d="M236.45,161.58v.67a1.65,1.65,0,0,1,1.43-.79,1.67,1.67,0,0,1,1.11.4,1.56,1.56,0,0,1,.4,1.28v3.24h-.79v-3.06a1.39,1.39,0,0,0-.17-.83,1,1,0,0,0-.75-.32,1.2,1.2,0,0,0-.92.41,1.13,1.13,0,0,0-.31.87v2.93h-.79v-4.8Z"/><path class="cls-3" d="M241.8,165.4c0,.24.07.29.36.29h.37v.69h-.74c-.56,0-.78-.22-.78-.75v-3.36h-.67v-.69H241v-1.51h.79v1.51h.73v.69h-.73Z"/><path class="cls-3" d="M247.18,161.58H248v4.8h-.79v-.93a2,2,0,0,1-1.75,1,2.3,2.3,0,0,1-2.26-2.5,2.33,2.33,0,0,1,2.28-2.53,2,2,0,0,1,1.73.91Zm-2.78,1.16A2.22,2.22,0,0,0,244,164a1.64,1.64,0,0,0,1.54,1.79,1.77,1.77,0,0,0,1.64-1.87,1.62,1.62,0,0,0-1.62-1.76A1.32,1.32,0,0,0,244.4,162.74Z"/><path class="cls-3" d="M253.3,165.78a2.45,2.45,0,0,1-1.77.71,2.52,2.52,0,0,1,0-5,2.37,2.37,0,0,1,1.75.72l-.51.51a1.77,1.77,0,0,0-1.22-.5,1.8,1.8,0,0,0,0,3.57,1.7,1.7,0,0,0,1.23-.52Z"/><path class="cls-3" d="M255.34,165.4c0,.24.07.29.36.29h.37v.69h-.74c-.56,0-.78-.22-.78-.75v-3.36h-.67v-.69h.67v-1.51h.79v1.51h.73v.69h-.73Z"/><path class="cls-2" d="M277.88,29.35H201.15V0h76.73Zm-75.73-1h74.73V1H202.15Z"/><path class="cls-3" d="M222.92,15.85a1.12,1.12,0,0,0,1.23,1.2,1.2,1.2,0,0,0,1.33-1.17c0-.61-.31-.89-1.4-1.25a3.44,3.44,0,0,1-1.41-.7,1.73,1.73,0,0,1-.54-1.31,2.07,2.07,0,0,1,4.13,0h-.87a1.3,1.3,0,0,0-.17-.72,1.21,1.21,0,0,0-1-.49A1.11,1.11,0,0,0,223,12.56a1,1,0,0,0,.4.8,4,4,0,0,0,1.11.49,3.17,3.17,0,0,1,1.38.75,1.79,1.79,0,0,1,.47,1.23,2,2,0,0,1-2.19,2,2,2,0,0,1-1.85-.93,1.68,1.68,0,0,1-.24-.91v-.14Z"/><path class="cls-3" d="M228.07,15.57a1.48,1.48,0,0,0,.32.87,1.54,1.54,0,0,0,1.29.66,1.66,1.66,0,0,0,1.43-.83l.7.26a2.43,2.43,0,0,1-4.58-1.2,2.43,2.43,0,1,1,4.85-.08c0,.07,0,.2,0,.32Zm3.17-.59a1.54,1.54,0,0,0-.27-.82,1.69,1.69,0,0,0-1.33-.65,1.56,1.56,0,0,0-1.29.66,2,2,0,0,0-.27.81Z"/><path class="cls-3" d="M234,12.91v.81a1.34,1.34,0,0,1,.44-.63,1.49,1.49,0,0,1,.92-.29h.18v.8h-.21a1.23,1.23,0,0,0-1,.55,1.73,1.73,0,0,0-.29,1.13v2.44h-.79v-4.8Z"/><path class="cls-3" d="M240.47,12.91l-1.81,4.8h-.84l-1.76-4.8h.84l1.35,3.66,1.39-3.66Z"/><path class="cls-3" d="M242.21,11.57a.5.5,0,0,1-.51.5.51.51,0,0,1,0-1A.51.51,0,0,1,242.21,11.57Zm-.12,6.14h-.79v-4.8h.79Z"/><path class="cls-3" d="M247.42,17.12a2.48,2.48,0,0,1-1.77.7,2.33,2.33,0,0,1-2.35-2.49,2.42,2.42,0,0,1,4.14-1.81l-.51.51a1.74,1.74,0,0,0-1.22-.5,1.61,1.61,0,0,0-1.6,1.77,1.63,1.63,0,0,0,1.59,1.8,1.68,1.68,0,0,0,1.23-.53Z"/><path class="cls-3" d="M248.72,15.57a1.47,1.47,0,0,0,.31.87,1.55,1.55,0,0,0,1.29.66,1.68,1.68,0,0,0,1.44-.83l.7.26a2.43,2.43,0,0,1-4.58-1.2,2.42,2.42,0,1,1,4.84-.08v.32Zm3.16-.59a1.46,1.46,0,0,0-.27-.82,1.65,1.65,0,0,0-1.32-.65,1.55,1.55,0,0,0-1.29.66,1.84,1.84,0,0,0-.27.81Z"/><path class="cls-3" d="M256.07,14.22v-.05c0-.45-.37-.73-.92-.73s-.86.27-.86.69.21.57,1.07.81a2.54,2.54,0,0,1,1.17.55,1.39,1.39,0,0,1,.38.94c0,.83-.69,1.39-1.71,1.39a1.55,1.55,0,0,1-1.79-1.47h.78a.89.89,0,0,0,1,.83c.54,0,.9-.28.9-.71s-.27-.62-1.09-.83c-1-.28-1.51-.72-1.51-1.45s.67-1.39,1.68-1.39,1.64.52,1.68,1.42Z"/><path class="cls-3" d="M521.36,59.24a3.31,3.31,0,0,1-4.92.16,3.92,3.92,0,0,1-.93-2.58,3.36,3.36,0,0,1,3.32-3.6,3.43,3.43,0,0,1,1.74.47,3.8,3.8,0,0,1,.81.72l-.6.56a2.48,2.48,0,0,0-1.93-.94,2.81,2.81,0,0,0,0,5.58,2.33,2.33,0,0,0,1.89-1Z"/><path class="cls-3" d="M526.87,57.91a2.44,2.44,0,0,1-2.45,2.49,2.51,2.51,0,1,1,2.45-2.49Zm-4.07,0a1.64,1.64,0,1,0,3.26,0,1.61,1.61,0,0,0-1.61-1.79A1.63,1.63,0,0,0,522.8,57.9Z"/><path class="cls-3" d="M528.87,55.49v.68a1.65,1.65,0,0,1,1.43-.79,1.67,1.67,0,0,1,1.11.39,1.58,1.58,0,0,1,.41,1.28v3.24H531V57.23a1.34,1.34,0,0,0-.18-.82.93.93,0,0,0-.75-.32,1.21,1.21,0,0,0-.92.4,1.17,1.17,0,0,0-.31.88v2.92h-.79v-4.8Z"/><path class="cls-3" d="M534.22,59.31c0,.24.07.29.37.29H535v.69h-.74c-.56,0-.78-.22-.78-.75V56.19h-.67v-.7h.67V54h.79v1.51H535v.7h-.73Z"/><path class="cls-3" d="M539.6,55.49h.79v4.8h-.79v-.93a2,2,0,0,1-1.75,1,2.29,2.29,0,0,1-2.25-2.49,2.33,2.33,0,0,1,2.27-2.53,2,2,0,0,1,1.73.9Zm-2.78,1.17a2.17,2.17,0,0,0-.39,1.27A1.64,1.64,0,0,0,538,59.72a1.78,1.78,0,0,0,1.64-1.88A1.61,1.61,0,0,0,538,56.09,1.3,1.3,0,0,0,536.82,56.66Z"/><path class="cls-3" d="M545.72,59.7a2.44,2.44,0,0,1-1.77.7,2.33,2.33,0,0,1-2.35-2.49,2.42,2.42,0,0,1,4.14-1.81l-.51.51a1.73,1.73,0,0,0-1.22-.5,1.61,1.61,0,0,0-1.6,1.77,1.63,1.63,0,0,0,1.59,1.8,1.69,1.69,0,0,0,1.23-.52Z"/><path class="cls-3" d="M547.76,59.31c0,.24.07.29.37.29h.36v.69h-.74c-.56,0-.78-.22-.78-.75V56.19h-.67v-.7H547V54h.79v1.51h.73v.7h-.73Z"/><rect class="cls-3" x="75.76" y="52.87" width="52.42" height="0.75"/><polygon class="cls-3" points="127.08 56.99 133.56 53.25 127.08 49.51 127.08 56.99"/><rect class="cls-3" x="446.7" y="57.2" width="42.42" height="0.75"/><polygon class="cls-3" points="488.03 61.32 494.51 57.58 488.03 53.84 488.03 61.32"/><polygon class="cls-3" points="321.26 94.38 277.38 94.38 277.38 93.63 320.51 93.63 320.51 15.05 277.38 15.05 277.38 14.3 321.26 14.3 321.26 94.38"/><rect class="cls-3" x="321.07" y="57.33" width="34.52" height="0.75"/><circle class="cls-3" cx="321.21" cy="57.71" r="2.82"/><polygon class="cls-3" points="354.5 61.45 360.98 57.71 354.5 53.97 354.5 61.45"/><path class="cls-3" d="M12.34,56.28h-.87V49.34h.87v3.12h3.38V49.34h.88v6.94h-.88V53.21H12.34Z"/><path class="cls-3" d="M22.75,53.9a2.45,2.45,0,0,1-2.46,2.5,2.52,2.52,0,1,1,2.46-2.5Zm-4.07,0a1.62,1.62,0,0,0,1.63,1.78,1.65,1.65,0,0,0,1.63-1.78,1.64,1.64,0,1,0-3.26,0Z"/><path class="cls-3" d="M24.75,51.49v.66a1.49,1.49,0,0,1,1.36-.78,1.23,1.23,0,0,1,1.29.88,1.56,1.56,0,0,1,1.52-.88,1.46,1.46,0,0,1,1.22.51,1.9,1.9,0,0,1,.29,1.33v3.07h-.79V53.4c0-.58,0-.72-.14-.91a.92.92,0,0,0-.83-.41c-.7,0-1.08.47-1.08,1.32v2.88H26.8V53.41a1.71,1.71,0,0,0-.16-.91.83.83,0,0,0-.78-.42c-.7,0-1.11.5-1.11,1.33v2.87H24V51.49Z"/><path class="cls-3" d="M32.45,54.14a1.45,1.45,0,0,0,.31.87,1.55,1.55,0,0,0,1.29.66,1.67,1.67,0,0,0,1.44-.82l.69.26a2.34,2.34,0,0,1-2.13,1.29,2.52,2.52,0,1,1,2.4-2.57c0,.06,0,.2,0,.31Zm3.16-.58a1.43,1.43,0,0,0-.27-.82A1.63,1.63,0,0,0,34,52.08a1.53,1.53,0,0,0-1.29.67,1.79,1.79,0,0,0-.27.81Z"/><path class="cls-3" d="M41.51,51.49v.87a1.86,1.86,0,0,1,1.75-1,2.27,2.27,0,0,1,2.26,2.48,2.31,2.31,0,0,1-2.26,2.55,2.26,2.26,0,0,1-1-.25,1.78,1.78,0,0,1-.7-.61v3h-.79v-7Zm0,2.47a1.58,1.58,0,0,0,1.58,1.75,1.63,1.63,0,0,0,1.59-1.83,1.86,1.86,0,0,0-.42-1.3,1.56,1.56,0,0,0-1.13-.5A1.68,1.68,0,0,0,41.51,54Z"/><path class="cls-3" d="M50.34,51.49h.79v4.79h-.79v-.92a2,2,0,0,1-1.75,1,2.3,2.3,0,0,1-2.26-2.5,2.33,2.33,0,0,1,2.28-2.53,2,2,0,0,1,1.73.91Zm-2.78,1.16a2.2,2.2,0,0,0-.4,1.27,1.65,1.65,0,0,0,1.54,1.79,1.77,1.77,0,0,0,1.65-1.87,1.62,1.62,0,0,0-1.63-1.76A1.31,1.31,0,0,0,47.56,52.65Z"/><path class="cls-3" d="M56.26,51.49h.79v4.83a2.23,2.23,0,0,1-.63,1.75,2.48,2.48,0,0,1-1.77.64,2.69,2.69,0,0,1-2.13-.88l.54-.54a2.92,2.92,0,0,0,.46.42,2.3,2.3,0,0,0,1.13.28,1.72,1.72,0,0,0,1.24-.47,1.63,1.63,0,0,0,.37-1.14v-1a2,2,0,0,1-1.77,1,2.31,2.31,0,0,1-2.22-2.5,2.76,2.76,0,0,1,.76-2,2.14,2.14,0,0,1,1.52-.56,1.93,1.93,0,0,1,1.71.94Zm-3.15,2.38a1.65,1.65,0,0,0,1.57,1.8,1.61,1.61,0,0,0,1.21-.58,1.94,1.94,0,0,0,.35-1.19,1.68,1.68,0,0,0-.38-1.27,1.64,1.64,0,0,0-1.16-.53A1.61,1.61,0,0,0,53.11,53.87Z"/><path class="cls-3" d="M59.06,54.14a1.45,1.45,0,0,0,.31.87,1.55,1.55,0,0,0,1.29.66,1.67,1.67,0,0,0,1.44-.82l.69.26a2.34,2.34,0,0,1-2.13,1.29,2.52,2.52,0,1,1,2.4-2.57c0,.06,0,.2,0,.31Zm3.16-.58a1.43,1.43,0,0,0-.27-.82,1.63,1.63,0,0,0-1.32-.66,1.53,1.53,0,0,0-1.29.67,1.79,1.79,0,0,0-.27.81Z"/><polygon class="cls-3" points="154.14 44.39 153.39 44.39 153.39 14.3 196.27 14.3 196.27 15.05 154.14 15.05 154.14 44.39"/><polygon class="cls-3" points="195.18 18.41 201.65 14.67 195.18 10.93 195.18 18.41"/><polygon class="cls-3" points="196.27 92.2 153.39 92.2 153.39 62.1 154.14 62.1 154.14 91.45 196.27 91.45 196.27 92.2"/><polygon class="cls-3" points="195.18 95.56 201.65 91.82 195.18 88.08 195.18 95.56"/><rect class="cls-4" x="139.81" y="39.29" width="27.92" height="27.92" transform="translate(7.38 124.32) rotate(-45)"/><rect class="cls-5" x="139.81" y="39.29" width="27.92" height="27.92" transform="translate(7.38 124.32) rotate(-45)"/><path class="cls-3" d="M145.62,55.42a3.42,3.42,0,0,1-1.42.26A2.52,2.52,0,0,1,141.53,53a2.68,2.68,0,0,1,2.82-2.83,2.86,2.86,0,0,1,1.28.24l-.17.57a2.49,2.49,0,0,0-1.09-.23,2,2,0,0,0-2.1,2.23,2,2,0,0,0,2.07,2.16,2.84,2.84,0,0,0,1.13-.22Z"/><path class="cls-3" d="M146.47,49.92h.7v2.41h0a1.31,1.31,0,0,1,.5-.49,1.47,1.47,0,0,1,.72-.2c.52,0,1.35.32,1.35,1.65V55.6h-.7V53.37c0-.62-.23-1.15-.9-1.15a1,1,0,0,0-.94.71.79.79,0,0,0-.05.33V55.6h-.7Z"/><path class="cls-3" d="M154.41,53.63a1.89,1.89,0,0,1-1.93,2,1.84,1.84,0,0,1-1.85-2,1.89,1.89,0,0,1,1.92-2A1.83,1.83,0,0,1,154.41,53.63Zm-3.07,0c0,.85.49,1.49,1.18,1.49s1.17-.64,1.17-1.51c0-.65-.33-1.48-1.16-1.48S151.34,52.93,151.34,53.67Z"/><path class="cls-3" d="M158.8,53.63a1.89,1.89,0,0,1-1.92,2,1.84,1.84,0,0,1-1.86-2,1.89,1.89,0,0,1,1.92-2A1.83,1.83,0,0,1,158.8,53.63Zm-3.07,0c0,.85.49,1.49,1.18,1.49s1.17-.64,1.17-1.51c0-.65-.32-1.48-1.16-1.48S155.73,52.93,155.73,53.67Z"/><path class="cls-3" d="M159.6,54.88a1.85,1.85,0,0,0,.92.28c.52,0,.76-.26.76-.58s-.2-.52-.72-.71c-.7-.25-1-.63-1-1.1a1.2,1.2,0,0,1,1.34-1.13,1.92,1.92,0,0,1,.95.24l-.18.51a1.46,1.46,0,0,0-.79-.22c-.41,0-.64.24-.64.52s.23.47.73.66c.67.26,1,.59,1,1.17s-.53,1.16-1.45,1.16a2.22,2.22,0,0,1-1.09-.27Z"/><path class="cls-3" d="M163.25,53.79a1.24,1.24,0,0,0,1.33,1.34,2.57,2.57,0,0,0,1.07-.2l.12.51a3.17,3.17,0,0,1-1.29.24,1.8,1.8,0,0,1-1.9-2,1.88,1.88,0,0,1,1.82-2.08,1.64,1.64,0,0,1,1.6,1.82,2.06,2.06,0,0,1,0,.33Zm2.07-.5a1,1,0,0,0-1-1.15,1.18,1.18,0,0,0-1.08,1.15Z"/><polygon class="cls-3" points="196.27 163.71 153.39 163.71 153.39 91.82 154.14 91.82 154.14 162.96 196.27 162.96 196.27 163.71"/><polygon class="cls-3" points="195.18 167.08 201.65 163.34 195.18 159.6 195.18 167.08"/><path class="cls-3" d="M334,164c-32.73,0-56.57-.11-56.89-.43l-.11-.11v-.16h.38l.12-.35c2.47.55,126.92.23,192.73,0V57.71H471v106h-.38C430.5,163.87,375.22,164,334,164Z"/></g></g></svg>