<?xml version="1.0" encoding="utf-8"?>
<!-- Generator: Adobe Illustrator 23.0.6, SVG Export Plug-In . SVG Version: 6.00 Build 0)  -->
<svg version="1.1" id="Layer_1" xmlns="http://www.w3.org/2000/svg" xmlns:xlink="http://www.w3.org/1999/xlink" x="0px" y="0px"
	 viewBox="0 0 472.5 266.2" style="enable-background:new 0 0 472.5 266.2;" xml:space="preserve">
<style type="text/css">
	.st0{fill:#FFFFFF;}
	.st1{opacity:0.2;fill:#FFFFFF;enable-background:new    ;}
	.st2{fill:none;}
	.st3{fill:none;stroke:#000000;stroke-width:0.2;stroke-miterlimit:10;}
	.st4{fill:#2A2D7D;}
	.st5{fill:#FFD1D1;}
	.st6{opacity:0.8;fill:#00008C;enable-background:new    ;}
	.st7{opacity:0.8;fill:#9797EA;enable-background:new    ;}
	.st8{opacity:0.5;fill:#00008C;enable-background:new    ;}
	.st9{fill:#1B1B1B;}
	.st10{opacity:0.6;fill:#1B1B1B;enable-background:new    ;}
	.st11{opacity:0.8;fill:#FFFFFF;enable-background:new    ;}
	.st12{opacity:0.2;fill:#00008C;enable-background:new    ;}
	.st13{opacity:0.8;}
	.st14{fill:#00008C;}
	.st15{fill:none;stroke:#000000;stroke-width:0.4;stroke-miterlimit:10;}
</style>
<g>
	<path class="st0" d="M472.4,255.4L472.4,255.4h-48.1c5.5,0,10-4.5,10-10V10.2c0-5.5-4.5-10-10-10H48.2c-5.5,0-10,4.5-10,10v235.2
		c0,5.5,4.5,10,10,10H0.1v3.9c0,0,43,6.8,114.4,6.8H358c71.4,0,114.4-6.8,114.4-6.8l0,0V255.4L472.4,255.4z"/>
	<title>colablaptop_1</title>
	<g id="Layer_1-2-2">
		<g id="Layer_2-2">
			<rect x="57.3" y="16.8" class="st1" width="358.9" height="224.9"/>
			<path class="st2" d="M424.3,255.4c5.5,0,10-4.5,10-10V10.1c0-5.5-4.5-10-10-10H48.2c-5.5,0-10,4.5-10,10v235.2
				c0,5.5,4.5,10,10,10H0.1v3.9c0,0,43,6.9,114.4,6.9H358c71.4,0,114.4-6.9,114.4-6.9v-3.9L424.3,255.4z"/>
			<path class="st3" d="M48.2,0.2h376.1c5.5,0,10,4.5,10,10v235.2c0,5.5-4.5,10-10,10H48.2c-5.5,0-10-4.5-10-10V10.1
				C38.2,4.6,42.7,0.2,48.2,0.2z"/>
			<rect x="56.8" y="16.8" class="st3" width="358.9" height="224.9"/>
			<rect x="0.1" y="255.4" class="st3" width="472.4" height="3.9"/>
			<path class="st3" d="M0.1,259.3c0,0,43,6.9,114.4,6.9H358c71.4,0,114.4-6.9,114.4-6.9H0.1z"/>
			<path class="st3" d="M195.4,255.4H277c0.7,0,1.2,0.6,1.2,1.2v1.4c0,0.7-0.6,1.2-1.2,1.2h-81.6c-0.7,0-1.2-0.6-1.2-1.2v-1.4
				C194.2,255.9,194.8,255.4,195.4,255.4z"/>
		</g>
	</g>
	<g>
		<rect x="56.8" y="16.8" class="st3" width="358.9" height="224.9"/>
	</g>
	<g id="Layer_1-2">
		<path class="st4" d="M262.7,193.5c-2.2-36-23.2-69.3-52.1-90.9c-23.1-17.3-58.7-34.4-88.5-32c-24.4,1.9-50.5,28.6-60.9,49
			c-1.7,3.2-3.1,6.6-4.3,10v82.5c2.9,10.2,6.9,20.1,11.7,29.5h187.6C260.9,226,263.7,209.8,262.7,193.5z"/>
		<path class="st5" d="M371.1,41c-6.1-9.7-14.4-17.8-24-24.2H240c-4.4,4.2-8.5,9-13,13.2c-24.4,22.6-42.3,51.7-51.2,83.9
			c-5.1,18.3-7.1,37.4-5.9,56.4c1.5,21.6,8.1,44.5,25.4,57.6c16.3,12.4,38.5,13.2,59,13.5c20.1,0.3,40.3,0.6,60-3.7
			c19.7-4.3,38.8-13.5,51.2-29.3c17.2-21.7,18.9-51.5,19.9-79.1C386.6,99.1,387.3,66.7,371.1,41z"/>
		<g>
			<path class="st6" d="M254.7,331.8c0.4,0.4,0.9,0.7,1.4,1c-0.1-0.1-0.2-0.3-0.4-0.4C255.4,332.2,254.9,332.1,254.7,331.8z"/>
			<path class="st6" d="M263.2,241.6c0.4-4.2,1.4-14.4,1.4-15.1c-2,2.1-5,9.6-8,15.1"/>
			<path class="st6" d="M262.2,241.7c0.3-0.3,0.6-0.6,0.9-1c0.1-1.1,0.2-2.1,0.3-3.2c0.1-0.8,0-1.6,0.1-2.4c0.1-0.5,0.2-0.9,0.3-1.4
				c0-0.7,0-1.5,0-2.2c0.1-1.7,0.4-3.4,0.8-5c0.2-0.7,0.4-1.3,0.7-2c0.1-0.4,0.2-0.8,0.3-1.1c0.2-0.5,0.7-0.9,1.1-1.4
				c0.3-0.4,0.4-0.3,0.7-0.6c0.2-0.2,0.4-0.5,0.5-0.8c0.3-0.9,0.5-1.8,0.5-2.7c0-1,0.2-2.1,0-3c-0.2-0.8-0.5-1.6-0.8-2.3
				c-0.2-0.5-0.3-0.4-0.2-1c0.1-0.7,0.3-1.4,0.4-2c0.1-0.9,0.2-1.8,0.3-2.7c0.1-0.7,0.2-1.4,0.3-2c0-0.1,0.2-0.3,0.2-0.4
				c0-0.3,0-0.5,0-0.8c0-0.6,0.1-1.1,0.3-1.6c0.3-1.2,0.4-2.5,0.5-3.7s0.4-2.4,0.5-3.7c0.1-1,0.5-2,0.5-3c0-1.1,0.1-1.8,0.6-2.8
				c-1.1-12.2-1.6-24.6-0.9-37c-0.1-1-0.2-2-0.2-3.1v-4.9c0-3,0.2-6.1,0-9c-0.1-0.7-0.3-1.4-0.3-2.1c0-0.2,0-0.4,0-0.6
				c-0.1-0.5-0.2-1-0.5-1.5c-0.4-0.8-0.7-1.7-1-2.5c-0.7-1.9-1.4-4.2-0.8-6.2c0.4-1.1,0.6-2.3,0.7-3.5c0-0.9,0.3-1.7,0.3-2.6
				c0-2,0.5-4,0.8-5.9c0.1-0.5,0.2-1,0.3-1.4c0-0.2,0-0.4,0-0.7c0-0.2,0.2-0.2,0.3-0.4c0.1-0.4,0.2-2.2-0.1-2.5
				c0.5-0.5,1.1-0.5,1.7-0.8c0.5-0.3,0.9-0.7,1.2-1.2c0.3-0.5,0.6-1.1,0.7-1.7s0.3-1.3,0.5-1.9c0.4-1.4,0.7-2.5,0.4-3.9
				c-0.3-1.1-0.8-2.3-0.8-3.5c0-0.3-0.1-0.6-0.2-0.9c0-0.3-0.1-0.6,0-0.9c0-0.5-0.2-0.9-0.5-1.3c-0.4-0.3-1.1-0.3-1.5-0.6
				c-0.4-0.3-0.7-0.6-1-1c-0.6-0.8-0.9-1.7-1.3-2.5c-0.5-0.8-1.2-1.3-1.8-2c-0.9-1.1-1.4-2.4-2.6-3.3c-0.4-0.3-0.9-0.6-1.4-0.9
				c-0.5-0.2-1-0.3-1.5-0.3l-0.8-0.3c-0.1,0-0.1,0-0.2,0c-0.3,0-0.4,0.2-0.6,0.2c-0.6,0.1-1.2,0.1-1.8,0.1c-0.7,0-1.3-0.2-2-0.3
				c-0.7,0-1.3,0-2,0c-1.4,0-2.8-0.2-4.2-0.5c-0.3-0.1-0.6-0.2-1-0.3c-0.3-0.1-0.5,0-0.8,0s-0.2-0.2-0.4-0.3c-0.2,0-0.4,0-0.6,0
				c-0.4-0.1-0.7-0.2-1.1-0.3c-0.5-0.2-1-0.3-1.5-0.4c-0.5,0-1.1,0.4-1.6,0.6c-0.4,0.2-0.7,0.4-1,0.7c-0.3,0.2-0.6,0.2-0.9,0.4
				c-0.2,0.1-0.3,0.3-0.4,0.4c-0.4,0.3-0.8,0.6-1.1,0.9c-1.5,1.4-2.9,3.1-3.3,5c-0.2,0.9-1.2,1.9-1.9,2.6s-1.7,1-2.4,1.6
				c-0.5,0.4-0.6,1.3-1.4,1.4c0,0.5-0.3,0.7-0.3,1.3c0,0.5,0,1,0,1.6c0,1.1-0.1,2.2-0.3,3.3c-0.1,0.6-0.4,1-0.2,1.6
				c0.1,0.5,0.2,0.8,0.3,1.4c0.2,1.4,0.8,2.8,1,4.2c0.6,0.1,1.1,0.3,1.7,0.6c0.5,0.1,0.9,0.5,0.9,1c0.2,1,0.2,2.1,0.3,3.1
				c0,2.1,0,4.2,0,6.2c0,1.3,0,2.6-0.2,3.9c-0.1,1.1,0,2.1-0.4,3.1c-0.4,1.2-0.7,2.4-1.4,3.4c-0.8,1-1,2.1-1.4,3.3
				c-0.4,1.1-1,2.2-1.3,3.3c-0.2,0.6-0.4,1.1-0.8,1.6c-0.3,0.6-0.5,1.3-0.8,1.9c-0.8,1.4-1.3,2.8-1.6,4.3c-0.7,3.2-1.6,6.3-1.5,9.6
				c0,1.2-0.3,2.3-0.3,3.5s0,2.3-0.2,3.5c-0.2,1.1-0.1,2.4-0.1,3.6v4.1c0,2.3,0,4.6-0.2,6.9c-0.1,0.7,0,1.5,0,2.2
				c0,0.6-0.2,1.2-0.3,1.9c-0.1,0.8,0,1.5,0,2.3c0,0.9-0.3,1.8-0.3,2.7c-0.1,1.5,0,2.9-0.2,4.3c-0.2,1.6,0,3.2-0.3,4.8
				c-0.2,1.8-0.4,3.7-0.5,5.5c-0.2,1.8,0.2,3.7-0.1,5.5c-0.3,2.1-0.2,4.3-0.7,6.3c-0.5,2.5-0.9,4.9-1.3,7.4
				c-0.4,2.2-0.7,4.4-1.2,6.6c-0.4,1.9-0.6,3.9-1,5.8c-0.6,2.7-1.5,5.3-2.3,8c-0.6,1.9-1.1,3.9-1.7,5.8c-0.3,0.7-0.5,1.8-0.8,2.6"/>
			<path class="st7" d="M253.9,77.8c-2.2-0.2-4.4-0.4-6.6-0.7c-1.7-0.2-4-0.9-5.5,0.3l-0.2,0.1c0.4,0.3,0.9,0.5,1.4,0.4
				c0.9,0,1.7,0.1,2.6,0.3c1,0.3,1.9,1.5,2.3,2.4c0.5,1,0.4,2.2-0.4,3c-0.3,0.3-0.6,0.7-0.8,1c-0.1,0.2-0.2,0.4-0.4,0.6
				c-0.2,0.3-0.5,0.5-0.7,0.8s-0.4,0.6-0.6,0.9c-0.1,0.3,0,0.6,0,0.9c-0.1,0.3-0.2,0.4-0.3,0.6c0,0.4,0,0.7,0,1.1
				c0,0.8-0.4,3.2,0.3,3.6c0.4,0.3,1.1-0.1,1.5-0.2h0.2c0.3-0.6,0.6-1.1,1-1.7c0.2-0.3,0.5-0.6,0.9-0.9c-1.1-1.7-0.4-4.7,2.3-4.7
				c3.1,0,3.7,3.9,1.8,5.4c1.2,1.2,3.2,2,4.5,3.4c0.1,0.1,0.2,0.2,0.2,0.3c0.4,0,0.8-0.2,1.1-0.6c0.2-0.2,0-0.6,0-0.9
				c0.1-0.3,0.2-0.6,0.4-0.8c0.5-0.6,0.9-0.9,0.9-1.7c0-0.5-0.2-1-0.5-1.4c-0.6-1.1-1.6-1.8-2.5-2.8c-0.4-0.4-0.7-0.6-0.9-1.2
				c-0.3-0.8-0.5-1.6-0.5-2.4c0-1.3-0.2-2.7,1.1-3.4c0.7-0.3,1.4-0.5,2.2-0.7c0.6-0.1,1.6-0.2,1.9-0.8c0.1-0.1,0.1-0.3,0.1-0.4
				C258.7,77.7,256.2,78,253.9,77.8z"/>
			<path class="st7" d="M244.1,75.8c-0.1,0.1-0.3,0.1-0.4,0.2C243.7,76,243.7,75.9,244.1,75.8z"/>
			<path class="st6" d="M284.1,211.6c-0.3-1-0.5-2.1-0.6-3.1c-0.2-3.3,0-6.7,0-10.1c0-3,1.5-5.9,1.3-8.9c-0.2-2.5-1.3-5.5-2.6-7.7
				c-0.8-1.3-1.5-2.6-2.1-3.9c-0.8-1.8-1.5-3.7-2.4-5.4c-0.4-0.8-0.8-1.5-1.2-2.3c-0.2-0.5-0.4-1-0.7-1.5c-0.2-0.3-0.4-0.5-0.5-0.8
				c-0.2-0.7-0.4-1.3-0.8-1.9c-0.2-0.4-0.5-0.8-0.6-1.2c-0.3-0.6-0.7-1.2-1-1.8c-0.4-0.8-0.6-1.7-1.1-2.5c-0.3-0.7-0.5-1.3-0.7-2
				c-0.2-0.5-0.4-1.1-0.5-1.6c-0.4-1.4-0.6-2.8-0.6-4.3c0-0.2,0-0.4,0-0.6c-0.8,12.3-0.2,24.8,0.9,37v-0.1c0.2,0.1,0.5,0.8,0.6,1
				c0.3,0.6,0.8,1,1.2,1.6c0.7,1.1,1.3,2.2,1.8,3.4c0.5,1.4,0.4,2.9,0.7,4.3c0.2,0.8,0.3,1.7,0.5,2.5c0,0.4,0,0.7,0,1.1
				c0.1,0.3,0.2,0.5,0.3,0.8c0.1,0.5,0,1,0.1,1.4c0.1,0.7,0.5,1.2,0.6,1.8c0.2,0.7,0.4,1.3,0.6,2c0.2,0.6,0.7,1,0.9,1.6
				c0.2,0.5,0.4,1.1,0.6,1.6c0.5,0.7,1.4,0.6,2.1,1c0.9,0.6,0.8,1.6,0.8,2.6c0,1.1-0.4,1.9-0.9,2.9c-0.3,0.7-0.4,2.3,0.9,1.8
				c0.6-0.2,0.9-0.8,1.2-1.2c0.3-0.2,0.5-0.5,0.6-0.8c0.5-0.9,0.7-1.9,0.7-3c0.1-0.8,0-1.6-0.1-2.4
				C284.4,212.4,284.1,211.9,284.1,211.6z"/>
			<path class="st6" d="M284.1,211.6c-0.3-1-0.5-2.1-0.6-3.1c-0.2-3.3,0-6.7,0-10.1c0-3,1.5-5.9,1.3-8.9c-0.2-2.5-1.3-5.5-2.6-7.7
				c-0.8-1.3-1.5-2.6-2.1-3.9c-0.8-1.8-1.5-3.7-2.4-5.4c-0.4-0.8-0.8-1.5-1.2-2.3c-0.2-0.5-0.4-1-0.7-1.5c-0.2-0.3-0.4-0.5-0.5-0.8
				c-0.2-0.7-0.4-1.3-0.8-1.9c-0.2-0.4-0.5-0.8-0.6-1.2c-0.3-0.6-0.7-1.2-1-1.8c-0.4-0.8-0.6-1.7-1.1-2.5c-0.3-0.7-0.5-1.3-0.7-2
				c-0.2-0.5-0.4-1.1-0.5-1.6c-0.4-1.4-0.6-2.8-0.6-4.3c0-0.2,0-0.4,0-0.6c-0.8,12.3-0.2,24.8,0.9,37v-0.1c0.2,0.1,0.5,0.8,0.6,1
				c0.3,0.6,0.8,1,1.2,1.6c0.7,1.1,1.3,2.2,1.8,3.4c0.5,1.4,0.4,2.9,0.7,4.3c0.2,0.8,0.3,1.7,0.5,2.5c0,0.4,0,0.7,0,1.1
				c0.1,0.3,0.2,0.5,0.3,0.8c0.1,0.5,0,1,0.1,1.4c0.1,0.7,0.5,1.2,0.6,1.8c0.2,0.7,0.4,1.3,0.6,2c0.2,0.6,0.7,1,0.9,1.6
				c0.2,0.5,0.4,1.1,0.6,1.6c0.5,0.7,1.4,0.6,2.1,1c0.9,0.6,0.8,1.6,0.8,2.6c0,1.1-0.4,1.9-0.9,2.9c-0.3,0.7-0.4,2.3,0.9,1.8
				c0.6-0.2,0.9-0.8,1.2-1.2c0.3-0.2,0.5-0.5,0.6-0.8c0.5-0.9,0.7-1.9,0.7-3c0.1-0.8,0-1.6-0.1-2.4
				C284.4,212.4,284.1,211.9,284.1,211.6z"/>
			<path class="st8" d="M258.5,79.8c-0.9,0.7-2.4,1.3-2.5,2.5c-0.1,1,0.4,2,0.8,2.9c0.5,1.3,1.8,1.9,2.5,3c0.7,1.3,1.3,2.6,2,3.9
				c0.3,0.6,0.3,0.7,1,0.7c0.3,0,0.6,0,0.8-0.2c0.2-0.2,0.1-0.7,0.4-1s1.2-0.5,1.6-0.6c0.7-0.2,1.4-0.1,2.1-0.3
				c0.7,0,1.3-0.5,1.5-1.2c0.3-0.6,0.3-1.2,0.1-1.8c-0.5-1.3-1.9-2.2-2.7-3.3c-0.4-0.5-0.6-1.1-1-1.6s-0.8-1.1-1.2-1.6
				c-0.3-0.4-0.7-0.8-1.1-1.2c-0.3-0.2-0.6-0.3-0.9-0.4c-0.1,0-0.3,0-0.4,0c-0.2,0-0.4-0.2-0.7-0.2"/>
			<path class="st8" d="M247.1,79.1L247.1,79.1c-0.6-0.3-1.2-0.4-1.8-0.5c-0.4,0-0.8,0-1.2,0c-0.3,0-0.6,0.1-0.8,0.2
				c-0.3,0-0.5,0.1-0.8,0.2c-0.2,0.1-0.5,0.2-0.7,0.3c-0.4,0.2-0.7,0.4-0.9,0.7c-0.3,0.3-0.6,0.5-0.9,0.8c-0.3,0.4-0.6,0.7-0.9,1.1
				c-0.2,0.4-0.5,0.7-0.7,1.1c-0.2,0.3-0.3,0.6-0.4,0.9c-0.1,0.2-0.2,0.4-0.2,0.6c-0.2,0.7-0.1,1.6-0.1,2.3c0,0.4,0,0.7,0.3,1
				c0.4,0.5,0.9,0.9,1.5,1.3c0.7,0.4,1.4,0.7,2.2,0.9c0.5,0.2,1.1,0.1,1.5-0.3c0.3-0.3,0.5-0.5,0.8-0.8c0.1-0.1,0.2-0.3,0.3-0.4
				c0.2-0.3,0.5-0.6,0.8-0.8c0.4-0.3,0.8-0.6,1.2-1s0.8-0.8,1.2-1.1c0.6-0.4,1-0.9,1.4-1.5c0.2-0.2,0.3-0.5,0.4-0.8
				c0.1-0.4,0.1-0.8,0.1-1.1c0-0.3,0.1-0.6,0-0.9c0-0.1-0.1-0.1-0.1-0.2s0-0.2,0-0.3c-0.1-0.3-0.3-0.4-0.4-0.7
				c-0.1-0.2-0.3-0.4-0.4-0.6C247.9,79.3,247.5,79.1,247.1,79.1z"/>
			<path class="st9" d="M248.9,88.5c0.1,0.2,0.2,0.4,0.5,0.5c0.2,0.1,0.3,0,0.4-0.2c0.1-0.1,0.2-0.2,0.2-0.4c0-0.3,0-0.3-0.3-0.4
				c-0.2-0.1-0.8,0-0.9-0.2c-0.1-0.1,0-0.4,0-0.6s0.1-0.4,0.2-0.6c0.2-0.3,0.5-0.4,0.8-0.5c0.2,0,0.4,0,0.6,0c0.2,0,0.3-0.1,0.5-0.1
				s0.5,0,0.7,0s0.4,0,0.6,0.1c0.2,0.1,0.5,0.1,0.7,0.2c0.4,0.2,0.7,0.6,0.9,1c0.1,0.3,0.1,0.7,0,1c-0.2,0.3-0.5,0.3-0.8,0.3
				c-0.2,0-1-0.1-1,0.3c0,0.2,0.2,0.2,0.3,0.2c0.2,0.2,0.5,0.3,0.8,0.4c0.4,0,0.8,0.2,1.1,0.4c0.3,0.3,0.1,0.7-0.2,0.9
				c-0.4,0.2-0.7,0.4-1.1,0.5c-0.4,0.2-0.8,0.3-1.3,0.3c-0.1,0-0.2-0.1-0.4-0.1c-0.1,0-0.3,0-0.4-0.1c-0.2-0.1-0.5-0.2-0.8-0.2
				c-0.3-0.1-0.5-0.1-0.8-0.1c-0.2,0-0.4,0-0.5-0.1c-0.4-0.4-0.5-1-0.5-1.5C248.2,89.3,248.4,88.8,248.9,88.5z"/>
			<path class="st10" d="M245.1,96.5c0.2-0.1,0.4-0.2,0.6-0.3c0.2-0.1,0.3-0.2,0.4-0.4c0.3-0.4,0.7-0.7,1-1.1
				c0.2-0.2,0.4-0.3,0.6-0.5c0.1-0.1,0.3-0.2,0.4-0.4c0.1-0.1,0.3-0.1,0.4-0.1c0.2,0,0.4-0.1,0.6-0.1c0.4-0.1,0.7-0.3,1-0.6
				c0.2-0.3,0.5-0.4,0.8-0.4s0.6,0.1,0.9,0.3c0.5,0.3,1,0.5,1.6,0.6c0.3,0.1,0.5,0.3,0.8,0.4s0.5,0.3,0.8,0.5
				c0.2,0.2,0.4,0.3,0.6,0.5c0.2,0.1,0.3,0.3,0.5,0.5c0.3,0.2,0.6,0.5,0.9,0.7c0.2,0.1,0.8,0.4,0.7,0.7c-0.1,0.4-0.6,0.2-0.9,0.2
				c-0.4-0.1-0.8-0.2-1.1-0.4c-0.2-0.2-0.4-0.3-0.7-0.4c-0.6-0.3-1.3-0.4-2-0.4c-0.3,0-0.6-0.1-1-0.1s-0.8,0-1.2,0s-0.8-0.1-1.1-0.1
				c-0.1,0-0.2,0-0.4,0c-0.1,0-0.1,0.1-0.2,0.1c-0.1,0-0.2,0-0.4,0s-0.5,0.1-0.7,0.1c-0.4,0.1-0.7,0.2-1.1,0.2
				c-0.4,0.1-0.8,0.3-1.1,0.6c-0.3,0.2-0.6,0.3-0.9,0.3C245.1,96.9,245.1,96.8,245.1,96.5z"/>
			<path class="st9" d="M245.9,82.9c0,0.1,0.1,0.2,0.1,0.3c0,0.1,0,0.3,0,0.4c0,0.2,0,0.4,0.1,0.5c0,0.1,0,0.3-0.1,0.4
				c0,0.3-0.1,0.5-0.2,0.7c-0.2,0.2-0.4,0.4-0.6,0.5c-0.3,0.1-0.6,0.2-0.9,0.3c-0.3,0.1-0.7,0.2-1,0.4c-0.2,0.1-0.4,0.1-0.5,0
				c-0.3-0.1-0.6-0.2-0.9-0.4c-0.1-0.1-0.1-0.2-0.2-0.3c-0.2-0.2-0.3-0.5-0.4-0.8c-0.2,0.2-0.3,0.2-0.3,0.5c0,0.2,0,0.4,0.1,0.6
				c0.2,0.3,0.5,0.5,0.9,0.6s0.8,0.2,1.2,0.2h0.6c0.2,0,0.4,0,0.6-0.1c0.2,0,0.4-0.1,0.6-0.2c0.2-0.1,0.3-0.2,0.5-0.4
				c0.1-0.2,0.2-0.3,0.3-0.5s0.3-0.4,0.4-0.6c0.2-0.3,0.3-0.7,0.4-1C246.5,83.7,246.5,82.9,245.9,82.9z"/>
			<path class="st9" d="M244.3,82.1c-0.5,0-1,0-1.5,0.3c-0.3,0.2-0.6,0.4-0.9,0.7c-0.3,0.3-0.5,0.7-0.5,1.1s0.2,0.8,0.5,1.1
				c0.3,0.3,0.7,0.5,1.1,0.6c0.4,0.1,0.9,0.1,1.3-0.1c0.1-0.1,0.2-0.2,0.3-0.3c0.2-0.1,0.3-0.2,0.5-0.4c0.3-0.3,0.5-0.7,0.5-1.1
				c0.1-0.4,0-0.8-0.2-1.2C245.2,82.2,244.7,82.2,244.3,82.1z"/>
			<path class="st9" d="M259.6,83.5c-0.1,0.1-0.3,0.2-0.4,0.4c-0.1,0.2-0.3,0.4-0.4,0.6s-0.1,0.3-0.1,0.5c-0.1,0.2-0.1,0.4-0.1,0.6
				c0.1,0.7,0.7,1.2,1.2,1.7c0.5,0.6,1.1,1,1.8,1.2c0.6,0.1,1.2,0.1,1.7,0.1c0.4,0,0.9-0.1,1.3-0.3c0.3-0.2,0.5-0.5,0.6-0.8
				c0.1-0.1,0.1-0.3,0.2-0.5s0.1-0.4,0.1-0.6s-0.1-0.4-0.1-0.6c0-0.1-0.1-0.3-0.2-0.4s-0.5-0.6-0.8-0.4c-0.1,0.2-0.1,0.4-0.1,0.6
				s-0.1,0.4-0.1,0.5c-0.2,0.3-0.4,0.6-0.8,0.8c-0.8,0.3-1.6,0.4-2.4,0.1c-0.3-0.1-0.5-0.5-0.7-0.7c-0.3-0.3-0.5-0.6-0.6-1
				c0-0.1,0-0.3-0.1-0.4c0-0.2,0-0.4,0-0.5c0-0.2,0-0.4,0-0.6C259.6,83.6,259.5,83.6,259.6,83.5z"/>
			<path class="st9" d="M262.3,82.9c-0.6,0-1.5-0.2-1.8,0.5c-0.1,0.3-0.2,0.5-0.2,0.8c-0.1,0.2-0.1,0.4-0.1,0.6
				c0.1,0.4,0.2,0.7,0.4,1c0.3,0.4,0.7,0.7,1.2,0.7c0.5,0.1,1.1,0.1,1.6-0.1c0.3-0.1,0.5-0.3,0.7-0.6c0.1-0.2,0.2-0.5,0.3-0.7
				c0.1-0.5,0-1.1-0.4-1.5c-0.2-0.2-0.5-0.4-0.8-0.5c-0.2-0.1-0.3-0.1-0.5-0.1C262.6,82.9,262.5,82.8,262.3,82.9"/>
			<path class="st6" d="M246.4,99.9c0.1,0.3,0.3,0.5,0.6,0.7c0.5,0.4,1,0.8,1.6,1c0.2,0,0.4,0.1,0.6,0c0.4,0,0.9,0,1.3,0
				c0.7,0,1.4-0.2,2.2-0.3c0.5,0,1.8-0.1,1.8,0.6c0.1,0.9-1.5,0.8-2,0.8c-0.9,0-1.8,0.4-2.7,0.4c-0.4,0-0.8,0-1.2,0
				c-0.4-0.1-0.7-0.2-1.1-0.4c-0.6-0.3-1.2-0.8-1.6-1.4c-0.2-0.3-0.3-0.6-0.3-0.9c-0.1-0.2-0.1-0.4-0.1-0.6
				C245.8,99.8,246.1,99.9,246.4,99.9z"/>
			<path class="st1" d="M238.3,158.6c0,0.2-0.3,0.4-0.4,0.6c0,0.3,0,0.6,0.1,0.9c0,0.2,0.1,0.5,0.2,0.7c0.1,0.1,0.4,0.2,0.4,0.3
				c0.1,0.1,0,0.5,0,0.7c0.1,0.3,0.1,0.6,0.1,0.9c0,0.5-0.1,1-0.2,1.4c-0.2,0.6-0.4,1.2-0.6,1.7c-0.3,0.7-0.5,1.3-0.7,2
				c-0.3,0.9-0.4,1.7-0.6,2.6c0,0.4,0.1,0.8,0.2,1.1c0.1,0.5,0,1-0.1,1.4c-0.3,1-0.5,1.9-1.3,2.6c-0.1,0.1-0.3,0.2-0.4,0.4
				c-0.1,0.1-0.1,0.1-0.2,0.2c-0.1,0-0.2,0.1-0.3,0.2c-0.1,0.1-0.1,0.2-0.2,0.3c-0.1,0.1-0.3,0.1-0.3,0.2c0,0.1,0.2,0.3,0.2,0.4
				c0.1,0.2,0.3,0.4,0.5,0.5c0.1,0.1,0.2,0.1,0.4,0.1c0.1,0,0.5,0,0.6,0.1c-0.1,0.2-0.4,0.3-0.5,0.4c-0.2,0.2-0.5,0.4-0.7,0.6
				c-0.2,0.1-0.3,0.2-0.4,0.3c0.2,0.2,0.8-0.1,1-0.1c0.4,0,0.8,0,1.2,0c0.7,0,1.4,0,2,0.1c1.3,0.2,2.2,1.1,3.3,1.7
				c0.8,0.5,1.6,1,2.4,1.5c0.7,0.4,1.2,0.9,1.7,1.4c0.5,0.7,1.1,1.3,1.8,1.8c0.7,0.6,1.5,1,2,1.7c0.3,0.4,0.6,0.7,1.1,1
				c0.6,0.3,1.2,0.5,1.8,0.5c0.1,0,0.3,0,0.4,0.1c0.5,0.3,0.4,0.9,0.6,1.4c0.1,0.2,0.1,0.5,0.2,0.7c0,0.3,0,0.6,0,0.9
				c0,0.5,0.1,0.9,0.2,1.4c0.1,0.4,0.1,0.9,0.2,1.3c0,0.4,0.1,0.8,0.1,1.3c0,0.6-0.3,1.3-0.3,1.9c0,0.8,0.1,1.6,0.1,2.4
				c0,0.4,0,0.7,0.1,1.1c0.1,0.2,0.1,0.4,0.2,0.7c0,0.3,0.1,0.7,0.1,1c0.1,0.2,0.2,0.4,0.3,0.5c0.2,0.4,0.2,0.8,0.4,1.1
				c0.1,0.4,0.2,0.9,0.4,1.3c0.1,0.2,0.1,0.1,0.3,0.2c0.2,0,0.6,0,0.7,0.2c0.2,0.3,0.3,0.6,0.4,1c0.2,0.6,0.4,1.2,0.6,1.8
				c0.1,0.2,0.2,0.4,0.4,0.6c0.2,0.2,0.4,0.5,0.6,0.7c0.4,0.4,1.1,0.4,1.6,0.6c0.3,0.1,0.6,0.3,0.8,0.4c0.2,0.1,0.4,0.2,0.6,0.3
				c0.3,0.2,0.5,0.5,0.6,0.9c0.1,0.2,0.2,0.3,0.3,0.5c0.1,0.5-0.1,1-0.1,1.4c0,0.3,0,0.7,0,1c0,0.2-0.1,0.4-0.1,0.6
				c0,0.4-0.2,0.5,0,0.9c0,0.1,0.2,0.6,0.4,0.6c0.2-0.4,0.5-0.8,0.7-1.1c0.1-0.3,0.3-0.6,0.5-0.9c0,0.2,0.1,0.3,0.1,0.5
				c0,0.1,0.1,0.3,0.1,0.4c0,0.1,0.1,0.3,0.1,0.4c0,0.2,0,0.3,0,0.5c0,0.8-0.2,1.5-0.5,2.2c-0.2,0.4-0.3,0.9-0.4,1.3
				c-0.1,0.2-0.1,0.4-0.1,0.6c0,0.1-0.2,0.4-0.2,0.5c0.1,0.3,0.8-0.1,0.9,0.2c0.1,0.4-0.5,0.7-0.4,1c0.2,0,0.4-0.2,0.6-0.3
				c0.3-0.2,0.5-0.4,0.7-0.5c0.5-0.3,0.9-0.8,1.2-1.3c0.3-0.4,0.5-0.8,0.6-1.3c0-0.3,0.1-0.6,0-0.8c0-0.3,0.1-0.6,0.1-0.9
				c0-0.7,0-1.3,0-2c0-0.2-0.1-0.4-0.1-0.6c0-0.2,0.1-0.5,0.2-0.7c0.1-0.1,0.1-0.4,0.3-0.4c0.2,0,0.4,0.9,0.4,1.1
				c0,0.5,0.1,1,0.2,1.5c0.1,0.6,0.1,1.3,0,1.9c0,0.4,0,0.9,0,1.3c0,0.2-0.1,0.5-0.2,0.7c-0.1,0.1-0.2,0.3-0.2,0.4
				c0.1,0.3,0.7,0.1,0.8,0c0.5-0.3,0.6-1,0.8-1.5c0.1-0.1,0.1-0.2,0.2-0.4c0-0.1,0-0.3-0.1-0.4c0-0.3,0-0.6,0-0.9
				c0.1-1.3,0.1-2.6,0-3.9c-0.1-0.4-0.2-0.9-0.4-1.3c-0.1-0.4-0.2-0.7-0.3-1.1c-0.3-0.8-0.6-1.5-0.7-2.4c-0.2-0.8-0.3-1.5-0.5-2.3
				c-0.1-0.3-0.2-0.7-0.3-1c0-0.3,0.1-1.1-0.1-1.3c0-0.2-0.1-0.4-0.2-0.6c-0.1-0.3-0.1-0.5-0.2-0.7c-0.1-0.3-0.2-0.5-0.3-0.8
				c-0.1-0.3-0.1-0.6-0.2-0.9s-0.3-0.7-0.4-1c-0.1-0.4-0.2-0.9-0.3-1.4c-0.2-0.9-0.3-1.8-0.5-2.7c-0.1-0.6-0.2-1.1-0.4-1.7
				c-0.2-0.6-0.3-1.1-0.3-1.7c-0.1-0.7-0.1-1.5-0.2-2.2c0-0.4-0.1-0.8-0.1-1.3c0-0.4-0.1-0.8-0.2-1.2c-0.1-0.7-0.3-1.4-0.4-2.2
				c-0.2-0.7-0.5-1.3-0.9-1.8c-0.5-0.7-0.8-1.5-1.3-2.2c-0.3-0.4-0.6-0.8-0.9-1.1s-0.5-0.6-0.7-1c-0.2-0.2-0.4-0.4-0.5-0.6
				c-0.1-0.2-0.3-0.5-0.4-0.7c-0.2-0.4-0.5-0.8-0.7-1.2c-0.4-0.9-0.9-1.7-1.4-2.6c-0.5-0.8-0.9-1.6-1.3-2.4
				c-0.4-0.9-0.8-1.6-1.3-2.4c-0.6-1.2-1.4-2.3-1.9-3.5c-0.4-0.9-0.7-1.8-1.1-2.8c-0.2-0.5-0.3-1-0.4-1.5c-0.1-0.3-0.1-0.6-0.1-0.8
				c0.1-0.2,0.1-0.4,0.1-0.6c0,0.3-0.1,0.6-0.3,0.8c-0.1,0.2-0.1,0.4-0.1,0.5s0,0.2-0.1,0.3c0-1.6,0.1-4-0.5-5.5
				c-0.3-0.5-0.5-1.1-0.7-1.6c-0.1-0.5-0.2-1-0.4-1.5c-0.3-0.8-0.5-1.6-0.8-2.4c-0.2-0.6-0.3-1.4-0.7-1.9c-0.5-0.8-1.4-0.9-2.2-1
				c-1.4-0.2-2.7,0.5-3.3,1.8c-0.3,0.5-0.6,0.9-0.9,1.4c-0.2,0.3-0.3,0.7-0.5,1c-0.3,0.6-0.6,1.2-0.8,1.8
				C238.9,155.5,237.8,158.2,238.3,158.6z"/>
			<path class="st10" d="M273.3,90.3c-0.2-0.2-0.4-0.3-0.7-0.4c-0.3,0-0.8,0.3-1,0.5c-0.9,0.5-1.6,1.4-2,2.3
				c-0.2,0.5-0.3,1.1-0.4,1.7c-0.1,0.5-0.2,1.1-0.2,1.6c0,0.9-0.1,1.7-0.1,2.6c0,0.7,0,1.5,0,2.2c0,0.6,0,1.2,0,1.8
				c0.1,0.7,0.3,1.7,1.1,1.7c0.2,0,0.3,0,0.5-0.1c0.2,0,0.3,0.1,0.5,0c0.1-0.1,0.2-0.3,0.3-0.4c0.1-0.1,0.3-0.2,0.4-0.3
				c0.3-0.2,0.6-0.6,0.7-0.9c0.4-0.8,1-1.3,1.2-2.2c0.1-0.7,0.2-1.4,0.2-2.2v-4.1c0-0.5,0-1,0-1.5C273.5,92,273.1,91.6,273.3,90.3z"
				/>
			<path class="st10" d="M232.8,87.8c-0.2-0.2-0.4-0.3-0.7-0.3s-0.8,0.4-1,0.6c-0.9,0.6-1.5,1.5-1.8,2.5c-0.1,0.6-0.2,1.2-0.2,1.7
				c-0.1,0.5-0.1,1.1,0,1.6c0.1,0.9,0,1.7,0.1,2.6c0.1,0.7,0.2,1.5,0.2,2.2c0,0.6,0.1,1.2,0.2,1.8c0.2,0.6,0.5,1.7,1.3,1.6
				c0.1,0,0.3-0.1,0.4-0.1c0.2-0.1,0.3,0,0.5-0.1c0.1-0.1,0.2-0.3,0.3-0.4s0.2-0.2,0.4-0.3c0.3-0.3,0.5-0.6,0.6-1
				c0.3-0.8,0.8-1.4,0.9-2.3c0-0.7,0-1.5-0.1-2.2l-0.4-4.1c0-0.5-0.1-1-0.2-1.5C233.3,89.5,232.8,89.2,232.8,87.8z"/>
			<path class="st11" d="M243.5,82.2c-0.4,0.3-0.6,0.4-0.5,0.9c0,0.3,0.1,0.7,0.5,0.7c0.4,0.1,0.6-0.2,0.8-0.5
				c0.1-0.1,0.1-0.3,0.1-0.4c0-0.3-0.1-0.3-0.4-0.3"/>
			<path class="st11" d="M262.1,83.3c-0.3,0-0.6-0.1-0.7,0.3s0.2,0.5,0.5,0.5s0.5-0.1,0.5-0.4C262.4,83.5,262.3,83.2,262.1,83.3"/>
			<path class="st11" d="M262.4,84.4c-0.2,0-0.4,0-0.4,0.2s0.1,0.3,0.3,0.4c0.2,0,0.3-0.1,0.3-0.3C262.6,84.5,262.5,84.3,262.4,84.4
				"/>
			<path class="st12" d="M248.7,89.3c0,1.1-0.7,1.9-1.1,2.7c-0.3,0.5-0.6,0.9-1,1.4c-0.2,0.3-0.4,0.5-0.6,0.7
				c-0.3,0.2-0.5,0.4-0.8,0.7c-0.1,0.2-0.2,0.3-0.4,0.4c-0.1,0.1-0.3,0.2-0.4,0.3c-0.2,0.1-0.2,0.2-0.3,0.2
				c-0.1,0.1-0.2,0.1-0.3,0.1c-0.2,0.2-0.1,0.2,0,0.4c0.2,0.4,0.4,0.3,0.8,0.3c0.5,0,1.1-0.1,1.6-0.1c0.3-0.1,0.6-0.2,0.8-0.3
				c0.4-0.1,0.8-0.3,1.2-0.4c0.5-0.1,0.9-0.1,1.4-0.1c0.9,0,1.8,0,2.7,0c0.2,0,0.3,0,0.5,0c0.4,0.1,0.8,0,1.1,0.1
				c0.6,0.2,1.1,0.5,1.6,0.6c0.6,0.2,1.2,0.3,1.8,0.3c0.1,0,0.3,0,0.4-0.1s0-0.4-0.1-0.6c-0.2-0.5-0.4-1-0.8-1.4s-0.9-0.6-1.3-0.9
				c-0.2-0.2-0.4-0.3-0.6-0.5c-0.2-0.2-0.4-0.4-0.7-0.5c-0.3-0.2-0.6-0.5-0.8-0.8s-0.5-0.4-0.7-0.6s-0.3-0.4-0.4-0.6
				C251.6,89.7,249.9,90,248.7,89.3z"/>
			<g class="st13">
				<path class="st14" d="M259.9,74.8c0.1,0.4,0.2,0.9,0.3,1.3c0.1,0.4,0.3,0.8,0.7,1.1c0.2,0.1,0.4,0.3,0.6,0.3
					c0.2,0.1,0.4,0,0.6-0.1c0-0.1,0.1-0.2,0.1-0.3c0-0.1,0-0.2,0.1-0.3c0-0.2,0.1-0.4,0.1-0.7c0.1-0.9,0-1.8-0.3-2.7
					c-0.2-0.9-0.6-1.7-1.1-2.5c0.5,0.7,0.9,1.6,1.1,2.4c0.2,0.9,0.3,1.8,0.3,2.7c0,0.2,0,0.4-0.1,0.7c0,0.1,0,0.2-0.1,0.3
					c0,0.1,0,0.2-0.1,0.3c-0.2,0.2-0.4,0.2-0.7,0.1c-0.2-0.1-0.4-0.2-0.6-0.4c-0.4-0.3-0.6-0.7-0.7-1.1
					C259.9,75.7,259.9,75.2,259.9,74.8L259.9,74.8z"/>
			</g>
			<g class="st13">
				<path class="st14" d="M238.8,70.4c0.4,0,0.8,0.1,1.2,0.3c0.4,0.1,0.7,0.4,1,0.7l0,0c0.8,0.6,1.5,1.4,2,2.3l0,0
					c0.5,0.7,0.8,1.4,1,2.2c0.1,0.4,0.1,0.8,0,1.2c0,0.2-0.1,0.4-0.2,0.6c-0.1,0.2-0.2,0.4-0.2,0.5v0.1l0,0c-1-0.6-2-1.1-3-1.6
					c-0.5-0.3-1-0.5-1.5-0.7s-1.1-0.4-1.6-0.5c-1.1-0.3-2.2-0.6-3.3-1c-1.1-0.3-2.1-0.7-3.2-1.3c1,0.5,2.1,0.9,3.2,1.2
					c1.1,0.3,2.2,0.6,3.3,1c0.5,0.2,1.1,0.3,1.6,0.5s1,0.4,1.6,0.7c1,0.5,2,1,3,1.6l0,0c0-0.2,0.1-0.4,0.2-0.6
					c0.1-0.2,0.2-0.4,0.2-0.6c0.1-0.4,0.1-0.8,0-1.2c-0.2-0.8-0.6-1.5-1-2.2l0,0c-0.5-0.9-1.1-1.7-1.9-2.2l0,0
					c-0.3-0.3-0.6-0.5-0.9-0.7c-0.4-0.1-0.8-0.2-1.1-0.2L238.8,70.4z"/>
			</g>
			<g class="st13">
				<path class="st14" d="M262.3,97.2c0-0.2,0.1-0.5,0.2-0.7s0.3-0.4,0.4-0.6c0.3-0.4,0.6-0.7,1-1c0.7-0.6,1.5-1,2.3-1.5l4.9-2.3
					l0,0c3.4-1.3,6.8-2.3,10.4-3.1c0.9-0.2,1.8-0.4,2.7-0.5c0.9-0.2,1.8-0.3,2.7-0.5c1.8-0.3,3.6-0.5,5.4-0.5
					c-1.8,0-3.6,0.2-5.4,0.5c-0.9,0.2-1.8,0.3-2.7,0.5c-0.9,0.2-1.8,0.3-2.7,0.5c-3.5,0.8-7,1.8-10.4,3.2l0,0l-4.9,2.4
					c-0.8,0.4-1.6,0.9-2.3,1.5c-0.4,0.3-0.7,0.6-1,0.9S262.4,96.7,262.3,97.2L262.3,97.2z"/>
			</g>
			<g class="st13">
				<path class="st14" d="M264.9,96.2c1.9,0,3.8,0.1,5.7,0.4c1.9,0.3,3.8,0.7,5.6,1.1c0.9,0.2,1.8,0.5,2.8,0.7
					c0.5,0.1,0.9,0.3,1.4,0.4c0.5,0.2,0.9,0.3,1.4,0.4c1.8,0.6,3.5,1.5,5,2.7l0,0c1.8,1,3.4,2.4,4.7,4.1c-1.3-1.6-2.9-3-4.7-4l0,0
					c-1.5-1.1-3.2-2-5-2.7c-0.4-0.2-0.9-0.3-1.4-0.4c-0.5-0.2-0.9-0.3-1.4-0.4c-0.9-0.3-1.8-0.5-2.8-0.7c-1.9-0.4-3.7-0.8-5.6-1.1
					S266.8,96.3,264.9,96.2L264.9,96.2z"/>
			</g>
			<g class="st13">
				<path class="st14" d="M238.7,93.1c-0.2-0.5-0.4-1-0.7-1.5s-0.6-0.9-0.9-1.4l0,0c-0.9-1.1-2-2-3.3-2.5l0,0
					c-1.7-1-3.4-1.9-5.3-2.5l0,0c-3-1.4-6.2-2.5-9.5-3.2l0,0l-3-0.2l-1.5-0.1c-0.5,0-1-0.1-1.5-0.1c-2,0-4,0.4-5.9,1
					c1.9-0.7,3.9-1,5.9-1c0.5,0,1,0,1.5,0.1l1.5,0.1l3,0.2l0,0c3.3,0.7,6.5,1.7,9.5,3.2l0,0c1.9,0.6,3.6,1.4,5.3,2.5l0,0
					c0.7,0.2,1.3,0.6,1.9,1c0.6,0.4,1.1,0.9,1.5,1.5l0,0c0.3,0.5,0.6,0.9,0.9,1.4C238.4,92.1,238.6,92.6,238.7,93.1L238.7,93.1z"/>
			</g>
			<g class="st13">
				<path class="st14" d="M235.9,97.9c-1.1,0.2-2.1,0.4-3.2,0.5c-1.1,0.1-2.2,0.1-3.2,0.2c-1.1,0.1-2.1,0.3-3.1,0.8
					c-1,0.4-1.9,1-2.8,1.6l0,0c-0.6,0.4-1.2,0.8-1.7,1.4l0,0c-0.7,0.5-1.2,1.2-1.6,1.9c0.4-0.7,1-1.4,1.6-2l0,0
					c0.5-0.5,1.1-1,1.7-1.4l0,0c0.9-0.7,1.8-1.2,2.8-1.7c1-0.4,2.1-0.7,3.1-0.8c1.1-0.1,2.2-0.1,3.2-0.2c1.1-0.1,2.1-0.3,3.2-0.5
					V97.9z"/>
			</g>
			<path class="st12" d="M247.2,94.3c-0.4,0.3-0.8,0.6-1.1,0.9c-0.7,0.8-1.2,1.6-1.7,2.5c-0.3,0.9-0.1,1.5,0.4,2.2
				c0.6,0.8,1.4,1.2,1.9,2.1c0.4,0.6,0.8,1.2,1.3,1.7s0.4,0.9,0.4,1.6c0,0.5-0.2,1.4,0,1.8c0.2,0.3,0.4,0.3,0.7,0.4
				c0.7,0,1.4,0,2.2,0s1.6-0.2,2.4-0.4c0.2-0.7,0-1.6,0-2.4c0-0.9,0.2-1.7,0.2-2.7c0-0.8,0.5-1.1,1.1-1.5c0.4-0.3,1.1-0.6,1.4-1
				c0.2-0.3,0.3-0.5,0.4-0.8c0.3-0.5,0.5-1.5,0.2-1.9c-0.6-0.8-1.7-1-2.6-1.3c-0.6-0.3-1.3-0.5-2-0.6s-1.3,0-2-0.1
				C249.8,94.6,246.7,94.4,247.2,94.3z"/>
			<path class="st0" d="M264.5,86.3c0,0.2-0.1,0.3-0.2,0.4c-0.1,0.2-0.2,0.3-0.4,0.4c-0.3,0.2-0.6,0.3-0.9,0.4
				c-0.4,0.1-2.5,0.3-2.1-0.4c0.2-0.3,0.5-0.1,0.7-0.1c0.4,0,0.9,0,1.3-0.1c0.3-0.1,0.5-0.2,0.7-0.3c0.1-0.1,0.3-0.4,0.5-0.4"/>
			<path class="st0" d="M241.3,84.6c0,0.4,0.2,0.8,0.5,1.1c0.2,0.2,0.8,0.8,1,0.3c0.1-0.3-0.7-0.6-0.9-0.8c-0.1-0.1-0.1-0.3-0.1-0.4
				C241.8,84.6,241.7,84.5,241.3,84.6"/>
			<path class="st0" d="M252,86.3L252,86.3c-0.1-0.1-0.2-0.1-0.3-0.1s-0.3-0.1-0.3-0.1s-0.1,0.1-0.2,0.1c-0.1,0-0.2,0-0.3,0
				c-0.6,0.2-0.2,0.6,0.2,0.7c0.3,0,0.7,0.1,1,0.2c0.4,0.1,0.7,0.4,1.1,0.6c0.4-0.1,0.4-0.9,0.1-1.1c-0.2-0.2-0.5-0.3-0.8-0.4
				c-0.2-0.1-0.5-0.1-0.8-0.2"/>
			<path class="st12" d="M263.6,164.3c0,0.5,0.1,1,0.2,1.4C263.8,165.2,263.7,164.7,263.6,164.3z"/>
			<path class="st12" d="M264.6,121.4c0-0.7,0-1.4,0-2c-0.1-0.9,0.2-2.2-0.6-2.9c-0.4,0.1-0.8,0.8-1.2,1c-0.5,0.3-1.6,1.2-2.2,1.3
				c-0.1-0.3,0-0.5,0-0.8c-0.5-0.1-1.3,0.5-1.8,0.6c-1,0.3-2.1,0.7-3.1,0.6c-0.3-1-1.7-1.1-2.4-1.6c-0.1-0.1-0.3-0.2-0.4-0.3
				c0.4-0.2,0.7-0.4,1-0.6c1-0.7,2-1.2,3-1.9c0.8-0.5,1.5-1,2.2-1.6c0.6-0.5,1.2-1.1,1.8-1.7c0.4-0.6,0.8-1.3,1.2-1.9
				c0.4-0.6,0.6-1.2,0.7-1.8c0.1-0.6-0.2-0.5-0.7-0.6c-1.7-0.2-3.3-0.4-5-0.4c-1.9,0-3.8,0-5.7,0c-1.2,0-2.4-0.1-3.6-0.1
				c-0.6,0-1.2,0-1.8,0c-1.1,0-2.1-0.6-3.2-0.8l-1.4-1.4c0,0.2,0.2,0.5,0.3,0.6c0.2,0.4,0.3,0.7,0.5,1.1c0,0.5,0,1,0,1.5
				c0,0.7,0.2,1.4,0.4,2c0.3,0.6,0.4,1.2,0.7,1.7c0.3,0.6,0.5,0.9,0.8,1.4c0.4,0.9,0.7,1.8,1.1,2.6c0.2,0.4,0.5,0.8,0.7,1.2
				c0.3,0.6,0.5,1.2,0.7,1.8c0.3,0.7,0.5,1.5,0.8,2.2c0.1,0.4,0.3,0.8,0.5,1.1c0.3-0.1,0.5-0.5,0.6-0.6c0.4-0.4,0.8-0.8,1.3-1.2
				c0.2-0.2,0.3-0.3,0.5-0.5c0.2,0.6,0.4,1.2,0.4,1.9c0.1,0.8,0,1.2-0.6,1.8c-2.2,1.7-5.1,2.4-7.5,3.9c1.4,0.8,2.9,1.5,4.5,2.1
				c1.4,0.6,3.1,0.9,4.3,1.8c0.6,0.4,0.7,0.8,1,1.5c0.3,0.5,0.5,1,0.7,1.5c0.6,1.8,2,3.3,2.7,5.1c-0.8-0.3-1.5-0.9-2.4-0.8
				c0.3,0.4,0.7,0.8,1.2,1.1s1.6,1.1,2.1,1.2c0.9,1.6,2.6,2.7,3.3,4.5c0.2,0.6,0.1,1.2,0.2,1.8c0.1,0.5,0.3,1.1,0.5,1.6
				c0.1,0.3,0.2,0.6,0.3,0.8c0.1-1.4,0.2-2.8,0.2-4.2c0-1.7,0.3-3.4,0.3-5.2v-3.1c0-1.1-0.2-2.4,0-3.5c0.2-1.2,1-2.4,1.5-3.6
				c0.3-0.8,0.4-1.6,0.8-2.3c-0.2,0.2-0.4,0.3-0.7,0.4c0.3-0.6,0.6-1.2,0.9-1.9c0.3-0.8,0.4-1.5,0.7-2.3
				C265,122.5,264.6,122.2,264.6,121.4z"/>
			<path class="st12" d="M262.6,160.2c0.4,1.4,0.7,2.7,1,4.1l0,0c-0.1-0.8,0-1.6,0-2.4c0-1.6,0-3.1,0-4.7c0-1.4-0.2-2.7-0.3-4
				c0-1-0.4-1.5-1-2.3c-0.5-0.6-0.9-1.3-1.2-2c0,0.7-0.1,1.5-0.1,2.2C260.9,154.2,261.8,157.2,262.6,160.2z"/>
			<path class="st7" d="M274.9,169.5c0,0,4.1,13.2,4.5,14.2c0.6,1.9,0.9,4.1,1.3,6c0.2,1,0.2,2,0.4,2.9c0.1,0.5,0.7,2.2,1.1,2.5
				c0.8-0.5,1.4-1.2,1.7-2c0.1-0.5,0.3-0.9,0.5-1.4c0.3-0.6,0.1-1,0.3-1.6c0.3-1.3,0.5-1.8-0.1-3.2c-0.4-0.9-0.8-1.7-1.2-2.7
				c-0.6-1.9-1.5-3.6-2.7-5.2c-0.6-0.9-0.9-1.9-1.5-2.8S274.9,169.5,274.9,169.5z"/>
			<path class="st7" d="M258.5,182.5c1.2,1.6,2.2,3.2,2.7,5.1c0.7,2.8,1.3,5.8,2.5,8.5c0.5,1.3,0.8,2.6,1.1,3.9
				c0.2,1-0.1,2.1,0.2,3.2c0.1,0.5,0.7,1.9,0.4,2.4c-0.5,0.7-2-0.7-2.4-1.1c-0.5-0.6-0.5-1.5-0.9-2.3c-0.7-1.7-0.9-3.4-1.5-5.1
				c-0.9-2.7-1.9-5.4-3-8.1c-0.7-1.5-1.6-2.8-2.7-4.1c-0.8-0.9-1.2-2-2-3c-0.7-0.9-1.3-1.7-2-2.6c0.6-0.9-0.4-2.9,0.6-3.1
				c0.6-0.1-3.2-14-3.2-14s6.1,13.4,6.9,15.2S257.3,180.8,258.5,182.5z"/>
		</g>
	</g>
</g>
<g>
	<g>
		<rect x="56.8" y="16.8" class="st3" width="358.9" height="224.9"/>
	</g>
	<path class="st15" d="M424.3,255.3c5.5,0,10-4.5,10-10V10.1c0-5.5-4.5-10-10-10H48.2c-5.5,0-10,4.4-10,9.9v235.3
		c0,5.5,4.5,10,10,10H0v3.9c0,0,43,6.9,114.4,6.9H358c71.4,0,114.4-6.9,114.4-6.9h0.1v-3.9L424.3,255.3L424.3,255.3z"/>
</g>
</svg>
