<svg width="617" height="465" viewBox="0 0 617 465" fill="none" xmlns="http://www.w3.org/2000/svg">
<path opacity="0.5" d="M426.66 105.54C451.941 131.155 475.009 163.257 475.59 198.768C476.14 231.888 457.052 260.711 437.565 286.108C405.551 327.838 370.349 366.946 332.286 403.07C305.907 428.112 276.932 452.346 241.542 461.118C210.378 468.849 176.906 463.873 145.05 455.642C108.721 446.255 71.8181 431.731 45.3908 403.676C13.3278 369.627 1.69816 320.674 0.185753 274.516C-2.20226 201.596 18.3983 127.908 64.0889 74.5768C99.0493 33.7747 149.277 6.14784 203.246 0.784031C253.514 -4.22434 300 15.3972 344.425 41.5215C374.445 59.1695 402.086 80.6878 426.66 105.54Z" fill="#FF4C4F"/>
<path opacity="0.8" d="M202.538 76.7164C181.73 86.7412 161.146 98.5271 143.697 114.32C126.249 130.112 111.985 150.226 107.121 171.229C100.45 199.995 111.786 225.821 124.084 248.778C147.343 292.287 175.084 333.363 211.644 366.023C248.205 398.682 294.134 422.722 346.965 429.573C399.795 436.423 459.854 425.114 511.339 393.222C562.825 361.329 604.241 308.087 614.016 253.73C619.978 220.57 614.398 188.654 603.278 160.332C592.786 133.618 578.402 100.854 558.701 80.4807C541.42 62.5879 508.649 53.3466 483.79 46.3026C428.714 30.6716 366.666 29.2418 304.601 42.0859C269.331 49.4211 235.063 61.0486 202.538 76.7164Z" fill="#001E82"/>
</svg>
