<svg xmlns="http://www.w3.org/2000/svg" viewBox="0 0 316.61 310.87"><defs><style>.cls-1{fill:#2a2d7d;}.cls-2{fill:#580000;}.cls-3{fill:#ff3351;}.cls-4{fill:#ff6262;}.cls-5{fill:#ff4344;}.cls-5,.cls-8{opacity:0.5;}.cls-6{fill:#ffd1d1;}.cls-7{fill:#bf7fb9;}.cls-8{fill:#970076;}.cls-9{fill:#fff;}</style></defs><title>colorpalettemobile</title><g id="Layer_2" data-name="Layer 2"><g id="Layer_1-2" data-name="Layer 1"><path d="M71.22,16.55H69.44l-.5,3.66h-.7l.5-3.66H67.25l-.51,3.66H66l.51-3.66H64.65l0-.68h2l.22-1.63H65v-.7H67l.46-3.39h.74l-.47,3.39h1.48l.48-3.39h.69l-.47,3.39h1.73l0,.7H69.78l-.24,1.63h1.69Zm-3.67-2.34-.25,1.71h1.57l.24-1.71Z"/><path d="M78,13.84a4.56,4.56,0,0,1,1.74-.34,3.47,3.47,0,0,1,3.54,3.62,3.6,3.6,0,0,1-3.77,3.71A3.48,3.48,0,0,1,77.22,20a2.84,2.84,0,0,1-1-1.38l.9-.33a3.44,3.44,0,0,0,.57.92,2.55,2.55,0,0,0,1.81.7,2.79,2.79,0,0,0,2.81-2.86,2.65,2.65,0,0,0-2.81-2.73,3,3,0,0,0-2.4,1.12V9.72H81.5v.87l-3.5,0Z"/><path d="M94.05,15.23A3.09,3.09,0,0,1,95,17.51a3.25,3.25,0,0,1-3.42,3.33,3.18,3.18,0,0,1-3.38-3.23,3.23,3.23,0,0,1,.94-2.36,2.88,2.88,0,0,1,1.46-.76,2.57,2.57,0,0,1-1.28-.72,2.53,2.53,0,0,1-.63-1.67,2.94,2.94,0,0,1,5.84,0,2.49,2.49,0,0,1-.7,1.76,2.63,2.63,0,0,1-1.21.65A2.8,2.8,0,0,1,94.05,15.23Zm-4.93,2.26A2.45,2.45,0,1,0,91.6,15,2.48,2.48,0,0,0,89.12,17.49Zm.46-5.41a1.91,1.91,0,0,0,2,1.88,2,2,0,0,0,2-1.85,1.91,1.91,0,0,0-2-1.77A1.81,1.81,0,0,0,89.58,12.08Z"/><path d="M106.51,17.31a3.45,3.45,0,0,1-.72,2.54,3.72,3.72,0,0,1-5,0c-.54-.61-.67-1.16-.67-2.83V13.27c0-1.51.13-2.09.62-2.71a3.12,3.12,0,0,1,2.56-1,3.52,3.52,0,0,1,2.45.82,2.93,2.93,0,0,1,.8,2.48ZM101,17c0,1.49.07,1.75.5,2.24a2.57,2.57,0,0,0,1.84.72,2.42,2.42,0,0,0,1.9-.82,3.1,3.1,0,0,0,.42-1.84V12.85a2.24,2.24,0,0,0-.69-1.89,2.43,2.43,0,0,0-1.64-.59,2.26,2.26,0,0,0-1.93.94,3.09,3.09,0,0,0-.4,2Z"/><path d="M118.24,17.31a3.45,3.45,0,0,1-.72,2.54,3.72,3.72,0,0,1-5,0c-.54-.61-.67-1.16-.67-2.83V13.27c0-1.51.13-2.09.62-2.71a3.12,3.12,0,0,1,2.56-1,3.54,3.54,0,0,1,2.45.82,2.93,2.93,0,0,1,.8,2.48Zm-5.55-.3c0,1.49.07,1.75.51,2.24A2.54,2.54,0,0,0,115,20a2.38,2.38,0,0,0,1.89-.82,3,3,0,0,0,.42-1.84V12.85a2.23,2.23,0,0,0-.68-1.89,2.44,2.44,0,0,0-1.65-.59,2.24,2.24,0,0,0-1.92.94,3.08,3.08,0,0,0-.41,2Z"/><path d="M130,17.31a3.49,3.49,0,0,1-.72,2.54,3.73,3.73,0,0,1-5,0c-.53-.61-.67-1.16-.67-2.83V13.27c0-1.51.14-2.09.62-2.71a3.14,3.14,0,0,1,2.57-1,3.49,3.49,0,0,1,2.44.82,2.93,2.93,0,0,1,.81,2.48Zm-5.55-.3c0,1.49.07,1.75.5,2.24a2.58,2.58,0,0,0,1.85.72,2.41,2.41,0,0,0,1.89-.82,3.1,3.1,0,0,0,.42-1.84V12.85a2.24,2.24,0,0,0-.69-1.89,2.39,2.39,0,0,0-1.64-.59,2.26,2.26,0,0,0-1.93.94,3.09,3.09,0,0,0-.4,2Z"/><path d="M141.69,17.31a3.45,3.45,0,0,1-.72,2.54,3.72,3.72,0,0,1-5,0c-.54-.61-.67-1.16-.67-2.83V13.27c0-1.51.13-2.09.62-2.71a3.12,3.12,0,0,1,2.56-1,3.54,3.54,0,0,1,2.45.82,2.93,2.93,0,0,1,.8,2.48Zm-5.54-.3c0,1.49.06,1.75.5,2.24a2.57,2.57,0,0,0,1.84.72,2.42,2.42,0,0,0,1.9-.82,3.1,3.1,0,0,0,.42-1.84V12.85a2.24,2.24,0,0,0-.69-1.89,2.43,2.43,0,0,0-1.64-.59,2.24,2.24,0,0,0-1.93.94,3.09,3.09,0,0,0-.4,2Z"/><path d="M71.22,68.54H69.44l-.5,3.66h-.7l.5-3.66H67.25l-.51,3.66H66l.51-3.66H64.65l0-.68h2l.22-1.63H65v-.7H67l.46-3.39h.74l-.47,3.39h1.48l.48-3.39h.69l-.47,3.39h1.73l0,.7H69.78l-.24,1.63h1.69ZM67.55,66.2l-.25,1.71h1.57l.24-1.71Z"/><path d="M82.51,71.76v.89h-6l3.87-5.36c1.21-1.68,1.56-2.37,1.56-3.1a1.94,1.94,0,0,0-2.14-1.88,1.88,1.88,0,0,0-1.8,1,2.51,2.51,0,0,0-.22,1.2h-.9c.12-2,1.14-3,3-3a2.7,2.7,0,0,1,3,2.66A4.67,4.67,0,0,1,81.64,67l-3.47,4.74Z"/><path d="M89.64,69.72l-1.19,2.93h-1l4.39-11.18h1l4.25,11.18H96.13L95,69.72Zm2.74-7L90,68.85h4.7Z"/><path d="M107.5,71.76v.89h-6l3.87-5.36c1.21-1.68,1.56-2.37,1.56-3.1a1.94,1.94,0,0,0-2.14-1.88,1.85,1.85,0,0,0-1.79,1,2.4,2.4,0,0,0-.22,1.2h-.91c.12-2,1.14-3,3-3a2.71,2.71,0,0,1,3,2.66A4.7,4.7,0,0,1,106.63,67l-3.47,4.74Z"/><path d="M113.88,61.47h2.87c3.2,0,5.19,2.08,5.19,5.36,0,3.67-2.09,5.82-5.64,5.82h-2.42Zm1,10.32h.52c2.24,0,3.1-.18,4-.85A4.87,4.87,0,0,0,121,66.83c0-2.91-1.51-4.5-4.27-4.5h-1.86Z"/><path d="M127.6,62.6v-.89h6l-4.46,10.94h-1l4.12-10.05Z"/><path d="M139.31,61.47h2.87c3.2,0,5.19,2.08,5.19,5.36,0,3.67-2.09,5.82-5.64,5.82h-2.42Zm1,10.32h.52c2.24,0,3.1-.18,4-.85a4.87,4.87,0,0,0,1.64-4.11c0-2.91-1.51-4.5-4.27-4.5h-1.86Z"/><path d="M71.22,121.16H69.44l-.5,3.65h-.7l.5-3.65H67.25l-.51,3.65H66l.51-3.65H64.65l0-.69h2l.22-1.63H65v-.7H67l.46-3.39h.74l-.47,3.39h1.48l.48-3.39h.69l-.47,3.39h1.73l0,.7H69.78l-.24,1.63h1.69Zm-3.67-2.35-.25,1.71h1.57l.24-1.71Z"/><path d="M80.1,114.08c2.07,0,3.38,1.14,3.38,3a2.77,2.77,0,0,1-.6,1.78,2.83,2.83,0,0,1-1.14.74A2.64,2.64,0,0,1,83,120a2.66,2.66,0,0,1,1,2.2,2.83,2.83,0,0,1-1.24,2.46,4.91,4.91,0,0,1-2.91.57H77.16V114.08Zm-2,5.15h1.69a3.16,3.16,0,0,0,2-.47,2.2,2.2,0,0,0,.8-1.74,1.92,1.92,0,0,0-1-1.8,4.57,4.57,0,0,0-2.14-.28H78.12Zm0,5.18h1.56a4.57,4.57,0,0,0,2.43-.39,1.89,1.89,0,0,0,.94-1.78c0-1.47-.88-2.16-2.79-2.16H78.12Z"/><path d="M90.51,119.18h4.6V120h-4.6v5.23h-1V114.08h5.55v.86h-4.6Z"/><path d="M100.48,115.21v-.89h6L102,125.26h-1l4.12-10.05Z"/><path d="M113.15,119.18h4.59V120h-4.59v5.23h-1V114.08h5.55v.86h-4.59Z"/><path d="M126,114.08c2.08,0,3.38,1.14,3.38,3a2.77,2.77,0,0,1-.6,1.78,2.83,2.83,0,0,1-1.14.74,2.72,2.72,0,0,1,1.26.48,2.69,2.69,0,0,1,1,2.2,2.85,2.85,0,0,1-1.24,2.46,5,5,0,0,1-2.92.57H123.1V114.08Zm-2,5.15h1.69a3.16,3.16,0,0,0,2-.47,2.2,2.2,0,0,0,.8-1.74,1.93,1.93,0,0,0-1-1.8,4.65,4.65,0,0,0-2.15-.28h-1.34Zm0,5.18h1.56A4.57,4.57,0,0,0,128,124a1.89,1.89,0,0,0,.94-1.78c0-1.47-.87-2.16-2.78-2.16h-2.15Z"/><path d="M139.4,120.75A3,3,0,0,1,138,121a3.35,3.35,0,0,1-3.4-3.4,3.53,3.53,0,0,1,3.58-3.52,3.54,3.54,0,0,1,2.92,5.43l-3.44,5.71h-1.12Zm-3.82-3.15a2.58,2.58,0,0,0,2.56,2.62,2.63,2.63,0,0,0,.07-5.25A2.6,2.6,0,0,0,135.58,117.6Z"/><path d="M153.65,114.08h1l-4.06,11.18h-.8l-4-11.18h1l3.37,9.6Z"/><path d="M71.22,185.66H69.44l-.5,3.65h-.7l.5-3.65H67.25l-.51,3.65H66l.51-3.65H64.65l0-.69h2l.22-1.63H65v-.7H67l.46-3.38h.74l-.47,3.38h1.48l.48-3.38h.69l-.47,3.38h1.73l0,.7H69.78L69.54,185h1.69Zm-3.67-2.35L67.3,185h1.57l.24-1.71Z"/><path d="M78.12,183.68h4.59v.85H78.12v5.23h-1V178.59h5.55v.85H78.12Z"/><path d="M89,183.68h4.59v.85H89v5.23h-1V178.59h5.54v.85H89Z"/><path d="M98.81,179.71v-.89h6.09L101.5,183a2.21,2.21,0,0,1,.32,0,3.27,3.27,0,0,1,3.19,3.35,3.53,3.53,0,0,1-3.71,3.59A3.29,3.29,0,0,1,98,187.55l.84-.29a2.46,2.46,0,0,0,2.43,1.81,2.71,2.71,0,0,0,2.81-2.64,2.59,2.59,0,0,0-2.86-2.58,2.51,2.51,0,0,0-1.51.45l-.19-.22,3.57-4.37Z"/><path d="M110.53,179.71v-.89h6.1l-3.4,4.19a2.07,2.07,0,0,1,.32,0,3.26,3.26,0,0,1,3.18,3.35,3.53,3.53,0,0,1-3.7,3.59,3.29,3.29,0,0,1-3.33-2.38l.83-.29a2.47,2.47,0,0,0,2.43,1.81,2.71,2.71,0,0,0,2.82-2.64,2.6,2.6,0,0,0-2.87-2.58,2.54,2.54,0,0,0-1.51.45l-.18-.22,3.57-4.37Z"/><path d="M123.26,182.94a4.76,4.76,0,0,1,1.75-.33,3.46,3.46,0,0,1,3.53,3.62,3.59,3.59,0,0,1-3.77,3.7,3.43,3.43,0,0,1-2.29-.79,2.81,2.81,0,0,1-1-1.37l.9-.34a3.44,3.44,0,0,0,.57.92,2.55,2.55,0,0,0,1.81.71,2.8,2.8,0,0,0,2.82-2.87,2.65,2.65,0,0,0-2.82-2.73,3,3,0,0,0-2.39,1.12v-5.76h4.39v.87l-3.51,0Z"/><path d="M134.49,182.12v-.9l3.58-2.63v11.17h-.89v-9.57Z"/><path d="M85.54,208.87H83.77l-.51,3.66h-.7l.5-3.66H81.57l-.5,3.66h-.72l.5-3.66H79l0-.68h2l.22-1.63H79.36v-.7h1.91l.47-3.39h.74L82,205.86h1.47l.49-3.39h.68l-.47,3.39h1.73l0,.7H84.1l-.23,1.63h1.69Zm-3.67-2.34-.25,1.71H83.2l.23-1.71Z"/><path d="M92.44,206.9H97v.85H92.44V213h-1V201.8H97v.86H92.44Z"/><path d="M103.35,206.9h4.59v.85h-4.59V213h-1V201.8h5.55v.86h-4.59Z"/><path d="M114.76,206.54a2.84,2.84,0,0,1,1.34-.28,3.31,3.31,0,0,1,3.41,3.35,3.54,3.54,0,1,1-7.07-.07,3.38,3.38,0,0,1,.66-2l3.41-5.53h1.11Zm-1.36,3.05a2.59,2.59,0,1,0,5.18.07,2.59,2.59,0,0,0-5.18-.07Z"/><path d="M130.37,212.09V213h-6l3.87-5.36c1.21-1.68,1.56-2.37,1.56-3.1a1.94,1.94,0,0,0-2.14-1.88,1.88,1.88,0,0,0-1.8,1,2.51,2.51,0,0,0-.22,1.2h-.9c.12-2,1.14-3,3-3a2.7,2.7,0,0,1,3,2.66,4.67,4.67,0,0,1-1.2,2.87L126,212.09Z"/><path d="M138.21,206.54a2.84,2.84,0,0,1,1.34-.28,3.32,3.32,0,0,1,3.42,3.35,3.54,3.54,0,1,1-7.07-.07,3.36,3.36,0,0,1,.65-2L140,202h1.1Zm-1.36,3.05a2.59,2.59,0,1,0,5.18.07,2.59,2.59,0,0,0-5.18-.07Z"/><path d="M153.82,212.09V213h-6l3.87-5.36c1.21-1.68,1.56-2.37,1.56-3.1a1.94,1.94,0,0,0-2.14-1.88,1.88,1.88,0,0,0-1.8,1,2.53,2.53,0,0,0-.21,1.2h-.91c.12-2,1.14-3,3-3a2.71,2.71,0,0,1,3,2.66,4.7,4.7,0,0,1-1.21,2.87l-3.47,4.74Z"/><path d="M71.22,280.07H69.44l-.5,3.66h-.7l.5-3.66H67.25l-.51,3.66H66l.51-3.66H64.65l0-.68h2l.22-1.63H65v-.7H67l.46-3.39h.74l-.47,3.39h1.48l.48-3.39h.69l-.47,3.39h1.73l0,.7H69.78l-.24,1.63h1.69Zm-3.67-2.34-.25,1.71h1.57l.24-1.71Z"/><path d="M78.12,278.1h4.59V279H78.12v5.23h-1V273h5.55v.86H78.12Z"/><path d="M89,278.1h4.59V279H89v5.23h-1V273h5.54v.86H89Z"/><path d="M98.15,281.55v-.66l5.55-8.07v7.84h1.46v.89H103.7v2.63h-.89v-2.63Zm4.66-6.15-3.63,5.26h3.63Z"/><path d="M110.53,274.13v-.89h6.1l-3.4,4.19a2.07,2.07,0,0,1,.32,0,3.26,3.26,0,0,1,3.18,3.35,3.53,3.53,0,0,1-3.7,3.59A3.29,3.29,0,0,1,109.7,282l.83-.29a2.47,2.47,0,0,0,2.43,1.81,2.71,2.71,0,0,0,2.82-2.64,2.59,2.59,0,0,0-2.87-2.58,2.54,2.54,0,0,0-1.51.45l-.18-.22,3.57-4.37Z"/><path d="M121.6,281.55v-.66l5.55-8.07v7.84h1.46v.89h-1.46v2.63h-.89v-2.63Zm4.66-6.15-3.63,5.26h3.63Z"/><path d="M133.33,281.55v-.66l5.55-8.07v7.84h1.46v.89h-1.46v2.63H138v-2.63ZM138,275.4l-3.64,5.26H138Z"/><path d="M85.54,303.29H83.77l-.51,3.65h-.7l.5-3.65H81.57l-.5,3.65h-.72l.5-3.65H79l0-.69h2l.22-1.62H79.36v-.7h1.91l.47-3.39h.74L82,300.28h1.47l.49-3.39h.68l-.47,3.39h1.73l0,.7H84.1l-.23,1.62h1.69ZM81.87,301l-.25,1.71H83.2l.23-1.71Z"/><path d="M92.44,301.31H97v.86H92.44v5.23h-1V296.22H97v.86H92.44Z"/><path d="M103.35,301.31h4.59v.86h-4.59v5.23h-1V296.22h5.55v.86h-4.59Z"/><path d="M113.3,296.22h2.86c3.2,0,5.2,2.08,5.2,5.36,0,3.67-2.1,5.82-5.65,5.82H113.3Zm1,10.32h.52c2.25,0,3.1-.18,4-.85a4.84,4.84,0,0,0,1.65-4.11c0-2.91-1.51-4.5-4.28-4.5h-1.86Z"/><path d="M127.34,299.76v-.91l3.58-2.63V307.4H130v-9.57Z"/><path d="M138.73,296.22h2.86c3.2,0,5.2,2.08,5.2,5.36,0,3.67-2.1,5.82-5.65,5.82h-2.41Zm1,10.32h.52c2.25,0,3.1-.18,4-.85a4.84,4.84,0,0,0,1.64-4.11c0-2.91-1.5-4.5-4.27-4.5h-1.86Z"/><path d="M152.76,299.76v-.91l3.59-2.63V307.4h-.89v-9.57Z"/><path class="cls-1" d="M2,64c-2.37,5.15-2.8,11.36-.27,16.42S10,89,15.62,88.05a14.25,14.25,0,0,0,4.73-1.8,19.35,19.35,0,0,0,9.16-19.17c-1-6.47-6.21-13.3-12.73-15.07S4.29,59,2,64Z"/><path class="cls-2" d="M2,12.24c-2.37,5.14-2.8,11.35-.27,16.42S10,37.24,15.62,36.28a14.47,14.47,0,0,0,4.73-1.8,19.36,19.36,0,0,0,9.16-19.17C28.51,8.83,23.3,2,16.78.24S4.29,7.19,2,12.24Z"/><path class="cls-3" d="M2,184.55C-.39,189.7-.82,195.91,1.71,201s8.33,8.58,13.91,7.62a14.47,14.47,0,0,0,4.73-1.8,19.35,19.35,0,0,0,9.16-19.17c-1-6.47-6.21-13.3-12.73-15.07S4.29,179.5,2,184.55Z"/><path class="cls-4" d="M16.54,202.77c-2.36,5.14-2.79,11.36-.26,16.42s8.32,8.58,13.9,7.62a14.39,14.39,0,0,0,4.73-1.8,19.32,19.32,0,0,0,9.16-19.17c-1-6.48-6.21-13.3-12.72-15.07S18.86,197.72,16.54,202.77Z"/><path class="cls-5" d="M2,268.46c-2.37,5.14-2.8,11.36-.27,16.42s8.33,8.58,13.91,7.62a14.47,14.47,0,0,0,4.73-1.8,19.35,19.35,0,0,0,9.16-19.17c-1-6.48-6.21-13.3-12.73-15.07S4.29,263.41,2,268.46Z"/><path class="cls-6" d="M16.54,286.67c-2.36,5.15-2.79,11.36-.26,16.43s8.32,8.58,13.9,7.61a14.15,14.15,0,0,0,4.73-1.79,19.32,19.32,0,0,0,9.16-19.17c-1-6.48-6.21-13.3-12.72-15.07S18.86,281.63,16.54,286.67Z"/><path class="cls-7" d="M2,115.78c-2.37,5.15-2.8,11.36-.27,16.43s8.33,8.58,13.91,7.61A14.45,14.45,0,0,0,20.35,138a19.36,19.36,0,0,0,9.16-19.17c-1-6.48-6.21-13.3-12.73-15.08S4.29,110.73,2,115.78Z"/><path class="cls-8" d="M277.19,56.81c0-9.14-9.63-16.55-21.52-16.55s-21.51,7.41-21.51,16.55a14,14,0,0,0,3.93,9.52,23.09,23.09,0,0,1-3.7,5.63.83.83,0,0,0,.6,1.4,18.13,18.13,0,0,0,9.17-2.59,26.23,26.23,0,0,0,11.51,2.59C267.56,73.36,277.19,66,277.19,56.81Z"/><path class="cls-5" d="M251.55,70.66c0-9.14,9.63-16.54,21.51-16.54s21.52,7.4,21.52,16.54a14,14,0,0,1-3.93,9.52,23.51,23.51,0,0,0,3.7,5.64.8.8,0,0,1,.15.9.79.79,0,0,1-.75.49,18.2,18.2,0,0,1-9.17-2.58,26.37,26.37,0,0,1-11.52,2.58C261.18,87.21,251.55,79.81,251.55,70.66Z"/><path class="cls-4" d="M277.61,240.83c0-9.15-9.63-16.55-21.51-16.55s-21.52,7.4-21.52,16.55a14,14,0,0,0,3.93,9.51,23.27,23.27,0,0,1-3.7,5.64.8.8,0,0,0-.15.9.79.79,0,0,0,.75.49,18.2,18.2,0,0,0,9.17-2.58,26.37,26.37,0,0,0,11.52,2.58C268,257.37,277.61,250,277.61,240.83Zm12.62,22.75a14,14,0,0,0,3.93-9.52c0-6.92-5.54-12.84-13.38-15.31a14.25,14.25,0,0,1,.14,2.08c0,10.95-11.14,19.85-24.82,19.85a31.94,31.94,0,0,1-3.28-.19c3.25,5.94,10.91,10.12,19.82,10.12A26.22,26.22,0,0,0,284.15,268a18.27,18.27,0,0,0,9.18,2.58.83.83,0,0,0,.6-1.39A23.27,23.27,0,0,1,290.23,263.58Z"/><path class="cls-8" d="M280,124c-14.42-6.24-31.84-7.38-46-.69s-24.05,22-21.35,36.75a36.63,36.63,0,0,0,5,12.5c10.59,17.2,32.89,27.25,53.74,24.21,18.15-2.64,37.28-16.41,42.25-33.63S294.13,130.17,280,124Z"/><path class="cls-5" d="M286.27,118.8c-12.76-5.94-28.16-7-40.72-.66s-21.27,21-18.88,35a36.69,36.69,0,0,0,4.46,11.91c9.37,16.38,29.09,25.95,47.53,23.06,16-2.51,33-15.63,37.36-32S298.79,124.64,286.27,118.8Z"/><path class="cls-9" d="M274.94,149c0-9.14-9.63-16.55-21.51-16.55s-21.51,7.41-21.51,16.55a14,14,0,0,0,3.93,9.52,23,23,0,0,1-3.71,5.63.83.83,0,0,0-.15.9.8.8,0,0,0,.75.5,18.17,18.17,0,0,0,9.18-2.59,26.23,26.23,0,0,0,11.51,2.59C265.31,165.52,274.94,158.11,274.94,149Zm12.62,22.76a14,14,0,0,0,3.93-9.52c0-6.92-5.53-12.84-13.37-15.32a16,16,0,0,1,.13,2.08c0,10.95-11.14,19.86-24.82,19.86a29.47,29.47,0,0,1-3.28-.2c3.26,6,10.91,10.13,19.83,10.13a26.09,26.09,0,0,0,11.51-2.59,18.13,18.13,0,0,0,9.17,2.59.83.83,0,0,0,.6-1.4A22.86,22.86,0,0,1,287.56,171.73Z"/></g></g></svg>