<svg xmlns="http://www.w3.org/2000/svg" viewBox="0 0 602.12 345.05"><defs><style>.cls-1{fill:#2a2d7d;}.cls-2{fill:#580000;}.cls-3{fill:#ff3351;}.cls-4{fill:#ff6262;}.cls-5{fill:#ff4344;}.cls-14,.cls-5{opacity:0.5;}.cls-6{fill:#ffd1d1;}.cls-7{fill:#bf7fb9;}.cls-8{fill:#010101;}.cls-9{fill:#c1c1c1;}.cls-10{fill:#737373;}.cls-11{fill:#00aa64;}.cls-12{fill:#ff3756;}.cls-13{fill:#ffeb00;}.cls-14{fill:#970076;}.cls-15{fill:#fff;}</style></defs><title>colorpalette</title><g id="Layer_2" data-name="Layer 2"><g id="Layer_1-2" data-name="Layer 1"><path d="M71.22,19.56H69.44l-.5,3.65h-.7l.5-3.65H67.25l-.51,3.65H66l.51-3.65H64.65l0-.69h2l.22-1.63H65v-.7H67l.46-3.38h.74l-.47,3.38h1.48l.48-3.38h.69l-.47,3.38h1.73l0,.7H69.78l-.24,1.63h1.69Zm-3.67-2.35-.25,1.71h1.57l.24-1.71Z"/><path d="M78,16.84a4.74,4.74,0,0,1,1.74-.33,3.46,3.46,0,0,1,3.54,3.62,3.59,3.59,0,0,1-3.77,3.7A3.43,3.43,0,0,1,77.22,23a2.76,2.76,0,0,1-1-1.37l.9-.34a3.44,3.44,0,0,0,.57.92,2.55,2.55,0,0,0,1.81.71,2.79,2.79,0,0,0,2.81-2.87,2.65,2.65,0,0,0-2.81-2.73,3,3,0,0,0-2.4,1.12V12.72H81.5v.87l-3.5,0Z"/><path d="M94.05,18.23A3.09,3.09,0,0,1,95,20.51a3.25,3.25,0,0,1-3.42,3.34,3.18,3.18,0,0,1-3.38-3.24,3.25,3.25,0,0,1,.94-2.36,2.87,2.87,0,0,1,1.46-.75,2.65,2.65,0,0,1-1.28-.72,2.57,2.57,0,0,1-.63-1.68,2.94,2.94,0,0,1,5.84,0,2.49,2.49,0,0,1-.7,1.76,2.63,2.63,0,0,1-1.21.66A2.8,2.8,0,0,1,94.05,18.23Zm-4.93,2.26a2.45,2.45,0,1,0,4.9,0A2.46,2.46,0,0,0,91.6,18,2.5,2.5,0,0,0,89.12,20.49Zm.46-5.41a1.91,1.91,0,0,0,2,1.88,2,2,0,0,0,2-1.84,1.92,1.92,0,0,0-2-1.78A1.81,1.81,0,0,0,89.58,15.08Z"/><path d="M106.51,20.31a3.46,3.46,0,0,1-.72,2.55,3.73,3.73,0,0,1-5,0c-.54-.6-.67-1.15-.67-2.83V16.27c0-1.5.13-2.09.62-2.71a3.12,3.12,0,0,1,2.56-1,3.57,3.57,0,0,1,2.45.82,2.93,2.93,0,0,1,.8,2.48ZM101,20c0,1.49.07,1.76.5,2.24a2.54,2.54,0,0,0,1.84.73,2.39,2.39,0,0,0,1.9-.83,3.1,3.1,0,0,0,.42-1.84V15.85a2.25,2.25,0,0,0-.69-1.89,2.48,2.48,0,0,0-1.64-.59,2.26,2.26,0,0,0-1.93.94,3.11,3.11,0,0,0-.4,2Z"/><path d="M118.24,20.31a3.46,3.46,0,0,1-.72,2.55,3.34,3.34,0,0,1-2.51,1,3.28,3.28,0,0,1-2.53-1c-.54-.6-.67-1.15-.67-2.83V16.27c0-1.5.13-2.09.62-2.71a3.12,3.12,0,0,1,2.56-1,3.59,3.59,0,0,1,2.45.82,2.93,2.93,0,0,1,.8,2.48Zm-5.55-.3c0,1.49.07,1.76.51,2.24A2.51,2.51,0,0,0,115,23a2.36,2.36,0,0,0,1.89-.83,3,3,0,0,0,.42-1.84V15.85a2.25,2.25,0,0,0-.68-1.89,2.49,2.49,0,0,0-1.65-.59,2.24,2.24,0,0,0-1.92.94,3.1,3.1,0,0,0-.41,2Z"/><path d="M130,20.31a3.51,3.51,0,0,1-.72,2.55,3.35,3.35,0,0,1-2.52,1,3.3,3.3,0,0,1-2.53-1c-.53-.6-.67-1.15-.67-2.83V16.27c0-1.5.14-2.09.62-2.71a3.14,3.14,0,0,1,2.57-1,3.54,3.54,0,0,1,2.44.82,2.93,2.93,0,0,1,.81,2.48Zm-5.55-.3c0,1.49.07,1.76.5,2.24a2.55,2.55,0,0,0,1.85.73,2.39,2.39,0,0,0,1.89-.83,3.1,3.1,0,0,0,.42-1.84V15.85a2.25,2.25,0,0,0-.69-1.89,2.44,2.44,0,0,0-1.64-.59,2.26,2.26,0,0,0-1.93.94,3.11,3.11,0,0,0-.4,2Z"/><path d="M141.69,20.31a3.46,3.46,0,0,1-.72,2.55,3.34,3.34,0,0,1-2.51,1,3.3,3.3,0,0,1-2.53-1c-.54-.6-.67-1.15-.67-2.83V16.27c0-1.5.13-2.09.62-2.71a3.12,3.12,0,0,1,2.56-1,3.59,3.59,0,0,1,2.45.82,2.93,2.93,0,0,1,.8,2.48Zm-5.54-.3c0,1.49.06,1.76.5,2.24a2.54,2.54,0,0,0,1.84.73,2.39,2.39,0,0,0,1.9-.83,3.1,3.1,0,0,0,.42-1.84V15.85a2.25,2.25,0,0,0-.69-1.89,2.48,2.48,0,0,0-1.64-.59,2.24,2.24,0,0,0-1.93.94,3.11,3.11,0,0,0-.4,2Z"/><path d="M71.22,71.55H69.44l-.5,3.65h-.7l.5-3.65H67.25l-.51,3.65H66l.51-3.65H64.65l0-.69h2l.22-1.63H65v-.7H67l.46-3.38h.74l-.47,3.38h1.48l.48-3.38h.69l-.47,3.38h1.73l0,.7H69.78l-.24,1.63h1.69ZM67.55,69.2l-.25,1.71h1.57l.24-1.71Z"/><path d="M82.51,74.76v.89h-6l3.87-5.36c1.21-1.68,1.56-2.36,1.56-3.1a1.94,1.94,0,0,0-2.14-1.88,1.88,1.88,0,0,0-1.8,1,2.53,2.53,0,0,0-.22,1.21h-.9c.12-2,1.14-3,3-3a2.7,2.7,0,0,1,3,2.67A4.67,4.67,0,0,1,81.64,70l-3.47,4.74Z"/><path d="M89.64,72.72l-1.19,2.93h-1l4.39-11.17h1l4.25,11.17H96.13L95,72.72Zm2.74-7L90,71.85h4.7Z"/><path d="M107.5,74.76v.89h-6l3.87-5.36c1.21-1.68,1.56-2.36,1.56-3.1a1.94,1.94,0,0,0-2.14-1.88,1.85,1.85,0,0,0-1.79,1,2.42,2.42,0,0,0-.22,1.21h-.91c.12-2,1.14-3,3-3a2.71,2.71,0,0,1,3,2.67A4.69,4.69,0,0,1,106.63,70l-3.47,4.74Z"/><path d="M113.88,64.48h2.87c3.2,0,5.19,2.07,5.19,5.36,0,3.67-2.09,5.81-5.64,5.81h-2.42Zm1,10.32h.52c2.24,0,3.1-.19,4-.86a4.84,4.84,0,0,0,1.64-4.1c0-2.92-1.51-4.51-4.27-4.51h-1.86Z"/><path d="M127.6,65.6v-.89h6l-4.46,10.94h-1l4.12-10.05Z"/><path d="M139.31,64.48h2.87c3.2,0,5.19,2.07,5.19,5.36,0,3.67-2.09,5.81-5.64,5.81h-2.42Zm1,10.32h.52c2.24,0,3.1-.19,4-.86a4.84,4.84,0,0,0,1.64-4.1c0-2.92-1.51-4.51-4.27-4.51h-1.86Z"/><path d="M71.22,124.16H69.44l-.5,3.65h-.7l.5-3.65H67.25l-.51,3.65H66l.51-3.65H64.65l0-.69h2l.22-1.62H65v-.71H67l.46-3.38h.74l-.47,3.38h1.48l.48-3.38h.69l-.47,3.38h1.73l0,.71H69.78l-.24,1.62h1.69Zm-3.67-2.35-.25,1.71h1.57l.24-1.71Z"/><path d="M80.1,117.09c2.07,0,3.38,1.14,3.38,3a2.76,2.76,0,0,1-.6,1.77,2.83,2.83,0,0,1-1.14.74A2.5,2.5,0,0,1,84,125.23a2.82,2.82,0,0,1-1.24,2.46,4.91,4.91,0,0,1-2.91.57H77.16V117.09Zm-2,5.14h1.69a3.09,3.09,0,0,0,2-.47,2.19,2.19,0,0,0,.8-1.74,1.9,1.9,0,0,0-1-1.79,4.41,4.41,0,0,0-2.14-.29H78.12Zm0,5.18h1.56a4.57,4.57,0,0,0,2.43-.39,1.88,1.88,0,0,0,.94-1.77c0-1.48-.88-2.16-2.79-2.16H78.12Z"/><path d="M90.51,122.18h4.6V123h-4.6v5.22h-1V117.09h5.55v.85h-4.6Z"/><path d="M100.48,118.21v-.89h6L102,128.26h-1l4.12-10Z"/><path d="M113.15,122.18h4.59V123h-4.59v5.22h-1V117.09h5.55v.85h-4.59Z"/><path d="M126,117.09c2.08,0,3.38,1.14,3.38,3a2.76,2.76,0,0,1-.6,1.77,2.83,2.83,0,0,1-1.14.74,2.72,2.72,0,0,1,1.26.49,2.66,2.66,0,0,1,1,2.19,2.84,2.84,0,0,1-1.24,2.46,5,5,0,0,1-2.92.57H123.1V117.09Zm-2,5.14h1.69a3.09,3.09,0,0,0,2-.47,2.19,2.19,0,0,0,.8-1.74,1.91,1.91,0,0,0-1-1.79,4.48,4.48,0,0,0-2.15-.29h-1.34Zm0,5.18h1.56A4.57,4.57,0,0,0,128,127a1.88,1.88,0,0,0,.94-1.77c0-1.48-.87-2.16-2.78-2.16h-2.15Z"/><path d="M139.4,123.76A3.13,3.13,0,0,1,138,124a3.35,3.35,0,0,1-3.4-3.4,3.53,3.53,0,0,1,3.58-3.52,3.54,3.54,0,0,1,2.92,5.43l-3.44,5.71h-1.12Zm-3.82-3.15a2.58,2.58,0,0,0,2.56,2.61,2.62,2.62,0,0,0,.07-5.24A2.6,2.6,0,0,0,135.58,120.61Z"/><path d="M153.65,117.09h1l-4.06,11.17h-.8l-4-11.17h1l3.37,9.6Z"/><path d="M345.62,19.86h-1.78l-.5,3.65h-.71l.51-3.65h-1.5l-.5,3.65h-.72l.5-3.65h-1.87v-.69h2l.22-1.62h-1.81v-.71h1.91l.47-3.38h.74l-.47,3.38h1.48l.48-3.38h.69l-.47,3.38H346v.71h-1.79l-.24,1.62h1.69ZM342,17.51l-.26,1.71h1.58l.23-1.71Z"/><path d="M356.62,20.61a3.46,3.46,0,0,1-.72,2.55,3.34,3.34,0,0,1-2.51,1,3.3,3.3,0,0,1-2.53-1c-.54-.6-.67-1.15-.67-2.83V16.57c0-1.5.13-2.09.62-2.71a3.12,3.12,0,0,1,2.56-1,3.59,3.59,0,0,1,2.45.82,2.93,2.93,0,0,1,.8,2.48Zm-5.54-.3c0,1.49.06,1.76.5,2.25a2.54,2.54,0,0,0,1.84.72,2.36,2.36,0,0,0,1.89-.83,3,3,0,0,0,.42-1.84V16.15a2.25,2.25,0,0,0-.68-1.89,2.48,2.48,0,0,0-1.65-.58,2.23,2.23,0,0,0-1.92.93,3.11,3.11,0,0,0-.4,2Z"/><path d="M362,16.32v-.9l3.58-2.63V24h-.89V14.4Z"/><path d="M378.4,20.61a3.46,3.46,0,0,1-.72,2.55,3.34,3.34,0,0,1-2.51,1,3.28,3.28,0,0,1-2.53-1c-.54-.6-.67-1.15-.67-2.83V16.57c0-1.5.13-2.09.62-2.71a3.11,3.11,0,0,1,2.56-1,3.59,3.59,0,0,1,2.45.82,2.93,2.93,0,0,1,.8,2.48Zm-5.55-.3c0,1.49.07,1.76.51,2.25a2.54,2.54,0,0,0,1.84.72,2.36,2.36,0,0,0,1.89-.83,3,3,0,0,0,.42-1.84V16.15a2.22,2.22,0,0,0-.69-1.89,2.43,2.43,0,0,0-1.64-.58,2.23,2.23,0,0,0-1.92.93,3.1,3.1,0,0,0-.41,2Z"/><path d="M383.72,16.32v-.9l3.59-2.63V24h-.89V14.4Z"/><path d="M400.18,20.61a3.51,3.51,0,0,1-.72,2.55,3.35,3.35,0,0,1-2.52,1,3.3,3.3,0,0,1-2.53-1c-.53-.6-.67-1.15-.67-2.83V16.57c0-1.5.14-2.09.62-2.71a3.14,3.14,0,0,1,2.57-1,3.54,3.54,0,0,1,2.44.82,2.93,2.93,0,0,1,.81,2.48Zm-5.55-.3c0,1.49.07,1.76.5,2.25a2.58,2.58,0,0,0,1.85.72,2.39,2.39,0,0,0,1.89-.83,3.1,3.1,0,0,0,.42-1.84V16.15a2.25,2.25,0,0,0-.69-1.89,2.43,2.43,0,0,0-1.64-.58,2.25,2.25,0,0,0-1.93.93,3.11,3.11,0,0,0-.4,2Z"/><path d="M405.5,16.32v-.9l3.59-2.63V24h-.89V14.4Z"/><path d="M345.62,71.85h-1.78l-.5,3.65h-.71l.51-3.65h-1.5l-.5,3.65h-.72l.5-3.65h-1.87v-.69h2l.22-1.62h-1.81v-.71h1.91l.47-3.38h.74l-.47,3.38h1.48l.48-3.38h.69l-.47,3.38H346v.71h-1.79l-.24,1.62h1.69ZM342,69.5l-.26,1.71h1.58l.23-1.71Z"/><path d="M350.74,65.9V65h6L352.28,76h-1l4.12-10Z"/><path d="M361.45,65.9V65h6.09l-3.4,4.19a2.14,2.14,0,0,1,.32,0,3.27,3.27,0,0,1,3.18,3.35,3.52,3.52,0,0,1-3.7,3.59,3.29,3.29,0,0,1-3.33-2.38l.84-.28a2.46,2.46,0,0,0,2.42,1.81,2.72,2.72,0,0,0,2.82-2.65A2.6,2.6,0,0,0,363.82,70a2.5,2.5,0,0,0-1.5.45l-.19-.22,3.57-4.37Z"/><path d="M372.52,65.9V65h6L374.06,76h-1l4.12-10Z"/><path d="M383.22,65.9V65h6.1l-3.4,4.19a2.07,2.07,0,0,1,.32,0,3.27,3.27,0,0,1,3.18,3.35,3.53,3.53,0,0,1-3.7,3.59,3.29,3.29,0,0,1-3.33-2.38l.83-.28a2.48,2.48,0,0,0,2.43,1.81,2.72,2.72,0,0,0,2.82-2.65A2.6,2.6,0,0,0,385.6,70a2.52,2.52,0,0,0-1.51.45l-.18-.22,3.57-4.37Z"/><path d="M394.3,65.9V65h6L395.84,76h-1l4.13-10Z"/><path d="M405,65.9V65h6.1l-3.4,4.19a2.07,2.07,0,0,1,.32,0,3.27,3.27,0,0,1,3.18,3.35,3.53,3.53,0,0,1-3.7,3.59,3.29,3.29,0,0,1-3.34-2.38l.84-.28a2.47,2.47,0,0,0,2.43,1.81,2.72,2.72,0,0,0,2.81-2.65A2.59,2.59,0,0,0,407.38,70a2.52,2.52,0,0,0-1.51.45l-.18-.22,3.57-4.37Z"/><path d="M345.62,124.46h-1.78l-.5,3.65h-.71l.51-3.65h-1.5l-.5,3.65h-.72l.5-3.65h-1.87v-.69h2l.22-1.62h-1.81v-.71h1.91l.47-3.38h.74l-.47,3.38h1.48l.48-3.38h.69l-.47,3.38H346v.71h-1.79l-.24,1.62h1.69ZM342,122.11l-.26,1.71h1.58l.23-1.71Z"/><path d="M359.29,126.77a4.16,4.16,0,0,1-1.4,1.31,5.18,5.18,0,0,1-2.63.68,5,5,0,0,1-3.78-1.62A6.47,6.47,0,0,1,350,123c0-3.33,2.23-5.79,5.25-5.79a4.89,4.89,0,0,1,4,2l-.71.57a6.06,6.06,0,0,0-1.09-1,4.07,4.07,0,0,0-2.24-.68c-2.45,0-4.26,2.09-4.26,4.94s1.83,4.89,4.31,4.89a3.92,3.92,0,0,0,3.28-1.74Z"/><path d="M364.09,120.92V120l3.59-2.63v11.17h-.89V119Z"/><path d="M383.21,126.77a4.14,4.14,0,0,1-1.39,1.31,5.24,5.24,0,0,1-2.64.68,5,5,0,0,1-3.78-1.62,6.47,6.47,0,0,1-1.48-4.16c0-3.33,2.23-5.79,5.25-5.79a4.89,4.89,0,0,1,4,2l-.71.57a6.06,6.06,0,0,0-1.09-1,4.07,4.07,0,0,0-2.24-.68c-2.45,0-4.26,2.09-4.26,4.94s1.83,4.89,4.31,4.89a3.92,3.92,0,0,0,3.28-1.74Z"/><path d="M388,120.92V120l3.59-2.63v11.17h-.89V119Z"/><path d="M407.13,126.77a4.14,4.14,0,0,1-1.39,1.31,5.23,5.23,0,0,1-2.63.68,5,5,0,0,1-3.79-1.62,6.46,6.46,0,0,1-1.47-4.16c0-3.33,2.22-5.79,5.24-5.79a4.89,4.89,0,0,1,4,2l-.71.57a6.06,6.06,0,0,0-1.09-1,4.07,4.07,0,0,0-2.24-.68c-2.45,0-4.26,2.09-4.26,4.94s1.83,4.89,4.31,4.89a3.92,3.92,0,0,0,3.28-1.74Z"/><path d="M411.93,120.92V120l3.59-2.63v11.17h-.89V119Z"/><path d="M345.62,221h-1.78l-.5,3.65h-.71l.51-3.65h-1.5l-.5,3.65h-.72l.5-3.65h-1.87v-.69h2l.22-1.62h-1.81V218h1.91l.47-3.39h.74l-.47,3.39h1.48l.48-3.39h.69l-.47,3.39H346v.7h-1.79l-.24,1.62h1.69ZM342,218.68l-.26,1.71h1.58l.23-1.71Z"/><path d="M351.68,219h4.59v.86h-4.59v5.23h-1V214h5.55v.86h-4.59Z"/><path d="M361.75,219h4.59v.86h-4.59v5.23h-1V214h5.55v.86h-4.59Z"/><path d="M371.81,219h4.66v.86h-4.66v4.37h4.66v.86h-5.61V214h5.61v.86h-4.66Z"/><path d="M384.31,214c2.08,0,3.38,1.14,3.38,3a2.44,2.44,0,0,1-1.74,2.51,2.79,2.79,0,0,1,1.26.49,2.66,2.66,0,0,1,1,2.19,2.87,2.87,0,0,1-1.24,2.47,5,5,0,0,1-2.92.57h-2.66V214Zm-2,5.15H384a3.14,3.14,0,0,0,2-.47,2.19,2.19,0,0,0,.81-1.75,1.92,1.92,0,0,0-1-1.79,4.62,4.62,0,0,0-2.15-.28h-1.34Zm0,5.17h1.56a4.6,4.6,0,0,0,2.43-.38,1.91,1.91,0,0,0,.94-1.78c0-1.47-.87-2.16-2.78-2.16h-2.15Z"/><path d="M398.83,221.78a3.45,3.45,0,0,1-.72,2.54,3.74,3.74,0,0,1-5,0c-.54-.61-.67-1.16-.67-2.84v-3.73c0-1.51.13-2.1.62-2.72a3.12,3.12,0,0,1,2.56-1,3.52,3.52,0,0,1,2.45.83,2.93,2.93,0,0,1,.8,2.48Zm-5.54-.31c0,1.5.07,1.76.5,2.25a2.57,2.57,0,0,0,1.84.72,2.42,2.42,0,0,0,1.9-.82,3.12,3.12,0,0,0,.42-1.84v-4.46a2.24,2.24,0,0,0-.69-1.89,2.43,2.43,0,0,0-1.64-.59,2.23,2.23,0,0,0-1.93.94,3.09,3.09,0,0,0-.4,2Z"/><path d="M409.72,221.78a3.45,3.45,0,0,1-.72,2.54,3.74,3.74,0,0,1-5,0c-.54-.61-.67-1.16-.67-2.84v-3.73c0-1.51.13-2.1.62-2.72a3.12,3.12,0,0,1,2.56-1,3.54,3.54,0,0,1,2.45.83,2.93,2.93,0,0,1,.8,2.48Zm-5.54-.31c0,1.5.06,1.76.5,2.25a2.57,2.57,0,0,0,1.84.72,2.42,2.42,0,0,0,1.9-.82,3.12,3.12,0,0,0,.42-1.84v-4.46a2.24,2.24,0,0,0-.69-1.89,2.43,2.43,0,0,0-1.64-.59,2.22,2.22,0,0,0-1.93.94,3.09,3.09,0,0,0-.4,2Z"/><path d="M345.62,273h-1.78l-.5,3.66h-.71l.51-3.66h-1.5l-.5,3.66h-.72l.5-3.66h-1.87v-.68h2l.22-1.63h-1.81V270h1.91l.47-3.39h.74l-.47,3.39h1.48l.48-3.39h.69l-.47,3.39H346v.7h-1.79l-.24,1.63h1.69ZM342,270.67l-.26,1.71h1.58l.23-1.71Z"/><path d="M356.62,273.77a3.45,3.45,0,0,1-.72,2.54,3.72,3.72,0,0,1-5,0c-.54-.61-.67-1.16-.67-2.83v-3.74c0-1.51.13-2.09.62-2.71a3.12,3.12,0,0,1,2.56-1,3.54,3.54,0,0,1,2.45.82,2.93,2.93,0,0,1,.8,2.48Zm-5.54-.3c0,1.49.06,1.75.5,2.24a2.54,2.54,0,0,0,1.84.72,2.38,2.38,0,0,0,1.89-.82,3,3,0,0,0,.42-1.84v-4.46a2.23,2.23,0,0,0-.68-1.89,2.44,2.44,0,0,0-1.65-.59,2.24,2.24,0,0,0-1.92.94,3.09,3.09,0,0,0-.4,2Z"/><path d="M367.51,273.77a3.45,3.45,0,0,1-.72,2.54,3.72,3.72,0,0,1-5,0c-.54-.61-.67-1.16-.67-2.83v-3.74c0-1.51.13-2.09.62-2.71a3.12,3.12,0,0,1,2.56-1,3.54,3.54,0,0,1,2.45.82,2.93,2.93,0,0,1,.8,2.48Zm-5.55-.3c0,1.49.07,1.75.51,2.24a2.54,2.54,0,0,0,1.84.72,2.38,2.38,0,0,0,1.89-.82,3,3,0,0,0,.42-1.84v-4.46a2.21,2.21,0,0,0-.69-1.89,2.39,2.39,0,0,0-1.64-.59,2.24,2.24,0,0,0-1.92.94,3.08,3.08,0,0,0-.41,2Z"/><path d="M373.26,274.19l-1.19,2.93h-1l4.39-11.18h1l4.25,11.18h-1.05l-1.09-2.93Zm2.73-7-2.38,6.09h4.7Z"/><path d="M386.34,274.19l-1.19,2.93h-1l4.39-11.18h1l4.26,11.18h-1.06l-1.09-2.93Zm2.73-7-2.38,6.09h4.71Z"/><path d="M399.47,270.68a2.86,2.86,0,0,1,1.34-.28,3.31,3.31,0,0,1,3.42,3.35,3.54,3.54,0,1,1-7.07-.07,3.43,3.43,0,0,1,.65-2l3.42-5.53h1.11Zm-1.36,3.05a2.65,2.65,0,0,0,2.58,2.72,2.62,2.62,0,0,0,2.6-2.65,2.59,2.59,0,0,0-5.18-.07Z"/><path d="M408.08,274.49v-.66l5.55-8.07v7.84h1.46v.89h-1.46v2.63h-.89v-2.63Zm4.66-6.15-3.64,5.26h3.64Z"/><path d="M345.62,325.62h-1.78l-.5,3.65h-.71l.51-3.65h-1.5l-.5,3.65h-.72l.5-3.65h-1.87v-.68h2l.22-1.63h-1.81v-.7h1.91l.47-3.39h.74l-.47,3.39h1.48l.48-3.39h.69l-.47,3.39H346v.7h-1.79l-.24,1.63h1.69ZM342,323.28l-.26,1.71h1.58l.23-1.71Z"/><path d="M351.68,323.65h4.59v.85h-4.59v5.23h-1V318.55h5.55v.86h-4.59Z"/><path d="M361.75,323.65h4.59v.85h-4.59v5.23h-1V318.55h5.55v.86h-4.59Z"/><path d="M370.69,319.67v-.88h6.1l-3.4,4.19a2.07,2.07,0,0,1,.32,0,3.26,3.26,0,0,1,3.18,3.35,3.53,3.53,0,0,1-3.7,3.59,3.31,3.31,0,0,1-3.34-2.38l.84-.29a2.47,2.47,0,0,0,2.43,1.81,2.71,2.71,0,0,0,2.81-2.65,2.59,2.59,0,0,0-2.86-2.58,2.47,2.47,0,0,0-1.51.46l-.18-.22,3.57-4.38Z"/><path d="M381.76,319.67v-.88h6l-4.45,10.94h-1l4.12-10.06Z"/><path d="M393.47,322.91a4.57,4.57,0,0,1,1.75-.34,3.47,3.47,0,0,1,3.53,3.62A3.6,3.6,0,0,1,395,329.9a3.48,3.48,0,0,1-2.29-.79,2.84,2.84,0,0,1-1-1.38l.9-.33a3.44,3.44,0,0,0,.57.92,2.55,2.55,0,0,0,1.81.7,2.79,2.79,0,0,0,2.82-2.86,2.65,2.65,0,0,0-2.82-2.73,3,3,0,0,0-2.39,1.12v-5.76H397v.87h-3.51Z"/><path d="M405,323.29a2.89,2.89,0,0,1,1.34-.28,3.31,3.31,0,0,1,3.42,3.35,3.54,3.54,0,1,1-7.07-.07,3.43,3.43,0,0,1,.65-2l3.42-5.53h1.11Zm-1.35,3a2.64,2.64,0,0,0,2.58,2.72,2.62,2.62,0,0,0,2.59-2.65,2.57,2.57,0,0,0-2.56-2.6A2.54,2.54,0,0,0,403.63,326.34Z"/><path d="M71.22,219.83H69.44l-.5,3.66h-.7l.5-3.66H67.25l-.51,3.66H66l.51-3.66H64.65l0-.68h2l.22-1.63H65v-.7H67l.46-3.39h.74l-.47,3.39h1.48l.48-3.39h.69l-.47,3.39h1.73l0,.7H69.78l-.24,1.63h1.69Zm-3.67-2.34-.25,1.71h1.57l.24-1.71Z"/><path d="M78.12,217.86h4.59v.85H78.12v5.23h-1V212.76h5.55v.86H78.12Z"/><path d="M89,217.86h4.59v.85H89v5.23h-1V212.76h5.54v.86H89Z"/><path d="M98.81,213.89V213h6.09l-3.4,4.19a2.21,2.21,0,0,1,.32,0,3.27,3.27,0,0,1,3.19,3.35,3.53,3.53,0,0,1-3.71,3.59A3.29,3.29,0,0,1,98,221.73l.84-.29a2.46,2.46,0,0,0,2.43,1.81,2.71,2.71,0,0,0,2.81-2.64,2.59,2.59,0,0,0-2.86-2.59,2.52,2.52,0,0,0-1.51.46l-.19-.22,3.57-4.37Z"/><path d="M110.53,213.89V213h6.1l-3.4,4.19a2.07,2.07,0,0,1,.32,0,3.26,3.26,0,0,1,3.18,3.35,3.53,3.53,0,0,1-3.7,3.59,3.29,3.29,0,0,1-3.33-2.38l.83-.29a2.47,2.47,0,0,0,2.43,1.81,2.71,2.71,0,0,0,2.82-2.64,2.6,2.6,0,0,0-2.87-2.59,2.56,2.56,0,0,0-1.51.46l-.18-.22,3.57-4.37Z"/><path d="M123.26,217.12a4.77,4.77,0,0,1,1.75-.34,3.47,3.47,0,0,1,3.53,3.62,3.6,3.6,0,0,1-3.77,3.71,3.43,3.43,0,0,1-2.29-.79,2.84,2.84,0,0,1-1-1.38l.9-.33a3.44,3.44,0,0,0,.57.92,2.55,2.55,0,0,0,1.81.7,2.79,2.79,0,0,0,2.82-2.86,2.65,2.65,0,0,0-2.82-2.73,3,3,0,0,0-2.39,1.12V213h4.39v.87l-3.51,0Z"/><path d="M134.49,216.3v-.91l3.58-2.63v11.18h-.89v-9.57Z"/><path d="M85.54,243.05H83.77l-.51,3.65h-.7l.5-3.65H81.57l-.5,3.65h-.72l.5-3.65H79l0-.69h2l.22-1.62H79.36V240h1.91l.47-3.39h.74L82,240h1.47l.49-3.39h.68L84.18,240h1.73l0,.7H84.1l-.23,1.62h1.69Zm-3.67-2.34-.25,1.71H83.2l.23-1.71Z"/><path d="M92.44,241.07H97v.86H92.44v5.23h-1V236H97v.86H92.44Z"/><path d="M103.35,241.07h4.59v.86h-4.59v5.23h-1V236h5.55v.86h-4.59Z"/><path d="M114.76,240.72a2.84,2.84,0,0,1,1.34-.28,3.31,3.31,0,0,1,3.41,3.35,3.54,3.54,0,1,1-7.07-.07,3.38,3.38,0,0,1,.66-2l3.41-5.53h1.11Zm-1.36,3.05a2.59,2.59,0,1,0,5.18.07,2.59,2.59,0,0,0-5.18-.07Z"/><path d="M130.37,246.27v.89h-6l3.87-5.36c1.21-1.68,1.56-2.37,1.56-3.1a1.94,1.94,0,0,0-2.14-1.88,1.87,1.87,0,0,0-1.8,1,2.58,2.58,0,0,0-.22,1.21h-.9c.12-2,1.14-3,3-3a2.7,2.7,0,0,1,3,2.66,4.67,4.67,0,0,1-1.2,2.87L126,246.27Z"/><path d="M138.21,240.72a2.84,2.84,0,0,1,1.34-.28,3.32,3.32,0,0,1,3.42,3.35,3.54,3.54,0,1,1-7.07-.07,3.36,3.36,0,0,1,.65-2l3.42-5.53h1.1Zm-1.36,3.05a2.59,2.59,0,1,0,5.18.07,2.59,2.59,0,0,0-5.18-.07Z"/><path d="M153.82,246.27v.89h-6l3.87-5.36c1.21-1.68,1.56-2.37,1.56-3.1a1.94,1.94,0,0,0-2.14-1.88,1.87,1.87,0,0,0-1.8,1,2.6,2.6,0,0,0-.21,1.21h-.91c.12-2,1.14-3,3-3a2.71,2.71,0,0,1,3,2.66,4.7,4.7,0,0,1-1.21,2.87l-3.47,4.74Z"/><path d="M71.22,314.25H69.44l-.5,3.66h-.7l.5-3.66H67.25l-.51,3.66H66l.51-3.66H64.65l0-.68h2l.22-1.63H65v-.7H67l.46-3.39h.74l-.47,3.39h1.48l.48-3.39h.69l-.47,3.39h1.73l0,.7H69.78l-.24,1.63h1.69Zm-3.67-2.34-.25,1.71h1.57l.24-1.71Z"/><path d="M78.12,312.28h4.59v.85H78.12v5.23h-1V307.18h5.55V308H78.12Z"/><path d="M89,312.28h4.59v.85H89v5.23h-1V307.18h5.54V308H89Z"/><path d="M98.15,315.73v-.66L103.7,307v7.84h1.46v.89H103.7v2.63h-.89v-2.63Zm4.66-6.15-3.63,5.26h3.63Z"/><path d="M110.53,308.31v-.89h6.1l-3.4,4.19a2.07,2.07,0,0,1,.32,0,3.26,3.26,0,0,1,3.18,3.35,3.53,3.53,0,0,1-3.7,3.59,3.29,3.29,0,0,1-3.33-2.38l.83-.29a2.48,2.48,0,0,0,2.43,1.81,2.71,2.71,0,0,0,2.82-2.65,2.6,2.6,0,0,0-2.87-2.58,2.49,2.49,0,0,0-1.51.46l-.18-.22,3.57-4.37Z"/><path d="M121.6,315.73v-.66l5.55-8.07v7.84h1.46v.89h-1.46v2.63h-.89v-2.63Zm4.66-6.15-3.63,5.26h3.63Z"/><path d="M133.33,315.73v-.66l5.55-8.07v7.84h1.46v.89h-1.46v2.63H138v-2.63Zm4.66-6.15-3.64,5.26H138Z"/><path d="M85.54,337.47H83.77l-.51,3.65h-.7l.5-3.65H81.57l-.5,3.65h-.72l.5-3.65H79l0-.69h2l.22-1.62H79.36v-.7h1.91l.47-3.39h.74L82,334.46h1.47l.49-3.39h.68l-.47,3.39h1.73l0,.7H84.1l-.23,1.62h1.69Zm-3.67-2.34-.25,1.7H83.2l.23-1.7Z"/><path d="M92.44,335.49H97v.86H92.44v5.23h-1V330.4H97v.86H92.44Z"/><path d="M103.35,335.49h4.59v.86h-4.59v5.23h-1V330.4h5.55v.86h-4.59Z"/><path d="M113.3,330.4h2.86c3.2,0,5.2,2.08,5.2,5.36,0,3.67-2.1,5.82-5.65,5.82H113.3Zm1,10.32h.52c2.25,0,3.1-.18,4-.85a4.85,4.85,0,0,0,1.65-4.11c0-2.91-1.51-4.5-4.28-4.5h-1.86Z"/><path d="M127.34,333.94V333l3.58-2.63v11.18H130V332Z"/><path d="M138.73,330.4h2.86c3.2,0,5.2,2.08,5.2,5.36,0,3.67-2.1,5.82-5.65,5.82h-2.41Zm1,10.32h.52c2.25,0,3.1-.18,4-.85a4.85,4.85,0,0,0,1.64-4.11c0-2.91-1.5-4.5-4.27-4.5h-1.86Z"/><path d="M152.76,333.94V333l3.59-2.63v11.18h-.89V332Z"/><path class="cls-1" d="M2,67c-2.37,5.15-2.8,11.36-.27,16.43S10,92,15.62,91.05a14.45,14.45,0,0,0,4.73-1.79,19.36,19.36,0,0,0,9.16-19.17c-1-6.48-6.21-13.3-12.73-15.08S4.29,62,2,67Z"/><path class="cls-2" d="M2,15.24C-.39,20.39-.82,26.6,1.71,31.66S10,40.24,15.62,39.28a14.25,14.25,0,0,0,4.73-1.8,19.35,19.35,0,0,0,9.16-19.17C28.51,11.84,23.3,5,16.78,3.24S4.29,10.19,2,15.24Z"/><path class="cls-3" d="M2,218.73c-2.37,5.14-2.8,11.36-.27,16.42s8.33,8.58,13.91,7.62a14.47,14.47,0,0,0,4.73-1.8,19.35,19.35,0,0,0,9.16-19.17c-1-6.47-6.21-13.3-12.73-15.07S4.29,213.68,2,218.73Z"/><path class="cls-4" d="M16.54,237c-2.36,5.14-2.79,11.35-.26,16.42S24.6,262,30.18,261a14.39,14.39,0,0,0,4.73-1.8A19.32,19.32,0,0,0,44.07,240c-1-6.48-6.21-13.3-12.72-15.07S18.86,231.9,16.54,237Z"/><path class="cls-5" d="M2,302.64c-2.37,5.14-2.8,11.35-.27,16.42s8.33,8.58,13.91,7.62a14.47,14.47,0,0,0,4.73-1.8,19.36,19.36,0,0,0,9.16-19.17c-1-6.48-6.21-13.3-12.73-15.07S4.29,297.59,2,302.64Z"/><path class="cls-6" d="M16.54,320.85c-2.36,5.15-2.79,11.36-.26,16.43s8.32,8.58,13.9,7.61a14.15,14.15,0,0,0,4.73-1.79,19.32,19.32,0,0,0,9.16-19.17c-1-6.48-6.21-13.3-12.72-15.08S18.86,315.8,16.54,320.85Z"/><path class="cls-7" d="M2,118.79c-2.37,5.14-2.8,11.36-.27,16.42s8.33,8.58,13.91,7.62a14.47,14.47,0,0,0,4.73-1.8,19.35,19.35,0,0,0,9.16-19.17c-1-6.48-6.21-13.3-12.73-15.07S4.29,113.74,2,118.79Z"/><path class="cls-8" d="M276.33,12.24c-2.36,5.14-2.79,11.35-.26,16.42s8.32,8.58,13.9,7.62a14.39,14.39,0,0,0,4.73-1.8,19.32,19.32,0,0,0,9.16-19.17c-1-6.48-6.21-13.3-12.72-15.07S278.65,7.19,276.33,12.24Z"/><path class="cls-9" d="M276.33,111.3c-2.36,5.15-2.79,11.36-.26,16.43s8.32,8.58,13.9,7.61a14.37,14.37,0,0,0,4.73-1.79,19.33,19.33,0,0,0,9.16-19.18c-1-6.47-6.21-13.29-12.72-15.07S278.65,106.25,276.33,111.3Z"/><path class="cls-10" d="M276.33,65.07c-2.36,5.15-2.79,11.36-.26,16.43s8.32,8.58,13.9,7.61a14.17,14.17,0,0,0,4.73-1.8,19.31,19.31,0,0,0,9.16-19.17c-1-6.47-6.21-13.29-12.72-15.07S278.65,60,276.33,65.07Z"/><path class="cls-11" d="M276.33,270.8c-2.36,5.15-2.79,11.36-.26,16.43s8.32,8.58,13.9,7.61a14.37,14.37,0,0,0,4.73-1.79,19.33,19.33,0,0,0,9.16-19.18c-1-6.47-6.21-13.29-12.72-15.07S278.65,265.75,276.33,270.8Z"/><path class="cls-12" d="M276.33,320.77c-2.36,5.15-2.79,11.36-.26,16.43s8.32,8.58,13.9,7.61A14.37,14.37,0,0,0,294.7,343a19.33,19.33,0,0,0,9.16-19.18c-1-6.47-6.21-13.29-12.72-15.07S278.65,315.72,276.33,320.77Z"/><path class="cls-13" d="M276.33,219c-2.36,5.14-2.79,11.36-.26,16.42s8.32,8.58,13.9,7.62a14.39,14.39,0,0,0,4.73-1.8,19.32,19.32,0,0,0,9.16-19.17c-1-6.47-6.21-13.3-12.72-15.07S278.65,214,276.33,219Z"/><path class="cls-14" d="M572.13,91.35c0-7-7.32-12.59-16.36-12.59S539.4,84.39,539.4,91.35a10.69,10.69,0,0,0,3,7.24,17.69,17.69,0,0,1-2.81,4.28.63.63,0,0,0,.45,1.07,13.83,13.83,0,0,0,7-2,20.08,20.08,0,0,0,8.76,2C564.81,103.94,572.13,98.3,572.13,91.35Z"/><path class="cls-5" d="M552.63,101.89c0-7,7.33-12.59,16.37-12.59s16.36,5.63,16.36,12.59a10.67,10.67,0,0,1-3,7.23,17.83,17.83,0,0,0,2.82,4.29.64.64,0,0,1,.12.69.62.62,0,0,1-.58.37,13.79,13.79,0,0,1-7-2,20.15,20.15,0,0,1-8.76,2C560,114.47,552.63,108.84,552.63,101.89Z"/><path class="cls-4" d="M572.45,231.34c0-7-7.32-12.59-16.36-12.59s-16.37,5.63-16.37,12.59a10.69,10.69,0,0,0,3,7.24,17.69,17.69,0,0,1-2.81,4.28.63.63,0,0,0,.45,1.07,13.83,13.83,0,0,0,7-2,20.12,20.12,0,0,0,8.76,2C565.13,243.93,572.45,238.29,572.45,231.34Zm9.6,17.31a10.67,10.67,0,0,0,3-7.24c0-5.27-4.21-9.77-10.17-11.65a11.66,11.66,0,0,1,.1,1.58c0,8.33-8.47,15.1-18.88,15.1a22.83,22.83,0,0,1-2.5-.15c2.48,4.53,8.31,7.71,15.09,7.71a19.93,19.93,0,0,0,8.75-2,13.86,13.86,0,0,0,7,2,.62.62,0,0,0,.58-.38.65.65,0,0,0-.12-.69A17.65,17.65,0,0,1,582.05,248.65Z"/><path class="cls-14" d="M574.25,142.49c-11-4.75-24.22-5.61-35-.52S520.93,158.7,523,169.92a27.85,27.85,0,0,0,3.84,9.51c8.06,13.09,25,20.73,40.88,18.43,13.81-2,28.36-12.49,32.14-25.59S585,147.15,574.25,142.49Z"/><path class="cls-5" d="M579.05,138.51c-9.71-4.53-21.43-5.35-31-.5S531.89,154,533.71,164.64a27.81,27.81,0,0,0,3.38,9.06c7.13,12.46,22.14,19.74,36.16,17.54,12.21-1.91,25.08-11.89,28.43-24.37S588.57,143,579.05,138.51Z"/><path class="cls-15" d="M570.43,161.46c0-7-7.33-12.59-16.37-12.59s-16.36,5.63-16.36,12.59a10.68,10.68,0,0,0,3,7.24,18.11,18.11,0,0,1-2.81,4.29.63.63,0,0,0-.12.68.61.61,0,0,0,.57.38,13.83,13.83,0,0,0,7-2,20,20,0,0,0,8.76,2C563.1,174.05,570.43,168.41,570.43,161.46Zm9.6,17.31a10.67,10.67,0,0,0,3-7.24c0-5.26-4.21-9.77-10.18-11.65a11.76,11.76,0,0,1,.1,1.58c0,8.33-8.47,15.11-18.88,15.11-.85,0-1.68-.07-2.49-.15,2.47,4.52,8.3,7.7,15.08,7.7a19.84,19.84,0,0,0,8.76-2,13.83,13.83,0,0,0,7,2,.63.63,0,0,0,.45-1.06A17.87,17.87,0,0,1,580,178.77Z"/></g></g></svg>