<?xml version="1.0" encoding="utf-8"?>
<!-- Generator: Adobe Illustrator 23.1.1, SVG Export Plug-In . SVG Version: 6.00 Build 0)  -->
<svg version="1.1" id="Layer_1" xmlns="http://www.w3.org/2000/svg" xmlns:xlink="http://www.w3.org/1999/xlink" x="0px" y="0px"
	 viewBox="0 0 226.3 285.8" style="enable-background:new 0 0 226.3 285.8;" xml:space="preserve">
<style type="text/css">
	.st0{fill:#2A2D7D;}
	.st1{fill:#580000;}
	.st2{fill:#FF3351;}
	.st3{fill:#FF6262;}
	.st4{opacity:0.5;fill:#FF4344;enable-background:new    ;}
	.st5{fill:#FFD1D1;}
	.st6{fill:#BF7FB9;}
	.st7{clip-path:url(#SVGID_2_);}
	.st8{opacity:0.5;fill:#970076;enable-background:new    ;}
	.st9{fill:#FFFFFF;}
</style>
<title>colorpalettemobile</title>
<g>
	<g id="Layer_1-2">
		<path d="M72.4,10.7h-1.8l-0.7,2.8h1.9v0.8h-2.1L69,17.2h-0.8l0.7-2.9h-2.6l-0.7,2.9h-0.8l0.7-2.9h-1.6v-0.8h1.8l0.7-2.7h-1.8V10h2
			l0.7-2.8h0.8L67.3,10h2.6l0.7-2.8h0.8L70.7,10h1.6v0.7H72.4z M69.1,13.5l0.7-2.7h-2.7l-0.7,2.7H69.1z M76.8,12.8
			c0.4,0,0.9,0.1,1.3,0.2c0.4,0.1,0.7,0.3,1,0.6c0.3,0.3,0.5,0.6,0.7,1c0.4,0.8,0.4,1.8,0,2.6c-0.1,0.4-0.4,0.7-0.7,1
			c-0.3,0.3-0.7,0.5-1.1,0.7c-0.4,0.2-0.9,0.2-1.3,0.2c-0.3,0-0.7,0-1-0.1c-0.3-0.1-0.6-0.2-0.9-0.4c-0.3-0.2-0.5-0.4-0.7-0.6
			c-0.2-0.2-0.4-0.5-0.5-0.8l0.6-0.5c0.3,0.5,0.6,0.8,1.1,1.1c0.5,0.3,1,0.4,1.5,0.4c0.3,0,0.7-0.1,1-0.2c0.6-0.2,1.1-0.7,1.3-1.3
			c0.1-0.3,0.2-0.7,0.2-1c0-0.3-0.1-0.6-0.2-0.9c-0.1-0.3-0.3-0.5-0.5-0.7c-0.2-0.2-0.5-0.4-0.8-0.5c-0.3-0.1-0.6-0.2-0.9-0.2
			c-0.5,0-0.9,0.1-1.3,0.3c-0.4,0.2-0.7,0.5-0.9,0.8h-0.9c0-0.1,0-0.3,0.1-0.4c0-0.2,0.1-0.4,0.1-0.7s0.1-0.6,0.2-0.9s0.1-0.7,0.2-1
			c0.2-0.8,0.3-1.7,0.5-2.6h4.8V10h-4.1l-0.7,3.6c0.2-0.3,0.5-0.5,0.9-0.6C76.2,12.9,76.5,12.8,76.8,12.8z M88.2,14.4
			c0,0.4-0.1,0.8-0.3,1.2c-0.2,0.3-0.5,0.7-0.8,0.9c-0.3,0.3-0.7,0.5-1.1,0.6c-0.9,0.3-1.8,0.3-2.7,0c-0.4-0.2-0.7-0.4-1.1-0.6
			c-0.3-0.3-0.5-0.6-0.7-0.9c-0.2-0.3-0.3-0.7-0.3-1.1c0-0.3,0.1-0.6,0.2-0.9c0.1-0.3,0.3-0.5,0.5-0.7c0.2-0.2,0.4-0.4,0.6-0.5
			c0.2-0.2,0.4-0.3,0.7-0.4l-0.6-0.3c-0.2-0.1-0.4-0.3-0.5-0.5c-0.1-0.2-0.3-0.4-0.4-0.6c-0.1-0.2-0.1-0.5-0.1-0.7
			c0-0.4,0.1-0.8,0.3-1.1c0.2-0.3,0.4-0.6,0.7-0.8c0.3-0.2,0.6-0.4,1-0.5c0.7-0.3,1.5-0.3,2.2,0c0.4,0.1,0.7,0.3,1,0.5
			c0.3,0.2,0.5,0.5,0.7,0.8C87.8,9,88,9.4,87.9,9.7c0,0.2,0,0.5-0.1,0.7c-0.1,0.2-0.2,0.4-0.4,0.6c-0.1,0.2-0.3,0.3-0.5,0.5
			l-0.6,0.3c0.3,0.1,0.6,0.2,0.8,0.4c0.2,0.2,0.5,0.3,0.6,0.6c0.2,0.2,0.3,0.4,0.4,0.7C88.2,13.8,88.3,14.1,88.2,14.4z M87.3,14.3
			c0-0.3-0.1-0.6-0.2-0.9c-0.1-0.3-0.3-0.5-0.6-0.7c-0.2-0.2-0.5-0.3-0.8-0.4c-0.3-0.1-0.6-0.1-0.9-0.1c-0.3,0-0.6,0.1-0.9,0.2
			c-0.3,0.1-0.6,0.2-0.8,0.4c-0.2,0.2-0.4,0.4-0.6,0.7c-0.2,0.3-0.2,0.6-0.2,0.9c0,0.3,0.1,0.6,0.2,0.9c0.1,0.3,0.3,0.5,0.6,0.6
			c0.2,0.2,0.5,0.3,0.8,0.4c0.6,0.1,1.2,0.1,1.8,0c0.3-0.1,0.6-0.2,0.8-0.4c0.2-0.2,0.4-0.4,0.6-0.7C87.3,14.9,87.3,14.6,87.3,14.3z
			 M82.6,9.8c0,0.2,0.1,0.5,0.2,0.7c0.1,0.2,0.3,0.4,0.5,0.5c0.2,0.1,0.5,0.2,0.7,0.3c0.3,0.1,0.5,0.1,0.8,0.1c0.2,0,0.5,0,0.7-0.1
			c0.2-0.1,0.5-0.2,0.7-0.3c0.2-0.1,0.4-0.3,0.5-0.5c0.2-0.2,0.2-0.4,0.2-0.7c0-0.2-0.1-0.5-0.2-0.7c-0.1-0.2-0.3-0.4-0.5-0.5
			c-0.2-0.2-0.4-0.3-0.7-0.3c-0.3-0.1-0.5-0.1-0.8-0.1c-0.3,0-0.5,0-0.8,0.1c-0.2,0.1-0.5,0.2-0.7,0.3c-0.2,0.1-0.4,0.3-0.5,0.5
			C82.7,9.3,82.6,9.5,82.6,9.8z M96.8,13c0,0.6-0.1,1.2-0.3,1.7c-0.2,0.5-0.4,0.9-0.7,1.3c-0.3,0.4-0.7,0.7-1.1,0.9
			c-0.9,0.4-1.9,0.4-2.8,0c-0.4-0.2-0.8-0.5-1.1-0.9c-0.3-0.4-0.6-0.8-0.7-1.3c-0.4-1.1-0.4-2.3,0-3.4c0.2-0.5,0.4-0.9,0.7-1.3
			c0.3-0.4,0.7-0.7,1.1-0.9c0.9-0.4,1.9-0.4,2.8,0c0.4,0.2,0.8,0.5,1.1,0.9c0.3,0.4,0.6,0.8,0.7,1.3C96.7,11.8,96.8,12.4,96.8,13z
			 M95.8,13c0-0.5-0.1-0.9-0.2-1.4c-0.1-0.4-0.3-0.8-0.5-1.1c-0.2-0.3-0.5-0.5-0.8-0.7c-0.3-0.2-0.6-0.3-1-0.3
			c-0.4,0-0.8,0.1-1.1,0.3c-0.3,0.2-0.6,0.4-0.8,0.7c-0.2,0.3-0.4,0.7-0.5,1.1c-0.1,0.5-0.2,0.9-0.2,1.4c0,0.5,0.1,0.9,0.2,1.4
			c0.1,0.4,0.3,0.8,0.5,1.1c0.2,0.3,0.5,0.5,0.8,0.7c0.3,0.2,0.7,0.2,1.1,0.2c0.3,0,0.7-0.1,1-0.2c0.3-0.2,0.6-0.4,0.8-0.7
			c0.2-0.3,0.4-0.7,0.5-1.1C95.8,14,95.9,13.5,95.8,13z M105.4,13c0,0.6-0.1,1.2-0.3,1.7c-0.2,0.5-0.4,0.9-0.7,1.3
			c-0.3,0.4-0.7,0.7-1.1,0.9c-0.9,0.4-1.9,0.4-2.8,0c-0.4-0.2-0.8-0.5-1.1-0.9c-0.3-0.4-0.6-0.8-0.7-1.3c-0.4-1.1-0.4-2.3,0-3.4
			c0.2-0.5,0.4-0.9,0.7-1.3c0.3-0.4,0.7-0.7,1.1-0.9c0.9-0.4,1.9-0.4,2.8,0c0.4,0.2,0.8,0.5,1.1,0.9c0.3,0.4,0.6,0.8,0.7,1.3
			C105.3,11.8,105.4,12.4,105.4,13z M104.4,13c0-0.5-0.1-0.9-0.2-1.4c-0.1-0.4-0.3-0.8-0.5-1.1c-0.2-0.3-0.5-0.5-0.8-0.7
			c-0.6-0.4-1.4-0.4-2,0c-0.3,0.2-0.6,0.4-0.8,0.7c-0.2,0.3-0.4,0.7-0.5,1.1c-0.1,0.5-0.2,0.9-0.2,1.4c0,0.5,0.1,0.9,0.2,1.4
			c0.1,0.4,0.3,0.8,0.5,1.1c0.2,0.3,0.5,0.5,0.8,0.7c0.3,0.2,0.7,0.2,1,0.2c0.3,0,0.7-0.1,1-0.2c0.3-0.2,0.6-0.4,0.8-0.7
			c0.2-0.3,0.4-0.7,0.5-1.1C104.4,14,104.5,13.5,104.4,13z M114,13c0,0.6-0.1,1.2-0.3,1.7c-0.2,0.5-0.4,0.9-0.7,1.3
			c-0.3,0.4-0.7,0.7-1.1,0.9c-0.9,0.4-1.9,0.4-2.8,0c-0.4-0.2-0.8-0.5-1.1-0.9c-0.3-0.4-0.6-0.8-0.7-1.3c-0.4-1.1-0.4-2.3,0-3.4
			c0.2-0.5,0.4-0.9,0.7-1.3c0.3-0.4,0.7-0.7,1.1-0.9c0.9-0.4,1.9-0.4,2.8,0c0.4,0.2,0.8,0.5,1.1,0.9c0.3,0.4,0.6,0.8,0.7,1.3
			C113.9,11.8,114,12.4,114,13L114,13z M113,13c0-0.5-0.1-0.9-0.2-1.4c-0.1-0.4-0.3-0.8-0.5-1.1c-0.2-0.3-0.5-0.5-0.8-0.7
			c-0.3-0.2-0.6-0.3-1-0.3c-0.4,0-0.8,0.1-1.1,0.3c-0.3,0.2-0.6,0.4-0.8,0.7c-0.2,0.3-0.4,0.7-0.5,1.1c-0.1,0.5-0.2,0.9-0.2,1.4
			c0,0.5,0.1,0.9,0.2,1.4c0.1,0.4,0.3,0.8,0.5,1.1c0.2,0.3,0.5,0.5,0.8,0.7c0.3,0.2,0.7,0.2,1.1,0.2c0.3,0,0.7-0.1,1-0.2
			c0.3-0.2,0.6-0.4,0.8-0.7c0.2-0.3,0.4-0.7,0.5-1.1C113,14,113.1,13.5,113,13L113,13z M122.6,13c0,0.6-0.1,1.2-0.3,1.7
			c-0.2,0.5-0.4,0.9-0.7,1.3c-0.3,0.4-0.7,0.7-1.1,0.9c-0.9,0.4-1.9,0.4-2.8,0c-0.4-0.2-0.8-0.5-1.1-0.9c-0.3-0.4-0.6-0.8-0.7-1.3
			c-0.4-1.1-0.4-2.3,0-3.4c0.2-0.5,0.4-0.9,0.7-1.3c0.3-0.4,0.7-0.7,1.1-0.9c0.9-0.4,1.9-0.4,2.8,0c0.4,0.2,0.8,0.5,1.1,0.9
			c0.3,0.4,0.6,0.8,0.7,1.3C122.5,11.8,122.6,12.4,122.6,13z M121.7,13c0-0.5-0.1-0.9-0.2-1.4c-0.1-0.4-0.3-0.8-0.5-1.1
			c-0.2-0.3-0.5-0.5-0.8-0.7c-0.6-0.4-1.4-0.4-2,0c-0.3,0.2-0.6,0.4-0.8,0.7c-0.2,0.3-0.4,0.7-0.5,1.1c-0.1,0.5-0.2,0.9-0.2,1.4
			c0,0.5,0.1,0.9,0.2,1.4c0.1,0.4,0.3,0.8,0.5,1.1c0.2,0.3,0.5,0.5,0.8,0.7c0.3,0.2,0.7,0.2,1,0.2c0.3,0,0.7-0.1,1-0.2
			c0.3-0.2,0.6-0.4,0.8-0.7c0.2-0.3,0.4-0.7,0.5-1.1C121.7,13.9,121.7,13.5,121.7,13z"/>
		<path d="M72.4,54.2h-1.8l-0.7,2.7h1.9v0.8h-2.1L69,60.6h-0.8l0.7-2.9h-2.6l-0.7,2.9h-0.8l0.7-2.9h-1.6v-0.8h1.8l0.7-2.7h-1.8v-0.7
			h2l0.7-2.8h0.8l-0.7,2.8h2.5l0.7-2.8h0.8l-0.7,2.8h1.6v0.7L72.4,54.2z M69.1,56.9l0.7-2.7h-2.7l-0.7,2.7H69.1z M73.6,60.6
			c0-0.3,0-0.7,0.1-1c0.1-0.3,0.2-0.7,0.4-1c0.2-0.3,0.4-0.6,0.7-0.9c0.3-0.3,0.8-0.6,1.2-0.8c0.3-0.1,0.5-0.3,0.8-0.4
			c0.3-0.1,0.6-0.3,0.8-0.5c0.2-0.2,0.5-0.4,0.6-0.6c0.2-0.2,0.3-0.4,0.3-0.7c0-0.2,0-0.4-0.1-0.5c-0.1-0.2-0.2-0.3-0.3-0.5
			c-0.2-0.2-0.4-0.3-0.6-0.3c-0.5-0.1-1.1-0.1-1.6,0c-0.2,0.1-0.4,0.2-0.6,0.3c-0.2,0.1-0.3,0.3-0.5,0.4l-0.3,0.3l-0.6-0.7l0.3-0.3
			c0.2-0.1,0.4-0.3,0.6-0.4s0.6-0.3,0.9-0.4c0.4-0.1,0.8-0.2,1.2-0.2c0.4,0,0.7,0.1,1.1,0.2c0.3,0.1,0.6,0.3,0.9,0.5
			c0.2,0.2,0.4,0.4,0.5,0.7c0.1,0.3,0.2,0.5,0.2,0.8c0,0.4-0.1,0.7-0.3,1c-0.2,0.3-0.4,0.5-0.7,0.7c-0.2,0.2-0.5,0.4-0.8,0.5
			c-0.2,0.1-0.5,0.2-0.7,0.3l-1,0.5c-0.3,0.2-0.5,0.4-0.7,0.5c-0.2,0.2-0.3,0.4-0.4,0.6c-0.1,0.2-0.1,0.5-0.2,0.8h4.9v0.9h-6.1
			L73.6,60.6z M83.3,60.7c-0.3,0-0.7-0.1-1-0.2c-0.3-0.1-0.6-0.3-0.8-0.5c-0.2-0.2-0.4-0.4-0.5-0.7c-0.3-0.6-0.3-1.2,0-1.8
			c0.1-0.3,0.4-0.5,0.6-0.7c0.3-0.2,0.6-0.3,1-0.4c0.4-0.1,0.9-0.2,1.3-0.2c0.4,0,0.7,0,1.1,0.1c0.4,0.1,0.7,0.2,1,0.3V56
			c0-0.6-0.2-1.1-0.6-1.5c-0.4-0.4-0.9-0.6-1.5-0.6c-0.4,0-0.8,0.1-1.2,0.2c-0.4,0.2-0.8,0.4-1.2,0.6l-0.3-0.6
			c0.4-0.3,0.9-0.5,1.4-0.7c0.4-0.2,0.9-0.2,1.4-0.2c1.5-0.1,2.8,1.1,2.9,2.6c0,0.1,0,0.2,0,0.3v3.3c0,0.3,0.1,0.4,0.3,0.4v0.8h-0.4
			c-0.2,0-0.4-0.1-0.5-0.2c-0.1-0.2-0.2-0.3-0.3-0.5v-0.6c-0.3,0.5-0.8,0.8-1.3,1C84.3,60.6,83.8,60.7,83.3,60.7z M83.6,60
			c0.4,0,0.8-0.1,1.2-0.3c0.4-0.1,0.8-0.4,1-0.8c0.1-0.1,0.1-0.2,0.2-0.3s0.1-0.2,0.1-0.3v-1.2c-0.3-0.1-0.6-0.2-1-0.3
			c-0.3-0.1-0.7-0.1-1-0.1c-0.6,0-1.2,0.1-1.7,0.4c-0.4,0.2-0.6,0.7-0.6,1.1c0,0.2,0,0.4,0.1,0.6c0.1,0.2,0.2,0.3,0.3,0.5
			c0.2,0.1,0.4,0.3,0.6,0.4C83,59.9,83.3,60.1,83.6,60z M88.8,60.6c0-0.3,0-0.7,0.1-1c0.1-0.3,0.2-0.7,0.3-1
			c0.2-0.3,0.4-0.6,0.7-0.9c0.3-0.3,0.8-0.6,1.2-0.8c0.3-0.1,0.5-0.3,0.8-0.4c0.3-0.1,0.6-0.3,0.8-0.5c0.2-0.2,0.5-0.4,0.6-0.6
			c0.2-0.2,0.3-0.4,0.3-0.7c0-0.2,0-0.4-0.1-0.5c-0.1-0.2-0.2-0.4-0.4-0.5c-0.2-0.2-0.4-0.3-0.6-0.3c-0.5-0.1-1.1-0.1-1.6,0
			c-0.2,0.1-0.4,0.2-0.6,0.3c-0.2,0.1-0.3,0.3-0.5,0.4l-0.3,0.3l-0.6-0.6l0.3-0.3c0.2-0.1,0.4-0.3,0.6-0.4s0.6-0.3,0.9-0.4
			c0.4-0.1,0.8-0.2,1.2-0.2c0.4,0,0.7,0.1,1.1,0.2c0.3,0.1,0.6,0.3,0.9,0.5c0.2,0.2,0.4,0.4,0.5,0.7c0.1,0.3,0.2,0.5,0.2,0.8
			c0,0.4-0.1,0.7-0.3,1c-0.2,0.3-0.4,0.5-0.7,0.7c-0.2,0.2-0.5,0.4-0.8,0.5c-0.2,0.1-0.5,0.2-0.7,0.3c-0.4,0.2-0.7,0.4-1.1,0.5
			c-0.3,0.2-0.5,0.4-0.7,0.5c-0.2,0.2-0.3,0.4-0.4,0.6c-0.1,0.2-0.1,0.5-0.2,0.8h4.9v0.9h-5.8L88.8,60.6z M99.6,60.7
			c-0.5,0-1-0.1-1.4-0.3c-0.4-0.2-0.8-0.5-1.1-0.8c-0.3-0.3-0.6-0.7-0.7-1.2c-0.2-0.4-0.3-0.9-0.3-1.4c0-0.5,0.1-1,0.3-1.5
			c0.1-0.4,0.4-0.9,0.7-1.2c0.3-0.3,0.6-0.6,1-0.8c0.4-0.2,0.8-0.3,1.3-0.3c0.6,0,1.1,0.2,1.6,0.5c0.5,0.3,0.9,0.7,1.1,1.2v-4.5h1v9
			c0,0.3,0.1,0.4,0.3,0.4v0.8H103c-0.2,0-0.4-0.1-0.6-0.2c-0.1-0.1-0.2-0.3-0.2-0.5v-0.8c-0.3,0.5-0.7,0.9-1.2,1.1
			C100.6,60.5,100.1,60.7,99.6,60.7z M99.7,59.9c0.3,0,0.5,0,0.8-0.1c0.3-0.1,0.5-0.2,0.7-0.4l0.6-0.6c0.2-0.2,0.3-0.4,0.3-0.7v-2.3
			c-0.1-0.3-0.2-0.5-0.4-0.7l-0.6-0.6c-0.2-0.2-0.4-0.3-0.7-0.4c-0.3,0-0.5-0.1-0.8-0.1c-0.4,0-0.8,0.1-1.1,0.3
			c-0.3,0.2-0.6,0.4-0.8,0.7c-0.2,0.3-0.4,0.6-0.5,0.9C97.1,56.3,97,56.6,97,57c0,0.4,0.1,0.7,0.2,1.1c0.3,0.7,0.8,1.2,1.5,1.5
			C99,59.8,99.4,59.9,99.7,59.9z M110.2,53.3h-5.3v-0.9h6.9l-5,9.9h-1.1L110.2,53.3z M116,60.7c-0.5,0-1-0.1-1.4-0.3
			c-0.4-0.2-0.8-0.5-1.1-0.8c-0.3-0.3-0.6-0.7-0.7-1.2c-0.2-0.4-0.3-0.9-0.3-1.4c0-0.5,0.1-1,0.3-1.5c0.1-0.4,0.4-0.9,0.7-1.2
			c0.3-0.3,0.6-0.6,1-0.8c0.4-0.2,0.8-0.3,1.3-0.3c0.6,0,1.1,0.2,1.6,0.5c0.5,0.3,0.9,0.7,1.1,1.2v-4.5h1v9c0,0.3,0.1,0.4,0.3,0.4
			v0.8h-0.4c-0.2,0-0.4-0.1-0.6-0.2c-0.1-0.1-0.2-0.3-0.2-0.5v-0.8c-0.3,0.5-0.7,0.9-1.2,1.1C117.1,60.6,116.5,60.7,116,60.7
			L116,60.7z M116.2,59.9c0.3,0,0.5,0,0.8-0.1c0.3-0.1,0.5-0.2,0.7-0.4l0.6-0.6c0.2-0.2,0.3-0.4,0.3-0.7v-2.3
			c-0.1-0.3-0.2-0.5-0.4-0.7l-0.6-0.6c-0.2-0.2-0.4-0.3-0.7-0.4c-0.3-0.1-0.5-0.1-0.8-0.1c-0.4,0-0.8,0.1-1.1,0.3
			c-0.3,0.2-0.6,0.4-0.8,0.7c-0.2,0.3-0.4,0.6-0.5,0.9c-0.1,0.4-0.2,0.7-0.2,1.1c0,0.4,0.1,0.7,0.2,1.1c0.3,0.7,0.8,1.2,1.5,1.5
			C115.5,59.8,115.9,59.9,116.2,59.9z"/>
		<path d="M80.3,104.7c-0.6,0-1.1-0.1-1.6-0.4c-0.5-0.3-0.8-0.6-1.1-1.1v1.4h-0.9V94.3h1v4.5c0.3-0.5,0.7-0.9,1.2-1.2
			c0.5-0.3,1-0.5,1.6-0.5c0.5,0,1,0.1,1.4,0.3c0.4,0.2,0.8,0.5,1,0.9c0.3,0.4,0.5,0.8,0.7,1.2c0.2,0.4,0.2,0.9,0.2,1.4
			c0,0.5-0.1,1-0.3,1.5c-0.1,0.4-0.4,0.9-0.7,1.2c-0.3,0.3-0.7,0.6-1.1,0.8C81.3,104.6,80.8,104.7,80.3,104.7z M80.1,103.9
			c0.4,0,0.7-0.1,1.1-0.2c0.3-0.2,0.6-0.4,0.9-0.7l0.6-0.9c0.1-0.4,0.2-0.7,0.2-1.1c0-0.4-0.1-0.7-0.2-1.1c-0.1-0.3-0.3-0.7-0.5-0.9
			c-0.2-0.3-0.5-0.5-0.8-0.7c-0.3-0.2-0.6-0.3-1-0.3c-0.3,0-0.6,0.1-0.8,0.2c-0.3,0.1-0.5,0.2-0.7,0.4l-0.6,0.6
			c-0.2,0.2-0.3,0.4-0.4,0.7v2.3c0,0.3,0.1,0.5,0.3,0.7l0.6,0.6c0.2,0.2,0.4,0.3,0.7,0.4C79.6,103.8,79.8,103.9,80.1,103.9z
			 M85.7,104.6v-5.7h-1v-0.8h1v-1c0-0.7,0.2-1.5,0.6-2.1c0.6-0.7,1.5-1,2.4-0.7c0.2,0.1,0.5,0.2,0.7,0.3l-0.3,0.7
			c-0.1-0.1-0.3-0.2-0.5-0.2C88.4,95,88.2,95,88,95c-0.4,0-0.8,0.2-1,0.5c-0.2,0.5-0.3,1-0.3,1.5v1.1h2v0.8h-2v5.7L85.7,104.6z
			 M95.1,97.3h-5.4v-0.9h6.9l-5,9.9h-1.1L95.1,97.3z M98.2,104.6v-5.7h-1v-0.8h1v-1c0-0.7,0.2-1.5,0.6-2.1c0.6-0.7,1.5-1,2.4-0.7
			c0.2,0.1,0.5,0.2,0.7,0.3l-0.3,0.7c-0.1-0.1-0.3-0.2-0.5-0.2c-0.2-0.1-0.4-0.1-0.6-0.1c-0.4,0-0.8,0.2-1,0.5
			c-0.2,0.5-0.3,1-0.3,1.5v1.1h2v0.8h-2v5.7L98.2,104.6z M106.2,104.7c-0.6,0-1.1-0.1-1.6-0.4c-0.5-0.3-0.8-0.6-1.1-1.1v1.4h-0.9
			V94.3h1v4.5c0.3-0.5,0.7-0.9,1.2-1.2c0.5-0.3,1-0.5,1.6-0.5c0.5,0,1,0.1,1.4,0.3c0.4,0.2,0.8,0.5,1,0.9c0.3,0.4,0.5,0.8,0.7,1.2
			c0.2,0.4,0.2,0.9,0.2,1.4c0,0.5-0.1,1-0.3,1.5c-0.1,0.4-0.4,0.9-0.7,1.2c-0.3,0.3-0.7,0.6-1.1,0.8
			C107.2,104.6,106.7,104.7,106.2,104.7z M106,103.9c0.4,0,0.7-0.1,1.1-0.2c0.3-0.2,0.6-0.4,0.9-0.7l0.6-0.9
			c0.1-0.4,0.2-0.7,0.2-1.1c0-0.4-0.1-0.7-0.2-1.1c-0.1-0.3-0.3-0.7-0.5-0.9c-0.2-0.3-0.5-0.5-0.8-0.7c-0.3-0.2-0.6-0.3-1-0.3
			c-0.3,0-0.6,0.1-0.8,0.2c-0.3,0.1-0.5,0.2-0.7,0.4l-0.6,0.6c-0.2,0.2-0.3,0.4-0.4,0.7v2.3c0,0.3,0.1,0.5,0.3,0.7l0.6,0.6
			c0.2,0.2,0.4,0.3,0.7,0.4C105.5,103.8,105.8,103.9,106,103.9L106,103.9z M110.8,100c0-0.5,0.1-0.9,0.3-1.3
			c0.2-0.4,0.4-0.8,0.7-1.1c0.3-0.3,0.7-0.6,1.1-0.7c0.9-0.4,1.9-0.4,2.8,0c0.4,0.2,0.8,0.5,1.1,0.8c0.3,0.4,0.6,0.8,0.7,1.3
			c0.2,0.5,0.3,1.1,0.3,1.7c0,0.9-0.1,1.8-0.3,2.6c-0.1,0.7-0.4,1.3-0.8,1.9c-0.3,0.5-0.6,0.8-1.1,1.1c-0.5,0.3-1,0.4-1.5,0.4
			c-0.6,0-1.3-0.2-1.8-0.5c-0.5-0.3-0.9-0.8-1.2-1.4l0.6-0.6c0.2,0.5,0.5,0.9,0.9,1.1c0.4,0.3,0.9,0.4,1.4,0.4
			c0.4,0,0.8-0.1,1.1-0.3c0.3-0.2,0.7-0.6,0.9-0.9c0.2-0.4,0.4-0.8,0.6-1.3c0.1-0.6,0.2-1.2,0.2-1.8c-0.2,0.6-0.6,1-1.1,1.3
			c-0.5,0.3-1.1,0.5-1.7,0.5c-0.5,0-0.9-0.1-1.3-0.3c-0.4-0.2-0.8-0.4-1.1-0.7c-0.3-0.3-0.6-0.7-0.7-1.1
			C110.9,100.9,110.8,100.5,110.8,100L110.8,100z M114.3,97.4c-0.3,0-0.7,0.1-1,0.2c-0.3,0.1-0.6,0.3-0.8,0.5
			c-0.2,0.2-0.4,0.5-0.6,0.8c-0.3,0.6-0.3,1.4,0,2c0.1,0.3,0.3,0.6,0.6,0.8c0.2,0.2,0.5,0.4,0.8,0.6c0.3,0.1,0.7,0.2,1,0.2
			c0.3,0,0.7-0.1,1-0.2c0.3-0.1,0.6-0.3,0.8-0.6c0.2-0.2,0.4-0.5,0.6-0.8c0.3-0.6,0.3-1.4,0-2c-0.1-0.3-0.3-0.6-0.6-0.8
			c-0.2-0.2-0.5-0.4-0.8-0.6C115,97.5,114.7,97.4,114.3,97.4L114.3,97.4z M121.7,104.6l-3-7.3h1l2.5,6.4l2.5-6.4h0.9l-3,7.3H121.7z"
			/>
		<path d="M72.4,178.1h-1.8l-0.7,2.7h1.9v0.8h-2.1l-0.7,2.9h-0.8l0.7-2.9h-2.6l-0.7,2.9h-0.8l0.7-2.9h-1.6v-0.8h1.8l0.7-2.7h-1.8
			v-0.7h2l0.7-2.8h0.8l-0.7,2.8h2.5l0.7-2.8h0.8l-0.7,2.8h1.6L72.4,178.1L72.4,178.1z M69.1,180.9l0.7-2.7h-2.7l-0.7,2.7H69.1z
			 M80.1,175c-0.2,0-0.5,0.1-0.7,0.2c-0.2,0.1-0.4,0.3-0.5,0.5l-0.3,0.6c-0.1,0.2-0.1,0.5-0.1,0.7v1.1h2.3v0.8h-2.3v5.7h-1v-5.7
			h-2.3v5.7h-1v-5.7h-1v-0.8h1v-0.6c0-0.3,0-0.7,0.1-1c0.1-0.3,0.2-0.6,0.4-0.9c0.2-0.3,0.4-0.5,0.7-0.6c0.3-0.2,0.7-0.2,1-0.2
			c0.3,0,0.6,0,0.9,0.1c0.2,0.1,0.5,0.2,0.7,0.3c0.2-0.3,0.4-0.5,0.7-0.7c0.3-0.2,0.7-0.3,1.1-0.3c0.2,0,0.4,0,0.6,0.1
			c0.2,0,0.3,0.1,0.4,0.1s0.2,0.1,0.3,0.2s0.1,0.1,0.2,0.1l-0.3,0.7c-0.1-0.1-0.2-0.1-0.4-0.2C80.6,175,80.4,175,80.1,175L80.1,175z
			 M77.6,177.1c0-0.2,0-0.5,0.1-0.7c0-0.2,0.1-0.4,0.2-0.6c-0.2-0.1-0.4-0.2-0.6-0.2c-0.2,0-0.4-0.1-0.6-0.1c-0.2,0-0.5,0.1-0.7,0.2
			c-0.2,0.1-0.3,0.3-0.4,0.5c-0.1,0.2-0.2,0.4-0.2,0.6c0,0.2-0.1,0.4-0.1,0.6v0.6h2.3L77.6,177.1z M86.1,181.2
			c0.6,0.1,1.1,0.4,1.5,0.8c0.4,0.5,0.6,1.1,0.6,1.7c0,0.4-0.1,0.7-0.2,1.1c-0.1,0.4-0.4,0.7-0.7,0.9c-0.3,0.3-0.6,0.5-1,0.6
			c-0.4,0.1-0.9,0.2-1.3,0.2c-0.7,0-1.3-0.1-1.9-0.4c-0.5-0.3-0.9-0.7-1.2-1.2l0.7-0.6c0.2,0.4,0.5,0.7,0.9,1c0.5,0.3,1,0.4,1.5,0.4
			c0.6,0,1.2-0.2,1.7-0.5c0.4-0.4,0.7-0.9,0.6-1.5c0-0.6-0.2-1.1-0.6-1.5c-0.5-0.4-1.1-0.7-1.8-0.6h-0.3v-0.8H85
			c0.6,0,1.2-0.2,1.7-0.5c0.4-0.3,0.6-0.8,0.6-1.3c0-0.2-0.1-0.5-0.2-0.7c-0.1-0.2-0.2-0.4-0.4-0.5c-0.2-0.1-0.4-0.3-0.6-0.3
			c-0.3-0.1-0.5-0.1-0.8-0.1c-0.5,0-1,0.1-1.4,0.4c-0.4,0.2-0.7,0.6-0.9,1l-0.6-0.6c0.1-0.3,0.3-0.5,0.5-0.7
			c0.2-0.2,0.4-0.4,0.7-0.5l0.9-0.3c0.3-0.1,0.7-0.1,1-0.1c0.4,0,0.8,0.1,1.2,0.2c0.3,0.1,0.7,0.3,0.9,0.5c0.3,0.2,0.5,0.5,0.6,0.8
			c0.1,0.3,0.2,0.7,0.2,1c0,0.3,0,0.5-0.1,0.8c-0.1,0.3-0.2,0.5-0.4,0.7c-0.2,0.2-0.4,0.4-0.6,0.5C86.7,181.1,86.4,181.2,86.1,181.2
			L86.1,181.2z M93.6,181.2c0.6,0.1,1.1,0.4,1.5,0.8c0.4,0.5,0.6,1.1,0.6,1.7c0,0.4-0.1,0.7-0.2,1.1c-0.1,0.4-0.4,0.7-0.7,0.9
			c-0.3,0.3-0.6,0.5-1,0.6c-0.4,0.1-0.9,0.2-1.3,0.2c-0.7,0-1.3-0.1-1.9-0.4c-0.5-0.3-0.9-0.7-1.2-1.2l0.7-0.6
			c0.2,0.4,0.5,0.7,0.9,1c0.5,0.3,1,0.4,1.5,0.4c0.6,0,1.2-0.2,1.7-0.5c0.4-0.4,0.7-0.9,0.6-1.5c0-0.6-0.2-1.1-0.6-1.5
			c-0.5-0.4-1.1-0.7-1.8-0.6h-0.5v-0.8h0.4c0.6,0,1.2-0.2,1.7-0.5c0.4-0.3,0.6-0.8,0.6-1.3c0-0.2-0.1-0.5-0.2-0.7
			c-0.1-0.2-0.2-0.4-0.4-0.5c-0.2-0.1-0.4-0.3-0.6-0.3c-0.3-0.1-0.5-0.1-0.8-0.1c-0.5,0-1,0.1-1.4,0.4c-0.4,0.2-0.7,0.6-0.9,1
			l-0.6-0.6c0.1-0.3,0.3-0.5,0.5-0.7c0.2-0.2,0.4-0.4,0.7-0.5l0.9-0.3c0.3-0.1,0.7-0.1,1-0.1c0.4,0,0.8,0.1,1.2,0.2
			c0.3,0.1,0.7,0.3,0.9,0.5c0.3,0.2,0.5,0.5,0.6,0.8c0.1,0.3,0.2,0.7,0.2,1c0,0.3,0,0.5-0.1,0.8c-0.1,0.3-0.2,0.5-0.4,0.7
			c-0.2,0.2-0.4,0.4-0.6,0.5C94.2,181.1,93.9,181.2,93.6,181.2L93.6,181.2z M100.2,180.2c0.4,0,0.9,0.1,1.3,0.2
			c0.4,0.1,0.7,0.3,1,0.6c0.3,0.3,0.5,0.6,0.7,1c0.4,0.8,0.4,1.8,0,2.6c-0.1,0.4-0.4,0.7-0.7,1c-0.3,0.3-0.7,0.5-1.1,0.7
			c-0.4,0.2-0.9,0.2-1.3,0.2c-0.3,0-0.7,0-1-0.1c-0.3-0.1-0.6-0.2-0.9-0.4c-0.3-0.2-0.5-0.4-0.7-0.6c-0.2-0.2-0.4-0.5-0.5-0.8
			l0.6-0.5c0.3,0.5,0.6,0.8,1.1,1.1c0.5,0.3,1,0.4,1.5,0.4c0.3,0,0.7-0.1,1-0.2c0.6-0.2,1.1-0.7,1.3-1.3c0.1-0.3,0.2-0.7,0.2-1
			c0-0.3-0.1-0.6-0.2-0.9c-0.1-0.3-0.3-0.5-0.5-0.7c-0.2-0.2-0.5-0.4-0.8-0.5c-0.3-0.1-0.6-0.2-0.9-0.2c-0.5,0-0.9,0.1-1.3,0.3
			c-0.4,0.2-0.7,0.5-0.9,0.8h-0.9c0-0.1,0-0.3,0.1-0.4c0.1-0.2,0.1-0.5,0.1-0.7c0.1-0.3,0.1-0.6,0.2-0.9s0.1-0.7,0.2-1
			c0.2-0.8,0.3-1.7,0.5-2.6h4.8v0.9h-4.2l-0.7,3.6c0.2-0.3,0.5-0.5,0.9-0.6L100.2,180.2z M109.7,183.7v0.9h-4.8v-0.9h2v-6l-0.4,0.4
			c-0.2,0.1-0.4,0.3-0.6,0.4c-0.2,0.1-0.5,0.2-0.7,0.3c-0.2,0.1-0.4,0.1-0.6,0.1V178c0.2,0,0.5-0.1,0.7-0.2c0.2-0.1,0.5-0.2,0.7-0.4
			c0.2-0.2,0.4-0.3,0.6-0.4c0.2-0.1,0.2-0.2,0.3-0.3h1v7.1L109.7,183.7L109.7,183.7z"/>
		<path d="M84.3,197.5h-1.8l-0.7,2.7h1.9v0.8h-2.1l-0.7,2.9h-0.8l0.8-2.9h-2.6l-0.7,2.9h-0.8l0.7-2.9h-1.6v-0.8h1.8l0.7-2.7h-1.8
			v-0.7h2l0.7-2.8h0.8l-0.7,2.8h2.5l0.7-2.8h0.8l-0.7,2.8h1.6L84.3,197.5z M81.1,200.3l0.7-2.7h-2.7l-0.7,2.7H81.1z M92.1,194.4
			c-0.2,0-0.5,0.1-0.7,0.2c-0.2,0.1-0.4,0.3-0.5,0.5l-0.3,0.6c-0.1,0.2-0.1,0.5-0.1,0.7v1.1h2.3v0.8h-2.3v5.7h-1v-5.7h-2.3v5.7h-1
			v-5.7h-1v-0.8h1v-0.6c0-0.3,0-0.7,0.1-1c0.1-0.3,0.2-0.6,0.4-0.9c0.2-0.3,0.4-0.5,0.7-0.6c0.3-0.2,0.7-0.2,1-0.2
			c0.3,0,0.6,0,0.9,0.1c0.2,0.1,0.5,0.2,0.7,0.3c0.2-0.3,0.4-0.5,0.7-0.7c0.3-0.2,0.7-0.3,1.1-0.3c0.2,0,0.4,0,0.6,0.1
			c0.2,0,0.3,0.1,0.4,0.1s0.2,0.1,0.3,0.2s0.1,0.1,0.2,0.1l-0.3,0.7c-0.1-0.1-0.2-0.1-0.4-0.2C92.6,194.4,92.4,194.4,92.1,194.4
			L92.1,194.4z M89.5,196.5c0-0.2,0-0.5,0.1-0.7c0-0.2,0.1-0.4,0.2-0.6c-0.2-0.1-0.4-0.2-0.6-0.2c-0.2,0-0.4-0.1-0.6-0.1
			c-0.2,0-0.5,0.1-0.7,0.2c-0.2,0.1-0.3,0.3-0.4,0.5c-0.1,0.2-0.2,0.4-0.2,0.6c0,0.2-0.1,0.4-0.1,0.6v0.6h2.3L89.5,196.5z
			 M101.1,200.6c0,0.5-0.1,0.9-0.3,1.3c-0.2,0.4-0.4,0.8-0.7,1.1c-0.3,0.3-0.7,0.6-1.1,0.7c-0.9,0.4-1.9,0.4-2.8,0
			c-0.4-0.2-0.8-0.5-1.1-0.8c-0.3-0.4-0.6-0.8-0.7-1.3c-0.2-0.6-0.3-1.2-0.3-1.8c0-0.9,0.1-1.8,0.3-2.6c0.1-0.7,0.4-1.3,0.7-1.9
			c0.3-0.5,0.7-0.9,1.2-1.1c0.5-0.3,1-0.4,1.5-0.4c0.6,0,1.3,0.2,1.8,0.5c0.5,0.3,0.9,0.8,1.2,1.4l-0.6,0.6
			c-0.2-0.5-0.5-0.9-0.9-1.1c-0.4-0.3-0.9-0.4-1.4-0.4c-0.4,0-0.8,0.1-1.1,0.3c-0.3,0.2-0.7,0.6-0.9,0.9c-0.2,0.5-0.4,0.9-0.6,1.4
			c-0.1,0.6-0.2,1.2-0.2,1.8c0.2-0.6,0.6-1,1.1-1.3c0.5-0.3,1.1-0.5,1.7-0.5c0.5,0,0.9,0.1,1.3,0.3c0.4,0.2,0.8,0.4,1.1,0.7
			c0.3,0.3,0.6,0.7,0.7,1.1C101,199.7,101.1,200.2,101.1,200.6L101.1,200.6z M97.6,203.2c0.3,0,0.7-0.1,1-0.2
			c0.3-0.1,0.6-0.3,0.8-0.6c0.2-0.2,0.4-0.5,0.6-0.8c0.1-0.3,0.2-0.7,0.2-1c0-0.3-0.1-0.7-0.2-1c-0.1-0.3-0.3-0.6-0.6-0.8
			c-0.2-0.2-0.5-0.4-0.8-0.5c-0.6-0.3-1.4-0.3-2,0c-0.3,0.1-0.6,0.3-0.8,0.5c-0.2,0.2-0.4,0.5-0.6,0.8c-0.3,0.6-0.3,1.4,0,2
			c0.1,0.3,0.3,0.6,0.6,0.8c0.2,0.2,0.5,0.4,0.8,0.6C96.9,203.2,97.3,203.2,97.6,203.2L97.6,203.2z M102.5,203.9c0-0.3,0-0.7,0.1-1
			c0.1-0.3,0.2-0.7,0.3-1c0.2-0.3,0.4-0.6,0.7-0.9c0.3-0.3,0.8-0.6,1.2-0.8c0.3-0.1,0.5-0.3,0.8-0.4c0.3-0.1,0.6-0.3,0.8-0.5
			c0.2-0.2,0.5-0.4,0.6-0.6c0.2-0.2,0.3-0.4,0.3-0.7c0-0.2,0-0.4-0.1-0.5c-0.1-0.2-0.2-0.3-0.3-0.5c-0.2-0.2-0.4-0.3-0.6-0.3
			c-0.5-0.1-1.1-0.1-1.6,0c-0.2,0.1-0.4,0.2-0.6,0.3c-0.2,0.1-0.3,0.3-0.5,0.4l-0.3,0.3l-0.6-0.7l0.3-0.3c0.2-0.1,0.4-0.3,0.6-0.4
			s0.6-0.3,0.9-0.4c0.4-0.1,0.8-0.2,1.2-0.2c0.4,0,0.7,0.1,1.1,0.2c0.3,0.1,0.6,0.3,0.9,0.5c0.2,0.2,0.4,0.4,0.5,0.7
			c0.1,0.3,0.2,0.5,0.2,0.8c0,0.4-0.1,0.7-0.3,1c-0.2,0.3-0.4,0.5-0.7,0.7c-0.2,0.2-0.5,0.4-0.8,0.5c-0.2,0.1-0.5,0.2-0.7,0.3
			c-0.4,0.2-0.7,0.4-1.1,0.5c-0.3,0.2-0.5,0.4-0.7,0.5c-0.2,0.2-0.3,0.4-0.4,0.6c-0.1,0.2-0.1,0.5-0.2,0.8h4.9v0.9h-5.9L102.5,203.9
			z M117.1,200.6c0,0.5-0.1,0.9-0.3,1.3c-0.2,0.4-0.4,0.8-0.7,1.1c-0.3,0.3-0.7,0.6-1.1,0.7c-0.9,0.4-1.9,0.4-2.8,0
			c-0.4-0.2-0.8-0.5-1.1-0.8c-0.3-0.4-0.6-0.8-0.7-1.3c-0.2-0.6-0.3-1.2-0.3-1.8c0-0.9,0.1-1.8,0.3-2.6c0.1-0.7,0.4-1.3,0.7-1.9
			c0.3-0.5,0.7-0.9,1.2-1.1c0.5-0.3,1-0.4,1.5-0.4c0.6,0,1.3,0.2,1.8,0.5c0.5,0.3,0.9,0.8,1.2,1.4l-0.6,0.6
			c-0.2-0.5-0.5-0.9-0.9-1.1c-0.4-0.3-0.9-0.4-1.4-0.4c-0.4,0-0.8,0.1-1.1,0.3c-0.3,0.2-0.7,0.6-0.9,0.9c-0.2,0.5-0.4,0.9-0.6,1.4
			c-0.1,0.6-0.2,1.2-0.2,1.8c0.2-0.5,0.5-1,1-1.3c0.5-0.3,1.1-0.5,1.7-0.5c0.5,0,0.9,0.1,1.3,0.3c0.4,0.2,0.8,0.4,1.1,0.7
			c0.3,0.3,0.6,0.7,0.7,1.1C117.1,199.9,117.1,200.2,117.1,200.6L117.1,200.6z M113.6,203.2c0.3,0,0.7-0.1,1-0.2
			c0.3-0.1,0.6-0.3,0.8-0.6c0.2-0.2,0.4-0.5,0.6-0.8c0.1-0.3,0.2-0.7,0.2-1c0-0.3-0.1-0.7-0.2-1c-0.1-0.3-0.3-0.6-0.6-0.8
			c-0.2-0.2-0.5-0.4-0.8-0.5c-0.6-0.3-1.4-0.3-2,0c-0.3,0.1-0.6,0.3-0.8,0.5c-0.2,0.2-0.4,0.5-0.6,0.8c-0.3,0.6-0.3,1.4,0,2
			c0.1,0.3,0.3,0.6,0.6,0.8c0.2,0.2,0.5,0.4,0.8,0.6C112.9,203.2,113.3,203.2,113.6,203.2L113.6,203.2z M118.4,203.9
			c0-0.3,0-0.7,0.1-1c0.1-0.3,0.2-0.7,0.4-1c0.2-0.3,0.4-0.6,0.7-0.9c0.3-0.3,0.8-0.6,1.2-0.8c0.3-0.1,0.5-0.3,0.8-0.4
			c0.3-0.1,0.6-0.3,0.8-0.5c0.2-0.1,0.5-0.4,0.6-0.6c0.2-0.2,0.3-0.4,0.3-0.7c0-0.2,0-0.4-0.1-0.5c-0.1-0.2-0.2-0.3-0.3-0.5
			s-0.3-0.3-0.6-0.3c-0.5-0.1-1.1-0.1-1.6,0c-0.2,0.1-0.4,0.2-0.6,0.3c-0.2,0.1-0.3,0.3-0.5,0.4l-0.3,0.3l-0.6-0.7l0.3-0.3
			c0.2-0.1,0.4-0.3,0.6-0.4s0.6-0.3,0.9-0.4c0.4-0.1,0.8-0.2,1.2-0.2c0.4,0,0.7,0.1,1.1,0.2c0.3,0.1,0.6,0.3,0.9,0.5
			c0.2,0.2,0.4,0.4,0.5,0.7c0.1,0.3,0.2,0.5,0.2,0.8c0,0.4-0.1,0.7-0.3,1c-0.2,0.3-0.4,0.5-0.7,0.7c-0.2,0.2-0.5,0.4-0.8,0.5
			c-0.2,0.1-0.5,0.2-0.7,0.3l-1,0.5c-0.3,0.2-0.5,0.4-0.7,0.5c-0.2,0.2-0.3,0.4-0.4,0.6c-0.1,0.2-0.1,0.5-0.2,0.8h4.9v0.9h-6.1
			L118.4,203.9z"/>
		<path d="M72.4,257h-1.8l-0.7,2.7h1.9v0.8h-2.1l-0.7,2.9h-0.8l0.7-2.9h-2.6l-0.7,2.9h-0.8l0.7-2.9h-1.6v-0.8h1.8l0.7-2.7h-1.8v-0.7
			h2l0.7-2.8h0.8l-0.7,2.8h2.5l0.7-2.8h0.8l-0.7,2.8h1.6L72.4,257L72.4,257z M69.1,259.8l0.7-2.7h-2.7l-0.7,2.7H69.1z M80.1,253.9
			c-0.2,0-0.5,0.1-0.7,0.2c-0.2,0.1-0.4,0.3-0.5,0.5l-0.3,0.6c-0.1,0.2-0.1,0.5-0.1,0.7v1.1h2.3v0.8h-2.3v5.7h-1v-5.7h-2.3v5.7h-1
			v-5.7h-1V257h1v-0.6c0-0.3,0-0.7,0.1-1c0.1-0.3,0.2-0.6,0.4-0.9c0.2-0.3,0.4-0.5,0.7-0.6c0.3-0.2,0.7-0.2,1-0.2
			c0.3,0,0.6,0,0.9,0.1c0.2,0.1,0.5,0.2,0.7,0.3c0.2-0.3,0.4-0.5,0.7-0.7c0.3-0.2,0.7-0.3,1.1-0.3c0.2,0,0.4,0,0.6,0.1
			c0.2,0,0.3,0.1,0.4,0.1s0.2,0.1,0.3,0.2s0.1,0.1,0.2,0.1l-0.3,0.7c-0.1-0.1-0.2-0.1-0.4-0.2C80.6,253.9,80.4,253.9,80.1,253.9z
			 M77.6,256c0-0.2,0-0.5,0.1-0.7c0-0.2,0.1-0.4,0.2-0.6c-0.2-0.1-0.4-0.2-0.6-0.2c-0.2,0-0.4-0.1-0.6-0.1c-0.2,0-0.5,0.1-0.7,0.2
			c-0.2,0.1-0.3,0.3-0.4,0.5c-0.1,0.2-0.2,0.4-0.2,0.6c0,0.2-0.1,0.4-0.1,0.6v0.6h2.3L77.6,256z M86.3,265.2v-2.5h-4.7v-0.8l5-6.4
			h0.7v6.4h1.2v0.9h-1.2v2.5h-1V265.2z M82.6,261.9h3.8V257L82.6,261.9z M93.7,260.1c0.6,0.1,1.1,0.4,1.5,0.8
			c0.4,0.5,0.6,1.1,0.6,1.7c0,0.4-0.1,0.7-0.2,1.1c-0.1,0.4-0.4,0.7-0.7,0.9c-0.3,0.3-0.6,0.5-1,0.6c-0.4,0.1-0.9,0.2-1.3,0.2
			c-0.7,0-1.3-0.1-1.9-0.4c-0.5-0.3-0.9-0.7-1.2-1.2l0.7-0.6c0.2,0.4,0.5,0.7,0.9,1c0.5,0.3,1,0.4,1.5,0.4c0.6,0,1.2-0.2,1.7-0.5
			c0.4-0.4,0.7-0.9,0.6-1.5c0-0.6-0.2-1.1-0.6-1.5c-0.5-0.4-1.1-0.7-1.8-0.6h-0.6v-0.8h0.4c0.6,0,1.2-0.2,1.7-0.5
			c0.4-0.3,0.6-0.8,0.6-1.3c0-0.2-0.1-0.5-0.2-0.7c-0.1-0.2-0.2-0.4-0.4-0.5c-0.2-0.1-0.4-0.3-0.6-0.3c-0.3-0.1-0.5-0.1-0.8-0.1
			c-0.5,0-1,0.1-1.4,0.4c-0.4,0.2-0.7,0.6-0.9,1l-0.6-0.6c0.1-0.3,0.3-0.5,0.5-0.7c0.2-0.2,0.4-0.4,0.7-0.5l0.9-0.3
			c0.3-0.1,0.7-0.1,1-0.1c0.4,0,0.8,0.1,1.2,0.2c0.3,0.1,0.7,0.3,0.9,0.5c0.3,0.2,0.5,0.5,0.6,0.8c0.1,0.3,0.2,0.7,0.2,1
			c0,0.3,0,0.5-0.1,0.8c-0.1,0.3-0.2,0.5-0.4,0.7c-0.2,0.2-0.4,0.4-0.6,0.5C94.2,260,94,260.1,93.7,260.1L93.7,260.1z M101.4,265.2
			v-2.5h-4.7v-0.8l5-6.4h0.7v6.4h1.2v0.9h-1.2v2.5h-1V265.2z M97.7,261.9h3.8V257L97.7,261.9z M108.9,265.2v-2.5h-4.7v-0.8l5-6.4
			h0.7v6.4h1.2v0.9h-1.2v2.5h-1V265.2z M105.3,261.9h3.8V257L105.3,261.9z"/>
		<path d="M84.3,276.4h-1.8l-0.7,2.7h1.9v0.8h-2.1l-0.7,2.9h-0.8l0.7-2.9h-2.6l-0.7,2.9h-0.8l0.7-2.9h-1.5v-0.8h1.8l0.7-2.7h-1.8
			v-0.7h2l0.7-2.8h0.8l-0.7,2.8h2.5l0.7-2.8h0.8l-0.7,2.8h1.6V276.4z M81.1,279.2l0.7-2.7h-2.7l-0.7,2.7H81.1z M92.1,273.3
			c-0.2,0-0.5,0.1-0.7,0.2c-0.2,0.1-0.4,0.3-0.5,0.5l-0.3,0.6c-0.1,0.2-0.1,0.5-0.1,0.7v1.1h2.3v0.8h-2.3v5.7h-1v-5.7h-2.3v5.7h-1
			v-5.7h-1v-0.8h1v-0.6c0-0.3,0-0.7,0.1-1c0.1-0.3,0.2-0.6,0.4-0.9c0.2-0.3,0.4-0.5,0.7-0.6c0.3-0.2,0.7-0.2,1-0.2
			c0.3,0,0.6,0,0.9,0.1c0.2,0.1,0.5,0.2,0.7,0.3c0.2-0.3,0.4-0.5,0.7-0.7c0.3-0.2,0.7-0.3,1.1-0.3c0.2,0,0.4,0,0.6,0.1
			c0.2,0,0.3,0.1,0.4,0.1s0.2,0.1,0.3,0.2s0.1,0.1,0.2,0.1l-0.3,0.7c-0.1-0.1-0.2-0.1-0.4-0.2C92.6,273.4,92.4,273.3,92.1,273.3z
			 M89.5,275.4c0-0.2,0-0.5,0.1-0.7c0-0.2,0.1-0.4,0.2-0.6c-0.2-0.1-0.4-0.2-0.6-0.2c-0.2,0-0.4-0.1-0.6-0.1c-0.2,0-0.5,0.1-0.7,0.2
			c-0.2,0.1-0.3,0.3-0.4,0.5c-0.1,0.2-0.2,0.4-0.2,0.6c0,0.2-0.1,0.4-0.1,0.6v0.6h2.3L89.5,275.4z M97.3,283c-0.5,0-1-0.1-1.4-0.3
			c-0.4-0.2-0.8-0.5-1.1-0.8c-0.3-0.3-0.6-0.7-0.7-1.2c-0.2-0.4-0.3-0.9-0.3-1.4c0-0.5,0.1-1,0.3-1.5c0.1-0.4,0.4-0.9,0.7-1.2
			c0.3-0.3,0.7-0.6,1.1-0.8c0.4-0.2,0.8-0.3,1.3-0.3c0.6,0,1.1,0.2,1.6,0.5c0.5,0.3,0.9,0.7,1.1,1.2v-4.5h1v9c0,0.3,0.1,0.4,0.3,0.4
			v0.8h-0.4c-0.2,0-0.4-0.1-0.6-0.2c-0.1-0.1-0.2-0.3-0.2-0.5v-0.8c-0.3,0.5-0.7,0.9-1.2,1.1C98.4,282.8,97.9,283,97.3,283z
			 M97.5,282.1c0.3,0,0.5,0,0.8-0.1c0.3-0.1,0.5-0.2,0.7-0.4l0.6-0.6c0.2-0.2,0.3-0.4,0.3-0.7V278c-0.1-0.3-0.2-0.5-0.4-0.7
			l-0.6-0.6c-0.2-0.2-0.4-0.3-0.7-0.4c-0.3-0.1-0.5-0.1-0.8-0.1c-0.4,0-0.8,0.1-1.1,0.3c-0.3,0.2-0.6,0.4-0.8,0.7
			c-0.2,0.3-0.4,0.6-0.5,0.9c-0.1,0.4-0.2,0.7-0.2,1.1c0,0.4,0.1,0.7,0.2,1.1c0.3,0.7,0.8,1.2,1.5,1.5
			C96.8,282,97.2,282.2,97.5,282.1z M107.7,282v0.9h-4.8V282h2v-6l-0.4,0.4c-0.2,0.1-0.4,0.3-0.6,0.4c-0.2,0.1-0.5,0.2-0.7,0.3
			c-0.2,0.1-0.4,0.1-0.6,0.1v-0.9c0.2,0,0.5-0.1,0.7-0.2c0.2-0.1,0.5-0.2,0.7-0.4c0.2-0.2,0.4-0.3,0.6-0.4c0.2-0.1,0.2-0.2,0.3-0.3
			h1v7.1h1.8V282z M112,283c-0.5,0-1-0.1-1.4-0.3c-0.4-0.2-0.8-0.5-1.1-0.8c-0.3-0.3-0.6-0.7-0.7-1.2c-0.2-0.4-0.3-0.9-0.3-1.4
			c0-0.5,0.1-1,0.3-1.5c0.1-0.4,0.4-0.9,0.7-1.2c0.3-0.3,0.6-0.6,1-0.8c0.4-0.2,0.8-0.3,1.3-0.3c0.6,0,1.1,0.2,1.6,0.5
			c0.5,0.3,0.9,0.7,1.1,1.2v-4.5h1v9c0,0.3,0.1,0.4,0.3,0.4v0.8h-0.4c-0.2,0-0.4-0.1-0.6-0.2c-0.1-0.1-0.2-0.3-0.2-0.5v-0.8
			c-0.3,0.5-0.7,0.9-1.2,1.1C113,282.8,112.5,283,112,283L112,283z M112.2,282.1c0.3,0,0.5,0,0.8-0.1c0.3-0.1,0.5-0.2,0.7-0.4
			l0.6-0.6c0.2-0.2,0.3-0.4,0.3-0.7V278c-0.1-0.3-0.2-0.5-0.4-0.7l-0.6-0.6c-0.2-0.2-0.4-0.3-0.7-0.4c-0.3-0.1-0.5-0.1-0.8-0.1
			c-0.4,0-0.8,0.1-1.1,0.3c-0.3,0.2-0.6,0.4-0.8,0.7c-0.2,0.3-0.4,0.6-0.5,0.9c-0.1,0.4-0.2,0.7-0.2,1.1c0,0.4,0.1,0.7,0.2,1.1
			c0.3,0.7,0.8,1.2,1.5,1.5C111.5,282,111.9,282.2,112.2,282.1z M122.4,282v0.9h-4.7V282h2v-6l-0.4,0.4c-0.2,0.1-0.4,0.3-0.6,0.4
			c-0.2,0.1-0.5,0.2-0.7,0.3c-0.2,0.1-0.4,0.1-0.6,0.1v-0.9c0.2,0,0.5-0.1,0.7-0.2c0.2-0.1,0.5-0.2,0.7-0.4c0.2-0.2,0.4-0.3,0.6-0.4
			c0.2-0.1,0.2-0.2,0.3-0.3h1v7.1h1.7V282z"/>
		<path class="st0" d="M1.6,53.5c-2.1,4.3-2.2,9.3-0.2,13.7c2.1,4.2,7,7.2,11.6,6.4c1.4-0.3,2.7-0.8,4-1.5c2.7-1.6,4.9-4,6.2-6.9
			c1.4-2.8,1.9-6,1.4-9.1c-0.9-5.5-5.2-11.1-10.7-12.6S3.5,49.3,1.6,53.5z"/>
		<path class="st1" d="M1.6,10.2c-2.1,4.3-2.2,9.3-0.2,13.7c2.1,4.2,7,7.2,11.6,6.4c1.4-0.3,2.7-0.8,4-1.5c2.7-1.6,4.9-4,6.2-6.9
			c1.4-2.8,1.9-6,1.4-9.1C23.7,7.4,19.4,1.7,13.9,0.2S3.5,6,1.6,10.2z"/>
		<path class="st2" d="M1.6,180.3c-2.1,4.3-2.2,9.3-0.2,13.7c2.1,4.2,7,7.2,11.6,6.4c1.4-0.3,2.7-0.8,4-1.5c2.7-1.6,4.9-4,6.2-6.9
			c1.4-2.8,1.9-6,1.4-9.1c-0.8-5.4-5.2-11.1-10.6-12.6S3.5,176.1,1.6,180.3z"/>
		<path class="st3" d="M13.7,195.5c-2.1,4.3-2.2,9.3-0.2,13.7c2.1,4.2,7,7.2,11.6,6.4c1.4-0.3,2.8-0.8,4-1.5c2.7-1.6,4.9-4,6.2-6.9
			c1.4-2.8,1.9-6,1.4-9.1c-0.9-5.4-5.2-11.1-10.7-12.6S15.7,191.3,13.7,195.5z"/>
		<path class="st4" d="M1.6,250.4c-2.1,4.3-2.2,9.3-0.2,13.7c2.1,4.2,7,7.2,11.6,6.4c1.4-0.3,2.7-0.8,4-1.5c2.7-1.6,4.9-4,6.2-6.9
			c1.4-2.8,1.9-6,1.4-9.1c-0.8-5.4-5.2-11.1-10.6-12.6S3.5,246.2,1.6,250.4z"/>
		<path class="st5" d="M13.7,265.6c-2.1,4.3-2.2,9.3-0.2,13.7c2.1,4.2,7,7.2,11.6,6.4c1.4-0.3,2.8-0.8,4-1.5c2.7-1.6,4.9-4,6.2-6.9
			c1.4-2.8,1.9-6,1.4-9.1c-0.9-5.4-5.2-11.1-10.7-12.6C20.7,254.1,15.7,261.4,13.7,265.6z"/>
		<path class="st6" d="M1.6,96.8c-2.1,4.3-2.2,9.3-0.2,13.7c2.1,4.2,7,7.2,11.6,6.4c1.4-0.3,2.7-0.8,4-1.5c2.7-1.6,4.9-4,6.2-6.9
			c1.3-2.8,1.8-6,1.4-9.1c-0.8-5.4-5.2-11.1-10.7-12.6S3.5,92.5,1.6,96.8z"/>
		<g>
			<defs>
				<rect id="SVGID_1_" x="159.9" y="61" width="66.4" height="146.5"/>
			</defs>
			<clipPath id="SVGID_2_">
				<use xlink:href="#SVGID_1_"  style="overflow:visible;"/>
			</clipPath>
			<g class="st7">
				<path class="st8" d="M201.3,71.5c0-5.8-6.1-10.5-13.7-10.5s-13.7,4.7-13.7,10.5c0,2.3,0.9,4.5,2.5,6.1c-0.6,1.3-1.4,2.5-2.4,3.6
					c-0.1,0.1-0.1,0.2-0.1,0.3v0.3c0,0.1,0.1,0.2,0.2,0.2c0.1,0.1,0.2,0.1,0.3,0.1c2,0,4-0.6,5.8-1.6c2.3,1.1,4.8,1.6,7.3,1.6
					C195.1,82,201.3,77.3,201.3,71.5z"/>
				<path class="st4" d="M185,80.3c0-5.8,6.1-10.5,13.7-10.5s13.7,4.7,13.7,10.5c0,2.3-0.9,4.4-2.5,6c0.6,1.3,1.4,2.5,2.4,3.6
					c0.1,0.1,0.1,0.2,0.1,0.3v0.3c0,0.1-0.1,0.2-0.2,0.2c-0.1,0.1-0.2,0.1-0.3,0.1c-2,0-4-0.6-5.8-1.6c-2.3,1.1-4.8,1.7-7.3,1.6
					C191.1,90.9,185,86.1,185,80.3z"/>
				<path class="st3" d="M201.5,188.5c0-5.8-6.1-10.5-13.6-10.5s-13.7,4.7-13.7,10.5c0.1,2.2,0.9,4.4,2.5,6
					c-0.6,1.3-1.4,2.5-2.4,3.6c-0.1,0.1-0.1,0.2-0.1,0.3v0.3c0,0.1,0.1,0.2,0.2,0.2c0.1,0.1,0.2,0.1,0.3,0.1c2,0,4-0.6,5.8-1.6
					c2.3,1.1,4.8,1.7,7.3,1.6C195.4,199,201.5,194.3,201.5,188.5z M209.5,203c1.6-1.6,2.5-3.8,2.5-6.1c0-4.4-3.5-8.2-8.5-9.7
					c0.1,0.4,0.1,0.9,0.1,1.3c0,7-7.1,12.6-15.8,12.6c-0.7,0-1.4,0-2.1-0.1c2.1,3.8,6.9,6.4,12.6,6.4c2.5,0,5-0.6,7.3-1.7
					c1.8,1,3.8,1.6,5.8,1.7c0.1,0,0.2,0,0.3-0.1c0.1-0.1,0.2-0.1,0.2-0.2s0.1-0.2,0-0.3s-0.1-0.2-0.1-0.3
					C210.9,205.5,210.1,204.3,209.5,203L209.5,203z"/>
				<path class="st8" d="M203,114.3c-9.2-4-20.2-4.7-29.3-0.4s-15.3,14-13.6,23.4c0.6,2.8,1.7,5.5,3.2,8
					c6.7,10.9,20.9,17.3,34.2,15.4c11.5-1.7,23.7-10.5,26.9-21.4C227.6,128.2,212,118.2,203,114.3z"/>
				<path class="st4" d="M207,110.9c-8.1-3.8-17.9-4.5-25.9-0.4s-13.5,13.3-12,22.3c0.5,2.7,1.4,5.3,2.8,7.6
					c3,5.2,7.5,9.3,12.9,11.9c5.4,2.6,11.4,3.6,17.3,2.8c10.2-1.6,21-9.9,23.8-20.4S215,114.7,207,110.9z"/>
				<path class="st9" d="M199.8,130.1c0-5.8-6.1-10.5-13.7-10.5s-13.7,4.7-13.7,10.5c0.1,2.2,0.9,4.4,2.5,6
					c-0.6,1.3-1.4,2.5-2.4,3.6c-0.1,0.1-0.1,0.2-0.1,0.3v0.3c0,0.1,0.1,0.2,0.2,0.2c0.1,0.1,0.2,0.1,0.3,0.1c2,0,4-0.6,5.8-1.6
					c2.3,1.1,4.8,1.7,7.3,1.6C193.7,140.6,199.8,135.9,199.8,130.1z M207.8,144.6c1.6-1.6,2.5-3.7,2.5-6c0-4.4-3.5-8.2-8.5-9.7
					c0.1,0.4,0.1,0.9,0.1,1.3c0,7-7.1,12.6-15.8,12.6c-0.7,0-1.4,0-2.1-0.1c2.1,3.8,6.9,6.4,12.6,6.4c2.5,0,5-0.6,7.3-1.6
					c1.7,1.1,3.8,1.6,5.8,1.6c0.1,0,0.2,0,0.3-0.1c0.1-0.1,0.2-0.1,0.2-0.2s0.1-0.2,0-0.3s-0.1-0.2-0.1-0.3
					C209.3,147.1,208.5,145.9,207.8,144.6L207.8,144.6z"/>
			</g>
		</g>
	</g>
</g>
</svg>
