<?xml version="1.0" encoding="utf-8"?>
<!-- Generator: Adobe Illustrator 23.0.6, SVG Export Plug-In . SVG Version: 6.00 Build 0)  -->
<svg version="1.1" xmlns="http://www.w3.org/2000/svg" xmlns:xlink="http://www.w3.org/1999/xlink" x="0px" y="0px"
	 viewBox="0 0 523 395.7" style="enable-background:new 0 0 523 395.7;" xml:space="preserve">
<style type="text/css">
	.st0{fill:#FFFFFF;}
	.st1{fill:none;stroke:#000000;stroke-width:0.3;stroke-miterlimit:10;}
	.st2{fill:none;stroke:#000000;stroke-width:0.2;stroke-miterlimit:10;}
	.st3{fill:none;stroke:#000000;stroke-width:0.2;stroke-linejoin:round;}
	.st4{fill:none;stroke:#000000;stroke-width:0.4;stroke-linejoin:round;}
	.st5{fill-rule:evenodd;clip-rule:evenodd;fill:#272525;}
</style>
<g id="Layer_1">
	<title>desktop</title>
	<g>
		<g id="Layer_2-2">
			<path class="st0" d="M513.2,0.2H9.8c-5.3,0-9.6,4.3-9.6,9.6v283c0,5.3,4.3,9.6,9.6,9.6l0,0h225.7v74.9l-72.1,1.9
				c-1.1,0-2.1,0.6-2.7,1.5l-5.1,8.1c-0.2,0.3-0.2,0.7,0.1,1l0,0c0,0,0.4,0.8,2.4,1l0,0c2,1.6,4.3,2.7,6.8,3.2v0.4
				c0,0.4,0.3,0.7,0.7,0.7l0,0h11c0.4,0,0.7-0.3,0.7-0.7l0,0l0,0c18.7,0.2,53.2,0.2,60.4,0.2H255v0.3c0,0.4,0.3,0.7,0.7,0.7l0,0
				h11.5c0.4,0,0.7-0.3,0.7-0.7l0,0v-0.3h17.4c7.3,0,41.7,0,60.4-0.2l0,0c0,0.4,0.3,0.7,0.7,0.7l0,0h11c0.4,0,0.7-0.3,0.7-0.7l0,0
				V394c2.5-0.5,4.8-1.6,6.8-3.2l0,0c2-0.2,2.4-1,2.4-1l0,0c0.3-0.3,0.3-0.7,0.1-1l-5.1-8.1c-0.6-0.9-1.6-1.5-2.7-1.5l-72.1-1.9
				v-74.9h225.6c5.3,0,9.6-4.3,9.6-9.6V9.8C522.8,4.4,518.6,0.2,513.2,0.2z M270.4,317.1c0,4.4-4,7.9-8.9,7.9s-8.9-3.5-8.9-7.9
				v-14.8h17.7L270.4,317.1L270.4,317.1z"/>
			<path class="st1" d="M9.8,0.2h503.5c5.3,0,9.6,4.3,9.6,9.6v283c0,5.3-4.3,9.6-9.6,9.6H9.8c-5.3,0-9.6-4.3-9.6-9.6V9.8
				C0.2,4.4,4.4,0.2,9.8,0.2z"/>
			<path class="st2" d="M15.4,13.9h492.3c1.3,0,2.4,1.1,2.4,2.4v269.8c0,1.3-1.1,2.4-2.4,2.4H15.4c-1.3,0-2.4-1.1-2.4-2.4V16.3
				C12.9,15,14,13.9,15.4,13.9z"/>
			<path class="st2" d="M513.9,234.4h6.2c0.5,0,0.9,0.4,0.9,0.9v0.2c0,0.5-0.4,0.9-0.9,0.9h-6.2c-0.5,0-0.9-0.4-0.9-0.9v-0.2
				C513,234.8,513.4,234.4,513.9,234.4z"/>
			<path class="st2" d="M513.9,246.2h6.2c0.5,0,0.9,0.4,0.9,0.9v0.2c0,0.5-0.4,0.9-0.9,0.9h-6.2c-0.5,0-0.9-0.4-0.9-0.9v-0.2
				C513,246.6,513.4,246.2,513.9,246.2z"/>
			<path class="st2" d="M513.9,258h6.2c0.5,0,0.9,0.4,0.9,0.9v0.3c0,0.5-0.4,0.9-0.9,0.9h-6.2c-0.5,0-0.9-0.4-0.9-0.9v-0.3
				C513,258.4,513.4,258,513.9,258z"/>
			<path class="st2" d="M513.9,269.9h6.2c0.5,0,0.9,0.4,0.9,0.9v0.3c0,0.5-0.4,0.9-0.9,0.9h-6.2c-0.5,0-0.9-0.4-0.9-0.9v-0.3
				C513,270.3,513.4,269.9,513.9,269.9z"/>
			<circle class="st2" cx="516" cy="293.5" r="3.9"/>
			<rect x="235.4" y="302.4" class="st2" width="52.2" height="76.8"/>
			<path class="st2" d="M252.6,302.4v14.8c0,4.4,4,7.9,8.9,7.9s8.9-3.5,8.9-7.9v-14.8H252.6z"/>
			<path class="st2" d="M235.4,377.2l-72.1,1.9c-1.1,0-2.1,0.6-2.7,1.5l-5.1,8.1c-0.2,0.4-0.1,0.9,0.2,1.1c0.1,0.1,0.3,0.1,0.5,0.1
				h210.6c0.5,0,0.8-0.4,0.8-0.8c0-0.2,0-0.3-0.1-0.5l-5.1-8.1c-0.6-0.9-1.6-1.5-2.7-1.5l-72.1-1.9"/>
			<path class="st2" d="M155.6,389.7c0,0,0.5,1,3.2,1s63.6,0.5,78.8,0.5h47.8c15.1,0,76.1-0.5,78.8-0.5s3.2-1,3.2-1"/>
			<path class="st3" d="M158,390.7c2,1.6,4.3,2.7,6.8,3.2v0.4c0,0.4,0.3,0.7,0.7,0.7l0,0h11c0.4,0,0.7-0.3,0.7-0.7l0,0l0,0
				c18.7,0.2,53.2,0.2,60.4,0.2H255v0.3c0,0.4,0.3,0.7,0.7,0.7l0,0h11.5c0.4,0,0.7-0.3,0.7-0.7l0,0v-0.3h17.4c7.3,0,41.7,0,60.4-0.2
				l0,0c0,0.4,0.3,0.7,0.7,0.7l0,0h11c0.4,0,0.7-0.3,0.7-0.7l0,0v-0.4c2.5-0.5,4.8-1.6,6.8-3.2"/>
		</g>
	</g>
	<path class="st4" d="M513.2,0.1L513.2,0.1H9.7c-5.3,0-9.6,4.3-9.6,9.6v283c0,5.3,4.3,9.6,9.6,9.6h225.7v74.9l-72.1,1.9
		c-0.5,0-1.1,0.2-1.5,0.4c-0.5,0.3-0.9,0.6-1.2,1.1l-5.1,8.1c-0.1,0.1-0.1,0.2-0.1,0.3v0.1v0.1c0,0.1,0,0.1,0,0.2v0.1
		c0,0.1,0.1,0.1,0.1,0.2l0,0l0,0l0,0c0,0,0.4,0.8,2.4,1l0,0c2,1.6,4.3,2.7,6.8,3.2v0.4c0,0.4,0.3,0.7,0.7,0.7h11
		c0.2,0,0.4-0.1,0.5-0.2s0.2-0.3,0.2-0.5c18.7,0.2,53.1,0.2,60.4,0.2H255v0.3l0,0c0,0.4,0.3,0.7,0.7,0.7h11.5c0.4,0,0.7-0.3,0.7-0.7
		l0,0l0,0v-0.3h17.4c7.3,0,41.7,0,60.4-0.2c0,0.4,0.3,0.7,0.7,0.7l0,0h11c0.4,0,0.7-0.3,0.7-0.7l0,0l0,0v-0.4
		c2.5-0.5,4.8-1.6,6.8-3.2l0,0l0,0c1-0.1,1.6-0.3,2-0.6l0,0c0.1,0,0.1-0.1,0.2-0.1l0.1-0.1l0,0c0.1-0.1,0.1-0.2,0.1-0.2
		c0.1-0.2,0.2-0.3,0.2-0.5l0,0l0,0c0-0.2,0-0.3-0.1-0.4l-5.1-8.1c-0.6-0.9-1.6-1.5-2.7-1.5l-72.1-1.9v-74.9h225.6l0,0
		c5.3,0,9.6-4.3,9.6-9.6V9.7C522.8,4.4,518.6,0.1,513.2,0.1z"/>
	<g>
		<g>
			<g>
				<path class="st5" d="M441.6,194.3c1,1-0.2,3.5-0.3,4.8C440.6,197.6,441.6,195.9,441.6,194.3z"/>
				<path class="st5" d="M270.7,200.3c-0.7-0.1-0.4-1.5,0.4-1.2C271.2,199.7,270.8,199.9,270.7,200.3z"/>
				<path class="st5" d="M362.5,192.3c-0.5-0.5,0.1-1.6,0.2-2.2C363,190.4,362.5,191.7,362.5,192.3z"/>
				<path class="st5" d="M294.8,188.5c-0.8-0.3-0.3-2.1,0.4-2.2C295.6,187,294.9,187.7,294.8,188.5z"/>
				<path class="st5" d="M293.9,187.8c-0.6,0.4-0.7-1.6,0-1.2L293.9,187.8z"/>
				<path class="st5" d="M370,184.7c-0.8-0.5-0.1-1.6-0.1-2.4C370.2,183,370,183.6,370,184.7z"/>
				<path class="st5" d="M312.5,183.4c-1.1-0.2-0.4-1.7-0.2-2.4C312.7,181.3,312.3,182.7,312.5,183.4z"/>
				<path class="st5" d="M331.9,182.3c-1,0-0.4-2.2-0.3-3.1C332.4,180,331.7,181,331.9,182.3z"/>
				<path class="st5" d="M274.8,182.5c-0.2-0.1-0.4-0.2-0.4-0.5C274.5,179.2,275.2,180.9,274.8,182.5z"/>
				<path class="st5" d="M441.9,175.6c-0.6-0.5-0.6-2.1-0.3-2.9C442.1,173.2,441.7,174.7,441.9,175.6z"/>
				<path class="st5" d="M327,177.9c-1-4.6,0.4-10.6,0.6-15.4C328.4,167,327.2,173.5,327,177.9z"/>
				<path class="st5" d="M308.7,168.8c-0.4-1-0.4-3.4,0.1-4.1C309.4,165.8,308.7,167.5,308.7,168.8z"/>
				<path class="st5" d="M275.9,168.3c-0.6,0-0.4-2.2,0.2-2.4C275.9,167,276,167.7,275.9,168.3z"/>
				<path class="st5" d="M359.6,165.5c-0.3-0.2-0.6-2.5,0.2-2.4C359.5,164.2,359.9,164.6,359.6,165.5z"/>
				<path class="st5" d="M292.3,162.6c-0.6,0-0.5-1.3-0.2-1.7C292.6,161,292.2,162.1,292.3,162.6z"/>
				<path class="st5" d="M273.3,142.9c-0.3,0.2-0.4-1.6-0.2-2.2C273.6,141,273.2,142.3,273.3,142.9z"/>
				<path class="st5" d="M295.3,139.3c-0.3,0-0.5-1.8,0.2-1.4C295.5,138.4,295.5,139,295.3,139.3z"/>
				<path class="st5" d="M273.5,139.3c-1.1-1.6-0.7-5.6,0.1-6.7c-1-0.2-0.3-1.4-0.6-2.4c-1.2,0,0.1,3-1.2,2.9c0-2-0.3-7.2,2.4-4.8
					C274,131,274.1,135.4,273.5,139.3z"/>
				<path class="st5" d="M440.2,134.4c-0.5-0.1-0.1-1.2-0.3-1.7C440.3,133,440.6,133.9,440.2,134.4z"/>
				<path class="st5" d="M249.3,131.2c-1.8,0.6-1.5,9.9-1.7,14.9c-0.1,2.9,0.7,7.5,0.3,10.3c-1.2,0.8-0.9,3.5-1.2,4.8
					c-0.3,1.4-1.2,2.5-1.4,3.6c0,0.2,0,3,0,2.2c0.7-2.2,1.5-4.1,2.2-6.3c0.2,2-0.3,5.7-0.3,7.4c-0.3,0-0.1-0.7-0.4-0.7
					c-0.5,1,0.7,1.7,0.4,3.1c-1.1,1.9-2,3.9-3.7,5.1c-1.2-12.7,0.7-26.2-1.2-39.1l-1.4,0c-1.5,12.7,0.3,27.7-1.7,40.1
					c-0.1-0.3,0.2-1.2-0.2-1.2c-0.1,1.4,0.2,2.1,0.2,3.4c-2.1-1.7-2.3-6.3-2.6-9.6c-0.1-1.4-0.1-3.2,0-4.8
					c0.1-7.4-0.4-16.3,1.9-21.6c-0.4-0.7,0.1-1.2-0.2-1.7c-1.2,1.8-1,5.2-2,7.2c-0.2-0.7-1.2-0.4-1.2-1.2c-0.2-7.4-3.4-12.1-8.7-8.1
					c0-1.3-0.2-2.4-0.4-3.4c-0.5-0.1-0.9-0.3-1.6-0.2c-0.9,4.5-0.9,10-4.4,11.3c-0.2-3.5,0.3-7.8-0.5-10.6c-0.4-0.4-1.4-0.2-2.1-0.2
					c-1.4,5.3-1,10.7-1.3,15.4c-0.6,1.2-1,2.6-2.5,2.9c-0.4-6.2,0.5-14.4-0.3-20.9c-0.2-1.7,0.1-3.8-1.1-4.8c-2.2,1.6,0,7.1-1.8,9.4
					c0.7,4.2-0.4,10.2-0.7,14.9c-0.2,2.2,0.6,4.8-0.8,6c-1.6-6.7,1.3-18.8-3.4-21.8c-1.8,1.3-0.5,5.3-1.8,7.9
					c-0.2,0.7,0.7,0.3,0.4,1.2c-1.1,4.7-0.6,11.8-1.2,17.5c-0.6,0.7-1.4,1.1-2.5,1.2c-0.3-10.4,0.5-21.9-0.6-33.4
					c-0.5-0.1-0.9-0.3-1.6-0.2c-1.3,1.5-0.8,5.1-1.2,7.7c-1-1.1-0.3-4.2-0.8-5.8c-2.2-0.1-1.3,2.6-1.4,4.1c-0.4,5.2-1.4,12.3-1.8,17
					c-0.6-9.5,0.2-18.4-0.5-27.8c-3.5,0.2-1.5,6.9-2.4,10.1c-0.6,0-1.2-0.6-1.6,0c0.3,5.2-0.5,12.3-1.2,17.3
					c-1.6-6.2-0.1-18.5-1.7-24.7c-1.8,0.3-2.2,1.2-3.5,0.7c-0.5-0.3-0.2-1.6-1-1.4c-1,0-0.9,1.2-1.2,1.9c-0.4-1.8,0.2-4.5-0.4-7
					c-2.5-0.3-2,2.8-2,5.3c-0.9,0.1-0.7-0.7-1.4-0.2c-0.6,2.2-0.4,5.3-1.2,7.2c-0.7,0.2-1-0.5-1.4,0c-0.2,1.6-0.6,3-0.8,4.6
					c-0.1-1.4-1.5-1.3-2.3-1.9c-0.2-1.5,0.5-2.6,0-3.8c-0.6,0-0.9-0.4-1.5-0.5c-1.7,3.4-0.2,8.9-1.8,12.5c0.4-7.7-1.1-12.8-1.8-19.4
					c-1.4-1-2.1,0.4-3.3,0.3c-1.2,2.8-1,6.8-1.6,10.8c-0.6,0.2-1.1,0.5-1.7,0.7c-0.3-4.9,0.2-10.8-2.4-13.7
					c-1.8,0.8-1.6,3.7-2.5,5.5c-0.6,0.3-0.7-0.2-1.2,0.2c0.6,3.9-1.4,7.3-1.8,10.1c-0.7,4.8,0.6,10.4-1.5,14.7
					c0-4.5-0.3-10-0.3-14.6c0-1.9,0.6-4.9-1.5-5c-1.6,4.2,0.1,10.7-1.5,16.1c-0.7-6.1,0.1-11.3-1-17c-0.2-0.7-1-0.6-1.3-1.2
					c0.1-0.6,0.3-0.9,0.2-1.7c-0.5-0.3-0.9-0.6-1.7-0.5c-2.2,1.7-0.4,7.9-1.6,10.8c0.3-4.9-2.3-7.3-1.4-11.5c-1.7-1-2.3,0-4.2-0.2
					c-0.9,1.3-0.6,4.1-1,6c-0.5-1-1.7-1.1-2.7-1.4c0.3-1.4-0.1-3.3-1.9-2.9c-1.6,6.7,0.4,12.8-1.4,18.5c-0.6-0.2-0.5,0.3-1,0.3
					c-0.3-5.3-0.4-11.8-0.9-16.1c-0.4-3.2,0-6.9-1.6-8.6c-0.3,0.1-0.4,0.3-0.8,0.3c-0.5,6.1-1.2,12-2.2,17.6l-0.1-7.2
					c-1.1-0.6-1.1-2.6-1.5-4.1c-0.8,0.2-0.7,0-1.7,0c-1.2,7.5,0.1,14.4-0.2,21.4c-1.6-1-1.6-2.6-1.5-5c0.1-7,0.5-13.4-0.3-19
					c-0.9-0.4-1.1-0.5-2.1-0.2c-0.1,3.8-0.9,8.2,0.2,10.8c-1.3,2.5-0.5,7.3-2.3,9.2c0.3-9.6,1.1-19,0.5-28.8
					c-0.5,0.1-0.5-0.4-1.1-0.2c-1.5,1.2-0.7,3.3-0.7,5.1c-0.3,7.5-0.7,16.5-0.3,23.5c-0.8,0.1-0.8,0.3-1.5,0
					c0.1-5.9,0.7-11.1,0.7-16.6c-0.4-0.9-1,0.1-1.3-0.2c-1.3-2.1,0.3-4.5-0.6-6.5c-1-0.2-1.2,0.4-1.9,0.5c-0.3,2-0.1,4.6-0.1,7
					c-2.4,1.2-2,5.5-3.1,8c-0.9-3.5-0.2-6.7-1.5-9.1c-0.6,0.2-0.6,0.2-1.3,0c-2.3,3.1-0.3,8.4-1.8,11.1c-0.9-2.2,1.3-4.5-0.4-6.2
					l-1.5,0c-0.4,0.8-0.1,2.3-0.5,3.1c-0.8-0.1-1.2-0.6-1.9-0.7c-0.6,0.3-0.2,1.5-1,1.5c0.3-1.7,0.6-4.6,0-6.5
					c-0.6-0.5-1.1,0.2-1.7-0.2c-1,0.7-0.2,3.3-0.7,4.6c-0.9,0.1-1.1-0.6-2.1-0.4c-0.9,1,0,4-0.9,5.1c-0.4-0.6-0.2-1.9-0.3-2.9
					c-3.5-2.4-5.1,2.3-5.5,4.7c-0.7-1.5-1.3-2.3-3-2c-0.3,3.2-2.6,2.7-3.1,5.6c-0.7-0.6-1.3-0.6-2.3-0.4c-0.8,2-1,4.9-1.4,6.8
					c-1.1-3,1.2-8-1.3-10c-3.3,0.4,0.4,7.1-2.3,8.3c-0.4-2.3-1.1-4-2.3-5.2c0-1.7,0.2-3-0.4-4.3c-0.5-0.3-1.2-0.2-1.5-0.7
					c-1.5,2.4,0.3,5.8-0.8,8.4c-0.3-1.3-0.8-2.3-1.5-3c-0.7-0.8-1.5-1.3-2.4-1.6c-1.1,1.8-0.1,5.3-0.7,7.2c-0.3-1-1.5-0.8-1.7-1.4
					c1.6-2.1-0.9-5.5-3.4-4c-1.1,0.8-0.4,3.4-2,3.7c-0.8-0.5-0.2-2.7-1.2-3.1c-0.6-0.3-1.3-0.2-1.9,0.1c-0.3,1.4-0.3,3.1-0.5,4.6
					c-2.5,1.9-6.6,0.9-9.9,2.4c-0.7-0.4-1.3-2.1-2.2-1.4c-1.5,0.3-0.2,3-1.6,3.3c-0.9-0.1-0.5-2-1-2.5c-0.8,0-1.1-0.5-2.1-0.2
					c-0.7,0.8,0.2,2.8-0.5,3.5c-1.3-0.9-0.6-3.1-1.3-4.6c-0.8-0.4-1.4-0.9-2.8-0.4c-0.7,1.8,0.5,4.7-0.5,6.3
					c-1.2-0.1-1.7-1.6-3.5-0.5c-0.4,1.4,0.1,2.9-1.1,4.1c-0.8,0.9-2.1,1-2.8,1.9c-0.9,1.2-1.5,2.7-1.7,4.5c-0.2,1.7,0,3.4,0.6,4.7
					c0.1-2.2,0.7-4.4,1.9-6.2c0.3-0.4,0.6-0.9,1-1.3c0.4-0.4,0.8-0.7,1.2-1.1c0.4-0.3,0.9-0.6,1.4-0.9c0.5-0.2,1-0.4,1.5-0.6
					c0.3,1.3,0.7,2.5,1.5,2.8c1.5-0.2,1.8-1.2,2-2.3c0.2-1.1,0.2-2.4,1.2-3c0.6,2.4,1.3,4.6,2.5,5.9c0.9,0,1-0.8,1.9-0.8
					c0.2,1.2,1,1.1,1.8,1.2c0.9-0.3,0.6-1.7,1.3-2.1c0.2,0.7,0.4,1.5,0.7,2.1c0.5,0.4,1.6,0,1.9,0.7c0,2,0.7,3,1.9,3.2
					c1-0.5,0.8-2.3,1.5-3.3c0.8,0.2,1.3,0.2,1.8-0.4c0.5-0.5,0-2,0.7-2.2c0.7,0.3,0.4,1.9,1.3,1.9c2-0.3,1.6-3.2,2.6-4.7
					c0.5,1.3,1.8,0.2,2.5,1.1c-0.2,3.1-1,6.1-0.1,9.1l1.8-0.1c0.9-2,1.1-4.8,2-6.8c0.9,3-0.7,7.9,0.9,10.3c2.4,0.3,1.8-4.9,3.1-6.6
					c0.1,1.5,0.3,2.8,0.8,3.8c1.7-0.1,2.9-0.7,3.8-0.4c1.7-1.3,1-5,2.6-6.4c0.3,2.5-0.2,4.4,0.5,6.2c0.8,0.1,1-0.3,1.6-0.3
					c0.4,0.6,0.2,2,1.1,1.9c3.2-0.3,1.2-6.2,4-6.9c0.3,1.7-0.6,3.4-0.4,6.3c0.9,0.8,1.1,1.3,2.7,1.3c0.8-0.2,0.5-1.6,1.1-2
					c0.1,0.8,0.4,1.3,0.5,2.1c1.3-0.5,1.9-0.5,3.2-0.6c0.7-0.6,0.6-2,1.6-2.2c1.3,0.9,0.3,3.4,0.8,5c1.3,0.2,1.6-1.6,2.4-1.3
					c0,0.7,0,1.4,0.1,2.2c0.4,0.7,0.9,0,1.2,0.4c0.2,1.9-0.3,3.1-0.2,4.8c2,0.8,0.5,6.2,1.7,8.1c3.4,0.3,1.8-5,4.3-5.7
					c1,0.4,1.2,1.8,2.1,1.9c0.2,1.8-0.4,3.1-0.1,4.8c0.5,0.2,1,0.4,1.6,0.4c1-0.8,0.1-3.8,1.5-4.1c-0.2,2.2-0.6,4.5-0.2,6.7
					c0.7,0.4,1-0.3,1.4,0.4c-0.1,0.8,0.1,1.3,0.3,1.9c0.6-0.1,0.9,0.4,1.6,0.2c0.9-1.3,0.4-4.2,1.5-5.3c0.3,0.4,1.5,0.3,1.8,0
					c0.4-1.2,0.1-3.1,0.9-3.9c0,2-0.1,2.7,0.1,4.6c0.8,0.2,1.4,0.2,2-0.3c0.5-3.3,0.8-6.9,2.2-9.2c0.8,3.4-0.6,6,0,9.6
					c0.6-0.3,0.7,0.1,1.6,0c1.6-6.4,2.8-14.9,3.2-22.6c0.1-1.4-0.5-3.6,0.7-4.6c0,9.3-0.9,19,0.1,28.3c3.5-0.3,1.1-8.5,3.9-8.7
					c0.9,3.3-0.9,7.3,0.2,10.1c0.6,0,1.3,0.1,1.6-0.3c0.4-5.2,1-10.1,2.6-14c-0.5,4-0.4,9.4-1,13.9c0.6,0.3,1.2,0.6,1.8,0.2
					c0.3-1.6,0.3-3.6,0.5-5.3c0.7,0.3,1.1-1,1.4-0.3c0.2,1.7-0.7,4.5-0.7,7.2c3.6,0.6,1.7-6.4,2.9-9.6c3.7,3.7,4.2-2.3,5.2-6.8
					c0.2-1,1-2.7,1.2-3.6c0.4-2.7,0.1-6,0.9-7.5c1.5,4.6,0.5,13.1,2,18c0.5-0.2,1-0.2,1.4-0.5c0.4-2.2,0.6-4.5,1.2-6.5
					c0.7,2.3,0.5,5.7,1.3,7.9c4.2,1.5,3.1-6.9,5-9.6c0.3,3.3-0.5,5.8,0.1,8.2c1.3-0.6,1.3,0.4,2.3,0.7c0.3,0,0.3-0.3,0.6-0.2
					c1.2-3.8,1.4-9.1,1.7-14.2c0.3-3.9-0.4-8,0.9-11c0.1,7.4,1.3,15.3,1,23.5c-0.1,3.5-1.7,7.3-0.1,9.1c2.3-1,2.1-5.8,2.4-9.1
					c0.1-1.3,0.3-2.7,0.8-3.6c0.1,0.6,0.5,0.9,0.8,1.2c0,5.3-1.8,9.3-1.3,14.4c0.7,0.1,1.1-0.1,1.6-0.3c1-3.6,0.6-8.8,1.6-12.5
					c0.8,0.3,0.6-0.6,1.2-0.5c0.1,0.9,0.4,2.1,0.4,3.1c1.6,0.2,1.8-1.3,2-2.7c1.1,0,1.3-0.8,1.8-1.4c0.1-0.9-0.4-2.7,0.6-2.6
					c0.4,4.4-1.7,9.7,0.1,12.7c1.4-1.1,2.2-3.7,2.8-5.8c0.5-1.6,0.5-3.3,1-4.8c0.6-0.2,1.3-0.3,1.6-0.7c0.7-1.5-0.1-4.7,1.4-5.3
					c0.3,3.1-2.1,7.4-0.6,10.6c3-0.4,1.4-6.1,2.4-8.9c0.3-0.5,1.3,0,1.6-0.5c1.8-8,1.1-18.4,1.7-26.9c0.1-1.3,0.3-2.8,1-3.8
					c0.1,5.1,0,10.2,0.3,14.9c-0.9,8-0.2,16.3-1.1,25.2c0.5,0.5,0.2,2,0.8,2.4c0.4-0.3,0.8-0.1,1.4-0.5c2.4-13.1,3.4-25.8,4.2-38.2
					c0.2-2.6-0.1-5.4,0.8-7.9c0.9,4,0,9.3,0.5,12.7c-0.1,1-0.7-0.3-0.6,0.7c0.8,6.7-0.5,11.2,0.1,17.8c-0.6,1.1-1,1.9-0.4,3.4
					c2.6,0,1.9-3.7,2.9-5.5c0,1.2,0.8,1.6,1.5,2.2c-0.9,0.8-0.8,4,0.2,4.8c1.2-0.8,1.8-2.3,2.3-4.1c0.5-2.2,0.3-5.7,1.4-7.2
					c0.3,4.1,0.7,8.2,1.5,11.8c1.4,0.3,1.7-0.6,2.7-0.7c1.3-3.2,0.8-7.2,1-10.3c0.1-1.9,0.4-5,1.4-5.5c-0.2,5.4,0.4,10.1-0.1,16.8
					c2,1.3-0.6,6.1,1.5,7.9c1.8-0.6,1.9-3.8,2.2-6c1.2-6.6,1.4-14.8,1.8-21.4c0.4-0.7,0.7-1.5,1.6-1.7c1,5.4-1.1,9.3,0.3,15.1
					c-0.2-0.1-0.8-0.6-0.6,0.2c0.8,3.1-1.2,8.2,0.5,10.1c1.1-0.6,1.4-2.1,1.6-3.6c1.2-0.4,0,2,1,1.9c2.1,0,0.7-3.9,2.2-4.6
					c0.7,1.4-1.1,3.6-0.2,6c0.7,0.1,0.7-0.4,1.4-0.2c0.9-1.1,0.7-3.5,1.8-4.3c1.3-7.3,2.3-17.3,2.7-25.7c0.2-3.5-0.3-6.4,1.4-6.7
					c0.4,11-0.6,22.8,0,34.1c0.1,0.8-1,0.1-0.8,1c0.4,1,1.2,1.5,2.5,1.4c2.8-6.5,3.4-14.2,5.2-21.6c-0.3,1.3,0.1,1.4,0.4,2.4
					c-0.5,0.5-0.5,0.7-0.6,1.4c-0.7,4.1,0,8.9-0.1,13.4c0,3.4-0.3,6.7,0.1,10.3c2.9-1.1,1.5-7.2,2.8-10.1c0.6-9.8,1.3-22.9,2.2-32.7
					c0.7,3.6,0,7.4,0.1,11c0.2,6.7,1.1,13.9-0.5,19c-0.5,0.3-0.8-1.1-0.8,0c0,0.6-0.3,0.7-0.4,1.2c0.6,0.8,1.5-1,1.9-0.5
					c0.4,4-0.6,8.9,0.5,12.2l1,0c2.6-8.1,1.7-20.6,2.9-29.1c0.4,5.6,1.7,12,0.8,17.3c1,6.6-1.3,16,0.2,22.8c1.8-1.8,2.2-5.3,2.6-8.2
					c0.8-5.2,1.2-11,1.7-16.3c0.7-0.5,1.4-0.9,2.5-1c-0.5,4.2,0.1,8.8,0.1,13.2c0,4.4-1.1,8.6,0.5,11.3c1.7-1.3,1.9-4.5,2.2-6.7
					c1.1-7.6,1.9-16.5,2.4-24.7c1.5-1.5,1.9-4.3,3.7-5.6c0.4,5-0.6,13.1,1.4,15.3c0.9-0.9,1.3-2.5,0.6-3.8c0.2-0.4,0.6-0.6,0.6-1.2
					c-0.2-3.2,0.6-8,0.7-12.2c0.1-3-0.6-6.2,1.2-7c-1.2,3.7,0.2,8-0.1,12.7c-0.2,2.9,0.1,8.8-0.3,12.7c-0.2,1.8-0.6,3.1,0.7,4.3
					c1.6-1.2,1.7-4.2,2-6.7c0.3-2.7-0.1-5.7,0.7-7.9c-0.7-1.2,0-2.8,0.2-4.1c0.4-4.3-0.6-10,0.7-13.7c0,4.1,0.3,7.7,0.1,11.8
					c-0.5,8.8-1.3,18.2-1.1,27.4c0.5,0,0.6-0.4,1.2-0.3c0.2-2.3,0.8-4.5,0.8-6.7c0-0.1-0.4-0.7-0.4-1c0-0.3,0.6-1,0.6-1.2
					c0.3-2.1,0-4.9,0.3-7.4c1.1-7.1-0.3-16.9,2.6-23.6c0.2,4.4,0.2,10.1,0.2,13.7c-0.1,5.9,0,13.1-0.6,18c-0.2,2-1.4,3.9,0.1,5
					c1.6-0.8,1-3.6,1.4-5.3c0.2-0.7,0.7-1.3,0.8-1.9c0.6-4,0.3-7.2,0.7-10.8c0.6-5.1,1-10.4,1.5-15.4c0.4-4.2,0.7-8.6,1.3-12.5
					c0.2-1.5,0-3.6,1.2-4.8c1.4,3.1-0.2,7.6,0.7,10.6c-0.2,0.4-0.7,0.5-0.6,1.2c-0.5,14-0.4,26.4-2.4,38.7c1.7,1.3-1.6,5.4,0.7,6.7
					c0.9,0.3,0.4-1,0.8-1.2c0.6,0,1.2,2,1.3,0.9c0.8-2.6-0.2-5.7,0.3-8.9c0.5-3.2,0.8-7.5,1.5-10.3c0.2-0.8,0.7-1.2,0.8-1.9
					c0.4-3.6-0.9-7.6,0.5-11c0.7,3.5,1,7.5,2.2,10.5c-0.7,0.2-0.6-0.4-1,0c0.1,1.3-0.5,3.2-0.2,4.1c0.7-0.9,0-3.3,1.2-3.6
					c0.1,4.6,0.4,10.2-1.9,13.2c0,1,0.6,1.2,0.4,2.4c-0.9-0.5-0.5,1.2-1.6,0.7c1.3,1.4,0.2,4.2,0.3,5.5c1.7-0.1,0-4.9,1.8-4.1
					c0-2.7-0.1-5.8,1.8-7.2c0.5,0.2,0.7,1,0.6,1.9c1.2-0.3,1.2-1.8,1.4-3.1c0.6,1.5-0.1,4.7,0.5,6.2c0.4-11.9-0.5-28.3,4.7-37.3
					c-0.7,6.6-0.3,13.7-1.6,19c1,1.8-1.3,7,0.7,8.9c2.1-1.4,0.1-4.9,1.4-6.7c-0.8-0.8-1-4.2-0.3-5.3c1.1,7.2,0.2,15.9,0.3,21.8
					c0.5,0.3,1,0.6,1.9,0.5c0.6-1.2,1.1-3.3,0.6-5c2.2-1.9,2.4-7.4,2.7-10.6c-1,0.9-1.2,2.8-1.8,4.1c0.3-7.3,1.1-16.7,1.9-24.7
					c0.9,8.6-0.3,17.8,0.6,25.2c2.2,1,0.2,4.9,0.7,7.4c2.1-0.1,1.5-3.2,2.4-4.6c0.8,0.2,0,2.3,1.3,1.9c1.1-2.8,0.3-6.1,0.3-9.4
					c-0.1-5.8,0.6-12,0.2-17.5c-0.1-1.1-0.6-2.1-0.7-3.1c-0.5-5.7,1.4-12.2-1.7-16.3c-0.6-0.1-1.6,0.3-1.7-0.5
					c0.8-6,0.5-13.3,1.8-18.7c0.4,2.4-0.5,5.6,0.3,7c0.8-2.3,0-6.5,1.5-7.9c0.5,3.2-0.5,9.5,0.6,13.2c0.4-4.7,0.5-10.7,0.2-14.9
					c-1-0.2-1.2,0.6-2,0.5c-0.6-1.8,0.1-3.6-0.3-5.8c-0.7-0.6-0.8,1-1.4,1.2c0.6,3.1,0.2,6.5-0.1,9.8c-0.3,3.4-0.8,8.1-1.1,11.3
					c-0.2,2.4,0.2,5.7-0.9,7.5c-0.8-1.3-0.6-3.8-0.5-6.2c0.3-6,1.7-12.5,0.6-17.3c-1.2-0.4-1.8,0.2-2.7,0.8c0.8,2.5-0.9,5,0.3,7.2
					c0.6-1.7-0.1-5,1.3-6.3c0.4,0.2,0.4,0.8,0.6,1.2c-0.2,5.6-0.8,12.3-1,18.7c-1,1.1-2.2,1.9-2.6,3.6c-0.2-9.5,0.4-18.7,1.3-26.9
					c-0.5,0.3-1.2,0.2-1.6,0.5c-0.5,2.3,0.1,5.8-0.9,8.4c1,1.7,0.1,3.5,0.1,5.5c0,1.3,0.3,2.6,0.3,3.8c-0.2,3.4-1.6,6.7-1.1,10.1
					c0.7,4.4-1.3,9.4-2.9,12.5c0.5-5.8,0.5-14,1.6-19.9c0.4,0.2,0,1.3,0.4,1.4c0-1.7,1.1-3.5,0.1-5c0,0.8,0.1,1.7-0.4,1.9
					c0.6-5.1-0.4-11.5,0.2-16.1c-0.7,0.3-0.2-0.8-0.8-0.5c-1.4,1.4-0.3,4.6-0.9,6.5c0.9,0.2,0.3-1.4,0.8-1.7c0.3,1,0.1,5.4-1.2,3.9
					c0.1,1.8-0.2,3.1-0.4,4.6c0,0.4,1-0.5,1,0.5c-0.4,1.5,0.2,4-0.8,5.1c-0.5-2.4,1.2-3.9-0.3-5c-0.1,0.7,0.3,2.1-0.2,2.4
					c-0.4-0.9-0.6-2.4-0.7-3.8c-0.1-2.5,0.9-5.6-0.3-7c-1.5,0.4-0.8,2.4-1,4.3c-0.1,1.4-0.7,2.9-0.8,3.9c-0.1,2.9,0.8,5.9-0.1,8.4
					c-0.7-0.3-1.8-0.3-2.5,0c-1,3.4-1.4,7.4-1.7,11.5c-0.7-1.7-0.1-5.9-0.1-8.4c0.1-0.7-1,0.2-0.8-0.5c0.1-3.3,0.2-5.9-0.3-9.1
					c-1.4-0.1-2,0.7-2.9,1.7c-5.3-1.8-6.2,6.3-9.8,7.3c-0.7,3.1-1.1,6.5-3,8.2c0.3-3.8,0.1-8.7,0.1-13.7c-0.6,0.2-0.6-0.4-1.2-0.2
					c-1.8,1.4,1.1,5.4-0.8,6.7c0.6,1.1,0.6,1.3,0,1.9c0.2,0.3,0.5-0.1,0.6,0.7c-0.4,5.2,0.1,10.6-2.7,13.2
					c-0.5-5.2-0.3-9.9-0.8-15.1c0-0.7,1-0.3,0.8-1.2c0-0.7-1-0.3-0.8-1.2c-0.1-4,0.1-8.3-0.7-12C250.5,131.5,249.8,131,249.3,131.2z
					 M275.8,143.6c1.3,1.1-0.3,4.4,1.1,5.5c-1.1,3-0.1,8.7-1.1,13.2c-0.2,0.8,0.3,0.6,0.4,1c-0.4,2.7,0.4,5.7-0.3,8.4
					c-0.9-0.3-0.3-2.3-1.3-2.4c0.6-3.3-1.1-6.2-0.9-9.6c0.1-1.5,0.7-3.2,0.8-4.8C274.7,151.2,274.3,146.4,275.8,143.6z M237.4,196.6
					c-1.3-0.7-0.7-2.9-0.7-5c0.1-4.5-0.1-10.1,0.1-13.7c1.1,0.4,1.5,2.3,2.5,2.1c0.2,1-0.2,1.4-0.6,1.7
					C239.1,185.9,236.9,191,237.4,196.6z M244,195.8c-0.2,0-0.4,0-0.4-0.2c0.3-3.8-0.3-7.4-0.3-12c0-1.9-0.2-4.6,0.2-5.3
					c0.8-1.4,2.1-3.5,3.5-4.4c-0.2,2.3-0.2,5-1.2,6.5c0,0.6,0.4,0.8,0.6,1.2C245,185.7,244.9,191.3,244,195.8z M270,194.8
					c-1-0.4,0.2-0.8,0-1.7C270.5,193.6,270.4,194.2,270,194.8z M166.5,192.4c-0.6-0.2-0.6-1.7,0.2-1.7
					C166.9,191.6,166.4,191.7,166.5,192.4z M270,191.4c-1.1-3,0-6.7,0.3-10.6c0.1-1.9-0.2-4-0.1-5.8c0.1-0.7,0.5-1.3,0.6-1.9
					c0.3-4.2,0.1-8.6,0.5-12.7C272.8,170.8,270.3,182.6,270,191.4z M126.4,191.6l-0.6,0c-0.2-0.9,0.5-0.7,0.4-1.4
					C126.6,190.2,126.2,191.2,126.4,191.6z M141.6,185.9c1.3,0.2,1.9-1.1,2-2.9c1.6,1.9,0.3,6.6-0.9,8.2
					C141.5,190.4,141.9,187.8,141.6,185.9z M125.3,191.1l-0.6,0c0.2-5.3,0.7-10.2,1.2-15.1C127,180.7,125.9,187.2,125.3,191.1z
					 M129.8,190.6c-2.7-4.9,1.8-10.4,0.6-17.3c1.6,1.7,0.6,5.1,0.9,7.9c0.2,1.6,0.9,3,0.9,4.3C132.1,187.7,131,189.5,129.8,190.6z
					 M166.7,190c-0.1-7.9-0.4-15.6,0.9-22.6c1.6,2.2,1.8,8.1,1.1,12.2c-0.2,0.8,0.5,0.5,0.6,1c-0.2,0.9-0.3,1.9-0.6,2.6
					c-0.3-0.1-0.4-0.3-0.4-0.7c-0.2,1-1,2.5,0,2.9C167.3,186.4,167.1,188.4,166.7,190z M232.1,188c-0.2-0.1-0.4-0.2-0.4-0.5
					c0.8-4.9-1.1-9,0.5-13.4c0.5-0.1,0.3,0.5,0.6,0.5c-0.1-1.6,0.1-2.5,0.2-3.4C233.5,176.9,232.8,182.2,232.1,188z M285.6,186.4
					c-0.5-8-0.3-19.8,0-27.1c0.1-1.2-0.6-0.1-0.8-0.7c-0.1-0.8,0.6-0.7,0.8-1.2c-0.6-5.8-0.8-12.2,2.5-15.2
					C287,158.2,286.7,171.3,285.6,186.4z M159.5,187.4c-0.2,0-0.4-0.1-0.4-0.2c1.1-7.7,1.5-15,3-22.3c0.4,6.3-0.9,11.9-0.5,15.8
					C160.6,182.6,161.3,186.1,159.5,187.4z M277.8,185.8c-0.9-1.6,0.5-4.9-0.3-7.2c0.6,0.2,0.4-0.7,1-0.5
					C278.8,180.4,278.1,183.5,277.8,185.8z M226.5,185.6c-0.2,0-0.4,0-0.4-0.2c-0.4-3.7-0.2-8.4,0.1-12.5c0.7-8.2-1.1-17.3,1.5-24
					c1.7,5.9-0.4,12.2-0.3,18.5C227.6,174.1,227.4,179.4,226.5,185.6z M179.8,185.6c-0.8-0.5-1.1-4.6-0.2-4.8
					C180.6,181.6,180.8,184.6,179.8,185.6z M98.7,186.4c-0.3-0.1-0.6-2.2,0.2-1.9C99,185.3,98.8,185.8,98.7,186.4z M118.5,185.7
					c-0.2-1.3-0.5-4.5,0.7-5.3C118.7,182,119.1,183.9,118.5,185.7z M109.3,184.7c-0.8,0.2-0.3-1.1-0.4-1.7
					C109.4,183,109.2,184,109.3,184.7z M294.1,182.2l-0.6,0c0.2-2.7,0.3-4.7,0.3-7.9C294.8,176.4,293.9,180.8,294.1,182.2z
					 M111.5,183.9c-0.2-0.1-0.4-0.2-0.4-0.5c-0.7-3.5,0.5-5.8,1.1-7.9c0.2-0.8-0.6-2.1,0.6-2.2C112.2,177,111.5,181,111.5,183.9z
					 M260.4,181.7c-0.3-0.1-0.5-2,0.2-1.7C260.7,180.8,260.2,180.9,260.4,181.7z M211.4,180.9l-0.6,0c0-1.3,0.2-4.2,0.4-6
					C212,176.4,210.9,179.1,211.4,180.9z M269.4,138.6c-0.7,0.9-1,2.7-0.4,3.8c-0.4,0.5-0.8,1-1,1.7c0.3,6.3-0.8,12.8-1.2,19
					c-0.2-0.1-0.1-0.5-0.4-0.5c0.6,2.7-0.5,5.5-0.1,7.9c-0.4,0.2-0.1,0.7-0.6,0.2c0.5,3-0.5,6.4-0.5,9.4c-1-9.8,0.2-21.9-0.4-32.4
					c0.6,0.1,1.8-0.7,1-1.9c-0.8,1-1.4,0.5-2.5,0c-1.9,0.7-1.8,6.3-1.4,7.5c-0.9,2.6-0.4,4.9-0.5,7.4c0.1,0.7-0.7,0.4-0.8,1
					c0.2,0.4,0.9,0.4,0.4,1c-0.9-1.7-0.6-4.1-0.5-6.5c0.2-3.4,0.8-7.2,0.5-10.6C262.8,142.6,265.3,136.1,269.4,138.6z M164,180.4
					c-0.3-1.5,0.7-3.1,0.6-4.6C164.8,176.7,165.2,179.8,164,180.4z M155.5,180.5c-0.9,0-0.2-1.8-0.4-2.6
					C155.9,178,155.4,179.6,155.5,180.5z M256.8,179.6c-0.4-3.8-0.5-11.3-0.6-17.8c-0.1-4.4,0.1-7.6,1.7-10.3
					c1.5,3.2-0.2,7.2,0.7,10.8c-0.2,0.4-0.7,0.5-0.8,1c0.8,3.9,0.2,7.3-0.7,10.1c0.4,0.5,0.4-0.1,0.6-0.5
					C258.7,175.6,256.5,176.8,256.8,179.6z M141.4,180.4c-0.4-2.3-0.6-5.1,0.3-7C141.7,176.2,141.9,178.1,141.4,180.4z M104.5,181
					c-0.8,0.3-0.9-1.7,0-1.4L104.5,181z M260.5,179.3c-1-4.5-0.4-9.3,0.5-13.7C261.3,169.4,261.1,175.4,260.5,179.3z M201.1,179.8
					c-1.1,0.3-0.4-1.1-0.4-1.7c-0.3-2.8-0.7-7.7-0.5-11.5c0.8-0.5,1.3-1.2,2.3-1.5C202.7,170.3,202,175.1,201.1,179.8z M99.4,180.6
					c-0.4-0.7-0.8-1.4-0.3-2.2C99.6,178.7,99.2,180,99.4,180.6z M240.3,178.6c0.6-12.4,0.7-25.7,1.3-37.7c0.9,3.5,0.8,6.5,0.9,10.8
					c0.1,2.6,0,4.4,0.1,6.7c0.1,3.8-0.7,7.7-0.5,11.5c0,0.7,0.5,1.2,0.6,1.9c0.3,1.9-0.4,3.8-0.4,5.8
					C241.8,178,241.2,178.5,240.3,178.6z M221.5,178.7c-0.7-1.2,0.6-2,0.2-3.6C223,175.6,221.7,177.7,221.5,178.7z M212.6,178.8
					c-0.7-0.5-0.7-4.1,0-4.6C212.4,175.3,212.7,177,212.6,178.8z M292.5,177.5c-1.1-1.4-1.1-3.3-1.1-6c0-6.2-0.1-14.5-0.5-21.4
					c-0.2-3.5-0.6-6.6,0.3-9.8c1.1,0.2,1.6,1.1,2.3,1.9c-0.2,0.3-0.2,0.9-0.4,1.2c1.3,2.8,0.4,6.4,0.3,9.8c-0.1,3.6,1.3,7.4-0.5,9.8
					c1.4,1.9-0.1,5-0.3,7.4c0,0.3,0.4,0.5,0.4,1c0,0.4-0.6,0.8-0.6,1C292.4,174.4,293.2,175.1,292.5,177.5z M220.3,178.2
					c-0.5-8.5-0.6-21.3-0.4-29.5c1.4-0.8,2.2-3.5,3.7-3.4c-0.4,3.5,0,8-0.5,12.2c0.1,0.8-0.4,0.4-0.6,0.2c-0.3,1.1,0.8,0.5,0.6,1.4
					C222.5,166,221.4,172.2,220.3,178.2z M104.5,179c-1.7-5.5,1.1-11.4,0.8-18C106.3,167.6,104.4,172.8,104.5,179z M210.1,177.6
					c-0.2-0.1-0.4-0.2-0.4-0.5c0.3-1-0.3-2.2-0.4-3.6c-0.2-2.3,0.4-5,0.6-7.7c0.2-2.7-0.3-5.4,0.8-7
					C211.2,164.1,210.9,171.4,210.1,177.6z M189.9,177c-1.2-2.4-0.1-7.3,0.2-10.3c0.8-0.2,0.8,0.6,1.7,0.5
					C191.2,170.3,190.9,173.9,189.9,177z M172.6,177c-0.2,0-0.4-0.1-0.4-0.2c0-3.5,0.1-8.9,1.6-11.5
					C173.2,169,173.1,173.3,172.6,177z M145.2,177c-0.9-1-0.3-3.9,0.4-4.6C145.6,174,145.8,176,145.2,177z M194.6,176.5
					c-1-1.5-0.6-5.4-1.1-8.2c0.3-0.4,1.5-0.4,1.9,0C194.9,170.2,195.2,174.2,194.6,176.5z M99.3,177.5c-0.8-0.3-0.2-2.8,0.1-3.4
					C100,175,98.9,176,99.3,177.5z M207.2,175.4c-0.7-3.3-0.2-9.4-0.1-13.4C208.4,165.5,208,171.6,207.2,175.4z M101.5,176
					c-0.5-0.5-0.1-2-0.3-2.9C101.9,173.3,101.8,175.4,101.5,176z M276.8,174.1c-0.8-0.2,0-0.8-0.2-1.7
					C277.3,172.6,276.6,173.2,276.8,174.1z M294.1,173.6c-0.6,0.3-0.7-2,0-1.7L294.1,173.6z M222.3,174.1c-0.3-0.1-0.4-0.3-0.4-0.7
					c1.3-8.1,2-17.5,2.7-25.9c0.2-1.9-0.6-4.2,0.8-5c0.2,6.3,0.3,12.2-0.5,18C224.2,165.6,223.6,169.6,222.3,174.1z M121.4,174.1
					c-0.4-0.2-0.5-0.8-0.2-1.2C121.7,173,121.6,173.8,121.4,174.1z M156.1,173.5c-1.2-0.6,0.2-2.9-0.2-4.8
					C156.8,169.7,156.3,172,156.1,173.5z M97,174.4c-0.3,0.1-0.4-0.2-0.6-0.2c0.1-3.1-0.2-7.7,0.1-11.8
					C97.6,165.8,96.7,171,97,174.4z M278.6,172.4l-0.6,0c0.1-0.9,0.2-1.8,0.8-2.2C279,171.2,278.6,171.6,278.6,172.4z M253.3,172.7
					c-0.2-0.7,0.1-1.9-0.8-2.2c-0.1-4.6-0.4-8.3,1.9-10.8C254.2,164.3,253.9,168.7,253.3,172.7z M211.8,172.5
					c-0.2,0.4-0.6-1.6-0.2-1.9C212.2,171,211.6,171.5,211.8,172.5z M294.3,171.7c-0.7-0.1-0.3-0.9-0.2-1.4
					C294.6,170.6,294.5,171.1,294.3,171.7z M112.7,172.9c-0.6-0.2-0.3-0.6-0.2-1.2C113,171.7,113,172.5,112.7,172.9z M186.2,171.7
					l-0.6,0c0.1-2.7-0.1-6.1,0.2-8.4C187.1,165.1,186.1,169.6,186.2,171.7z M117.4,172.3c-0.8-5.2-1-12.2-0.9-16.3
					c0.9,0,0.8,1.1,1.5,1.4C117.8,163,118.1,166.8,117.4,172.3z M107.8,172.2c-0.2-0.1-0.4-0.2-0.4-0.5c1.2-6.2,0.6-13,1.4-19.7
					c1.9,2.4-0.2,8.4,0.9,11.3C108.7,165.9,108.8,169.7,107.8,172.2z M135.9,171.5c-0.7,0.3-0.5-1.8-0.2-1.9
					C136.7,169.7,135.8,170.9,135.9,171.5z M232.2,170.5c-0.2,0-0.4,0-0.4-0.2c-0.1-2.6-0.5-5.7-0.5-8.9c0-4.7,0.4-9.7,0.3-13.7
					c0-0.6-0.5-1.4-0.8-1.9c-0.5,0-0.6,0.5-1,0c-1,0.5-0.6,2.7-1,3.8c-0.6-0.8-0.4-2.6-0.6-3.8c-0.5-0.6-1.4,0.2-1.6-0.2
					c0.3-1.1,0.3-3.4,0-4.6c1.1-1.4,3.7-2.3,5.8-1.2c0.2,1.2,0.8,1.9,1.3,2.9C234.2,152.4,233.9,161.7,232.2,170.5z M175.7,170.5
					c-1-1,0.2-4.2-0.2-5.3C176.5,165,175.8,168.8,175.7,170.5z M277.8,169.5c-0.9-1.4-1.2-4.6-0.3-5.8
					C277.5,165.7,278.5,167.6,277.8,169.5z M248.1,169.6c0-8.2,0.5-15.4,2.7-22.1C251.3,154.9,252.4,164.7,248.1,169.6z M214,169.9
					c0.3-5.1-2-13.9,1.5-15.9C215.3,159.4,215,165.6,214,169.9z M287.9,168.9c-0.3,0.1-0.4-0.2-0.6-0.2c0.5-8.6,1-16.5,1.7-25.2
					C290.7,150.7,287.9,160.1,287.9,168.9z M142.1,170c-0.8-0.3-0.5-3.2-0.2-3.8C142.7,166.5,142.3,169.3,142.1,170z M164.3,169.4
					c-0.3,0.1-0.4-0.2-0.6-0.2c0.8-3.8,0.6-8.8,1.4-13.2C166.1,160.4,164.9,165,164.3,169.4z M180,169.1c-0.7-0.3-0.5-2.9-0.2-3.6
					C180.8,165.8,180,167.9,180,169.1z M125.2,169.5c-0.8-0.6,0-2-0.3-3.8C125.8,166.2,125.3,168.6,125.2,169.5z M122.9,168.6
					c-0.8,0.2-0.4-1.5-0.2-1.7C123.2,167,122.8,168.1,122.9,168.6z M188.2,167.8c-0.7-0.6-0.4-3.7-0.4-4.3
					C188.7,164.4,188.4,167.1,188.2,167.8z M194.8,167.3c-0.4-0.3-1.2-0.3-1.4-0.7c0.2-9.7,0.9-18.6,1.9-27.8c1,0.3,0.7,3.2,0.2,3.8
					c0.9,3.6-0.4,5.6,0.5,10.1c0.2,1.1-0.8,0.8-0.6,1.9C196.5,158.4,195.2,163.3,194.8,167.3z M170.7,167.4
					c-0.3,0.1-0.4-0.2-0.6-0.2c0-7.5-1.1-17.2,0.5-23.5C172.3,151.2,171.3,160.1,170.7,167.4z M61.6,169.8c-1.1-4-0.2-8.4-0.6-12.2
					C62.7,160.4,62.3,166.6,61.6,169.8z M111.6,167.8c-0.2,0-0.4,0-0.4-0.2c-0.2-2.8,0.7-5.5,1.1-7.9c0.1-1-0.6-2.5,0.6-3.1
					c0.5,0.9-0.3,1.8-0.1,2.9c0.1,0.5,0.7,1,0.6,1.2c0,0.6-0.8,1.3-1,1.9C111.9,164.2,112.3,166.1,111.6,167.8z M181.4,166.9
					c-0.3-0.6-0.4-2.9,0-3.6C181.8,164.2,182.3,166.1,181.4,166.9z M273.2,166c-1.2-1.2,0.4-3.4-0.5-4.3
					C274,162.4,272.9,164.5,273.2,166z M144.1,166.9c-1.4-5.2-0.5-11.4-0.6-17.5C144.3,153.4,145,161.8,144.1,166.9z M198.7,166.1
					c-0.7-0.2-0.5-2.5-0.2-3.1C199.3,163.3,198.9,165.4,198.7,166.1z M191.7,166.2c-2.8-2-1.1-9.5-0.9-15.1c0.1-3-0.6-5.7,0.6-7.7
					C191.5,151.9,192,158.3,191.7,166.2z M85.4,167.6c-0.6,0.3-0.7-2-0.1-1.7L85.4,167.6z M57.2,168.5c-0.9-1.3-0.1-3.3,0.1-4.8
					C58.1,165.1,57.6,167.1,57.2,168.5z M92.2,166.9l-0.6,0c0.2-5.4,0-10.3,0.8-14.7C92.8,158,92,162.6,92.2,166.9z M260.6,164.9
					c-0.5-0.3-0.1-1.5,0.6-1.2C261.4,164.6,260.4,164.1,260.6,164.9z M156.5,165.4c-0.9-1.7-0.3-5.3-0.3-7.4
					C156.5,160.1,156.8,163,156.5,165.4z M63.4,167.3c-0.4-0.2-0.7-0.4-0.7-1.2C63.1,166.4,63.8,166.8,63.4,167.3z M278.1,164
					c-0.3-0.1-0.2-0.8-0.8-0.5c-0.4-5.7-0.3-11.7,0.4-16.8c0.8,2.1,0.3,5.3,1.3,7.7c0.4-1.6-0.6-5.3,0.7-6.5
					c-0.2,4.1,0.5,5.9-0.7,8.7c-0.9,0.4,0-1.4-0.6-1.4C277.8,157.1,278.6,162,278.1,164z M127.6,165.2c-1-3.2-0.5-8.7,0.3-11.5
					C128.8,157.2,128,161.5,127.6,165.2z M180.4,164.5c-0.8,0.3-0.4-0.8-0.8-1c0.1-9.2-0.7-19.5,1.1-27.8c0.3,2.3,0.7,5.3,0.2,7.4
					C181.4,150.5,180.2,157.9,180.4,164.5z M139.8,164.5c-1.1-5.8-0.7-15-0.6-20.4c1.7,2.4,0.5,6.2,0.7,9.1
					C140.1,156.2,140.1,161,139.8,164.5z M138.1,164.6c-0.8-2.4-1-7.6-0.7-10.1C138.6,156.3,137.9,161.6,138.1,164.6z M130.7,164.6
					c-1-0.1,0.1-1.1-0.2-1.9C130.9,162.9,130.6,164.1,130.7,164.6z M53.4,166.9c-0.3,0.1-0.4-0.2-0.6-0.2c0.6-3.5-0.4-8.7,0.9-12
					c1.1,0.3,0.6,3.7,0.3,4.3c1,0.5,0.2,2,0.9,3.1c-0.3-0.2-0.8-0.2-0.6-0.9C53.5,162.3,53.8,165,53.4,166.9z M162.2,164.1l-0.6,0
					c-0.1-0.5,0.1-0.6,0.2-1C162.2,163.2,162.3,163.6,162.2,164.1z M85.2,165c-0.4-3.5-1-6.8-0.3-9.8C86,157.4,85,162.3,85.2,165z
					 M182.2,163.1c-0.4,0-0.3-0.7-0.8-0.5c0.4-3.6,0-8.6,0.6-11.3c1.5,1.2-0.9,3.9,0.4,5.5c-0.6,1.5,0.4,3.4-0.4,4.6
					C182,162.1,182.6,162.6,182.2,163.1z M204.5,162.5c0.1-5.6,1.1-12.9,0.9-18c1.7,1.2,1.3,7.4,0.5,8.6c-0.2,2.2,1.1,4,0,5.8
					c0.3,1.1,0.3,1.3,0.4,2.4C205.6,161.6,205.4,162.4,204.5,162.5z M162.4,162.7l-0.6,0c-0.1-0.6,0.1-1,0.6-1L162.4,162.7z
					 M153.6,162.7c-0.3-2.8-1.1-8.2-0.5-12c0.3,1.1,0.3,2.7,0.4,4.1c0.2,0.7,0.2-0.8,0.6,0C153.2,156.7,154.1,160.5,153.6,162.7z
					 M134.6,161.5c-0.7-1,0.3-4.2-0.1-6.5C135.6,155.9,135,160,134.6,161.5z M34.7,165.1c-0.6,0.1-0.7-1-0.4-1.4
					C34.8,163.7,34.5,164.7,34.7,165.1z M207.4,160.3c-1-0.3,0-1.7-0.2-2.6C207.6,158.1,207.2,159.5,207.4,160.3z M96.8,161.5
					c-0.3-0.3-0.9-2.7,0.1-2.9C96.9,159.5,97.2,160.9,96.8,161.5z M104.6,160.8c-0.6-0.6,0.2-1.6-0.3-2.2
					C105.1,158.9,104.6,160,104.6,160.8z M278.9,158.9c-0.5-0.1-0.1-1.1,0-1.2c0.4,0.1,0.5,0.4,0.4,1
					C279,158.6,278.9,158.7,278.9,158.9z M189,159.4l-0.6,0c-0.7-5.8,0.5-11.3,0.6-15.8C190.2,149.1,188.8,154.7,189,159.4z
					 M87.5,160.6c-0.7-0.6-0.8-3.1,0.1-3.1C87.8,157.9,87.2,159.2,87.5,160.6z M41.1,161.8c-0.7,0-0.5-1.2-0.6-1.9
					C41.4,159.7,40.9,161.2,41.1,161.8z M47.2,160.7c-1.1,0.4-0.8-1.9-0.1-1.7L47.2,160.7z M210.8,157.4c-0.3,0.1-0.4-0.2-0.6-0.2
					c0.6-5.9,0.8-11.3,1.1-17c1.1,0.5,0.2,1.8,0.2,2.6C211.4,147.7,211.4,153.4,210.8,157.4z M58.7,158.4c-0.4-0.2-0.7-0.6-0.7-1.4
					C58.5,157.2,59.1,157.9,58.7,158.4z M165.5,155.7c-0.5,0-0.4-0.8-0.4-1.4C165.8,154,165.4,155.2,165.5,155.7z M255.1,154.9
					c0-0.6,0-1.2,0.6-1.2C255.8,154.4,255.8,155,255.1,154.9z M134.9,154.7c-1.3-0.7,0.8-2.3,0.6-0.2
					C135.2,154.5,134.9,154.5,134.9,154.7z M164,154c-1.2-2.6-0.5-8.1-0.1-11C164.7,145.8,163.9,150.5,164,154z M263.3,152.4l-0.8,0
					c0.1-1.7-0.2-3.8,1.2-4.1C264.1,150.4,263,151.1,263.3,152.4z M135.3,152.8c-0.6,0.3-0.7-2,0-1.7L135.3,152.8z M260,151.2
					c-0.1,0.3-0.5,0.2-0.8,0.2c0.4-0.9,0-2.7,0.6-3.4C260.8,148.4,259.5,150.7,260,151.2z M85.4,153.2l-0.6,0
					c-0.4-1.4,0.3-3.4,0-5.3C85.7,148.7,85.1,151.6,85.4,153.2z M218,149.9l-0.6,0c0-0.8-0.2-1.9,0.2-2.4
					C218.2,147.7,218.4,149.3,218,149.9z M135.3,150.4c-0.7,0.2-0.3-0.9-0.4-1.4C135.6,148.8,135.1,149.9,135.3,150.4z M249.7,148.9
					c-0.4-0.1-0.1,0-0.8,0.5c0.1-4.4-0.2-11.7,0.7-15.4c1.3,1.9,0.7,6.5,1.3,8.4C250.6,144.6,249.8,147.4,249.7,148.9z M155.1,149.3
					c-0.6-0.3,0-1.3,0-1.7C155.5,147.8,155.3,149.1,155.1,149.3z M227.1,148.2c-0.6,0.1-0.7-0.5-0.6-1.2
					C227,146.9,227,147.6,227.1,148.2z M182.4,147.9c-0.1-2.7-0.2-8.9-0.3-13c0-1.2-0.9-3.1,0.6-3.6
					C183.3,136.9,183,143.1,182.4,147.9z M218.2,147.3c-0.3,0.1-0.4-0.2-0.6-0.2c0.3-1.5-0.2-2.9,0.4-3.8
					C218.6,143.9,218,145.7,218.2,147.3z M155.3,147.4c-0.3-0.7-0.6-1.7,0-2.2C156.1,145.5,155.5,146.8,155.3,147.4z M158.8,147.1
					c-0.5-1.8-1-7.6,1.2-7C159.5,142.3,159.5,145.1,158.8,147.1z M121.3,147c-0.5-0.2-0.2-1.5,0.4-1.2
					C121.9,146.6,121.6,146.7,121.3,147z M133.6,146.4c-1.4-1.2-0.1-4-0.7-6C134,141.8,133.8,145.1,133.6,146.4z M104.9,145.4
					c-1-0.1-0.1-1.7-0.1-2.2C105.8,143.7,104.7,144.5,104.9,145.4z M277.6,143.3c-0.6,0-0.4-1-0.4-1.7
					C277.9,141.6,278,142.9,277.6,143.3z M139.5,143.9c-0.3,0.1-0.4-0.2-0.6-0.2c0.3-1.3,0-1.9,0-3.4
					C140.1,140.4,139.3,142.7,139.5,143.9z M188.9,143.1l0-1.9l0.4,0C189.2,141.8,189.8,143.3,188.9,143.1z M155.3,142.3
					c-0.2,0-0.4-0.1-0.4-0.2c0.1-6.1-2-11.5,1.1-15.6c1.7,2.2,1.2,7.2,1.5,11.5C155.9,136.8,156.3,141.3,155.3,142.3z M178,142
					c-1.2-1.2,0.3-3.3,0-5C179.2,138.2,177.7,140.2,178,142z M153.2,142.1c-0.8-0.4-0.3-2.4-0.4-3.6
					C153.7,139,153.5,141.5,153.2,142.1z M225.1,140.8l-0.6,0c0-0.9-0.2-2.2,0.6-2.2C225.4,139,225.4,140.4,225.1,140.8z M191.6,141
					c-0.8,0-0.4-2.2-0.2-2.6C191.9,138.7,191.5,140.1,191.6,141z M105,141.8c-0.8-0.3,0.1-1.5-0.3-2.6c0.5-0.1,0.3,0.5,0.6,0.5
					C105.1,140.7,105.1,141,105,141.8z M280.3,139.5c-0.6-0.4-0.2-2.3-0.2-3.1C280.5,136.9,280.1,138.5,280.3,139.5z M101,138.8
					c-1.3-0.2,0-0.9-0.3-1.9C101.2,137,100.8,138.2,101,138.8z M212,137c-0.7-0.2-0.2-0.8,0-1.2C212.7,136,212.2,136.7,212,137z
					 M124.7,133l-0.6,0c0-0.7-0.1-1.6,0.6-1.5L124.7,133z M179.8,132.4c-0.6,0-0.3-1.5,0.4-1.4C180.3,131.7,179.9,131.9,179.8,132.4
					z"/>
				<path class="st5" d="M354.4,143.5c0.4,6.9,0.3,16.6-0.5,24.3c-0.1,0.5-0.5,0.7-0.6,1.2c-0.5,2.2,0.3,4.6,0.1,6.5
					c-0.3,2.5-2.3,5.3-0.3,6.5c-0.1-1.1,0.8-1.1,1.2-1.7c0.8-1.8,0.3-5,1.7-6c-0.1,4.5,0.2,8.8-0.8,12.7c0.3,2.8,0.3,5.9-0.5,8.2
					c1,1.5-1.6,4.6,0.3,6.2c1.9-0.4,1.4-3.5,2-5.3c-0.4-0.1-0.5,0.4-0.6,0c0.1-16.2,0-34.2,3.5-48.1c0.9,1.6,0.3,5,0.6,7.4
					c-0.5-0.1-0.7-0.5-0.6,0.5c-0.2,1.1,0.5-0.3,0.6,0.5c0.6,15,0,27.5,0.2,36.5c-1,0.8-0.8,3.1-0.3,4.3c2.5,0.2,1.2-3.1,2-4.4
					c-0.5-0.5-0.6,0.7-1-0.2c0.5-0.9,0.2-2.6,0.5-3.6c0.7-0.2,0.3,0.8,0.8,0.7c0.2-0.4,0.1-0.9,0.8-0.7c0.9-9.4,1.3-21.1,3.5-29.8
					c-0.2,8.1,0.9,18.9,0.2,27.4c0.3,0.6,0.2,1.7,0.7,2.1c-1,0.7-0.6,3.5,0.3,4.1c1.6,0,2.3-6.4,1.1-7.5c-0.6,0.5,0.3,2.6-0.3,3.1
					c-0.7-6.1-0.7-11.7-0.8-17.5c-0.2-7.1-1.1-14.9-0.3-21.4c0.6-4.7,1.7-10.2,2.8-14.7c0.4,0.6,0.2,2.1,0.3,3.1
					c0.1,0.8,0.6-1,0.8,0c0.2,15,0,31.2-0.6,45.6c0,0.4,0.4,0.9,0.4,1.4c0,1.1-0.2,3.4-0.3,5c-0.3,3.8-1.3,7.6,0.4,8.9
					c1.3-1,0.7-3,0.9-4.8c0.6-0.3,0.7,0.1,1.7,0c0.7-6.3,1.3-13.6,2-20.2c0.2-1.7-0.2-3.7,1.1-4.8c0.2,1.5-0.2,2.2-0.5,3.1
					c0.2,0.4,0.8,0.3,0.6,1.2c0.1,5.3-1.1,8.6-0.1,13.9c-0.4,1.9-1,4.5-0.5,6.7c0.7-0.2,0.9,0.2,1.3,0.5c1.3-11.1,2.2-22.7,2.5-34.1
					c0.2-5.6-0.2-11.3,0-16.6c0.1-1.5,0.3-3.7,1.1-4.8c-0.1,22.8,0,42.7-1.4,63.2c0.6-0.2,0.5,0.3,1,0.2c1-1.3,0.5-2.8,0.7-4.3
					c1.2-10.1,2.5-22.9,3.8-33.2c0.2-1.3-0.2-3.2,0.7-4.1c0.1,12.2-0.5,20.1-0.3,30.3c-0.7,0.9-1,4.6,0.1,5.3
					c2.3-1.3,1.1-5.1,1.3-7.5c0-0.3,0.5-0.8,0.6-1.2c1-5.8,1.3-13.1,1.6-20c0.4-10.5-0.3-21.5,0.7-31.9c0.5,0.3-0.1,1.9,0.5,2.1
					c0-0.4-0.2-1.2,0.4-1c-0.5,16.4-0.2,34.5-2.3,50.7c0.4,0.7,0.9-0.9,1.2-0.3c-0.5,2.9,0.2,5.1,0.4,7.2c0.2,2.7-1.4,5.1-0.4,7.7
					c0-0.6,0.4,0.3,0.8,0c0.8-0.8-0.7-2.9,0.3-3.1c0.5,0.5,0.2,1.9,0.9,2.1c2,0.1,1.2-1.6,1.4-3.2c1-7.2,2-15.6,2.5-24.1
					c0.4-7.3,0.1-14.7,1.3-20.9c0.2,10.1,0.3,18.5,0.5,28.1c-0.4,0.3-0.4,0.9-0.8,1.2c0.6,5.6-0.9,12.8,0.8,17
					c1.9-0.8,1.3-4.1,1.7-6.8c0.5-4.1,0.7-8.3,1.4-11.1c-0.5-3.2,0-5.8,0.4-8.7c0.9,7.9-0.1,12.4-0.3,18.7c1.3,1.7-1.6,7.2,1.2,7.2
					c1.5-9.5,0.5-22.1,2.1-30.8c0.9,3.9-0.8,7.1,0.7,9.8c-0.1,4-0.3,11.3-0.4,16.3c2.5,0.2,1.9-3.2,2.1-5.3c0.6-6,1.3-11.8,2-17.1
					c0.2,3.7,0.8,9.2-0.1,12.5c0.9,3.9-0.6,8.6,0.5,12.7c0.1-0.7,0.4,0.2,0.8,0c0.5-2.8-0.2-8.1,1.2-10.6c0.1,1.3-0.1,2.9,0.3,3.8
					c1,0.5,1-1.3,1.4-0.5c0.2,1-0.8,2.7,0.3,3.1c1.2,0.1,0.9-1.7,1-2.4c0.5-3.5-0.1-6.1,0.2-9.4c0.2-2.4,0.6-4.7,0.6-7.2
					c0.2-7.9,0.9-15.3,0.2-23.1c-0.6,8.5-0.1,14.2-0.9,21.9c-0.7-2.1-0.8-5.6-0.6-8.6c0.3-5.1,0.6-10.9,1.3-14.7c0,0.4,0,0.9,0.2,1
					c0.8-2-0.7-5.4,0.6-7.2c-0.3,12.1,1.4,27.7,0,39.9c1.3,1.2-0.5,3.6,0.6,5.3c-1,2.7-1,6.5-1.2,10.1c0.5-0.1,0.8,0,0.8,0.5
					c1,0.1,0.3-1.5,1.4-1.2c0.4,0.1,0.2,1.1,0.7,1.2c1.2-7.5,2.1-16.9,2-26.5c-0.3,1.3,0,3.5-0.7,4.3c-0.2-3.5-0.5-6.6,0.3-10.3
					c1.4,1.4-0.6,4.4,0.8,5.3c0.2-5.6,1.3-13.2,0.1-18c-0.1,4.3-0.3,8.3-0.5,12.5c-1-4.6-0.1-11.1,0.4-15.6c0.6,0.6-0.5,2.3,0.7,2.4
					c0.3-6.7-0.4-11.9,0.3-18.7c1.1,16.3,0.2,33.1,1.6,48.5c-0.7,0.2-0.4-0.6-0.8-0.7c0.1,5.2,1.2,8.1,1,13.4c0.5,0.8,1.5-0.5,1.7,0
					c0,0.8,0.2,2.2,0.3,3.6c1.2-0.1,1.8-1,2.5-1c0.1-0.5-0.4-1.9,0.4-1.7c0.8,3.7-0.6,8.9,0.7,11.7c1.3-0.2,1.7-3,1.8-3.7
					c0.7-4.5,0.4-10,0.8-14.9c0.2-2.1,0.8-4.1,0.9-6c1.3,4.4-1.2,8.9,0.4,12.2c-0.4,1.2-1.6,5.5,0.2,5.5c0.8-0.5,0.8-2,0.5-3.1
					c1.3-4.7,1-11.9,1.4-17.3c0.1-1.1,0.2-2.8,1.1-3.4c0.2,7.7-0.9,15.7-0.3,24.7c0.5,0.6,0.9-0.7,1.4,0c0.4,2.8-0.8,6.3-0.2,7.7
					c1.5,0.2,1.4-3.3,1.7-5.1c1.7-0.4,2-2.4,2.4-4.4c-0.9-0.3,0.2,1.6-0.8,1.2c-0.1-0.3,0.2-1.2-0.2-1.2c-0.2,0.2,0,0.9-0.6,0.7
					c0.2-2.3-0.5-4.2,0.2-6c0.8-0.2,0.8,0.5,1.5,0.4c1.2-1,1-3.6,1.7-5.1c0.3,1.3,0.2,3,0.5,4.1c0.2,0.9,0.9-0.6,1,0.2l0.1,2.4
					c2.3,0.5-0.7,4.5,1.4,5.7c0.6,0.3,0.6-1.1,1.4-1.2c0,0.7-0.1,1.6,0.7,1.4c0.1-0.3,0.4-0.5,0.8-0.5c1.9-6.9,0.9-16.4,1.7-24.8
					c0.8,1.3,0.2,3.1,1.5,3.3c2,0.4,1.2-3.6,2.3-5.1c-0.1-1.7,0-3.5-0.4-4.8c1.2-1.6,0.5-5.6,1.4-6.8c0,1.2,0.2,1.8,0.3,3.8
					c0.5,0.3,0.8-0.7,1,0c0.5,4.1-0.7,7.8-0.1,10.6c1.5,0.4,1.4-0.9,2-1.5c-0.2,1.3,0.9,0.9,1.7,0.9c0.7-1.9,0.6-4.8,2.1-5.8
					c0.1-2.3-0.3-4,0.6-5.5c0.5,4.6-0.9,7.5-0.1,11.3c2.5-0.6,2.5-4.8,2.8-8c0.4-4.1,0.1-8.1,1.1-10.8c1.4,5.5-1,13.8,1.4,17
					c1.6-0.3,1.7-2.9,1.9-4.9c0.2-1.9,0.6-4.1,0.8-6c0.3-3.2-0.2-7.2,1.6-8c0.8,4.9-1.1,11.8,0.3,16.1c3-0.9,2.2-8.4,2.5-11.1
					c0.5-0.9,0.4-2.5,0.7-3.6c1,4.3-1.1,8.5,0,13c2.6-1,2.6-5.9,3-9.5c0.5-5.2,1.3-9.8,2-14l0.2,6.2c0.1,0.5,0.9,0,0.8,0.7
					c0,4.2-1.3,11.8-0.7,16.6c1.1,0.2,1.9-1.1,2.2-2.2c1.6-5.5,1.4-14.4,3-19.6c-0.5-0.8-0.7-2.6,0.1-3.1c1.3,2.7-0.4,9.1,2,9.8
					c0.1,3.4,0,5.8,0.7,8.6c0.7,0.1,0.7-0.5,1.4-0.3c0.7-2.3,1-5.5,1.6-7.3c0.7,0.4-0.3,1.3,0.3,1.7c0.8,0.8,1.2-1.4,2-0.6
					c-0.2,3-0.8,6.2,0.1,9.6c1,0.3,1-0.6,1.8-0.5c1.3-5.1,1.1-12.9,3.3-16.2c1,3.6-1.7,7.6,0.6,10.5c1.5-0.4,2.2-3.6,3.5-4.9
					c0.1,1.4-0.1,4.2,0.6,6c2.5,0.1,1.5-2.9,1.5-4.6c-0.1-5.4,0.5-12.9,0.6-18.3c-2.4-1.5-3,1.8-3.6,3.7c-2.5-0.4-0.5-4.7-1.1-6.7
					c-4.6-2.4-3.6,8-5.6,9.8c-0.2-3,0.4-5.2,0.1-8.4c-5.9-3-3.8,9.6-6.6,11.5c0.4-3.7-0.4-8.6,0-12.2c-4.3-3.4-3.9,8.7-6,10.1
					c0.2-3.3,1.1-6.6,0.5-10.1c-1.2-0.6-1.6-3.5-3.2-2.8c-1.4,4.1-1.5,9.6-3,13.6c-0.6-4.2,0.7-9.1-0.4-11.5c-0.8,0.2-0.6,0.2-1.4,0
					c-0.7,1-0.8,2.7-1.5,3.7c-0.4-0.6,0.2-2.2-0.3-3.1c-0.9-0.6-1.4,0.4-1.9,0.1c-0.6-0.7,0.2-1.6-0.3-2.4c-0.7-0.1-0.7-0.2-1.7-0.4
					c-0.5,1.9-0.6,4.3-1,6.3c-1.3-3-0.4-7.8-0.6-12.5c-0.5-0.3-0.7-0.9-1.7-0.7c-1.2,1.5-1.6,3.9-1.4,7c-0.9,0.4-1.1,0.5-1.6,1.5
					c-0.2-5.9,0.6-11.2-0.3-17c-5-1.8-1.7,11.4-3.7,14.3c-1.4-0.9-0.2-3.7-0.4-5.5c-0.8-0.1-0.6-0.2-1.7-0.2c-0.7,1.6-0.2,4.6-1,6
					c0-4.4-0.8-8.9-1-13.7c-0.1-3.3,0.7-6.3-2.2-6.2c-2.2,2.3,0.1,8.7-2.6,10.2c-0.8-0.2-0.5-1.7-1.3-1.9c-0.8-0.1-0.9,0.4-1.6,0.3
					c-1-3.6,0.6-10.3-2-11.9c-1.2,1.3-1.3,3.9-1.7,6.1c-1.1,0-0.7-1.8-1.9-1.1c-0.9,0.4,0,2.8-0.5,3.6c-0.6,0-0.9-0.5-1.5-0.7
					c-0.1,0.6,0,1.4-0.6,1.5c-0.4-1.8,0.4-4.1-1.2-4.8c-0.7,0.6-0.7,0.8-1.6,0.3c-0.9,3.2,0.7,5.1,0.9,8.4c0.1,1.2-0.4,2.4-0.3,3.4
					c0,0.4,0.8,1.3,0.9,2.1c0.1,0.9,0,1.3,0.1,2.2c0.5,0.8,0.6-0.9,0.8-0.3c-0.2,2.3,0.9,6.6-0.2,8.4c0.5,0.2,0.8,0.5,0.9,1.2
					c-0.9,5.4-0.4,12.6-1.1,18c-0.8-12.2-0.9-22.5-2.1-34.8c-1-2.5-0.6-6.1-1.1-9.3c-1.8,0.4-1.4-1.9-2.7-2.1c0.2,1.1-1.1,1.6-1.2,2
					c-0.8,1.9,0,5-2.5,4.6c-0.7-3.4,2-9.8-0.9-10.3c-1.4,1-1.3,3.7-2.1,5.3c-0.7,0.2-0.8-0.5-1.4-0.4c-1.1,1.1-0.9,3.7-1.3,5.6
					c-2.6-1.2,0.3-7.7-2.7-8.6c0.1,0.9-0.5,2-0.3,3.6c-0.5,0-0.6-0.4-1,0c-1,3.5,1.5,9.4-0.5,11.8c-1.6-2.6,1-7.8-2.1-7.9
					c-0.4,2.2-0.2,5.2-1.9,6.1c-0.9-6,0.1-11.5-0.8-15.8c-0.2,0.7-0.5-0.3-1,0c-1.1,3.3,0.7,5.6,0,7.7c0-0.3,0-0.7-0.2-0.7
					c0.2,3,0.9,5,0,6.5c-0.4,0-0.4,0.3-0.8,0.3c-1.3-0.4-0.3-1.9-0.9-3.1c-0.6,0.2-0.5-0.3-1-0.2c-1.8,5.6,0.3,12.1-0.4,17.3
					c-0.1,0.8-0.5,1.3-0.6,1.9c-0.2,3.5,0.4,6.7-0.8,9.6c0,1.1,1.1,4.1-0.5,4.1c-0.4-9.5,0.5-20-0.2-30.5c-0.3-0.6-0.8-0.8-0.9-1.7
					c0.2-2.4,0-6.1-0.4-7.9c0,0.6-0.9,0.2-1,0c-1.6,2.8,1.3,9.1-2,9.9c-0.1-1.6,0.5-2.4,0.3-4.1c-0.6,0.1-0.6-0.5-1.2-0.4
					c-1,3.9,0.8,8.6-1.1,12c-0.1-5.2-1.6-7-0.7-11.5c-1.5-1.8,0.8-5.4-1.4-6.2c-1.5,2.1,1.4,8.2-1.2,10.8c-0.4-2.6-0.2-7.2,0-9.8
					c-0.6,0-0.8-0.5-1.2-0.7c-0.7,0.8-0.5,2.7-1.1,3.6c-0.4-0.3-0.4-1.2-1.3-0.9c-0.6,1.5-0.4,4.5,0.2,6c-0.6,6.9,1.5,14.2-0.7,20.7
					c-0.2-7.1,0.8-13.3-1.9-18.9c-1.1,0.4-1,2-2.6,1.7c-1.7,2.1-2.1,5.6-3.1,8.5c-0.2-2.3,0.1-6-0.2-8.2c-2.1-0.9-1.5,3.1-1.9,4.8
					c-1.1-0.7-2,0.5-2.7,0.1c-0.1-4.5,0-7.2-0.3-11.3c-0.8,0.2-0.6,0.1-1.4,0c-0.6,1.4-0.9,2.6-0.3,4.1c-1,2.5-0.5,5.4-0.2,8.2
					c0.5,5.4-0.7,9.2-1.3,13.5c-0.4,2.3,0.1,4.7-1.1,6.5c-0.8-6.4,0.8-15.1-0.3-21.8c-0.9-0.4-1.2,0.8-2,1.5
					c-0.3-1.4-1.3-1.7-1.5-3.3c-0.2-1.7,1.1-4.4-0.5-5c-1.9,0.6,0.2,5.5-1.1,6.7c-1.1-1.3-0.1-5.3-0.6-6.7c-2.1-0.2-1.8,2.6-1.3,4.1
					c-0.8,1,0.2,2.1,0.1,3.4c-0.1,2.2-1.7,4.7-2.3,6.5c0.3,2.4-0.1,5.6-1.1,8.2c-0.1-7.8-0.1-13.6-1.7-19.9c-0.9,0.2-1-0.4-1.7-0.4
					c-0.9,0.3-1.4,2.1-2.2,1.7c0.3-0.4,0.3-1.4-0.4-1.2l-0.8,0c-1.2,3.7-0.2,7.8-0.4,11.5c-0.1,2.6-0.6,5.3-0.9,7.7
					c-0.4,3.6-0.7,7.6-1.8,10.8c-0.2-10,0.9-18.9-0.4-28.1c-3.3,0.2-1.3,5.6-1.9,7c-0.9-1.1-2.4-1.3-3.7-1.4c-0.1-1,0.1-2.5-0.3-3.1
					c-2.8-0.1-1.3,2.5-1.4,4.1c-0.1,3.2-1.5,6.8-2.1,9.2c-0.8,3.5-0.6,7.5-1.9,10.4c-0.4-6.5,1.8-15.3,0.4-21.4
					c-0.1-2.1,0.1-4.7-0.3-6.5c0.5-0.7,0.7-2.8-0.7-2.6c-2,2,0.1,6.4-0.2,9.4c-3.1,3.5-2.6,10.8-4,16.2c-0.9-3.7,0.8-10.4-0.7-14.1
					c-0.9-0.1-0.9,0.7-1.6,0.3c-0.8,11.2,1.1,26.6-2.4,37.5c-0.1-5.9-0.3-11.9-0.3-17.3c0-9,0.6-18.7,0.3-27.8
					c-1.9,0.8-2,2.9-4.7,2.2c-0.4-0.4-0.1-1.5-0.8-1.4c-0.7,0.3-0.8,0-1.4,0.3c-1.3,1.4,0.1,4.4-1.1,5.8c0.6,9.1-2.4,19.5-4.2,28.2
					c-0.3-11.5,1.4-25.7,0.2-36c-0.6,0.2-0.8-0.2-1.2-0.2c-0.6,0.4-0.6,1.4-1,1.9c-0.1,0.8,0.8,0.3,0.6,1.2
					c-1.5,7.6-0.9,13.7-1.4,23.1c0.9-1.2,0.9-3.2,0.9-4.8c0.1-5.4,0.2-11.1,1.1-16.8c1,3.7,0.4,8.1,0.4,12.7
					c0,6.8-0.4,14.1-0.5,20.9c-0.1,5.2-2.3,9.4-2.9,14c-1.3,2.1-1.7,6.4-3.4,7.3c0.4-16.2,1.7-37.5,1.2-53.5
					c-3.8-0.4-0.8,4.1-2.6,5.6c1,3.5-1.5,10.3,0.2,13.2c-0.2-3.6,1-8.1,1.2-12c0.1-1.6-0.9-3.6,0.5-4.6c0.2,14.9-0.9,34.5-1.4,49
					c0,1,0.7,3-0.8,3.4c-1.1-11.2-0.8-23-1-34.5c-0.1-8.3,0.9-17.6-2.5-24.2c-3.8-0.9-3,3.5-4.9,4.9c0-1.2,0.3-1.6,0-2.6
					c-0.5,0-0.6,0.5-1,0c-0.8,1.2-1.4,2.5-0.8,4.1c-0.3,0.7-0.6,1.4-0.8,2.2c0.8,3.1-0.5,6.7-0.2,10.6c-1.4,3.5-1.4,8.5-3.1,11.6
					c-0.1-7.8,1.1-14.5,0.3-21.6l-1.4,0c-0.9,4.3-0.3,11.3-0.8,17.8c1.6-2.2,0.4-7.7,1.5-10.6c-0.2,16.3-1.1,31.6-1.6,45.4
					c0.6-0.2,0.5,0.3,1,0.2c1.4-1.8,1.2-5.4,1.5-8.4c-0.8-0.3,0,1.1-0.8,0.7c0-8.7-0.8-21.5,2.7-28.1c-0.2,7-1.7,16.1-1.3,23.1
					c1.1-6.6,1.1-13.4,1.8-19.9c0.3-3.4,0-7.1,1.3-9.1c-1,9.4,0,18.5-1.4,28.3c0.9,3.5-0.9,8.8,0.4,12.2c2.1,0.1,2.6-2.9,2.2-4.8
					c-0.8,0.1-0.2,1.8-1,1.9c-0.5-2.2,0.2-5,0.1-7.9c-0.3-11.4-0.4-27.2,0.9-37c0.4-2.7,2-9.3,3.3-10.6c0.4-0.4,1.5-1.6,2.1,0
					c-0.1,0.9-1.6,0.2-1.8,1c-0.4,5.7-0.5,15.1-0.7,20.7c1.4-3.5,0.6-8,1.5-12c0.2,12.7-0.1,26.1-0.4,39.4c0,0.7-0.4,0.9-0.6,1.4
					c1.4,1.8-0.4,5.6,0.3,8.6c-0.5,0.8-1.2,2.5-0.6,3.8l1.2,0c0.4-1.5,0.8-4,0.1-4.8c-0.2-1,0.8-0.7,0.8-1.5
					c-1.5-5.2-0.2-12.6-0.1-19.9c0.2-11.7-0.3-27,0.4-36c3.2,16,0.9,34.4,1.6,49.9c0.3,5.2,2,7.1,2.3,12c-1,0.4-1,3-0.5,4.3
					c2-0.1,2.4-3.1,2.8-5.3c0.2-1.3-0.1-2.8,0.6-3.8c-0.1-0.6-0.3-1-0.4-1.4c2-3.5,2.5-8.6,4.5-12.1c-0.4,10.6-1,16.6-1,25.9
					c2.9-0.1,2.6-5.1,2.8-7.5c-0.6,0.8-0.4,2.4-1.4,2.7c0.1-1,0.2-2,0.6-2.7c-1.7-15.9,0.7-30.9,4.4-44.2c0.2,1.4-0.2,3.5,0.3,4.6
					c1-5.4,0-12.6,2.4-17.3c-0.7,18-1.5,36.9-1.5,54.3c-0.4,2.2-1.5,6.3-0.3,8.6c0.2-0.4,0.5-0.5,1-0.5c-0.1-20.3,0.9-43,1.5-63.2
					c0.1-2-0.6-3.6,1.8-4.4c1.1,4.9,1.2,11,0.5,15.4c0.1,3.8,0.8,10.7-0.4,13.9c0,0.4,0.6,0.1,0.6,0.5c-1.4,7.2-0.3,17.9-1,25.2
					c0.6,0.9,1.6-0.6,1.9,0c0.2,1.8-0.5,3.2,0.3,4.3c-0.9,0.2-0.7,2.7-0.3,3.6c2,0.7,1.6-1.8,1.8-3.2c0.6-3.4,1.4-7.5,1-10.8
					c-0.5,2.1-0.1,5.3-1.5,6.5c-0.6-8.6,1.6-15,3.1-21.7c0.2-1-0.4-2.3,0.8-2.9c0.3,8.7-0.5,16.3,0.1,25.2c2.3,0.2,1.5-2.9,1.2-4.6
					c0.9,0.9,2-3.5,1.2-4.6c-0.5,0.8,0,2.8-1,3.1c-0.2-8.8-1.9-19.6,0.3-29.1c1.2-5.3,1.5-10.4,2.8-15.2c-0.1,4.2,0.9,8.3,0.5,13.2
					c-0.2,2-0.4,5-0.9,7.2c-0.1,0.3-0.6,0.7-0.6,1c-0.3,2.5,0,5.3-0.3,7.7c-0.1,1.1-0.8,1.9-1,3.1c-0.3,2.4,0.2,5.2-0.7,7.5
					c0.9-0.3,0.5,0.9,1.3,0.7c0.6-2,1.2-4,1.5-6.3c0.6,8-0.6,18-0.5,26.4c0.9-0.1,1,0.4,1.7,0c0.4-0.7,0.4-1.9,0.4-3.1
					c-0.2-0.3-0.6-0.5-0.6-0.9c-0.4-15.1,0.3-36.6,4.1-50.5c0.4,5.3-0.4,9.4-0.1,14.6c1-1.6,0.6-4.8,0.7-7.9
					c0.1-3.6,0.2-7.5,0.8-9.9c-0.2,13.7,0.5,26.9-0.6,40.1c0.7,4.6-0.5,10.3-0.1,17c1.9,0.5,1.7-2.4,2-4.1c0.5-2.8,1.4-6.2,0.7-8.4
					c-0.1,1.6-0.1,3.7-1.1,4.8c-0.5-1.7,0-3.7-0.1-5.8c-0.7-16.1,0.9-32.7-0.1-46.6c0.5-0.7,1-1.3,1.8-1.5
					C354.8,136.1,354.2,139.8,354.4,143.5z M440,202.1c-0.6,0-0.6-1.4,0.2-1.2C440.3,201.5,439.8,201.5,440,202.1z M437.9,201.2
					c-1.5-2.4,0.7-6.6-0.5-9.3c0.6-0.6-0.1-2.6,1-2.7C438.2,193.3,438.4,197.9,437.9,201.2z M417.8,195.7l-0.6,0
					c-0.1-1.2,0-2.2,0.5-2.7C418.4,193.7,417.5,194.7,417.8,195.7z M428.6,195.2c-1.7-1.6-0.7-5-1-7.4l0.8,0
					c0.6,1.5-0.8,3.9,0.4,5.3C427.6,193.3,428.5,194.3,428.6,195.2z M425.6,193.4c-0.9-0.3-0.2-2.5-0.5-3.6
					C426.2,190.3,425.3,191.8,425.6,193.4z M441.9,192.4c-0.7-0.4-0.3-1.1-0.3-1.9C442,190.8,442.3,191.9,441.9,192.4z M417.9,192.6
					c-0.4-3.3-1-8.6,0.7-10.8C418.3,184.8,418.1,188.6,417.9,192.6z M393.9,192.3c-2-9.5,0.5-20.8,1.3-30.5
					c0.4-4.1,0.2-8.2,1.4-11.6C396.2,164.5,395.3,179.1,393.9,192.3z M430.1,191.1c-0.2-4,0.5-10.3,0-15.4
					C431.9,179.5,430.5,186.6,430.1,191.1z M441.9,190.3c-0.1-2.6-0.1-5.1-1.1-7.9c0.7,0.1,0.8-0.1,2.1-0.3
					C442.8,185.2,442.6,188.4,441.9,190.3z M382.9,189.4c-0.4,0.1-0.6-0.1-0.8-0.2c0.3-0.6-0.1-1.8,0.8-1.7
					C383.3,188,382.7,188.5,382.9,189.4z M431.6,187c-0.7-0.1-0.3-1.1-0.3-1.7C431.9,185.4,431.5,186.5,431.6,187z M317.1,189.6
					c-0.6-1.1-0.3-3.6,1-4.3C317.7,186.9,317.2,188.1,317.1,189.6z M388,186.9c-0.2,0-0.4,0-0.4-0.2c0-16.5-1.2-34.3,1.3-50.4
					c0.9,0.7,0.8,1.9,0.9,2.9c0.2,4.2,0,8.9-0.1,13.4C389.5,164.1,388.7,175.9,388,186.9z M410.9,185.6c-0.3,0.1-0.4-0.2-0.6-0.2
					c0.3-5.5-0.5-11-0.7-17c-0.2-6.3,1.3-12.7,1.4-19c1.2,1.5,0.3,3.5,0.3,5.3C411.4,164.5,411.2,176.3,410.9,185.6z M411.5,184.4
					c-0.6-0.4,0.2-1.1-0.1-1.9C412.2,182.6,411.5,183.7,411.5,184.4z M372.7,185.3c-0.5-15.3-0.2-35.8,0.1-50.9
					c-0.3-1.2-0.9-3.6,0.1-4.3c1.4,1.9,0.2,4.7,0.4,7.4c0.2,3,1.1,6.2,0,9.1c1.3,5-0.1,12.4,0.2,18c0.1,1.6,0.6,3.1,0.5,4.6
					C373.8,174.2,373,178.8,372.7,185.3z M419.8,183.9c-0.7-0.4-0.2-2.4-0.3-3.1C420,181.4,419.6,183,419.8,183.9z M425.5,183.5
					c-0.5-0.1-0.1-1.2-0.3-1.7C426.3,181.7,425.9,183.2,425.5,183.5z M431.9,182.4c-0.9-0.3-0.3-2.5-0.5-3.6
					C432.3,179.1,431.7,181.3,431.9,182.4z M362.1,183.4c-1.1-2.2-0.1-4.7-0.2-7.2c-0.1-12.4-1.3-28-0.4-40.1
					c0.3-3.4,0.9-9.3,3.1-10.6c0.7,4.1,0,8.4,0.1,12.7c0.1,4,0.7,8,0.5,12c0,0.7-0.5,1.5-0.6,2.2c-0.2,4.7,0,9.4-0.3,13.9
					C363.7,172.1,362.3,177.6,362.1,183.4z M428.2,181.3c-0.7,0.3-0.3-0.7-0.4-1.2C428.3,180,428.5,180.9,428.2,181.3z M411.9,181.7
					c-0.8,0.1-0.4-1.9-0.3-2.2C412.1,179.8,411.7,181.1,411.9,181.7z M440.9,179.7c-1.1-12.1,0-23,0.2-33.6
					c1.3,4.2,0.4,10.6,1.3,15.3c0.2,0.9-0.8,0.4-0.6,1.2c2,3.7-0.3,9.3,1.2,14.1c-0.5,1-0.4,2.5-0.5,3.4
					C442,180.8,441.8,179.5,440.9,179.7z M379,181.4c-0.3,0.1-0.4-0.2-0.6-0.2c-0.2-10.4-0.9-24.2,2.1-34.4
					C380.1,157.5,379.7,169.8,379,181.4z M420.1,179.4c-0.9,0-0.3-1.8-0.5-2.6C420.4,176.7,419.8,178.6,420.1,179.4z M425.4,178.5
					c-0.9-0.9-0.1-2.4-0.3-3.8C425.8,175,425.6,177.7,425.4,178.5z M450.6,176.8c-0.6-0.3-0.4-1.7-0.3-2.4
					C450.8,174.7,450.4,176.1,450.6,176.8z M382.8,178.6c-0.2,0-0.4,0-0.4-0.2c-0.4-10.8,0.2-24,0.4-35.1c0-2.1-0.3-5-0.2-7.7
					c0.1-1.5-0.2-4.2,1.5-4.4c1.4,1.4,0.6,3.9,0.8,5.7C385.9,149.9,383.4,164.7,382.8,178.6z M334.9,178.2
					c-1.3-8.8,0.2-16.3,0.4-24.3C335.6,161.2,335.8,170.8,334.9,178.2z M430.5,174.7c-0.5,0-0.4-0.8-0.5-1.4
					C431,173.3,430.3,173.8,430.5,174.7z M436,174.3c-1.1-0.8-0.4-4.3-0.2-5.8C436.4,170.2,436.3,172.5,436,174.3z M414.8,174.9
					c-0.6-0.5-0.9-1.8-0.3-2.4C415.2,172.9,414.5,173.8,414.8,174.9z M439.9,173.5c-0.9-0.1-0.3-2-0.5-2.9
					C440.5,171,439.6,172.2,439.9,173.5z M434.3,173.2c-0.5-0.4-1.3-3.4-0.1-3.6L434.3,173.2z M403,173.8c-0.2-2.1-0.7-4.1-1.2-6.5
					c0.3,0.3,0.5,0.9,0.5,1.7c0.7-6.3-0.8-13.3,0.9-19.7C403.5,158.2,403.1,165.9,403,173.8z M406,173.2
					c-0.9-13.5-1.4-28.7-0.9-42.7c0.1-2.4-1.1-6.2,1.2-7.2c-0.5,2.9,1.4,5.8,0,7.4c1.1,1.6,0.6,4.6,0.6,7.4
					C406.9,149.7,407.6,161.1,406,173.2z M401.9,172.2c-0.8,0.2-0.5-1.5,0.2-1.2C402.1,171.5,402.1,171.9,401.9,172.2z M399.4,170.3
					l-0.6,0l0-1C399.3,169.3,399.4,169.7,399.4,170.3z M417.7,168.9c-1,0,0-1-0.3-1.7C417.9,167.4,418.1,168.4,417.7,168.9z
					 M430.5,168.3c-0.2,0-0.4,0-0.4-0.2c-0.2-4.6-0.5-9.5-0.2-14.2c0.1-1.6,0.3-3.8,1.1-5.1C431.3,154.5,431.6,162.2,430.5,168.3z
					 M355.4,170.1c-0.2,0-0.4,0-0.4-0.2c0.8-12,1-27.1,1.4-40.6c0.8,12.9,0.8,27.3-0.8,40.1C355.6,169.8,355.4,169.8,355.4,170.1z
					 M439.8,167.5c-1-2.1-0.3-6.2-0.7-9.1C440.1,160.5,439.4,164.6,439.8,167.5z M450.7,166.5c-0.2,0-0.4,0-0.4-0.2
					c-0.3-10.4-0.5-19.2-0.6-26.6C451.5,148.8,450.6,156.2,450.7,166.5z M374.8,168.5c-0.3,0.1-0.4-0.2-0.4-0.5
					c0.2-12.4,0.2-23.8,0.4-35.5c1,4.6,0.7,9.1,0.7,13.7c0,2.4,0.5,5,0.4,7.4c-0.3,4.4-1.3,8.9-0.7,13.9
					C374.8,167.6,375,168.3,374.8,168.5z M433.7,166.5c-0.8-1.9,0.6-4.7-0.2-7.7C434.9,160.5,434.6,164.8,433.7,166.5z M399.3,167.2
					c-0.2,0-0.4,0-0.4-0.2c-0.5-7.2-0.4-15-0.5-21.6c-0.1-4.6-1.3-9.5,0.3-14.2C398.8,142.5,399.4,153.5,399.3,167.2z M429,166.1
					c-0.5-0.2-0.1-1.3-0.3-1.9C429.6,164.5,428.8,165.3,429,166.1z M417.6,165.7c-0.2-10.9-1.9-24.4-0.8-35.5
					c0.1-1.4-0.3-3.4,1.1-3.9c0.3,0.5,0.5,2.2-0.4,2.2c0.7,2.1,0.8,3.6,0.4,5.5c-0.3,1.2,0,0.6,0.3,2.2c0.3,1.4-0.1,2.4-0.5,3.6
					c1.1,8.2-0.1,17.5,0.3,25.2C417.8,165.1,417.6,165.3,417.6,165.7z M469.6,163.2c-0.4-1.6-0.6-3.5,0-4.8
					C470.5,159.3,469.5,161.8,469.6,163.2z M412.4,164.4c-0.2-0.1-0.4-0.2-0.4-0.5c0.3-10-0.1-19.1,0.3-29.1
					C413.5,144.3,413,155.6,412.4,164.4z M408.7,164.5c-0.7,0.1-1-1.6,0-1.4L408.7,164.5z M426.8,162.8c-1.1-3.9-0.8-7.5-0.3-11.3
					C426.8,153.8,427.1,159.3,426.8,162.8z M409,161.4c-0.8-0.4-0.6-2-0.5-2.9C409.3,158.7,408.9,160.5,409,161.4z M428.4,160.2
					c-0.5-0.3-0.1-1.7-0.3-2.4C428.8,157.8,428.7,159.7,428.4,160.2z M376.9,161.5c-0.8,0-0.4-2.1,0.2-2.2
					C377.2,160.3,376.9,160.7,376.9,161.5z M497.4,156.7c-1-1.5-0.6-5.2,0.6-5.8C498,153.1,497.3,154.5,497.4,156.7z M490.8,156.3
					c-0.3-0.5-1.5-0.8-0.9-1.6c0.6-0.1,0.2,0.9,0.7,0.9c0.5-0.4-0.3-2.3,0.7-2.2C491.5,154.8,491.2,155.5,490.8,156.3z M466.3,156.8
					c-0.7-0.1-0.3-1.1,0-1.4C466.7,155.5,466.4,156.7,466.3,156.8z M439.5,157.2c-0.7-0.6-0.8-2.8-0.1-3.4L439.5,157.2z M409,158
					c-0.7,0.2-0.3-0.9-0.5-1.4C409.2,156.4,408.8,157.6,409,158z M377,158.8c-0.4-1.4-0.6-4.1,0.3-5.3
					C377.1,155.3,377.6,156.8,377,158.8z M435.5,157.1c-0.3,0.1-0.4-0.2-0.6-0.2c-0.2-0.7,0.3-0.6,0.2-1.2
					C435.6,155.7,435.5,156.4,435.5,157.1z M434.3,156.1c-0.8,0.1-0.3-1.5-0.5-2.1C434.6,153.9,434.1,155.5,434.3,156.1z
					 M492.6,153.8l-0.6,0c-0.5-0.6,0-1.6,0.6-1.7L492.6,153.8z M423.5,155.2c-0.1,0.1-1-1.8-0.3-2.2
					C424.1,153.3,423.5,154.5,423.5,155.2z M435.5,154.7c-0.7-0.6-0.8-4.4-0.1-5L435.5,154.7z M495.2,152.5l-0.4,0
					c-1.5-2.4,0.2-7.9-0.4-10.8c0.5-0.3,0.3-1.4,1.2-1.2C495.5,144.5,495.5,148.6,495.2,152.5z M339.6,156.7l-0.6,0
					c0-4.5,0.1-8.1,0.6-11.1C340.8,149,339.3,152.7,339.6,156.7z M366.2,154.5c-0.9-2.2,0.3-6.1,0.2-8.9
					C366.9,148.3,366.8,152.3,366.2,154.5z M423.4,152.6c-0.5-0.2-0.5-1.2,0.2-1.2C423.7,152,423.6,152.3,423.4,152.6z M443.2,151.3
					c-0.8,0-0.5-2.2,0.1-2.2C443.4,150,443.3,150.7,443.2,151.3z M483.5,149.1c-0.4-0.5,0-1.7,0.6-1.9
					C484,147.9,484.4,149.2,483.5,149.1z M394.8,151.7c-0.3,0-0.5-1.8,0.2-1.4C395,150.8,395,151.4,394.8,151.7z M426.7,150.6
					c-0.6-0.1-0.8-2.8,0.1-2.6C426.9,148.9,426.9,149.9,426.7,150.6z M443.1,148.7c-0.2-0.1-0.2-0.5-0.4-0.5
					c0.1-5.1-0.9-10.7-0.1-15.6C442.9,138.6,443.3,142.8,443.1,148.7z M400.1,149.9c-0.8-0.2-0.5-2.8-0.3-3.4
					C400.3,147.2,399.9,148.8,400.1,149.9z M423.3,149c-0.7-0.2-0.5-2.5-0.5-2.9C423.2,146.9,423.2,148,423.3,149z M467.8,146.5
					c-0.9-0.3,0-1.6-0.1-2.4C468.2,144.5,467.9,145.9,467.8,146.5z M393.5,148.6c-0.2,0-0.4,0-0.4-0.2c0.1-6.1-0.3-13.5-0.1-18.7
					c0.9,0.5,0.9,2.4,0.9,3.6C394,137.9,393.8,144.3,393.5,148.6z M335.4,149.9c-0.5,0-0.1-1-0.2-1.4
					C335.7,148.4,335.7,149.5,335.4,149.9z M464.5,146.3c-0.7-0.1-0.4-1.6-0.3-2.2C464.7,144.4,464.3,145.7,464.5,146.3z M428,147.2
					c-0.7-1.7-0.5-6.1-0.4-8.2C428.4,140.8,428.2,145,428,147.2z M426.6,147.2c-0.7,0-0.5-1.8-0.3-2.2
					C426.6,145.6,426.9,146.8,426.6,147.2z M475.2,145.5c-0.8-0.6,0.1-2.3-0.1-3.1C475.5,142.9,475.4,144.9,475.2,145.5z
					 M426.5,144.8c-0.8,0.1-0.4-1.9-0.3-2.2C426.6,143.3,426.7,144.2,426.5,144.8z M400.1,144.1c-0.6-6.2-1.7-14.9-0.3-19.9
					c1,4.9-0.2,13.1,0.5,19.2C400.4,143.8,400.1,143.8,400.1,144.1z M340,145.2c-1.1-0.5-0.9-4.7,0.1-5
					C340.1,141.8,340.4,143.9,340,145.2z M468.2,140.4c-0.4,0.1-0.7-1.1-0.2-1.2C468.7,139,468.3,140.3,468.2,140.4z M377.3,143
					c-0.8-0.3-0.1-1.2-0.5-2.1C377.6,140.7,377.1,142.3,377.3,143z M413.9,140.9c-0.2,0-0.4,0-0.4-0.2c-0.3-2.8-0.3-6.1-0.2-9.1
					c0-2.3-0.8-5.3,0.6-6.7C414.2,130.3,413.9,136.6,413.9,140.9z M450,139.1c-0.5-0.5-0.7-2.6-0.3-3.4
					C450.1,136.4,449.9,138.1,450,139.1z M419.4,139.3c-0.9-0.4-0.2-2.8-0.5-4.1C419.7,135.7,419.1,138,419.4,139.3z M430.7,138.2
					c0,0.3-0.4,0.2-0.6,0.3c-0.6-2.8-0.2-6.4,0.4-8.7C431.2,131.8,429.6,135.9,430.7,138.2z M339.9,139.5c-0.5-0.3-0.9-3.2,0.1-3.1
					C340,137.4,340.3,138.8,339.9,139.5z M300.6,139.9c-0.8,0.2-0.3-1.4,0.2-1.2C301,139.4,300.5,139.3,300.6,139.9z M456.9,135.5
					c-0.7,0.3-0.3-0.7-0.4-1.2C457.1,134.3,457.1,135.3,456.9,135.5z M449.9,135c-1-2-1.1-6.8-0.1-8.6
					C449.8,129.2,450.3,132.6,449.9,135z M372,137.1c-1-0.2-0.8-3.3-0.1-3.6L372,137.1z M455.8,134.1c-0.5,0.1-0.5-0.4-1-0.2
					c-0.1-4.5-0.1-10.9,0.3-15.6C455.7,122.9,456.3,129.2,455.8,134.1z M387.8,136c-0.3,0.1-0.4-0.2-0.6-0.2c0-0.6,0.3-0.8,0.4-1.2
					C388,134.6,387.7,135.6,387.8,136z M386.7,134.8c-0.5,0-0.5-0.9-0.2-1.2C386.9,133.9,387.1,134.5,386.7,134.8z M437.3,132.5
					l-0.6,0c0.1-1.2,0.2-2-0.1-3.1C437.6,129.4,436.7,131.4,437.3,132.5z M381.9,130.9l-0.6,0c0-1.3-0.2-2.9,0.3-3.6
					C382.4,127.7,382.1,130.1,381.9,130.9z M330.1,131.5c-1-0.6-0.3-3,0.6-3.1C330.8,129.7,330.2,130.3,330.1,131.5z M440,126.9
					c-0.8-0.3,0-1.5-0.3-2.6C440.4,124.6,440.2,126.2,440,126.9z M428.9,127.2c-0.7-2.3-1.1-8.2,0.5-10.3
					C429.6,120.1,429.4,123.8,428.9,127.2z M442,126.4c-0.8-0.8-0.7-2.8-0.8-4.5C442.3,122.1,441.8,124.6,442,126.4z M323.7,128.7
					l-0.6,0c0-0.8-0.1-1.7,0.4-1.9C324.4,126.8,323.6,128.1,323.7,128.7z M381.8,126.8c-1.2-0.9-0.3-4.6-0.1-6.2
					C382.1,122.1,382.1,125.2,381.8,126.8z M443.8,124.9c-1-0.7-0.6-2.8-0.5-3.8C444.1,121.6,444.1,123.8,443.8,124.9z M398.6,122.8
					l-0.8,0c0.1-1,0.4-1.7,0.5-2.7C399,120.8,398.4,121.5,398.6,122.8z M421.9,119.8c-0.8-0.2-0.4-1.8-0.3-2.4
					C422.3,118,421.7,118.5,421.9,119.8z M397.4,118c-0.6,0-0.8-1.3-0.5-1.7C397.5,116.5,397.8,117.5,397.4,118z M429.6,115.2
					c-0.9-0.4-0.1-1.6-0.3-2.6C430.6,112.7,429.4,114.3,429.6,115.2z"/>
			</g>
		</g>
	</g>
</g>
<g id="Layer_2">
</g>
</svg>
