<svg xmlns="http://www.w3.org/2000/svg" viewBox="0 0 747.71 243.21"><defs><style>.cls-1,.cls-2{fill:#fff;}.cls-1,.cls-3{opacity:0.5;}.cls-3{fill:#ef3d5a;}.cls-4{fill:#231f20;}.cls-5{fill:#2e307d;}.cls-6{fill:#d181b6;}</style></defs><title>flowchart_1</title><g id="Layer_2" data-name="Layer 2"><g id="Layer_1-2" data-name="Layer 1"><rect class="cls-1" y="109.43" width="98.95" height="28.35" rx="14.17"/><rect class="cls-2" x="671.96" y="107.38" width="75.75" height="28.35" rx="14.17"/><rect class="cls-3" x="671.96" y="107.38" width="75.75" height="28.35" rx="14.17"/><path class="cls-4" d="M690.83,120.83c0,.15,0,.33,0,.4a3.25,3.25,0,0,1-.72,2.21,3.21,3.21,0,0,1-2.61,1.27,3.6,3.6,0,0,1,0-7.19,3.24,3.24,0,0,1,2.61,1.26l-.65.53a3,3,0,0,0-.59-.55,2.33,2.33,0,0,0-1.37-.44,2.81,2.81,0,0,0,0,5.59,2.54,2.54,0,0,0,2-1,2.42,2.42,0,0,0,.44-1.31h-2.41v-.75Z"/><path class="cls-4" d="M692.54,122.44a1.48,1.48,0,0,0,.31.88,1.57,1.57,0,0,0,1.29.65,1.65,1.65,0,0,0,1.43-.82l.7.26a2.35,2.35,0,0,1-2.13,1.29,2.51,2.51,0,1,1,2.4-2.57c0,.06,0,.2,0,.31Zm3.16-.58a1.54,1.54,0,0,0-.27-.82,1.63,1.63,0,0,0-1.32-.66,1.53,1.53,0,0,0-1.29.67,1.84,1.84,0,0,0-.27.81Z"/><path class="cls-4" d="M698.45,123.61c0,.24.07.29.36.29h.36v.69h-.73c-.57,0-.78-.22-.78-.75v-3.35H697v-.7h.67v-1.51h.79v1.51h.72v.7h-.72Z"/><path class="cls-4" d="M705.64,121.1v0c0-.45-.37-.73-.92-.73s-.86.27-.86.69.21.57,1.07.81a2.54,2.54,0,0,1,1.17.55,1.33,1.33,0,0,1,.38.94c0,.83-.69,1.39-1.71,1.39a1.56,1.56,0,0,1-1.79-1.48h.78a.9.9,0,0,0,1,.84c.55,0,.9-.28.9-.71s-.27-.63-1.09-.83c-1-.28-1.51-.72-1.51-1.45s.67-1.39,1.68-1.39,1.64.52,1.68,1.42Z"/><path class="cls-4" d="M712.19,122.2a2.45,2.45,0,0,1-2.45,2.5,2.51,2.51,0,1,1,2.45-2.5Zm-4.06,0a1.62,1.62,0,0,0,1.63,1.78,1.64,1.64,0,0,0,1.62-1.78,1.63,1.63,0,1,0-3.25,0Z"/><path class="cls-4" d="M713.4,124.59v-6.94h.79v6.94Z"/><path class="cls-4" d="M719.38,119.79v3.07a1.59,1.59,0,0,1-.48,1.34,2.08,2.08,0,0,1-1.39.5,2,2,0,0,1-1.38-.51,1.72,1.72,0,0,1-.48-1.33v-3.07h.79v3a1.06,1.06,0,0,0,1.07,1.15,1.15,1.15,0,0,0,.86-.36,1.09,1.09,0,0,0,.2-.77v-3.07Z"/><path class="cls-4" d="M721.67,123.61c0,.24.08.29.37.29h.36v.69h-.74c-.56,0-.78-.22-.78-.75v-3.35h-.66v-.7h.66v-1.51h.79v1.51h.73v.7h-.73Z"/><path class="cls-4" d="M724.36,118.45a.5.5,0,0,1-.51.5.51.51,0,0,1,0-1A.51.51,0,0,1,724.36,118.45Zm-.12,6.14h-.79v-4.8h.79Z"/><path class="cls-4" d="M730.33,122.2a2.45,2.45,0,0,1-2.45,2.5,2.51,2.51,0,1,1,2.45-2.5Zm-4.07,0A1.63,1.63,0,0,0,727.9,124a1.64,1.64,0,0,0,1.62-1.78,1.61,1.61,0,0,0-1.61-1.79A1.63,1.63,0,0,0,726.26,122.19Z"/><path class="cls-4" d="M732.33,119.79v.68a1.62,1.62,0,0,1,1.43-.79,1.67,1.67,0,0,1,1.11.39,1.57,1.57,0,0,1,.41,1.28v3.24h-.79v-3.06a1.32,1.32,0,0,0-.18-.82.93.93,0,0,0-.75-.33,1.22,1.22,0,0,0-.92.41,1.13,1.13,0,0,0-.31.87v2.93h-.79v-4.8Z"/><rect class="cls-2" x="340.84" y="171.29" width="66.01" height="28.35"/><path class="cls-5" d="M407.35,200.13h-67V170.79h67Zm-66-1h65V171.79h-65Z"/><path class="cls-4" d="M353.86,186.63a1.13,1.13,0,0,0,1.23,1.21,1.21,1.21,0,0,0,1.33-1.18c0-.6-.31-.88-1.4-1.24a3.59,3.59,0,0,1-1.4-.7,1.72,1.72,0,0,1-.55-1.31,2.07,2.07,0,0,1,4.14,0h-.88a1.27,1.27,0,0,0-.17-.72,1.2,1.2,0,0,0-1-.49,1.11,1.11,0,0,0-1.17,1.13,1,1,0,0,0,.39.81,4.47,4.47,0,0,0,1.12.48,3.12,3.12,0,0,1,1.37.75,1.81,1.81,0,0,1,.47,1.23,2,2,0,0,1-2.19,2,2,2,0,0,1-1.85-.94,1.76,1.76,0,0,1-.24-.9v-.15Z"/><path class="cls-4" d="M359,186.35a1.48,1.48,0,0,0,.31.88,1.57,1.57,0,0,0,1.29.65,1.65,1.65,0,0,0,1.43-.82l.7.26a2.34,2.34,0,0,1-2.13,1.29A2.52,2.52,0,1,1,363,186c0,.06,0,.2,0,.31Zm3.16-.58a1.43,1.43,0,0,0-.27-.82,1.63,1.63,0,0,0-1.32-.66,1.53,1.53,0,0,0-1.29.67,1.79,1.79,0,0,0-.27.81Z"/><path class="cls-4" d="M364.11,188.5v-6.95h.79v6.95Z"/><path class="cls-4" d="M367,186.35a1.48,1.48,0,0,0,.31.88,1.57,1.57,0,0,0,1.29.65,1.65,1.65,0,0,0,1.43-.82l.7.26a2.34,2.34,0,0,1-2.13,1.29A2.52,2.52,0,1,1,371,186c0,.06,0,.2,0,.31Zm3.16-.58a1.43,1.43,0,0,0-.27-.82,1.63,1.63,0,0,0-1.32-.66,1.53,1.53,0,0,0-1.29.67,1.79,1.79,0,0,0-.27.81Z"/><path class="cls-4" d="M375.83,187.9a2.45,2.45,0,0,1-1.77.71,2.34,2.34,0,0,1-2.35-2.5,2.42,2.42,0,0,1,4.14-1.81l-.51.51a1.76,1.76,0,0,0-1.21-.5,1.8,1.8,0,0,0,0,3.57,1.67,1.67,0,0,0,1.22-.52Z"/><path class="cls-4" d="M377.87,187.52c0,.24.08.29.37.29h.36v.69h-.74c-.56,0-.78-.22-.78-.75v-3.36h-.66v-.69h.66v-1.51h.79v1.51h.73v.69h-.73Z"/><path class="cls-4" d="M383.72,188.5h-.79v-4.11h-.65v-.69h.65v-.65c0-.94.49-1.51,1.32-1.51h.22v.71c-.57.06-.73.23-.75.79v.65h.75v.69h-.75Z"/><path class="cls-4" d="M386.38,182.36a.5.5,0,0,1-.51.49.49.49,0,0,1-.5-.51.49.49,0,0,1,.51-.51A.51.51,0,0,1,386.38,182.36Zm-.12,6.14h-.79v-4.8h.79Z"/><path class="cls-4" d="M387.85,188.5v-6.95h.79v6.95Z"/><path class="cls-4" d="M390.69,186.35a1.55,1.55,0,0,0,.32.88,1.57,1.57,0,0,0,1.29.65,1.65,1.65,0,0,0,1.43-.82l.7.26a2.36,2.36,0,0,1-2.13,1.29,2.52,2.52,0,1,1,2.4-2.57c0,.06,0,.2,0,.31Zm3.17-.58a1.51,1.51,0,0,0-.27-.82,1.63,1.63,0,0,0-1.32-.66,1.55,1.55,0,0,0-1.3.67,2.07,2.07,0,0,0-.27.81Z"/><rect class="cls-2" x="258.05" y="171.29" width="66.01" height="28.35"/><path class="cls-5" d="M324.56,200.13h-67V170.79h67Zm-66-1h65V171.79h-65Z"/><path class="cls-4" d="M279.87,182.36a.51.51,0,1,1-.5-.53A.51.51,0,0,1,279.87,182.36Zm-.11,6.14H279v-4.8h.8Z"/><path class="cls-4" d="M282.14,183.7v.67a1.63,1.63,0,0,1,1.42-.79,1.68,1.68,0,0,1,1.12.4,1.56,1.56,0,0,1,.4,1.28v3.24h-.79v-3.06a1.3,1.3,0,0,0-.18-.83.92.92,0,0,0-.74-.32,1.2,1.2,0,0,0-.92.41,1.13,1.13,0,0,0-.31.87v2.93h-.79v-4.8Z"/><path class="cls-4" d="M290.18,183.7l-1.81,4.8h-.83l-1.76-4.8h.83l1.36,3.66,1.39-3.66Z"/><path class="cls-4" d="M291.92,182.36a.51.51,0,1,1-.5-.53A.51.51,0,0,1,291.92,182.36Zm-.11,6.14H291v-4.8h.8Z"/><path class="cls-4" d="M294.24,187.52c0,.24.07.29.37.29H295v.69h-.74c-.56,0-.78-.22-.78-.75v-3.36h-.67v-.69h.67v-1.51h.79v1.51H295v.69h-.73Z"/><path class="cls-4" d="M296.46,186.35a1.48,1.48,0,0,0,.31.88,1.57,1.57,0,0,0,1.29.65,1.67,1.67,0,0,0,1.44-.82l.69.26a2.34,2.34,0,0,1-2.13,1.29,2.52,2.52,0,1,1,2.4-2.57c0,.06,0,.2,0,.31Zm3.16-.58a1.43,1.43,0,0,0-.27-.82,1.63,1.63,0,0,0-1.32-.66,1.53,1.53,0,0,0-1.29.67,1.79,1.79,0,0,0-.27.81Z"/><rect class="cls-2" x="423.29" y="171.29" width="66.01" height="28.35"/><path class="cls-5" d="M489.79,200.13h-67V170.79h67Zm-66-1h65V171.79h-65Z"/><path class="cls-4" d="M434.61,186.63a1.13,1.13,0,0,0,1.23,1.21,1.21,1.21,0,0,0,1.33-1.18c0-.6-.31-.88-1.41-1.24a3.59,3.59,0,0,1-1.4-.7,1.75,1.75,0,0,1-.54-1.31,2.07,2.07,0,0,1,4.13,0h-.87a1.36,1.36,0,0,0-.17-.72,1.21,1.21,0,0,0-1-.49,1.11,1.11,0,0,0-1.18,1.13,1,1,0,0,0,.4.81,4.52,4.52,0,0,0,1.11.48,3.23,3.23,0,0,1,1.38.75,1.8,1.8,0,0,1,.46,1.23,2,2,0,0,1-2.18,2,1.93,1.93,0,0,1-1.85-.94,1.67,1.67,0,0,1-.24-.9v-.15Z"/><path class="cls-4" d="M439.76,186.35a1.54,1.54,0,0,0,.31.88,1.58,1.58,0,0,0,1.29.65,1.65,1.65,0,0,0,1.44-.82l.7.26a2.47,2.47,0,1,1-2.17-3.74,2.39,2.39,0,0,1,2.44,2.46c0,.06,0,.2,0,.31Zm3.16-.58a1.43,1.43,0,0,0-.27-.82,1.63,1.63,0,0,0-1.32-.66A1.53,1.53,0,0,0,440,185a1.92,1.92,0,0,0-.27.81Z"/><path class="cls-4" d="M444.85,188.5v-6.95h.79v6.95Z"/><path class="cls-4" d="M447.69,186.35a1.54,1.54,0,0,0,.31.88,1.58,1.58,0,0,0,1.29.65,1.65,1.65,0,0,0,1.44-.82l.7.26a2.47,2.47,0,1,1-2.17-3.74A2.39,2.39,0,0,1,451.7,186c0,.06,0,.2,0,.31Zm3.16-.58a1.43,1.43,0,0,0-.27-.82,1.63,1.63,0,0,0-1.32-.66A1.53,1.53,0,0,0,448,185a1.92,1.92,0,0,0-.27.81Z"/><path class="cls-4" d="M456.58,187.9a2.45,2.45,0,0,1-1.77.71,2.52,2.52,0,0,1,0-5,2.37,2.37,0,0,1,1.75.72l-.51.51a1.77,1.77,0,0,0-1.22-.5,1.8,1.8,0,0,0,0,3.57,1.7,1.7,0,0,0,1.23-.52Z"/><path class="cls-4" d="M458.62,187.52c0,.24.07.29.36.29h.37v.69h-.74c-.56,0-.78-.22-.78-.75v-3.36h-.67v-.69h.67v-1.51h.79v1.51h.73v.69h-.73Z"/><path class="cls-4" d="M464.44,187.52c0,.24.07.29.36.29h.36v.69h-.74c-.56,0-.78-.22-.78-.75v-3.36H463v-.69h.66v-1.51h.8v1.51h.72v.69h-.72Z"/><path class="cls-4" d="M470.69,186.11a2.45,2.45,0,0,1-2.46,2.5,2.52,2.52,0,1,1,2.46-2.5Zm-4.07,0a1.63,1.63,0,0,0,1.64,1.78,1.64,1.64,0,0,0,1.62-1.78,1.64,1.64,0,1,0-3.26,0Z"/><path class="cls-4" d="M476.39,186.11a2.45,2.45,0,0,1-2.45,2.5,2.52,2.52,0,1,1,2.45-2.5Zm-4.07,0a1.64,1.64,0,1,0,1.65-1.79A1.63,1.63,0,0,0,472.32,186.1Z"/><path class="cls-4" d="M477.6,188.5v-6.95h.79v6.95Z"/><rect class="cls-2" x="193.89" y="49.85" width="96.57" height="28.35"/><path class="cls-5" d="M291,78.7H193.39V49.35H291Zm-96.57-1H290V50.35H194.39Z"/><rect class="cls-2" x="143.08" y="171.29" width="98.19" height="28.35"/><path class="cls-5" d="M241.77,200.13H142.58V170.79h99.19Zm-98.19-1h97.19V171.79H143.58Z"/><path class="cls-4" d="M206.13,65.46l-.63,1.6h-.91l2.62-6.94h1l2.55,6.94h-1l-.57-1.6Zm1.58-4.23-1.31,3.48H209Z"/><path class="cls-4" d="M215.34,66.47a2.45,2.45,0,0,1-1.76.71,2.52,2.52,0,0,1,0-5,2.39,2.39,0,0,1,1.75.72l-.51.51a1.79,1.79,0,0,0-1.22-.5,1.8,1.8,0,0,0,0,3.57,1.7,1.7,0,0,0,1.23-.52Z"/><path class="cls-4" d="M219.92,66.47a2.45,2.45,0,0,1-1.76.71,2.52,2.52,0,0,1,0-5,2.39,2.39,0,0,1,1.75.72l-.51.51a1.79,1.79,0,0,0-1.22-.5,1.8,1.8,0,0,0,0,3.57,1.7,1.7,0,0,0,1.23-.52Z"/><path class="cls-4" d="M221.23,64.92a1.45,1.45,0,0,0,.31.87,1.55,1.55,0,0,0,1.29.66,1.65,1.65,0,0,0,1.43-.82l.7.26a2.35,2.35,0,0,1-2.13,1.29,2.52,2.52,0,1,1,2.4-2.57c0,.06,0,.2,0,.31Zm3.16-.58a1.46,1.46,0,0,0-.27-.83,1.65,1.65,0,0,0-1.32-.65,1.53,1.53,0,0,0-1.29.67,1.75,1.75,0,0,0-.27.81Z"/><path class="cls-4" d="M227.17,62.27v.87a1.85,1.85,0,0,1,1.75-1,2.27,2.27,0,0,1,2.25,2.48,2.3,2.3,0,0,1-2.25,2.55,2.35,2.35,0,0,1-1-.25,1.68,1.68,0,0,1-.7-.62v3h-.79v-7Zm0,2.47a1.58,1.58,0,0,0,1.58,1.75,1.63,1.63,0,0,0,1.58-1.83,1.86,1.86,0,0,0-.41-1.3,1.58,1.58,0,0,0-1.14-.5A1.67,1.67,0,0,0,227.17,64.74Z"/><path class="cls-4" d="M233.17,66.08c0,.24.08.3.37.3h.36v.68h-.74c-.56,0-.78-.22-.78-.75V63h-.66v-.69h.66V60.76h.79v1.51h.73V63h-.73Z"/><path class="cls-4" d="M239.05,60.92a.5.5,0,0,1-.51.5.49.49,0,0,1-.5-.51.5.5,0,0,1,.51-.51A.51.51,0,0,1,239.05,60.92Zm-.11,6.14h-.79V62.27h.79Z"/><path class="cls-4" d="M241.32,62.27v.67a1.65,1.65,0,0,1,1.43-.79,1.67,1.67,0,0,1,1.11.4,1.56,1.56,0,0,1,.4,1.28v3.23h-.79V64a1.37,1.37,0,0,0-.17-.82.93.93,0,0,0-.75-.32,1.19,1.19,0,0,0-.92.4,1.14,1.14,0,0,0-.31.88v2.92h-.79V62.27Z"/><path class="cls-4" d="M249.37,62.27l-1.82,4.79h-.83L245,62.27h.84l1.35,3.66,1.39-3.66Z"/><path class="cls-4" d="M251.1,60.92a.51.51,0,0,1-1,0,.5.5,0,0,1,.51-.51A.51.51,0,0,1,251.1,60.92ZM251,67.06h-.79V62.27H251Z"/><path class="cls-4" d="M253.42,66.08c0,.24.08.3.37.3h.36v.68h-.74c-.56,0-.78-.22-.78-.75V63H252v-.69h.66V60.76h.79v1.51h.73V63h-.73Z"/><path class="cls-4" d="M258.8,62.27h.79v4.79h-.79v-.92a2,2,0,0,1-1.74,1,2.29,2.29,0,0,1-2.26-2.5,2.33,2.33,0,0,1,2.28-2.53,2,2,0,0,1,1.72.91ZM256,63.43a2.2,2.2,0,0,0-.4,1.27,1.65,1.65,0,0,0,1.54,1.79,1.77,1.77,0,0,0,1.64-1.87,1.62,1.62,0,0,0-1.62-1.76A1.31,1.31,0,0,0,256,63.43Z"/><path class="cls-4" d="M262,66.08c0,.24.07.3.36.3h.37v.68H262c-.56,0-.78-.22-.78-.75V63h-.67v-.69h.67V60.76H262v1.51h.73V63H262Z"/><path class="cls-4" d="M264.68,60.92a.51.51,0,0,1-1,0,.51.51,0,1,1,1,0Zm-.11,6.14h-.79V62.27h.79Z"/><path class="cls-4" d="M270.66,64.68a2.45,2.45,0,0,1-2.46,2.5,2.52,2.52,0,1,1,2.46-2.5Zm-4.07,0a1.62,1.62,0,0,0,1.63,1.78,1.65,1.65,0,0,0,1.63-1.78,1.64,1.64,0,1,0-3.26,0Z"/><path class="cls-4" d="M272.66,62.27v.67a1.63,1.63,0,0,1,1.42-.79,1.7,1.7,0,0,1,1.12.4,1.56,1.56,0,0,1,.4,1.28v3.23h-.79V64a1.29,1.29,0,0,0-.18-.82.9.9,0,0,0-.75-.32,1.18,1.18,0,0,0-.91.4,1.14,1.14,0,0,0-.31.88v2.92h-.79V62.27Z"/><path class="cls-4" d="M155.74,187.44a3,3,0,0,1-2.54,1.18,3.1,3.1,0,0,1-2.39-1,3.94,3.94,0,0,1-.92-2.57,3.36,3.36,0,0,1,3.32-3.6,3.43,3.43,0,0,1,1.74.47,3.5,3.5,0,0,1,.81.72l-.61.56a2.43,2.43,0,0,0-1.92-1,2.82,2.82,0,0,0,0,5.59,2.29,2.29,0,0,0,1.88-1Z"/><path class="cls-4" d="M161.25,186.11a2.45,2.45,0,0,1-2.45,2.5,2.52,2.52,0,1,1,2.45-2.5Zm-4.07,0a1.63,1.63,0,0,0,1.64,1.78,1.64,1.64,0,0,0,1.62-1.78,1.61,1.61,0,0,0-1.61-1.79A1.63,1.63,0,0,0,157.18,186.1Z"/><path class="cls-4" d="M162.46,188.5v-6.95h.79v6.95Z"/><path class="cls-4" d="M164.84,188.5v-6.95h.79v6.95Z"/><path class="cls-4" d="M170.85,183.7h.79v4.8h-.79v-.93a2,2,0,0,1-1.75,1,2.3,2.3,0,0,1-2.26-2.5,2.33,2.33,0,0,1,2.28-2.53,2,2,0,0,1,1.73.91Zm-2.78,1.16a2.2,2.2,0,0,0-.4,1.27,1.65,1.65,0,0,0,1.54,1.79,1.77,1.77,0,0,0,1.65-1.87,1.62,1.62,0,0,0-1.63-1.76A1.31,1.31,0,0,0,168.07,184.86Z"/><path class="cls-4" d="M174,188.5h-.79v-6.95H174v3a2,2,0,0,1,1.69-.94,2.31,2.31,0,0,1,2.28,2.53,2.28,2.28,0,0,1-2.24,2.5,2,2,0,0,1-1.73-.94Zm0-2.4a1.59,1.59,0,1,0,3.14,0,1.59,1.59,0,1,0-3.14,0Z"/><path class="cls-4" d="M183.69,186.11a2.45,2.45,0,0,1-2.46,2.5,2.52,2.52,0,1,1,2.46-2.5Zm-4.07,0a1.63,1.63,0,0,0,1.64,1.78,1.64,1.64,0,0,0,1.62-1.78,1.64,1.64,0,1,0-3.26,0Z"/><path class="cls-4" d="M185.69,183.7v.81a1.36,1.36,0,0,1,.44-.64,1.52,1.52,0,0,1,.91-.29h.19v.8H187a1.22,1.22,0,0,0-1,.56,1.74,1.74,0,0,0-.28,1.13v2.44h-.79v-4.8Z"/><path class="cls-4" d="M191.66,183.7h.79v4.8h-.79v-.93a2,2,0,0,1-1.75,1,2.3,2.3,0,0,1-2.26-2.5,2.33,2.33,0,0,1,2.28-2.53,2,2,0,0,1,1.73.91Zm-2.78,1.16a2.2,2.2,0,0,0-.39,1.27,1.64,1.64,0,0,0,1.54,1.79,1.77,1.77,0,0,0,1.64-1.87,1.62,1.62,0,0,0-1.62-1.76A1.32,1.32,0,0,0,188.88,184.86Z"/><path class="cls-4" d="M194.86,187.52c0,.24.07.29.36.29h.37v.69h-.74c-.57,0-.78-.22-.78-.75v-3.36h-.67v-.69h.67v-1.51h.79v1.51h.73v.69h-.73Z"/><path class="cls-4" d="M197.54,182.36a.51.51,0,1,1-.5-.53A.51.51,0,0,1,197.54,182.36Zm-.11,6.14h-.79v-4.8h.79Z"/><path class="cls-4" d="M203.51,186.11a2.45,2.45,0,0,1-2.45,2.5,2.52,2.52,0,1,1,2.45-2.5Zm-4.06,0a1.62,1.62,0,0,0,1.63,1.78,1.64,1.64,0,0,0,1.62-1.78,1.63,1.63,0,1,0-3.25,0Z"/><path class="cls-4" d="M205.51,183.7v.67a1.71,1.71,0,0,1,2.54-.39,1.56,1.56,0,0,1,.41,1.28v3.24h-.79v-3.06a1.3,1.3,0,0,0-.18-.83,1,1,0,0,0-.75-.32,1.18,1.18,0,0,0-.91.41,1.12,1.12,0,0,0-.32.87v2.93h-.79v-4.8Z"/><path class="cls-4" d="M213.93,183.7v.81a1.43,1.43,0,0,1,.44-.64,1.55,1.55,0,0,1,.92-.29h.18v.8h-.22a1.23,1.23,0,0,0-1,.56,1.8,1.8,0,0,0-.28,1.13v2.44h-.79v-4.8Z"/><path class="cls-4" d="M220.77,186.11a2.45,2.45,0,0,1-2.46,2.5,2.52,2.52,0,1,1,2.46-2.5Zm-4.07,0a1.62,1.62,0,0,0,1.63,1.78A1.65,1.65,0,0,0,220,186.1a1.64,1.64,0,1,0-3.26,0Z"/><path class="cls-4" d="M226.47,186.11a2.45,2.45,0,0,1-2.45,2.5,2.52,2.52,0,1,1,2.45-2.5Zm-4.07,0a1.63,1.63,0,0,0,1.64,1.78,1.64,1.64,0,0,0,1.62-1.78,1.61,1.61,0,0,0-1.61-1.79A1.63,1.63,0,0,0,222.4,186.1Z"/><path class="cls-4" d="M228.47,183.7v.66a1.49,1.49,0,0,1,1.36-.78,1.23,1.23,0,0,1,1.29.88,1.57,1.57,0,0,1,1.52-.88,1.46,1.46,0,0,1,1.22.51,1.9,1.9,0,0,1,.29,1.33v3.08h-.79v-2.89c0-.58,0-.72-.13-.91a1,1,0,0,0-.84-.41c-.69,0-1.08.47-1.08,1.32v2.89h-.79v-2.88a1.71,1.71,0,0,0-.16-.91.82.82,0,0,0-.78-.42c-.69,0-1.11.5-1.11,1.33v2.88h-.79v-4.8Z"/><rect class="cls-2" x="339.95" y="49.85" width="129.34" height="28.35"/><path class="cls-5" d="M469.79,78.7H339.45V49.35H469.79Zm-129.34-1H468.79V50.35H340.45Z"/><path class="cls-4" d="M351,63.19h2.71v.75H351v3.12h-.87V60.12h3.58v.75H351Z"/><path class="cls-4" d="M355.67,60.92a.5.5,0,0,1-.51.5.49.49,0,0,1-.5-.51.5.5,0,0,1,.51-.51A.51.51,0,0,1,355.67,60.92Zm-.12,6.14h-.79V62.27h.79Z"/><path class="cls-4" d="M357.14,67.06V60.12h.8v6.94Z"/><path class="cls-4" d="M360,64.92a1.45,1.45,0,0,0,.31.87,1.55,1.55,0,0,0,1.29.66,1.65,1.65,0,0,0,1.43-.82l.7.26a2.35,2.35,0,0,1-2.13,1.29,2.52,2.52,0,1,1,2.4-2.57c0,.06,0,.2,0,.31Zm3.16-.58a1.54,1.54,0,0,0-.27-.83,1.65,1.65,0,0,0-1.32-.65,1.53,1.53,0,0,0-1.29.67,1.75,1.75,0,0,0-.27.81Z"/><path class="cls-4" d="M369.16,60.92a.5.5,0,0,1-.51.5.48.48,0,0,1-.49-.51.5.5,0,1,1,1,0Zm-.11,6.14h-.79V62.27h.79Z"/><path class="cls-4" d="M371.43,62.27v.67a1.71,1.71,0,0,1,2.54-.39,1.56,1.56,0,0,1,.41,1.28v3.23h-.79V64a1.36,1.36,0,0,0-.18-.82.93.93,0,0,0-.75-.32,1.18,1.18,0,0,0-.91.41,1.1,1.1,0,0,0-.32.87v2.92h-.79V62.27Z"/><path class="cls-4" d="M382.8,66.47a2.47,2.47,0,0,1-1.77.71,2.52,2.52,0,0,1,0-5,2.37,2.37,0,0,1,1.75.72l-.51.51a1.79,1.79,0,0,0-1.22-.5,1.8,1.8,0,0,0,0,3.57,1.7,1.7,0,0,0,1.23-.52Z"/><path class="cls-4" d="M388.14,64.68a2.45,2.45,0,0,1-2.46,2.5,2.52,2.52,0,1,1,2.46-2.5Zm-4.07,0a1.62,1.62,0,0,0,1.63,1.78,1.64,1.64,0,0,0,1.62-1.78,1.63,1.63,0,1,0-3.25,0Z"/><path class="cls-4" d="M389.34,67.06V60.12h.79v6.94Z"/><path class="cls-4" d="M391.73,67.06V60.12h.79v6.94Z"/><path class="cls-4" d="M397.73,62.27h.79v4.79h-.79v-.92a2,2,0,0,1-1.75,1,2.3,2.3,0,0,1-2.26-2.5A2.33,2.33,0,0,1,396,62.15a2,2,0,0,1,1.73.91ZM395,63.43a2.2,2.2,0,0,0-.39,1.27,1.64,1.64,0,0,0,1.54,1.79,1.77,1.77,0,0,0,1.64-1.87,1.62,1.62,0,0,0-1.62-1.76A1.32,1.32,0,0,0,395,63.43Z"/><path class="cls-4" d="M400.9,67.06h-.79V60.12h.79v3a2,2,0,0,1,1.69-.94,2.31,2.31,0,0,1,2.28,2.53,2.28,2.28,0,0,1-2.24,2.5,2,2,0,0,1-1.73-.94Zm0-2.39a1.59,1.59,0,1,0,3.15,0,1.59,1.59,0,1,0-3.15,0Z"/><path class="cls-4" d="M406.87,62.27v.81a1.37,1.37,0,0,1,.43-.64,1.57,1.57,0,0,1,.92-.29h.19V63h-.22a1.23,1.23,0,0,0-1,.55,1.78,1.78,0,0,0-.28,1.14v2.43h-.79V62.27Z"/><path class="cls-4" d="M412.84,62.27h.79v4.79h-.79v-.92a2,2,0,0,1-1.75,1,2.29,2.29,0,0,1-2.25-2.5,2.33,2.33,0,0,1,2.27-2.53,2,2,0,0,1,1.73.91Zm-2.78,1.16a2.2,2.2,0,0,0-.39,1.27,1.64,1.64,0,0,0,1.54,1.79,1.77,1.77,0,0,0,1.64-1.87,1.62,1.62,0,0,0-1.62-1.76A1.32,1.32,0,0,0,410.06,63.43Z"/><path class="cls-4" d="M416,66.09c0,.24.07.29.36.29h.36v.68H416c-.57,0-.78-.22-.78-.75V63h-.67v-.69h.67V60.76H416v1.51h.72V63H416Z"/><path class="cls-4" d="M418.72,60.92a.5.5,0,0,1-.51.5.49.49,0,0,1-.5-.51.5.5,0,0,1,.51-.51A.51.51,0,0,1,418.72,60.92Zm-.11,6.14h-.79V62.27h.79Z"/><path class="cls-4" d="M424.69,64.68a2.45,2.45,0,0,1-2.45,2.5,2.52,2.52,0,1,1,2.45-2.5Zm-4.06,0a1.62,1.62,0,0,0,1.63,1.78,1.64,1.64,0,0,0,1.62-1.78,1.63,1.63,0,1,0-3.25,0Z"/><path class="cls-4" d="M426.69,62.27v.67a1.71,1.71,0,0,1,2.54-.39,1.56,1.56,0,0,1,.41,1.28v3.23h-.79V64a1.29,1.29,0,0,0-.18-.82.93.93,0,0,0-.75-.32,1.19,1.19,0,0,0-.91.41,1.1,1.1,0,0,0-.32.87v2.92h-.79V62.27Z"/><path class="cls-4" d="M436.54,63.58v0c0-.45-.37-.73-.92-.73s-.86.27-.86.68.21.58,1.07.82a2.44,2.44,0,0,1,1.17.55,1.32,1.32,0,0,1,.38.93c0,.84-.69,1.4-1.71,1.4a1.56,1.56,0,0,1-1.79-1.48h.79a.88.88,0,0,0,1,.83c.55,0,.9-.28.9-.7s-.27-.63-1.09-.84c-1-.28-1.51-.72-1.51-1.44s.67-1.4,1.68-1.4a1.47,1.47,0,0,1,1.68,1.43Z"/><path class="cls-4" d="M439.35,62.27v.87a1.85,1.85,0,0,1,1.75-1,2.27,2.27,0,0,1,2.25,2.48,2.3,2.3,0,0,1-2.25,2.55,2.43,2.43,0,0,1-1.06-.25,1.72,1.72,0,0,1-.69-.62v3h-.79v-7Zm0,2.47a1.58,1.58,0,0,0,1.58,1.75,1.63,1.63,0,0,0,1.58-1.83,1.82,1.82,0,0,0-.42-1.3,1.54,1.54,0,0,0-1.13-.5A1.67,1.67,0,0,0,439.35,64.74Z"/><path class="cls-4" d="M448.17,62.27H449v4.79h-.79v-.92a2,2,0,0,1-1.75,1,2.29,2.29,0,0,1-2.25-2.5,2.33,2.33,0,0,1,2.28-2.53,2,2,0,0,1,1.72.91Zm-2.78,1.16A2.2,2.2,0,0,0,445,64.7a1.65,1.65,0,0,0,1.54,1.79,1.77,1.77,0,0,0,1.64-1.87,1.62,1.62,0,0,0-1.62-1.76A1.32,1.32,0,0,0,445.39,63.43Z"/><path class="cls-4" d="M454.29,66.47a2.45,2.45,0,0,1-1.77.71,2.52,2.52,0,0,1,0-5,2.37,2.37,0,0,1,1.75.72l-.51.51a1.76,1.76,0,0,0-1.21-.5,1.8,1.8,0,0,0,0,3.57,1.68,1.68,0,0,0,1.22-.52Z"/><path class="cls-4" d="M455.59,64.92a1.45,1.45,0,0,0,.32.87,1.54,1.54,0,0,0,1.29.66,1.65,1.65,0,0,0,1.43-.82l.7.26a2.36,2.36,0,0,1-2.13,1.29,2.52,2.52,0,1,1,2.4-2.57c0,.06,0,.2,0,.31Zm3.17-.58a1.54,1.54,0,0,0-.27-.83,1.69,1.69,0,0,0-1.33-.65,1.53,1.53,0,0,0-1.29.67,2,2,0,0,0-.27.81Z"/><rect class="cls-3" y="109.43" width="98.95" height="28.35" rx="14.17"/><path class="cls-4" d="M25.89,119.7h1.84a3.09,3.09,0,0,1,3.35,3.36A3.63,3.63,0,0,1,30,125.84a3.46,3.46,0,0,1-2.41.8H25.89Zm.87,6.19h.32a3.1,3.1,0,0,0,2.17-.52,2.76,2.76,0,0,0,.94-2.3,2.33,2.33,0,0,0-2.49-2.63h-.94Z"/><path class="cls-4" d="M36,121.84h.8v4.8H36v-.93a2,2,0,0,1-1.74,1,2.29,2.29,0,0,1-2.26-2.5,2.33,2.33,0,0,1,2.28-2.52,2,2,0,0,1,1.72.9ZM33.22,123a2.18,2.18,0,0,0-.4,1.27,1.65,1.65,0,0,0,1.54,1.79A1.78,1.78,0,0,0,36,124.19a1.62,1.62,0,0,0-1.63-1.76A1.29,1.29,0,0,0,33.22,123Z"/><path class="cls-4" d="M40.58,123.15v-.05c0-.45-.36-.73-.91-.73s-.87.27-.87.69.21.57,1.08.81a2.49,2.49,0,0,1,1.16.55,1.34,1.34,0,0,1,.39.94c0,.83-.69,1.39-1.71,1.39s-1.71-.51-1.79-1.47h.78a.89.89,0,0,0,1,.83c.54,0,.9-.28.9-.71s-.28-.62-1.1-.83c-1-.28-1.51-.72-1.51-1.45s.68-1.39,1.69-1.39a1.47,1.47,0,0,1,1.68,1.42Z"/><path class="cls-4" d="M43.44,122.51a1.75,1.75,0,0,1,1.44-.78,1.61,1.61,0,0,1,1.12.43,1.66,1.66,0,0,1,.37,1.25v3.23h-.79v-3.19c0-.65-.32-1-.9-1a1.22,1.22,0,0,0-.93.43,1.25,1.25,0,0,0-.31,1v2.81h-.8V119.7h.8Z"/><path class="cls-4" d="M48.72,126.64h-.79V119.7h.79v3a2,2,0,0,1,1.69-.93,2.31,2.31,0,0,1,2.28,2.52,2.28,2.28,0,0,1-2.24,2.5,2,2,0,0,1-1.73-.93Zm0-2.39a1.59,1.59,0,1,0,3.14,0,1.59,1.59,0,1,0-3.14,0Z"/><path class="cls-4" d="M58.39,124.25a2.45,2.45,0,0,1-2.46,2.5,2.51,2.51,0,1,1,2.46-2.5Zm-4.07,0A1.62,1.62,0,0,0,56,126a1.64,1.64,0,0,0,1.62-1.77,1.64,1.64,0,1,0-3.26,0Z"/><path class="cls-4" d="M63.22,121.84H64v4.8h-.79v-.93a2,2,0,0,1-1.75,1,2.3,2.3,0,0,1-2.26-2.5,2.33,2.33,0,0,1,2.28-2.52,2,2,0,0,1,1.73.9ZM60.44,123a2.17,2.17,0,0,0-.39,1.27,1.64,1.64,0,0,0,1.54,1.79,1.78,1.78,0,0,0,1.64-1.88,1.62,1.62,0,0,0-1.62-1.76A1.31,1.31,0,0,0,60.44,123Z"/><path class="cls-4" d="M66.39,121.84v.81a1.34,1.34,0,0,1,.44-.63,1.49,1.49,0,0,1,.92-.29h.18v.8h-.21a1.23,1.23,0,0,0-1,.55,1.8,1.8,0,0,0-.28,1.13v2.44H65.6v-4.8Z"/><path class="cls-4" d="M72.34,119.7h.79v6.94h-.79v-.82a2,2,0,0,1-1.72.93,2.29,2.29,0,0,1-2.26-2.48,2.35,2.35,0,0,1,2.26-2.54,2.07,2.07,0,0,1,1.72.84Zm-3.15,4.58a1.61,1.61,0,0,0,1.54,1.79,1.67,1.67,0,0,0,1.61-1.82,1.62,1.62,0,0,0-1.55-1.82A1.65,1.65,0,0,0,69.19,124.28Z"/><polygon class="cls-2" points="612.85 189.16 560.5 189.16 564.84 161.15 617.19 161.15 612.85 189.16"/><path class="cls-6" d="M613.28,189.66H559.91l4.5-29h53.36Zm-52.2-1h51.34l4.19-27H565.27Z"/><path class="cls-4" d="M574.2,177.14a3.07,3.07,0,0,1-2.54,1.17,3.1,3.1,0,0,1-2.39-1,3.92,3.92,0,0,1-.92-2.57,3.36,3.36,0,0,1,3.32-3.6,3.43,3.43,0,0,1,1.74.47,3.76,3.76,0,0,1,.81.72l-.61.56a2.43,2.43,0,0,0-1.92-1,2.82,2.82,0,0,0,0,5.59,2.29,2.29,0,0,0,1.88-1Z"/><path class="cls-4" d="M579.71,175.8a2.45,2.45,0,0,1-2.45,2.5,2.52,2.52,0,1,1,2.45-2.5Zm-4.07,0a1.63,1.63,0,0,0,1.64,1.78,1.64,1.64,0,0,0,1.62-1.78,1.61,1.61,0,0,0-1.61-1.79A1.63,1.63,0,0,0,575.64,175.79Z"/><path class="cls-4" d="M581.71,173.39v.66a1.49,1.49,0,0,1,1.36-.78,1.24,1.24,0,0,1,1.29.88,1.59,1.59,0,0,1,1.52-.88,1.46,1.46,0,0,1,1.22.51,1.93,1.93,0,0,1,.29,1.34v3.07h-.79V175.3c0-.58,0-.71-.13-.91a1,1,0,0,0-.84-.41c-.69,0-1.08.47-1.08,1.32v2.89h-.79v-2.88a1.74,1.74,0,0,0-.16-.91.82.82,0,0,0-.78-.42c-.69,0-1.11.5-1.11,1.33v2.88h-.79v-4.8Z"/><path class="cls-4" d="M589.74,173.39v.66a1.51,1.51,0,0,1,1.37-.78,1.25,1.25,0,0,1,1.29.88,1.58,1.58,0,0,1,1.52-.88,1.44,1.44,0,0,1,1.21.51,1.93,1.93,0,0,1,.3,1.34v3.07h-.8V175.3c0-.58,0-.71-.13-.91a.94.94,0,0,0-.83-.41c-.7,0-1.08.47-1.08,1.32v2.89h-.8v-2.88a1.86,1.86,0,0,0-.15-.91.84.84,0,0,0-.78-.42c-.7,0-1.12.5-1.12,1.33v2.88H589v-4.8Z"/><path class="cls-4" d="M597.45,176a1.48,1.48,0,0,0,.31.88,1.57,1.57,0,0,0,1.29.65,1.65,1.65,0,0,0,1.43-.82l.7.26a2.35,2.35,0,0,1-2.13,1.29,2.52,2.52,0,1,1,2.4-2.57c0,.06,0,.2,0,.31Zm3.16-.58a1.43,1.43,0,0,0-.27-.82A1.63,1.63,0,0,0,599,174a1.53,1.53,0,0,0-1.29.67,1.84,1.84,0,0,0-.27.81Z"/><path class="cls-4" d="M603.39,173.39v.68a1.62,1.62,0,0,1,1.42-.8,1.68,1.68,0,0,1,1.12.4,1.56,1.56,0,0,1,.4,1.28v3.24h-.79v-3.06a1.3,1.3,0,0,0-.18-.83.92.92,0,0,0-.74-.32,1.2,1.2,0,0,0-.92.41,1.13,1.13,0,0,0-.31.87v2.93h-.79v-4.8Z"/><path class="cls-4" d="M608.74,177.21c0,.24.07.29.36.29h.37v.69h-.74c-.57,0-.78-.22-.78-.75v-3.35h-.67v-.7H608v-1.51h.79v1.51h.73v.7h-.73Z"/><polygon class="cls-2" points="612.85 82.06 560.5 82.06 564.84 54.05 617.19 54.05 612.85 82.06"/><path class="cls-6" d="M613.28,82.56H559.91l4.5-29h53.36Zm-52.2-1h51.34l4.19-27H565.27Z"/><path class="cls-4" d="M578.29,64.15h1.84a3.09,3.09,0,0,1,3.35,3.36,3.61,3.61,0,0,1-1.09,2.78,3.46,3.46,0,0,1-2.41.8h-1.69Zm.88,6.19h.31a3,3,0,0,0,2.17-.52,2.76,2.76,0,0,0,.94-2.3,2.33,2.33,0,0,0-2.49-2.63h-.93Z"/><path class="cls-4" d="M585.52,66.29v.81a1.39,1.39,0,0,1,.44-.63,1.49,1.49,0,0,1,.92-.29h.18V67h-.22a1.25,1.25,0,0,0-1,.55,1.8,1.8,0,0,0-.28,1.13v2.44h-.79v-4.8Z"/><path class="cls-4" d="M591.5,66.29h.79v4.8h-.79v-.93a2,2,0,0,1-1.75,1,2.29,2.29,0,0,1-2.26-2.49,2.33,2.33,0,0,1,2.28-2.53,2,2,0,0,1,1.73.9Zm-2.78,1.17a2.18,2.18,0,0,0-.4,1.27,1.65,1.65,0,0,0,1.54,1.79,1.78,1.78,0,0,0,1.65-1.88,1.61,1.61,0,0,0-1.63-1.75A1.28,1.28,0,0,0,588.72,67.46Z"/><path class="cls-4" d="M600.2,66.29l-1.71,4.8h-.72l-1.1-3.64-1.16,3.64h-.75l-1.64-4.8h.81l1.23,3.53,1.1-3.53H597l1.09,3.53,1.25-3.53Z"/><polygon class="cls-2" points="612.85 135.61 560.5 135.61 564.84 107.6 617.19 107.6 612.85 135.61"/><path class="cls-6" d="M613.28,136.11H559.91l4.5-29h53.36Zm-52.2-1h51.34l4.19-27H565.27Z"/><path class="cls-4" d="M584,124.64h-.88V117.7H585c1.65,0,2.55.75,2.55,2.12a2.16,2.16,0,0,1-.74,1.69,2.62,2.62,0,0,1-1.71.48H584Zm.9-3.4a2.35,2.35,0,0,0,.87-.13,1.32,1.32,0,0,0,.87-1.27,1.28,1.28,0,0,0-.89-1.26,2.89,2.89,0,0,0-1-.13H584v2.79Z"/><path class="cls-4" d="M589.42,118.5a.5.5,0,0,1-.51.5.51.51,0,0,1,0-1A.51.51,0,0,1,589.42,118.5Zm-.12,6.14h-.79v-4.8h.79Z"/><path class="cls-4" d="M591.69,119.84v.68a1.63,1.63,0,0,1,1.42-.79,1.65,1.65,0,0,1,1.11.39,1.54,1.54,0,0,1,.41,1.28v3.24h-.79v-3.06a1.25,1.25,0,0,0-.18-.82.91.91,0,0,0-.75-.33,1.19,1.19,0,0,0-.91.41,1.13,1.13,0,0,0-.31.87v2.93h-.8v-4.8Z"/><polygon class="cls-2" points="612.85 242.71 560.5 242.71 564.84 214.69 617.19 214.69 612.85 242.71"/><path class="cls-6" d="M613.28,243.21H559.91l4.5-29h53.36Zm-52.2-1h51.34l4.19-27H565.27Z"/><path class="cls-4" d="M573.21,231.74h-.87v-7h1.89c1.48,0,2.38.76,2.38,2a1.89,1.89,0,0,1-1,1.75,2.84,2.84,0,0,1-1.28.29l2.69,2.89h-1.11l-2.7-2.92Zm.88-3.51c1,0,1.62-.48,1.62-1.35s-.52-1.34-1.48-1.34h-1v2.69Z"/><path class="cls-4" d="M578.31,229.59a1.54,1.54,0,0,0,.31.88,1.59,1.59,0,0,0,1.3.65,1.65,1.65,0,0,0,1.43-.82l.7.26a2.36,2.36,0,0,1-2.13,1.29,2.52,2.52,0,1,1,2.4-2.57c0,.06,0,.2,0,.31Zm3.17-.58a1.59,1.59,0,0,0-.27-.82,1.67,1.67,0,0,0-1.33-.66,1.53,1.53,0,0,0-1.29.67,1.92,1.92,0,0,0-.27.81Z"/><path class="cls-4" d="M587.84,226.94v7h-.79v-3a1.94,1.94,0,0,1-1.73.92,2.24,2.24,0,0,1-1.74-.81,2.81,2.81,0,0,1-.5-1.72,2.27,2.27,0,0,1,2.31-2.5,1.83,1.83,0,0,1,1.66.94v-.82Zm-3.93,2.41a1.58,1.58,0,1,0,3.12,0,1.9,1.9,0,0,0-.44-1.36,1.57,1.57,0,0,0-2.68,1.34Z"/><path class="cls-4" d="M593,226.94V230a1.6,1.6,0,0,1-.48,1.34,2.08,2.08,0,0,1-1.39.5,2,2,0,0,1-1.38-.51,1.76,1.76,0,0,1-.48-1.33v-3.07h.79V230a1.07,1.07,0,0,0,1.07,1.15,1.14,1.14,0,0,0,.86-.36,1.11,1.11,0,0,0,.2-.77v-3.07Z"/><path class="cls-4" d="M594.9,229.59a1.48,1.48,0,0,0,.31.88,1.57,1.57,0,0,0,1.29.65,1.65,1.65,0,0,0,1.44-.82l.7.26a2.43,2.43,0,0,1-4.58-1.21,2.43,2.43,0,1,1,4.85-.07c0,.06,0,.2,0,.31Zm3.16-.58a1.43,1.43,0,0,0-.27-.82,1.63,1.63,0,0,0-1.32-.66,1.53,1.53,0,0,0-1.29.67,1.92,1.92,0,0,0-.27.81Z"/><path class="cls-4" d="M602.25,228.25v-.05c0-.45-.37-.73-.92-.73s-.86.27-.86.69.21.57,1.07.81a2.44,2.44,0,0,1,1.17.55,1.33,1.33,0,0,1,.38.94c0,.83-.69,1.39-1.71,1.39a1.56,1.56,0,0,1-1.79-1.48h.79a.88.88,0,0,0,1,.84c.54,0,.9-.29.9-.71s-.27-.63-1.09-.83c-1-.29-1.51-.72-1.51-1.45s.67-1.4,1.68-1.4a1.47,1.47,0,0,1,1.68,1.43Z"/><path class="cls-4" d="M605.15,230.76c0,.24.07.29.37.29h.36v.69h-.74c-.56,0-.78-.22-.78-.75v-3.35h-.67v-.7h.67v-1.51h.79v1.51h.73v.7h-.73Z"/><polygon class="cls-2" points="612.85 28.51 560.5 28.51 564.84 0.5 617.19 0.5 612.85 28.51"/><path class="cls-6" d="M613.28,29H559.91l4.5-29h53.36Zm-52.2-1h51.34l4.19-27H565.27Z"/><path class="cls-4" d="M581.47,17.54h-.87V11.35h-1.77V10.6h4.4v.75h-1.76Z"/><path class="cls-4" d="M586.43,12.74h.86l-2.86,7.11h-.86l1-2.45-1.71-4.66h.84L585,16.3Z"/><path class="cls-4" d="M588.94,12.74v.88a1.84,1.84,0,0,1,1.74-1,2.27,2.27,0,0,1,2.26,2.48,2.3,2.3,0,0,1-2.26,2.55,2.42,2.42,0,0,1-1-.25,1.8,1.8,0,0,1-.69-.62v3h-.79v-7Zm0,2.48A1.58,1.58,0,0,0,590.52,17a1.63,1.63,0,0,0,1.58-1.83,1.82,1.82,0,0,0-.42-1.3,1.51,1.51,0,0,0-1.13-.5A1.67,1.67,0,0,0,588.94,15.22Z"/><path class="cls-4" d="M594.6,15.4a1.47,1.47,0,0,0,.31.87,1.55,1.55,0,0,0,1.29.66,1.68,1.68,0,0,0,1.44-.83l.69.27a2.34,2.34,0,0,1-2.13,1.29,2.38,2.38,0,0,1-2.44-2.5,2.42,2.42,0,1,1,4.84-.08c0,.07,0,.2,0,.32Zm3.16-.59a1.46,1.46,0,0,0-.27-.82,1.65,1.65,0,0,0-1.32-.65,1.55,1.55,0,0,0-1.29.66,1.84,1.84,0,0,0-.27.81Z"/><polygon class="cls-4" points="534.78 141.96 534.03 141.96 534.03 11.43 556.91 11.43 556.91 12.18 534.78 12.18 534.78 141.96"/><polygon class="cls-4" points="555.81 8.07 562.29 11.81 555.81 15.55 555.81 8.07"/><polygon class="cls-4" points="556.91 177.5 534.03 177.5 534.03 63.6 556.91 63.6 556.91 64.35 534.78 64.35 534.78 176.75 556.91 176.75 556.91 177.5"/><polygon class="cls-4" points="555.81 60.24 562.29 63.98 555.81 67.72 555.81 60.24"/><polygon class="cls-4" points="555.81 180.87 562.29 177.13 555.81 173.39 555.81 180.87"/><polygon class="cls-4" points="556.91 231.67 534.03 231.67 534.03 123.18 556.91 123.18 556.91 123.93 534.78 123.93 534.78 230.92 556.91 230.92 556.91 231.67"/><polygon class="cls-4" points="555.81 119.81 562.29 123.55 555.81 127.29 555.81 119.81"/><polygon class="cls-4" points="555.81 235.03 562.29 231.29 555.81 227.56 555.81 235.03"/><polygon class="cls-4" points="643.45 233.37 615.19 233.37 615.19 232.62 642.7 232.62 642.7 102.84 643.45 102.84 643.45 233.37"/><polygon class="cls-4" points="643.45 181.2 615.19 181.2 615.19 180.45 642.7 180.45 642.7 68.05 615.19 68.05 615.19 67.3 643.45 67.3 643.45 181.2"/><polygon class="cls-4" points="643.45 122.03 615.19 122.03 615.19 121.28 642.7 121.28 642.7 13.88 615.19 13.88 615.19 13.13 643.45 13.13 643.45 122.03"/><polygon class="cls-4" points="137.7 185.83 112.94 185.83 112.94 64.47 187.7 64.47 187.7 65.22 113.69 65.22 113.69 185.08 137.7 185.08 137.7 185.83"/><polygon class="cls-4" points="136.61 181.72 143.08 185.46 136.61 189.2 136.61 181.72"/><polygon class="cls-4" points="186.61 68.59 193.08 64.85 186.61 61.11 186.61 68.59"/><rect class="cls-4" x="98.95" y="124.78" width="14.36" height="0.75"/><rect class="cls-4" x="290.46" y="63.6" width="44.1" height="0.75"/><polygon class="cls-4" points="333.47 67.72 339.95 63.98 333.47 60.24 333.47 67.72"/><rect class="cls-4" x="643.08" y="121.28" width="23.5" height="0.75"/><polygon class="cls-4" points="665.49 125.39 671.96 121.65 665.49 117.92 665.49 125.39"/><polygon class="cls-4" points="516.33 185.78 488.82 185.78 488.82 185.03 515.58 185.03 515.58 65.17 469.82 65.17 469.82 64.42 516.33 64.42 516.33 185.78"/><rect class="cls-4" x="515.96" y="123.18" width="18.45" height="0.75"/><rect class="cls-4" x="406.85" y="185.03" width="11.05" height="0.75"/><polygon class="cls-4" points="416.81 189.15 423.29 185.41 416.81 181.67 416.81 189.15"/><rect class="cls-4" x="324.06" y="185.03" width="11.4" height="0.75"/><polygon class="cls-4" points="334.37 189.15 340.84 185.41 334.37 181.67 334.37 189.15"/><rect class="cls-4" x="241.27" y="185.03" width="11.4" height="0.75"/><polygon class="cls-4" points="251.58 189.15 258.05 185.41 251.58 181.67 251.58 189.15"/><path class="cls-4" d="M516,126.05c3.22,0,3.22-5,0-5s-3.22,5,0,5Z"/></g></g></svg>