<svg xmlns="http://www.w3.org/2000/svg" viewBox="0 0 126.9 329.82"><defs><style>.cls-1,.cls-4{fill:#fff;}.cls-1,.cls-2{opacity:0.5;}.cls-2{fill:#ef3d5a;}.cls-3{fill:#231f20;}.cls-5{fill:#2e307d;}</style></defs><title>flowchart2mobile</title><g id="Layer_2" data-name="Layer 2"><g id="Layer_1-2" data-name="Layer 1"><rect class="cls-1" x="25.58" y="301.47" width="75.75" height="28.35" rx="14.17"/><rect class="cls-1" x="25.58" width="75.75" height="31.48" rx="15.74"/><rect class="cls-2" x="25.58" y="301.47" width="75.75" height="28.35" rx="14.17"/><path class="cls-3" d="M54.11,316.82A1.13,1.13,0,0,0,55.34,318a1.21,1.21,0,0,0,1.33-1.18c0-.6-.31-.88-1.4-1.25a3.46,3.46,0,0,1-1.41-.69,1.77,1.77,0,0,1-.54-1.32,2.07,2.07,0,0,1,4.13,0h-.87a1.25,1.25,0,0,0-.17-.72,1.19,1.19,0,0,0-1-.49,1.11,1.11,0,0,0-1.18,1.13,1,1,0,0,0,.4.8,4,4,0,0,0,1.11.49,3.23,3.23,0,0,1,1.38.75,1.79,1.79,0,0,1,.46,1.23,2,2,0,0,1-2.18,2,1.93,1.93,0,0,1-1.85-.94,1.67,1.67,0,0,1-.24-.9v-.15Z"/><path class="cls-3" d="M62.45,313.88h.79v4.8h-.79v-.92a2,2,0,0,1-1.75,1,2.3,2.3,0,0,1-2.26-2.5,2.33,2.33,0,0,1,2.28-2.53,2,2,0,0,1,1.73.91Zm-2.78,1.17a2.18,2.18,0,0,0-.4,1.27,1.65,1.65,0,0,0,1.54,1.79,1.77,1.77,0,0,0,1.65-1.87,1.62,1.62,0,0,0-1.63-1.76A1.31,1.31,0,0,0,59.67,315.05Z"/><path class="cls-3" d="M68.47,313.88l-1.81,4.8h-.83l-1.76-4.8h.83l1.36,3.67,1.39-3.67Z"/><path class="cls-3" d="M69.66,316.54a1.47,1.47,0,0,0,.31.87,1.55,1.55,0,0,0,1.29.66,1.67,1.67,0,0,0,1.44-.82l.69.26a2.34,2.34,0,0,1-2.13,1.29,2.52,2.52,0,1,1,2.4-2.57c0,.06,0,.2,0,.31Zm3.16-.58a1.46,1.46,0,0,0-.27-.83,1.65,1.65,0,0,0-1.32-.65,1.55,1.55,0,0,0-1.29.66,1.84,1.84,0,0,0-.27.82Z"/><rect class="cls-2" x="25.58" width="75.75" height="31.48" rx="15.74"/><rect class="cls-4" x="13.13" y="74.36" width="100.65" height="28.35"/><path class="cls-5" d="M114.27,103.21H12.63V73.86H114.27Zm-100.64-1h99.64V74.86H13.63Z"/><path class="cls-3" d="M26.4,89.71a1.13,1.13,0,0,0,1.22,1.21A1.21,1.21,0,0,0,29,89.74c0-.6-.32-.88-1.41-1.25a3.46,3.46,0,0,1-1.4-.7,1.7,1.7,0,0,1-.54-1.31,2.07,2.07,0,0,1,4.13,0h-.88a1.4,1.4,0,0,0-.16-.72,1.22,1.22,0,0,0-1-.48,1.11,1.11,0,0,0-1.18,1.13,1,1,0,0,0,.4.8,3.75,3.75,0,0,0,1.11.49,3.12,3.12,0,0,1,1.37.75,1.79,1.79,0,0,1,.47,1.23,2,2,0,0,1-2.18,2,2,2,0,0,1-1.86-.94,1.77,1.77,0,0,1-.24-.91v-.14Z"/><path class="cls-3" d="M31.55,89.43a1.47,1.47,0,0,0,.31.87,1.55,1.55,0,0,0,1.29.66,1.68,1.68,0,0,0,1.44-.83l.69.27a2.34,2.34,0,0,1-2.13,1.29,2.52,2.52,0,1,1,2.4-2.58c0,.07,0,.2,0,.32Zm3.16-.59a1.46,1.46,0,0,0-.27-.82,1.65,1.65,0,0,0-1.32-.65,1.55,1.55,0,0,0-1.29.66,1.84,1.84,0,0,0-.27.81Z"/><path class="cls-3" d="M36.64,91.57V84.63h.79v6.94Z"/><path class="cls-3" d="M39.48,89.43a1.47,1.47,0,0,0,.31.87,1.55,1.55,0,0,0,1.29.66,1.68,1.68,0,0,0,1.44-.83l.69.27a2.34,2.34,0,0,1-2.13,1.29,2.52,2.52,0,1,1,2.4-2.58c0,.07,0,.2,0,.32Zm3.16-.59a1.46,1.46,0,0,0-.27-.82,1.65,1.65,0,0,0-1.32-.65,1.55,1.55,0,0,0-1.29.66,1.84,1.84,0,0,0-.27.81Z"/><path class="cls-3" d="M48.37,91a2.49,2.49,0,0,1-1.77.71,2.52,2.52,0,0,1,0-5,2.37,2.37,0,0,1,1.75.72l-.51.51a1.74,1.74,0,0,0-1.22-.5,1.8,1.8,0,0,0,0,3.57,1.7,1.7,0,0,0,1.23-.52Z"/><path class="cls-3" d="M50.41,90.59c0,.24.07.29.36.29h.36v.69h-.74c-.56,0-.78-.22-.78-.75V87.47H49v-.7h.66V85.26h.8v1.51h.72v.7h-.72Z"/><path class="cls-3" d="M56,84.49l.58.21-.91,2.49L55,86.93Zm1.82,0,.58.21-.91,2.48-.71-.25Z"/><path class="cls-3" d="M60.45,90.59c0,.24.07.29.36.29h.37v.69h-.74c-.56,0-.78-.22-.78-.75V87.47H59v-.7h.67V85.26h.79v1.51h.73v.7h-.73Z"/><path class="cls-3" d="M62.66,89.43A1.64,1.64,0,0,0,64.27,91a1.66,1.66,0,0,0,1.43-.83l.7.27a2.36,2.36,0,0,1-2.13,1.29,2.52,2.52,0,1,1,2.4-2.58c0,.07,0,.2,0,.32Zm3.17-.59a1.54,1.54,0,0,0-.27-.82,1.67,1.67,0,0,0-1.32-.65,1.57,1.57,0,0,0-1.3.66,2.13,2.13,0,0,0-.27.81Z"/><path class="cls-3" d="M68.61,86.77v.67A1.49,1.49,0,0,1,70,86.66a1.24,1.24,0,0,1,1.29.87,1.57,1.57,0,0,1,1.52-.87,1.46,1.46,0,0,1,1.22.51c.23.3.29.57.29,1.33v3.07H73.5V88.69c0-.58,0-.72-.14-.92a.93.93,0,0,0-.83-.4c-.7,0-1.08.46-1.08,1.32v2.88h-.79V88.7a1.86,1.86,0,0,0-.16-.92.82.82,0,0,0-.78-.41c-.7,0-1.11.5-1.11,1.33v2.87h-.79v-4.8Z"/><path class="cls-3" d="M76.56,86.77v.88a1.85,1.85,0,0,1,1.75-1,2.27,2.27,0,0,1,2.25,2.48,2.3,2.3,0,0,1-2.25,2.55,2.43,2.43,0,0,1-1.06-.25,1.8,1.8,0,0,1-.69-.62v3h-.79v-7Zm0,2.48A1.58,1.58,0,0,0,78.14,91a1.63,1.63,0,0,0,1.58-1.83,1.82,1.82,0,0,0-.42-1.3,1.51,1.51,0,0,0-1.13-.5A1.67,1.67,0,0,0,76.56,89.25Z"/><path class="cls-3" d="M81.76,91.57V84.63h.79v6.94Z"/><path class="cls-3" d="M87.77,86.77h.79v4.8h-.79v-.92a2,2,0,0,1-1.75,1,2.3,2.3,0,0,1-2.26-2.5A2.33,2.33,0,0,1,86,86.66a2,2,0,0,1,1.73.9ZM85,87.94a2.18,2.18,0,0,0-.4,1.27A1.65,1.65,0,0,0,86.13,91a1.77,1.77,0,0,0,1.65-1.87,1.62,1.62,0,0,0-1.63-1.76A1.28,1.28,0,0,0,85,87.94Z"/><path class="cls-3" d="M91,90.59c0,.24.07.29.37.29h.36v.69H91c-.56,0-.78-.22-.78-.75V87.47H89.5v-.7h.67V85.26H91v1.51h.73v.7H91Z"/><path class="cls-3" d="M93.18,89.43a1.47,1.47,0,0,0,.31.87,1.55,1.55,0,0,0,1.29.66,1.68,1.68,0,0,0,1.44-.83l.69.27a2.34,2.34,0,0,1-2.13,1.29,2.52,2.52,0,1,1,2.4-2.58c0,.07,0,.2,0,.32Zm3.16-.59a1.46,1.46,0,0,0-.27-.82,1.65,1.65,0,0,0-1.32-.65,1.55,1.55,0,0,0-1.29.66,1.84,1.84,0,0,0-.27.81Z"/><path class="cls-3" d="M98.45,87.19,97.88,87l.9-2.49.72.25Zm1.83,0L99.69,87l.91-2.49.73.25Z"/><rect class="cls-4" x="14.32" y="146.52" width="98.26" height="39.14"/><path class="cls-5" d="M113.08,186.16H13.82V146h99.26Zm-98.26-1h97.26V147H14.82Z"/><path class="cls-3" d="M30.71,162.68a3.07,3.07,0,0,1-2.54,1.17,3.1,3.1,0,0,1-2.39-1,3.92,3.92,0,0,1-.92-2.57,3.36,3.36,0,0,1,3.32-3.6,3.4,3.4,0,0,1,1.73.47,3.81,3.81,0,0,1,.82.72l-.61.56a2.43,2.43,0,0,0-1.92-.95,2.82,2.82,0,0,0,0,5.59,2.3,2.3,0,0,0,1.88-1Z"/><path class="cls-3" d="M32.54,159.6a1.75,1.75,0,0,1,1.44-.78,1.61,1.61,0,0,1,1.12.43,1.66,1.66,0,0,1,.37,1.25v3.23h-.79v-3.19c0-.65-.32-1-.89-1a1.22,1.22,0,0,0-.94.42,1.25,1.25,0,0,0-.31,1v2.81h-.79v-6.94h.79Z"/><path class="cls-3" d="M41.53,161.35a2.45,2.45,0,0,1-2.46,2.49,2.51,2.51,0,1,1,2.46-2.49Zm-4.07,0a1.61,1.61,0,0,0,1.63,1.77,1.64,1.64,0,0,0,1.63-1.77,1.64,1.64,0,1,0-3.26,0Z"/><path class="cls-3" d="M47.23,161.35a2.45,2.45,0,0,1-2.46,2.49,2.51,2.51,0,1,1,2.46-2.49Zm-4.07,0a1.62,1.62,0,0,0,1.64,1.77,1.64,1.64,0,0,0,1.62-1.77,1.64,1.64,0,1,0-3.26,0Z"/><path class="cls-3" d="M50.66,160.24v-.05c0-.45-.37-.73-.92-.73s-.86.27-.86.69.2.57,1.07.81a2.49,2.49,0,0,1,1.16.55,1.36,1.36,0,0,1,.39.94c0,.83-.69,1.39-1.71,1.39s-1.71-.51-1.79-1.47h.78a.89.89,0,0,0,1,.83c.54,0,.9-.28.9-.71s-.27-.62-1.1-.83c-1-.28-1.51-.72-1.51-1.45s.68-1.39,1.69-1.39a1.47,1.47,0,0,1,1.68,1.42Z"/><path class="cls-3" d="M53.17,161.59a1.48,1.48,0,0,0,.32.87,1.54,1.54,0,0,0,1.29.65,1.65,1.65,0,0,0,1.43-.82l.7.26a2.43,2.43,0,0,1-4.58-1.2,2.43,2.43,0,1,1,4.85-.08c0,.07,0,.2,0,.32Zm3.17-.59a1.54,1.54,0,0,0-.27-.82,1.67,1.67,0,0,0-1.32-.65,1.57,1.57,0,0,0-1.3.66,2.13,2.13,0,0,0-.27.81Z"/><path class="cls-3" d="M62.29,162.75c0,.24.07.29.36.29H63v.69h-.74c-.56,0-.78-.22-.78-.75v-3.35h-.67v-.7h.67v-1.51h.79v1.51H63v.7h-.73Z"/><path class="cls-3" d="M64.51,161.59a1.47,1.47,0,0,0,.31.87,1.54,1.54,0,0,0,1.29.65,1.65,1.65,0,0,0,1.43-.82l.7.26a2.34,2.34,0,0,1-2.13,1.29,2.51,2.51,0,1,1,2.4-2.57c0,.07,0,.2,0,.32Zm3.16-.59a1.46,1.46,0,0,0-.27-.82,1.65,1.65,0,0,0-1.32-.65,1.55,1.55,0,0,0-1.29.66,1.84,1.84,0,0,0-.27.81Z"/><path class="cls-3" d="M70.45,158.93v.67a1.49,1.49,0,0,1,1.36-.78,1.24,1.24,0,0,1,1.29.87,1.58,1.58,0,0,1,1.52-.87,1.43,1.43,0,0,1,1.22.51c.23.3.29.57.29,1.33v3.07h-.79v-2.88c0-.59,0-.72-.13-.92a.94.94,0,0,0-.84-.4c-.7,0-1.08.46-1.08,1.32v2.88H72.5v-2.87a1.75,1.75,0,0,0-.16-.92.81.81,0,0,0-.78-.41c-.69,0-1.11.49-1.11,1.33v2.87h-.79v-4.8Z"/><path class="cls-3" d="M78.4,158.93v.88a1.86,1.86,0,0,1,1.75-1,2.27,2.27,0,0,1,2.26,2.47,2.31,2.31,0,0,1-2.26,2.55,2.23,2.23,0,0,1-1.05-.25,1.65,1.65,0,0,1-.7-.61v3h-.79v-7Zm0,2.48A1.58,1.58,0,0,0,80,163.16a1.63,1.63,0,0,0,1.58-1.84,1.88,1.88,0,0,0-.41-1.3,1.56,1.56,0,0,0-1.14-.49A1.66,1.66,0,0,0,78.4,161.41Z"/><path class="cls-3" d="M83.6,163.73v-6.94h.79v6.94Z"/><path class="cls-3" d="M89.61,158.93h.79v4.8h-.79v-.93a2,2,0,0,1-1.75,1,2.29,2.29,0,0,1-2.26-2.49,2.33,2.33,0,0,1,2.28-2.53,2,2,0,0,1,1.73.9Zm-2.78,1.17a2.18,2.18,0,0,0-.4,1.27A1.65,1.65,0,0,0,88,163.16a1.78,1.78,0,0,0,1.65-1.88A1.61,1.61,0,0,0,88,159.53,1.29,1.29,0,0,0,86.83,160.1Z"/><path class="cls-3" d="M92.8,162.75c0,.24.08.29.37.29h.36v.69h-.74c-.56,0-.78-.22-.78-.75v-3.35h-.66v-.7H92v-1.51h.79v1.51h.73v.7H92.8Z"/><path class="cls-3" d="M95,161.59a1.47,1.47,0,0,0,.31.87,1.54,1.54,0,0,0,1.29.65,1.67,1.67,0,0,0,1.44-.82l.69.26a2.34,2.34,0,0,1-2.13,1.29A2.51,2.51,0,1,1,99,161.27c0,.07,0,.2,0,.32Zm3.16-.59a1.46,1.46,0,0,0-.27-.82,1.65,1.65,0,0,0-1.32-.65,1.55,1.55,0,0,0-1.29.66A1.84,1.84,0,0,0,95,161Z"/><path class="cls-3" d="M29.46,176.22h-.79v-4.1H28v-.7h.65v-.64c0-.95.49-1.51,1.32-1.51h.22v.7c-.57.07-.73.23-.75.8v.64h.75v.7h-.75Z"/><path class="cls-3" d="M32.07,171.42v.81a1.34,1.34,0,0,1,.44-.63,1.49,1.49,0,0,1,.92-.29h.18v.8H33.4a1.23,1.23,0,0,0-1,.55,1.8,1.8,0,0,0-.28,1.13v2.44h-.79v-4.8Z"/><path class="cls-3" d="M38.91,173.83a2.45,2.45,0,0,1-2.45,2.5,2.51,2.51,0,1,1,2.45-2.5Zm-4.07,0a1.62,1.62,0,0,0,1.64,1.78,1.64,1.64,0,0,0,1.62-1.78,1.64,1.64,0,1,0-3.26,0Z"/><path class="cls-3" d="M40.91,171.42v.67a1.48,1.48,0,0,1,1.36-.78,1.24,1.24,0,0,1,1.29.87,1.58,1.58,0,0,1,1.52-.87,1.43,1.43,0,0,1,1.22.51c.23.3.29.57.29,1.33v3.07H45.8v-2.89c0-.58,0-.71-.13-.91a1,1,0,0,0-.84-.41c-.7,0-1.08.47-1.08,1.32v2.89H43v-2.87a1.75,1.75,0,0,0-.16-.92A.82.82,0,0,0,42,172c-.69,0-1.11.5-1.11,1.34v2.87h-.79v-4.8Z"/><path class="cls-3" d="M52.12,175.24c0,.24.07.29.36.29h.37v.69h-.74c-.57,0-.78-.22-.78-.75v-3.35h-.67v-.7h.67v-1.51h.79v1.51h.73v.7h-.73Z"/><path class="cls-3" d="M54.73,172.09a1.74,1.74,0,0,1,1.45-.78,1.6,1.6,0,0,1,1.11.43,1.66,1.66,0,0,1,.37,1.25v3.23h-.79V173c0-.65-.32-1-.89-1a1.23,1.23,0,0,0-.94.43,1.25,1.25,0,0,0-.31,1v2.81h-.79v-6.94h.79Z"/><path class="cls-3" d="M59.68,174.07A1.48,1.48,0,0,0,60,175a1.57,1.57,0,0,0,1.29.65,1.65,1.65,0,0,0,1.43-.82l.7.26a2.36,2.36,0,0,1-2.13,1.29,2.51,2.51,0,1,1,2.4-2.57c0,.06,0,.2,0,.31Zm3.17-.58a1.54,1.54,0,0,0-.27-.82,1.65,1.65,0,0,0-1.33-.66,1.55,1.55,0,0,0-1.29.67,2.13,2.13,0,0,0-.27.81Z"/><path class="cls-3" d="M72.45,173.83a2.45,2.45,0,0,1-2.45,2.5,2.51,2.51,0,1,1,2.45-2.5Zm-4.07,0A1.62,1.62,0,0,0,70,175.6a1.64,1.64,0,0,0,1.62-1.78A1.61,1.61,0,0,0,70,172,1.63,1.63,0,0,0,68.38,173.82Z"/><path class="cls-3" d="M74.45,171.42v.87a1.87,1.87,0,0,1,1.75-1,2.27,2.27,0,0,1,2.26,2.47,2.31,2.31,0,0,1-2.26,2.55,2.23,2.23,0,0,1-1-.25,1.7,1.7,0,0,1-.7-.61v3h-.79v-7.05Zm0,2.48A1.58,1.58,0,0,0,76,175.65a1.63,1.63,0,0,0,1.58-1.84,1.86,1.86,0,0,0-.41-1.3,1.57,1.57,0,0,0-1.14-.5A1.68,1.68,0,0,0,74.45,173.9Z"/><path class="cls-3" d="M80.46,175.24c0,.24.07.29.36.29h.36v.69h-.74c-.56,0-.78-.22-.78-.75v-3.35H79v-.7h.66v-1.51h.8v1.51h.72v.7h-.72Z"/><path class="cls-3" d="M83.14,170.08a.5.5,0,0,1-.51.5.51.51,0,0,1,0-1A.51.51,0,0,1,83.14,170.08ZM83,176.22h-.79v-4.8H83Z"/><path class="cls-3" d="M89.11,173.83a2.45,2.45,0,0,1-2.45,2.5,2.51,2.51,0,1,1,2.45-2.5Zm-4.07,0a1.62,1.62,0,0,0,1.64,1.78,1.64,1.64,0,0,0,1.62-1.78A1.61,1.61,0,0,0,86.69,172,1.63,1.63,0,0,0,85,173.82Z"/><path class="cls-3" d="M91.11,171.42v.68a1.62,1.62,0,0,1,1.43-.79,1.67,1.67,0,0,1,1.11.39,1.57,1.57,0,0,1,.41,1.28v3.24h-.79v-3.06a1.32,1.32,0,0,0-.18-.82.93.93,0,0,0-.75-.33,1.22,1.22,0,0,0-.92.41,1.16,1.16,0,0,0-.31.87v2.93h-.79v-4.8Z"/><path class="cls-3" d="M97.83,172.73v0c0-.45-.36-.73-.91-.73s-.87.27-.87.69.21.57,1.08.81a2.49,2.49,0,0,1,1.16.55,1.34,1.34,0,0,1,.39.94c0,.83-.69,1.39-1.71,1.39s-1.71-.51-1.79-1.48H96a.89.89,0,0,0,1,.84c.54,0,.9-.28.9-.71s-.27-.62-1.1-.83c-1-.28-1.51-.72-1.51-1.45s.68-1.39,1.69-1.39a1.47,1.47,0,0,1,1.68,1.42Z"/><rect class="cls-3" x="63.08" y="31.79" width="0.75" height="37.14"/><polygon class="cls-3" points="59.71 67.83 63.45 74.31 67.19 67.83 59.71 67.83"/><rect class="cls-3" x="63.08" y="102.76" width="0.75" height="37.14"/><polygon class="cls-3" points="59.71 138.8 63.45 145.28 67.19 138.8 59.71 138.8"/><rect class="cls-3" x="63.08" y="186.61" width="0.75" height="37.14"/><polygon class="cls-3" points="59.71 222.65 63.45 229.13 67.19 222.65 59.71 222.65"/><rect class="cls-3" x="63.08" y="257.91" width="0.75" height="37.14"/><polygon class="cls-3" points="59.71 293.95 63.45 300.43 67.19 293.95 59.71 293.95"/><rect class="cls-4" x="0.5" y="230.08" width="125.9" height="28.35"/><path class="cls-5" d="M126.9,258.93H0V229.58H126.9ZM1,257.93H125.9V230.58H1Z"/><path class="cls-3" d="M12.3,247.29h-.87v-6.94h.8l3.7,5.22v-5.22h.88v6.94H16L12.3,242Z"/><path class="cls-3" d="M22.09,242.49h.79v4.8h-.79v-.92a2,2,0,0,1-1.75,1,2.29,2.29,0,0,1-2.25-2.5,2.33,2.33,0,0,1,2.28-2.53,2,2,0,0,1,1.72.9Zm-2.78,1.17a2.17,2.17,0,0,0-.39,1.27,1.64,1.64,0,0,0,1.54,1.79,1.77,1.77,0,0,0,1.64-1.87,1.62,1.62,0,0,0-1.62-1.76A1.31,1.31,0,0,0,19.31,243.66Z"/><path class="cls-3" d="M25.27,242.49v.67a1.49,1.49,0,0,1,1.36-.78,1.24,1.24,0,0,1,1.29.87,1.57,1.57,0,0,1,1.52-.87,1.46,1.46,0,0,1,1.22.51c.23.3.29.57.29,1.33v3.07h-.79v-2.88c0-.58,0-.72-.14-.92a.92.92,0,0,0-.83-.4c-.7,0-1.08.47-1.08,1.32v2.88h-.79v-2.87a1.75,1.75,0,0,0-.16-.92.82.82,0,0,0-.78-.41c-.7,0-1.11.5-1.11,1.33v2.87h-.79v-4.8Z"/><path class="cls-3" d="M33,245.15a1.47,1.47,0,0,0,.31.87,1.55,1.55,0,0,0,1.29.66,1.67,1.67,0,0,0,1.44-.82l.69.26a2.34,2.34,0,0,1-2.13,1.29,2.52,2.52,0,1,1,2.4-2.57c0,.06,0,.19,0,.31Zm3.16-.58a1.46,1.46,0,0,0-.27-.83,1.65,1.65,0,0,0-1.32-.65,1.55,1.55,0,0,0-1.29.66,1.84,1.84,0,0,0-.27.82Z"/><path class="cls-3" d="M42.12,247.29h-.79v-4.1h-.66v-.7h.66v-.64c0-.95.48-1.51,1.32-1.51h.22v.71c-.58.06-.73.23-.75.79v.64h.75v.7h-.75Z"/><path class="cls-3" d="M48.31,244.91a2.45,2.45,0,0,1-2.46,2.5,2.52,2.52,0,1,1,2.46-2.5Zm-4.07,0a1.62,1.62,0,0,0,1.63,1.78,1.65,1.65,0,0,0,1.63-1.78,1.64,1.64,0,1,0-3.26,0Z"/><path class="cls-3" d="M49.52,247.29v-6.94h.79v6.94Z"/><path class="cls-3" d="M55.49,240.35h.79v6.94h-.79v-.82a2,2,0,0,1-1.72.94,2.29,2.29,0,0,1-2.26-2.49,2.35,2.35,0,0,1,2.26-2.54,2.07,2.07,0,0,1,1.72.84Zm-3.14,4.58a1.61,1.61,0,0,0,1.54,1.79,1.67,1.67,0,0,0,1.6-1.81,1.62,1.62,0,0,0-1.55-1.82A1.64,1.64,0,0,0,52.35,244.93Z"/><path class="cls-3" d="M58.33,245.15a1.47,1.47,0,0,0,.31.87,1.55,1.55,0,0,0,1.29.66,1.65,1.65,0,0,0,1.44-.82l.7.26a2.47,2.47,0,1,1-2.17-3.74,2.39,2.39,0,0,1,2.44,2.46c0,.06,0,.19,0,.31Zm3.16-.58a1.46,1.46,0,0,0-.27-.83,1.65,1.65,0,0,0-1.32-.65,1.55,1.55,0,0,0-1.29.66,1.84,1.84,0,0,0-.27.82Z"/><path class="cls-3" d="M64.27,242.49v.82a1.38,1.38,0,0,1,.44-.64,1.48,1.48,0,0,1,.91-.29h.19v.8h-.22a1.25,1.25,0,0,0-1,.55,1.77,1.77,0,0,0-.28,1.14v2.43h-.79v-4.8Z"/><path class="cls-3" d="M73.53,242.49h.79v4.8h-.79v-.92a2,2,0,0,1-1.74,1,2.29,2.29,0,0,1-2.26-2.5,2.33,2.33,0,0,1,2.28-2.53,2,2,0,0,1,1.72.9Zm-2.78,1.17a2.17,2.17,0,0,0-.39,1.27,1.65,1.65,0,0,0,1.54,1.79,1.77,1.77,0,0,0,1.64-1.87,1.62,1.62,0,0,0-1.62-1.76A1.31,1.31,0,0,0,70.75,243.66Z"/><path class="cls-3" d="M76.71,242.49v.68a1.63,1.63,0,0,1,1.42-.79,1.68,1.68,0,0,1,1.12.4,1.56,1.56,0,0,1,.4,1.28v3.23h-.79v-3.06a1.29,1.29,0,0,0-.18-.82.89.89,0,0,0-.74-.32,1.19,1.19,0,0,0-.92.4,1.14,1.14,0,0,0-.31.88v2.92h-.79v-4.8Z"/><path class="cls-3" d="M84.8,240.35h.8v6.94h-.8v-.82a1.93,1.93,0,0,1-1.71.94,2.29,2.29,0,0,1-2.26-2.49,2.35,2.35,0,0,1,2.26-2.54,2,2,0,0,1,1.71.84Zm-3.14,4.58a1.61,1.61,0,0,0,1.54,1.79,1.66,1.66,0,0,0,1.6-1.81,1.62,1.62,0,0,0-1.55-1.82A1.65,1.65,0,0,0,81.66,244.93Z"/><path class="cls-3" d="M94.8,244.91a2.45,2.45,0,0,1-2.45,2.5,2.52,2.52,0,1,1,2.45-2.5Zm-4.06,0a1.62,1.62,0,0,0,1.63,1.78A1.64,1.64,0,0,0,94,244.9a1.63,1.63,0,1,0-3.25,0Z"/><path class="cls-3" d="M96.8,246.31c0,.24.08.3.37.3h.36v.68h-.74c-.56,0-.78-.22-.78-.75v-3.35h-.66v-.7H96V241h.79v1.5h.73v.7H96.8Z"/><path class="cls-3" d="M99.42,243.16a1.75,1.75,0,0,1,1.44-.78,1.61,1.61,0,0,1,1.12.44,1.64,1.64,0,0,1,.37,1.25v3.22h-.79v-3.18c0-.66-.32-1-.9-1a1.21,1.21,0,0,0-.93.42,1.25,1.25,0,0,0-.31,1v2.81h-.8v-6.94h.8Z"/><path class="cls-3" d="M104.37,245.15a1.47,1.47,0,0,0,.31.87,1.55,1.55,0,0,0,1.29.66,1.65,1.65,0,0,0,1.44-.82l.7.26a2.47,2.47,0,1,1-2.17-3.74,2.39,2.39,0,0,1,2.44,2.46c0,.06,0,.19,0,.31Zm3.16-.58a1.46,1.46,0,0,0-.27-.83,1.65,1.65,0,0,0-1.32-.65,1.55,1.55,0,0,0-1.29.66,1.84,1.84,0,0,0-.27.82Z"/><path class="cls-3" d="M110.31,242.49v.82a1.38,1.38,0,0,1,.44-.64,1.49,1.49,0,0,1,.92-.29h.18v.8h-.22a1.25,1.25,0,0,0-1,.55,1.77,1.77,0,0,0-.28,1.14v2.43h-.79v-4.8Z"/><path class="cls-3" d="M115.07,243.81v-.06c0-.44-.37-.72-.92-.72s-.86.27-.86.68.21.57,1.07.81a2.64,2.64,0,0,1,1.17.55,1.35,1.35,0,0,1,.38.94c0,.83-.69,1.4-1.71,1.4a1.56,1.56,0,0,1-1.79-1.48h.79a.88.88,0,0,0,1,.83c.55,0,.9-.28.9-.71s-.27-.62-1.09-.83c-1-.28-1.51-.72-1.51-1.45s.67-1.39,1.68-1.39a1.47,1.47,0,0,1,1.68,1.43Z"/><path class="cls-3" d="M39.86,11.84H41.7a3.1,3.1,0,0,1,3.36,3.36A3.6,3.6,0,0,1,44,18a3.42,3.42,0,0,1-2.41.81H39.86ZM40.74,18h.31a3.1,3.1,0,0,0,2.17-.52,2.76,2.76,0,0,0,.94-2.3,2.33,2.33,0,0,0-2.49-2.64h-.93Z"/><path class="cls-3" d="M50,14h.79v4.8H50v-.93a2,2,0,0,1-1.75,1A2.3,2.3,0,0,1,46,16.39a2.34,2.34,0,0,1,2.28-2.53,2,2,0,0,1,1.73.91Zm-2.78,1.16a2.2,2.2,0,0,0-.4,1.27,1.65,1.65,0,0,0,1.54,1.79A1.77,1.77,0,0,0,50,16.33a1.62,1.62,0,0,0-1.63-1.76A1.31,1.31,0,0,0,47.19,15.14Z"/><path class="cls-3" d="M54.56,15.29v0c0-.45-.37-.73-.92-.73s-.86.27-.86.69.21.57,1.07.81a2.35,2.35,0,0,1,1.16.55,1.34,1.34,0,0,1,.39.94c0,.83-.69,1.39-1.71,1.39a1.56,1.56,0,0,1-1.79-1.48h.78a.9.9,0,0,0,1,.84c.54,0,.9-.29.9-.71s-.27-.63-1.09-.84c-1-.28-1.51-.71-1.51-1.44s.67-1.4,1.68-1.4a1.47,1.47,0,0,1,1.68,1.43Z"/><path class="cls-3" d="M57.41,14.64a1.76,1.76,0,0,1,1.45-.78A1.61,1.61,0,0,1,60,14.3a1.66,1.66,0,0,1,.37,1.25v3.23h-.79V15.59c0-.65-.32-1-.89-1a1.23,1.23,0,0,0-.94.43,1.25,1.25,0,0,0-.31,1v2.81h-.79V11.84h.79Z"/><path class="cls-3" d="M62.7,18.78h-.8V11.84h.8v3a1.94,1.94,0,0,1,1.68-.94,2.31,2.31,0,0,1,2.28,2.53,2.28,2.28,0,0,1-2.24,2.5A1.93,1.93,0,0,1,62.7,18Zm0-2.4a1.59,1.59,0,1,0,3.15,0,1.59,1.59,0,1,0-3.15,0Z"/><path class="cls-3" d="M72.36,16.39a2.45,2.45,0,0,1-2.45,2.5,2.37,2.37,0,0,1-2.43-2.52,2.37,2.37,0,0,1,2.46-2.51A2.39,2.39,0,0,1,72.36,16.39Zm-4.07,0a1.64,1.64,0,1,0,3.26,0,1.61,1.61,0,0,0-1.61-1.79A1.63,1.63,0,0,0,68.29,16.38Z"/><path class="cls-3" d="M77.19,14H78v4.8h-.79v-.93a2,2,0,0,1-1.75,1,2.29,2.29,0,0,1-2.25-2.5,2.33,2.33,0,0,1,2.27-2.53,2,2,0,0,1,1.73.91Zm-2.78,1.16A2.2,2.2,0,0,0,74,16.41a1.64,1.64,0,0,0,1.54,1.79,1.77,1.77,0,0,0,1.64-1.87,1.62,1.62,0,0,0-1.62-1.76A1.32,1.32,0,0,0,74.41,15.14Z"/><path class="cls-3" d="M80.37,14v.81a1.33,1.33,0,0,1,.43-.63,1.51,1.51,0,0,1,.92-.3h.19v.81a1,1,0,0,0-.22,0,1.22,1.22,0,0,0-1,.56,1.74,1.74,0,0,0-.28,1.13v2.44h-.79V14Z"/><path class="cls-3" d="M86.31,11.84h.79v6.94h-.79V18a2,2,0,0,1-1.72.94,2.29,2.29,0,0,1-2.26-2.49,2.35,2.35,0,0,1,2.26-2.54,2,2,0,0,1,1.72.85Zm-3.14,4.57a1.61,1.61,0,0,0,1.54,1.79,1.67,1.67,0,0,0,1.6-1.81,1.62,1.62,0,0,0-1.55-1.82A1.64,1.64,0,0,0,83.17,16.41Z"/></g></g></svg>