<?xml version="1.0" encoding="utf-8"?>
<!-- Generator: Adobe Illustrator 23.1.1, SVG Export Plug-In . SVG Version: 6.00 Build 0)  -->
<svg version="1.1" id="Layer_1" xmlns="http://www.w3.org/2000/svg" xmlns:xlink="http://www.w3.org/1999/xlink" x="0px" y="0px"
	 viewBox="0 0 281 465.1" style="enable-background:new 0 0 281 465.1;" xml:space="preserve">
<style type="text/css">
	.st0{fill:#FFFFFF;}
	.st1{opacity:0.5;fill:#FFFFFF;enable-background:new    ;}
	.st2{opacity:0.5;fill:#EF3D5A;enable-background:new    ;}
	.st3{fill:#231F20;}
	.st4{fill:#2E307D;}
	.st5{fill:#D181B6;}
</style>
<title>flowchart1mobile</title>
<g>
	<path class="st0" d="M164.2,436.7h-47.4c-7.8,0-14.2,6.3-14.2,14.2v0c0,7.8,6.3,14.2,14.2,14.2h47.4c7.8,0,14.2-6.3,14.2-14.2v0
		C178.4,443.1,172,436.7,164.2,436.7z"/>
	<polygon class="st0" points="281,349.8 227.6,349.8 223.1,378.8 248.9,378.8 248.9,405.8 195.4,405.8 195.4,378.8 220.7,378.8 
		225.2,349.8 171.8,349.8 167.3,378.8 194.7,378.8 194.7,405.8 159.9,405.8 141.5,405.8 141.5,378.8 164.9,378.8 169.4,349.8 
		116.1,349.8 111.6,378.8 140.7,378.8 140.7,405.8 82.3,405.8 82.3,378.8 109.1,378.8 113.6,349.8 60.3,349.8 55.8,378.8 
		81.5,378.8 81.5,405.8 30.1,405.8 30.1,378.8 53.4,378.8 57.9,349.8 4.5,349.8 0,378.8 29.4,378.8 29.4,406.6 81.5,406.6 
		140.7,406.6 140.7,428.6 137.3,428.6 141.1,435.1 144.8,428.6 141.5,428.6 141.5,406.6 159.9,406.6 195.4,406.6 249.6,406.6 
		249.6,378.8 276.5,378.8 	"/>
	<path class="st0" d="M122.1,300.1H86.5H32.4v41.8H29l3.7,6.5l3.7-6.5h-3.4v-41h53.4v41h-3.4l3.7,6.5l3.7-6.5h-3.4v-41h34.8h18v41
		h-3.4l3.7,6.5l3.7-6.5h-3.4v-41h58.8v41h-3.4l3.7,6.5l3.7-6.5h-3.4v-41h51.4v41h-3.4l3.7,6.5l3.7-6.5h-3.4v-41.8h-52.2h-59.6v-17.7
		h58.8v-26h64.8V227H134.1v29.3h64.8v25.3H79v-26.3h33.1V226h-33l4.1-4.1H79v-6.3h33.1v-29.3h-33l4-4.1H79v-7h33.1v-29.3h-33
		l4.1-4.1H79v-10.5h49.2V102H78.9l3.5-6H79V43.1h119.9V96h-3.4l3.5,6h-48.5v29.3H248V102h-48.5l3.5-6h-3.4V42.3h-60.7v-14h34.9
		c7.8,0,14.2-6.3,14.2-14.2v0C188,6.3,181.7,0,173.8,0h-70.6c-7.8,0-14.2,6.3-14.2,14.2v0c0,7.8,6.3,14.2,14.2,14.2h34.9v14H78.3V96
		h-3.4l3.5,6H29v29.3h49.2v10.5h-4.2l4.1,4.1h-33v29.3h33.1v7h-4.2l4.1,4.1h-33v29.3h33.1v6.3h-4.2l4.1,4.1h-33v29.3h33.1v27h61.9
		v17.7H122.1z"/>
	<polygon class="st0" points="198.9,131.5 198.9,220.1 195.5,220.1 199.2,226.5 203,220.1 199.6,220.1 199.6,131.5 	"/>
</g>
<g>
	<g id="Layer_1-2">
		<path class="st1" d="M103.2,0h70.6c7.8,0,14.2,6.3,14.2,14.2v0c0,7.8-6.3,14.2-14.2,14.2h-70.6c-7.8,0-14.2-6.3-14.2-14.2v0
			C89.1,6.3,95.4,0,103.2,0z"/>
		<path class="st0" d="M116.8,436.7h47.4c7.8,0,14.2,6.3,14.2,14.2v0c0,7.8-6.3,14.2-14.2,14.2h-47.4c-7.8,0-14.2-6.3-14.2-14.2v0
			C102.6,443.1,109,436.7,116.8,436.7z"/>
		<path class="st2" d="M116.8,436.7h47.4c7.8,0,14.2,6.3,14.2,14.2v0c0,7.8-6.3,14.2-14.2,14.2h-47.4c-7.8,0-14.2-6.3-14.2-14.2v0
			C102.6,443.1,109,436.7,116.8,436.7z"/>
		<path class="st3" d="M121.5,450.2c0,0.1,0,0.3,0,0.4c0.1,1.8-1.4,3.4-3.2,3.5c0,0-0.1,0-0.1,0c-2-0.1-3.5-1.8-3.4-3.8
			c0.1-1.8,1.6-3.3,3.4-3.4c1,0,2,0.5,2.6,1.3l-0.7,0.5c-0.2-0.2-0.4-0.4-0.6-0.5c-0.4-0.3-0.9-0.4-1.4-0.4
			c-1.5,0.2-2.7,1.5-2.5,3.1c0.1,1.3,1.2,2.4,2.5,2.5c0.8,0,1.5-0.4,2-1c0.3-0.4,0.4-0.8,0.4-1.3h-2.4v-0.8L121.5,450.2z"/>
		<path class="st3" d="M123.2,451.8c0,0.3,0.1,0.6,0.3,0.9c0.3,0.4,0.8,0.7,1.3,0.6c0.6,0,1.1-0.3,1.4-0.8l0.7,0.3
			c-0.4,0.8-1.2,1.3-2.1,1.2c-1.4,0.1-2.6-1-2.6-2.4c-0.1-1.4,1-2.6,2.4-2.6c1.4-0.1,2.6,1,2.6,2.4c0,0,0,0,0,0.1c0,0.1,0,0.2,0,0.3
			L123.2,451.8z M126.4,451.2c0-0.3-0.1-0.6-0.3-0.8c-0.3-0.4-0.8-0.7-1.3-0.7c-0.5,0-1,0.2-1.3,0.7c-0.2,0.2-0.2,0.5-0.3,0.8H126.4
			z"/>
		<path class="st3" d="M129.1,453c0,0.2,0.1,0.3,0.4,0.3h0.4v0.7h-0.7c-0.6,0-0.8-0.2-0.8-0.7v-3.4h-0.7v-0.7h0.7v-1.5h0.8v1.5h0.7
			v0.7h-0.7L129.1,453z"/>
		<path class="st3" d="M136.3,450.4L136.3,450.4c0-0.5-0.4-0.8-0.9-0.8s-0.9,0.3-0.9,0.7s0.2,0.6,1.1,0.8c0.4,0.1,0.8,0.3,1.2,0.5
			c0.2,0.2,0.4,0.6,0.4,0.9c0,0.8-0.7,1.4-1.7,1.4c-0.9,0.1-1.6-0.5-1.8-1.3c0-0.1,0-0.1,0-0.2h0.8c0,0.5,0.5,0.9,0.9,0.8
			c0,0,0,0,0.1,0c0.5,0,0.9-0.3,0.9-0.7s-0.3-0.6-1.1-0.8c-1-0.3-1.5-0.7-1.5-1.4s0.7-1.4,1.7-1.4c0.8-0.1,1.5,0.4,1.7,1.2
			c0,0.1,0,0.1,0,0.2L136.3,450.4z"/>
		<path class="st3" d="M142.9,451.5c0,1.4-1,2.5-2.4,2.5c0,0,0,0-0.1,0c-1.4,0-2.6-1.1-2.6-2.4c0-1.4,1.1-2.6,2.4-2.6
			C141.7,449,142.8,450.1,142.9,451.5C142.8,451.5,142.9,451.5,142.9,451.5z M138.8,451.5c-0.1,0.9,0.6,1.7,1.5,1.8
			c0.1,0,0.1,0,0.2,0c0.9,0,1.6-0.7,1.6-1.7c0,0,0-0.1,0-0.1c0.1-0.9-0.6-1.7-1.5-1.8c-0.9-0.1-1.7,0.6-1.8,1.5
			C138.8,451.4,138.8,451.5,138.8,451.5z"/>
		<path class="st3" d="M144.1,453.9V447h0.8v6.9L144.1,453.9z"/>
		<path class="st3" d="M150,449.1v3.1c0.1,0.5-0.1,1-0.5,1.3c-0.8,0.7-2,0.7-2.8,0c-0.3-0.4-0.5-0.8-0.5-1.3v-3.1h0.8v3
			c0,0.6,0.4,1.1,1,1.1c0,0,0.1,0,0.1,0c0.3,0,0.6-0.1,0.9-0.3c0.2-0.2,0.2-0.5,0.2-0.8v-3.1L150,449.1z"/>
		<path class="st3" d="M152.3,453c0,0.2,0.1,0.3,0.4,0.3h0.4v0.7h-0.7c-0.6,0-0.8-0.2-0.8-0.7v-3.4h-0.7v-0.7h0.7v-1.5h0.8v1.5h0.7
			v0.7h-0.7L152.3,453z"/>
		<path class="st3" d="M155,447.8c0,0.3-0.2,0.5-0.5,0.5c-0.3,0-0.5-0.2-0.5-0.5c0-0.3,0.2-0.5,0.5-0.5
			C154.8,447.3,155,447.5,155,447.8C155,447.8,155,447.8,155,447.8z M154.9,453.9h-0.8v-4.8h0.8V453.9z"/>
		<path class="st3" d="M161,451.5c0,1.4-1,2.5-2.4,2.5c0,0,0,0-0.1,0c-1.4,0-2.6-1.1-2.6-2.4c0-1.4,1.1-2.6,2.4-2.6
			C159.8,449,161,450.1,161,451.5C161,451.5,161,451.5,161,451.5z M156.9,451.5c-0.1,0.9,0.6,1.7,1.5,1.8c0.1,0,0.1,0,0.2,0
			c0.9,0,1.6-0.7,1.6-1.7c0,0,0-0.1,0-0.1c0.1-0.9-0.5-1.7-1.4-1.8c-0.1,0-0.1,0-0.2,0c-0.9,0-1.6,0.7-1.7,1.6
			C156.9,451.4,156.9,451.5,156.9,451.5L156.9,451.5z"/>
		<path class="st3" d="M163,449.1v0.7c0.3-0.5,0.8-0.8,1.4-0.8c0.4,0,0.8,0.1,1.1,0.4c0.3,0.3,0.5,0.8,0.4,1.3v3.2h-0.8v-3
			c0-0.3,0-0.6-0.1-0.9c-0.2-0.2-0.5-0.3-0.8-0.3c-0.4,0-0.7,0.1-0.9,0.4c-0.2,0.2-0.3,0.5-0.3,0.9v2.9h-0.8v-4.8L163,449.1z"/>
		<rect x="45.6" y="186.8" class="st0" width="66" height="28.4"/>
		<path class="st4" d="M112.1,215.7h-67v-29.3h67V215.7z M46.1,214.7h65v-27.3h-65V214.7z"/>
		<path class="st3" d="M58.7,202.2c0,0.6,0.4,1.2,1,1.2c0.1,0,0.1,0,0.2,0c0.7,0.1,1.3-0.4,1.3-1.1c0,0,0-0.1,0-0.1
			c0-0.6-0.3-0.9-1.4-1.2c-0.5-0.1-1-0.4-1.4-0.7c-0.4-0.3-0.6-0.8-0.5-1.3c0.1-1.1,1.1-2,2.2-1.9c1,0.1,1.8,0.9,1.9,1.9h-0.9
			c0-0.3,0-0.5-0.2-0.7c-0.2-0.3-0.6-0.5-1-0.5c-0.6,0-1.1,0.4-1.2,1c0,0,0,0.1,0,0.1c0,0.3,0.1,0.6,0.4,0.8
			c0.3,0.2,0.7,0.4,1.1,0.5c0.5,0.1,1,0.4,1.4,0.8c0.3,0.3,0.5,0.8,0.5,1.2c0,1.1-0.9,2-2,2c-0.1,0-0.1,0-0.2,0
			c-0.7,0.1-1.5-0.3-1.9-0.9c-0.2-0.3-0.2-0.6-0.2-0.9v-0.1L58.7,202.2z"/>
		<path class="st3" d="M63.8,201.9c0,0.3,0.1,0.6,0.3,0.9c0.3,0.4,0.8,0.7,1.3,0.7c0.6,0,1.1-0.3,1.4-0.8l0.7,0.3
			c-0.4,0.8-1.2,1.3-2.1,1.3c-1.4,0.1-2.6-1-2.6-2.4c-0.1-1.4,1-2.6,2.4-2.6c1.4-0.1,2.6,1,2.6,2.4c0,0,0,0,0,0.1c0,0.1,0,0.2,0,0.3
			L63.8,201.9z M67,201.3c0-0.3-0.1-0.6-0.3-0.8c-0.3-0.4-0.8-0.7-1.3-0.7c-0.5,0-1,0.2-1.3,0.7c-0.2,0.2-0.2,0.5-0.3,0.8L67,201.3z
			"/>
		<path class="st3" d="M68.9,204v-6.9h0.8v6.9H68.9z"/>
		<path class="st3" d="M71.7,201.9c0,0.3,0.1,0.6,0.3,0.9c0.3,0.4,0.8,0.7,1.3,0.7c0.6,0,1.1-0.3,1.4-0.8l0.7,0.3
			c-0.4,0.8-1.2,1.3-2.1,1.3c-1.4,0.1-2.6-1-2.6-2.4s1-2.6,2.4-2.6c1.4-0.1,2.6,1,2.6,2.4c0,0,0,0,0,0.1c0,0.1,0,0.2,0,0.3
			L71.7,201.9z M74.9,201.3c0-0.3-0.1-0.6-0.3-0.8c-0.3-0.4-0.8-0.7-1.3-0.7c-0.5,0-1,0.2-1.3,0.7c-0.2,0.2-0.2,0.5-0.3,0.8
			L74.9,201.3z"/>
		<path class="st3" d="M80.6,203.4c-0.5,0.5-1.1,0.7-1.8,0.7c-1.4-0.2-2.4-1.4-2.2-2.8c0.1-1.1,1-2,2.2-2.2c0.7,0,1.3,0.2,1.8,0.7
			l-0.5,0.5c-0.3-0.3-0.8-0.5-1.2-0.5c-1,0.1-1.7,1-1.6,2c0.1,0.8,0.7,1.4,1.6,1.6c0.5,0,0.9-0.2,1.2-0.5L80.6,203.4z"/>
		<path class="st3" d="M82.7,203.1c0,0.2,0.1,0.3,0.4,0.3h0.4v0.6h-0.7c-0.6,0-0.8-0.2-0.8-0.8v-3.4h-0.7v-0.7h0.7v-1.5h0.8v1.5h0.7
			v0.7h-0.7V203.1z"/>
		<path class="st3" d="M88.5,204h-0.8v-4.1h-0.7v-0.7h0.7v-0.6c0-0.9,0.5-1.5,1.3-1.5h0.2v0.7c-0.6,0.1-0.7,0.2-0.8,0.8v0.6h0.8v0.7
			h-0.8V204z"/>
		<path class="st3" d="M91.2,197.9c0,0.3-0.2,0.5-0.5,0.5c0,0,0,0,0,0c-0.3,0-0.5-0.2-0.5-0.5c0,0,0,0,0,0c0-0.3,0.2-0.5,0.5-0.5
			c0,0,0,0,0,0C91,197.4,91.2,197.6,91.2,197.9C91.2,197.9,91.2,197.9,91.2,197.9z M91.1,204h-0.8v-4.8h0.8V204z"/>
		<path class="st3" d="M92.7,204v-6.9h0.8v6.9H92.7z"/>
		<path class="st3" d="M95.5,201.9c0,0.3,0.1,0.6,0.3,0.9c0.3,0.4,0.8,0.7,1.3,0.7c0.6,0,1.1-0.3,1.4-0.8l0.7,0.3
			c-0.4,0.8-1.2,1.3-2.1,1.3c-1.4,0.1-2.6-1-2.6-2.4s1-2.6,2.4-2.6c1.4-0.1,2.6,1,2.6,2.4c0,0,0,0,0,0.1c0,0.1,0,0.2,0,0.3
			L95.5,201.9z M98.7,201.3c0-0.3-0.1-0.6-0.3-0.8c-0.3-0.4-0.8-0.7-1.3-0.7c-0.5,0-1,0.2-1.3,0.7c-0.2,0.2-0.2,0.5-0.3,0.8
			L98.7,201.3z"/>
		<rect x="45.6" y="146.4" class="st0" width="66" height="28.4"/>
		<path class="st4" d="M112.1,175.2h-67v-29.3h67V175.2z M46.1,174.2h65v-27.3h-65V174.2z"/>
		<path class="st3" d="M67.4,157.5c0,0.3-0.2,0.5-0.5,0.5c0,0,0,0,0,0c-0.3,0-0.5-0.2-0.5-0.5c0,0,0,0,0,0c0-0.3,0.2-0.5,0.5-0.5
			c0,0,0,0,0,0C67.2,156.9,67.5,157.2,67.4,157.5C67.4,157.5,67.4,157.5,67.4,157.5z M67.3,163.6h-0.8v-4.8h0.8V163.6z"/>
		<path class="st3" d="M69.7,158.8v0.7c0.3-0.5,0.8-0.8,1.4-0.8c0.4,0,0.8,0.1,1.1,0.4c0.3,0.3,0.5,0.8,0.4,1.3v3.2h-0.8v-3.1
			c0-0.3,0-0.6-0.2-0.8c-0.2-0.2-0.5-0.3-0.8-0.3c-0.4,0-0.7,0.1-0.9,0.4c-0.2,0.2-0.3,0.5-0.3,0.9v2.9h-0.8v-4.8L69.7,158.8z"/>
		<path class="st3" d="M77.8,158.8l-1.8,4.8h-0.8l-1.8-4.8h0.8l1.3,3.7l1.4-3.7L77.8,158.8z"/>
		<path class="st3" d="M79.5,157.5c0,0.3-0.2,0.5-0.5,0.5c0,0,0,0,0,0c-0.3,0-0.5-0.2-0.5-0.5c0,0,0,0,0,0c0-0.3,0.2-0.5,0.5-0.5
			c0,0,0,0,0,0C79.3,156.9,79.5,157.2,79.5,157.5C79.5,157.5,79.5,157.5,79.5,157.5z M79.4,163.6h-0.8v-4.8h0.8V163.6z"/>
		<path class="st3" d="M81.8,162.6c0,0.2,0.1,0.3,0.4,0.3h0.4v0.7h-0.7c-0.6,0-0.8-0.2-0.8-0.7v-3.4h-0.7v-0.7H81v-1.5h0.8v1.5h0.7
			v0.7h-0.7L81.8,162.6z"/>
		<path class="st3" d="M84,161.5c0,0.3,0.1,0.6,0.3,0.9c0.3,0.4,0.8,0.7,1.3,0.7c0.6,0,1.1-0.3,1.4-0.8l0.7,0.3
			c-0.7,1.2-2.2,1.5-3.4,0.8s-1.5-2.2-0.8-3.4c0.4-0.7,1.2-1.2,2.1-1.2c1.3,0,2.4,1,2.4,2.3c0,0,0,0.1,0,0.1c0,0.1,0,0.2,0,0.3
			L84,161.5z M87.2,160.9c0-0.3-0.1-0.6-0.3-0.8c-0.3-0.4-0.8-0.7-1.3-0.7c-0.5,0-1,0.2-1.3,0.7c-0.2,0.2-0.2,0.5-0.3,0.8
			L87.2,160.9z"/>
		<rect x="45.6" y="226.6" class="st0" width="66" height="28.4"/>
		<path class="st4" d="M112.1,255.4h-67v-29.3h67V255.4z M46.1,254.4h65v-27.3h-65V254.4z"/>
		<path class="st3" d="M57,241.9c0,0.6,0.4,1.2,1,1.2c0.1,0,0.1,0,0.2,0c0.7,0.1,1.3-0.4,1.3-1.1c0,0,0-0.1,0-0.1
			c0-0.6-0.3-0.9-1.4-1.2c-0.5-0.1-1-0.4-1.4-0.7c-0.4-0.3-0.6-0.8-0.5-1.3c0.1-1.1,1.1-2,2.2-1.9c1,0.1,1.8,0.9,1.9,1.9h-0.9
			c0-0.3,0-0.5-0.2-0.7c-0.2-0.3-0.6-0.5-1-0.5c-0.6,0-1.1,0.4-1.2,1c0,0,0,0.1,0,0.1c0,0.3,0.1,0.6,0.4,0.8
			c0.3,0.2,0.7,0.4,1.1,0.5c0.5,0.1,1,0.4,1.4,0.8c0.3,0.3,0.5,0.8,0.5,1.2c0,1.1-0.9,2-2,2c-0.1,0-0.1,0-0.2,0
			c-0.7,0.1-1.5-0.3-1.8-0.9c-0.2-0.3-0.2-0.6-0.2-0.9v-0.1L57,241.9z"/>
		<path class="st3" d="M62.1,241.6c0,0.3,0.1,0.6,0.3,0.9c0.3,0.4,0.8,0.7,1.3,0.6c0.6,0,1.1-0.3,1.4-0.8l0.7,0.3
			c-0.4,0.8-1.2,1.3-2.1,1.3c-1.4,0.1-2.6-1-2.6-2.4c-0.1-1.4,1-2.6,2.4-2.6s2.6,1,2.6,2.4c0,0,0,0,0,0c0,0.1,0,0.2,0,0.3
			L62.1,241.6z M65.3,241c0-0.3-0.1-0.6-0.3-0.8c-0.3-0.4-0.8-0.7-1.3-0.7c-0.5,0-1,0.2-1.3,0.7c-0.1,0.2-0.2,0.5-0.3,0.8L65.3,241z
			"/>
		<path class="st3" d="M67.2,243.8v-6.9H68v6.9H67.2z"/>
		<path class="st3" d="M70,241.6c0,0.3,0.1,0.6,0.3,0.9c0.3,0.4,0.8,0.7,1.3,0.6c0.6,0,1.1-0.3,1.4-0.8l0.7,0.3
			c-0.4,0.8-1.2,1.3-2.1,1.3c-1.4,0.1-2.6-1-2.6-2.4c-0.1-1.4,1-2.6,2.4-2.6c1.4-0.1,2.6,1,2.6,2.4c0,0,0,0,0,0c0,0.1,0,0.2,0,0.3
			L70,241.6z M73.2,241c0-0.3-0.1-0.6-0.3-0.8c-0.3-0.4-0.8-0.7-1.3-0.7c-0.5,0-1,0.2-1.3,0.7c-0.1,0.2-0.2,0.5-0.3,0.8L73.2,241z"
			/>
		<path class="st3" d="M78.9,243.2c-0.5,0.5-1.1,0.7-1.8,0.7c-1.4-0.1-2.4-1.3-2.3-2.7c0.1-1.2,1.1-2.2,2.3-2.3
			c0.7,0,1.3,0.2,1.8,0.7l-0.5,0.5c-0.3-0.3-0.8-0.5-1.2-0.5c-1,0.1-1.7,1-1.6,2c0.1,0.8,0.7,1.4,1.6,1.6c0.5,0,0.9-0.2,1.2-0.5
			L78.9,243.2z"/>
		<path class="st3" d="M81,242.8c0,0.2,0.1,0.3,0.4,0.3h0.4v0.7H81c-0.6,0-0.8-0.2-0.8-0.8v-3.4h-0.7V239h0.7v-1.5H81v1.5h0.7v0.7
			H81V242.8z"/>
		<path class="st3" d="M86.8,242.8c0,0.2,0.1,0.3,0.4,0.3h0.4v0.7h-0.7c-0.6,0-0.8-0.2-0.8-0.8v-3.4h-0.7V239H86v-1.5h0.8v1.5h0.7
			v0.7h-0.7V242.8z"/>
		<path class="st3" d="M93,241.4c0,1.4-1,2.5-2.4,2.5c0,0,0,0-0.1,0c-1.4,0-2.5-1.1-2.6-2.5s1.1-2.5,2.5-2.6
			C91.8,238.8,93,239.9,93,241.4C93,241.3,93,241.4,93,241.4z M88.9,241.4c-0.1,0.9,0.6,1.7,1.5,1.8c0.1,0,0.1,0,0.2,0
			c0.9,0,1.6-0.7,1.6-1.7c0,0,0-0.1,0-0.1c0.1-0.9-0.5-1.7-1.4-1.8s-1.7,0.5-1.8,1.4C88.9,241.1,88.9,241.2,88.9,241.4z"/>
		<path class="st3" d="M98.7,241.4c0,1.4-1,2.5-2.4,2.5c0,0,0,0-0.1,0c-1.4,0-2.5-1.1-2.6-2.4c0-1.4,1.1-2.5,2.4-2.6
			S98.7,239.9,98.7,241.4C98.7,241.3,98.7,241.3,98.7,241.4z M94.7,241.4c-0.1,0.9,0.5,1.7,1.4,1.8c0.1,0,0.1,0,0.2,0
			c0.9,0,1.6-0.7,1.6-1.6c0,0,0-0.1,0-0.1c0.1-0.9-0.6-1.7-1.5-1.8c-0.9-0.1-1.7,0.6-1.8,1.5C94.7,241.2,94.7,241.3,94.7,241.4z"/>
		<path class="st3" d="M100,243.8v-6.9h0.8v6.9H100z"/>
		<rect x="151" y="102.5" class="st0" width="96.6" height="28.3"/>
		<path class="st4" d="M248,131.3h-97.5V102H248V131.3z M151.4,130.3H247V103h-95.5L151.4,130.3z"/>
		<rect x="29.5" y="102.5" class="st0" width="98.2" height="28.3"/>
		<path class="st4" d="M128.2,131.3H29V102h99.2V131.3z M30,130.3h97.2V103H30L30,130.3z"/>
		<path class="st3" d="M163.2,118.1l-0.6,1.6h-0.9l2.6-7h1l2.6,7h-1l-0.6-1.6H163.2z M164.8,113.8l-1.3,3.5h2.6L164.8,113.8z"/>
		<path class="st3" d="M172.4,119.1c-0.5,0.5-1.1,0.7-1.8,0.7c-1.4-0.2-2.4-1.4-2.2-2.8c0.1-1.1,1-2,2.2-2.2c0.7,0,1.3,0.2,1.8,0.7
			l-0.5,0.5c-0.3-0.3-0.8-0.5-1.2-0.5c-1,0.1-1.7,1-1.6,2c0.1,0.8,0.7,1.4,1.6,1.6c0.5,0,0.9-0.2,1.2-0.5L172.4,119.1z"/>
		<path class="st3" d="M177,119.1c-0.5,0.5-1.1,0.7-1.8,0.7c-1.4-0.2-2.4-1.4-2.2-2.8c0.1-1.1,1-2,2.2-2.2c0.7,0,1.3,0.2,1.8,0.7
			l-0.5,0.5c-0.3-0.3-0.8-0.5-1.2-0.5c-1,0.1-1.7,1-1.6,2c0.1,0.8,0.7,1.4,1.6,1.6c0.5,0,0.9-0.2,1.2-0.5L177,119.1z"/>
		<path class="st3" d="M178.3,117.5c0,0.3,0.1,0.6,0.3,0.9c0.3,0.4,0.8,0.7,1.3,0.7c0.6,0,1.1-0.3,1.4-0.8l0.7,0.3
			c-0.6,1.2-2.1,1.6-3.3,1c-0.8-0.4-1.3-1.3-1.3-2.2c-0.1-1.3,0.9-2.5,2.2-2.6c1.3-0.1,2.5,0.9,2.6,2.2c0,0.1,0,0.2,0,0.3
			c0,0.1,0,0.2,0,0.3H178.3z M181.5,117c0-0.3-0.1-0.6-0.3-0.8c-0.3-0.4-0.8-0.7-1.3-0.7c-0.5,0-1,0.2-1.3,0.7
			c-0.1,0.2-0.2,0.5-0.3,0.8L181.5,117z"/>
		<path class="st3" d="M184.2,114.9v0.9c0.3-0.6,1-1,1.8-1c1.3,0,2.3,1,2.3,2.3c0,0.1,0,0.1,0,0.2c0.1,1.3-0.8,2.4-2,2.5
			c-0.1,0-0.1,0-0.2,0c-0.4,0-0.7-0.1-1.1-0.2c-0.3-0.1-0.5-0.3-0.7-0.6v3h-0.8v-7L184.2,114.9z M184.2,117.4
			c-0.1,0.9,0.5,1.6,1.4,1.7c0.1,0,0.1,0,0.2,0c0.9,0,1.6-0.8,1.6-1.7c0-0.1,0-0.1,0-0.2c0-0.5-0.1-0.9-0.4-1.3
			c-0.3-0.3-0.7-0.5-1.1-0.5c-0.9,0-1.7,0.8-1.6,1.7C184.2,117.3,184.2,117.3,184.2,117.4z"/>
		<path class="st3" d="M190.2,118.7c0,0.2,0.1,0.3,0.4,0.3h0.4v0.7h-0.7c-0.6,0-0.8-0.2-0.8-0.8v-3.4h-0.7v-0.7h0.7v-1.5h0.8v1.5
			h0.7v0.7h-0.7L190.2,118.7z"/>
		<path class="st3" d="M196.1,113.6c0,0.3-0.2,0.5-0.5,0.5c0,0,0,0,0,0c-0.3-0.1-0.5-0.3-0.4-0.6c0-0.2,0.2-0.4,0.4-0.4
			C195.9,113,196.1,113.3,196.1,113.6C196.1,113.5,196.1,113.5,196.1,113.6z M196,119.7h-0.8v-4.8h0.8L196,119.7z"/>
		<path class="st3" d="M198.4,114.9v0.7c0.3-0.5,0.8-0.8,1.4-0.8c0.4,0,0.8,0.1,1.1,0.4c0.3,0.3,0.5,0.8,0.4,1.3v3.2h-0.8v-3.1
			c0-0.3,0-0.6-0.2-0.8c-0.2-0.2-0.5-0.3-0.8-0.3c-0.3,0-0.7,0.1-0.9,0.4c-0.2,0.2-0.3,0.5-0.3,0.9v2.9h-0.8v-4.8H198.4z"/>
		<path class="st3" d="M206.4,114.9l-1.8,4.8h-0.8l-1.8-4.8h0.8l1.4,3.7l1.4-3.7H206.4z"/>
		<path class="st3" d="M208.2,113.6c0,0.3-0.2,0.5-0.5,0.5c0,0,0,0,0,0c-0.3,0.1-0.5-0.1-0.6-0.4c-0.1-0.3,0.1-0.5,0.4-0.6
			c0.1,0,0.1,0,0.2,0C207.9,113,208.2,113.3,208.2,113.6C208.2,113.5,208.2,113.5,208.2,113.6z M208.1,119.7h-0.8v-4.8h0.8V119.7z"
			/>
		<path class="st3" d="M210.5,118.7c0,0.2,0.1,0.3,0.4,0.3h0.4v0.7h-0.7c-0.6,0-0.8-0.2-0.8-0.8v-3.4H209v-0.7h0.7v-1.5h0.8v1.5h0.7
			v0.7h-0.7L210.5,118.7z"/>
		<path class="st3" d="M215.9,114.9h0.8v4.8h-0.8v-0.9c-0.4,0.6-1,1-1.8,1c-1.3,0-2.3-1.1-2.3-2.3c0-0.1,0-0.1,0-0.2
			c-0.1-1.3,0.8-2.4,2.1-2.5c0.1,0,0.1,0,0.2,0c0.7,0,1.4,0.3,1.7,0.9V114.9z M213.1,116.1c-0.3,0.4-0.4,0.8-0.4,1.3
			c-0.1,0.9,0.6,1.7,1.5,1.8c0,0,0,0,0.1,0c1-0.1,1.7-0.9,1.6-1.9c0.1-0.9-0.6-1.7-1.5-1.8c0,0-0.1,0-0.1,0
			C213.8,115.5,213.4,115.7,213.1,116.1z"/>
		<path class="st3" d="M219.1,118.7c0,0.2,0.1,0.3,0.4,0.3h0.4v0.7h-0.7c-0.6,0-0.8-0.2-0.8-0.8v-3.4h-0.7v-0.7h0.7v-1.5h0.8v1.5
			h0.7v0.7h-0.7L219.1,118.7z"/>
		<path class="st3" d="M221.8,113.6c0,0.3-0.2,0.5-0.5,0.5c0,0,0,0,0,0c-0.3-0.1-0.5-0.3-0.4-0.6c0-0.2,0.2-0.4,0.4-0.4
			C221.5,113,221.8,113.3,221.8,113.6C221.8,113.5,221.8,113.5,221.8,113.6z M221.6,119.7h-0.8v-4.8h0.8V119.7z"/>
		<path class="st3" d="M227.7,117.3c0,1.4-1,2.5-2.4,2.5c0,0,0,0-0.1,0c-1.4,0-2.6-1.1-2.6-2.4s1.1-2.6,2.4-2.6
			C226.5,114.7,227.7,115.8,227.7,117.3C227.7,117.2,227.7,117.3,227.7,117.3z M223.7,117.3c0.1,0.9,0.9,1.6,1.8,1.5
			c0.9-0.1,1.6-0.9,1.5-1.8c-0.1-0.8-0.8-1.5-1.6-1.5c-0.9,0-1.6,0.7-1.7,1.6C223.7,117.2,223.7,117.2,223.7,117.3L223.7,117.3z"/>
		<path class="st3" d="M229.7,114.9v0.7c0.3-0.5,0.8-0.8,1.4-0.8c0.4,0,0.8,0.1,1.1,0.4c0.3,0.3,0.5,0.8,0.4,1.3v3.2h-0.8v-3.1
			c0-0.3,0-0.6-0.2-0.8c-0.2-0.2-0.5-0.3-0.8-0.3c-0.4,0-0.7,0.1-0.9,0.4c-0.2,0.2-0.3,0.5-0.3,0.9v2.9h-0.8v-4.8H229.7z"/>
		<path class="st3" d="M42.2,118.6c-1.2,1.4-3.3,1.6-4.7,0.4c-0.1-0.1-0.2-0.2-0.3-0.2c-0.6-0.7-0.9-1.6-0.9-2.6
			c-0.1-1.9,1.3-3.5,3.1-3.6c0.1,0,0.1,0,0.2,0c0.6,0,1.2,0.2,1.7,0.5c0.3,0.2,0.6,0.4,0.8,0.7l-0.6,0.6c-0.5-0.6-1.2-1-1.9-1
			c-1.5,0.2-2.6,1.6-2.4,3.2c0.2,1.3,1.2,2.3,2.4,2.4c0.8,0,1.5-0.4,1.9-1L42.2,118.6z"/>
		<path class="st3" d="M47.7,117.3c0,1.4-1,2.5-2.4,2.5c0,0,0,0-0.1,0c-1.4,0-2.6-1.1-2.6-2.4c0-1.4,1.1-2.6,2.4-2.6
			C46.5,114.7,47.7,115.8,47.7,117.3C47.7,117.2,47.7,117.3,47.7,117.3z M43.6,117.3c-0.1,0.9,0.6,1.7,1.5,1.8c0.1,0,0.1,0,0.2,0
			c0.9,0,1.6-0.7,1.6-1.7c0,0,0-0.1,0-0.1c0.1-0.9-0.6-1.7-1.5-1.8c-0.9-0.1-1.7,0.6-1.8,1.5C43.6,117.1,43.6,117.2,43.6,117.3z"/>
		<path class="st3" d="M48.9,119.7v-6.9h0.8v6.9H48.9z"/>
		<path class="st3" d="M51.3,119.7v-6.9h0.8v6.9H51.3z"/>
		<path class="st3" d="M57.3,114.9h0.8v4.8h-0.8v-0.9c-0.4,0.6-1,1-1.8,1c-1.3,0-2.3-1.1-2.3-2.3c0-0.1,0-0.1,0-0.2
			c-0.1-1.3,0.8-2.4,2.1-2.5c0.1,0,0.1,0,0.2,0c0.7,0,1.4,0.3,1.7,0.9V114.9z M54.5,116.1c-0.3,0.4-0.4,0.8-0.4,1.3
			c-0.1,0.9,0.6,1.7,1.5,1.8c0,0,0,0,0.1,0c1-0.1,1.7-0.9,1.6-1.9c0.1-0.9-0.6-1.7-1.5-1.8c0,0-0.1,0-0.1,0
			C55.2,115.5,54.8,115.7,54.5,116.1z"/>
		<path class="st3" d="M60.5,119.7h-0.8v-6.9h0.8v3c0.4-0.6,1-0.9,1.7-0.9c1.3,0,2.3,1.1,2.3,2.3c0,0.1,0,0.1,0,0.2
			c0.1,1.3-0.8,2.4-2,2.5c-0.1,0-0.1,0-0.2,0c-0.7,0-1.4-0.3-1.7-0.9L60.5,119.7z M60.5,117.3c-0.1,0.9,0.5,1.7,1.4,1.8
			c0.9,0.1,1.7-0.5,1.8-1.4c0-0.1,0-0.3,0-0.4c0.1-0.9-0.5-1.7-1.4-1.8c-0.9-0.1-1.7,0.5-1.8,1.4C60.5,117,60.5,117.1,60.5,117.3z"
			/>
		<path class="st3" d="M70.2,117.3c0,1.4-1,2.5-2.4,2.5c0,0,0,0-0.1,0c-1.4,0-2.6-1.1-2.6-2.4c0-1.4,1.1-2.6,2.4-2.6
			C69,114.7,70.1,115.8,70.2,117.3C70.1,117.2,70.2,117.3,70.2,117.3z M66.1,117.3c-0.1,0.9,0.6,1.7,1.5,1.8c0.1,0,0.1,0,0.2,0
			c0.9,0,1.6-0.7,1.6-1.7c0,0,0-0.1,0-0.1c0.1-0.9-0.5-1.7-1.4-1.8c-0.1,0-0.1,0-0.2,0c-0.9,0-1.6,0.7-1.7,1.6
			C66.1,117.2,66.1,117.2,66.1,117.3L66.1,117.3z"/>
		<path class="st3" d="M72.2,114.9v0.8c0.1-0.2,0.2-0.5,0.4-0.6c0.3-0.2,0.6-0.3,0.9-0.3h0.2v0.8c-0.1,0-0.1,0-0.2,0
			c-0.4,0-0.8,0.2-1,0.6c-0.2,0.3-0.3,0.7-0.3,1.1v2.4h-0.8v-4.8L72.2,114.9z"/>
		<path class="st3" d="M78.1,114.9h0.8v4.8h-0.8v-0.9c-0.4,0.6-1,1-1.7,1c-1.3,0-2.3-1-2.3-2.3c0-0.1,0-0.1,0-0.2
			c-0.1-1.3,0.8-2.4,2.1-2.5c0.1,0,0.1,0,0.2,0c0.7,0,1.3,0.3,1.7,0.9V114.9z M75.3,116.1c-0.3,0.4-0.4,0.8-0.4,1.3
			c-0.1,0.9,0.6,1.7,1.5,1.8c0,0,0,0,0,0c1-0.1,1.7-0.9,1.6-1.9c0.1-0.9-0.6-1.7-1.5-1.8c0,0-0.1,0-0.1,0
			C76,115.5,75.6,115.7,75.3,116.1z"/>
		<path class="st3" d="M81.3,118.7c0,0.2,0.1,0.3,0.4,0.3h0.4v0.7h-0.7c-0.6,0-0.8-0.2-0.8-0.8v-3.3h-0.7v-0.7h0.7v-1.5h0.8v1.5h0.7
			v0.7h-0.7L81.3,118.7z"/>
		<path class="st3" d="M84,113.6c0,0.3-0.2,0.5-0.5,0.5c0,0,0,0,0,0c-0.3,0-0.5-0.2-0.5-0.5c0-0.3,0.2-0.5,0.5-0.5
			C83.8,113,84,113.3,84,113.6C84,113.5,84,113.5,84,113.6z M83.9,119.7h-0.8v-4.8h0.8V119.7z"/>
		<path class="st3" d="M90,117.3c0,1.4-1,2.5-2.4,2.5c0,0,0,0-0.1,0c-1.4,0-2.5-1.1-2.6-2.5s1.1-2.5,2.5-2.6
			C88.8,114.7,90,115.8,90,117.3C90,117.2,90,117.3,90,117.3z M85.9,117.3c-0.1,0.9,0.6,1.7,1.5,1.8c0.1,0,0.1,0,0.2,0
			c0.9,0,1.6-0.8,1.6-1.7c0,0,0-0.1,0-0.1c0.1-0.9-0.5-1.7-1.4-1.8c-0.9-0.1-1.7,0.5-1.8,1.4C85.9,117.1,85.9,117.2,85.9,117.3z"/>
		<path class="st3" d="M92,114.9v0.7c0.3-0.5,0.8-0.8,1.4-0.8c0.4,0,0.8,0.1,1.1,0.4c0.3,0.3,0.5,0.8,0.4,1.3v3.2h-0.8v-3.1
			c0-0.3,0-0.6-0.2-0.8c-0.2-0.2-0.5-0.3-0.8-0.3c-0.3,0-0.7,0.1-0.9,0.4c-0.2,0.2-0.3,0.5-0.3,0.9v2.9h-0.8v-4.8H92z"/>
		<path class="st3" d="M100.4,114.9v0.8c0.1-0.2,0.2-0.5,0.4-0.6c0.3-0.2,0.6-0.3,0.9-0.3h0.2v0.8c-0.1,0-0.1,0-0.2,0
			c-0.4,0-0.8,0.2-1,0.6c-0.2,0.3-0.3,0.7-0.3,1.1v2.4h-0.8v-4.8L100.4,114.9z"/>
		<path class="st3" d="M107.2,117.3c0,1.4-1,2.5-2.4,2.5c0,0,0,0-0.1,0c-1.4,0-2.6-1.1-2.6-2.4c0-1.4,1.1-2.6,2.4-2.6
			C106,114.7,107.2,115.8,107.2,117.3C107.2,117.2,107.2,117.3,107.2,117.3z M103.2,117.3c-0.1,0.9,0.6,1.7,1.5,1.8
			c0.1,0,0.1,0,0.2,0c0.9,0,1.6-0.7,1.6-1.7c0,0,0-0.1,0-0.1c0.1-0.9-0.5-1.7-1.4-1.8c-0.9-0.1-1.7,0.5-1.8,1.4
			C103.1,117.1,103.1,117.2,103.2,117.3z"/>
		<path class="st3" d="M112.9,117.3c0,1.4-1,2.5-2.4,2.5c0,0,0,0-0.1,0c-1.4,0-2.6-1.1-2.6-2.4c0-1.4,1.1-2.6,2.4-2.6
			C111.7,114.7,112.9,115.8,112.9,117.3C112.9,117.2,112.9,117.3,112.9,117.3z M108.9,117.3c-0.1,0.9,0.6,1.7,1.5,1.8
			c0.1,0,0.1,0,0.2,0c0.9,0,1.6-0.7,1.6-1.7c0,0,0-0.1,0-0.1c0.1-0.9-0.6-1.7-1.5-1.8c-0.9-0.1-1.7,0.6-1.8,1.5
			C108.9,117.1,108.9,117.2,108.9,117.3z"/>
		<path class="st3" d="M114.9,114.9v0.7c0.3-0.5,0.8-0.8,1.4-0.8c0.6,0,1.1,0.3,1.3,0.9c0.3-0.6,0.9-0.9,1.5-0.9
			c0.5,0,0.9,0.2,1.2,0.5c0.3,0.4,0.4,0.9,0.3,1.3v3.1h-0.8v-2.9c0-0.6,0-0.7-0.1-0.9c-0.2-0.3-0.5-0.4-0.8-0.4
			c-0.7,0-1.1,0.5-1.1,1.3v2.9H117v-2.9c0-0.3,0-0.6-0.2-0.9c-0.2-0.3-0.5-0.4-0.8-0.4c-0.7,0-1.1,0.5-1.1,1.3v2.9h-0.8v-4.8
			L114.9,114.9z"/>
		<rect x="134.6" y="227.6" class="st0" width="129.3" height="28.4"/>
		<path class="st4" d="M264.4,256.4H134.1v-29.3h130.3V256.4z M135.1,255.4h128.3v-27.3H135.1L135.1,255.4z"/>
		<path class="st3" d="M145.7,240.9h2.7v0.8h-2.7v3.1h-0.9v-6.9h3.6v0.8h-2.7V240.9z"/>
		<path class="st3" d="M150.3,238.6c0,0.3-0.2,0.5-0.5,0.5c0,0,0,0,0,0c-0.3-0.1-0.5-0.3-0.4-0.6c0-0.2,0.2-0.4,0.4-0.4
			C150.1,238.1,150.3,238.3,150.3,238.6z M150.2,244.8h-0.8V240h0.8V244.8z"/>
		<path class="st3" d="M151.8,244.8v-6.9h0.8v6.9H151.8z"/>
		<path class="st3" d="M154.6,242.6c0,0.3,0.1,0.6,0.3,0.9c0.3,0.4,0.8,0.7,1.3,0.6c0.6,0,1.1-0.3,1.4-0.8l0.7,0.3
			c-0.4,0.8-1.2,1.3-2.1,1.3c-1.4,0.1-2.6-1-2.6-2.4c-0.1-1.4,1-2.6,2.4-2.6s2.6,1,2.6,2.4c0,0,0,0,0,0c0,0.1,0,0.2,0,0.3
			L154.6,242.6z M157.8,242c0-0.3-0.1-0.6-0.3-0.8c-0.3-0.4-0.8-0.7-1.3-0.7c-0.5,0-1,0.2-1.3,0.7c-0.2,0.2-0.2,0.5-0.3,0.8
			L157.8,242z"/>
		<path class="st3" d="M163.8,238.6c0,0.3-0.2,0.5-0.5,0.5c-0.3,0-0.5-0.2-0.5-0.5c0-0.3,0.2-0.5,0.5-0.5
			C163.6,238.1,163.8,238.3,163.8,238.6C163.8,238.6,163.8,238.6,163.8,238.6z M163.7,244.8h-0.8V240h0.8V244.8z"/>
		<path class="st3" d="M166.1,240v0.7c0.5-0.8,1.6-1,2.4-0.5c0.1,0,0.1,0.1,0.2,0.1c0.3,0.3,0.5,0.8,0.4,1.3v3.2h-0.8v-3.1
			c0-0.3,0-0.6-0.2-0.8c-0.2-0.2-0.5-0.3-0.8-0.3c-0.3,0-0.7,0.1-0.9,0.4c-0.2,0.2-0.3,0.5-0.3,0.9v2.9h-0.8V240H166.1z"/>
		<path class="st3" d="M177.4,244.2c-0.5,0.5-1.1,0.7-1.8,0.7c-1.4-0.1-2.4-1.3-2.3-2.7c0.1-1.2,1.1-2.2,2.3-2.3
			c0.7,0,1.3,0.2,1.8,0.7l-0.5,0.5c-0.3-0.3-0.8-0.5-1.2-0.5c-1,0.1-1.7,1-1.6,2c0.1,0.8,0.7,1.4,1.6,1.6c0.5,0,0.9-0.2,1.2-0.5
			L177.4,244.2z"/>
		<path class="st3" d="M182.8,242.4c0,1.4-1,2.5-2.4,2.5c0,0,0,0-0.1,0c-1.4,0-2.5-1.1-2.6-2.5c0-1.4,1.1-2.5,2.5-2.6
			C181.6,239.8,182.7,240.9,182.8,242.4C182.8,242.3,182.8,242.4,182.8,242.4z M178.7,242.4c-0.1,0.9,0.5,1.7,1.4,1.8
			c0.1,0,0.1,0,0.2,0c0.9,0,1.6-0.7,1.6-1.6c0,0,0-0.1,0-0.1c0.1-0.9-0.6-1.7-1.5-1.8c-0.9-0.1-1.7,0.6-1.8,1.5
			C178.7,242.2,178.7,242.3,178.7,242.4z"/>
		<path class="st3" d="M184,244.8v-6.9h0.8v6.9H184z"/>
		<path class="st3" d="M186.4,244.8v-6.9h0.8v6.9H186.4z"/>
		<path class="st3" d="M192.4,240h0.8v4.8h-0.8v-0.9c-0.4,0.6-1,1-1.8,1c-1.3,0-2.3-1.1-2.3-2.3c0-0.1,0-0.1,0-0.2
			c-0.1-1.3,0.8-2.4,2.1-2.5c0,0,0.1,0,0.1,0c0.7,0,1.3,0.3,1.7,0.9V240z M189.6,241.2c-0.3,0.4-0.4,0.8-0.4,1.3
			c-0.1,0.9,0.6,1.7,1.5,1.8c0,0,0,0,0.1,0c1-0.1,1.7-0.9,1.6-1.9c0.1-0.9-0.6-1.7-1.5-1.8c0,0-0.1,0-0.1,0
			C190.3,240.6,189.8,240.8,189.6,241.2L189.6,241.2z"/>
		<path class="st3" d="M195.5,244.8h-0.8v-6.9h0.8v3c0.4-0.6,1-0.9,1.7-0.9c1.3,0,2.3,1.1,2.3,2.3c0,0.1,0,0.1,0,0.2
			c0.1,1.3-0.8,2.4-2,2.5c-0.1,0-0.1,0-0.2,0c-0.7,0-1.4-0.3-1.7-0.9L195.5,244.8z M195.5,242.4c0,1.1,0.6,1.8,1.6,1.8
			c0.9,0,1.6-0.7,1.6-1.6c0-0.1,0-0.1,0-0.2c0.1-0.9-0.5-1.7-1.3-1.8c-0.9-0.1-1.7,0.5-1.8,1.3C195.5,242.1,195.5,242.2,195.5,242.4
			L195.5,242.4z"/>
		<path class="st3" d="M201.5,240v0.8c0.1-0.3,0.2-0.5,0.4-0.6c0.3-0.2,0.6-0.3,0.9-0.3h0.1v0.8h-0.2c-0.4,0-0.8,0.2-1,0.6
			c-0.2,0.3-0.3,0.7-0.3,1.1v2.4h-0.8V240H201.5z"/>
		<path class="st3" d="M207.5,240h0.8v4.8h-0.8v-0.9c-0.4,0.6-1,1-1.8,1c-1.3,0-2.3-1.1-2.3-2.3c0-0.1,0-0.1,0-0.2
			c-0.1-1.3,0.8-2.4,2.1-2.5c0.1,0,0.1,0,0.2,0c0.7,0,1.3,0.3,1.7,0.9V240z M204.7,241.2c-0.3,0.4-0.4,0.8-0.4,1.3
			c-0.1,0.9,0.6,1.7,1.5,1.8c0,0,0,0,0.1,0c1-0.1,1.7-0.9,1.6-1.9c0.1-0.9-0.6-1.7-1.5-1.8c0,0-0.1,0-0.1,0
			C205.4,240.6,205,240.8,204.7,241.2L204.7,241.2z"/>
		<path class="st3" d="M210.7,243.8c0,0.2,0.1,0.3,0.4,0.3h0.4v0.7h-0.7c-0.6,0-0.8-0.2-0.8-0.8v-3.4h-0.7V240h0.7v-1.5h0.8v1.5h0.7
			v0.7h-0.7L210.7,243.8z"/>
		<path class="st3" d="M213.4,238.6c0,0.3-0.2,0.5-0.5,0.5c0,0,0,0,0,0c-0.3-0.1-0.5-0.3-0.4-0.6c0-0.2,0.2-0.4,0.4-0.4
			C213.1,238.1,213.3,238.3,213.4,238.6z M213.2,244.8h-0.8V240h0.8V244.8z"/>
		<path class="st3" d="M219.3,242.4c0,1.4-1,2.5-2.4,2.5c0,0,0,0-0.1,0c-1.4,0-2.5-1.1-2.6-2.5c0-1.4,1.1-2.5,2.5-2.6
			C218.2,239.8,219.3,240.9,219.3,242.4C219.3,242.3,219.3,242.4,219.3,242.4z M215.3,242.4c-0.1,0.9,0.5,1.7,1.4,1.8
			c0.1,0,0.1,0,0.2,0c0.9,0,1.6-0.7,1.6-1.6c0,0,0-0.1,0-0.1c0.1-0.9-0.6-1.7-1.5-1.8c-0.9-0.1-1.7,0.6-1.8,1.5
			C215.3,242.2,215.3,242.3,215.3,242.4z"/>
		<path class="st3" d="M221.3,240v0.7c0.5-0.8,1.6-1,2.4-0.5c0.1,0,0.1,0.1,0.2,0.1c0.3,0.3,0.5,0.8,0.4,1.3v3.2h-0.8v-3.1
			c0-0.3,0-0.6-0.2-0.8c-0.2-0.2-0.5-0.3-0.8-0.3c-0.3,0-0.7,0.1-0.9,0.4c-0.2,0.2-0.3,0.5-0.3,0.9v2.9h-0.8V240H221.3z"/>
		<path class="st3" d="M231.2,241.3L231.2,241.3c0-0.5-0.4-0.8-0.9-0.8s-0.9,0.3-0.9,0.7s0.2,0.6,1.1,0.8c0.4,0.1,0.8,0.3,1.2,0.6
			c0.2,0.3,0.4,0.6,0.4,0.9c0,0.8-0.7,1.4-1.7,1.4s-1.7-0.5-1.8-1.5h0.8c0,0.5,0.4,0.9,0.9,0.8c0,0,0.1,0,0.1,0
			c0.6,0,0.9-0.3,0.9-0.7s-0.3-0.6-1.1-0.8c-1-0.3-1.5-0.7-1.5-1.4s0.7-1.4,1.7-1.4s1.6,0.5,1.7,1.4H231.2z"/>
		<path class="st3" d="M234,240v0.9c0.3-0.6,1-1,1.8-1c1.3,0,2.3,1,2.3,2.3c0,0.1,0,0.1,0,0.2c0.1,1.3-0.8,2.4-2.1,2.5
			c-0.1,0-0.1,0-0.2,0c-0.3,0-0.7-0.1-1-0.2c-0.3-0.1-0.5-0.3-0.7-0.6v3h-0.8v-7L234,240z M234,242.5c-0.1,0.9,0.5,1.6,1.4,1.7
			c0.1,0,0.1,0,0.2,0c0.9,0,1.6-0.8,1.6-1.7c0-0.1,0-0.1,0-0.2c0-0.5-0.1-0.9-0.4-1.3c-0.3-0.3-0.7-0.5-1.1-0.5
			c-0.9,0-1.6,0.8-1.6,1.7C234,242.4,234,242.4,234,242.5L234,242.5z"/>
		<path class="st3" d="M242.8,240h0.8v4.8h-0.8v-0.9c-0.4,0.6-1,1-1.7,1c-1.3,0-2.3-1-2.3-2.3c0-0.1,0-0.1,0-0.2
			c-0.1-1.3,0.8-2.4,2.1-2.5c0.1,0,0.1,0,0.2,0c0.7,0,1.3,0.3,1.7,0.9V240z M240,241.1c-0.3,0.4-0.4,0.8-0.4,1.3
			c-0.1,0.9,0.6,1.7,1.5,1.8c0,0,0,0,0,0c1-0.1,1.7-0.9,1.6-1.9c0.1-0.9-0.6-1.7-1.5-1.8c0,0-0.1,0-0.1,0
			C240.7,240.5,240.3,240.7,240,241.1z"/>
		<path class="st3" d="M248.9,244.2c-0.5,0.5-1.1,0.7-1.8,0.7c-1.4-0.1-2.4-1.3-2.3-2.7c0.1-1.2,1.1-2.2,2.3-2.3
			c0.7,0,1.3,0.2,1.7,0.7l-0.5,0.5c-0.3-0.3-0.8-0.5-1.2-0.5c-1,0.1-1.7,1-1.6,2c0.1,0.8,0.7,1.4,1.6,1.6c0.5,0,0.9-0.2,1.2-0.5
			L248.9,244.2z"/>
		<path class="st3" d="M250.2,242.6c0,0.3,0.1,0.6,0.3,0.9c0.3,0.4,0.8,0.7,1.3,0.6c0.6,0,1.1-0.3,1.4-0.8l0.7,0.3
			c-0.4,0.8-1.2,1.3-2.1,1.3c-1.4,0.1-2.6-1-2.6-2.4c-0.1-1.4,1-2.6,2.4-2.6s2.6,1,2.6,2.4c0,0,0,0,0,0c0,0.1,0,0.2,0,0.3
			L250.2,242.6z M253.4,242c0-0.3-0.1-0.6-0.3-0.8c-0.3-0.4-0.8-0.7-1.3-0.7c-0.5,0-1,0.2-1.3,0.7c-0.1,0.2-0.2,0.5-0.3,0.8
			L253.4,242z"/>
		<path class="st2" d="M103.2,0h70.6c7.8,0,14.2,6.3,14.2,14.2v0c0,7.8-6.3,14.2-14.2,14.2h-70.6c-7.8,0-14.2-6.3-14.2-14.2v0
			C89.1,6.3,95.4,0,103.2,0z"/>
		<path class="st3" d="M115,10.3h1.8c1.7-0.2,3.2,1.1,3.4,2.8c0,0.2,0,0.4,0,0.6c0.1,1-0.3,2.1-1.1,2.8c-0.7,0.6-1.5,0.8-2.4,0.8
			H115V10.3z M115.9,16.5h0.3c0.8,0.1,1.5-0.1,2.2-0.5c0.7-0.6,1-1.4,0.9-2.3c0.2-1.3-0.7-2.4-2-2.6c-0.2,0-0.4,0-0.6,0h-0.9
			L115.9,16.5z"/>
		<path class="st3" d="M125.1,12.4h0.8v4.8h-0.8v-0.9c-0.4,0.6-1,1-1.8,1c-1.3,0-2.3-1-2.3-2.3c0-0.1,0-0.1,0-0.2
			c-0.1-1.3,0.8-2.4,2.1-2.5c0.1,0,0.1,0,0.2,0c0.7,0,1.3,0.3,1.7,0.9V12.4z M122.3,13.6c-0.3,0.4-0.4,0.8-0.4,1.3
			c-0.1,0.9,0.6,1.7,1.5,1.8c0,0,0,0,0,0c1-0.1,1.7-0.9,1.7-1.9c0.1-0.9-0.6-1.7-1.5-1.8c-0.1,0-0.1,0-0.2,0
			C123,13,122.5,13.2,122.3,13.6z"/>
		<path class="st3" d="M129.6,13.7L129.6,13.7c0-0.5-0.4-0.8-0.9-0.8s-0.9,0.3-0.9,0.7s0.2,0.6,1.1,0.8c0.4,0.1,0.8,0.3,1.2,0.6
			c0.2,0.3,0.4,0.6,0.4,0.9c0,0.8-0.7,1.4-1.7,1.4s-1.7-0.5-1.8-1.5h0.8c0,0.5,0.4,0.9,0.9,0.8c0,0,0.1,0,0.1,0
			c0.5,0,0.9-0.3,0.9-0.7s-0.3-0.6-1.1-0.8c-1-0.3-1.5-0.7-1.5-1.4s0.7-1.4,1.7-1.4c1,0,1.6,0.5,1.7,1.4H129.6z"/>
		<path class="st3" d="M132.5,13.1c0.3-0.5,0.9-0.8,1.5-0.8c0.4,0,0.8,0.2,1.1,0.4c0.3,0.3,0.4,0.8,0.4,1.2v3.2h-0.8V14
			c0-0.7-0.3-1-0.9-1c-0.4,0-0.7,0.1-0.9,0.4c-0.2,0.3-0.4,0.6-0.3,1v2.8h-0.8v-7h0.8L132.5,13.1z"/>
		<path class="st3" d="M137.8,17.2H137v-6.9h0.8v3c0.4-0.6,1-0.9,1.7-0.9c1.3,0,2.3,1.1,2.3,2.3c0,0.1,0,0.1,0,0.2
			c0.1,1.2-0.8,2.4-2,2.5c-0.1,0-0.1,0-0.2,0c-0.7,0-1.3-0.3-1.7-0.9L137.8,17.2z M137.8,14.8c-0.1,0.9,0.5,1.7,1.3,1.8
			c0.9,0.1,1.7-0.5,1.8-1.3c0-0.2,0-0.3,0-0.5c0.1-0.9-0.5-1.7-1.3-1.8c-0.9-0.1-1.7,0.5-1.8,1.3C137.8,14.5,137.8,14.7,137.8,14.8z
			"/>
		<path class="st3" d="M147.5,14.8c0,1.4-1.1,2.5-2.4,2.5c0,0,0,0-0.1,0c-1.3,0-2.4-1-2.4-2.3c0-0.1,0-0.1,0-0.2
			c-0.1-1.4,0.9-2.5,2.3-2.6c1.4-0.1,2.5,0.9,2.6,2.3C147.5,14.6,147.5,14.7,147.5,14.8L147.5,14.8z M143.4,14.8
			c-0.1,0.9,0.6,1.7,1.5,1.8c0,0,0.1,0,0.1,0c0.9,0,1.6-0.7,1.6-1.7c0,0,0-0.1,0-0.1c0.1-0.9-0.6-1.7-1.5-1.8
			c-0.9-0.1-1.7,0.6-1.8,1.5C143.4,14.6,143.4,14.7,143.4,14.8L143.4,14.8z"/>
		<path class="st3" d="M152.3,12.4h0.8v4.8h-0.8v-0.9c-0.4,0.6-1,1-1.7,1c-1.3,0-2.3-1-2.3-2.3c0-0.1,0-0.1,0-0.2
			c-0.1-1.3,0.8-2.4,2.1-2.5c0.1,0,0.1,0,0.2,0c0.7,0,1.3,0.3,1.7,0.9V12.4z M149.5,13.6c-0.3,0.4-0.4,0.8-0.4,1.3
			c-0.1,0.9,0.6,1.7,1.5,1.8c0,0,0,0,0,0c1-0.1,1.7-0.9,1.6-1.9c0.1-0.9-0.6-1.7-1.5-1.8c-0.1,0-0.1,0-0.2,0
			C150.2,13,149.8,13.2,149.5,13.6z"/>
		<path class="st3" d="M155.5,12.4v0.8c0.1-0.2,0.2-0.5,0.4-0.6c0.3-0.2,0.6-0.3,0.9-0.3h0.2v0.8h-0.2c-0.4,0-0.8,0.2-1,0.6
			c-0.2,0.3-0.3,0.7-0.3,1.1v2.4h-0.8v-4.8L155.5,12.4z"/>
		<path class="st3" d="M161.4,10.3h0.8v6.9h-0.8v-0.8c-0.4,0.6-1,0.9-1.7,0.9c-1.3,0-2.3-1-2.3-2.3c0-0.1,0-0.1,0-0.2
			c-0.1-1.3,0.9-2.4,2.2-2.5c0,0,0.1,0,0.1,0c0.7,0,1.3,0.3,1.7,0.8V10.3z M158.3,14.9c-0.1,0.9,0.5,1.7,1.4,1.8c0,0,0.1,0,0.1,0
			c0.9,0,1.6-0.8,1.6-1.7c0,0,0-0.1,0-0.1c0.1-0.9-0.5-1.7-1.4-1.8c-0.1,0-0.1,0-0.2,0c-0.9,0-1.6,0.8-1.6,1.7
			C158.2,14.7,158.3,14.8,158.3,14.9z"/>
		<polygon class="st0" points="220.3,378.3 167.9,378.3 172.3,350.3 224.6,350.3 		"/>
		<path class="st5" d="M220.7,378.8h-53.4l4.5-29h53.4L220.7,378.8z M168.5,377.8h51.3l4.2-27h-51.3L168.5,377.8z"/>
		<path class="st3" d="M181.6,366.3c-1.2,1.4-3.3,1.6-4.7,0.4c-0.1-0.1-0.2-0.2-0.3-0.2c-0.6-0.7-0.9-1.6-0.9-2.6
			c-0.1-1.9,1.3-3.5,3.1-3.6c0.1,0,0.1,0,0.2,0c0.6,0,1.2,0.2,1.7,0.5c0.3,0.2,0.6,0.4,0.8,0.7l-0.6,0.6c-0.5-0.6-1.2-0.9-1.9-1
			c-1.5,0.2-2.6,1.6-2.4,3.2c0.2,1.3,1.2,2.3,2.4,2.4c0.8,0,1.5-0.4,1.9-1L181.6,366.3z"/>
		<path class="st3" d="M187.1,365c0,1.4-1,2.5-2.4,2.5c0,0,0,0-0.1,0c-1.4,0-2.5-1.1-2.6-2.5c0-1.4,1.1-2.5,2.5-2.6
			C186,362.4,187.1,363.5,187.1,365C187.1,364.9,187.2,365,187.1,365z M183.1,365c-0.1,0.9,0.6,1.7,1.5,1.8c0.1,0,0.1,0,0.2,0
			c0.9,0,1.6-0.7,1.6-1.7c0,0,0-0.1,0-0.1c0.1-0.9-0.6-1.7-1.5-1.8c-0.9-0.1-1.7,0.6-1.8,1.5C183.1,364.8,183.1,364.9,183.1,365z"/>
		<path class="st3" d="M189.1,362.5v0.7c0.3-0.5,0.8-0.8,1.4-0.8c0.6,0,1.1,0.3,1.3,0.9c0.3-0.6,0.9-0.9,1.5-0.9
			c0.5,0,0.9,0.2,1.2,0.5c0.3,0.4,0.4,0.9,0.3,1.3v3.1H194v-2.9c0-0.6,0-0.7-0.1-0.9c-0.2-0.3-0.5-0.4-0.8-0.4
			c-0.7,0-1.1,0.5-1.1,1.3v2.9h-0.8v-2.9c0-0.3,0-0.6-0.2-0.9c-0.2-0.3-0.5-0.4-0.8-0.4c-0.7,0-1.1,0.5-1.1,1.3v2.9h-0.8v-4.8H189.1
			z"/>
		<path class="st3" d="M197.2,362.5v0.7c0.3-0.5,0.8-0.8,1.4-0.8c0.6-0.1,1.1,0.3,1.3,0.9c0.3-0.6,0.9-0.9,1.5-0.9
			c0.5,0,0.9,0.2,1.2,0.5c0.3,0.4,0.4,0.9,0.3,1.3v3.1h-0.8v-2.9c0-0.6,0-0.7-0.1-0.9c-0.2-0.3-0.5-0.4-0.8-0.4
			c-0.7,0-1.1,0.5-1.1,1.3v2.9h-0.8v-2.9c0-0.3,0-0.6-0.2-0.9c-0.2-0.3-0.5-0.4-0.8-0.4c-0.7,0-1.1,0.5-1.1,1.3v2.9h-0.8v-4.8H197.2
			z"/>
		<path class="st3" d="M204.9,365.2c0,0.3,0.1,0.6,0.3,0.9c0.3,0.4,0.8,0.7,1.3,0.6c0.6,0,1.1-0.3,1.4-0.8l0.7,0.3
			c-0.6,1.2-2,1.7-3.2,1.1c-0.9-0.4-1.4-1.3-1.4-2.3c-0.1-1.3,0.9-2.5,2.2-2.6c1.3-0.1,2.5,0.9,2.6,2.2c0,0.1,0,0.2,0,0.3
			c0,0.1,0,0.2,0,0.3L204.9,365.2z M208,364.6c0-0.3-0.1-0.6-0.3-0.8c-0.3-0.4-0.8-0.7-1.3-0.7c-0.5,0-1,0.2-1.3,0.7
			c-0.1,0.2-0.2,0.5-0.3,0.8H208z"/>
		<path class="st3" d="M210.8,362.5v0.7c0.5-0.8,1.6-1,2.4-0.5c0.1,0,0.1,0.1,0.2,0.1c0.3,0.3,0.5,0.8,0.4,1.3v3.2H213v-3.1
			c0-0.3,0-0.6-0.2-0.8c-0.2-0.2-0.5-0.3-0.8-0.3c-0.4,0-0.7,0.1-0.9,0.4c-0.2,0.2-0.3,0.5-0.3,0.9v2.9H210v-4.8H210.8z"/>
		<path class="st3" d="M216.2,366.4c0,0.2,0.1,0.3,0.4,0.3h0.4v0.7h-0.7c-0.6,0-0.8-0.2-0.8-0.8v-3.4h-0.7v-0.7h0.7V361h0.8v1.5h0.7
			v0.7h-0.7L216.2,366.4z"/>
		<polygon class="st0" points="108.7,378.3 56.4,378.3 60.7,350.3 113.1,350.3 		"/>
		<path class="st5" d="M109.2,378.8H55.8l4.5-29h53.4L109.2,378.8z M57,377.8h51.3l4.2-27H61.1L57,377.8z"/>
		<polygon class="st0" points="164.5,378.3 112.2,378.3 116.5,350.3 168.8,350.3 		"/>
		<path class="st5" d="M164.9,378.8h-53.4l4.5-29h53.4L164.9,378.8z M112.7,377.8h51.3l4.2-27h-51.3L112.7,377.8z"/>
		<path class="st3" d="M74.2,360.4H76c1.7-0.1,3.2,1.1,3.4,2.8c0,0.2,0,0.4,0,0.5c0.1,1-0.3,2-1.1,2.8c-0.7,0.6-1.5,0.9-2.4,0.8
			h-1.7V360.4z M75,366.6h0.3c0.8,0.1,1.5-0.1,2.2-0.5c0.7-0.6,1-1.4,0.9-2.3c0.2-1.3-0.7-2.4-2-2.6c-0.2,0-0.3,0-0.5,0h-1L75,366.6
			z"/>
		<path class="st3" d="M81.4,362.5v0.8c0.1-0.2,0.2-0.5,0.4-0.6c0.3-0.2,0.6-0.3,0.9-0.3h0.2v0.8c-0.1,0-0.1,0-0.2,0
			c-0.4,0-0.8,0.2-1,0.6c-0.2,0.3-0.3,0.7-0.3,1.1v2.4h-0.8v-4.8L81.4,362.5z"/>
		<path class="st3" d="M87.4,362.5h0.8v4.8h-0.8v-0.9c-0.4,0.6-1,1-1.8,1c-1.3,0-2.3-1.1-2.3-2.3c0-0.1,0-0.1,0-0.2
			c-0.1-1.3,0.9-2.4,2.1-2.5c0,0,0.1,0,0.1,0c0.7,0,1.4,0.3,1.7,0.9V362.5z M84.6,363.7c-0.3,0.4-0.4,0.8-0.4,1.3
			c-0.1,0.9,0.6,1.7,1.5,1.8c0,0,0,0,0,0c1-0.1,1.7-0.9,1.7-1.9c0.1-0.9-0.6-1.7-1.5-1.8c-0.1,0-0.1,0-0.2,0
			C85.3,363.1,84.8,363.3,84.6,363.7z"/>
		<path class="st3" d="M96.1,362.5l-1.7,4.8h-0.7l-1.1-3.6l-1.2,3.6h-0.8l-1.6-4.8h0.8l1.2,3.5l1.1-3.5h0.8l1.1,3.5l1.2-3.5H96.1z"
			/>
		<path class="st3" d="M135.7,367.4h-0.9v-7h1.9c1.6,0,2.6,0.8,2.6,2.1c0,0.6-0.3,1.3-0.7,1.7c-0.5,0.4-1.1,0.5-1.7,0.5h-1.1
			L135.7,367.4z M136.6,363.9c0.3,0,0.6,0,0.9-0.1c0.5-0.2,0.9-0.7,0.9-1.3c0-0.6-0.3-1.1-0.9-1.3c-0.3-0.1-0.7-0.2-1-0.1h-0.8v2.8
			H136.6z"/>
		<path class="st3" d="M141.1,361.2c0,0.3-0.2,0.5-0.5,0.5c0,0,0,0,0,0c-0.3-0.1-0.5-0.3-0.4-0.6c0-0.2,0.2-0.4,0.4-0.4
			C140.8,360.7,141.1,360.9,141.1,361.2C141.1,361.2,141.1,361.2,141.1,361.2z M141,367.4h-0.8v-4.8h0.8V367.4z"/>
		<path class="st3" d="M143.3,362.5v0.7c0.3-0.5,0.8-0.8,1.4-0.8c0.4,0,0.8,0.1,1.1,0.4c0.3,0.3,0.5,0.8,0.4,1.3v3.2h-0.8v-3.1
			c0-0.3,0-0.6-0.2-0.8c-0.2-0.2-0.5-0.3-0.8-0.3c-0.3,0-0.7,0.1-0.9,0.4c-0.2,0.2-0.3,0.5-0.3,0.9v2.9h-0.8v-4.8H143.3z"/>
		<polygon class="st0" points="276.1,378.3 223.7,378.3 228.1,350.3 280.4,350.3 		"/>
		<path class="st5" d="M276.5,378.8h-53.4l4.5-29H281L276.5,378.8z M224.3,377.8h51.3l4.2-27h-51.4L224.3,377.8z"/>
		<path class="st3" d="M236.4,367.4h-0.9v-7h1.9c1.5,0,2.4,0.8,2.4,2c0,0.7-0.4,1.4-1,1.8c-0.4,0.2-0.8,0.3-1.3,0.3l2.7,2.9h-1.1
			l-2.7-2.9L236.4,367.4z M237.3,363.8c1.1,0,1.6-0.5,1.6-1.4s-0.5-1.3-1.5-1.3h-1v2.7H237.3z"/>
		<path class="st3" d="M241.5,365.2c0,0.3,0.1,0.6,0.3,0.9c0.3,0.4,0.8,0.7,1.3,0.6c0.6,0,1.1-0.3,1.4-0.8l0.7,0.3
			c-0.6,1.2-2.1,1.6-3.3,1c-0.8-0.4-1.3-1.3-1.3-2.2c-0.1-1.3,0.9-2.5,2.2-2.6c1.3-0.1,2.5,0.9,2.6,2.2c0,0.1,0,0.2,0,0.3
			c0,0.1,0,0.2,0,0.3H241.5z M244.7,364.6c0-0.3-0.1-0.6-0.3-0.8c-0.3-0.4-0.8-0.7-1.3-0.7c-0.5,0-1,0.2-1.3,0.7
			c-0.1,0.2-0.2,0.5-0.3,0.8H244.7z"/>
		<path class="st3" d="M251.1,362.5v7h-0.8v-3c-0.4,0.6-1,0.9-1.7,0.9c-0.7,0-1.3-0.3-1.7-0.8c-0.4-0.5-0.5-1.1-0.5-1.7
			c-0.1-1.2,0.8-2.4,2-2.5c0.1,0,0.2,0,0.3,0c0.7,0,1.3,0.3,1.7,0.9v-0.8L251.1,362.5z M247.1,365c-0.1,0.9,0.4,1.7,1.3,1.8
			c0.9,0.1,1.7-0.4,1.8-1.3c0-0.2,0-0.3,0-0.5c0-0.5-0.1-1-0.4-1.4c-0.3-0.3-0.7-0.5-1.1-0.5c-0.9,0-1.6,0.8-1.6,1.7
			C247.1,364.9,247.1,365,247.1,365z"/>
		<path class="st3" d="M256.2,362.5v3.1c0.1,0.5-0.1,1-0.5,1.3c-0.4,0.3-0.9,0.5-1.4,0.5c-0.5,0-1-0.1-1.3-0.5
			c-0.3-0.4-0.5-0.8-0.5-1.3v-3.1h0.8v3c0,0.6,0.4,1.1,1,1.1c0,0,0.1,0,0.1,0c0.3,0,0.6-0.1,0.9-0.4c0.2-0.2,0.2-0.5,0.2-0.8v-3.1
			L256.2,362.5z"/>
		<path class="st3" d="M258.1,365.2c0,0.3,0.1,0.6,0.3,0.9c0.3,0.4,0.8,0.7,1.3,0.6c0.6,0,1.1-0.3,1.4-0.8l0.7,0.3
			c-0.4,0.8-1.2,1.3-2.1,1.3c-1.4,0.1-2.6-1-2.6-2.4c-0.1-1.4,1-2.6,2.4-2.6c1.4-0.1,2.6,1,2.6,2.4c0,0,0,0,0,0.1v0.3H258.1z
			 M261.3,364.6c0-0.3-0.1-0.6-0.3-0.8c-0.3-0.4-0.8-0.7-1.3-0.7c-0.5,0-1,0.2-1.3,0.7c-0.2,0.2-0.2,0.5-0.3,0.8H261.3z"/>
		<path class="st3" d="M265.5,363.9L265.5,363.9c0-0.5-0.4-0.8-0.9-0.8s-0.9,0.3-0.9,0.7s0.2,0.6,1.1,0.8c0.4,0.1,0.8,0.3,1.2,0.5
			c0.2,0.2,0.4,0.6,0.4,0.9c0,0.8-0.7,1.4-1.7,1.4c-0.9,0.1-1.6-0.5-1.8-1.3c0-0.1,0-0.1,0-0.2h0.8c0,0.5,0.5,0.9,1,0.8c0,0,0,0,0,0
			c0.5,0,0.9-0.3,0.9-0.7s-0.3-0.6-1.1-0.8c-1-0.3-1.5-0.7-1.5-1.4s0.7-1.4,1.7-1.4c0.8-0.1,1.5,0.4,1.7,1.2c0,0.1,0,0.1,0,0.2
			H265.5z"/>
		<path class="st3" d="M268.4,366.4c0,0.2,0.1,0.3,0.4,0.3h0.4v0.7h-0.7c-0.6,0-0.8-0.2-0.8-0.8v-3.4h-0.7v-0.7h0.7V361h0.8v1.5h0.7
			v0.7h-0.7V366.4z"/>
		<polygon class="st0" points="52.9,378.3 0.6,378.3 4.9,350.3 57.3,350.3 		"/>
		<path class="st5" d="M53.4,378.8H0l4.5-29h53.4L53.4,378.8z M1.2,377.8h51.3l4.2-27H5.3L1.2,377.8z"/>
		<path class="st3" d="M21.6,367.4h-0.9v-6.2h-1.8v-0.8h4.4v0.8h-1.8V367.4z"/>
		<path class="st3" d="M26.5,362.5h0.9l-2.9,7.1h-0.9l1-2.5l-1.6-4.6h0.8l1.3,3.6L26.5,362.5z"/>
		<path class="st3" d="M29,362.5v0.9c0.3-0.6,1-1,1.8-1c1.3,0,2.3,1,2.3,2.3c0,0.1,0,0.1,0,0.2c0.1,1.3-0.8,2.4-2.1,2.5
			c-0.1,0-0.1,0-0.2,0c-0.4,0-0.7-0.1-1-0.2c-0.3-0.1-0.5-0.3-0.7-0.6v3h-0.8v-7L29,362.5z M29,365c-0.1,0.9,0.5,1.6,1.4,1.7
			c0.1,0,0.1,0,0.2,0c0.9,0,1.6-0.8,1.6-1.7c0-0.1,0-0.1,0-0.2c0-0.5-0.1-0.9-0.4-1.3c-0.3-0.3-0.7-0.5-1.1-0.5
			c-0.9,0-1.7,0.8-1.6,1.7C29,364.9,29,364.9,29,365z"/>
		<path class="st3" d="M34.7,365.2c0,0.3,0.1,0.6,0.3,0.9c0.3,0.4,0.8,0.7,1.3,0.6c0.6,0,1.1-0.3,1.4-0.8l0.7,0.3
			c-0.4,0.8-1.2,1.3-2.1,1.3c-1.4,0.1-2.6-1-2.6-2.4c-0.1-1.4,1-2.6,2.4-2.6s2.6,1,2.6,2.4c0,0,0,0,0,0.1c0,0.1,0,0.2,0,0.3H34.7z
			 M37.8,364.6c0-0.3-0.1-0.6-0.3-0.8c-0.3-0.4-0.8-0.7-1.3-0.7c-0.5,0-1,0.2-1.3,0.7c-0.1,0.2-0.2,0.5-0.3,0.8H37.8z"/>
		<polygon class="st3" points="252.6,343 251.9,343 251.9,300.9 122.1,300.9 122.1,300.1 252.6,300.1 		"/>
		<polygon class="st3" points="256,341.9 252.2,348.4 248.5,341.9 		"/>
		<polygon class="st3" points="200.4,343 199.7,343 199.7,300.9 87.3,300.9 87.3,343 86.6,343 86.6,300.1 200.4,300.1 		"/>
		<polygon class="st3" points="203.8,341.9 200.1,348.4 196.3,341.9 		"/>
		<polygon class="st3" points="83.2,341.9 86.9,348.4 90.7,341.9 		"/>
		<polygon class="st3" points="140.9,343 140.1,343 140.1,300.9 33.1,300.9 33.1,343 32.4,343 32.4,300.1 140.9,300.1 		"/>
		<polygon class="st3" points="144.2,341.9 140.5,348.4 136.8,341.9 		"/>
		<polygon class="st3" points="29,341.9 32.8,348.4 36.5,341.9 		"/>
		<polygon class="st3" points="159.9,406.6 29.4,406.6 29.4,378.3 30.1,378.3 30.1,405.8 159.9,405.8 		"/>
		<polygon class="st3" points="195.4,406.6 81.6,406.6 81.6,378.3 82.3,378.3 82.3,405.8 194.7,405.8 194.7,378.3 195.4,378.3 		"/>
		<polygon class="st3" points="249.6,406.6 140.7,406.6 140.7,378.3 141.5,378.3 141.5,405.8 248.9,405.8 248.9,378.3 249.6,378.3 
					"/>
		<polygon class="st3" points="199.6,97.1 198.9,97.1 198.9,43.1 79,43.1 79,97.1 78.3,97.1 78.3,42.3 199.6,42.3 		"/>
		<polygon class="st3" points="82.4,96 78.6,102.5 74.9,96 		"/>
		<polygon class="st3" points="195.5,96 199.2,102.5 203,96 		"/>
		<rect x="138.2" y="28.4" class="st3" width="0.8" height="14.4"/>
		<rect x="198.9" y="131.5" class="st3" width="0.8" height="89.7"/>
		<polygon class="st3" points="195.5,220.1 199.2,226.6 203,220.1 		"/>
		<rect x="78.3" y="215.2" class="st3" width="0.8" height="7.4"/>
		<polygon class="st3" points="83.2,222 74.1,222 78.6,226.6 		"/>
		<rect x="78.3" y="174.7" class="st3" width="0.8" height="8.1"/>
		<polygon class="st3" points="83.2,182.3 74.1,182.3 78.6,186.8 		"/>
		<rect x="78.3" y="130.8" class="st3" width="0.8" height="11.6"/>
		<polygon class="st3" points="83.2,141.8 74.1,141.8 78.6,146.4 		"/>
		<rect x="140.7" y="406.2" class="st3" width="0.8" height="23.5"/>
		<polygon class="st3" points="137.4,428.6 141.1,435.1 144.8,428.6 		"/>
		<polygon class="st3" points="199.6,282.4 78.3,282.4 78.3,254.9 79,254.9 79,281.7 198.9,281.7 198.9,255.9 199.6,255.9 		"/>
		<rect x="140.1" y="282" class="st3" width="0.8" height="18.5"/>
	</g>
</g>
</svg>
