<svg xmlns="http://www.w3.org/2000/svg" viewBox="0 0 508.55 853.93"><defs><style>.cls-1{fill:#ff4344;opacity:0.4;}.cls-2{fill:#ffd1d1;}.cls-10,.cls-12,.cls-3,.cls-5{fill:#00008c;}.cls-11,.cls-3,.cls-4,.cls-9{opacity:0.8;}.cls-4{fill:#9797ea;}.cls-5{opacity:0.5;}.cls-6,.cls-7{fill:#1b1b1b;}.cls-7{opacity:0.6;}.cls-13,.cls-8,.cls-9{fill:#fff;}.cls-10,.cls-8{opacity:0.2;}</style></defs><title>MEERKAT 1</title><g id="Layer_2" data-name="Layer 2"><g id="Layer_1-2" data-name="Layer 1"><path class="cls-1" d="M13.53,538.31c7.13,103.74,61.6,203.29,145.11,265.24,31.19,23.13,66.72,41.38,105,47.9s79.5.47,111.65-21.29c34.33-23.23,55.23-61.48,71.52-99.59,21.59-50.5,37.58-104.81,34.23-159.63-4.85-79.38-51.22-153-115-200.5C315,332.32,236.42,294.6,170.66,299.85c-53.9,4.3-111.46,63.21-134.41,108.2C15.91,447.92,10.49,494.1,13.53,538.31Z"/><path class="cls-2" d="M33.05,373.19c3.23,47.57,17.81,98.11,55.82,126.89,36.06,27.31,84.71,29.12,129.94,29.81,44.2.68,88.86,1.31,132.05-8.08S436.28,492,463.68,457.27c37.74-47.77,41.56-113.15,43.8-174,2.45-66.74,3.74-138-31.76-194.62C447.46,43.65,398,14,345.79,4.24c-40.11-7.48-86.08-5.32-124.74,8.5-26.34,9.41-42.3,33-62.34,51.63-53.82,50-93.21,113.89-112.77,184.81A372.62,372.62,0,0,0,33.05,373.19Z"/><path class="cls-3" d="M263.8,777.05a10.35,10.35,0,0,0,3.28,2.24,9.81,9.81,0,0,0-.88-.93C265.57,777.79,264.48,777.56,263.8,777.05Z"/><path class="cls-3" d="M256.77,583.18c-2.73,1.36-4.09,5.45-4.09,8.18-8.05,45.61-4.24,91.23-24.89,132.94a66.68,66.68,0,0,0,5.67,10.63c1.49,2.18,3.37,3.91,4.49,6.29a32.32,32.32,0,0,0,3.07,4.89c1,1.37,2.12,2.6,3,4s1.45,2.87,2.3,4.24c2.12,3.4,5.4,2.85,9,3.61a25.94,25.94,0,0,0,5.94.61c1.35,0,3.33-.4,4.61,0,.95.31,1.71,1.29,2.6,1.78a11.09,11.09,0,0,0,5.34,1.49c1.25-.12,2.61-1.07,3.75-1.54a16,16,0,0,0,2.15-.63c.61-.4.71-1,1.21-1.46,1.4-1.37,4.95-.17,6.8-.23a43.15,43.15,0,0,0,6.8-.76c.32-1.44-.37-2.4-1.19-3.52-1.46-2-2.61-4-3.92-6s-4.17-2.7-6.48-3.58c-1.52-.58-2.24-.85-3.5.09-3.5,2.6-7.31,1.66-10.31-.9-2.12-1.82-4.41-3.79-6.47-5.72a63,63,0,0,1-5-4.76,28.4,28.4,0,0,1-1.67-2.35,30.22,30.22,0,0,1-2.13-3.88c-.93-2.09-2.16-4.72-2.23-7s0-4.68,0-7a13.29,13.29,0,0,1,1.23-5c.79-2.13,1.24-4.34,2.15-6.43.71-1.59.93-3.08,1.54-4.57,1.29-3.21,2.43-6.51,3.93-9.68a81.47,81.47,0,0,0,3.88-9.15c1.11-3.33,2-6.8,3.37-10,.87-2,2.1-3.85,3-5.86a52,52,0,0,0,2.08-9,42.57,42.57,0,0,1,1.52-6.87c1.07-4.61,2.74-9.07,3.83-13.65a21.14,21.14,0,0,0,.13-5c-.07-3.13-.7-6-.35-9.21.37-3.38.13-6.76.44-10.13.36-3.84,1.14-7.64,1.77-11.44.67-4.07.93-8.2,1.57-12.27a86.27,86.27,0,0,0,1.4-11.31c.05-2,.16-4,.31-6A57.57,57.57,0,0,1,256.77,583.18Z"/><path class="cls-3" d="M256.77,583.18c-2.73,1.36-4.09,5.45-4.09,8.18-8.05,45.61-4.24,91.23-24.89,132.94a66.68,66.68,0,0,0,5.67,10.63c1.49,2.18,3.37,3.91,4.49,6.29a32.32,32.32,0,0,0,3.07,4.89c1,1.37,2.12,2.6,3,4s1.45,2.87,2.3,4.24c2.12,3.4,5.4,2.85,9,3.61a25.94,25.94,0,0,0,5.94.61c1.35,0,3.33-.4,4.61,0,.95.31,1.71,1.29,2.6,1.78a11.09,11.09,0,0,0,5.34,1.49c1.25-.12,2.61-1.07,3.75-1.54a16,16,0,0,0,2.15-.63c.61-.4.71-1,1.21-1.46,1.4-1.37,4.95-.17,6.8-.23a43.15,43.15,0,0,0,6.8-.76c.32-1.44-.37-2.4-1.19-3.52-1.46-2-2.61-4-3.92-6s-4.17-2.7-6.48-3.58c-1.52-.58-2.24-.85-3.5.09-3.5,2.6-7.31,1.66-10.31-.9-2.12-1.82-4.41-3.79-6.47-5.72a63,63,0,0,1-5-4.76,28.4,28.4,0,0,1-1.67-2.35,30.22,30.22,0,0,1-2.13-3.88c-.93-2.09-2.16-4.72-2.23-7s0-4.68,0-7a13.29,13.29,0,0,1,1.23-5c.79-2.13,1.24-4.34,2.15-6.43.71-1.59.93-3.08,1.54-4.57,1.29-3.21,2.43-6.51,3.93-9.68a81.47,81.47,0,0,0,3.88-9.15c1.11-3.33,2-6.8,3.37-10,.87-2,2.1-3.85,3-5.86a52,52,0,0,0,2.08-9,42.57,42.57,0,0,1,1.52-6.87c1.07-4.61,2.74-9.07,3.83-13.65a21.14,21.14,0,0,0,.13-5c-.07-3.13-.7-6-.35-9.21.37-3.38.13-6.76.44-10.13.36-3.84,1.14-7.64,1.77-11.44.67-4.07.93-8.2,1.57-12.27a86.27,86.27,0,0,0,1.4-11.31c.05-2,3.46-36.7,3.61-38.67C279.48,542,266.64,580.55,256.77,583.18Z"/><path class="cls-3" d="M165.94,648.26a7.85,7.85,0,0,1,1.54-1.56,11.79,11.79,0,0,1,5-2.42,8.88,8.88,0,0,1,3.48.61,6.85,6.85,0,0,1,3.77,2.45c.83.84,1.81,1.64,2.77,2.46-1.67-10.7-2.74-21.63-7.51-31.17A100.87,100.87,0,0,0,165.94,648.26Z"/><path class="cls-3" d="M165.94,648.26a7.85,7.85,0,0,1,1.54-1.56,11.79,11.79,0,0,1,5-2.42,8.88,8.88,0,0,1,3.48.61,6.85,6.85,0,0,1,3.77,2.45c.83.84,1.81,1.64,2.77,2.46-1.67-10.7-2.74-21.63-7.51-31.17A100.87,100.87,0,0,0,165.94,648.26Z"/><path class="cls-3" d="M308,231.82c-.72-2.61-1.91-5.37-1.94-8a7.52,7.52,0,0,0-.48-2.12,15,15,0,0,1-.11-2.11,5.3,5.3,0,0,0-1.2-3.05c-.89-.73-2.43-.79-3.41-1.46a10.84,10.84,0,0,1-2.36-2.42c-1.39-1.81-2-3.84-3.08-5.77s-2.85-3-4.17-4.51c-2.19-2.5-3.3-5.48-5.94-7.65a14.82,14.82,0,0,0-3.15-2,6.18,6.18,0,0,0-3.38-.62l-1.92-.63a4,4,0,0,0-.49,0c-.63.06-.87.35-1.42.5a17.65,17.65,0,0,1-4.24.13c-1.67,0-3-.52-4.56-.62s-3,0-4.53,0a57.57,57.57,0,0,1-9.61-1.06c-.76-.15-1.47-.46-2.2-.62s-1.23,0-1.83-.11-.48-.47-.95-.58-.93,0-1.42,0a21.81,21.81,0,0,1-2.44-.63,21.56,21.56,0,0,0-3.48-.93c-1.26,0-2.63.92-3.78,1.41a18.28,18.28,0,0,0-2.37,1.51c-.67.4-1.39.46-2,.88-.37.24-.65.66-1,.92a23.61,23.61,0,0,0-2.6,2.12c-3.45,3.15-6.63,7.18-7.7,11.64-.5,2.12-2.75,4.28-4.38,5.89s-4,2.31-5.63,3.76c-1.14,1-1.42,3-3.18,3.17-.05,1.09-.72,1.67-.71,2.9s0,2.41,0,3.62a40.41,40.41,0,0,1-.66,7.56c-.23,1.28-.85,2.23-.57,3.65.21,1.06.57,1.94.76,3.14.52,3.28,1.85,6.48,2.39,9.73a15.85,15.85,0,0,1,3.85,1.39,2.7,2.7,0,0,1,2.09,2.34,55.06,55.06,0,0,1,.6,7.21c0,4.79,0,9.58,0,14.37a66.84,66.84,0,0,1-.47,8.95c-.33,2.51-.08,4.77-.87,7.24-.89,2.78-1.53,5.53-3.26,7.85s-2.28,4.87-3.25,7.6c-.91,2.55-2.21,5.11-2.91,7.72a13.29,13.29,0,0,1-1.81,3.73c-.8,1.42-1.05,2.94-1.92,4.37a33.46,33.46,0,0,0-3.71,10c-1.69,7.38-3.63,14.58-3.55,22.1,0,2.7-.65,5.29-.63,8a44,44,0,0,1-.46,8c-.43,2.63-.13,5.52-.13,8.19v9.39c0,5.38-.09,10.58-.55,15.92-.15,1.72.05,3.42,0,5.13-.06,1.47-.44,2.84-.59,4.29-.18,1.79,0,3.57,0,5.36-.07,2.08-.59,4.09-.66,6.18-.12,3.4,0,6.59-.44,10-.45,3.68-.08,7.35-.58,11-.57,4.24-.83,8.48-1.24,12.73s.36,8.55-.27,12.73c-.71,4.81-.48,9.83-1.51,14.59-1.22,5.66-2.07,11.39-3,17.11-.86,5.08-1.63,10.22-2.73,15.25-1,4.43-1.4,9-2.37,13.41-1.37,6.18-3.44,12.28-5.34,18.34-1.39,4.45-2.43,8.94-3.91,13.36-.77,2.29-1.43,5-2.73,7a70.7,70.7,0,0,0-5.42,10.57c-.83,2-1.79,3.64-2.45,5.64a24.85,24.85,0,0,1-1,2.81c-1.71,3.53-4.28,6.72-6.26,10.13-.92,1.59-1.08,3.4-1.92,5a29.71,29.71,0,0,0-1.66,3.61c-.69,1.85-1.77,3.48-2.44,5.37-.87,2.5-1.79,5-2.71,7.51-3.9,10.51-7.81,21-10.15,32-1.17,5.5-2.45,11-3.59,16.46-.61,2.91-1.58,5.69-2.14,8.63a61.12,61.12,0,0,1-1.49,7.74,94.59,94.59,0,0,0-3.36,13.46c-.28,1.63-.35,3.14-.74,4.77-.19.79-.2,1.53-.42,2.33a22.55,22.55,0,0,1-1.4,2.93c-.68,1.58-.87,3.2-1.64,4.77s-1.31,3.2-2,4.88-1.41,3.54-2.26,5.24a29.9,29.9,0,0,1-5.29,6.93,65.44,65.44,0,0,1-7,7,45.87,45.87,0,0,1-4.67,3.59,77.54,77.54,0,0,0-6.54,4.87c-1.9,1.47-3.36,3.4-5.26,4.86a62.88,62.88,0,0,0-5.41,4.36c-2,1.92-4.51,3.16-6.71,4.83-1.15.87-2.94,2.21-3.45,3.48-.83,0-2.41,1.51-3.14,1.8a34.44,34.44,0,0,1-7.17,1.6c-3.8.65-7.64,1-11.43,1.61a43,43,0,0,1-6.57,1.07c-6.46.07-12.94,1.26-19.39,1.18a41.63,41.63,0,0,0-7.63.75,21.6,21.6,0,0,0-5,1c-.76.32-1.41.92-2.17,1.25-1.45.64-4.9.77-5.71,2.39-.39.77-.19,2.78-.08,3.66a5,5,0,0,0,3.17,3.47,9.81,9.81,0,0,0,2.87.14c2,0,3.74.53,5.7.64a79.54,79.54,0,0,0,13.89-.17c3.25-.42,6.57-.08,9.78-.6,2.76-.46,5.53-.74,8.31-1.1,1.71-.22,3.26-.88,5-1.14,2-.3,4-.43,6.06-.8,4.69-.87,9-3,13.61-4,.76-.15,1.65,0,2.41-.23,1.36-.36,2.49-.94,3.89-1.23a57,57,0,0,0,6.87-2.28c4.47-1.56,8.65-3.53,13-5.46,2.35-1,4.37-2.58,6.76-3.55a19,19,0,0,0,4.49-2.48c3.67-2.65,7.87-4.71,11.52-7.39,8.35-6.12,14.53-15,19.36-24.06.57-1.07.89-2.21,1.49-3.31s1.55-2.13,2.26-3.28c2.65-4.34,4.5-9.14,6.51-13.79a31.61,31.61,0,0,0,2.3-7.77,52,52,0,0,1,.73-5.24c.38-1.49.6-3,1-4.5.71-2.47,1.84-4.78,2.45-7.28,1.25-5.12,3.1-10.08,4.4-15.15.31-1.23.38-2.55.72-3.75s.64-2.2.93-3.14a62.91,62.91,0,0,1,3-8.17,33.23,33.23,0,0,1,3.33-6.49,100.87,100.87,0,0,1,9-29.63c4.77,9.54,5.84,20.47,7.51,31.17a17.38,17.38,0,0,1,3.35,3.46c.67,1,.5,1.61.53,3a42.37,42.37,0,0,0,1.09,6.08,31.72,31.72,0,0,1,.12,5.85c0,.47,0,1,0,1.43.32.75.64,1.5,1,2.23-.36-.73-.68-1.48-1-2.23.06,3,.35,6.14.65,9.08a94.43,94.43,0,0,0,1.27,9.47,29.79,29.79,0,0,0,1.09,3.63c.83,2.36,1.07,4.77,1.81,7.15a101,101,0,0,1,3.16,11.56c.62,3.33,2.82,6.22,4,9.4,2.64,7.29,6.73,14.55,7.39,22.38.34,4,3,6,5.48,8.75a15.27,15.27,0,0,1,2.22,3.89c1,2.16,2.25,4.24,2.75,6.57.94,4.45,3.64,8.67,5.44,12.81,1.27,2.93,1.77,5.6,5,6.73s7.06,1,10.53,1.75c1.91.42,3.56.77,5.22-.59,1.36-1.12.46-2,1-3.47,1.44,1.89,2.54,3.77,4.68,4.82a19.89,19.89,0,0,0,7.67,1.7c2.17.12,4.3.52,6.48.58.5,0,5.21.55,5.72-.1.74-1-.25-3.11-.63-4.16a7.43,7.43,0,0,0-1.37-2.24,10.35,10.35,0,0,1-3.28-2.24,1.64,1.64,0,0,1-.41-.42,1.64,1.64,0,0,0,.41.42c.68.51,1.77.74,2.4,1.31a9.81,9.81,0,0,1,.88.93c.45.2.91.39,1.36.57.9.37,1.6.63,2-.72a11.2,11.2,0,0,0,0-3.37c-.45-2-3.2-3.28-4.79-4.27a37.57,37.57,0,0,0-3.73-2.06,9.22,9.22,0,0,0-2.9-1.31c-.28-2.6-.69-4.76-3.15-6-1.77-.86-3.54-2-5.38-2.84a38.3,38.3,0,0,1-5.94-3.66c-2.22-1.53-4.7-3-6.81-4.75a70.82,70.82,0,0,0-6-4.91,4.87,4.87,0,0,1-2.25-2.54c-.69-1.54-2.26-2.93-2.56-4.55-.13-.77,0-1.52-.14-2.29a21.75,21.75,0,0,0-1-2.27,20.37,20.37,0,0,1-.89-3.72,31.29,31.29,0,0,1-.45-4.73c0-1.19,2.64-2.54,2.41-3.63.31.68.61,1.36.92,2,20.65-41.71,16.84-87.33,24.89-132.94,0-2.73,1.36-6.82,4.09-8.18A57.57,57.57,0,0,0,283.43,567c.18-2.45.43-4.88.74-7.37.23-1.81-.06-3.64.19-5.43a32.9,32.9,0,0,0,.58-3.27c.06-1.69-.06-3.41,0-5.11a55.76,55.76,0,0,1,1.83-11.52,41.69,41.69,0,0,1,1.53-4.58c.29-.82.35-1.76.7-2.57.53-1.22,1.72-2,2.44-3.14.59-1,.82-.7,1.62-1.27a3.59,3.59,0,0,0,1.11-1.86,16.93,16.93,0,0,0,1.06-6.2c0-2.2.41-4.82,0-7a35.33,35.33,0,0,0-1.84-5.36c-.4-1.08-.68-1-.5-2.41.2-1.58.72-3.12,1-4.68.33-2.16.54-4.17.72-6.31a39.15,39.15,0,0,1,.76-4.69c0-.13.44-.62.5-.81a8.39,8.39,0,0,0-.05-1.73,19.72,19.72,0,0,1,.62-3.79,62.84,62.84,0,0,0,1.23-8.64c.19-2.86.86-5.62,1.19-8.47.27-2.33,1.14-4.6,1.22-6.93.09-2.49.14-4.18,1.29-6.46-2.5-28.14-3.76-56.79-2-85.25-.14-2.38-.54-4.64-.54-7.11V343.69c0-6.88.52-14,0-20.82-.12-1.69-.65-3.23-.65-4.95a11.65,11.65,0,0,0,0-1.45,12.31,12.31,0,0,0-1.07-3.48c-.83-1.89-1.58-3.81-2.26-5.71-1.54-4.27-3.23-9.62-1.86-14.22a26.38,26.38,0,0,0,1.54-8.18c0-2.14.61-3.9.6-6,0-4.7,1.06-9.26,1.78-13.61a15.73,15.73,0,0,0,.64-3.32,6.72,6.72,0,0,1,0-1.55c.11-.46.5-.51.58-.92.18-1,.53-5.05-.29-5.71,1.08-1.14,2.59-1.11,3.84-1.95a9.39,9.39,0,0,0,2.7-2.84,10.89,10.89,0,0,0,1.65-3.95c.25-1.47.8-2.92,1.16-4.32C308,237.56,308.89,235,308,231.82Z"/><path class="cls-4" d="M262.09,191.27c-5.09-.47-10.2-.94-15.26-1.65-4-.56-9.3-2.19-12.72.72l-.36.28a4.68,4.68,0,0,0,3.21.95,17.91,17.91,0,0,1,5.94.72c2.32.76,4.34,3.48,5.36,5.64a6.08,6.08,0,0,1-.84,6.94,20.85,20.85,0,0,0-1.83,2.4c-.34.53-.51.9-.87,1.38-.51.66-1.1,1.26-1.6,1.94a7.5,7.5,0,0,0-1.32,2.14c-.21.72.06,1.44-.1,2.14s-.52.88-.66,1.45a12.57,12.57,0,0,0,0,2.45c0,1.78-.92,7.32.72,8.34,1,.6,2.62-.18,3.55-.35l.41,0a32,32,0,0,1,2.36-3.83,7.65,7.65,0,0,1,2.06-2c-2.63-4-.82-10.87,5.41-10.87,7.12,0,8.46,8.94,4.06,12.34,2.88,2.72,7.27,4.56,10.29,7.79a7.38,7.38,0,0,1,.57.71,3.93,3.93,0,0,0,2.54-1.31c.35-.55-.05-1.42,0-2a3.48,3.48,0,0,1,1-1.77c1.24-1.42,2.06-2.09,2.06-3.95a5.44,5.44,0,0,0-1.2-3.33c-1.47-2.48-3.8-4.22-5.75-6.36-.93-1-1.7-1.4-2.19-2.7a17.7,17.7,0,0,1-1.14-5.63c-.05-2.91-.38-6.17,2.57-7.84a22.35,22.35,0,0,1,5-1.52c1.27-.34,3.6-.5,4.42-1.77a2.27,2.27,0,0,0,.34-1C273.05,190.94,267.29,191.75,262.09,191.27Z"/><path class="cls-4" d="M239.45,186.55a4,4,0,0,0-.84.53C238.62,187,238.64,186.9,239.45,186.55Z"/><path class="cls-3" d="M331.6,499.67a42.39,42.39,0,0,1-1.36-7.24c-.42-7.66-.07-15.51,0-23.18.06-7,3.48-13.64,3.07-20.61-.35-5.87-3-12.61-5.92-17.65a84.08,84.08,0,0,1-4.86-9c-1.73-4.08-3.41-8.51-5.56-12.42-1-1.73-1.93-3.44-2.74-5.26a27.84,27.84,0,0,0-1.5-3.51,8.43,8.43,0,0,1-1.1-1.93,16.85,16.85,0,0,0-1.78-4.39,30,30,0,0,1-1.49-2.87c-.73-1.37-1.54-2.7-2.29-4.07-1-1.88-1.47-3.9-2.45-5.81a44.22,44.22,0,0,1-1.64-4.66c-.44-1.15-.86-2.44-1.21-3.63a33.47,33.47,0,0,1-1.35-9.83c0-.49,0-1-.06-1.45-1.79,28.46-.53,57.11,2,85.25a1.11,1.11,0,0,1,.09-.19c.48.2,1.11,1.79,1.47,2.4.77,1.33,1.86,2.37,2.72,3.64a35.28,35.28,0,0,1,4.09,7.88c1.1,3.12.83,6.65,1.65,9.94.47,1.93.73,3.89,1.24,5.73a23.06,23.06,0,0,1,.1,2.48c.12.66.55,1.12.67,1.78.2,1.1.06,2.24.27,3.33.3,1.53,1.08,2.73,1.46,4.23a29.65,29.65,0,0,0,1.41,4.56c.57,1.31,1.56,2.31,2.13,3.62a21.29,21.29,0,0,0,1.43,3.62c1.11,1.6,3.31,1.4,4.76,2.39,2.08,1.41,1.79,3.7,1.81,6.06,0,2.58-.95,4.34-2,6.65-.75,1.69-.81,5.2,2.14,4.14,1.29-.45,2-1.91,2.86-2.81a5,5,0,0,0,1.34-1.92,15.26,15.26,0,0,0,1.68-6.81,27.62,27.62,0,0,0-.13-5.46C332.33,501.66,331.8,500.51,331.6,499.67Z"/><path class="cls-3" d="M331.6,499.67a42.39,42.39,0,0,1-1.36-7.24c-.42-7.66-.07-15.51,0-23.18.06-7,3.48-13.64,3.07-20.61-.35-5.87-3-12.61-5.92-17.65a84.08,84.08,0,0,1-4.86-9c-1.73-4.08-3.41-8.51-5.56-12.42-1-1.73-1.93-3.44-2.74-5.26a27.84,27.84,0,0,0-1.5-3.51,8.43,8.43,0,0,1-1.1-1.93,16.85,16.85,0,0,0-1.78-4.39,30,30,0,0,1-1.49-2.87c-.73-1.37-1.54-2.7-2.29-4.07-1-1.88-1.47-3.9-2.45-5.81a44.22,44.22,0,0,1-1.64-4.66c-.44-1.15-.86-2.44-1.21-3.63a33.47,33.47,0,0,1-1.35-9.83c0-.49,0-1-.06-1.45-1.79,28.46-.53,57.11,2,85.25a1.11,1.11,0,0,1,.09-.19c.48.2,1.11,1.79,1.47,2.4.77,1.33,1.86,2.37,2.72,3.64a35.28,35.28,0,0,1,4.09,7.88c1.1,3.12.83,6.65,1.65,9.94.47,1.93.73,3.89,1.24,5.73a23.06,23.06,0,0,1,.1,2.48c.12.66.55,1.12.67,1.78.2,1.1.06,2.24.27,3.33.3,1.53,1.08,2.73,1.46,4.23a29.65,29.65,0,0,0,1.41,4.56c.57,1.31,1.56,2.31,2.13,3.62a21.29,21.29,0,0,0,1.43,3.62c1.11,1.6,3.31,1.4,4.76,2.39,2.08,1.41,1.79,3.7,1.81,6.06,0,2.58-.95,4.34-2,6.65-.75,1.69-.81,5.2,2.14,4.14,1.29-.45,2-1.91,2.86-2.81a5,5,0,0,0,1.34-1.92,15.26,15.26,0,0,0,1.68-6.81,27.62,27.62,0,0,0-.13-5.46C332.33,501.66,331.8,500.51,331.6,499.67Z"/><path class="cls-5" d="M272.61,195.76c-2,1.56-5.52,3-5.84,5.83-.27,2.31,1,4.61,1.88,6.67,1.19,2.91,4.24,4.35,5.68,6.88,1.65,2.9,3.11,6,4.56,9,.65,1.35.69,1.58,2.31,1.53.7,0,1.28.08,1.83-.48s.32-1.67,1-2.32,2.68-1.1,3.61-1.32c1.57-.37,3.13-.3,4.75-.61a3.89,3.89,0,0,0,3.44-2.7,5.33,5.33,0,0,0,.27-4.09c-1.1-3.1-4.42-5.08-6.3-7.54-.91-1.19-1.46-2.61-2.36-3.78s-1.95-2.49-2.87-3.79a10.8,10.8,0,0,0-2.54-2.68,5.87,5.87,0,0,0-2.07-.93c-.33-.05-.7.11-1,.06-.56-.09-1-.47-1.54-.54"/><path class="cls-5" d="M246.37,194.13l0-.17a21.36,21.36,0,0,0-4.25-.93c-.93-.05-1.87,0-2.81,0a9.35,9.35,0,0,0-1.89.4,12,12,0,0,0-1.86.36c-.57.22-1.13.53-1.69.77a6.54,6.54,0,0,0-2.14,1.54c-.64.66-1.35,1.18-2,1.85a24.12,24.12,0,0,0-2.09,2.63c-.57.82-1.21,1.64-1.72,2.49-.36.61-.65,1.34-1,2a8.24,8.24,0,0,0-.54,1.46c-.46,1.64-.15,3.66-.16,5.37a3.5,3.5,0,0,0,.59,2.41,13.55,13.55,0,0,0,3.41,2.91,32.32,32.32,0,0,0,5,2.07,3,3,0,0,0,3.41-.75c.62-.63,1.23-1.24,1.87-1.86a6.76,6.76,0,0,0,.67-.92,8.23,8.23,0,0,1,1.84-1.79,21.44,21.44,0,0,0,2.67-2.28,18.42,18.42,0,0,1,2.82-2.47,10.83,10.83,0,0,0,3.21-3.39,7.33,7.33,0,0,0,.83-1.8c.22-.88.16-1.76.33-2.64a7.77,7.77,0,0,0,.06-2.1c0-.27-.14-.32-.18-.54s0-.44,0-.64c-.15-.62-.69-1-1-1.54a4.85,4.85,0,0,0-1-1.31A3.69,3.69,0,0,0,246.37,194.13Z"/><path class="cls-6" d="M250.53,216a1.89,1.89,0,0,0,1.05,1.06c.56.26.6,0,1-.35a1,1,0,0,0,.38-.93c0-.64-.09-.7-.65-.92s-1.82.1-2.16-.43c-.17-.29,0-.94,0-1.27a1.93,1.93,0,0,1,.49-1.27,3.41,3.41,0,0,1,1.95-1.15c.42-.09.86,0,1.29,0a7,7,0,0,1,1.1-.18c.56,0,1.13,0,1.69,0a3.18,3.18,0,0,1,1.4.27c.54.22,1.17.21,1.68.44a5.27,5.27,0,0,1,2.07,2.34,2.76,2.76,0,0,1-.11,2.38c-.55.73-1.06.7-1.92.7-.53,0-2.4-.28-2.21.66.08.4.39.35.67.48a7.53,7.53,0,0,0,1.82.9,5,5,0,0,1,2.62,1c.69.68.24,1.59-.49,2a18,18,0,0,1-2.62,1.25,6.31,6.31,0,0,1-2.91.73c-.31,0-.53-.18-.83-.24a3,3,0,0,1-.87-.15,9.22,9.22,0,0,0-1.76-.49,6.73,6.73,0,0,0-1.8-.23c-.54,0-.82.08-1.21-.27a4.58,4.58,0,0,1-1.14-3.45A2.8,2.8,0,0,1,250.53,216Z"/><path class="cls-7" d="M241.77,234.43a9.39,9.39,0,0,1,1.31-.77,5.8,5.8,0,0,0,1-.88c.76-.85,1.65-1.64,2.42-2.51a12.82,12.82,0,0,1,1.32-1.1c.33-.28.68-.57,1-.82a1.78,1.78,0,0,1,1-.27c.44,0,.87-.14,1.3-.21a3.64,3.64,0,0,0,2.26-1.28,2.13,2.13,0,0,1,1.92-.92,4.13,4.13,0,0,1,2,.6,21,21,0,0,0,3.68,1.42,14.07,14.07,0,0,1,1.73,1,7.08,7.08,0,0,1,1.77,1.15,7.8,7.8,0,0,0,1.4,1.1c.51.28.7.77,1.16,1.1.69.5,1.35,1.07,2.05,1.55.48.33,1.85,1,1.7,1.72-.21,1-1.38.55-2,.4a6.55,6.55,0,0,1-2.51-1,5.78,5.78,0,0,0-1.61-1,11.88,11.88,0,0,0-4.62-.93c-.8,0-1.46-.16-2.24-.23a24.14,24.14,0,0,0-2.69,0c-.9,0-1.74-.24-2.63-.23a6.17,6.17,0,0,0-.86,0c-.24.05-.3.17-.52.23a7.44,7.44,0,0,1-.84,0,16.18,16.18,0,0,0-1.6.33,15.28,15.28,0,0,1-2.51.5,5,5,0,0,0-2.48,1.32,2.61,2.61,0,0,1-2.17.61C241.67,235.21,241.72,235.15,241.77,234.43Z"/><path class="cls-6" d="M243.52,203.11c-.08.33.17.39.23.65a4.32,4.32,0,0,1,0,.88c0,.42.09.83.12,1.22a3.9,3.9,0,0,1-.13.87,2.78,2.78,0,0,1-.56,1.61,4.57,4.57,0,0,1-1.4,1.18,8,8,0,0,1-2.06.65,16.61,16.61,0,0,0-2.36.85,1.35,1.35,0,0,1-1.25-.07,5.89,5.89,0,0,1-2-.84,3.51,3.51,0,0,1-.44-.75,11,11,0,0,1-.88-1.79c-.41.41-.64.48-.66,1.13a2.69,2.69,0,0,0,.22,1.43,3.1,3.1,0,0,0,2,1.31,8.72,8.72,0,0,0,2.73.43h1.42a4.51,4.51,0,0,0,1.32-.22,10.13,10.13,0,0,0,1.49-.37,3.51,3.51,0,0,0,1.09-.95,4.9,4.9,0,0,0,.7-1.19,14.73,14.73,0,0,0,.83-1.43,16.92,16.92,0,0,0,.94-2.41C244.94,204.77,244.92,203.07,243.52,203.11Z"/><path class="cls-6" d="M240,201.14a6.81,6.81,0,0,0-3.51.6,10.74,10.74,0,0,0-2,1.53,3.5,3.5,0,0,0-1.26,2.47,3.4,3.4,0,0,0,1.26,2.47,5.44,5.44,0,0,0,2.46,1.3,3.72,3.72,0,0,0,2.91-.2c.26-.2.47-.51.72-.72a10.12,10.12,0,0,0,1.08-.88,4.19,4.19,0,0,0,1.21-2.52,4.58,4.58,0,0,0-.38-2.78C241.93,201.46,240.86,201.37,240,201.14Z"/><path class="cls-6" d="M275.27,204.43a5.42,5.42,0,0,0-.92.87,10.83,10.83,0,0,0-.83,1.43,5,5,0,0,0-.26,1.2,2.59,2.59,0,0,0-.13,1.3c.29,1.65,1.6,2.77,2.69,4a8.24,8.24,0,0,0,4.15,2.68,19.25,19.25,0,0,0,4,.16,4.64,4.64,0,0,0,2.89-.65,5.43,5.43,0,0,0,1.38-1.76,2.57,2.57,0,0,0,.37-1.09,6.42,6.42,0,0,0,.23-1.31c0-.46-.18-.87-.23-1.33a1.31,1.31,0,0,0-.38-.92c-.25-.29-1.25-1.46-1.77-1a10.86,10.86,0,0,0-.32,1.38,5.81,5.81,0,0,1-.31,1.26,4.36,4.36,0,0,1-1.75,1.76,8.15,8.15,0,0,1-5.55.34c-.75-.25-1.15-1.13-1.57-1.71a4.53,4.53,0,0,1-1.27-2.41,4.26,4.26,0,0,0-.22-1,5.44,5.44,0,0,1,0-1.21,4.84,4.84,0,0,0,0-1.32C275.27,204.52,274.9,204.65,275.27,204.43Z"/><path class="cls-6" d="M281.41,202.89c-1.42,0-3.42-.47-4.11,1.2a14.56,14.56,0,0,0-.5,1.89,2.79,2.79,0,0,0-.22,1.29,7.38,7.38,0,0,0,1,2.41,4,4,0,0,0,2.82,1.65,7,7,0,0,0,3.64-.16,2.51,2.51,0,0,0,1.55-1.27,8.55,8.55,0,0,0,.77-1.69,4.24,4.24,0,0,0-.93-3.56,6.06,6.06,0,0,0-1.86-1.26,5.7,5.7,0,0,0-1.12-.27c-.33-.08-.47-.29-.86-.23"/><path class="cls-3" d="M244.83,242.31c.12.76.75,1.13,1.3,1.58a11.86,11.86,0,0,0,3.75,2.26,4.51,4.51,0,0,0,1.37.11c1,0,2,0,3,0,1.66-.11,3.32-.54,5-.62,1.05-.05,4.13-.34,4.23,1.31.13,2.15-3.46,1.77-4.64,1.76-2.14,0-4.1.9-6.26.88a27.48,27.48,0,0,1-2.87,0,9.27,9.27,0,0,1-2.45-1,10.21,10.21,0,0,1-3.73-3.3,6.17,6.17,0,0,1-.72-2.09,2.36,2.36,0,0,1-.12-1.39A9.78,9.78,0,0,0,244.83,242.31Z"/><path class="cls-8" d="M226,377.53c0,.43-.8.87-.92,1.36a4.74,4.74,0,0,0,.19,2,3.93,3.93,0,0,0,.56,1.6c.26.33.86.49,1,.77s0,1.25,0,1.7a19.19,19.19,0,0,1,.26,2,11.26,11.26,0,0,1-.56,3.26c-.43,1.34-.93,2.67-1.38,4a40.14,40.14,0,0,0-1.59,4.63,37.69,37.69,0,0,0-1.27,6,11.13,11.13,0,0,0,.42,2.57,7.19,7.19,0,0,1-.28,3.32c-.67,2.26-1.19,4.39-3,6.08-.32.3-.7.52-1,.81-.15.13-.25.34-.42.45s-.54.2-.75.49-.17.45-.38.65-.62.2-.68.49.36.67.55.92a3.42,3.42,0,0,0,1.18,1.18,2.88,2.88,0,0,0,.85.23c.3.06,1.24.07,1.42.34-.23.4-.84.62-1.21.88-.57.39-1.07.88-1.65,1.28a5.73,5.73,0,0,0-1,.64c.38.39,1.92-.15,2.39-.2a26.68,26.68,0,0,1,2.83,0,31.81,31.81,0,0,1,4.67.27c3,.46,5.14,2.55,7.65,4,1.87,1.06,3.71,2.2,5.52,3.35a14.82,14.82,0,0,1,4,3.33,30.43,30.43,0,0,0,4.16,4.18c1.53,1.39,3.36,2.41,4.68,4a8.41,8.41,0,0,0,2.46,2.33,11.32,11.32,0,0,0,4.14,1.22,1.25,1.25,0,0,1,.83.31c1.06.79,1,2,1.31,3.13a14.64,14.64,0,0,1,.42,1.61,19.64,19.64,0,0,1,0,2,23.16,23.16,0,0,0,.52,3.18,18.83,18.83,0,0,1,.39,3c0,1,.32,1.94.25,2.93-.11,1.47-.72,2.89-.7,4.37,0,1.87.26,3.72.23,5.59a9,9,0,0,0,.21,2.54,15.1,15.1,0,0,1,.43,1.56c.11.74.15,1.5.3,2.23a7.1,7.1,0,0,0,.58,1.25c.38.84.49,1.77.81,2.63s.49,2.12.84,3.1c.14.4.32.33.67.44s1.35.08,1.67.44a7.2,7.2,0,0,1,.84,2.31c.46,1.35.87,2.72,1.42,4.06a3.24,3.24,0,0,0,.84,1.36c.54.51,1,1.08,1.49,1.6.92.91,2.5.82,3.68,1.28a11.52,11.52,0,0,1,1.92,1,12.33,12.33,0,0,1,1.29.73,5.47,5.47,0,0,1,1.42,2,6.43,6.43,0,0,1,.58,1.18c.25,1.07-.16,2.2-.19,3.28a10.23,10.23,0,0,1,0,2.35,8.59,8.59,0,0,0-.17,1.35c-.07.82-.36,1.23,0,2.12.11.3.52,1.4.85,1.49.48-.91,1.09-1.73,1.65-2.59a22.84,22.84,0,0,1,1.08-2.08c.11.36.22.71.34,1.06a5.79,5.79,0,0,1,.16.91,6.6,6.6,0,0,1,.24,1c0,.37,0,.74,0,1.11a15.15,15.15,0,0,1-1.05,5.13c-.37,1-.69,2-1,3-.12.43-.23.85-.34,1.28-.06.25-.42.93-.36,1.14.18.71,1.91-.34,2.06.55s-1.17,1.64-.88,2.36c.43,0,1-.38,1.33-.6.58-.35,1.06-.82,1.62-1.21a9.5,9.5,0,0,0,2.81-3,12.43,12.43,0,0,0,1.36-3,9,9,0,0,0,.1-1.94c0-.69.25-1.27.24-2,0-1.54.09-3.11,0-4.65,0-.5-.21-.95-.21-1.45a4.1,4.1,0,0,1,.43-1.6c.13-.3.24-.94.68-.9s.89,2.12.91,2.54a23.54,23.54,0,0,0,.43,3.46,25.27,25.27,0,0,1,0,4.35c0,1,0,2,0,3a3.73,3.73,0,0,1-.52,1.6c-.14.29-.46.69-.41,1,.12.75,1.52.16,1.88-.1,1.08-.76,1.44-2.29,1.83-3.44a5,5,0,0,0,.35-.88,3.24,3.24,0,0,0-.17-1,9.17,9.17,0,0,1,0-2,39,39,0,0,0-.06-9,18.7,18.7,0,0,0-.87-2.91c-.28-.84-.44-1.7-.78-2.51a31.67,31.67,0,0,1-1.71-5.43c-.39-1.74-.76-3.46-1.07-5.21-.13-.79-.43-1.54-.58-2.32-.1-.6.34-2.55-.16-3,.08-.41-.29-1-.4-1.35a14.75,14.75,0,0,0-.51-1.72c-.24-.6-.38-1.2-.59-1.81s-.25-1.35-.46-2-.62-1.56-.82-2.41c-.26-1-.43-2.07-.61-3.14-.36-2.06-.69-4.15-1.09-6.21a23.41,23.41,0,0,0-1-3.9,21.17,21.17,0,0,1-.73-4c-.25-1.7-.23-3.43-.44-5.14a25.45,25.45,0,0,1-.16-2.89,17.5,17.5,0,0,0-.48-2.79c-.3-1.67-.61-3.34-1-5a13.58,13.58,0,0,0-2-4.19c-1.07-1.61-1.89-3.37-2.94-5a32.5,32.5,0,0,0-2.06-2.62c-.58-.73-1.05-1.44-1.57-2.22-.35-.51-.86-.91-1.21-1.43a14.62,14.62,0,0,1-.84-1.68c-.48-1-1.06-1.89-1.54-2.87-1-2-2.11-4-3.22-5.92a59.66,59.66,0,0,1-3.11-5.52c-.86-2-1.92-3.74-2.89-5.64-1.41-2.75-3.12-5.3-4.38-8.14-.92-2.07-1.66-4.26-2.44-6.38a16.16,16.16,0,0,1-.93-3.38,5.85,5.85,0,0,1-.15-1.95,4.32,4.32,0,0,0,.19-1.28,6.32,6.32,0,0,1-.58,1.93c-.14.42-.23.84-.33,1.26a1.11,1.11,0,0,1-.23.6c0-3.79.22-9.21-1.2-12.76a34.29,34.29,0,0,1-1.66-3.72c-.32-1.14-.41-2.25-.83-3.38-.67-1.8-1.21-3.66-1.83-5.48-.49-1.41-.79-3.24-1.64-4.48-1.18-1.74-3.15-2.12-5.07-2.32a7.25,7.25,0,0,0-7.65,4.09c-.66,1.12-1.31,2.14-2.06,3.2a13.93,13.93,0,0,0-1.09,2.31,31.62,31.62,0,0,0-1.77,4.2C227.49,370.52,224.9,376.68,226,377.53Z"/><path class="cls-7" d="M306.72,220.1a3.48,3.48,0,0,0-1.51-.87c-.72-.06-1.83.79-2.41,1.14a11.27,11.27,0,0,0-4.72,5.37,21.49,21.49,0,0,0-1,3.89,17.94,17.94,0,0,0-.37,3.65c0,2-.32,4-.3,6,0,1.71,0,3.42,0,5.13a31.94,31.94,0,0,0,0,4.15c.2,1.51.8,3.93,2.58,4a4,4,0,0,0,1.06-.18c.45-.08.76.14,1.2-.09a4.32,4.32,0,0,1,.73-.87c.31-.23.62-.46.94-.67a5,5,0,0,0,1.66-2.13c.9-1.76,2.27-3,2.66-5a26.72,26.72,0,0,0,.37-5v-9.45a21.17,21.17,0,0,0,0-3.56C307.36,224.07,306.31,223.15,306.72,220.1Z"/><path class="cls-7" d="M213.52,214.39a3.4,3.4,0,0,0-1.59-.7c-.73,0-1.74,1-2.28,1.38a11.34,11.34,0,0,0-4.13,5.84,21.21,21.21,0,0,0-.56,4,18,18,0,0,0,0,3.67c.24,2,.1,4,.34,6,.19,1.7.36,3.4.54,5.1a31.58,31.58,0,0,0,.42,4.13c.36,1.48,1.21,3.82,3,3.71a4.06,4.06,0,0,0,1-.28c.44-.13.78,0,1.18-.22a4.64,4.64,0,0,1,.65-.94c.28-.27.56-.52.86-.77a5.15,5.15,0,0,0,1.43-2.29c.7-1.85,1.94-3.23,2.11-5.25a25.94,25.94,0,0,0-.16-5.06l-1-9.4a20.72,20.72,0,0,0-.35-3.54C214.57,218.28,213.43,217.47,213.52,214.39Z"/><path class="cls-9" d="M238.06,201.45c-.84.63-1.28.85-1.21,2,0,.7.28,1.52,1.05,1.67,1,.19,1.43-.35,1.74-1.15a1.58,1.58,0,0,0,.24-1c-.1-.72-.19-.61-.91-.6"/><path class="cls-9" d="M281,203.87c-.63,0-1.29-.15-1.52.59s.37,1.19,1.07,1.24a1.09,1.09,0,0,0,.45-2.13"/><path class="cls-9" d="M281.65,206.42c-.42,0-.84-.09-1,.38s.24.77.7.81a.71.71,0,0,0,.29-1.38"/><path class="cls-10" d="M250.15,217.77c0,2.43-1.57,4.27-2.6,6.34a21,21,0,0,1-2.35,3.17,11.15,11.15,0,0,1-1.39,1.69,15.18,15.18,0,0,0-1.76,1.51,3.5,3.5,0,0,1-.9.9c-.3.2-.63.36-1,.59s-.36.4-.6.56-.48.14-.62.27c-.45.41-.23.42,0,.88.41.88.91.73,1.84.73a26,26,0,0,0,3.73-.31,10.23,10.23,0,0,0,1.9-.67c.92-.33,1.83-.69,2.78-.93a11.91,11.91,0,0,1,3.16-.22c2,0,4.09,0,6.13,0a6.46,6.46,0,0,1,1.16.07c.85.15,1.83.08,2.65.3,1.27.35,2.45,1.08,3.74,1.38a19,19,0,0,0,4.09.67c.33,0,.68.11.89-.16s-.1-1-.21-1.33a10.17,10.17,0,0,0-1.77-3.33c-.86-1-2-1.32-3-2.08a8.93,8.93,0,0,1-1.28-1.25,15.15,15.15,0,0,0-1.53-1.22,11,11,0,0,1-1.9-1.83c-.48-.61-1.22-.88-1.72-1.49-.37-.45-.62-1-1-1.45C256.83,218.61,252.76,219.29,250.15,217.77Z"/><g class="cls-11"><path class="cls-12" d="M275.81,184.25c.3,1,.36,2.07.62,3.06a4.62,4.62,0,0,0,1.54,2.57,5,5,0,0,0,1.3.79,1.21,1.21,0,0,0,1.34-.23,1.82,1.82,0,0,0,.19-.71c0-.27.1-.51.14-.77.08-.51.14-1,.17-1.55a19.42,19.42,0,0,0-.6-6.16A19.21,19.21,0,0,0,278,175.6a19.25,19.25,0,0,1,2.61,5.63,19.59,19.59,0,0,1,.66,6.19c0,.52-.08,1-.15,1.56,0,.25-.1.52-.13.77a1.85,1.85,0,0,1-.21.77,1.32,1.32,0,0,1-1.52.31,4.86,4.86,0,0,1-1.37-.81,4.8,4.8,0,0,1-1.63-2.65c-.27-1-.35-2.07-.65-3.05Z"/></g><g class="cls-11"><path class="cls-12" d="M227.19,174.27a9.59,9.59,0,0,1,2.7.59,5.56,5.56,0,0,1,2.28,1.58l0,0a14.27,14.27,0,0,1,4.51,5.22h0a16,16,0,0,1,2.37,5.05,7,7,0,0,1,0,2.8,5.27,5.27,0,0,1-.44,1.34,3,3,0,0,0-.48,1.26v.12l-.11-.06c-2.24-1.34-4.55-2.57-6.89-3.75-1.17-.58-2.35-1.15-3.57-1.62s-2.46-.87-3.71-1.26c-2.5-.77-5-1.44-7.53-2.22a42.33,42.33,0,0,1-7.28-2.9,41.47,41.47,0,0,0,7.29,2.86c2.5.77,5,1.43,7.54,2.2,1.25.38,2.5.78,3.73,1.24s2.41,1,3.58,1.61c2.35,1.16,4.66,2.38,6.92,3.72l-.11.06a3.22,3.22,0,0,1,.48-1.33,4.85,4.85,0,0,0,.43-1.3,7,7,0,0,0,0-2.74,15.71,15.71,0,0,0-2.38-5h0a14,14,0,0,0-4.48-5.12h0a5.33,5.33,0,0,0-2.18-1.51,9.15,9.15,0,0,0-2.64-.56Z"/></g><g class="cls-11"><path class="cls-12" d="M281.46,236.06a3,3,0,0,1,.49-1.54,13,13,0,0,1,.92-1.28,15.15,15.15,0,0,1,2.25-2.21,35.51,35.51,0,0,1,5.31-3.37l11.31-5.41h0a165.13,165.13,0,0,1,23.93-7.2q3.06-.66,6.14-1.21c2-.4,4.09-.8,6.14-1.14a68.35,68.35,0,0,1,12.44-1.11A68.2,68.2,0,0,0,338,212.73c-2.05.35-4.1.75-6.14,1.16s-4.1.78-6.13,1.23a164.18,164.18,0,0,0-23.89,7.28h0l-11.29,5.45a34.27,34.27,0,0,0-5.26,3.36,14.24,14.24,0,0,0-2.21,2.18,4.78,4.78,0,0,0-1.35,2.68Z"/></g><g class="cls-11"><path class="cls-12" d="M287.39,233.67a81.26,81.26,0,0,1,13.13,1c4.34.68,8.65,1.51,12.93,2.53,2.13.51,4.26,1.07,6.36,1.7,1.05.32,2.1.65,3.14,1s2.1.62,3.13,1a45,45,0,0,1,11.58,6.19h0a37.34,37.34,0,0,1,10.81,9.37,37.14,37.14,0,0,0-10.84-9.32h0A44.85,44.85,0,0,0,326.05,241c-1-.38-2.1-.64-3.14-1s-2.09-.67-3.14-1q-3.15-.93-6.36-1.68-6.41-1.5-12.92-2.48a81,81,0,0,0-13.1-1Z"/></g><g class="cls-11"><path class="cls-12" d="M227.06,226.58a15.52,15.52,0,0,0-1.56-3.42c-.64-1.08-1.34-2.14-2-3.21h0a17.25,17.25,0,0,0-7.69-5.76h0a56.53,56.53,0,0,0-12.18-5.75h0a101.42,101.42,0,0,0-21.9-7.32h0l-6.93-.52-3.46-.26a33.66,33.66,0,0,0-3.47-.14,44.33,44.33,0,0,0-13.65,2.31,44,44,0,0,1,13.65-2.35,33.54,33.54,0,0,1,3.47.13l3.46.25,6.94.49h0a101.69,101.69,0,0,1,21.95,7.27h0A57.36,57.36,0,0,1,215.9,214h0a14,14,0,0,1,4.32,2.35,23.3,23.3,0,0,1,3.49,3.46h0c.67,1.07,1.37,2.12,2,3.21a16.41,16.41,0,0,1,1.59,3.46Z"/></g><g class="cls-11"><path class="cls-12" d="M220.5,237.54a54,54,0,0,1-7.37,1.22c-2.48.21-5,.26-7.44.51a23.56,23.56,0,0,0-7.21,1.74,33.58,33.58,0,0,0-6.41,3.77h0a20.81,20.81,0,0,0-3.87,3.13h0a16.23,16.23,0,0,0-3.77,4.47,16.26,16.26,0,0,1,3.75-4.5h0a21.72,21.72,0,0,1,3.86-3.17h0a33.46,33.46,0,0,1,6.41-3.81,23.48,23.48,0,0,1,7.23-1.8c2.48-.27,5-.32,7.44-.55a55.46,55.46,0,0,0,7.34-1.26Z"/></g><path class="cls-10" d="M246.67,229.26a18.68,18.68,0,0,0-2.55,2.16,25.06,25.06,0,0,0-3.88,5.86c-.78,2-.28,3.42,1,5,1.41,1.81,3.22,2.8,4.31,4.87a20.18,20.18,0,0,0,2.94,3.84c1.09,1.21.9,2,.9,3.62,0,1.15-.43,3.19.07,4.14.42.78,1,.74,1.69.86a36.27,36.27,0,0,0,5,0,18.79,18.79,0,0,0,5.43-1c.43-1.62.06-3.8.06-5.48,0-2.13.5-4,.45-6.16,0-1.76,1.07-2.47,2.48-3.4,1-.64,2.5-1.3,3.13-2.29.38-.58.59-1.2,1-1.82.65-1.08,1.17-3.4.36-4.47-1.39-1.82-4-2.2-6-3a15.32,15.32,0,0,0-4.68-1.39c-1.58-.12-3-.08-4.62-.33C252.58,230.09,245.48,229.56,246.67,229.26Z"/><path class="cls-13" d="M286.53,210.73c.09.42-.22.61-.44.92a4,4,0,0,1-.81,1,6.69,6.69,0,0,1-2,.86c-.93.29-5.66.58-4.81-.88.41-.7,1.06-.2,1.67-.2a11.26,11.26,0,0,0,3.08-.17,4,4,0,0,0,1.7-.76c.29-.26.7-1,1.15-.82"/><path class="cls-13" d="M233.06,207a4.2,4.2,0,0,0,1.1,2.62c.35.45,1.93,1.78,2.38.74.32-.73-1.57-1.48-2-1.94-.26-.3-.22-.63-.32-1-.17-.6-.35-.65-1-.65"/><path class="cls-13" d="M257.73,210.86l-.05-.25c-.24-.09-.45,0-.69,0s-.66-.26-.76-.25-.25.16-.35.17a5.05,5.05,0,0,0-.68.06c-1.37.36-.47,1.29.45,1.57a17,17,0,0,1,2.38.51,8,8,0,0,1,2.45,1.45c1-.21,1-2,.23-2.56a7,7,0,0,0-1.79-.9,5.82,5.82,0,0,0-1.79-.36"/><path class="cls-10" d="M284.37,390.62a15.47,15.47,0,0,0,.57,3.27A9.24,9.24,0,0,0,284.37,390.62Z"/><path class="cls-10" d="M286.78,291.83a45.54,45.54,0,0,0,.05-4.68c-.14-2,.41-5.14-1.3-6.58-1,.22-1.89,1.75-2.79,2.31-1.24.79-3.58,2.67-5,2.89-.16-.61.06-1.14-.1-1.75-1.25-.17-3,1.08-4.22,1.47-2.2.7-4.91,1.59-7.24,1.46-.62-2.42-3.81-2.47-5.49-3.73a5.94,5.94,0,0,1-.83-.76c.81-.45,1.63-.86,2.41-1.37,2.3-1.5,4.69-2.83,7-4.38a34.94,34.94,0,0,0,5-3.8,32.89,32.89,0,0,0,4.05-4,49.14,49.14,0,0,0,2.72-4.43,12.15,12.15,0,0,0,1.68-4.24c.18-1.34-.48-1.23-1.69-1.38a110.83,110.83,0,0,0-11.5-1c-4.39-.08-8.79,0-13.18,0-2.79,0-5.56-.33-8.35-.31-1.38,0-2.78.07-4.16,0-2.53-.1-4.9-1.46-7.39-1.82l-3.33-3.32c0,.41.53,1.08.67,1.49a19.36,19.36,0,0,1,1.1,2.62,27.24,27.24,0,0,1,0,3.5,15,15,0,0,0,.9,4.61c.6,1.31.84,2.66,1.52,3.94s1.24,2.18,1.83,3.33c1,2,1.56,4.13,2.64,6.07.51.94,1.19,1.76,1.69,2.7a36.43,36.43,0,0,1,1.63,4.05c.62,1.65,1.08,3.4,1.83,5a18.72,18.72,0,0,0,1.24,2.64c.6-.15,1.1-1.09,1.47-1.49.93-1,1.93-1.92,2.89-2.88.4-.4.78-.78,1.16-1.14a18.48,18.48,0,0,1,1,4.37c.16,1.81.05,2.88-1.48,4.07-5.1,3.95-11.77,5.59-17.23,8.89a88.76,88.76,0,0,0,10.31,4.74c3.28,1.36,7.12,2.16,10,4.15,1.44,1,1.53,1.93,2.32,3.35a16.14,16.14,0,0,1,1.67,3.55c1.37,4.22,4.62,7.63,6.27,11.8-1.75-.65-3.57-2-5.53-1.87a9.9,9.9,0,0,0,2.76,2.44c1.15.78,3.63,2.51,4.77,2.71,2.08,3.7,6,6.24,7.51,10.31.5,1.4.25,2.79.46,4.23a20,20,0,0,0,1.1,3.69c.24.68.5,1.31.78,1.92.19-3.22.44-6.42.42-9.68,0-4,.63-7.92.62-11.93v-7.14c0-2.58-.4-5.56.11-8.11.57-2.86,2.4-5.5,3.4-8.21.66-1.78.88-3.73,1.88-5.36a4.3,4.3,0,0,1-1.57,1c.75-1.43,1.46-2.88,2.08-4.36.75-1.82.84-3.53,1.61-5.33S286.73,293.54,286.78,291.83Z"/><path class="cls-10" d="M282.06,381.19c.85,3.13,1.5,6.29,2.31,9.43h0c-.15-1.8-.06-3.62-.06-5.48,0-3.61,0-7.22,0-10.83,0-3.12-.56-6.14-.61-9.25,0-2.27-1-3.41-2.42-5.21a23.06,23.06,0,0,1-2.86-4.68c-.1,1.7-.19,3.41-.19,5.13C278.22,367.39,280.21,374.39,282.06,381.19Z"/><path class="cls-4" d="M310.53,402.78s9.49,30.39,10.27,32.73c1.43,4.31,2,9.36,3,13.83.5,2.27.4,4.51.86,6.72.26,1.22,1.51,5,2.43,5.67a8.89,8.89,0,0,0,3.86-4.69,28.27,28.27,0,0,1,1.15-3.17c.65-1.41.32-2.22.61-3.61.66-3.11,1.14-4.22-.2-7.28-.92-2.08-1.92-4-2.69-6.14a46.19,46.19,0,0,0-6.15-12c-1.46-2-2-4.38-3.38-6.39S310.53,402.78,310.53,402.78Z"/><path class="cls-4" d="M272.7,432.62c2.67,3.67,5.15,7.44,6.24,11.78,1.63,6.55,3,13.34,5.68,19.57a52.71,52.71,0,0,1,2.5,9c.55,2.4-.22,4.91.4,7.28.3,1.11,1.66,4.4.82,5.53-1.2,1.62-4.71-1.58-5.62-2.63-1.1-1.29-1.22-3.52-2-5.36-1.55-3.89-2.14-7.87-3.43-11.85a178.64,178.64,0,0,0-7-18.61,40.47,40.47,0,0,0-6.2-9.34c-1.89-2.13-2.79-4.62-4.53-6.82-1.6-2-3.07-4-4.58-6.08,1.47-2.09-.82-6.6,1.43-7.07,1.4-.33-7.44-32.33-7.44-32.33s14.06,30.91,15.95,35.13S269.87,428.75,272.7,432.62Z"/><path class="cls-4" d="M254.68,769.53c.15-.91.61-1.66.81-2.54a27.86,27.86,0,0,0-6.21-2.93c-1.55-.44-2.35-.29-3.72-1.56-1.06-1-1.66-2.25-2.66-3.32s-2.17-1.44-3.11-2.33-1.62-1.91-2.71-2.77c-2.11-1.65-4.32-2.24-6.75-3.25-.59,2,.38,3.29,1,5.08.77,2.18-1.42,4.33.6,6.19s5.23,1.78,7.41,2.9c1.51.78,2.82,2.4,4.24,3.42,1.6,1.15,2.35,2.61,3.78,3.88s3.87,2.06,5.5,2.67c2.44.91,4.67,1.55,5.5-1.81a9,9,0,0,0,0-2.74c-.42-1.75-1.58-1.59-2.79-2.7"/></g></g></svg>