<?xml version="1.0" encoding="utf-8"?>
<!-- Generator: Adobe Illustrator 23.1.1, SVG Export Plug-In . SVG Version: 6.00 Build 0)  -->
<svg version="1.1" id="Layer_1" xmlns="http://www.w3.org/2000/svg" xmlns:xlink="http://www.w3.org/1999/xlink" x="0px" y="0px"
	 viewBox="0 0 302 328.9" style="enable-background:new 0 0 302 328.9;" xml:space="preserve">
<style type="text/css">
	.st0{opacity:0.5;fill:#970076;fill-opacity:0.3;enable-background:new    ;}
	.st1{opacity:0.5;fill:#FF4949;fill-opacity:0.3;enable-background:new    ;}
</style>
<path class="st0" d="M161.5-50.2C112.9-39.1,65.4-13.7,36.9,29C8.5,71.6,3.5,133.1,33.2,174.8c22.6,31.7,60.6,47.5,97.9,54.1
	c53.4,9.5,110.5,2.6,157.2-26.1c46.6-28.7,81.1-80.7,83.6-137.2c1.9-43.7-20.6-107.2-63.9-123.1C268.2-72.1,201.2-59.3,161.5-50.2z"
	/>
<path class="st1" d="M292.9,170.6c2.2-12.5,4.3-26.3-2.8-38.1c-9.1-15.4-29.5-21-47.2-23.3c-41.9-5.4-85-1.3-119,18
	s-57.6,55.3-54.8,95.1c3.3,48.1,47.6,95,98,104.7c40.5,7.8,88.8-9.8,106.2-43.7c5.9-11.5,5.3-25,6.7-37.9
	C282.8,220.2,288.4,195.4,292.9,170.6z"/>
</svg>
