<?xml version="1.0" encoding="utf-8"?>
<!-- Generator: Adobe Illustrator 23.0.6, SVG Export Plug-In . SVG Version: 6.00 Build 0)  -->
<svg version="1.1" id="Layer_1" xmlns="http://www.w3.org/2000/svg" xmlns:xlink="http://www.w3.org/1999/xlink" x="0px" y="0px"
	 viewBox="0 0 277 742.7" style="enable-background:new 0 0 277 742.7;" xml:space="preserve">
<style type="text/css">
	.st0{opacity:0.5;fill:#970076;fill-opacity:0.3;enable-background:new    ;}
	.st1{opacity:0.5;fill:#FF3756;fill-opacity:0.3;enable-background:new    ;}
</style>
<path class="st0" d="M360.8,286.7c18.6-62.8,20.7-133-8.3-191.7c-29-58.7-93.7-102-158.6-93.2C144.5,8.5,103,42.6,72,81.6
	C27.6,137.3-1,207.3,1.1,278.5C3.2,349.6,38.7,421,99.4,458.3c47,28.9,131.4,41.6,176.4,1.4C317.2,422.9,345.6,337.9,360.8,286.7z"
	/>
<path class="st1" d="M-3.9,651.9c29.3,43.8,75.6,75.1,126.1,75c50.6-0.2,103.7-36.3,121.1-90.3c5-16.2,7.4-33.1,7.2-50.1
	c-0.3-74.7-45-143.8-107.7-166.5C88.1,400.3,12,416.6-30.8,466.8C-74,517.5-32.7,608.9-3.9,651.9z"/>
</svg>
