<?xml version="1.0" encoding="utf-8"?>
<!-- Generator: Adobe Illustrator 23.1.1, SVG Export Plug-In . SVG Version: 6.00 Build 0)  -->
<svg version="1.1" id="Layer_2" xmlns="http://www.w3.org/2000/svg" xmlns:xlink="http://www.w3.org/1999/xlink" x="0px" y="0px"
	 viewBox="0 0 375 657" style="enable-background:new 0 0 375 657;" xml:space="preserve">
<style type="text/css">
	.st0{fill:#FFFFFF;}
	.st1{opacity:0.5;fill:#970076;fill-opacity:0.3;enable-background:new    ;}
	.st2{opacity:0.5;fill:#FF3756;fill-opacity:0.3;enable-background:new    ;}
</style>
<path class="st0" d="M291.8,1.8C242.5,8.5,201,42.6,170,81.6c-44.3,55.7-73,125.7-70.9,196.9c0.6,21.4,4.3,42.8,10.8,63.4
	C73.4,338,32.8,347,0,368.5v218.8c29.5,40.5,73.6,68.9,121.7,68.7c50.6-0.2,103.7-36.3,121.1-90.3c4.9-16.1,7.3-33.1,7.1-50.1
	c-0.1-12.6-1.4-25-3.8-37.1c44.1,11.6,95.8,9.7,127.7-18.8c0.4-0.3,0.8-0.7,1.1-1v-441h0.1C349.4,4.3,320.6-2.1,291.8,1.8z"/>
<g>
	<path class="st0" d="M375,17.7C349.4,4.3,320.6-2.1,291.8,1.8C242.5,8.5,201,42.6,170,81.6c-44.3,55.7-73,125.7-70.9,196.9
		s37.7,142.6,98.3,179.8c47,28.9,131.4,41.6,176.4,1.4c0.4-0.3,0.8-0.7,1.1-1v-441H375z"/>
	<path class="st1" d="M375,17.7C349.4,4.3,320.6-2.1,291.8,1.8C242.5,8.5,201,42.6,170,81.6c-44.3,55.7-73,125.7-70.9,196.9
		s37.7,142.6,98.3,179.8c47,28.9,131.4,41.6,176.4,1.4c0.4-0.3,0.8-0.7,1.1-1v-441H375z"/>
</g>
<path class="st2" d="M249.9,515.6c-0.3-74.7-45-143.8-107.7-166.5c-43-15.5-99.3-8.7-142.2,19.4v218.8
	c29.5,40.5,73.6,68.9,121.7,68.7c50.6-0.2,103.7-36.3,121.1-90.3C247.7,549.6,250.1,532.6,249.9,515.6z"/>
</svg>
