<?xml version="1.0" encoding="utf-8"?>
<!-- Generator: Adobe Illustrator 23.0.6, SVG Export Plug-In . SVG Version: 6.00 Build 0)  -->
<svg version="1.1" id="Layer_1" xmlns="http://www.w3.org/2000/svg" xmlns:xlink="http://www.w3.org/1999/xlink" x="0px" y="0px"
	 viewBox="0 0 302 328.9" style="enable-background:new 0 0 302 328.9;" xml:space="preserve">
<style type="text/css">
	.st0{opacity:0.5;fill:#FF4C4F;enable-background:new    ;}
	.st1{opacity:0.8;fill:#001E82;enable-background:new    ;}
</style>
<path class="st0" d="M292.9,170.6c2.2-12.5,4.3-26.3-2.8-38.1c-9.1-15.4-29.5-21-47.2-23.3c-41.9-5.4-85-1.3-119,18
	s-57.6,55.3-54.8,95.1c3.3,48.1,47.6,95,98,104.7c40.5,7.8,88.8-9.8,106.2-43.7c5.9-11.5,5.3-25,6.7-37.9
	C282.8,220.2,288.4,195.4,292.9,170.6z"/>
<path class="st1" d="M0,0v225.1c26.8,26.6,62.3,41.2,97.3,48.2c64,12.8,132.4,3.5,188.3-35.3c5.6-3.9,11.1-8.1,16.4-12.7V0H0z"/>
</svg>
