<svg xmlns="http://www.w3.org/2000/svg" viewBox="0 0 216.48 328.62"><defs><style>.cls-1,.cls-2{fill:none;stroke-miterlimit:10;}.cls-1{stroke:#00008c;stroke-width:0.8px;}.cls-2{stroke:#ff2031;stroke-width:0.67px;}</style></defs><title>typographymobile</title><g id="Layer_2" data-name="Layer 2"><g id="Layer_1-2" data-name="Layer 1"><g id="Layer_1-2-2" data-name="Layer 1-2"><path d="M2.73,200.4H.81v-9.34H2.73Z"/><path d="M13.75,193.92h1.78v6.48H13.75v-.89a2.67,2.67,0,0,1-2.26,1.12,3.15,3.15,0,0,1-3.13-3.17,1.55,1.55,0,0,1,0-.22,3.31,3.31,0,0,1,3.06-3.54h.2a2.54,2.54,0,0,1,2.12,1Zm-3.47,3.29a1.82,1.82,0,0,0,1.65,2H12a2,2,0,0,0,1.8-2.05,1.76,1.76,0,1,0-3.51-.31,1.54,1.54,0,0,0,0,.37Z"/><path d="M19.05,193.92v.81a1.86,1.86,0,0,1,1.78-1,1.79,1.79,0,0,1,1.77,1.08,2,2,0,0,1,2-1.08,2,2,0,0,1,1.57.61,2.4,2.4,0,0,1,.52,1.86v4.24H24.87v-3.91c0-.88-.33-1.3-1-1.3s-1,.48-1,1.3v3.91H21.06v-3.85c0-.9-.34-1.36-1-1.36s-1,.46-1,1.36v3.85H17.28V194Z"/><path d="M37.54,193.92h1.77v6.48H37.54v-.89a2.72,2.72,0,0,1-2.26,1.12,3.15,3.15,0,0,1-3.13-3.17,1.55,1.55,0,0,1,0-.22,3.31,3.31,0,0,1,3.06-3.54h.2a2.54,2.54,0,0,1,2.12,1Zm-3.48,3.29a1.82,1.82,0,0,0,1.65,2h.06a1.93,1.93,0,0,0,1.79-2.05,1.76,1.76,0,1,0-3.51-.31,1.54,1.54,0,0,0,0,.37Z"/><path d="M41.06,200.4v-9.34h1.78v9.34Z"/><path d="M47.38,195.79v-.11c0-.39-.35-.67-.83-.67s-.71.24-.71.59A.53.53,0,0,0,46,196c.19.15.21.15,1.1.43,1.46.45,2,1,2,2.08,0,1.26-1,2.1-2.53,2.1A2.24,2.24,0,0,1,44,198.49h1.71c.09.56.34.81.86.81a.65.65,0,0,0,.71-.57v0c0-.39-.25-.57-1.2-.86-1.4-.42-2-1-2-2.08,0-1.23,1-2.06,2.5-2.06A2.13,2.13,0,0,1,49,195.49a2.64,2.64,0,0,1,0,.29Z"/><path d="M57.11,197.22a3.45,3.45,0,0,1-3.49,3.41h-.06a3.47,3.47,0,1,1,0-6.94A3.41,3.41,0,0,1,57.11,197Zm-5.27-.05a1.74,1.74,0,0,0,3.47.26,1.13,1.13,0,0,0,0-.26,1.68,1.68,0,0,0-1.43-1.9,1.41,1.41,0,0,0-.29,0,1.71,1.71,0,0,0-1.76,1.65A2.26,2.26,0,0,0,51.84,197.17Z"/><path d="M64.64,200.4H62.72v-9.34h1.89l3.91,5.83v-5.83h1.92v9.34H68.56l-3.92-5.91Z"/><path d="M73.76,197.59a1.74,1.74,0,0,0,3.2.61l1.64.45a3.46,3.46,0,0,1-3.15,2,3.39,3.39,0,0,1-3.53-3.23v-.25A3.28,3.28,0,0,1,75,193.71a1.5,1.5,0,0,1,.3,0,3.37,3.37,0,0,1,3.52,3.23,1.71,1.71,0,0,1,0,.32v.35Zm3.25-1a1.57,1.57,0,0,0-1.65-1.38,1.54,1.54,0,0,0-1.6,1.38Z"/><path d="M85.68,193.92V198a2.21,2.21,0,0,1-.73,1.93,3.62,3.62,0,0,1-4.27,0A2.42,2.42,0,0,1,80,198v-4.1h1.78v4a1.1,1.1,0,0,0,1,1.21h.11a1,1,0,0,0,1-.95.91.91,0,0,0,0-.17v-4.1Z"/><path d="M91.81,198.9v1.5H86.5l2.72-5H86.76v-1.5H92l-2.71,5Z"/><path d="M94.36,197.59a1.73,1.73,0,0,0,3.19.61l1.64.45a3.44,3.44,0,0,1-3.15,2,3.39,3.39,0,0,1-3.53-3.23v-.25a3.3,3.3,0,0,1,3.13-3.46,1.41,1.41,0,0,1,.29,0A3.37,3.37,0,0,1,99.44,197a1.61,1.61,0,0,1,0,.31v.35Zm3.25-1a1.59,1.59,0,0,0-1.61-1.4,1.52,1.52,0,0,0-1.6,1.38Z"/><path d="M102.59,192.08a1,1,0,1,1-1-1A1,1,0,0,1,102.59,192.08Zm-.1,8.32h-1.78v-6.48h1.78Z"/><path d="M106.12,198.5c0,.31.11.39.5.42h.31v1.48h-1.41c-.87,0-1.19-.37-1.18-1.23v-3.78h-.74v-1.5h.74v-1.74h1.78v1.74h.81v1.5h-.81Z"/><path d="M121.66,195.16v.51a4.6,4.6,0,0,1-1.36,3.47,4.75,4.75,0,0,1-3.44,1.44,4.85,4.85,0,1,1,0-9.7,4.77,4.77,0,0,1,3.79,1.79l-1.45,1.14a2.78,2.78,0,0,0-2.29-1.17,3,3,0,0,0-2.89,3.1h0a3,3,0,0,0,2.9,3.1h0a2.65,2.65,0,0,0,2.66-2.12H117v-1.57Z"/><path d="M124.72,193.92v1a1.63,1.63,0,0,1,.58-.87,1.87,1.87,0,0,1,1-.31.74.74,0,0,1,.21,0v1.82h-.38a1.42,1.42,0,0,0-1.19.59,1.77,1.77,0,0,0-.27,1.19v3.12H123V194Z"/><path d="M134.25,197.22a3.45,3.45,0,0,1-3.49,3.41h-.06a3.47,3.47,0,1,1,0-6.94,3.41,3.41,0,0,1,3.55,3.26Zm-5.27-.05a1.74,1.74,0,0,0,3.47.26,1.13,1.13,0,0,0,0-.26,1.68,1.68,0,0,0-1.43-1.9,1.41,1.41,0,0,0-.29,0,1.71,1.71,0,0,0-1.74,1.68,1.85,1.85,0,0,0,0,.23Z"/><path d="M137.41,198.5c0,.31.11.39.5.42h.31v1.48h-1.41c-.87,0-1.19-.37-1.18-1.23v-3.78h-.74v-1.5h.74v-1.74h1.78v1.74h.81v1.5h-.81Z"/><path d="M140.88,197.59a1.73,1.73,0,0,0,3.19.61l1.64.45a3.44,3.44,0,0,1-3.15,2,3.39,3.39,0,0,1-3.53-3.23v-.25a3.3,3.3,0,0,1,3.13-3.46,1.41,1.41,0,0,1,.29,0A3.37,3.37,0,0,1,146,197a1.61,1.61,0,0,1,0,.31v.35Zm3.25-1a1.57,1.57,0,0,0-1.65-1.38,1.52,1.52,0,0,0-1.6,1.38Z"/><path d="M150,195.79v-.11c0-.39-.35-.67-.83-.67s-.71.24-.71.59a.56.56,0,0,0,.18.42c.2.15.21.15,1.11.43,1.45.45,2,1,2,2.08,0,1.26-1,2.1-2.52,2.1a2.24,2.24,0,0,1-2.55-2.13h1.71c.08.56.33.81.85.81a.65.65,0,0,0,.71-.57v-.05c0-.39-.25-.57-1.2-.86-1.4-.42-2-1-2-2.08s1-2.06,2.51-2.06a2.12,2.12,0,0,1,2.4,1.82,2.46,2.46,0,0,1,0,.28Z"/><path d="M154.89,200.4h-1.77v-9.34h1.77v5.35l1.81-2.49h2.06l-2.2,3.11,2.2,3.37H156.7l-1.81-2.69Z"/><path d="M160.51,202.25,159.3,202l.82-3.47,1.63.4Z"/><path d="M2.73,217.2H.81v-9.34H2.73Z"/><path d="M8.78,217.2v-9.34h1.78v9.34Z"/><path d="M14.2,208.88a1,1,0,1,1-1-1A1,1,0,0,1,14.2,208.88Zm-.1,8.32H12.32v-6.48H14.1Z"/><path d="M17.64,217.2H15.86v-9.34h1.78v5.35l1.81-2.49h2.06l-2.2,3.11,2.2,3.37H19.45l-1.81-2.69Z"/><path d="M23.67,214.39a1.74,1.74,0,0,0,3.2.61l1.64.45a3.46,3.46,0,0,1-3.16,2,3.39,3.39,0,0,1-3.53-3.23V214A3.3,3.3,0,0,1,25,210.51h.29a3.38,3.38,0,0,1,3.52,3.23v.62Zm3.25-1A1.57,1.57,0,0,0,25.27,212a1.54,1.54,0,0,0-1.6,1.38Z"/><path d="M36.09,215.3c0,.31.11.39.51.42h.3v1.48H35.49c-.87,0-1.19-.37-1.18-1.23v-3.78h-.74v-1.5h.74V209h1.78v1.74h.81v1.5h-.81Z"/><path d="M44.77,214a3.45,3.45,0,0,1-3.47,3.41h-.07A3.47,3.47,0,1,1,44.77,214Zm-5.26,0A1.75,1.75,0,0,0,43,214h0a1.69,1.69,0,0,0-1.47-1.89h-.25a1.71,1.71,0,0,0-1.78,1.64A2.35,2.35,0,0,0,39.51,214Z"/><path d="M52.07,217.2H50.29v-9.34h1.78v3.64a2.51,2.51,0,0,1,2.1-1,3.26,3.26,0,0,1,3.27,3.25,2.18,2.18,0,0,1,0,.25,3.17,3.17,0,0,1-2.87,3.43h-.31a2.44,2.44,0,0,1-2.18-1.07ZM52,214a1.76,1.76,0,0,0,3.5.37,2.29,2.29,0,0,0,0-.37,1.84,1.84,0,0,0-1.69-2h0A1.9,1.9,0,0,0,52,214Z"/><path d="M60.2,214.39a1.73,1.73,0,0,0,3.19.61l1.64.45a3.44,3.44,0,0,1-3.15,2,3.39,3.39,0,0,1-3.53-3.23V214a3.3,3.3,0,0,1,3.13-3.46h.29a3.37,3.37,0,0,1,3.51,3.24v.61Zm3.25-1A1.59,1.59,0,0,0,61.8,212a1.52,1.52,0,0,0-1.6,1.38Z"/><path d="M76.31,210.72v4.1a2.23,2.23,0,0,1-.72,1.93,3.63,3.63,0,0,1-4.28,0,2.41,2.41,0,0,1-.68-1.89v-4.1h1.78v4a1.08,1.08,0,0,0,1,1.21h.13a1,1,0,0,0,1.05-.94.48.48,0,0,0,0-.17v-4.1Z"/><path d="M80.72,212.59v-.11a.74.74,0,0,0-.78-.68h0c-.44,0-.72.24-.72.59a.51.51,0,0,0,.19.42c.19.15.2.15,1.1.43,1.46.45,2,1,2,2.08,0,1.26-1,2.1-2.52,2.1a2.24,2.24,0,0,1-2.55-2.13h1.71c.08.56.34.81.86.81a.65.65,0,0,0,.71-.57v0c0-.39-.25-.57-1.21-.86-1.4-.43-2-1-2-2.08,0-1.23,1-2.06,2.51-2.06a2.12,2.12,0,0,1,2.4,1.8c0,.1,0,.2,0,.3Z"/><path d="M85.24,214.39a1.74,1.74,0,0,0,3.2.61l1.64.45a3.46,3.46,0,0,1-3.15,2,3.39,3.39,0,0,1-3.53-3.23V214a3.28,3.28,0,0,1,3.11-3.46h.3a3.38,3.38,0,0,1,3.52,3.23v.62Zm3.25-1A1.57,1.57,0,0,0,86.84,212a1.54,1.54,0,0,0-1.6,1.38Z"/><path d="M96.57,207.86h1.78v9.34H96.57v-.85a2.38,2.38,0,0,1-2.17,1.08,3.15,3.15,0,0,1-3.22-3.06c0-.12,0-.24,0-.36a3.48,3.48,0,0,1,1-2.63,3.22,3.22,0,0,1,2.2-.9,2.71,2.71,0,0,1,2.14.94ZM93.08,214a1.77,1.77,0,1,0,1.77-2A1.84,1.84,0,0,0,93.08,214Z"/><path d="M110.94,214a3.45,3.45,0,0,1-3.49,3.41h-.06a3.47,3.47,0,0,1,0-6.94,3.41,3.41,0,0,1,3.55,3.26Zm-5.27,0a1.74,1.74,0,0,0,3.47.26,1.13,1.13,0,0,0,0-.26,1.68,1.68,0,0,0-1.44-1.89,1.34,1.34,0,0,0-.28,0,1.71,1.71,0,0,0-1.76,1.66A1.93,1.93,0,0,0,105.67,214Z"/><path d="M114,210.72v.8a1.83,1.83,0,0,1,1.76-1,2.32,2.32,0,0,1,1.6.61,2.5,2.5,0,0,1,.57,2v4.1h-1.77v-4a1.4,1.4,0,0,0-.16-.75,1,1,0,0,0-.85-.44A1.16,1.16,0,0,0,114,213.2s0,.08,0,.12v3.93h-1.78v-6.48Z"/><path d="M125.66,217.2h-1.78v-9.34h1.78v3.64a2.54,2.54,0,0,1,2.1-1,3.25,3.25,0,0,1,3.25,3.27,1.93,1.93,0,0,1,0,.24,3.17,3.17,0,0,1-2.87,3.43h-.31a2.49,2.49,0,0,1-2.19-1.07Zm0-3.19a1.77,1.77,0,1,0,3.51,0,1.86,1.86,0,0,0-1.69-2h0a1.89,1.89,0,0,0-1.81,2v0Z"/><path d="M137.93,210.72v4.1a2.21,2.21,0,0,1-.73,1.93,3.62,3.62,0,0,1-4.27,0,2.38,2.38,0,0,1-.69-1.89v-4.1H134v4A1.08,1.08,0,0,0,135,216h.13a1,1,0,0,0,1-.94.48.48,0,0,0,0-.17v-4.1Z"/><path d="M141.43,215.3c0,.31.11.39.5.42h.31v1.48h-1.42c-.86,0-1.19-.37-1.17-1.23v-3.78h-.75v-1.5h.75V209h1.78v1.74h.81v1.5h-.81Z"/><path d="M145.54,215.3c0,.31.11.39.5.42h.31v1.48h-1.41c-.87,0-1.19-.37-1.18-1.23v-3.78H143v-1.5h.74V209h1.78v1.74h.81v1.5h-.81Z"/><path d="M154.22,214a3.45,3.45,0,0,1-3.47,3.41h-.07a3.47,3.47,0,0,1,0-6.94,3.4,3.4,0,0,1,3.54,3.25ZM149,214a1.74,1.74,0,0,0,3.47.26,1.13,1.13,0,0,0,0-.26,1.69,1.69,0,0,0-1.47-1.89h-.25a1.71,1.71,0,0,0-1.76,1.66A1.93,1.93,0,0,0,149,214Z"/><path d="M157.32,210.72v.8a1.83,1.83,0,0,1,1.76-1,2.32,2.32,0,0,1,1.6.61,2.5,2.5,0,0,1,.57,2v4.1h-1.78v-4a1.39,1.39,0,0,0-.15-.75,1,1,0,0,0-.86-.44,1.15,1.15,0,0,0-1.15,1.15s0,.09,0,.13v3.93h-1.78v-6.48Z"/><path d="M165.74,212.59v-.11a.74.74,0,0,0-.78-.68h0c-.44,0-.72.24-.72.59a.56.56,0,0,0,.18.42c.2.15.21.15,1.11.43,1.46.45,2,1,2,2.08,0,1.26-1,2.1-2.52,2.1a2.24,2.24,0,0,1-2.55-2.13h1.71c.08.56.34.81.86.81a.65.65,0,0,0,.71-.57v0c0-.39-.25-.57-1.2-.86-1.41-.43-2-1-2-2.08,0-1.23,1-2.06,2.51-2.06a2.12,2.12,0,0,1,2.4,1.8c0,.1,0,.2,0,.3Z"/><path d="M5.69,227.52H7.46V234H5.69v-.89a2.72,2.72,0,0,1-2.26,1.12A3.15,3.15,0,0,1,.3,231.07a1.55,1.55,0,0,1,0-.22,3.31,3.31,0,0,1,3.06-3.54h.2a2.53,2.53,0,0,1,2.12,1Zm-3.48,3.29a1.84,1.84,0,0,0,1.67,2h0a1.93,1.93,0,0,0,1.79-2,1.8,1.8,0,0,0-1.57-2h-.2a1.81,1.81,0,0,0-1.74,1.88S2.21,230.77,2.21,230.81Z"/><path d="M11,227.52v.8a1.84,1.84,0,0,1,1.77-1,2.28,2.28,0,0,1,1.59.61,2.5,2.5,0,0,1,.58,2V234H13.15v-4a1.24,1.24,0,0,0-.16-.75,1,1,0,0,0-.85-.44A1.15,1.15,0,0,0,11,230v4H9.21v-6.48Z"/><path d="M21.62,224.66H23.4V234H21.62v-.85a2.4,2.4,0,0,1-2.17,1.08,3.15,3.15,0,0,1-3.22-3.06c0-.12,0-.24,0-.35a3.47,3.47,0,0,1,1-2.63,3.2,3.2,0,0,1,2.19-.9,2.73,2.73,0,0,1,2.15.94Zm-3.49,6.18a1.81,1.81,0,0,0,1.61,2h.14a2,2,0,1,0-1.73-2.24A1.94,1.94,0,0,0,18.13,230.84Z"/><path d="M36,230.82a3.45,3.45,0,0,1-3.47,3.41h-.07a3.47,3.47,0,0,1,0-6.94A3.4,3.4,0,0,1,36,230.54Zm-5.26,0a1.71,1.71,0,0,0,1.54,1.86h.19a1.72,1.72,0,0,0,1.74-1.72v-.13a1.69,1.69,0,0,0-1.47-1.89h-.25a1.71,1.71,0,0,0-1.78,1.64,1.93,1.93,0,0,0,0,.24Z"/><path d="M39.14,232.1c0,.31.12.39.51.42H40V234H38.54c-.87,0-1.19-.38-1.17-1.23V229h-.75v-1.5h.75v-1.74h1.77v1.74H40V229h-.82Z"/><path d="M43.09,228.22a2.18,2.18,0,0,1,1.78-.93,2.32,2.32,0,0,1,1.56.61,2.19,2.19,0,0,1,.57,1.83V234H45.22v-4c0-.73-.38-1.19-1-1.19a1.06,1.06,0,0,0-.79.32,1.2,1.2,0,0,0-.37,1V234H41.31v-9.34h1.78Z"/><path d="M50.15,231.19a1.73,1.73,0,0,0,3.19.61l1.64.45a3.44,3.44,0,0,1-3.15,2A3.39,3.39,0,0,1,48.3,231v-.25a3.3,3.3,0,0,1,3.13-3.46h.29a3.37,3.37,0,0,1,3.51,3.24,1.61,1.61,0,0,1,0,.31v.35Zm3.25-1a1.58,1.58,0,0,0-1.66-1.37,1.52,1.52,0,0,0-1.59,1.37Z"/><path d="M58.28,227.52v1a1.54,1.54,0,0,1,.58-.87,1.79,1.79,0,0,1,1-.31h.21v1.82h-.38a1.42,1.42,0,0,0-1.19.59,1.77,1.77,0,0,0-.27,1.19V234H56.5v-6.48Z"/><path d="M67.14,228.22a2.18,2.18,0,0,1,1.78-.93,2.32,2.32,0,0,1,1.56.61,2.19,2.19,0,0,1,.57,1.83V234H69.27v-4c0-.73-.38-1.19-1-1.19a1.09,1.09,0,0,0-.8.32,1.2,1.2,0,0,0-.37,1V234H65.36v-9.34h1.78Z"/><path d="M74.2,231.19a1.73,1.73,0,0,0,3.19.61l1.64.45a3.44,3.44,0,0,1-3.15,2A3.39,3.39,0,0,1,72.35,231v-.25a3.3,3.3,0,0,1,3.13-3.46h.29a3.37,3.37,0,0,1,3.51,3.24,1.61,1.61,0,0,1,0,.31v.35Zm3.25-1a1.58,1.58,0,0,0-1.65-1.37,1.53,1.53,0,0,0-1.6,1.37Z"/><path d="M85.53,227.52h1.78V234H85.53v-.89a2.72,2.72,0,0,1-2.26,1.12,3.15,3.15,0,0,1-3.13-3.17,1.55,1.55,0,0,1,0-.22,3.31,3.31,0,0,1,3.06-3.54h.2a2.53,2.53,0,0,1,2.12,1Zm-3.48,3.29a1.82,1.82,0,0,0,1.65,2h.06a1.93,1.93,0,0,0,1.79-2,1.8,1.8,0,0,0-1.57-2h-.2A1.81,1.81,0,0,0,82,230.69s0,.08,0,.12Z"/><path d="M94,224.66h1.8V234H94v-.85a2.4,2.4,0,0,1-2.18,1.08,3.15,3.15,0,0,1-3.21-3.07c0-.11,0-.23,0-.34a3.48,3.48,0,0,1,1-2.63,3.22,3.22,0,0,1,2.2-.9,2.73,2.73,0,0,1,2.15.94Zm-3.49,6.18a1.81,1.81,0,0,0,1.61,2h.14a2,2,0,1,0-1.73-2.24A1.94,1.94,0,0,0,90.51,230.84Z"/><path d="M99.43,225.68a1,1,0,1,1-1-1A1,1,0,0,1,99.43,225.68Zm-.1,8.32H97.55v-6.48h1.78Z"/><path d="M102.87,227.52v.8a1.84,1.84,0,0,1,1.77-1,2.28,2.28,0,0,1,1.59.61,2.5,2.5,0,0,1,.58,2V234H105v-4a1.24,1.24,0,0,0-.16-.75,1,1,0,0,0-.85-.44,1.16,1.16,0,0,0-1.16,1.16s0,.08,0,.12V234h-1.78v-6.48Z"/><path d="M113.33,227.52h1.75v6a3.39,3.39,0,0,1-.87,2.7,3.73,3.73,0,0,1-2.69,1,4.36,4.36,0,0,1-3.18-1.29l1.11-1.12a2.56,2.56,0,0,0,2,.9,1.73,1.73,0,0,0,1.88-1.56,2.16,2.16,0,0,0,0-.36v-.66a2.8,2.8,0,0,1-2.28,1.11A3.17,3.17,0,0,1,108,231c0-.06,0-.11,0-.17a3.21,3.21,0,0,1,2.88-3.51h.37a2.41,2.41,0,0,1,2.1,1Zm-3.46,3.21a1.76,1.76,0,0,0,1.6,1.9h.15a1.59,1.59,0,0,0,1.69-1.47,2.62,2.62,0,0,0,0-.28,2.06,2.06,0,0,0-.47-1.51,1.74,1.74,0,0,0-1.22-.5,1.71,1.71,0,0,0-1.74,1.69A.86.86,0,0,0,109.87,230.73Z"/><path d="M119.68,229.39v-.11a.74.74,0,0,0-.78-.68h0c-.44,0-.72.24-.72.59a.51.51,0,0,0,.19.42c.19.15.21.15,1.1.43,1.46.45,2,1,2,2.08,0,1.26-1,2.1-2.52,2.1a2.24,2.24,0,0,1-2.55-2.13h1.71c.09.56.34.81.86.81a.65.65,0,0,0,.71-.57v-.05c0-.39-.25-.57-1.2-.86-1.4-.43-2-1.06-2-2.08,0-1.23,1-2.06,2.5-2.06a2.14,2.14,0,0,1,2.41,1.83,2.45,2.45,0,0,1,0,.27Z"/><path d="M124.85,233.18a1,1,0,1,1-1-1A1,1,0,0,1,124.85,233.18Z"/><path class="cls-1" d="M5,17.41H1.58V.74H5v7h6.32v-7h3.42V17.41H11.33V10.58H5Z"/><path class="cls-1" d="M22.36,7.63H28.2v2.8H22.36v4.18H28.2v2.8H18.93V.74H28.2V3.53H22.36Z"/><path class="cls-1" d="M41.33,14.58v2.83h-9V.74h3.42V14.58Z"/><path class="cls-1" d="M53.85,14.58v2.83h-9V.74h3.42V14.58Z"/><path class="cls-1" d="M70.93,3.21a8.52,8.52,0,0,1,2.12,6,8.61,8.61,0,0,1-17.22,0,8.7,8.7,0,0,1,15.1-6Zm-11.6,5.9a5.13,5.13,0,1,0,10.25.51c0-.14,0-.29,0-.44,0-3.22-2.15-5.6-5.1-5.6a5.21,5.21,0,0,0-5.16,5.26A2.44,2.44,0,0,0,59.33,9.11Z"/><path class="cls-1" d="M77.71,20.7l-2.15-.49L77,14l2.92.72Z"/><path class="cls-1" d="M96.45,17.41H93V.74h3.42Z"/><path class="cls-1" d="M112.85,14.53l-1,2.88h-3.62L114,.74h4.27L124,17.41h-3.8l-1-2.88Zm3.2-9.7-2.32,6.9h4.62Z"/><path class="cls-1" d="M130.4,17.41H127V.74h3.87l5,10.12,5-10.12h3.87V17.41h-3.42V7l-5.45,10.9L130.4,7Z"/><path class="cls-1" d="M5,47.41H1.58V30.74H5l7,10.39V30.74h3.42V47.41H12L5,36.86Z"/><path class="cls-1" d="M22.93,37.63h5.85v2.8H22.93v4.18h5.85v2.8H19.51V30.74h9.27v2.79H22.93Z"/><path class="cls-1" d="M36.05,40.51a4.43,4.43,0,0,0,.75,3,3.09,3.09,0,0,0,2.33,1,3,3,0,0,0,2.42-1.15,4.52,4.52,0,0,0,.65-3V30.74h3.45v9.64c0,2.45-.52,4.15-1.65,5.4a6.42,6.42,0,0,1-4.82,1.95,6.73,6.73,0,0,1-5-2.07c-1.07-1.2-1.5-2.7-1.5-5.28V30.74H36.1Z"/><path class="cls-1" d="M60.93,44.61v2.8H48.53l7.8-13.88H49.41V30.74H61.68L53.9,44.61Z"/><path class="cls-1" d="M68,37.63h5.85v2.8H68v4.18h5.85v2.8H64.58V30.74h9.27v2.79H68Z"/><path class="cls-1" d="M81.4,47.41H78V30.74h3.4Z"/><path class="cls-1" d="M91.85,47.41H88.43V33.53h-4V30.74H95.8v2.79h-4Z"/><path class="cls-1" d="M124,38.06V39a8.23,8.23,0,0,1-2.43,6.2,8.57,8.57,0,0,1-6.15,2.57,8.39,8.39,0,0,1-8.57-8.21v-.41a8.6,8.6,0,0,1,15.3-5.5l-2.58,2a5,5,0,0,0-4.1-2.07A5.26,5.26,0,0,0,110.31,39c0,.06,0,.12,0,.19a5.32,5.32,0,0,0,5.12,5.51h.11a4.94,4.94,0,0,0,3.7-1.65,4.87,4.87,0,0,0,1-2.1H115.6v-2.8Z"/><path class="cls-1" d="M131.13,47.41h-3.42V30.74h5.14c4.13,0,6.35,1.82,6.35,5.24a4.81,4.81,0,0,1-3.95,5l4.6,6.4H135.7l-4.57-6.63Zm1.55-8.63c1.95,0,3-1,3-2.62a2.48,2.48,0,0,0-2.34-2.61,1.88,1.88,0,0,0-.41,0h-1.85v5.22Z"/><path class="cls-1" d="M157.53,33.21a8.7,8.7,0,1,1-6.35-2.8A8.52,8.52,0,0,1,157.53,33.21Zm-11.6,5.9a5.13,5.13,0,1,0,10.25.51c0-.14,0-.29,0-.44,0-3.22-2.15-5.6-5.1-5.6a5.21,5.21,0,0,0-5.16,5.26A2.44,2.44,0,0,0,145.93,39.11Z"/><path class="cls-1" d="M168.9,47.41h-3.42V33.53h-4V30.74h11.34v2.79H168.9Z"/><path class="cls-1" d="M179.08,37.63h5.85v2.8h-5.85v4.18h5.85v2.8h-9.28V30.74h9.28v2.79h-5.85Z"/><path class="cls-1" d="M191.65,42.53v.23a2.09,2.09,0,0,0,2.15,2h.13a2,2,0,0,0,2.2-1.78h0a1.62,1.62,0,0,0-.68-1.32,6.51,6.51,0,0,0-2-.93c-3.65-1.3-5-2.67-5-5.22,0-3,2.22-5,5.5-5a5.2,5.2,0,0,1,5.6,4.78c0,.11,0,.21,0,.32h-3.45a2,2,0,0,0-1.86-2.13H194A1.8,1.8,0,0,0,192,35a.61.61,0,0,0,0,.14,1.76,1.76,0,0,0,1,1.58,12.92,12.92,0,0,0,2,.82,9.29,9.29,0,0,1,3.48,1.85,4.34,4.34,0,0,1,1.32,3.23c0,3.05-2.3,5.07-5.75,5.07s-5.65-2-5.62-5.2Z"/><path class="cls-1" d="M207,47.41h-3.42V30.74H207V38l4.73-7.24h4l-5.4,8,5.4,8.65h-4L207,40Z"/><path class="cls-1" d="M7,60.74c2,0,3.37.3,4.24,1a4.28,4.28,0,0,1,1.6,3.52,4,4,0,0,1-1.05,2.85,3.84,3.84,0,0,1-1.75,1,3.66,3.66,0,0,1,2,.9,3.92,3.92,0,0,1,1.2,3,4.36,4.36,0,0,1-1.73,3.65,6.36,6.36,0,0,1-3.72.8H1.58V60.74ZM5,67.81H6.38c2,0,3-.73,3-2.28a2,2,0,0,0-1-1.87,4.89,4.89,0,0,0-2.14-.33H5Zm0,7.07H6.68a3.58,3.58,0,0,0,2.22-.45,2.3,2.3,0,0,0-.17-3.67,4.15,4.15,0,0,0-2.3-.4H5Z"/><path class="cls-1" d="M31.45,63.21A8.7,8.7,0,1,1,25,60.41,8.68,8.68,0,0,1,31.45,63.21Zm-11.59,5.9a5.13,5.13,0,1,0,10.24.7q0-.32,0-.63c0-3.22-2.15-5.6-5.1-5.6a5.2,5.2,0,0,0-5.15,5.25A2.72,2.72,0,0,0,19.86,69.11Z"/><path class="cls-1" d="M46.53,74.58v2.83h-9V60.74H41V74.58Z"/><path class="cls-1" d="M50.05,60.74h4.73c2.7,0,4.52.55,6,1.84a8.11,8.11,0,0,1,2.62,6.3,8.76,8.76,0,0,1-2.65,6.6A8.46,8.46,0,0,1,55,77.41h-5Zm3.43,13.84h.65a5.52,5.52,0,0,0,3.92-1.15A5.71,5.71,0,0,0,59.93,69c0-3.32-2-5.47-5.2-5.47H53.48Z"/><path class="cls-2" d="M4.73,105.48a4.43,4.43,0,0,0,.75,3,3,3,0,0,0,2.32,1,3,3,0,0,0,2.43-1.15,4.53,4.53,0,0,0,.65-3V95.71h3.45v9.65c0,2.45-.53,4.15-1.65,5.4a6.45,6.45,0,0,1-4.83,2,6.68,6.68,0,0,1-5-2.08c-1.08-1.2-1.5-2.7-1.5-5.27v-9.7H4.73Z"/><path class="cls-2" d="M21.46,107.51v.22a2.08,2.08,0,0,0,2.13,2h.14a2,2,0,0,0,2.2-1.77,1.66,1.66,0,0,0-.68-1.33,6.49,6.49,0,0,0-2-.92c-3.65-1.3-4.95-2.67-4.95-5.22,0-3,2.23-5,5.5-5a5.2,5.2,0,0,1,5.6,4.78c0,.11,0,.21,0,.32H26a2,2,0,0,0-1.91-2.09h-.26a1.8,1.8,0,0,0-2,1.55,1.36,1.36,0,0,0,0,.2,1.76,1.76,0,0,0,1,1.58,12.78,12.78,0,0,0,1.95.82,9.29,9.29,0,0,1,3.48,1.85,4.33,4.33,0,0,1,1.32,3.22c0,3-2.3,5.08-5.75,5.08s-5.64-2-5.62-5.2Z"/><path class="cls-2" d="M36.23,102.61h5.85v2.8H36.23v4.17h5.85v2.8H32.81V95.71h9.27v2.8H36.23Z"/><path class="cls-2" d="M58.38,112.38H55V95.71h3.87l5,10.12,5-10.12h3.88v16.67h-3.5V102L63.8,112.88,58.38,102Z"/><path class="cls-2" d="M80.25,102.61H86.1v2.8H80.25v4.17H86.1v2.8H76.83V95.71H86.1v2.8H80.25Z"/><path class="cls-2" d="M102.4,102.61h5.85v2.8H102.4v7H99V95.71h9.27v2.8H102.4Z"/><path class="cls-2" d="M126.3,98.19a8.7,8.7,0,1,1-6.43-2.8A8.68,8.68,0,0,1,126.3,98.19Zm-11.6,5.89a5.13,5.13,0,0,0,10.25.52c0-.15,0-.29,0-.44,0-3.22-2.15-5.6-5.1-5.6a5.21,5.21,0,0,0-5.16,5.26A2.35,2.35,0,0,0,114.7,104.08Z"/><path class="cls-2" d="M135.8,112.38h-3.42V95.71h5.15c4.12,0,6.35,1.83,6.35,5.25a4.82,4.82,0,0,1-3.95,5l4.6,6.4h-4.15l-4.58-6.62Zm1.55-8.62c2,0,3.05-1,3.05-2.62a2.48,2.48,0,0,0-2.34-2.61,1.88,1.88,0,0,0-.41,0H135.8v5.22Z"/><path class="cls-2" d="M160.4,112.38H157V95.71h3.42v7h6.33v-7h3.42v16.67h-3.42v-6.82H160.4Z"/><path class="cls-2" d="M176,101.58v-3l6.25-3.25v17H179V100Z"/><path class="cls-2" d="M5,142.38H1.58V125.71H5l7,10.4v-10.4h3.42v16.67H12L5,131.83Z"/><path class="cls-2" d="M22.93,132.61h5.85v2.8H22.93v4.17h5.85v2.8H19.51V125.71h9.27v2.8H22.93Z"/><path class="cls-2" d="M36.05,135.48a4.41,4.41,0,0,0,.75,3.05,3.15,3.15,0,0,0,4.44.21,3.26,3.26,0,0,0,.31-.33,4.53,4.53,0,0,0,.65-3v-9.7h3.45v9.65c0,2.45-.52,4.15-1.65,5.4a6.42,6.42,0,0,1-4.82,2,6.68,6.68,0,0,1-5-2.08c-1.07-1.2-1.5-2.7-1.5-5.27v-9.65H36.1Z"/><path class="cls-2" d="M60.93,139.58v2.8H48.53l7.8-13.87H49.41v-2.8H61.68L53.9,139.58Z"/><path class="cls-2" d="M68,132.61h5.85v2.8H68v4.17h5.85v2.8H64.58V125.71h9.27v2.8H68Z"/><path class="cls-2" d="M81.4,142.38H78V125.71h3.4Z"/><path class="cls-2" d="M91.85,142.38H88.43V128.51h-4v-2.8H95.8v2.8h-4Z"/><path class="cls-2" d="M124,133v.89a8.21,8.21,0,0,1-2.43,6.2,8.51,8.51,0,0,1-6.15,2.58,8.66,8.66,0,1,1,0-17.32,8.45,8.45,0,0,1,6.75,3.2l-2.58,2a5,5,0,0,0-4.1-2.07,5.26,5.26,0,0,0-5.16,5.36c0,.06,0,.12,0,.18a5.32,5.32,0,0,0,5.13,5.52h.1a4.94,4.94,0,0,0,3.72-1.68,4.76,4.76,0,0,0,1-2.1h-4.65V133Z"/><path class="cls-2" d="M131.13,142.38h-3.42V125.71h5.14c4.13,0,6.35,1.83,6.35,5.25a4.81,4.81,0,0,1-3.95,5l4.6,6.4H135.7l-4.57-6.62Zm1.55-8.62c1.95,0,3-.95,3-2.62a2.48,2.48,0,0,0-2.34-2.61,1.88,1.88,0,0,0-.41,0h-1.85v5.22Z"/><path class="cls-2" d="M157.53,128.19a8.7,8.7,0,1,1-6.45-2.81A8.67,8.67,0,0,1,157.53,128.19Zm-11.6,5.89a5.13,5.13,0,0,0,10.25.52c0-.15,0-.29,0-.44,0-3.22-2.15-5.6-5.1-5.6a5.21,5.21,0,0,0-5.16,5.26,2.35,2.35,0,0,0,0,.26Z"/><path class="cls-2" d="M168.9,142.38h-3.42V128.51h-4v-2.8h11.34v2.8H168.9Z"/><path class="cls-2" d="M179.08,132.61h5.85v2.8h-5.85v4.17h5.85v2.8h-9.28V125.71h9.28v2.8h-5.85Z"/><path class="cls-2" d="M191.65,137.51v.22a2.08,2.08,0,0,0,2.2,2h.08a2,2,0,0,0,2.2-1.77,1.66,1.66,0,0,0-.68-1.33,6.49,6.49,0,0,0-2-.92c-3.65-1.3-5-2.67-5-5.22,0-3,2.22-5,5.5-5a5.2,5.2,0,0,1,5.6,4.78c0,.11,0,.21,0,.32h-3.45a2,2,0,0,0-1.91-2.08H194a1.8,1.8,0,0,0-2,1.61.61.61,0,0,0,0,.14,1.76,1.76,0,0,0,1,1.58,12.92,12.92,0,0,0,2,.82,9.29,9.29,0,0,1,3.48,1.85,4.33,4.33,0,0,1,1.32,3.22c0,3-2.3,5.08-5.75,5.08s-5.65-2-5.62-5.2Z"/><path class="cls-2" d="M207,142.38h-3.42V125.71H207V133l4.73-7.25h4l-5.4,8,5.4,8.64h-4L207,135Z"/><path class="cls-2" d="M7,155.71c2,0,3.37.3,4.24,1a4.29,4.29,0,0,1,1.6,3.53A4,4,0,0,1,11.75,163,3.84,3.84,0,0,1,10,164a3.72,3.72,0,0,1,2,.89,3.92,3.92,0,0,1,1.2,3,4.34,4.34,0,0,1-1.73,3.65,6.36,6.36,0,0,1-3.72.8H1.58V155.71Zm-2,7.08H6.38c2,0,3-.73,3-2.28a2,2,0,0,0-1-1.87,4.89,4.89,0,0,0-2.14-.33H5Zm0,7.07H6.68a3.58,3.58,0,0,0,2.22-.45,2,2,0,0,0,.83-1.78,2.06,2.06,0,0,0-1-1.9,4.15,4.15,0,0,0-2.3-.4H5Z"/><path class="cls-2" d="M31.45,158.19a8.7,8.7,0,1,1-6.43-2.8A8.68,8.68,0,0,1,31.45,158.19Zm-11.59,5.89a5.13,5.13,0,0,0,10.24.71q0-.31,0-.63c0-3.22-2.15-5.6-5.1-5.6a5.2,5.2,0,0,0-5.15,5.25,2.44,2.44,0,0,0,0,.27Z"/><path class="cls-2" d="M46.53,169.56v2.82h-9V155.71H41v13.85Z"/><path class="cls-2" d="M50.05,155.71h4.73c2.7,0,4.52.55,6,1.85a8.11,8.11,0,0,1,2.62,6.3,8.8,8.8,0,0,1-2.65,6.6A8.4,8.4,0,0,1,55,172.38h-5Zm3.43,13.85h.65a5.57,5.57,0,0,0,3.92-1.15,5.7,5.7,0,0,0,1.88-4.4c0-3.32-2-5.47-5.2-5.47H53.48Z"/><path d="M.57,251.84H3.29l-.08.31-.58.43v3.21H7.75V252.6l-.7-.49.12-.27H10l-.12.34-1.12.39v3.73c0,1.58,0,3.85.09,4l1.31.43-.13.34H7.12l.08-.34.53-.42v-4a16.18,16.18,0,0,1-1.84.08H2.63v3.81l.59.52L3.1,261H.29l.12-.33,1.07-.39c0-.36.08-2.45.08-4.16v-3.67L.43,252.1Z"/><path d="M11.21,255.16a8,8,0,0,1,1.67-.39v5.6l1,.41-.1.31H10.92l.1-.31.81-.41v-4.61l-.75-.35Zm1.24-3.25a1.63,1.63,0,0,1,.63.72v.11a2.78,2.78,0,0,1-.68.73h-.1a2.41,2.41,0,0,1-.63-.72v-.12a2.91,2.91,0,0,1,.7-.74Z"/><path d="M14.63,262.38a2.31,2.31,0,0,0,.88-1.6.83.83,0,0,0-.15-.48l-.52-.28v-.21l1-.61H16a1.22,1.22,0,0,1,.45,1.1,2.82,2.82,0,0,1-1.59,2.4Z"/><path d="M21.25,251.84h3.24l-.1.32-1,.38v3.73c0,2.34,0,3.85.07,4.1l1.31.39-.1.33H21l.08-.33,1.14-.39c.06-.24.08-1.76.08-4.1v-3.76l-1.13-.37Z"/><path d="M32.41,257.25c0-1.56-.64-1.86-1.44-1.86a1.72,1.72,0,0,0-.9.29,12,12,0,0,1-.14,1.33l-.17.06a4.32,4.32,0,0,1-.8-1.15,7.11,7.11,0,0,1,1.6-.93,2.9,2.9,0,0,1,1-.22,1.93,1.93,0,0,1,1.85,2s0,.08,0,.12V260a2.05,2.05,0,0,0,1.12.84l-.11.22a1.17,1.17,0,0,1-.55.13c-.94,0-1.23-.44-1.37-.82h0a2.62,2.62,0,0,1-1.73.84A1.66,1.66,0,0,1,29,259.71v0a1.25,1.25,0,0,1,.56-1.15,12.15,12.15,0,0,1,2.92-1Zm-1.23,3.29a1.7,1.7,0,0,0,1.08-.5.85.85,0,0,0,.14-.34V258a9.53,9.53,0,0,0-1.94.69.75.75,0,0,0-.5.77,1.13,1.13,0,0,0,1.13,1.13Z"/><path d="M36,255.82l-.76-.28.08-.28a6.46,6.46,0,0,1,1.66-.49l0,1.16h0a3.85,3.85,0,0,1,2.19-1.16A1.74,1.74,0,0,1,40.87,256a3.52,3.52,0,0,1,2.33-1.18,1.88,1.88,0,0,1,1.88,1.9,1.41,1.41,0,0,1,0,.2v3.35c0,.12.1.19.25.27l.78.3-.06.3h-2.7l.07-.31.63-.39c0-.54.07-1.49.05-3,0-.73-.08-1.82-1.37-1.82a2.69,2.69,0,0,0-1.74.86,9.26,9.26,0,0,1,0,1.18v2.78l.84.4-.08.3H39.27l.07-.33.65-.36v-3.16c0-.66-.1-1.71-1.4-1.71a2.77,2.77,0,0,0-1.62.88v4l.9.36-.1.33H35.09l.09-.33.75-.36v-2.77Z"/><path d="M49.94,251.84h2.57l-.09.31-.42.32c.25.74.72,1.87,2.92,7.3h0c.44-.87.88-1.79,1.7-3.61-.52-1.28-1.12-2.65-1.53-3.49a1.86,1.86,0,0,0-1.08-.52l.13-.31h2l.06.63a25.19,25.19,0,0,0,1,2.48h0a25.74,25.74,0,0,0,1.07-2.48v-.63h2l-.1.31a2.42,2.42,0,0,0-1.3.66c-.19.32-.55.92-1.46,2.81.11.28.66,1.57,1.75,4.07h0c.63-1.7,1.64-4.4,2.58-7.18l-.47-.36.12-.31h2.34l-.08.31a2.6,2.6,0,0,0-1.2.56c-.38.69-1.89,4.71-3.14,7.89a3.19,3.19,0,0,1-.52.74h-.09c-.27-.55-1.08-2.58-1.91-4.5h0c-.94,2-1.43,3-1.83,3.81a3.52,3.52,0,0,1-.53.69h-.09c-.39-.91-2.83-7-3.58-8.64a1.93,1.93,0,0,0-1.1-.55Z"/><path d="M66.88,257.25c0-1.56-.65-1.86-1.44-1.86a1.72,1.72,0,0,0-.9.29A12,12,0,0,1,64.4,257l-.17.06a3.66,3.66,0,0,1-.8-1.15A6.84,6.84,0,0,1,65,255a2.9,2.9,0,0,1,1-.22,1.93,1.93,0,0,1,1.85,2s0,.08,0,.12v3.13a2.05,2.05,0,0,0,1.12.84l-.11.22a1.17,1.17,0,0,1-.55.13c-.94,0-1.23-.44-1.37-.82h0a2.58,2.58,0,0,1-1.72.84,1.66,1.66,0,0,1-1.75-1.55v0a1.26,1.26,0,0,1,.54-1.17,11.93,11.93,0,0,1,2.91-1Zm-1.23,3.29a1.65,1.65,0,0,0,1.07-.5.74.74,0,0,0,.15-.34V258a9.45,9.45,0,0,0-1.93.69.75.75,0,0,0-.5.77,1.12,1.12,0,0,0,1.11,1.13Z"/><path d="M69.89,255.22a5,5,0,0,1,1.41-.45,6.25,6.25,0,0,1,.14,1.43h0a2.45,2.45,0,0,1,2-1.43,1,1,0,0,1,.66.21,6.33,6.33,0,0,1-.41,1.41l-.15.1a5.1,5.1,0,0,1-.48-.89.31.31,0,0,0-.21,0c-.45,0-1.09.58-1.39,1.35v3.5l1.43.39-.07.3H69.55l.06-.3.82-.4V255.9l-.72-.42Z"/><path d="M75.87,255.86l-.76-.32.08-.28a5.86,5.86,0,0,1,1.64-.49v1.12h0c1.15-.95,1.69-1.12,2.23-1.12,1.44,0,1.86,1.19,1.86,2.23v3.18a.26.26,0,0,0,.17.26l.87.34-.1.31H79.23l.1-.34.56-.39v-3.28c0-1.12-.65-1.57-1.38-1.57a2.68,2.68,0,0,0-1.7.87v4l.81.35-.1.33H74.89l.09-.31.77-.37c0-.23,0-1.49,0-3.3Z"/><path d="M88.89,258A3.09,3.09,0,0,1,86,261.24h-.23a3.06,3.06,0,0,1-3.08-3v-.13a3.24,3.24,0,0,1,3.12-3.33,3.06,3.06,0,0,1,3.06,3.08Zm-5,.07c0,1.34.73,2.77,2,2.77s1.8-1.47,1.8-2.71-.66-2.86-1.92-2.86-1.9,1.34-1.9,2.79Z"/><path d="M93.67,254.77a2.74,2.74,0,0,1,1.73.52,7.11,7.11,0,0,1-.48,1.41l-.21.1a11.84,11.84,0,0,1-.41-1.44,1.06,1.06,0,0,0-.58-.11,2.69,2.69,0,0,0,.11,5.37,1.27,1.27,0,0,0,.39-.12,6.19,6.19,0,0,1,1.16-.81l.09.16a3,3,0,0,1-.89,1.18,4.86,4.86,0,0,1-1.31.22,3,3,0,0,1-3.14-2.85,1.71,1.71,0,0,1,0-.32,3.33,3.33,0,0,1,3.34-3.32Z"/><path d="M99.12,260.79l-.07.3h-3l.09-.3.82-.4V257.7c0-1.95,0-3.79-.06-5.55l-.77-.38.13-.25a12.79,12.79,0,0,1,1.72-.45v9.32Zm3.36.52a2.76,2.76,0,0,1-1.73-.69,26.5,26.5,0,0,1-2.44-2.75v-.09c.65-.71,1.42-1.6,2-2.32l.25-.69a12.18,12.18,0,0,1,1.81.17l-.18.29c-.2.11-1.11.39-1.4.53-.55.54-.72.72-1.5,1.6h0c.85,1.09,2.6,3,3.32,3.82Z"/><path d="M106.64,252a23.32,23.32,0,0,1,2.77-.22,4.42,4.42,0,0,1,2.54.59,2.46,2.46,0,0,1,1.12,2.14,2.84,2.84,0,0,1-2.81,2.87h-.14a2,2,0,0,1-.54-.05l-.14-.34a2.31,2.31,0,0,0,2.45-2.14v-.27c0-1.82-1.37-2.37-3.19-2.28v3.79c0,3.36.08,4,.08,4.27l1.51.42-.12.33h-3.58l.07-.31,1-.42c.09-1.41.11-2.82.06-4.22v-3.61l-1.13-.24Z"/><path d="M114.38,255.22a5,5,0,0,1,1.41-.45,6.25,6.25,0,0,1,.14,1.43h0a2.45,2.45,0,0,1,2-1.43,1,1,0,0,1,.66.21,6.33,6.33,0,0,1-.41,1.41l-.15.1a5.1,5.1,0,0,1-.48-.89.31.31,0,0,0-.21,0c-.45,0-1.09.58-1.38,1.35v3.5l1.42.39-.07.3H114l.07-.3.81-.4c0-1.47.06-3.79.06-4.49l-.73-.42Z"/><path d="M125.47,258a3.09,3.09,0,0,1-6.18.15,3.24,3.24,0,0,1,3.13-3.33,3.05,3.05,0,0,1,3,3.07Zm-5,.07c0,1.34.72,2.77,2,2.77s1.8-1.47,1.8-2.71-.66-2.86-1.91-2.86-1.9,1.34-1.9,2.79Z"/><path d="M.52,268.64H3.74l-.11.32-1,.4V273c0,2.23,0,4,.06,4.19l3.14.18c.33-.5.92-1.41,1.23-1.78h.28a18.81,18.81,0,0,1-.46,2.33c-.49,0-1.75-.06-4.74-.06H.25l.1-.31,1.18-.39c0-.2.05-1.94.05-4.14v-3.69l-1.17-.41Z"/><path d="M8.4,272a8,8,0,0,1,1.67-.39v5.6l1,.41-.09.31H8.12l.1-.31.81-.41v-4.61l-.76-.35Zm1.23-3.25a1.57,1.57,0,0,1,.63.72v.11a2.59,2.59,0,0,1-.67.73h-.1a2.41,2.41,0,0,1-.63-.72v-.12a2.91,2.91,0,0,1,.7-.74Z"/><path d="M16.29,272.38h0a2,2,0,0,1,.5,1.42,2.24,2.24,0,0,1-2.3,2.17h-.1a2.54,2.54,0,0,1-1.08-.24,1.41,1.41,0,0,0-.44.68.78.78,0,0,0,.67.63,14.45,14.45,0,0,1,2.79,0,1.47,1.47,0,0,1,.85.33,1.45,1.45,0,0,1,.52,1.15,2.53,2.53,0,0,1-1.09,1.92,4,4,0,0,1-2.51.9c-1.33,0-2.38-.7-2.38-1.7a.58.58,0,0,1,.15-.36l1.21-1.35h0a2.8,2.8,0,0,1-.53-.37,1.51,1.51,0,0,1-.52-.91c0-.16.49-.65,1-1a2,2,0,0,1-.93-1.73,2.36,2.36,0,0,1,2.45-2.29h.13a6.65,6.65,0,0,1,1,.11,9.67,9.67,0,0,0,1,.16l1.21-.49.05.12-.59.84Zm-2.79,5.7a2.72,2.72,0,0,0-.77,1.25c0,1,1,1.3,1.83,1.3,1.19,0,2.28-.53,2.28-1.68a.94.94,0,0,0-.74-.94,6,6,0,0,0-1.4-.1A3.26,3.26,0,0,0,13.5,278.08Zm-.42-4.31c0,.85.45,1.76,1.38,1.76s1.35-.74,1.35-1.79A1.54,1.54,0,0,0,14.48,272h0C13.54,272,13.08,272.86,13.08,273.77Z"/><path d="M24.28,276.89a.33.33,0,0,0,.26.38l.79.35-.1.29a13.34,13.34,0,0,1-2-.11c0-.59.12-1.5.12-3.56,0-1.69-1-1.93-1.61-1.93a2.33,2.33,0,0,0-1.51.56v4.33l1,.39-.11.3H18.31l.09-.3.76-.39v-8.29l-.8-.35.08-.27c.37-.11.9-.25,1.78-.45v4.54h0a3.05,3.05,0,0,1,2-.85,2,2,0,0,1,2.07,1.92v3.44Z"/><path d="M29.79,271.75l-.26.48-1.92.15v4a1,1,0,0,0,.25.69,1.09,1.09,0,0,0,.7.21A2,2,0,0,0,29.7,277h.07v.42a1.93,1.93,0,0,1-1.53.67,1.76,1.76,0,0,1-1.26-.56,2.16,2.16,0,0,1-.34-1.52v-3.59l-.95-.15.25-.48h.72a12.16,12.16,0,0,1,.28-1.58,1.23,1.23,0,0,1,.76-.45l-.06,2Z"/><path d="M30.69,279.18a2.31,2.31,0,0,0,.88-1.6.83.83,0,0,0-.15-.48l-.52-.28v-.21l1-.61h.18a1.22,1.22,0,0,1,.45,1.1,2.85,2.85,0,0,1-1.6,2.4Z"/><path d="M41,271.75l-.26.48-1.92.15v4a1,1,0,0,0,.25.69,1.09,1.09,0,0,0,.7.21,2,2,0,0,0,1.14-.32H41v.42a1.93,1.93,0,0,1-1.53.67,1.76,1.76,0,0,1-1.26-.56,2.16,2.16,0,0,1-.34-1.52v-3.59l-1-.15.25-.48h.72a12.16,12.16,0,0,1,.28-1.58,1.23,1.23,0,0,1,.76-.45l-.06,2Z"/><path d="M47.38,276.89a.33.33,0,0,0,.26.38l.79.35-.1.29a13.34,13.34,0,0,1-2-.11c.05-.59.12-1.5.12-3.56,0-1.69-1-1.93-1.61-1.93a2.33,2.33,0,0,0-1.51.56v4.33l1,.39-.11.3H41.41l.09-.3.76-.39v-8.29l-.8-.35.08-.27c.37-.11.9-.25,1.78-.45v4.54h0a3.05,3.05,0,0,1,2-.85,2,2,0,0,1,2.07,1.92v3.44Z"/><path d="M50.29,274.57a.74.74,0,0,0,0,.21,2.33,2.33,0,0,0,2.08,2.57l.23,0a1.75,1.75,0,0,0,.51-.08c.46-.31.83-.57,1.12-.72l.07.22a3.14,3.14,0,0,1-.73.93,4.68,4.68,0,0,1-1.47.33,2.84,2.84,0,0,1-2.89-2.79c0-.1,0-.21,0-.31a3.17,3.17,0,0,1,3-3.38h0a2.22,2.22,0,0,1,2.29,2.16,1.47,1.47,0,0,1,0,.21c0,.17,0,.39-.14.44a3.91,3.91,0,0,1-1.27.19Zm3-.49a1.1,1.1,0,0,0,.07-.44A1.46,1.46,0,0,0,52.11,272h-.06c-1.27,0-1.73,1.49-1.75,2.05Z"/><path d="M62.3,271.57a2.71,2.71,0,0,1,1.72.52,7.08,7.08,0,0,1-.47,1.41l-.21.1a10.28,10.28,0,0,1-.41-1.44,1.09,1.09,0,0,0-.59-.11,2.48,2.48,0,0,0-2.49,2.47,1.7,1.7,0,0,0,0,.22,2.51,2.51,0,0,0,2.33,2.67h.27a1.27,1.27,0,0,0,.39-.12,5.49,5.49,0,0,1,1.16-.81l.08.16a3,3,0,0,1-.88,1.18,5.36,5.36,0,0,1-1.32.22,3,3,0,0,1-3.13-2.86,1.71,1.71,0,0,1,0-.32,3.32,3.32,0,0,1,3.33-3.31Z"/><path d="M71.05,274.75A3.09,3.09,0,0,1,68.13,278H68a3.06,3.06,0,0,1-3.08-3v-.13A3.23,3.23,0,0,1,68,271.57a3.05,3.05,0,0,1,3,3.07Zm-5,.07c0,1.34.73,2.77,2,2.77s1.81-1.47,1.81-2.72S69.22,272,68,272s-2,1.35-2,2.81Z"/><path d="M73,272.62l-.76-.28.08-.28a6.46,6.46,0,0,1,1.66-.49l-.07,1.16h0a3.8,3.8,0,0,1,2.18-1.16,1.74,1.74,0,0,1,1.68,1.18,3.52,3.52,0,0,1,2.33-1.18,1.88,1.88,0,0,1,1.88,1.9,1.41,1.41,0,0,1,0,.2V277c0,.12.1.19.26.27l.77.3-.06.3h-2.7l.07-.31.63-.39c0-.54.07-1.49,0-3,0-.73-.08-1.82-1.37-1.82a2.69,2.69,0,0,0-1.74.86,9.47,9.47,0,0,1,.17,1.19v2.78l.83.4-.08.3H76.26l.07-.33.66-.36V274c0-.66-.09-1.71-1.4-1.71a2.77,2.77,0,0,0-1.62.88v4l.9.36-.1.33H72.1l.08-.33.76-.36v-2.77Z"/><path d="M85.27,272.47h0a4,4,0,0,1,2-.91A2.8,2.8,0,0,1,90,274.45a.37.37,0,0,0,0,.11,3.47,3.47,0,0,1-3.4,3.5,3.11,3.11,0,0,1-1.18-.43h0c0,1.1,0,2,.06,2.76l1.32.4-.14.3H83.45l.13-.33.71-.32c0-.54.07-1.87.07-3.91v-3.95l-.78-.41.14-.25a6.42,6.42,0,0,1,1.61-.39Zm.06,4.63a2.45,2.45,0,0,0,1.18.34,2.5,2.5,0,0,0,2.36-2.62.25.25,0,0,1,0-.08,2.2,2.2,0,0,0-2-2.43h0a2.62,2.62,0,0,0-1.48.6Z"/><path d="M93.77,277.56l-.14.33H90.76l.08-.3.9-.38v-4.9c0-1.26,0-2.73-.06-3.43l-.81-.31.15-.28a13.2,13.2,0,0,1,1.73-.42v9.34Z"/><path d="M94.7,272a7.86,7.86,0,0,1,1.66-.39v5.6l1,.41-.1.31H94.4l.1-.31.81-.41c0-.46,0-1.71,0-2.83v-1.78l-.76-.35Zm1.23-3.25a1.57,1.57,0,0,1,.63.72v.11a2.37,2.37,0,0,1-.68.73h-.09a2.41,2.41,0,0,1-.63-.72v-.12a2.91,2.91,0,0,1,.7-.74Z"/><path d="M99,272.62l-.76-.28.09-.28a6.39,6.39,0,0,1,1.65-.49l-.07,1.16h0a3.86,3.86,0,0,1,2.18-1.16,1.77,1.77,0,0,1,1.69,1.18,3.49,3.49,0,0,1,2.32-1.18,1.89,1.89,0,0,1,1.89,1.89,1.48,1.48,0,0,1,0,.21V277c0,.12.1.19.25.27l.77.3-.06.3h-2.7l.07-.31.63-.39c0-.54.07-1.49.06-3,0-.73-.09-1.82-1.38-1.82a2.69,2.69,0,0,0-1.73.86,9.87,9.87,0,0,1,.08,1.22v2.78l.84.4-.09.3h-2.49l.07-.33.66-.36v-3.16c0-.66-.1-1.71-1.4-1.71a2.8,2.8,0,0,0-1.63.88v4l.89.36-.1.33H98.05l.08-.33.76-.36v-2.77Z"/><path d="M110.92,274.57v.21a2.33,2.33,0,0,0,2.08,2.57l.23,0a1.42,1.42,0,0,0,.5-.08c.47-.31.83-.57,1.12-.72l.07.22a3.42,3.42,0,0,1-.72.93,5,5,0,0,1-1.48.33,2.86,2.86,0,0,1-2.89-2.81,2.71,2.71,0,0,1,0-.29,3.17,3.17,0,0,1,3-3.38h0a2.22,2.22,0,0,1,2.3,2.15,1.62,1.62,0,0,1,0,.22c0,.17,0,.39-.14.44a4.27,4.27,0,0,1-1.28.19Zm3-.49a1.31,1.31,0,0,0,.07-.44,1.46,1.46,0,0,0-1.3-1.61h0c-1.28,0-1.74,1.49-1.75,2.05Z"/><path d="M116.91,272.66l-.75-.32.08-.28a5.86,5.86,0,0,1,1.64-.49l-.06,1.12h0c1.15-.95,1.68-1.12,2.23-1.12,1.44,0,1.86,1.19,1.86,2.23V277a.26.26,0,0,0,.17.26l.87.34-.1.31h-2.63l.1-.34.56-.39v-3.28c0-1.12-.66-1.57-1.39-1.57a2.65,2.65,0,0,0-1.69.87v4l.81.35-.09.33h-2.64l.1-.31.77-.37v-3.3Z"/><path d="M127.46,271.75l-.27.48-1.92.15v4a1,1,0,0,0,.25.69,1.09,1.09,0,0,0,.7.21,2,2,0,0,0,1.14-.32h.07v.42a1.93,1.93,0,0,1-1.53.67,1.76,1.76,0,0,1-1.26-.56,2.2,2.2,0,0,1-.33-1.52v-3.59l-1-.15.26-.48h.71a14.12,14.12,0,0,1,.28-1.58,1.23,1.23,0,0,1,.76-.45l-.06,2Z"/><path d="M131.71,274c0-1.56-.64-1.86-1.44-1.86a1.72,1.72,0,0,0-.9.29,12,12,0,0,1-.14,1.33l-.17.06a3.93,3.93,0,0,1-.79-1.15,7,7,0,0,1,1.59-.93,3.15,3.15,0,0,1,1-.22,1.93,1.93,0,0,1,1.85,2s0,.08,0,.12v3.13a2.14,2.14,0,0,0,1.12.84l-.11.22a1.17,1.17,0,0,1-.55.13c-.94,0-1.23-.44-1.37-.82h0A2.55,2.55,0,0,1,130,278a1.66,1.66,0,0,1-1.75-1.55v0a1.25,1.25,0,0,1,.56-1.15,12.15,12.15,0,0,1,2.92-1Zm-1.23,3.29a1.7,1.7,0,0,0,1.08-.5.85.85,0,0,0,.14-.34v-1.75a9.53,9.53,0,0,0-1.94.69.75.75,0,0,0-.5.77,1.13,1.13,0,0,0,1.09,1.17h.13Z"/><path d="M134.72,272a5,5,0,0,1,1.41-.45,6.88,6.88,0,0,1,.15,1.43h0a2.45,2.45,0,0,1,2-1.43,1,1,0,0,1,.66.21,6.33,6.33,0,0,1-.41,1.41l-.15.1a5.1,5.1,0,0,1-.48-.89.31.31,0,0,0-.21-.05c-.44,0-1.09.58-1.38,1.35v3.5l1.43.39-.07.3h-3.28l.07-.3.81-.4c0-1.47.06-3.79.06-4.49l-.73-.42Z"/><path d="M144,271.72h2.13L146,272a1.88,1.88,0,0,0-.87.6c-.56,1.22-1.57,3.78-3,7.13-.1.42-.21,1-.33,1.51a1,1,0,0,1-.34.06,1.38,1.38,0,0,1-.92-.4,18.8,18.8,0,0,1,1.14-1.55c.2-.39.56-1.15.79-1.68-.13-.24-1.37-3.73-1.93-5.06-.21-.31-.4-.43-1-.61l.12-.33h2.47l-.1.34-.48.34c.14.46.6,1.75,1.43,4h0c.62-1.56,1.23-3.2,1.5-4l-.67-.34Z"/><path d="M153.65,271.75l-.27.48-1.92.15v4a1,1,0,0,0,.26.69,1.09,1.09,0,0,0,.7.21,2.06,2.06,0,0,0,1.13-.32h.07v.42a1.93,1.93,0,0,1-1.52.67,1.76,1.76,0,0,1-1.26-.56,2.16,2.16,0,0,1-.34-1.52v-3.59l-.95-.15.25-.48h.71a14.12,14.12,0,0,1,.28-1.58,1.23,1.23,0,0,1,.76-.45l-.06,2Z"/><path d="M155.36,274.57a.74.74,0,0,0,0,.21,2.33,2.33,0,0,0,2.08,2.57l.23,0a1.75,1.75,0,0,0,.51-.08,11.86,11.86,0,0,1,1.12-.72l.07.22a3.45,3.45,0,0,1-.73.93,4.68,4.68,0,0,1-1.47.33,2.86,2.86,0,0,1-2.9-2.8c0-.1,0-.2,0-.3a3.18,3.18,0,0,1,3-3.38h0a2.22,2.22,0,0,1,2.3,2.15,1.62,1.62,0,0,1,0,.22c0,.17,0,.39-.14.44a3.91,3.91,0,0,1-1.27.19Zm3-.49a1.31,1.31,0,0,0,.07-.44,1.46,1.46,0,0,0-1.3-1.61h0c-1.27,0-1.74,1.49-1.75,2.05Z"/><path d="M163.32,273.92h0a14.66,14.66,0,0,0,.81-1.44,1.58,1.58,0,0,0,.12-.74h2.06l-.1.32a4.39,4.39,0,0,0-1.43.6c-.35.46-.63.83-1.22,1.71.43.8,1.2,2.09,1.46,2.47a1.06,1.06,0,0,0,.47.39l1.07.32-.13.32c-.42,0-1.48.07-2,.07-.35-.67-.59-1.15-1.46-2.63h0c-.64,1.08-.81,1.36-1.08,1.88a1.6,1.6,0,0,0,.38.4l-.09.3H160l.07-.31.77-.34a1.19,1.19,0,0,0,.56-.45c.41-.56.68-.89,1.38-2-.85-1.49-1.15-2-1.36-2.3a4.12,4.12,0,0,0-1.22-.47l.12-.31h2.16l-.08.54Z"/><path d="M170.93,271.75l-.27.48-1.92.15v4a1,1,0,0,0,.25.69,1.09,1.09,0,0,0,.7.21,2,2,0,0,0,1.14-.32h.07v.42a1.93,1.93,0,0,1-1.53.67,1.76,1.76,0,0,1-1.26-.56c-.24-.32-.33-.61-.33-1.52v-3.59l-1-.15.26-.48h.71a14.12,14.12,0,0,1,.28-1.58,1.23,1.23,0,0,1,.76-.45l-.06,2Z"/><path d="M173,276.35a2.3,2.3,0,0,1,.74.81v.13a2.36,2.36,0,0,1-.76.78h-.1a2.53,2.53,0,0,1-.74-.79v-.14a2.82,2.82,0,0,1,.76-.78Z"/><path d="M.15,285.44H2.73l-.1.31-.42.32c.25.74.73,1.87,2.93,7.3h0c.43-.87.88-1.79,1.69-3.61-.51-1.28-1.12-2.65-1.52-3.49a1.86,1.86,0,0,0-1.08-.52l.12-.31h2l.06.63a23,23,0,0,0,1,2.48h0c.6-1.34.8-1.69,1.07-2.48v-.63h2l-.09.31a2.45,2.45,0,0,0-1.31.66c-.18.32-.54.92-1.45,2.81.11.28.65,1.57,1.75,4.07h0c.63-1.7,1.63-4.4,2.57-7.18l-.46-.36.11-.31h2.34l-.07.31a2.6,2.6,0,0,0-1.2.56c-.38.69-1.89,4.71-3.14,7.89a4.12,4.12,0,0,1-.52.74h-.1c-.26-.55-1.08-2.58-1.9-4.5H7l-1.84,3.81a3,3,0,0,1-.53.69h.09c-.39-.91-2.83-7-3.59-8.64A2,2,0,0,0,0,285.75Z"/><path d="M14.13,288.76a7.86,7.86,0,0,1,1.66-.39V294l1,.41-.1.31H13.83l.1-.31.82-.41v-4.61L14,289Zm1.23-3.25a1.57,1.57,0,0,1,.63.72v.11a2.59,2.59,0,0,1-.67.73h-.1a2.41,2.41,0,0,1-.63-.72v-.12a2.78,2.78,0,0,1,.71-.74Z"/><path d="M21.45,288.55l-.27.48-1.91.15v4a1,1,0,0,0,.25.69,1.09,1.09,0,0,0,.7.21,2.06,2.06,0,0,0,1.13-.32h.07v.42a1.93,1.93,0,0,1-1.52.67,1.76,1.76,0,0,1-1.26-.56,2.16,2.16,0,0,1-.34-1.52v-3.59l-.95-.15.25-.48h.72a10.65,10.65,0,0,1,.27-1.58,1.23,1.23,0,0,1,.76-.45l-.05,2Z"/><path d="M27.84,293.69a.33.33,0,0,0,.26.38l.79.35-.1.29a12.75,12.75,0,0,1-2.05-.11,32.59,32.59,0,0,0,.13-3.56c0-1.69-.95-1.93-1.61-1.93a2.33,2.33,0,0,0-1.51.56V294l1,.39-.11.3H21.82l.1-.3.76-.39v-3.29c0-1.83,0-3.38-.06-5l-.8-.35.09-.27c.36-.11.89-.25,1.78-.45v4.54h0a3.05,3.05,0,0,1,2-.85,2.06,2.06,0,0,1,2.08,2v.05Z"/><path d="M33.81,289.42l-.76-.28.09-.28a6.39,6.39,0,0,1,1.65-.49l-.07,1.16h0a3.86,3.86,0,0,1,2.18-1.16,1.77,1.77,0,0,1,1.69,1.18,3.49,3.49,0,0,1,2.32-1.18,1.89,1.89,0,0,1,1.89,1.89,1.48,1.48,0,0,1,0,.21v3.35c0,.12.1.19.25.26l.77.31-.06.3h-2.7l.07-.31.63-.39c0-.54.07-1.49.06-3,0-.73-.09-1.82-1.38-1.82a2.69,2.69,0,0,0-1.73.86,9.87,9.87,0,0,1,.08,1.22V294l.84.4-.09.3H37l.07-.33.66-.36v-3.17c0-.65-.1-1.7-1.4-1.7a2.8,2.8,0,0,0-1.63.88v4l.9.36-.1.33H32.87l.08-.33.76-.36v-2.77Z"/><path d="M48.27,288.52H50.4l-.06.33a1.8,1.8,0,0,0-.86.6c-.56,1.22-1.57,3.78-3,7.13-.09.42-.21,1-.33,1.51a1,1,0,0,1-.34.06,1.38,1.38,0,0,1-.92-.4A18.8,18.8,0,0,1,46,296.2c.2-.39.57-1.15.79-1.68-.13-.24-1.37-3.73-1.93-5.06-.21-.31-.4-.43-1-.61l.12-.33h2.47l-.1.34-.48.34c.14.46.61,1.75,1.43,4h0c.62-1.56,1.23-3.2,1.5-4l-.67-.34Z"/><path d="M56.1,288.86l-.57.35c.2.69.61,1.91,1.33,4.05h0c.5-1.31,1-2.37,1.37-3.46l-.11-.8a3.18,3.18,0,0,1,.91-.48l.1.07v1c.34,1,.84,2.26,1.4,3.73h0c.51-1.53.84-2.61,1.28-4.12l-.79-.35.13-.34h2.2l-.07.34a1.67,1.67,0,0,0-.86.52c-.18.43-.92,2.55-1.76,5a6.15,6.15,0,0,1-.46.58h0c-.49-1.24-1-2.71-1.66-4.28h0c-.58,1.37-.86,2-1.53,3.68a4.27,4.27,0,0,1-.45.6h-.11c-.49-1.42-1.41-4.16-1.93-5.51-.18-.27-.37-.38-.9-.55l.13-.34h2.46Z"/><path d="M65,291.37v.21a2.33,2.33,0,0,0,2.08,2.57l.23,0a1.23,1.23,0,0,0,.5-.09c.46-.3.83-.56,1.12-.71l.07.22a3.14,3.14,0,0,1-.73.93,4.68,4.68,0,0,1-1.47.33A2.86,2.86,0,0,1,63.91,292c0-.1,0-.2,0-.3a3.17,3.17,0,0,1,3-3.37h0a2.22,2.22,0,0,1,2.3,2.15,1.62,1.62,0,0,1,0,.22c0,.17,0,.39-.15.44a3.91,3.91,0,0,1-1.27.19Zm3-.49a1.31,1.31,0,0,0,.07-.44,1.47,1.47,0,0,0-1.3-1.61h0c-1.27,0-1.73,1.49-1.75,2.05Z"/><path d="M75.94,293.66a2.44,2.44,0,0,0,1.09.84l-.1.24a1,1,0,0,1-.56.11A1.46,1.46,0,0,1,75,294h0a3.59,3.59,0,0,1-1.7.81,3,3,0,0,1-3-3v-.11a3.38,3.38,0,0,1,3.36-3.37,2.6,2.6,0,0,1,1.2.43h0v-3L74,285.4l.12-.25a8.13,8.13,0,0,1,1.81-.45v4.43Zm-1-4.35a2.24,2.24,0,0,0-1.15-.34,2.47,2.47,0,0,0-2.37,2.58h0a2.38,2.38,0,0,0,2.23,2.52h0a2.33,2.33,0,0,0,1.32-.47Z"/><path d="M82.18,289.18h0a2,2,0,0,1,.51,1.41,2.25,2.25,0,0,1-2.31,2.18h-.09a2.54,2.54,0,0,1-1.08-.24,1.32,1.32,0,0,0-.45.68.8.8,0,0,0,.68.63,14.35,14.35,0,0,1,2.78,0,1.53,1.53,0,0,1,.86.33,1.45,1.45,0,0,1,.52,1.15,2.54,2.54,0,0,1-1.1,1.92,4.07,4.07,0,0,1-2.5.9c-1.33,0-2.38-.7-2.38-1.7a.58.58,0,0,1,.15-.36l1.2-1.35h0a2.8,2.8,0,0,1-.53-.37,1.51,1.51,0,0,1-.52-.91c0-.16.49-.65,1-1.05a2,2,0,0,1-.93-1.73,2.36,2.36,0,0,1,2.45-2.29h.13a6.65,6.65,0,0,1,1,.11,9.27,9.27,0,0,0,1,.16l1.2-.49.06.12-.59.84Zm-2.79,5.7a2.8,2.8,0,0,0-.77,1.25c0,1,1,1.3,1.84,1.3,1.19,0,2.28-.53,2.28-1.68a.94.94,0,0,0-.74-.94,6,6,0,0,0-1.4-.1,3.32,3.32,0,0,0-1.21.17ZM79,290.57c0,.85.45,1.76,1.39,1.76s1.35-.74,1.35-1.79a1.55,1.55,0,0,0-1.36-1.72h0C79.44,288.82,79,289.66,79,290.57Z"/><path d="M85.39,291.37a.74.74,0,0,0,0,.21,2.33,2.33,0,0,0,2.08,2.57l.23,0a1.48,1.48,0,0,0,.51-.09c.46-.3.82-.56,1.12-.71l.07.22a3.27,3.27,0,0,1-.73.93,4.68,4.68,0,0,1-1.47.33,2.86,2.86,0,0,1-2.9-2.8c0-.1,0-.21,0-.31a3.17,3.17,0,0,1,3-3.37h0a2.22,2.22,0,0,1,2.3,2.15,1.62,1.62,0,0,1,0,.22c0,.17,0,.39-.14.44a3.91,3.91,0,0,1-1.27.19Zm3-.49a1.31,1.31,0,0,0,.07-.44,1.46,1.46,0,0,0-1.3-1.61h0c-1.27,0-1.74,1.49-1.75,2.05Z"/><path d="M90.61,292l.45-.93h.71l2.69-.15V291l-.57.64Z"/><path d="M99,288.71a2.58,2.58,0,0,1,.68-.35l.11.11a8.28,8.28,0,0,1-.35,1.61l-.16.1c-.16-.28-.34-.75-.49-1.08a1.22,1.22,0,0,0-.82-.24,1,1,0,0,0-1.09.89.41.41,0,0,0,0,.11.8.8,0,0,0,.49.79c.35.22,1.2.56,1.66.79a1.6,1.6,0,0,1,1.08,1.47c0,1.46-1.53,1.9-2.37,1.9a3.93,3.93,0,0,1-2-.6,10.4,10.4,0,0,1,.32-1.47l.2-.1c.18.34.47,1.21.6,1.53a2.57,2.57,0,0,0,.87.15c.77,0,1.37-.46,1.37-1.07a.89.89,0,0,0-.58-.89c-.37-.19-.85-.42-1.4-.67a1.73,1.73,0,0,1-1.17-1.61,1.82,1.82,0,0,1,1.88-1.76h.12A1.81,1.81,0,0,1,99,288.71Z"/><path d="M106.88,293.69a.33.33,0,0,0,.26.38l.79.35-.1.29a13.34,13.34,0,0,1-2-.11c0-.59.12-1.5.12-3.56,0-1.69-1-1.93-1.61-1.93a2.33,2.33,0,0,0-1.51.56V294l1,.39-.11.3h-2.81l.09-.3.76-.39v-8.29l-.8-.35.08-.27c.37-.11.9-.25,1.78-.45v4.54h0a3.05,3.05,0,0,1,2-.85,2,2,0,0,1,2.08,2v.07Z"/><path d="M112.16,290.85c0-1.56-.65-1.86-1.45-1.86a1.68,1.68,0,0,0-.89.29,9.41,9.41,0,0,1-.14,1.33l-.17.06a3.66,3.66,0,0,1-.8-1.15,6.75,6.75,0,0,1,1.6-.93,2.9,2.9,0,0,1,1-.22,1.93,1.93,0,0,1,1.84,2c0,.05,0,.09,0,.13v3.13a2.14,2.14,0,0,0,1.12.84l-.11.22a1.13,1.13,0,0,1-.54.13c-.94,0-1.24-.44-1.38-.82h0a2.58,2.58,0,0,1-1.72.84,1.66,1.66,0,0,1-1.75-1.55v0a1.23,1.23,0,0,1,.56-1.15,11.93,11.93,0,0,1,2.91-1Zm-1.24,3.29a1.7,1.7,0,0,0,1.08-.5.64.64,0,0,0,.14-.34v-1.75a9.45,9.45,0,0,0-1.93.69.74.74,0,0,0-.51.77,1.13,1.13,0,0,0,1.13,1.13Z"/><path d="M116.44,289.27h0a4,4,0,0,1,1.94-.91,2.8,2.8,0,0,1,2.71,2.9v.1a3.48,3.48,0,0,1-3.41,3.5,3,3,0,0,1-1.17-.43h0v2.76l1.32.4-.14.3h-3.12l.12-.33.72-.32c0-.54.07-1.87.07-3.91v-3.95l-.79-.41.14-.25a6.42,6.42,0,0,1,1.61-.39Zm0,4.63a2.45,2.45,0,0,0,1.18.34,2.5,2.5,0,0,0,2.36-2.62.22.22,0,0,1,0-.08,2.2,2.2,0,0,0-2-2.43h0a2.62,2.62,0,0,0-1.49.6Z"/><path d="M123.46,291.37v.21a2.33,2.33,0,0,0,2.08,2.57l.23,0a1.48,1.48,0,0,0,.51-.09c.46-.3.82-.56,1.12-.71l.07.22a3.27,3.27,0,0,1-.73.93,5,5,0,0,1-1.47.33,2.86,2.86,0,0,1-2.9-2.8c0-.1,0-.21,0-.31a3.17,3.17,0,0,1,3-3.37h0a2.22,2.22,0,0,1,2.3,2.15,1.62,1.62,0,0,1,0,.22c0,.17,0,.39-.14.44a4,4,0,0,1-1.28.19Zm3-.49a1.31,1.31,0,0,0,.07-.44,1.46,1.46,0,0,0-1.3-1.61h0c-1.27,0-1.74,1.49-1.75,2.05Z"/><path d="M134.37,293.66a2.47,2.47,0,0,0,1.1.84l-.1.24a1,1,0,0,1-.56.11,1.47,1.47,0,0,1-1.33-.81h0a3.65,3.65,0,0,1-1.69.81,3,3,0,0,1-3-3v-.11a3.38,3.38,0,0,1,3.36-3.37,2.63,2.63,0,0,1,1.21.43h0v-3l-.87-.37.13-.25a8.13,8.13,0,0,1,1.81-.45v4.43Zm-1-4.35a2.12,2.12,0,0,0-1.15-.34,2.47,2.47,0,0,0-2.36,2.59,2.38,2.38,0,0,0,2.23,2.52h0a2.29,2.29,0,0,0,1.26-.47Z"/><path d="M142.77,288.71a2.49,2.49,0,0,1,.69-.35l.11.11a8.28,8.28,0,0,1-.35,1.61l-.17.1c-.15-.28-.33-.75-.49-1.08a1.13,1.13,0,0,0-.81-.24,1,1,0,0,0-1.1.88.49.49,0,0,0,0,.12.82.82,0,0,0,.49.79c.35.22,1.21.56,1.67.79a1.6,1.6,0,0,1,1.08,1.47c0,1.46-1.53,1.9-2.37,1.9a3.93,3.93,0,0,1-2-.6,10.4,10.4,0,0,1,.32-1.47l.19-.1c.19.34.48,1.21.61,1.53a2.55,2.55,0,0,0,.86.15c.77,0,1.38-.46,1.38-1.07a.89.89,0,0,0-.58-.89c-.38-.19-.85-.42-1.4-.67a1.7,1.7,0,0,1-1.17-1.61,1.82,1.82,0,0,1,1.88-1.76h.12A1.75,1.75,0,0,1,142.77,288.71Z"/><path d="M146.05,291.37a.74.74,0,0,0,0,.21,2.33,2.33,0,0,0,2.08,2.57l.23,0a1.48,1.48,0,0,0,.51-.09c.46-.3.83-.56,1.12-.71l.07.22a3.14,3.14,0,0,1-.73.93,4.68,4.68,0,0,1-1.47.33,2.84,2.84,0,0,1-2.89-2.79c0-.11,0-.22,0-.32a3.17,3.17,0,0,1,3-3.37h0a2.22,2.22,0,0,1,2.3,2.15,1.62,1.62,0,0,1,0,.22c0,.17,0,.39-.14.44a3.91,3.91,0,0,1-1.27.19Zm3-.49a1.1,1.1,0,0,0,.07-.44,1.45,1.45,0,0,0-1.28-1.61h-.05c-1.27,0-1.73,1.49-1.75,2.05Z"/><path d="M151.42,288.82a5.11,5.11,0,0,1,1.42-.45,7.62,7.62,0,0,1,.14,1.43h0a2.45,2.45,0,0,1,2-1.43.94.94,0,0,1,.66.21,6.46,6.46,0,0,1-.4,1.41l-.16.1a5,5,0,0,1-.47-.89.38.38,0,0,0-.21-.05c-.45,0-1.1.58-1.39,1.35V294l1.43.39-.07.3h-3.28l.07-.3.81-.4c.05-1.47.06-3.79.06-4.49l-.73-.42Z"/><path d="M156.7,288.76a8,8,0,0,1,1.67-.39V294l1,.41-.09.31h-2.86l.1-.31.81-.41v-4.61l-.76-.35Zm1.23-3.25a1.57,1.57,0,0,1,.63.72v.11a2.59,2.59,0,0,1-.67.73h-.1a2.7,2.7,0,0,1-.63-.72v-.12a2.91,2.91,0,0,1,.7-.74Z"/><path d="M160.07,294.42,161,294c0-.18.05-1.2.05-2.86v-1.94l-1-.23.24-.42H161a4.27,4.27,0,0,1,.91-3,2.36,2.36,0,0,1,1.83-.87,1.5,1.5,0,0,1,1,.3,6.7,6.7,0,0,1-.45,1.2l-.2.11a7.52,7.52,0,0,1-.5-1.08h-.15c-.77,0-1.25.79-1.35,2.17a9,9,0,0,1-.05,1.2h1.83l-.25.45-1.58.17V294l1.34.41-.1.31H160Z"/><path d="M167.5,288.71a2.58,2.58,0,0,1,.68-.35l.11.11a8.28,8.28,0,0,1-.35,1.61l-.16.1c-.16-.28-.34-.75-.49-1.08a1.22,1.22,0,0,0-.82-.24,1,1,0,0,0-1.1.89v.11a.8.8,0,0,0,.49.79c.35.22,1.2.56,1.66.79a1.6,1.6,0,0,1,1.08,1.47c0,1.46-1.52,1.9-2.36,1.9a4,4,0,0,1-2-.6,10.4,10.4,0,0,1,.32-1.47l.2-.1c.18.34.47,1.21.6,1.53a2.57,2.57,0,0,0,.87.15c.77,0,1.37-.46,1.37-1.07a.89.89,0,0,0-.57-.89l-1.4-.67a1.72,1.72,0,0,1-1.18-1.61,2,2,0,0,1,2.25-1.72,2.05,2.05,0,0,1,.82.31Z"/><path d="M.53,302.24H3.77l-.1.32-1,.38v3.73c0,2.34.05,3.85.07,4.1l1.31.39-.1.33H.32l.08-.33,1.14-.39c.05-.23.08-1.76.08-4.1v-3.76l-1.13-.37Z"/><path d="M11.78,305.17a2.71,2.71,0,0,1,1.72.52A7.11,7.11,0,0,1,13,307.1l-.21.1a10.24,10.24,0,0,1-.4-1.44,1.09,1.09,0,0,0-.59-.11,2.48,2.48,0,0,0-2.49,2.47,1.7,1.7,0,0,0,0,.22A2.52,2.52,0,0,0,11.7,311h.23a1.28,1.28,0,0,0,.39-.13,5.82,5.82,0,0,1,1.17-.81l.08.16a3,3,0,0,1-.88,1.18,4.94,4.94,0,0,1-1.32.23,3.06,3.06,0,0,1-3.14-3v-.2a3.33,3.33,0,0,1,3.36-3.3Z"/><path d="M14.81,305.62a5.11,5.11,0,0,1,1.42-.45,7.62,7.62,0,0,1,.14,1.43h0a2.46,2.46,0,0,1,2-1.43.94.94,0,0,1,.66.21,6.46,6.46,0,0,1-.4,1.41l-.16.1A5.71,5.71,0,0,1,18,306a.42.42,0,0,0-.22-.05c-.44,0-1.09.58-1.38,1.35v3.5l1.43.39-.07.3H14.48l.07-.3.81-.4c0-1.47.06-3.79.06-4.49l-.73-.42Z"/><path d="M20.82,308.17a.74.74,0,0,0,0,.21,2.34,2.34,0,0,0,2,2.61l.27,0a1.42,1.42,0,0,0,.5-.08c.46-.31.83-.56,1.12-.72l.07.23a3.09,3.09,0,0,1-.73.92,4.63,4.63,0,0,1-1.47.34,2.86,2.86,0,0,1-2.89-2.81c0-.1,0-.2,0-.3a3.17,3.17,0,0,1,2.95-3.38h.05A2.22,2.22,0,0,1,25,307.39v.15c0,.17,0,.39-.14.45a3.9,3.9,0,0,1-1.27.18Zm3-.49a1.1,1.1,0,0,0,.07-.44,1.45,1.45,0,0,0-1.28-1.61h-.05c-1.27,0-1.73,1.49-1.75,2.05Z"/><path d="M29.54,307.65c0-1.56-.64-1.86-1.44-1.86a1.72,1.72,0,0,0-.9.29,12,12,0,0,1-.14,1.33l-.17.06a3.93,3.93,0,0,1-.79-1.15,7,7,0,0,1,1.59-.93,3.15,3.15,0,0,1,1-.22,1.93,1.93,0,0,1,1.85,2s0,.08,0,.12v3.13a2.05,2.05,0,0,0,1.12.84l-.11.22a1.17,1.17,0,0,1-.55.13c-.94,0-1.23-.44-1.37-.81h0a2.62,2.62,0,0,1-1.73.84,1.66,1.66,0,0,1-1.75-1.57v0a1.25,1.25,0,0,1,.56-1.15,12.15,12.15,0,0,1,2.92-1Zm-1.23,3.29a1.7,1.7,0,0,0,1.08-.5.73.73,0,0,0,.14-.34v-1.75a9.53,9.53,0,0,0-1.94.69.75.75,0,0,0-.5.77,1.13,1.13,0,0,0,1.13,1.13Z"/><path d="M36,305.35l-.26.48-1.92.15v4a1,1,0,0,0,.25.69,1.09,1.09,0,0,0,.7.21,2,2,0,0,0,1.14-.32H36V311a2,2,0,0,1-1.53.68,1.78,1.78,0,0,1-1.26-.56,2.18,2.18,0,0,1-.34-1.53V306l-1-.15.25-.48h.72a12.16,12.16,0,0,1,.28-1.58,1.2,1.2,0,0,1,.75-.45v2Z"/><path d="M37.73,308.17v.21a2.34,2.34,0,0,0,2,2.61l.24,0a1.42,1.42,0,0,0,.5-.08c.46-.31.83-.56,1.12-.72l.07.23a3.09,3.09,0,0,1-.73.92,4.63,4.63,0,0,1-1.47.34,2.86,2.86,0,0,1-2.89-2.81c0-.1,0-.2,0-.3a3.17,3.17,0,0,1,3-3.38h0a2.21,2.21,0,0,1,2.29,2.14.89.89,0,0,1,0,.23c0,.17,0,.39-.14.45a3.9,3.9,0,0,1-1.27.18Zm3-.49a1.31,1.31,0,0,0,.07-.44,1.46,1.46,0,0,0-1.3-1.61h0c-1.28,0-1.74,1.49-1.76,2.05Z"/><path d="M53,307.65c0-1.56-.65-1.86-1.44-1.86a1.72,1.72,0,0,0-.9.29,9.41,9.41,0,0,1-.14,1.33l-.17.06a3.66,3.66,0,0,1-.8-1.15,7.11,7.11,0,0,1,1.6-.93,2.9,2.9,0,0,1,1-.22,1.93,1.93,0,0,1,1.84,2c0,.05,0,.09,0,.13v3.13a2.05,2.05,0,0,0,1.12.84l-.12.22a1.13,1.13,0,0,1-.54.13c-.94,0-1.23-.44-1.37-.81h0a2.6,2.6,0,0,1-1.72.84,1.66,1.66,0,0,1-1.75-1.57v0a1.23,1.23,0,0,1,.56-1.15,11.93,11.93,0,0,1,2.91-1Zm-1.23,3.29a1.65,1.65,0,0,0,1.07-.5.57.57,0,0,0,.14-.34v-1.75a9.45,9.45,0,0,0-1.93.69.77.77,0,0,0-.51.77,1.13,1.13,0,0,0,1.13,1.13h.1Z"/><path d="M59.92,306.26l-.76-.32.09-.28a5.86,5.86,0,0,1,1.64-.49l-.06,1.12h0c1.15-1,1.68-1.12,2.23-1.12,1.44,0,1.86,1.19,1.86,2.23v3.18a.26.26,0,0,0,.17.26l.87.34-.1.31H63.22l.1-.34.56-.39c0-.42.06-1.44.06-3.28,0-1.12-.66-1.57-1.39-1.57a2.65,2.65,0,0,0-1.69.87v4l.81.34-.1.33H58.94l.1-.31.77-.36v-3.31Z"/><path d="M66.91,305.56a7.86,7.86,0,0,1,1.66-.39v5.64l1,.41-.1.31H66.61l.1-.31.81-.41V306.2l-.76-.35Zm1.23-3.25a1.57,1.57,0,0,1,.63.72v.11a2.37,2.37,0,0,1-.68.73H68a2.45,2.45,0,0,1-.63-.73V303a2.91,2.91,0,0,1,.7-.74Z"/><path d="M73.94,305.17a2.71,2.71,0,0,1,1.72.52,7.11,7.11,0,0,1-.48,1.41l-.21.1a10.24,10.24,0,0,1-.4-1.44,1.09,1.09,0,0,0-.59-.11,2.48,2.48,0,0,0-2.49,2.47,1.7,1.7,0,0,0,0,.22A2.52,2.52,0,0,0,73.86,311h.23a1.28,1.28,0,0,0,.39-.13,6.19,6.19,0,0,1,1.16-.81l.09.16a3,3,0,0,1-.88,1.18,4.94,4.94,0,0,1-1.32.23,3.06,3.06,0,0,1-3.14-3v-.2a3.33,3.33,0,0,1,3.36-3.3Z"/><path d="M77.6,308.17v.21a2.34,2.34,0,0,0,2,2.61l.27,0a1.42,1.42,0,0,0,.5-.08c.47-.31.83-.56,1.12-.72l.07.23a3.37,3.37,0,0,1-.72.92,4.69,4.69,0,0,1-1.48.34,2.86,2.86,0,0,1-2.89-2.81c0-.1,0-.2,0-.3a3.17,3.17,0,0,1,2.95-3.38h.05a2.22,2.22,0,0,1,2.3,2.15,1.62,1.62,0,0,1,0,.22.67.67,0,0,1-.14.45,4,4,0,0,1-1.28.18Zm3-.49a1.31,1.31,0,0,0,.07-.44,1.46,1.46,0,0,0-1.3-1.61h0c-1.28,0-1.74,1.49-1.75,2.05Z"/><path d="M89.62,305.17a2.71,2.71,0,0,1,1.72.52,7.11,7.11,0,0,1-.48,1.41l-.21.1a10.24,10.24,0,0,1-.4-1.44,1.09,1.09,0,0,0-.59-.11,2.48,2.48,0,0,0-2.49,2.47,1.7,1.7,0,0,0,0,.22A2.51,2.51,0,0,0,89.52,311h.25a1.28,1.28,0,0,0,.39-.13,6.19,6.19,0,0,1,1.16-.81l.09.16a3,3,0,0,1-.88,1.18,4.94,4.94,0,0,1-1.32.23,3.06,3.06,0,0,1-3.14-3v-.2a3.33,3.33,0,0,1,3.36-3.3Z"/><path d="M98.37,308.35a3.09,3.09,0,0,1-2.88,3.3h-.22a3.06,3.06,0,0,1-3.08-3v-.12a3.24,3.24,0,0,1,3.12-3.33,3.06,3.06,0,0,1,3.06,3.08Zm-5,.07c0,1.34.73,2.77,2,2.77s1.81-1.47,1.81-2.71-.66-2.86-1.92-2.86-1.91,1.39-1.91,2.8Z"/><path d="M100.28,306.26l-.75-.32.08-.28a5.86,5.86,0,0,1,1.64-.49l-.06,1.12h0c1.15-1,1.68-1.12,2.23-1.12,1.44,0,1.86,1.19,1.86,2.23v3.18a.26.26,0,0,0,.17.26l.87.34-.1.31h-2.63l.09-.34.56-.39c0-.42.06-1.44.06-3.28,0-1.12-.66-1.57-1.39-1.57a2.65,2.65,0,0,0-1.69.87v4l.81.34-.1.33H99.3l.1-.31.77-.36v-3.31Z"/><path d="M110.83,305.35l-.27.48-1.92.15v4a1,1,0,0,0,.25.69,1.09,1.09,0,0,0,.7.21,2,2,0,0,0,1.14-.32h.07V311a1.91,1.91,0,0,1-1.53.68,1.78,1.78,0,0,1-1.26-.56,2.24,2.24,0,0,1-.33-1.53V306l-1-.15.26-.48h.71a14.12,14.12,0,0,1,.28-1.58,1.23,1.23,0,0,1,.76-.45l-.06,2Z"/><path d="M111.76,305.62a5.11,5.11,0,0,1,1.42-.45,7.62,7.62,0,0,1,.14,1.43h0a2.46,2.46,0,0,1,2-1.43.94.94,0,0,1,.66.21,6.46,6.46,0,0,1-.4,1.41l-.16.1A5.06,5.06,0,0,1,115,306a.38.38,0,0,0-.21-.05c-.45,0-1.1.58-1.39,1.35v3.5l1.43.39-.07.3h-3.28l.07-.3.81-.4c0-1.47.06-3.79.06-4.49l-.73-.42Z"/><path d="M120.25,307.65c0-1.56-.65-1.86-1.45-1.86a1.68,1.68,0,0,0-.89.29,9.41,9.41,0,0,1-.14,1.33l-.17.06a3.66,3.66,0,0,1-.8-1.15,7.11,7.11,0,0,1,1.6-.93,2.9,2.9,0,0,1,1-.22,1.93,1.93,0,0,1,1.84,2c0,.05,0,.09,0,.13v3.13a2.05,2.05,0,0,0,1.12.84l-.12.22a1.13,1.13,0,0,1-.54.13c-.94,0-1.23-.44-1.37-.81h0a2.6,2.6,0,0,1-1.72.84,1.66,1.66,0,0,1-1.75-1.57v0a1.23,1.23,0,0,1,.56-1.15,11.93,11.93,0,0,1,2.91-1ZM119,310.94a1.63,1.63,0,0,0,1.08-.5.57.57,0,0,0,.14-.34v-1.75a9.45,9.45,0,0,0-1.93.69.74.74,0,0,0-.51.77,1.13,1.13,0,0,0,1.13,1.13Z"/><path d="M126.42,305.51a2.49,2.49,0,0,1,.69-.35l.11.11a8.28,8.28,0,0,1-.35,1.61l-.17.1c-.15-.28-.33-.75-.49-1.08a1.13,1.13,0,0,0-.81-.24,1,1,0,0,0-1.1.88.49.49,0,0,0,0,.12.8.8,0,0,0,.49.79c.35.22,1.21.57,1.67.79a1.6,1.6,0,0,1,1.08,1.47c0,1.46-1.53,1.91-2.37,1.91a4,4,0,0,1-2-.61,12,12,0,0,1,.33-1.47l.19-.1c.18.34.48,1.21.6,1.53a2.57,2.57,0,0,0,.87.15c.77,0,1.38-.46,1.38-1.07a.89.89,0,0,0-.58-.89c-.38-.19-.85-.42-1.4-.67a1.72,1.72,0,0,1-1.18-1.61,2,2,0,0,1,2.25-1.72,2.05,2.05,0,0,1,.82.31Z"/><path d="M132.36,305.35l-.27.48-1.92.15v4a1,1,0,0,0,.25.69,1.09,1.09,0,0,0,.7.21,2,2,0,0,0,1.14-.32h.07V311a2,2,0,0,1-1.52.68,1.8,1.8,0,0,1-1.27-.56,2.3,2.3,0,0,1-.33-1.53V306l-1-.15.26-.48h.71a14.12,14.12,0,0,1,.28-1.58,1.23,1.23,0,0,1,.76-.45l-.06,2Z"/><path d="M138.4,305.66l-.57.35c.21.69.62,1.91,1.33,4.05h0c.51-1.3,1-2.37,1.38-3.46l-.12-.8a4,4,0,0,1,.91-.48l.1.07.06,1c.33,1,.84,2.26,1.4,3.73h0c.5-1.53.84-2.61,1.27-4.12l-.78-.35.12-.34h2.2l-.07.34a1.61,1.61,0,0,0-.85.52c-.18.43-.93,2.55-1.77,5a6.26,6.26,0,0,1-.46.59h-.11c-.49-1.25-1-2.72-1.67-4.29h0c-.57,1.37-.85,2-1.52,3.68a5.32,5.32,0,0,1-.45.61h-.11c-.49-1.43-1.42-4.16-1.94-5.52-.18-.27-.36-.38-.89-.55l.12-.34h2.47Z"/><path d="M146.54,305.56a7.86,7.86,0,0,1,1.66-.39v5.64l1,.41-.1.31h-2.85l.09-.31.82-.41V306.2l-.76-.35Zm1.23-3.25a1.57,1.57,0,0,1,.63.72v.11a2.59,2.59,0,0,1-.67.73h-.1a2.45,2.45,0,0,1-.63-.73V303a2.91,2.91,0,0,1,.7-.74Z"/><path d="M153.86,305.35l-.27.48-1.91.15v4a1,1,0,0,0,.25.69,1.09,1.09,0,0,0,.7.21,2.06,2.06,0,0,0,1.13-.32h.07V311a1.94,1.94,0,0,1-1.52.68,1.78,1.78,0,0,1-1.26-.56,2.18,2.18,0,0,1-.34-1.53V306l-1-.15.25-.48h.72a12.16,12.16,0,0,1,.28-1.58,1.18,1.18,0,0,1,.75-.45v2Z"/><path d="M160.25,310.49a.33.33,0,0,0,.26.38l.79.35-.1.3a16.65,16.65,0,0,1-2-.12,32.4,32.4,0,0,0,.13-3.55c0-1.7-1-1.94-1.61-1.94a2.33,2.33,0,0,0-1.51.56v4.33l1,.39-.11.3h-2.82l.1-.3.76-.39v-3.29c0-1.83,0-3.38-.06-5l-.8-.35.09-.27c.36-.11.9-.25,1.78-.45V306h0a3.05,3.05,0,0,1,2-.85,2.06,2.06,0,0,1,2.08,2v.05Z"/><path d="M4.22,322.15l-.27.48L2,322.78v4a1,1,0,0,0,.25.69,1.09,1.09,0,0,0,.7.21,2,2,0,0,0,1.14-.32h.07v.42a1.93,1.93,0,0,1-1.53.67,1.77,1.77,0,0,1-1.26-.55A2.19,2.19,0,0,1,1,326.37v-3.59l-1-.15.26-.48H1a14.12,14.12,0,0,1,.28-1.58,1.23,1.23,0,0,1,.76-.45l-.06,2Z"/><path d="M10.6,327.29c0,.24.07.3.27.38l.78.35-.1.3a16.65,16.65,0,0,1-2-.12c0-.58.12-1.5.12-3.55,0-1.7-1-1.94-1.61-1.94a2.33,2.33,0,0,0-1.51.56v4.33l1,.39-.12.3H4.62l.1-.3.75-.39v-8.29l-.8-.35.08-.27c.37-.11.9-.25,1.78-.45v4.54h0a3.05,3.05,0,0,1,2-.85,2,2,0,0,1,2.07,1.92v3.44Z"/><path d="M13.51,325v.21a2.33,2.33,0,0,0,2.08,2.57l.23,0a1.42,1.42,0,0,0,.5-.08c.47-.31.83-.57,1.12-.72l.07.23a3.37,3.37,0,0,1-.72.92,5,5,0,0,1-1.48.33,2.86,2.86,0,0,1-2.89-2.81,2.71,2.71,0,0,1,0-.29,3.17,3.17,0,0,1,3-3.38h0a2.22,2.22,0,0,1,2.3,2.15,1.62,1.62,0,0,1,0,.22c0,.17-.05.39-.15.45a3.9,3.9,0,0,1-1.27.18Zm3-.49a1.31,1.31,0,0,0,.07-.44,1.46,1.46,0,0,0-1.3-1.61h0c-1.28,0-1.74,1.49-1.75,2Z"/><path d="M25.52,322a2.74,2.74,0,0,1,1.73.52,7.11,7.11,0,0,1-.48,1.41l-.21.1a10.28,10.28,0,0,1-.41-1.44,1.06,1.06,0,0,0-.58-.11A2.48,2.48,0,0,0,23.08,325a1.7,1.7,0,0,0,0,.22,2.51,2.51,0,0,0,2.32,2.68h.27a1.28,1.28,0,0,0,.39-.13,6.19,6.19,0,0,1,1.16-.81l.09.16a3,3,0,0,1-.89,1.18,4.86,4.86,0,0,1-1.31.22A3,3,0,0,1,22,325.62a1.93,1.93,0,0,1,0-.34A3.34,3.34,0,0,1,25.38,322Z"/><path d="M30.9,328l-.14.33H27.89L28,328l.9-.37v-4.91c0-1.26,0-2.73-.06-3.43L28,319l.15-.28a12.69,12.69,0,0,1,1.72-.42v9.39Z"/><path d="M32.77,325v.21a2.33,2.33,0,0,0,2.08,2.57l.23,0a1.75,1.75,0,0,0,.51-.08A13.14,13.14,0,0,1,36.7,327l.07.23a3.41,3.41,0,0,1-.73.92,5,5,0,0,1-1.47.33,2.86,2.86,0,0,1-2.9-2.8c0-.1,0-.2,0-.3a3.17,3.17,0,0,1,3-3.38h0a2.22,2.22,0,0,1,2.3,2.15,1.62,1.62,0,0,1,0,.22c0,.17,0,.39-.14.45a4,4,0,0,1-1.28.18Zm3-.49a1.31,1.31,0,0,0,.07-.44,1.46,1.46,0,0,0-1.3-1.61h0c-1.28,0-1.74,1.49-1.75,2Z"/><path d="M41.5,324.45c0-1.56-.65-1.86-1.45-1.86a1.68,1.68,0,0,0-.89.29,9.41,9.41,0,0,1-.14,1.33l-.17.06a3.66,3.66,0,0,1-.8-1.15,7.11,7.11,0,0,1,1.6-.93,2.9,2.9,0,0,1,1-.22,1.93,1.93,0,0,1,1.84,2s0,.09,0,.13v3.13a2.05,2.05,0,0,0,1.12.84l-.11.22a1.17,1.17,0,0,1-.55.13c-.94,0-1.23-.44-1.37-.81h0a2.63,2.63,0,0,1-1.72.83A1.66,1.66,0,0,1,38,327c0-.05,0-.1,0-.15a1.23,1.23,0,0,1,.56-1.15,11.93,11.93,0,0,1,2.91-1Zm-1.23,3.29a1.65,1.65,0,0,0,1.07-.5.64.64,0,0,0,.14-.34v-1.75a9.45,9.45,0,0,0-1.93.69.74.74,0,0,0-.51.77,1.13,1.13,0,0,0,1.13,1.13Z"/><path d="M45.12,323.06l-.75-.32.08-.28a5.86,5.86,0,0,1,1.64-.49L46,323.09h0c1.15-.95,1.68-1.12,2.23-1.12,1.44,0,1.86,1.19,1.86,2.23v3.18a.26.26,0,0,0,.17.26l.87.34-.1.31H48.4l.09-.34.57-.39c0-.42,0-1.44,0-3.28,0-1.12-.66-1.57-1.39-1.57a2.65,2.65,0,0,0-1.69.87v4l.81.34-.09.33H44.11l.1-.31.77-.36v-3.31Z"/><path d="M58.75,324.45c0-1.56-.65-1.86-1.45-1.86a1.68,1.68,0,0,0-.89.29,9.41,9.41,0,0,1-.14,1.33l-.17.06a3.66,3.66,0,0,1-.8-1.15,6.75,6.75,0,0,1,1.6-.93,2.9,2.9,0,0,1,1-.22,1.93,1.93,0,0,1,1.84,2s0,.09,0,.13v3.13a2.05,2.05,0,0,0,1.12.84l-.11.22a1.13,1.13,0,0,1-.54.13c-.94,0-1.24-.44-1.38-.81h0a2.63,2.63,0,0,1-1.72.83,1.66,1.66,0,0,1-1.75-1.55v0a1.23,1.23,0,0,1,.56-1.15,11.93,11.93,0,0,1,2.91-1Zm-1.24,3.29a1.68,1.68,0,0,0,1.08-.5.64.64,0,0,0,.14-.34v-1.75a9.45,9.45,0,0,0-1.93.69.74.74,0,0,0-.51.77,1.13,1.13,0,0,0,1.13,1.13Z"/><path d="M62.37,323.06l-.76-.32.09-.28a5.86,5.86,0,0,1,1.64-.49l-.06,1.12h0c1.15-.95,1.68-1.12,2.23-1.12,1.44,0,1.86,1.19,1.86,2.23v3.18a.26.26,0,0,0,.17.26l.87.34-.1.31H65.68l.09-.34.56-.39c0-.42.06-1.44.06-3.28,0-1.12-.66-1.57-1.39-1.57a2.65,2.65,0,0,0-1.69.87v4l.81.34-.1.33H61.39l.1-.31.77-.36v-3.31Z"/><path d="M74.78,327.26a2.53,2.53,0,0,0,1.09.85l-.1.23a1,1,0,0,1-.56.11,1.47,1.47,0,0,1-1.33-.81h0a3.68,3.68,0,0,1-1.7.81,3,3,0,0,1-3-3v-.1a3.38,3.38,0,0,1,3.4-3.34,2.6,2.6,0,0,1,1.2.43h0v-3.05l-.86-.37.12-.25a8.13,8.13,0,0,1,1.81-.45v4.43Zm-1-4.35a2.24,2.24,0,0,0-1.15-.34,2.47,2.47,0,0,0-2.37,2.58h0a2.39,2.39,0,0,0,2.24,2.53h0a2.3,2.3,0,0,0,1.26-.48Z"/><path d="M80.5,322.94c0-1.29,0-2.48-.06-3.62l-.79-.33.11-.27a8.92,8.92,0,0,1,1.76-.45v4.34a5.19,5.19,0,0,1,1.65-.64,2.93,2.93,0,0,1,3,2.87V325a3.38,3.38,0,0,1-3.31,3.43h-.1A4.4,4.4,0,0,1,81.4,328a4.31,4.31,0,0,1-.83.42Zm1,4.68a3.81,3.81,0,0,0,1,.22A2.49,2.49,0,0,0,85,325.39a1.69,1.69,0,0,0,0-.23,2.31,2.31,0,0,0-2.15-2.46h-.13a2.41,2.41,0,0,0-1.25.35Z"/><path d="M93.54,325.15a3.09,3.09,0,0,1-2.87,3.29h-.23a3.06,3.06,0,0,1-3.08-3v-.13A3.23,3.23,0,0,1,90.48,322a3.06,3.06,0,0,1,3.06,3.08Zm-5,.07c0,1.34.73,2.77,2,2.77s1.81-1.47,1.81-2.71-.66-2.86-1.92-2.86-1.91,1.34-1.91,2.8Z"/><path d="M97.34,328l-.14.33H94.33l.09-.3.89-.37v-4.91c0-1.26,0-2.73-.06-3.43l-.81-.31.15-.28a13.2,13.2,0,0,1,1.73-.42v9.39Z"/><path d="M103.69,327.26a2.53,2.53,0,0,0,1.09.85l-.1.23a1,1,0,0,1-.56.11,1.47,1.47,0,0,1-1.33-.81h0a3.73,3.73,0,0,1-1.7.81,3,3,0,0,1-3-3v-.1a3.39,3.39,0,0,1,3.37-3.38,2.6,2.6,0,0,1,1.2.43h0v-3l-.87-.37.13-.25a8.13,8.13,0,0,1,1.81-.45v4.43Zm-1-4.35a2.24,2.24,0,0,0-1.15-.34,2.47,2.47,0,0,0-2.37,2.58h0a2.39,2.39,0,0,0,2.24,2.53h0a2.3,2.3,0,0,0,1.26-.48Z"/><path d="M111.92,328.29h-3.21l.07-.31,1.18-.48c0-.64.18-2.95.25-7.1-.55-.84-.62-.76-1.54-1l.11-.32,1.74-.07a4.43,4.43,0,0,0,.51.79c1.88,2.38,4,4.86,5.93,7h0c0-.65-.08-6-.1-6.94l-1.1-.46.14-.31H119l-.09.35-1.22.42c0,.65-.13,4.67-.16,7.26a13.88,13.88,0,0,1-.07,1.44l-.12.06c-1.24-.87-3.7-3.95-6.61-7.57h0c0,2.44,0,5.86.09,6.49L112,328Z"/><path d="M120.65,325v.21a2.33,2.33,0,0,0,2.08,2.57l.23,0a1.42,1.42,0,0,0,.5-.08c.47-.31.83-.57,1.12-.72l.07.23a3.37,3.37,0,0,1-.72.92,5,5,0,0,1-1.48.33,2.86,2.86,0,0,1-2.89-2.81,2.71,2.71,0,0,1,0-.29,3.17,3.17,0,0,1,3-3.38h0a2.22,2.22,0,0,1,2.3,2.15,1.62,1.62,0,0,1,0,.22.67.67,0,0,1-.14.45,4,4,0,0,1-1.28.18Zm3-.49a1.31,1.31,0,0,0,.07-.44,1.46,1.46,0,0,0-1.3-1.61h0c-1.28,0-1.74,1.49-1.75,2Z"/><path d="M125.75,322.54l.12-.28a9.87,9.87,0,0,1,1.71-.21c0,.59-.1,1.71-.1,4.18a1.49,1.49,0,0,0,.27,1,1.4,1.4,0,0,0,1.08.43,2,2,0,0,0,1.67-.92v-3.66c-.13-.24-.36-.33-.94-.54l.12-.27a8.11,8.11,0,0,1,1.84-.2v5.17a1.64,1.64,0,0,0,1.13.82l-.1.23a1.41,1.41,0,0,1-.7.16,1.24,1.24,0,0,1-1.29-1.08h0a2.89,2.89,0,0,1-2.06,1.1,2,2,0,0,1-1.4-.53,2.28,2.28,0,0,1-.55-1.75v-3.3Z"/><path d="M138.5,322.28c-.71,1.2-2.71,4.14-3.58,5.5h0c1.14,0,2.56-.07,2.68-.11.44-.64.74-1,.93-1.27l.2-.07a13.62,13.62,0,0,1-.31,2c-.68,0-1.61-.07-2.81-.07h-2.19v-.11c1.12-1.58,2.47-3.61,3.74-5.52h0c-.23,0-.81,0-2.51.07a12.63,12.63,0,0,1-.66,1.12h-.19a13.27,13.27,0,0,1-.09-1.78h0l1,.12h3.71Z"/><path d="M140.8,325a.74.74,0,0,0,0,.21,2.33,2.33,0,0,0,2.08,2.57l.23,0a1.75,1.75,0,0,0,.51-.08c.46-.31.83-.57,1.12-.72l.07.23a3.09,3.09,0,0,1-.73.92,4.68,4.68,0,0,1-1.47.33,2.84,2.84,0,0,1-2.89-2.79c0-.1,0-.21,0-.31a3.17,3.17,0,0,1,3-3.38h0a2.22,2.22,0,0,1,2.3,2.15,1.62,1.62,0,0,1,0,.22c0,.17,0,.39-.14.45a3.9,3.9,0,0,1-1.27.18Zm3-.49a1.1,1.1,0,0,0,.07-.44,1.46,1.46,0,0,0-1.3-1.61h0c-1.27,0-1.73,1.49-1.75,2Z"/><path d="M146.09,322.36a8,8,0,0,1,1.67-.39v5.6l1,.41-.1.31h-2.85l.09-.31.82-.41V323l-.76-.35Zm1.23-3.25a1.57,1.57,0,0,1,.63.72v.11a2.59,2.59,0,0,1-.67.73h-.1a2.45,2.45,0,0,1-.63-.73v-.12a2.91,2.91,0,0,1,.7-.74Z"/><path d="M153.41,322.15l-.26.48-1.92.15v4a1,1,0,0,0,.25.69,1.09,1.09,0,0,0,.7.21,2.06,2.06,0,0,0,1.13-.32h.07v.42a1.93,1.93,0,0,1-1.53.67,1.77,1.77,0,0,1-1.26-.55,2.18,2.18,0,0,1-.34-1.53v-3.59l-.95-.15.25-.48h.72a12.16,12.16,0,0,1,.28-1.58,1.2,1.2,0,0,1,.75-.45l-.05,2Z"/><path d="M162.65,323.8c.79-.05,3.25-.12,3.81-.11a43,43,0,0,1-.81,4.78h-.1A.63.63,0,0,1,165,328a6.8,6.8,0,0,1-2.35.52c-3,0-5.13-1.89-5.13-4.85,0-2.7,2.2-4.9,5.37-4.9a3.8,3.8,0,0,1,2.29.63,2.77,2.77,0,0,1,1-.57l.08.07a11.85,11.85,0,0,1-.57,2.35l-.25.11a8.56,8.56,0,0,1-.41-1.48,4.1,4.1,0,0,0-2-.51,4.25,4.25,0,1,0-.41,8.49H163a5.45,5.45,0,0,0,1.88-.31c.07-1,.18-2.29.27-3.12l-3.14-.07-.06-.17Z"/><path d="M168.05,322.42a5.11,5.11,0,0,1,1.42-.45,7.62,7.62,0,0,1,.14,1.43h0a2.45,2.45,0,0,1,2-1.43.9.9,0,0,1,.65.21,6.46,6.46,0,0,1-.4,1.41l-.16.1a5,5,0,0,1-.47-.89.38.38,0,0,0-.21-.05c-.45,0-1.09.58-1.39,1.35v3.5l1.43.39-.07.3h-3.28l.07-.3.81-.4c0-1.47.06-3.79.06-4.49l-.73-.42Z"/><path d="M179.15,325.15a3.09,3.09,0,0,1-2.87,3.29h-.23a3.06,3.06,0,0,1-3.08-3v-.13a3.23,3.23,0,0,1,3.12-3.33,3.06,3.06,0,0,1,3.06,3.08Zm-5,.07c0,1.34.73,2.77,2,2.77s1.81-1.47,1.81-2.71-.66-2.86-1.92-2.86-1.91,1.34-1.91,2.8Z"/><path d="M184.06,322.15l-.27.48-1.92.15v4a1,1,0,0,0,.25.69,1.14,1.14,0,0,0,.71.21,2.06,2.06,0,0,0,1.13-.32h0v.42a1.93,1.93,0,0,1-1.53.67,1.77,1.77,0,0,1-1.26-.55,2.3,2.3,0,0,1-.33-1.53v-3.59l-.95-.15.25-.48h.71a14.12,14.12,0,0,1,.28-1.58,1.23,1.23,0,0,1,.76-.45l-.06,2Z"/><path d="M185.76,325v.21a2.33,2.33,0,0,0,2.08,2.57l.23,0a1.75,1.75,0,0,0,.51-.08,11.86,11.86,0,0,1,1.12-.72l.07.23a3.41,3.41,0,0,1-.73.92,5,5,0,0,1-1.47.33,2.86,2.86,0,0,1-2.9-2.8c0-.1,0-.2,0-.3a3.18,3.18,0,0,1,3-3.38h0a2.22,2.22,0,0,1,2.3,2.15,1.62,1.62,0,0,1,0,.22c0,.17,0,.39-.14.45a4,4,0,0,1-1.28.18Zm3-.49a1.31,1.31,0,0,0,.07-.44,1.46,1.46,0,0,0-1.3-1.61h0c-1.28,0-1.74,1.49-1.75,2Z"/><path d="M194.24,322.31a2.58,2.58,0,0,1,.68-.35l.11.11a8.28,8.28,0,0,1-.35,1.61l-.16.1c-.16-.28-.34-.75-.49-1.08a1.22,1.22,0,0,0-.82-.24,1,1,0,0,0-1.1.89v.11a.8.8,0,0,0,.49.79c.35.22,1.2.57,1.66.79a1.6,1.6,0,0,1,1.08,1.47c0,1.46-1.52,1.9-2.37,1.9a3.93,3.93,0,0,1-2-.6,10.4,10.4,0,0,1,.32-1.47l.2-.1c.18.34.47,1.21.6,1.53a2.57,2.57,0,0,0,.87.15c.77,0,1.37-.46,1.37-1.07a.89.89,0,0,0-.57-.89c-.38-.19-.86-.42-1.41-.67a1.73,1.73,0,0,1-1.17-1.61,2,2,0,0,1,2.25-1.72,2.05,2.05,0,0,1,.82.31Z"/><path d="M199.13,328l-.06.3h-3l.1-.3.81-.4v-2.69c0-1.95,0-3.78-.05-5.55l-.77-.38.12-.25a12.79,12.79,0,0,1,1.72-.45v9.32Zm3.37.52a2.8,2.8,0,0,1-1.74-.68,27.68,27.68,0,0,1-2.44-2.76V325c.64-.71,1.41-1.6,2-2.32l.26-.69a12.05,12.05,0,0,1,1.8.17l-.18.29c-.2.11-1.11.39-1.4.53-.55.54-.71.72-1.5,1.6h0c.86,1.09,2.61,3,3.32,3.82Z"/><path d="M204.73,326.75a2.25,2.25,0,0,1,.75.81v.13a2.36,2.36,0,0,1-.76.78h-.1a2.53,2.53,0,0,1-.74-.79v-.14a2.82,2.82,0,0,1,.76-.78Z"/></g></g></g></svg>