<svg xmlns="http://www.w3.org/2000/svg" viewBox="0 0 143.16 24.62"><title>Asset 9</title><g id="Layer_2" data-name="Layer 2"><g id="Layer_1-2" data-name="Layer 1"><path d="M0,10H3.14V11.2A6,6,0,0,1,4.68,10,3.58,3.58,0,0,1,6.3,9.61a5.07,5.07,0,0,1,2.6.81L7.46,13.3a3,3,0,0,0-1.75-.64q-2.56,0-2.57,3.88V23.6H0Z"/><path d="M9.81,16.7a6.75,6.75,0,0,1,2.11-5,7.05,7.05,0,0,1,5.14-2.07,7.15,7.15,0,0,1,5.17,2.08,7,7,0,0,1,2.09,5.12,6.85,6.85,0,0,1-2.11,5.12A7.2,7.2,0,0,1,17,24a6.88,6.88,0,0,1-5.12-2.1A7,7,0,0,1,9.81,16.7Zm3.21.05A4.58,4.58,0,0,0,14.11,20a3.85,3.85,0,0,0,2.95,1.2A3.85,3.85,0,0,0,20,20a4.49,4.49,0,0,0,1.1-3.17A4.49,4.49,0,0,0,20,13.65a3.85,3.85,0,0,0-3-1.2,3.8,3.8,0,0,0-2.92,1.2A4.34,4.34,0,0,0,13,16.75Z"/><path d="M27.65,10h3.14v1.26A6.42,6.42,0,0,1,32.34,10a3.82,3.82,0,0,1,1.72-.35,4.18,4.18,0,0,1,3.65,2,4.71,4.71,0,0,1,4-2q4.59,0,4.59,5.58V23.6H43.16V16a5.78,5.78,0,0,0-.48-2.77,1.71,1.71,0,0,0-1.61-.82,2,2,0,0,0-1.89,1,6.36,6.36,0,0,0-.59,3.14v7H35.43V16.08q0-3.63-2.1-3.63a2.09,2.09,0,0,0-1.93,1,6.12,6.12,0,0,0-.61,3.13v7H27.65Z"/><path d="M53.43,10V23.6H50.28V10Z"/><path d="M67.94,10l3.56,7.77,3.85-9,3.87,9L82.74,10h3.52L79.13,24.62l-3.78-8.76-3.83,8.76L64.41,10Z"/><path d="M91.52,10V23.6H88.38V10Z"/><path d="M98.65,0V23.6H95.51V0Z"/><path d="M110.54,12.31l-2.6,1.38c-.41-.84-.92-1.26-1.52-1.26a1,1,0,0,0-.74.29,1,1,0,0,0-.31.73c0,.53.6,1,1.82,1.55a10.72,10.72,0,0,1,3.36,2,3.37,3.37,0,0,1,.87,2.44,4.3,4.3,0,0,1-1.45,3.3,5.21,5.21,0,0,1-8.26-2.08l2.68-1.24a6.07,6.07,0,0,0,.85,1.24,2,2,0,0,0,1.37.53c1.06,0,1.6-.48,1.6-1.45,0-.56-.41-1.08-1.23-1.57l-1-.46-1-.46a6,6,0,0,1-1.93-1.34,3.33,3.33,0,0,1-.71-2.19,3.88,3.88,0,0,1,1.22-2.94,4.27,4.27,0,0,1,3-1.16A4.12,4.12,0,0,1,110.54,12.31Z"/><path d="M113.6,16.7a6.75,6.75,0,0,1,2.11-5,7.05,7.05,0,0,1,5.14-2.07A7.15,7.15,0,0,1,126,11.69a6.93,6.93,0,0,1,2.09,5.12A6.85,6.85,0,0,1,126,21.93,7.2,7.2,0,0,1,120.79,24a6.88,6.88,0,0,1-5.12-2.1A7,7,0,0,1,113.6,16.7Zm3.21.05A4.58,4.58,0,0,0,117.9,20a4.24,4.24,0,0,0,5.9,0,4.49,4.49,0,0,0,1.1-3.17,4.49,4.49,0,0,0-1.1-3.17,3.85,3.85,0,0,0-3-1.2,3.8,3.8,0,0,0-2.92,1.2A4.34,4.34,0,0,0,116.81,16.75Z"/><path d="M131.44,10h3.16v1.26a5.14,5.14,0,0,1,3.71-1.64,4.7,4.7,0,0,1,3.71,1.5,6.13,6.13,0,0,1,1.14,4.15V23.6H140V16a4.92,4.92,0,0,0-.56-2.78,2.25,2.25,0,0,0-2-.79,2.43,2.43,0,0,0-2.22,1A7.1,7.1,0,0,0,134.6,17V23.6h-3.16Z"/></g></g></svg>