<svg xmlns="http://www.w3.org/2000/svg" viewBox="0 0 38.71 19.95"><defs><style>.cls-1{fill:#0f0000;}</style></defs><title>swipe</title><g id="Layer_2" data-name="Layer 2"><g id="Layer_1-2" data-name="Layer 1"><path d="M1.65,9.71V9.65c0-.19-.18-.33-.42-.33s-.35.12-.35.29A.25.25,0,0,0,1,9.82c.09.08.1.08.55.22.73.22,1,.51,1,1S2,12.13,1.27,12.13A1.12,1.12,0,0,1,0,11.06H.85c.05.28.17.41.43.41a.33.33,0,0,0,.36-.31c0-.2-.13-.29-.6-.43-.7-.21-1-.53-1-1s.5-1,1.25-1,1.2.39,1.22,1.05Z"/><path d="M8,8.77,7,12H6.05l-.57-2L4.9,12H4l-1-3.24h.91l.65,2,.56-2h.86l.58,2,.66-2Z"/><path d="M9.58,7.85a.5.5,0,1,1-.49-.5A.48.48,0,0,1,9.58,7.85ZM9.53,12H8.64V8.77h.89Z"/><path d="M11.47,8.77v.4a1.19,1.19,0,0,1,1.07-.51,1.49,1.49,0,0,1,.9.27,1.66,1.66,0,0,1,.74,1.47,1.58,1.58,0,0,1-1.62,1.73,1.34,1.34,0,0,1-1.09-.47v1.8h-.89V8.77Zm0,1.66a.88.88,0,0,0,.86,1,.91.91,0,0,0,.89-1,.9.9,0,0,0-.86-1A.92.92,0,0,0,11.47,10.43Z"/><path d="M15.74,10.61a.82.82,0,0,0,.84.73.85.85,0,0,0,.75-.42l.82.22a1.72,1.72,0,0,1-1.57,1,1.69,1.69,0,0,1-1.77-1.74,1.65,1.65,0,0,1,1.71-1.73,1.69,1.69,0,0,1,1.76,1.77v.18Zm1.62-.51a.79.79,0,0,0-.83-.69.76.76,0,0,0-.79.69Z"/><polygon class="cls-1" points="21.44 19.95 38.71 9.97 21.44 0 21.44 19.95"/></g></g></svg>