<?xml version="1.0" encoding="utf-8"?>
<!-- Generator: Adobe Illustrator 23.1.1, SVG Export Plug-In . SVG Version: 6.00 Build 0)  -->
<svg version="1.1" id="Layer_1" xmlns="http://www.w3.org/2000/svg" xmlns:xlink="http://www.w3.org/1999/xlink" x="0px" y="0px"
	 viewBox="0 0 1440 270.4" style="enable-background:new 0 0 1440 270.4;" xml:space="preserve">
<style type="text/css">
	.st0{fill:#F2DAD2;}
</style>
<path class="st0" d="M1437.9,8.2c-6.4,3.9-13,8.2-26.1,8.2c-13,0.1-19.6-4.1-26-8.2c-6.4-4.1-12.7-8-25.6-8.1
	c-12.8,0-19.3,4.1-25.6,8s-13,8.2-26.1,8.2s-19.6-4.1-26-8.2c-6.4-4.1-12.7-8-25.5-8l-0.6,0c-12.8,0.1-19.3,4.1-25.6,8
	c-6.4,3.9-13,8.2-26.1,8.2c-13,0.1-19.6-4.1-26-8.2c-6.4-4.1-12.7-8-25.5-8c-1.6,0-3.1,0.1-4.5,0.1c-9.9,0.9-15.6,4.4-21.1,7.8
	c-6.4,3.9-13,8.2-25.9,8.1c-12.9,0-19.5-4.1-25.9-8.2c-6.4-4-12.7-8-25.6-8.1l-0.1,0l-0.1,0c-12.6,0.1-19.1,4.1-25.4,8
	c-6.4,3.9-13,8.2-26.1,8.2c-11.1,0.1-17.6-3-23.2-6.4c-0.9-0.6-1.9-1.2-2.8-1.8c-6.3-4-12.7-8-25.5-8c-12.8,0.1-19.3,4.1-25.6,8
	s-13,8.2-26.1,8.2c-13.1,0.1-19.6-4.1-26-8.2s-12.7-8-25.5-8l-0.6,0c-12.8,0.1-19.3,4.1-25.6,8c-6.4,3.9-13,8.2-26.1,8.2
	c-13,0.1-19.6-4.1-26-8.2c-6.4-4.1-12.7-8-25.6-8.1c-12.8,0.1-19.3,4.1-25.6,8c-6.3,3.9-13,8.2-26,8.2c-13,0.1-19.6-4.1-26-8.2
	C645.9-2.2,627.9-1,611.8,9.2c-6.4,3.9-13,8.2-26.1,8.2c-13,0.1-19.6-4.1-26-8.2c-6.4-4.1-12.7-8-25.5-8l-0.6,0
	c-12.8,0.1-19.3,4.1-25.6,8c-6.4,3.9-13,8.2-26.1,8.2c-13,0.1-19.5-4.1-26-8.1c-6.4-4.1-12.7-8-25.6-8.1c-12.8,0-19.3,4.1-25.6,8
	s-13,8.2-25.9,8.1c-12.9,0.1-19.5-4.1-25.9-8.2c-6.4-4-12.7-8-25.5-8l-0.1,0l-0.1,0c-12.6,0.1-19.1,4.1-25.4,8
	c-6.4,3.9-13,8.2-26.1,8.2c-13.1,0.1-19.6-4.1-26-8.2c-6.4-4.1-12.7-8.1-25.6-8.1c-12.8,0.1-19.3,4.1-25.6,8
	c-6.3,3.9-13,8.2-26.1,8.2c-13,0.1-19.6-4.1-26-8.2c-6.4-4.1-12.7-8-25.5-8l-0.6,0c-12.8,0.1-19.3,4.1-25.6,8
	c-6.4,3.9-13,8.2-26.1,8.2c-13.1,0.1-19.6-4.1-26-8.2s-12.8-7.9-25.5-8C4.2,1.3-2.3,5.4-8.6,9.3c-6.4,3.9-13,8.2-26.1,8.2
	c-13.1,0.1-19.6-4.1-26-8.2c-3.5-2.3-7.2-4.5-12-6.1l24.2,138.3c4.5,1.5,9.2,2.1,13.9,2c13-0.1,19.6-4.1,26.1-8.2
	c6.4-3.9,12.8-8.1,25.6-8c12.8-0.1,19.2,4.1,25.6,8.1c6.3,4,12.9,8.1,26,8.2c13-0.1,19.6-4.1,26.1-8.2c6.3-3.9,12.8-8.1,25.6-8
	c12.8-0.1,19.2,4.1,25.6,8.1c6.3,4,12.9,8.1,26,8.2l0.6,0c13-0.1,19.6-4.1,26.1-8.2c6.4-3.9,12.8-8.1,25.6-8l0,0
	c12.7-0.1,19.2,4.1,25.5,8c6.3,4,12.9,8.1,26,8.2l0,0c13-0.1,19.6-4.1,26.1-8.2c6.3-3.9,12.8-8.1,25.5-8c12.7-0.1,19.1,4.1,25.4,8
	c6.2,4,12.9,8.1,26,8.2l0.1,0l0.1,0l0,0c12.8-0.2,19.4-4.2,25.8-8.1c6.4-3.9,12.8-8.1,25.6-8s19.2,4.1,25.5,8c6.3,4,12.9,8.1,26,8.2
	c13-0.1,19.6-4.1,26.1-8.2c6.4-3.9,12.8-8.1,25.6-8c12.8-0.1,19.2,4.1,25.5,8c6.3,4,12.9,8.1,26,8.2l0.6,0c13-0.1,19.6-4.1,26.1-8.2
	c6.4-3.9,12.8-8.1,25.6-8l0,0c12.7-0.1,19.2,4.1,25.6,8.1c6.3,4,12.9,8.1,26,8.2l0,0c13-0.1,19.6-4.1,26.1-8.2
	c6.3-3.9,12.8-8.1,25.6-8l0,0c12.7-0.1,19.2,4.1,25.5,8c11.7,7.4,26.2,9.3,39.3,5c13.8-4.4,22.4-14,37.6-14
	c12.8-0.1,19.2,4.1,25.6,8.1c6.3,4,12.9,8.1,26,8.2l0.6,0c13-0.1,19.6-4.1,26.1-8.2c6.4-3.9,12.8-8.1,25.6-8l0,0
	c12.7-0.1,19.2,4.1,25.5,8c6.3,3.9,12.9,8.1,26,8.2l0,0c13-0.1,19.6-4.1,26.1-8.2c6.3-3.9,12.8-8.1,25.5-8c12.7-0.1,19.1,4.1,25.4,8
	c6.4,4.1,12.9,8.1,26,8.2l0.1,0l0.1,0l0,0c12.8-0.2,19.4-4.2,25.8-8.1c1.6-1,3.1-2,4.8-2.9c5.2-2.9,11.2-5.3,20.9-5.2
	c12.8-0.1,19.2,4.1,25.6,8.1c6.3,4,12.9,8.1,26,8.2c13-0.1,19.6-4.1,26.1-8.2c6.3-3.9,12.8-8.1,25.6-8c12.8-0.1,19.2,4.1,25.6,8.1
	c6.3,4,12.9,8.1,26,8.2l0.6,0c5,0.1,10-0.7,14.7-2.3c4.5-1.5,8-3.7,11.4-5.9c6.3-3.9,12.8-8.1,25.6-8l0,0c12.7-0.1,19.2,4.1,25.5,8
	c6.3,3.9,12.9,8.1,26,8.2l0,0c13-0.1,19.6-4.1,26.1-8.2c6.5-4,12.8-8.1,25.6-8l0,0c1.8,0,3.6,0.1,5.3,0.3L1447.4,3.2
	C1444,4.5,1440.8,6.3,1437.9,8.2z"/>
</svg>
