<?xml version="1.0" encoding="utf-8"?>
<!-- Generator: Adobe Illustrator 23.1.1, SVG Export Plug-In . SVG Version: 6.00 Build 0)  -->
<svg version="1.1" id="Layer_1" xmlns="http://www.w3.org/2000/svg" xmlns:xlink="http://www.w3.org/1999/xlink" x="0px" y="0px"
	 viewBox="0 0 1440 270.4" style="enable-background:new 0 0 1440 270.4;" xml:space="preserve">
<style type="text/css">
	.st0{fill:#F2DAD2;}
</style>
<g>
	<path class="st0" d="M1334.7,13.1c-6.3,3.9-13,8.1-26.1,8.1s-19.7-4.1-26-8.2c-6.4-4.1-12.8-8-25.6-8l-0.6,0
		c-12.8,0-20.3,4.1-26.6,8c-6.4,4-13,8.1-26.1,8.1c-13,0-19.7-4.1-26-8.2c-6.4-4.1-12.8-8-25.6-8c-1.6,0-3.1,0.1-4.5,0.1
		c-9.9,0.8-15.6,4.4-21.1,7.8c-6.4,4-13,8.1-25.9,8c-12.9-0.1-19.6-4.1-25.9-8.2c-6.4-4-12.8-8-25.6-8.1l-0.1,0l-0.1,0
		c-12.6,0-19.1,4-25.4,8c-6.4,4-13,8.1-26.1,8.1c-11.1,0-17.6-3-23.2-6.4c-0.9-0.6-1.9-1.2-2.8-1.7c-6.3-4-12.8-8-25.6-8
		c-12.8,0-19.3,4.1-25.6,8c-6.3,3.9-13,8.1-26.1,8.1c-13.1,0-19.7-4.1-26-8.2s-12.8-8-25.6-8l-0.6,0c-12.8,0-19.3,4.1-25.6,8
		c-6.4,4-13,8.1-26.1,8.1c-13,0-19.7-4.1-26-8.2c-6.4-4.1-12.8-8-25.6-8.1c-12.8,0-19.3,4.1-25.6,8c-6.3,3.9-13,8.1-26,8.1
		c-13,0-19.7-4.1-26-8.2c-16.4-10.3-34.5-9.2-50.6,1c-6.4,4-13,8.1-26.1,8.1c-13,0-19.7-4.1-26-8.2c-6.4-4.1-12.8-8-25.6-8l-0.6,0
		c-12.8,0-19.3,4.1-25.6,8c-6.4,4-13,8.1-26.1,8.1c-13,0-19.6-4.1-26-8.1c-6.4-4.1-12.8-8-25.6-8.1s-19.3,4.1-25.6,8
		c-6.3,3.9-13,8.1-25.9,8c-12.9,0-19.6-4.1-25.9-8.2c-6.4-4-12.8-8-25.6-8l-0.1,0L326,5c-12.6,0-19.1,4-25.4,8
		c-6.4,4-13,8.1-26.1,8.1c-13.1,0-19.7-4.1-26-8.2c-6.4-4.1-12.8-8.1-25.6-8.1c-12.8,0-19.3,4.1-25.6,8c-6.3,3.9-13,8.1-26.1,8.1
		c-13,0-19.7-4.1-26-8.2c-6.4-4.1-12.8-8-25.6-8l-0.6,0c-8,0-13.5,1.6-18.1,3.7v126.1c4.5-2.1,10-3.6,17.8-3.6
		c12.8,0,19.3,4.2,25.6,8.1c6.3,4,13,8.2,26,8.2l0.6,0c13,0,19.6-4.1,26.1-8.1c6.4-4,12.8-8,25.6-8c12.7,0,19.3,4.2,25.6,8
		c6.3,4,13,8.2,26,8.2c13,0,19.6-4.1,26.1-8.1c6.3-3.9,12.8-8,25.5-8c12.7,0,19.2,4.2,25.5,8c6.2,4,13,8.2,26,8.2l0.1,0l0.1,0
		c12.8-0.1,19.4-4.2,25.8-8.1s12.8-8,25.6-8c12.8,0,19.3,4.2,25.6,8c6.3,4,13,8.2,26,8.2c13,0,19.6-4.1,26.1-8.1
		c6.4-4,12.8-8,25.6-8c12.8,0,19.3,4.2,25.6,8c6.3,4,13,8.2,26,8.2l0.6,0c13,0,19.6-4.1,26.1-8.1c6.4-4,12.8-8,25.6-8
		c12.7,0,19.3,4.2,25.6,8.1c6.3,4,13,8.2,26,8.2c13,0,19.6-4.1,26.1-8.1c6.3-3.9,12.8-8,25.6-8c12.7,0,19.3,4.2,25.6,8
		c11.7,7.5,26.1,9.3,39.3,5.1c13.8-4.4,22.5-13.9,37.7-13.9c12.8,0,19.3,4.2,25.6,8.1c6.3,4,13,8.2,26,8.2l0.6,0
		c13,0,19.6-4.1,26.1-8.1c6.4-4,12.8-8,25.6-8c12.7,0,19.3,4.2,25.6,8c6.3,3.9,13,8.2,26,8.2c13,0,19.6-4.1,26.1-8.1
		c6.3-3.9,12.8-8,25.5-8c12.7,0,19.2,4.2,25.5,8c6.4,4.1,13,8.2,26,8.2l0.1,0l0.1,0c12.8-0.1,19.4-4.2,25.8-8.1c1.5-1,3.1-2,4.8-2.9
		c5.2-2.9,11.2-5.2,20.9-5.1c12.8,0,19.3,4.2,25.6,8.1c6.3,4,13,8.2,26,8.2c13,0,19.6-4.1,26.1-8.1c6.3-3.9,13.8-8,26.6-8
		c12.8,0,19.3,4.2,25.6,8.1c6.3,4,13,8.2,26,8.2l0.6,0c5,0.1,10-0.6,14.7-2.2c4.5-1.5,8-3.7,11.4-5.8c1.1-0.7,2.3-1.4,3.5-2.1V11.1
		C1336.9,11.8,1335.8,12.4,1334.7,13.1z"/>
</g>
</svg>
