<svg xmlns="http://www.w3.org/2000/svg" viewBox="0 0 181.62 400.62"><defs><style>.cls-1{fill:#fff;}.cls-2{fill:#242156;opacity:0.7;}.cls-3{fill:#e8e8e8;}.cls-4{fill:#d27e66;}.cls-4,.cls-7{opacity:0.5;}.cls-5{fill:#272525;}.cls-6{fill:#d35e5f;}.cls-8{fill:#d04738;}.cls-9{fill:#010101;}</style></defs><title>flow1mobile</title><g id="Layer_2" data-name="Layer 2"><g id="Layer_1-2" data-name="Layer 1"><path class="cls-1" d="M68.92,31.48h44.27a15.74,15.74,0,1,0,0-31.48H68.92a15.74,15.74,0,0,0,0,31.48Z"/><path class="cls-1" d="M107.64,369.13H74.48a15.74,15.74,0,0,0-15.74,15.75h0a15.74,15.74,0,0,0,15.74,15.74h33.16a15.74,15.74,0,0,0,15.74-15.74h0A15.75,15.75,0,0,0,107.64,369.13Z"/><path class="cls-1" d="M181.62,208.52H146.87l3.74-6.48h-3.37V174.26H117.66L91.19,147.79l3.61-6.25H91.43V117.91L118,91.31l-27-27-27,27,26.59,26.6v23.63H87.32l3.61,6.25L64.46,174.26H34.54V202H31.18l3.74,6.48H.16v28.35H34.71v29.58h56v18.06H87.32l3.61,6.25L64.09,317.6l26.59,26.6v18.12H87.32l3.74,6.48,3.74-6.48H91.43V344.2L118,317.6,91.19,290.76l3.61-6.25H91.43V266.45h56V236.87h34.21Zm-35,57.18H35.46V236.87H69.67V208.52H34.92L38.66,202H35.29V175H64.46l26.6,26.6,26.6-26.6h28.83v27h-3.36l3.74,6.48H112.12v28.35h34.54Z"/><polygon class="cls-1" points="90.68 31.48 90.68 57.73 87.32 57.73 91.06 64.2 94.8 57.73 91.43 57.73 91.43 31.48 90.68 31.48"/><rect class="cls-2" x="53.02" width="75.75" height="31.48" rx="15.74"/><path class="cls-3" d="M67.31,11.83h1.84a3.09,3.09,0,0,1,3.35,3.36A3.63,3.63,0,0,1,71.41,18a3.5,3.5,0,0,1-2.42.8H67.31Zm.87,6.2h.31a3.11,3.11,0,0,0,2.18-.52,2.78,2.78,0,0,0,.93-2.3,2.33,2.33,0,0,0-2.48-2.64h-.94Z"/><path class="cls-3" d="M77.41,14h.79v4.79h-.79v-.92a2,2,0,0,1-1.75,1,2.3,2.3,0,0,1-2.26-2.5,2.33,2.33,0,0,1,2.28-2.53,2,2,0,0,1,1.73.91Zm-2.78,1.16a2.2,2.2,0,0,0-.39,1.27,1.64,1.64,0,0,0,1.54,1.79,1.77,1.77,0,0,0,1.64-1.87,1.62,1.62,0,0,0-1.62-1.76A1.32,1.32,0,0,0,74.63,15.14Z"/><path class="cls-3" d="M82,15.29v0c0-.45-.36-.73-.92-.73s-.86.27-.86.68.21.58,1.07.82a2.39,2.39,0,0,1,1.17.55,1.32,1.32,0,0,1,.38.93c0,.84-.68,1.4-1.7,1.4s-1.71-.51-1.79-1.48h.78a.88.88,0,0,0,1,.83c.54,0,.89-.28.89-.7s-.27-.63-1.09-.84c-1-.28-1.51-.71-1.51-1.44s.68-1.4,1.69-1.4a1.46,1.46,0,0,1,1.67,1.43Z"/><path class="cls-3" d="M84.85,14.64a1.78,1.78,0,0,1,1.45-.78,1.61,1.61,0,0,1,1.11.44,1.64,1.64,0,0,1,.38,1.25v3.22H87V15.59c0-.66-.33-1-.9-1A1.27,1.27,0,0,0,84.85,16v2.8h-.79V11.83h.79Z"/><path class="cls-3" d="M90.14,18.77h-.79V11.83h.79v3a1.94,1.94,0,0,1,1.68-.94,2.31,2.31,0,0,1,2.28,2.53,2.28,2.28,0,0,1-2.23,2.5A2,2,0,0,1,90.14,18Zm0-2.39a1.59,1.59,0,1,0,3.14,0,1.59,1.59,0,1,0-3.14,0Z"/><path class="cls-3" d="M99.81,16.39a2.45,2.45,0,0,1-2.46,2.5,2.37,2.37,0,0,1-2.42-2.52,2.44,2.44,0,1,1,4.88,0Zm-4.07,0a1.62,1.62,0,0,0,1.63,1.78A1.64,1.64,0,0,0,99,16.38a1.63,1.63,0,1,0-3.25,0Z"/><path class="cls-3" d="M104.64,14h.79v4.79h-.79v-.92a2,2,0,0,1-1.75,1,2.3,2.3,0,0,1-2.26-2.5,2.33,2.33,0,0,1,2.28-2.53,2,2,0,0,1,1.73.91Zm-2.78,1.16a2.2,2.2,0,0,0-.4,1.27A1.65,1.65,0,0,0,103,18.2a1.77,1.77,0,0,0,1.65-1.87A1.62,1.62,0,0,0,103,14.57,1.31,1.31,0,0,0,101.86,15.14Z"/><path class="cls-3" d="M107.81,14v.81a1.43,1.43,0,0,1,.44-.64,1.54,1.54,0,0,1,.91-.29h.19v.8h-.22a1.22,1.22,0,0,0-1,.56,1.74,1.74,0,0,0-.28,1.13v2.43H107V14Z"/><path class="cls-3" d="M113.75,11.83h.79v6.94h-.79V18a2,2,0,0,1-1.72.94,2.28,2.28,0,0,1-2.25-2.49A2.34,2.34,0,0,1,112,13.86a2,2,0,0,1,1.72.85Zm-3.14,4.58a1.61,1.61,0,0,0,1.54,1.79,1.66,1.66,0,0,0,1.6-1.81,1.62,1.62,0,0,0-1.55-1.82A1.64,1.64,0,0,0,110.61,16.41Z"/><rect class="cls-2" x="58.57" y="369.13" width="64.64" height="31.48" rx="15.74"/><path class="cls-3" d="M85.23,387c0,.24.07.29.36.29H86V388h-.74c-.57,0-.78-.22-.78-.75v-3.35h-.67v-.7h.67v-1.51h.79v1.51H86v.7h-.73Z"/><path class="cls-3" d="M90.61,383.17h.79V388h-.79V387a2,2,0,0,1-1.75,1,2.3,2.3,0,0,1-2.26-2.5,2.34,2.34,0,0,1,2.28-2.53,2,2,0,0,1,1.73.91Zm-2.78,1.16a2.2,2.2,0,0,0-.4,1.27A1.65,1.65,0,0,0,89,387.39a1.77,1.77,0,0,0,1.65-1.87A1.62,1.62,0,0,0,89,383.76,1.31,1.31,0,0,0,87.83,384.33Z"/><path class="cls-3" d="M93.78,383.17V384a1.88,1.88,0,0,1,1.75-1,2.27,2.27,0,0,1,2.26,2.48,2.31,2.31,0,0,1-2.26,2.55,2.23,2.23,0,0,1-1-.25,1.78,1.78,0,0,1-.7-.61v3H93v-7Zm0,2.48a1.57,1.57,0,0,0,1.58,1.74,1.63,1.63,0,0,0,1.58-1.83,1.86,1.86,0,0,0-.41-1.3,1.57,1.57,0,0,0-1.14-.5A1.68,1.68,0,0,0,93.78,385.65Z"/><rect class="cls-4" x="111.95" y="208.52" width="69.51" height="28.35"/><path class="cls-5" d="M129.88,220.93h.79v4.83a2.24,2.24,0,0,1-.64,1.76,2.48,2.48,0,0,1-1.77.63,2.71,2.71,0,0,1-2.12-.87l.54-.54a2.74,2.74,0,0,0,.46.41,2.29,2.29,0,0,0,1.12.29,1.75,1.75,0,0,0,1.25-.47,1.65,1.65,0,0,0,.37-1.15v-1a2,2,0,0,1-1.77,1,2.31,2.31,0,0,1-2.22-2.49,2.76,2.76,0,0,1,.76-2,2.1,2.1,0,0,1,1.52-.56,2,2,0,0,1,1.71.93Zm-3.16,2.38a1.66,1.66,0,0,0,1.58,1.8,1.6,1.6,0,0,0,1.21-.58,1.93,1.93,0,0,0,.35-1.18,1.67,1.67,0,0,0-.38-1.27,1.59,1.59,0,0,0-2.76,1.23Z"/><path class="cls-5" d="M136.71,223.35a2.44,2.44,0,0,1-2.45,2.49,2.51,2.51,0,1,1,2.45-2.49Zm-4.06,0a1.61,1.61,0,0,0,1.63,1.77,1.63,1.63,0,0,0,1.62-1.77,1.63,1.63,0,1,0-3.25,0Z"/><path class="cls-5" d="M142.42,223.35a2.45,2.45,0,0,1-2.46,2.49,2.51,2.51,0,1,1,2.46-2.49Zm-4.07,0a1.61,1.61,0,0,0,1.63,1.77,1.64,1.64,0,0,0,1.63-1.77,1.64,1.64,0,1,0-3.26,0Z"/><path class="cls-5" d="M147.21,218.79h.8v6.94h-.8v-.82a2,2,0,0,1-1.71.93,2.29,2.29,0,0,1-2.26-2.48,2.35,2.35,0,0,1,2.26-2.54,2,2,0,0,1,1.71.84Zm-3.14,4.58a1.61,1.61,0,0,0,1.54,1.79,1.66,1.66,0,0,0,1.6-1.81,1.62,1.62,0,0,0-1.55-1.83A1.65,1.65,0,0,0,144.07,223.37Z"/><path class="cls-5" d="M153.51,220.93v.81a1.34,1.34,0,0,1,.44-.63,1.48,1.48,0,0,1,.91-.29h.19v.8h-.22a1.25,1.25,0,0,0-1,.55,1.74,1.74,0,0,0-.28,1.13v2.44h-.79v-4.8Z"/><path class="cls-5" d="M160.35,223.35a2.45,2.45,0,0,1-2.46,2.49,2.51,2.51,0,1,1,2.46-2.49Zm-4.07,0a1.62,1.62,0,0,0,1.63,1.77,1.64,1.64,0,0,0,1.63-1.77,1.64,1.64,0,1,0-3.26,0Z"/><path class="cls-5" d="M167.81,220.93l-1.71,4.8h-.71l-1.11-3.64-1.15,3.64h-.75l-1.65-4.8h.82l1.22,3.53,1.11-3.53h.78l1.08,3.53,1.26-3.53Z"/><rect class="cls-4" y="208.52" width="69.51" height="28.35"/><path class="cls-5" d="M9.34,220.93v.68a1.63,1.63,0,0,1,1.42-.79,1.69,1.69,0,0,1,1.12.39,1.57,1.57,0,0,1,.4,1.28v3.24h-.79v-3.06a1.25,1.25,0,0,0-.18-.82.91.91,0,0,0-.75-.33,1.19,1.19,0,0,0-.91.41,1.13,1.13,0,0,0-.31.87v2.93H8.55v-4.8Z"/><path class="cls-5" d="M17.46,220.93h.79v4.8h-.79v-.93a2,2,0,0,1-1.74,1,2.29,2.29,0,0,1-2.26-2.49,2.33,2.33,0,0,1,2.28-2.53,2,2,0,0,1,1.72.9Zm-2.77,1.17a2.18,2.18,0,0,0-.4,1.27,1.65,1.65,0,0,0,1.54,1.79,1.78,1.78,0,0,0,1.64-1.88,1.62,1.62,0,0,0-1.62-1.76A1.29,1.29,0,0,0,14.69,222.1Z"/><path class="cls-5" d="M23.44,220.93V224a1.59,1.59,0,0,1-.48,1.34,2,2,0,0,1-1.39.5,2,2,0,0,1-1.38-.51,1.76,1.76,0,0,1-.48-1.33v-3.07h.79v3a1.07,1.07,0,0,0,1.07,1.16,1.14,1.14,0,0,0,.86-.37,1.09,1.09,0,0,0,.21-.77v-3.07Z"/><path class="cls-5" d="M28.47,220.93h.8v4.83a2.24,2.24,0,0,1-.64,1.76,2.5,2.5,0,0,1-1.77.63,2.71,2.71,0,0,1-2.12-.87l.54-.54a2.39,2.39,0,0,0,.46.41,2.26,2.26,0,0,0,1.12.29,1.75,1.75,0,0,0,1.25-.47,1.65,1.65,0,0,0,.36-1.15v-1a2,2,0,0,1-1.77,1,2.31,2.31,0,0,1-2.21-2.49,2.76,2.76,0,0,1,.76-2,2.07,2.07,0,0,1,1.52-.56,1.93,1.93,0,0,1,1.7.93Zm-3.15,2.38a1.65,1.65,0,0,0,1.57,1.8,1.6,1.6,0,0,0,1.22-.58,1.93,1.93,0,0,0,.34-1.18,1.67,1.67,0,0,0-.37-1.27,1.59,1.59,0,0,0-2.76,1.23Z"/><path class="cls-5" d="M31.56,221.6a1.78,1.78,0,0,1,1.45-.78,1.58,1.58,0,0,1,1.11.43,1.62,1.62,0,0,1,.38,1.25v3.23h-.79v-3.19c0-.65-.32-1-.9-1a1.22,1.22,0,0,0-.93.43,1.26,1.26,0,0,0-.32,1v2.81h-.79v-6.94h.79Z"/><path class="cls-5" d="M36.9,224.75c0,.24.08.29.37.29h.36v.69h-.74c-.56,0-.78-.22-.78-.75v-3.35h-.66v-.7h.66v-1.51h.79v1.51h.73v.7H36.9Z"/><path class="cls-5" d="M41.76,220.93h.87L39.77,228H38.9l1-2.46-1.71-4.65H39l1.29,3.56Z"/><path class="cls-5" d="M47.39,220.93v.81a1.34,1.34,0,0,1,.44-.63,1.49,1.49,0,0,1,.92-.29h.18v.8h-.21a1.25,1.25,0,0,0-1,.55,1.8,1.8,0,0,0-.28,1.13v2.44H46.6v-4.8Z"/><path class="cls-5" d="M54.23,223.35a2.44,2.44,0,0,1-2.45,2.49,2.51,2.51,0,1,1,2.45-2.49Zm-4.07,0a1.62,1.62,0,0,0,1.64,1.77,1.64,1.64,0,0,0,1.62-1.77,1.64,1.64,0,1,0-3.26,0Z"/><path class="cls-5" d="M61.69,220.93l-1.7,4.8h-.72l-1.1-3.64L57,225.73h-.75l-1.64-4.8h.81l1.23,3.53,1.1-3.53h.78l1.08,3.53,1.26-3.53Z"/><rect class="cls-5" x="90.52" y="31.48" width="0.75" height="27.34"/><polygon class="cls-5" points="87.15 57.73 90.89 64.2 94.63 57.73 87.15 57.73"/><rect class="cls-5" x="90.52" y="105.29" width="0.75" height="37.34"/><polygon class="cls-5" points="87.15 141.54 90.89 148.02 94.63 141.54 87.15 141.54"/><rect class="cls-5" x="90.52" y="266.19" width="0.75" height="19.42"/><polygon class="cls-5" points="87.15 284.51 90.89 290.99 94.63 284.51 87.15 284.51"/><rect class="cls-5" x="90.52" y="344" width="0.75" height="19.42"/><polygon class="cls-5" points="87.15 362.32 90.89 368.8 94.63 362.32 87.15 362.32"/><polygon class="cls-5" points="147.08 203.14 146.33 203.14 146.33 175.01 116.99 175.01 116.99 174.26 147.08 174.26 147.08 203.14"/><polygon class="cls-5" points="142.97 202.04 146.71 208.52 150.44 202.04 142.97 202.04"/><polygon class="cls-5" points="35.13 203.14 34.38 203.14 34.38 174.26 64.47 174.26 64.47 175.01 35.13 175.01 35.13 203.14"/><polygon class="cls-5" points="31.02 202.04 34.75 208.52 38.49 202.04 31.02 202.04"/><rect class="cls-6" x="72.07" y="72.49" width="37.64" height="37.64" transform="translate(-37.94 91.02) rotate(-45)"/><g class="cls-7"><rect class="cls-6" x="72.07" y="72.49" width="37.64" height="37.64" transform="translate(-37.94 91.02) rotate(-45)"/><path class="cls-8" d="M90.89,118.28l-27-27,27-27,27,27Zm-26.26-27,26.26,26.27,26.27-26.27L90.89,65.05Z"/></g><path class="cls-9" d="M75.35,88h.7v5.68h-.7Z"/><path class="cls-9" d="M80.73,91.69a1.89,1.89,0,0,1-1.92,2.06,1.84,1.84,0,0,1-1.86-2,1.89,1.89,0,0,1,1.92-2.06A1.83,1.83,0,0,1,80.73,91.69Zm-3.07,0c0,.85.49,1.49,1.18,1.49S80,92.59,80,91.72c0-.66-.33-1.49-1.16-1.49S77.66,91,77.66,91.73Z"/><path class="cls-9" d="M84.38,93.51a2.49,2.49,0,0,1-1.11.23,1.83,1.83,0,0,1-1.92-2,2,2,0,0,1,2.07-2.05,2.29,2.29,0,0,1,1,.2l-.16.54a1.71,1.71,0,0,0-.82-.18,1.46,1.46,0,0,0,0,2.91,2.11,2.11,0,0,0,.86-.19Z"/><path class="cls-9" d="M87.35,93.66l0-.49h0a1.44,1.44,0,0,1-1.18.58,1.11,1.11,0,0,1-1.18-1.12c0-.93.83-1.44,2.32-1.43v-.08a.8.8,0,0,0-.88-.9,1.86,1.86,0,0,0-1,.29L85.19,90a2.46,2.46,0,0,1,1.27-.34c1.18,0,1.47.81,1.47,1.58v1.45a5.32,5.32,0,0,0,.06.93Zm-.1-2c-.77,0-1.64.12-1.64.87a.62.62,0,0,0,.66.68,1,1,0,0,0,.94-.65.85.85,0,0,0,0-.23Z"/><path class="cls-9" d="M89.88,88.68v1.11h1v.53h-1v2.09c0,.48.14.75.53.75a1.25,1.25,0,0,0,.4,0l0,.53a1.65,1.65,0,0,1-.63.1,1,1,0,0,1-.76-.3,1.44,1.44,0,0,1-.27-1V90.32h-.6v-.53h.6v-.93Z"/><path class="cls-9" d="M92,91.85a1.24,1.24,0,0,0,1.33,1.34,2.38,2.38,0,0,0,1.07-.2l.12.51a3.12,3.12,0,0,1-1.28.24,1.8,1.8,0,0,1-1.91-1.95,1.88,1.88,0,0,1,1.82-2.09,1.64,1.64,0,0,1,1.6,1.82,2.06,2.06,0,0,1,0,.33Zm2.07-.5a1,1,0,0,0-1-1.15A1.18,1.18,0,0,0,92,91.35Z"/><path class="cls-9" d="M98,91.56h0c.09-.13.23-.3.34-.44l1.14-1.33h.84l-1.49,1.59,1.7,2.28h-.85L98.39,91.8l-.36.4v1.46h-.69V88H98Z"/><path class="cls-9" d="M102,88.7a.44.44,0,0,1-.87,0,.43.43,0,0,1,.44-.44A.42.42,0,0,1,102,88.7Zm-.78,5V89.79h.7v3.87Z"/><path class="cls-9" d="M106.44,88v4.68c0,.34,0,.73,0,1h-.63l0-.67h0a1.43,1.43,0,0,1-1.32.76,1.77,1.77,0,0,1-1.65-2,1.85,1.85,0,0,1,1.73-2.08,1.31,1.31,0,0,1,1.17.59h0V88Zm-.7,3.38a1,1,0,0,0,0-.29,1,1,0,0,0-1-.82c-.73,0-1.16.64-1.16,1.5s.38,1.43,1.14,1.43a1,1,0,0,0,1-.84,1,1,0,0,0,0-.3Z"/><rect class="cls-6" x="72.07" y="155.81" width="37.64" height="37.64" transform="translate(-96.86 115.42) rotate(-45)"/><g class="cls-7"><rect class="cls-6" x="72.07" y="155.81" width="37.64" height="37.64" transform="translate(-96.86 115.42) rotate(-45)"/><path class="cls-8" d="M90.89,201.61l-27-27,27-27,27,27Zm-26.26-27L90.89,200.9l26.27-26.27L90.89,148.37Z"/></g><path class="cls-9" d="M77.21,176.84a2.68,2.68,0,0,1-1.11.22,1.84,1.84,0,0,1-1.93-2A2,2,0,0,1,76.25,173a2.45,2.45,0,0,1,1,.2l-.16.55a1.59,1.59,0,0,0-.82-.19,1.46,1.46,0,0,0,0,2.91,2,2,0,0,0,.86-.19Z"/><path class="cls-9" d="M78,171.3h.7v2.42h0a1.27,1.27,0,0,1,.5-.5A1.47,1.47,0,0,1,80,173c.52,0,1.35.32,1.35,1.66V177h-.7v-2.22c0-.62-.23-1.15-.9-1.15a1,1,0,0,0-.94.7.87.87,0,0,0-.05.34V177H78Z"/><path class="cls-9" d="M86,175a1.89,1.89,0,0,1-1.93,2.06,1.84,1.84,0,0,1-1.85-2A1.89,1.89,0,0,1,84.12,173,1.83,1.83,0,0,1,86,175Zm-3.07,0c0,.85.49,1.49,1.17,1.49s1.18-.63,1.18-1.5c0-.66-.33-1.49-1.16-1.49S82.91,174.32,82.91,175.05Z"/><path class="cls-9" d="M86.77,176.26a1.83,1.83,0,0,0,.93.28c.51,0,.75-.25.75-.57s-.2-.52-.72-.71c-.69-.25-1-.64-1-1.1A1.19,1.19,0,0,1,88,173a2,2,0,0,1,1,.24l-.18.52a1.45,1.45,0,0,0-.79-.23c-.42,0-.65.24-.65.53s.23.46.74.66c.67.25,1,.59,1,1.16s-.53,1.16-1.44,1.16a2.19,2.19,0,0,1-1.09-.26Z"/><path class="cls-9" d="M90.43,175.18a1.23,1.23,0,0,0,1.33,1.34,2.6,2.6,0,0,0,1.07-.2l.12.5a3.17,3.17,0,0,1-1.29.24,1.79,1.79,0,0,1-1.9-1.95A1.87,1.87,0,0,1,91.57,173a1.64,1.64,0,0,1,1.6,1.83,2.63,2.63,0,0,1,0,.33Zm2.06-.51a1,1,0,0,0-1-1.14,1.16,1.16,0,0,0-1.08,1.14Z"/><path class="cls-9" d="M95.74,174.32c0-.46,0-.85,0-1.21h.61l0,.76h0a1.17,1.17,0,0,1,1.07-.85.6.6,0,0,1,.2,0v.66l-.24,0a1,1,0,0,0-.94.9,1.69,1.69,0,0,0,0,.33V177h-.7Z"/><path class="cls-9" d="M101.78,175a1.89,1.89,0,0,1-1.93,2.06,1.84,1.84,0,0,1-1.85-2A1.89,1.89,0,0,1,99.92,173,1.83,1.83,0,0,1,101.78,175Zm-3.07,0c0,.85.49,1.49,1.17,1.49s1.18-.63,1.18-1.5c0-.66-.33-1.49-1.16-1.49S98.71,174.32,98.71,175.05Z"/><path class="cls-9" d="M102.89,173.11l.51,2c.12.43.22.83.29,1.23h0c.09-.39.21-.81.34-1.22l.63-2h.59l.6,1.94c.15.46.26.87.35,1.26h0c.07-.39.17-.8.3-1.26l.55-1.94h.69L106.55,177h-.64l-.59-1.85a12.44,12.44,0,0,1-.35-1.27h0a10.77,10.77,0,0,1-.36,1.28L104,177h-.64l-1.17-3.87Z"/><rect class="cls-6" x="72.07" y="298.78" width="37.64" height="37.64" transform="translate(-197.96 157.3) rotate(-45)"/><g class="cls-7"><rect class="cls-6" x="72.07" y="298.78" width="37.64" height="37.64" transform="translate(-197.96 157.3) rotate(-45)"/><path class="cls-8" d="M90.89,344.58l-27-27,27-27,27,27Zm-26.26-27,26.26,26.27,26.27-26.27L90.89,291.34Z"/></g><path class="cls-9" d="M82.83,314.43a1.83,1.83,0,0,0,.93.28c.51,0,.75-.25.75-.57s-.2-.52-.72-.72c-.69-.24-1-.63-1-1.09a1.19,1.19,0,0,1,1.33-1.14,2,2,0,0,1,1,.24l-.18.52a1.45,1.45,0,0,0-.79-.23c-.42,0-.65.24-.65.53s.23.46.74.65c.67.26,1,.6,1,1.17s-.53,1.16-1.44,1.16a2.19,2.19,0,0,1-1.09-.26Z"/><path class="cls-9" d="M86.1,309.47h.7v5.68h-.7Z"/><path class="cls-9" d="M88.38,313.34a1.23,1.23,0,0,0,1.32,1.35,2.62,2.62,0,0,0,1.08-.2l.12.5a3.21,3.21,0,0,1-1.29.24,1.79,1.79,0,0,1-1.9-2,1.87,1.87,0,0,1,1.81-2.09,1.64,1.64,0,0,1,1.6,1.83c0,.14,0,.25,0,.32Zm2.06-.5a1,1,0,0,0-1-1.14,1.15,1.15,0,0,0-1.07,1.14Z"/><path class="cls-9" d="M94.75,315a2.68,2.68,0,0,1-1.11.22,1.84,1.84,0,0,1-1.93-2,2,2,0,0,1,2.08-2.06,2.45,2.45,0,0,1,1,.2l-.16.55a1.59,1.59,0,0,0-.82-.19,1.46,1.46,0,0,0,0,2.91,2,2,0,0,0,.86-.19Z"/><path class="cls-9" d="M96.53,310.17v1.11h1v.54h-1v2.08c0,.48.14.76.53.76a1.81,1.81,0,0,0,.41-.05l0,.52a1.69,1.69,0,0,1-.63.1,1,1,0,0,1-.76-.29,1.45,1.45,0,0,1-.27-1v-2.11h-.6v-.54h.6v-.93Z"/><path class="cls-9" d="M76.69,324.75c0-.26,0-.65,0-1v-4.68h.69v2.44h0a1.44,1.44,0,0,1,1.32-.72c1,0,1.64.8,1.63,2a1.84,1.84,0,0,1-1.74,2.07,1.39,1.39,0,0,1-1.29-.73h0l0,.64Zm.72-1.55a1.12,1.12,0,0,0,1.09,1.08c.74,0,1.18-.6,1.18-1.49s-.4-1.44-1.16-1.44a1.14,1.14,0,0,0-1.07.87,1.84,1.84,0,0,0,0,.29Z"/><path class="cls-9" d="M81.66,322.94A1.25,1.25,0,0,0,83,324.29a2.57,2.57,0,0,0,1.07-.2l.12.5a3.17,3.17,0,0,1-1.29.24,1.79,1.79,0,0,1-1.9-1.95,1.88,1.88,0,0,1,1.82-2.09,1.64,1.64,0,0,1,1.59,1.83,2.33,2.33,0,0,1,0,.32Zm2.06-.5a1,1,0,0,0-1-1.14,1.17,1.17,0,0,0-1.08,1.14Z"/><path class="cls-9" d="M85.28,319.07H86v2.42h0a1.27,1.27,0,0,1,.5-.5,1.47,1.47,0,0,1,.72-.2c.52,0,1.35.32,1.35,1.66v2.3h-.7v-2.22c0-.63-.23-1.15-.9-1.15a1,1,0,0,0-.94.7.87.87,0,0,0,0,.34v2.33h-.7Z"/><path class="cls-9" d="M91.86,324.75l0-.49h0a1.43,1.43,0,0,1-1.18.58,1.1,1.1,0,0,1-1.19-1.11c0-.94.84-1.45,2.33-1.44v-.08a.8.8,0,0,0-.88-.9,2,2,0,0,0-1,.29l-.16-.46a2.41,2.41,0,0,1,1.28-.35c1.18,0,1.47.81,1.47,1.59v1.44a5.25,5.25,0,0,0,.06.93Zm-.1-2c-.77,0-1.64.12-1.64.87a.62.62,0,0,0,.66.67,1,1,0,0,0,.94-.65.85.85,0,0,0,0-.22Z"/><path class="cls-9" d="M93.78,320.88l.76,2.18a9.26,9.26,0,0,1,.31,1h0c.09-.32.2-.64.32-1l.76-2.18h.73l-1.52,3.87H94.5L93,320.88Z"/><path class="cls-9" d="M98.14,319.79a.42.42,0,0,1-.45.44.44.44,0,1,1,.45-.44Zm-.78,5v-3.87h.7v3.87Z"/><path class="cls-9" d="M102.73,322.78a1.89,1.89,0,0,1-1.92,2.06,1.84,1.84,0,0,1-1.86-2,1.89,1.89,0,0,1,1.92-2.06A1.83,1.83,0,0,1,102.73,322.78Zm-3.07,0c0,.85.49,1.49,1.18,1.49s1.17-.63,1.17-1.5c0-.66-.33-1.49-1.16-1.49S99.66,322.09,99.66,322.82Z"/><path class="cls-9" d="M103.62,322.09c0-.46,0-.85,0-1.21h.61l0,.76h0a1.17,1.17,0,0,1,1.07-.85.6.6,0,0,1,.2,0v.66l-.24,0a1,1,0,0,0-.94.9,1.69,1.69,0,0,0,0,.33v2.06h-.7Z"/><polygon class="cls-5" points="147.24 266.45 34.54 266.45 34.54 236.56 35.29 236.56 35.29 265.7 146.49 265.7 146.49 236.56 147.24 236.56 147.24 266.45"/></g></g></svg>