<svg xmlns="http://www.w3.org/2000/svg" viewBox="0 0 888.2 105.5"><defs><style>.cls-1{fill:#272525;}.cls-2{fill:#242156;opacity:0.7;}.cls-3{fill:#e8e8e8;}.cls-4{fill:#d27e66;}.cls-4,.cls-6{opacity:0.5;}.cls-5{fill:#d35e5f;}.cls-7{fill:#d04738;}.cls-8{fill:#010101;}</style></defs><title>flow2</title><g id="Layer_2" data-name="Layer 2"><g id="Layer_1-2" data-name="Layer 1"><rect class="cls-1" x="219.87" y="13.8" width="25.91" height="0.75"/><polygon class="cls-1" points="244.69 17.91 251.17 14.17 244.69 10.43 244.69 17.91"/><rect class="cls-1" x="219.87" y="90.95" width="25.91" height="0.75"/><polygon class="cls-1" points="244.69 95.06 251.17 91.32 244.69 87.58 244.69 95.06"/><rect class="cls-2" y="37.01" width="75.75" height="31.48" rx="15.74"/><path class="cls-3" d="M14.29,48.84h1.84a3.09,3.09,0,0,1,3.35,3.36A3.63,3.63,0,0,1,18.39,55a3.5,3.5,0,0,1-2.42.8H14.29Zm.87,6.2h.31a3.06,3.06,0,0,0,2.18-.53,2.78,2.78,0,0,0,.94-2.3,2.33,2.33,0,0,0-2.49-2.63h-.94Z"/><path class="cls-3" d="M24.39,51h.79v4.79h-.79v-.92a2,2,0,0,1-1.75,1,2.29,2.29,0,0,1-2.25-2.5,2.33,2.33,0,0,1,2.27-2.53,2,2,0,0,1,1.73.91Zm-2.78,1.16a2.2,2.2,0,0,0-.39,1.27,1.64,1.64,0,0,0,1.54,1.79,1.77,1.77,0,0,0,1.64-1.87,1.62,1.62,0,0,0-1.62-1.76A1.32,1.32,0,0,0,21.61,52.15Z"/><path class="cls-3" d="M29,52.3v0c0-.45-.36-.73-.91-.73s-.87.27-.87.68.21.58,1.07.82a2.39,2.39,0,0,1,1.17.55,1.32,1.32,0,0,1,.38.93c0,.84-.68,1.4-1.7,1.4s-1.71-.51-1.79-1.48h.78a.88.88,0,0,0,1,.83c.54,0,.89-.28.89-.7s-.27-.63-1.09-.84c-1-.28-1.51-.71-1.51-1.44s.68-1.4,1.69-1.4a1.46,1.46,0,0,1,1.67,1.43Z"/><path class="cls-3" d="M31.83,51.65a1.78,1.78,0,0,1,1.45-.78,1.59,1.59,0,0,1,1.11.44,1.64,1.64,0,0,1,.38,1.25v3.22H34V52.6c0-.66-.33-1-.9-1a1.24,1.24,0,0,0-.94.43,1.28,1.28,0,0,0-.31,1v2.81H31V48.84h.79Z"/><path class="cls-3" d="M37.12,55.78h-.79V48.84h.79v3a2,2,0,0,1,1.69-.94,2.31,2.31,0,0,1,2.28,2.53,2.28,2.28,0,0,1-2.24,2.5A2,2,0,0,1,37.12,55Zm0-2.39a1.59,1.59,0,1,0,3.14,0,1.59,1.59,0,1,0-3.14,0Z"/><path class="cls-3" d="M46.79,53.4a2.45,2.45,0,0,1-2.46,2.5,2.52,2.52,0,1,1,2.46-2.5Zm-4.07,0a1.62,1.62,0,0,0,1.63,1.78A1.65,1.65,0,0,0,46,53.39a1.64,1.64,0,1,0-3.26,0Z"/><path class="cls-3" d="M51.62,51h.79v4.79h-.79v-.92a2,2,0,0,1-1.75,1,2.3,2.3,0,0,1-2.26-2.5,2.33,2.33,0,0,1,2.28-2.53,2,2,0,0,1,1.73.91Zm-2.78,1.16a2.2,2.2,0,0,0-.4,1.27A1.65,1.65,0,0,0,50,55.21a1.77,1.77,0,0,0,1.65-1.87A1.62,1.62,0,0,0,50,51.58,1.31,1.31,0,0,0,48.84,52.15Z"/><path class="cls-3" d="M54.79,51v.81a1.38,1.38,0,0,1,.44-.64,1.54,1.54,0,0,1,.91-.29h.19v.8h-.22a1.25,1.25,0,0,0-1,.55,1.78,1.78,0,0,0-.28,1.14v2.43H54V51Z"/><path class="cls-3" d="M60.73,48.84h.79v6.94h-.79V55A2,2,0,0,1,59,55.9a2.28,2.28,0,0,1-2.26-2.49A2.34,2.34,0,0,1,59,50.87a2.06,2.06,0,0,1,1.71.84Zm-3.14,4.58a1.61,1.61,0,0,0,1.54,1.79,1.66,1.66,0,0,0,1.6-1.81,1.62,1.62,0,0,0-1.55-1.82A1.65,1.65,0,0,0,57.59,53.42Z"/><rect class="cls-2" x="823.56" y="36.83" width="64.64" height="31.48" rx="15.74"/><path class="cls-3" d="M846.54,53.75A1.13,1.13,0,0,0,847.77,55a1.21,1.21,0,0,0,1.33-1.18c0-.6-.31-.89-1.41-1.25a3.46,3.46,0,0,1-1.4-.7,1.73,1.73,0,0,1-.54-1.31,2.07,2.07,0,0,1,4.13,0H849a1.49,1.49,0,0,0-.17-.72,1.21,1.21,0,0,0-1-.48,1.11,1.11,0,0,0-1.18,1.13,1,1,0,0,0,.4.8,3.89,3.89,0,0,0,1.11.49,3.23,3.23,0,0,1,1.38.75,1.79,1.79,0,0,1,.46,1.23,2,2,0,0,1-2.18,2A2,2,0,0,1,846,54.8a1.68,1.68,0,0,1-.24-.91v-.14Z"/><path class="cls-3" d="M854.87,50.81h.8v4.8h-.8v-.93a2,2,0,0,1-1.74,1,2.29,2.29,0,0,1-2.26-2.49,2.33,2.33,0,0,1,2.28-2.53,2,2,0,0,1,1.72.9ZM852.1,52a2.18,2.18,0,0,0-.4,1.27A1.65,1.65,0,0,0,853.24,55a1.77,1.77,0,0,0,1.65-1.87,1.62,1.62,0,0,0-1.63-1.76A1.28,1.28,0,0,0,852.1,52Z"/><path class="cls-3" d="M860.9,50.81l-1.81,4.8h-.83l-1.76-4.8h.83l1.35,3.67,1.4-3.67Z"/><path class="cls-3" d="M862.09,53.47a1.47,1.47,0,0,0,.31.87,1.55,1.55,0,0,0,1.29.66,1.68,1.68,0,0,0,1.44-.83l.69.26a2.32,2.32,0,0,1-2.13,1.29,2.51,2.51,0,1,1,2.4-2.57c0,.07,0,.2,0,.32Zm3.16-.59a1.46,1.46,0,0,0-.27-.82,1.65,1.65,0,0,0-1.32-.65,1.55,1.55,0,0,0-1.29.66,1.84,1.84,0,0,0-.27.81Z"/><polygon class="cls-1" points="803.35 82.13 776.55 82.13 776.55 81.38 802.6 81.38 802.69 24.98 776.65 24.98 776.65 24.23 803.45 24.23 803.45 24.61 803.35 82.13"/><rect class="cls-1" x="803.07" y="52.2" width="14.06" height="0.75"/><polygon class="cls-1" points="816.03 56.31 822.51 52.57 816.03 48.84 816.03 56.31"/><rect class="cls-4" x="162.78" width="57.48" height="28.35"/><path class="cls-1" d="M180.74,13.42v-2h.48v2h2.14v.46h-2.14v2h-.48v-2h-2.13v-.46Z"/><path class="cls-1" d="M191.12,12.41h.79v4.8h-.79v-.93a2,2,0,0,1-1.75,1,2.29,2.29,0,0,1-2.26-2.49,2.33,2.33,0,0,1,2.28-2.53,2,2,0,0,1,1.73.9Zm-2.78,1.17a2.17,2.17,0,0,0-.39,1.27,1.64,1.64,0,0,0,1.54,1.79,1.78,1.78,0,0,0,1.64-1.88A1.61,1.61,0,0,0,189.51,13,1.3,1.3,0,0,0,188.34,13.58Z"/><path class="cls-1" d="M197.09,10.27h.79v6.94h-.79v-.82a2,2,0,0,1-1.71.93,2.29,2.29,0,0,1-2.26-2.48,2.35,2.35,0,0,1,2.26-2.54,2,2,0,0,1,1.71.84ZM194,14.85a1.61,1.61,0,0,0,1.54,1.79,1.66,1.66,0,0,0,1.6-1.81A1.61,1.61,0,0,0,195.54,13,1.64,1.64,0,0,0,194,14.85Z"/><path class="cls-1" d="M203.07,10.27h.79v6.94h-.79v-.82a2,2,0,0,1-1.72.93,2.29,2.29,0,0,1-2.26-2.48,2.35,2.35,0,0,1,2.26-2.54,2.07,2.07,0,0,1,1.72.84Zm-3.15,4.58a1.61,1.61,0,0,0,1.54,1.79,1.67,1.67,0,0,0,1.61-1.81A1.62,1.62,0,0,0,201.52,13,1.64,1.64,0,0,0,199.92,14.85Z"/><rect class="cls-4" x="252.59" width="73.86" height="28.35"/><path class="cls-1" d="M270.55,13.42v-2H271v2h2.14v.46H271v2h-.48v-2h-2.13v-.46Z"/><path class="cls-1" d="M281,16.62a2.48,2.48,0,0,1-1.77.7,2.33,2.33,0,0,1-2.35-2.49A2.42,2.42,0,0,1,281.06,13l-.51.51a1.72,1.72,0,0,0-1.21-.5,1.62,1.62,0,0,0-1.61,1.77,1.64,1.64,0,0,0,1.6,1.8,1.66,1.66,0,0,0,1.22-.53Z"/><path class="cls-1" d="M282.74,13.08a1.76,1.76,0,0,1,1.45-.78,1.6,1.6,0,0,1,1.11.43,1.66,1.66,0,0,1,.37,1.25v3.23h-.79V14c0-.65-.32-1-.89-1a1.22,1.22,0,0,0-.94.42,1.25,1.25,0,0,0-.31,1v2.81H282V10.27h.79Z"/><path class="cls-1" d="M288.14,11.07a.5.5,0,0,1-.51.5.51.51,0,0,1,0-1A.51.51,0,0,1,288.14,11.07ZM288,17.21h-.8v-4.8h.8Z"/><path class="cls-1" d="M289.62,17.21V10.27h.79v6.94Z"/><path class="cls-1" d="M295.59,10.27h.79v6.94h-.79v-.82a2,2,0,0,1-1.72.93,2.28,2.28,0,0,1-2.25-2.48,2.34,2.34,0,0,1,2.25-2.54,2.07,2.07,0,0,1,1.72.84Zm-3.14,4.58A1.61,1.61,0,0,0,294,16.64a1.67,1.67,0,0,0,1.6-1.81A1.61,1.61,0,0,0,294,13,1.64,1.64,0,0,0,292.45,14.85Z"/><path class="cls-1" d="M298.77,12.41v.81a1.27,1.27,0,0,1,.43-.63,1.49,1.49,0,0,1,.92-.29h.19v.8h-.22a1.23,1.23,0,0,0-1,.55,1.74,1.74,0,0,0-.28,1.13v2.44H298v-4.8Z"/><path class="cls-1" d="M301.57,15.07a1.47,1.47,0,0,0,.31.87,1.55,1.55,0,0,0,1.29.66,1.66,1.66,0,0,0,1.43-.83l.7.26a2.43,2.43,0,0,1-4.58-1.2,2.43,2.43,0,1,1,4.85-.08c0,.07,0,.2,0,.32Zm3.16-.59a1.54,1.54,0,0,0-.27-.82,1.65,1.65,0,0,0-1.32-.65,1.55,1.55,0,0,0-1.29.66,2,2,0,0,0-.28.81Z"/><path class="cls-1" d="M307.51,12.41v.68a1.63,1.63,0,0,1,1.42-.79,1.68,1.68,0,0,1,1.12.39,1.57,1.57,0,0,1,.4,1.28v3.24h-.79V14.15a1.25,1.25,0,0,0-.18-.82.9.9,0,0,0-.75-.32,1.18,1.18,0,0,0-.91.4,1.14,1.14,0,0,0-.31.88v2.92h-.79v-4.8Z"/><rect class="cls-4" x="252.59" y="77.15" width="65.88" height="28.35"/><path class="cls-1" d="M266.68,89.56v.67a1.51,1.51,0,0,1,1.37-.78,1.24,1.24,0,0,1,1.29.87,1.57,1.57,0,0,1,1.52-.87,1.41,1.41,0,0,1,1.21.51c.23.3.29.57.29,1.33v3.07h-.79V91.48c0-.59,0-.72-.13-.92a.94.94,0,0,0-.83-.4c-.7,0-1.09.46-1.09,1.32v2.88h-.79V91.49a1.88,1.88,0,0,0-.15-.92.83.83,0,0,0-.78-.41c-.7,0-1.12.49-1.12,1.33v2.87h-.79v-4.8Z"/><path class="cls-1" d="M274.38,92.22a1.54,1.54,0,0,0,.31.87,1.58,1.58,0,0,0,1.3.66,1.66,1.66,0,0,0,1.43-.83l.7.26a2.43,2.43,0,0,1-4.58-1.2,2.43,2.43,0,1,1,4.85-.08c0,.07,0,.2,0,.32Zm3.17-.59a1.54,1.54,0,0,0-.27-.82,1.69,1.69,0,0,0-1.33-.65,1.55,1.55,0,0,0-1.29.66,2.13,2.13,0,0,0-.27.81Z"/><path class="cls-1" d="M280.33,89.56v.67a1.49,1.49,0,0,1,1.36-.78,1.24,1.24,0,0,1,1.29.87,1.57,1.57,0,0,1,1.52-.87,1.43,1.43,0,0,1,1.22.51,1.94,1.94,0,0,1,.29,1.33v3.07h-.79V91.48c0-.59,0-.72-.14-.92a.93.93,0,0,0-.83-.4c-.7,0-1.08.46-1.08,1.32v2.88h-.79V91.49a1.86,1.86,0,0,0-.16-.92.83.83,0,0,0-.78-.41c-.7,0-1.11.49-1.11,1.33v2.87h-.8v-4.8Z"/><path class="cls-1" d="M288.36,94.36h-.79V87.42h.79v3a2,2,0,0,1,1.69-.93A2.3,2.3,0,0,1,292.32,92a2.27,2.27,0,0,1-2.23,2.49,2,2,0,0,1-1.73-.93Zm0-2.39a1.59,1.59,0,1,0,3.14,0,1.59,1.59,0,1,0-3.14,0Z"/><path class="cls-1" d="M294,92.22a1.47,1.47,0,0,0,.31.87,1.55,1.55,0,0,0,1.29.66,1.66,1.66,0,0,0,1.44-.83l.7.26A2.58,2.58,0,1,1,298,91.9c0,.07,0,.2,0,.32Zm3.16-.59a1.46,1.46,0,0,0-.27-.82,1.65,1.65,0,0,0-1.32-.65,1.55,1.55,0,0,0-1.29.66,1.84,1.84,0,0,0-.27.81Z"/><path class="cls-1" d="M299.93,89.56v.81a1.34,1.34,0,0,1,.44-.63,1.48,1.48,0,0,1,.91-.29h.19v.8h-.22a1.25,1.25,0,0,0-1,.55,1.74,1.74,0,0,0-.28,1.13v2.44h-.79v-4.8Z"/><path class="cls-1" d="M304.69,90.87v-.05c0-.45-.37-.73-.92-.73s-.86.27-.86.69.21.57,1.07.81a2.54,2.54,0,0,1,1.17.55,1.35,1.35,0,0,1,.38.94c0,.83-.69,1.39-1.71,1.39A1.55,1.55,0,0,1,302,93h.79a.88.88,0,0,0,1,.83c.54,0,.9-.28.9-.71s-.27-.62-1.09-.83c-1-.28-1.51-.72-1.51-1.45s.67-1.39,1.68-1.39,1.64.52,1.68,1.42Z"/><rect class="cls-1" x="319.29" y="90.95" width="25.91" height="0.75"/><polygon class="cls-1" points="344.11 95.06 350.59 91.32 344.11 87.58 344.11 95.06"/><rect class="cls-4" x="352.01" y="77.15" width="63.11" height="28.35"/><path class="cls-1" d="M368.43,89.56h.79v4.8h-.79v-.93a2,2,0,0,1-1.74,1A2.29,2.29,0,0,1,364.43,92a2.33,2.33,0,0,1,2.28-2.53,2,2,0,0,1,1.72.9Zm-2.78,1.17a2.17,2.17,0,0,0-.39,1.27,1.65,1.65,0,0,0,1.54,1.79,1.78,1.78,0,0,0,1.64-1.88,1.61,1.61,0,0,0-1.62-1.75A1.31,1.31,0,0,0,365.65,90.73Z"/><path class="cls-1" d="M374.41,87.42h.79v6.94h-.79v-.82a2,2,0,0,1-1.72.93A2.29,2.29,0,0,1,370.43,92a2.35,2.35,0,0,1,2.26-2.54,2.07,2.07,0,0,1,1.72.84ZM371.26,92a1.61,1.61,0,0,0,1.54,1.79A1.67,1.67,0,0,0,374.41,92a1.62,1.62,0,0,0-1.55-1.82A1.64,1.64,0,0,0,371.26,92Z"/><path class="cls-1" d="M380.38,87.42h.79v6.94h-.79v-.82a2,2,0,0,1-1.72.93A2.28,2.28,0,0,1,376.41,92a2.34,2.34,0,0,1,2.25-2.54,2.07,2.07,0,0,1,1.72.84ZM377.24,92a1.61,1.61,0,0,0,1.54,1.79,1.67,1.67,0,0,0,1.6-1.81,1.61,1.61,0,0,0-1.55-1.82A1.64,1.64,0,0,0,377.24,92Z"/><path class="cls-1" d="M386.68,89.56v.68a1.63,1.63,0,0,1,1.42-.79,1.68,1.68,0,0,1,1.12.39,1.57,1.57,0,0,1,.4,1.28v3.24h-.79V91.3a1.25,1.25,0,0,0-.18-.82.9.9,0,0,0-.75-.32,1.18,1.18,0,0,0-.91.4,1.14,1.14,0,0,0-.31.88v2.92h-.79v-4.8Z"/><path class="cls-1" d="M391.64,92.22a1.54,1.54,0,0,0,.31.87,1.57,1.57,0,0,0,1.29.66,1.66,1.66,0,0,0,1.44-.83l.7.26a2.58,2.58,0,1,1,.27-1.28c0,.07,0,.2,0,.32Zm3.16-.59a1.46,1.46,0,0,0-.27-.82,1.65,1.65,0,0,0-1.32-.65,1.55,1.55,0,0,0-1.29.66,2,2,0,0,0-.27.81Z"/><path class="cls-1" d="M403.05,89.56l-1.71,4.8h-.72l-1.1-3.64-1.16,3.64h-.75L396,89.56h.81L398,93.09l1.1-3.53h.78L401,93.09l1.25-3.53Z"/><rect class="cls-1" x="415.12" y="90.95" width="25.91" height="0.75"/><polygon class="cls-1" points="439.94 95.06 446.42 91.32 439.94 87.58 439.94 95.06"/><rect class="cls-4" x="447.84" y="77.15" width="46.88" height="28.35"/><path class="cls-1" d="M465.47,93.77a2.48,2.48,0,0,1-1.77.7A2.33,2.33,0,0,1,461.35,92a2.42,2.42,0,0,1,4.14-1.81l-.51.51a1.73,1.73,0,0,0-1.22-.5,1.61,1.61,0,0,0-1.6,1.77,1.63,1.63,0,0,0,1.59,1.8,1.66,1.66,0,0,0,1.23-.53Z"/><path class="cls-1" d="M467.17,90.23a1.75,1.75,0,0,1,1.44-.78,1.61,1.61,0,0,1,1.12.43,1.66,1.66,0,0,1,.37,1.25v3.23h-.79V91.17c0-.65-.32-1-.89-1a1.22,1.22,0,0,0-.94.42,1.25,1.25,0,0,0-.31,1v2.81h-.79V87.42h.79Z"/><path class="cls-1" d="M472.57,88.22a.5.5,0,0,1-.51.5.51.51,0,0,1,0-1A.51.51,0,0,1,472.57,88.22Zm-.12,6.14h-.79v-4.8h.79Z"/><path class="cls-1" d="M474.05,94.36V87.42h.79v6.94Z"/><path class="cls-1" d="M480,87.42h.79v6.94H480v-.82a2,2,0,0,1-1.72.93A2.29,2.29,0,0,1,476,92a2.35,2.35,0,0,1,2.26-2.54,2.07,2.07,0,0,1,1.72.84ZM476.88,92a1.61,1.61,0,0,0,1.54,1.79A1.67,1.67,0,0,0,480,92a1.62,1.62,0,0,0-1.55-1.82A1.64,1.64,0,0,0,476.88,92Z"/><rect class="cls-4" x="162.78" y="77.15" width="57.48" height="28.35"/><path class="cls-1" d="M178,90.87v-.05c0-.45-.37-.73-.92-.73s-.86.27-.86.69.21.57,1.07.81a2.49,2.49,0,0,1,1.16.55,1.36,1.36,0,0,1,.39.94c0,.83-.69,1.39-1.71,1.39A1.55,1.55,0,0,1,175.31,93h.78a.89.89,0,0,0,1,.83c.54,0,.9-.28.9-.71s-.27-.62-1.1-.83c-1-.28-1.5-.72-1.5-1.45s.67-1.39,1.68-1.39,1.64.52,1.68,1.42Z"/><path class="cls-1" d="M180.48,92.22a1.64,1.64,0,0,0,1.61,1.53,1.66,1.66,0,0,0,1.43-.83l.7.26a2.43,2.43,0,0,1-4.58-1.2,2.43,2.43,0,1,1,4.85-.08c0,.07,0,.2,0,.32Zm3.17-.59a1.54,1.54,0,0,0-.27-.82,1.65,1.65,0,0,0-1.32-.65,1.54,1.54,0,0,0-1.29.66,2,2,0,0,0-.28.81Z"/><path class="cls-1" d="M186.4,93.38c0,.24.07.29.36.29h.36v.69h-.73c-.57,0-.78-.22-.78-.75V90.26h-.67v-.7h.67V88.05h.79v1.51h.72v.7h-.72Z"/><path class="cls-1" d="M189.24,93.38c0,.24.07.29.36.29H190v.69h-.74c-.57,0-.78-.22-.78-.75V90.26h-.67v-.7h.67V88.05h.79v1.51H190v.7h-.73Z"/><path class="cls-1" d="M191.92,88.22a.5.5,0,0,1-.51.5.51.51,0,0,1,0-1A.51.51,0,0,1,191.92,88.22Zm-.11,6.14H191v-4.8h.79Z"/><path class="cls-1" d="M194.19,89.56v.68a1.65,1.65,0,0,1,1.43-.79,1.67,1.67,0,0,1,1.11.39,1.57,1.57,0,0,1,.4,1.28v3.24h-.79V91.3a1.33,1.33,0,0,0-.17-.82.93.93,0,0,0-.75-.32,1.19,1.19,0,0,0-.92.4,1.14,1.14,0,0,0-.31.88v2.92h-.79v-4.8Z"/><path class="cls-1" d="M202.22,89.56h.8v4.83a2.24,2.24,0,0,1-.64,1.76,2.46,2.46,0,0,1-1.77.63,2.71,2.71,0,0,1-2.12-.87l.54-.54a3,3,0,0,0,.46.42,2.37,2.37,0,0,0,1.12.28,1.75,1.75,0,0,0,1.25-.47,1.65,1.65,0,0,0,.36-1.15v-1a2,2,0,0,1-1.77,1A2.31,2.31,0,0,1,198.24,92a2.76,2.76,0,0,1,.76-2,2.07,2.07,0,0,1,1.52-.56,1.93,1.93,0,0,1,1.7.93ZM199.07,92a1.65,1.65,0,0,0,1.57,1.8,1.61,1.61,0,0,0,1.22-.59A1.93,1.93,0,0,0,202.2,92a1.67,1.67,0,0,0-.37-1.27A1.59,1.59,0,0,0,199.07,92Z"/><path class="cls-1" d="M206.81,90.87v-.05c0-.45-.36-.73-.91-.73s-.87.27-.87.69.21.57,1.08.81a2.49,2.49,0,0,1,1.16.55,1.36,1.36,0,0,1,.39.94c0,.83-.69,1.39-1.71,1.39S204.24,94,204.16,93h.78a.89.89,0,0,0,1,.83c.54,0,.9-.28.9-.71s-.28-.62-1.1-.83c-1-.28-1.51-.72-1.51-1.45s.68-1.39,1.69-1.39a1.47,1.47,0,0,1,1.68,1.42Z"/><rect class="cls-1" x="75.75" y="52.37" width="27.34" height="0.75"/><polygon class="cls-1" points="101.99 56.49 108.47 52.75 101.99 49.01 101.99 56.49"/><rect class="cls-4" x="538.59" y="38.57" width="72.91" height="28.35"/><path class="cls-1" d="M552.48,55.78h-.79V48.84h.79v4.25l1.91-2.1h1l-2.14,2.34,2.13,2.45h-1l-1.91-2.14Z"/><path class="cls-1" d="M557.16,49.64a.5.5,0,0,1-.51.5.49.49,0,0,1-.5-.51.5.5,0,0,1,.51-.51A.51.51,0,0,1,557.16,49.64Zm-.11,6.14h-.8V51h.8Z"/><path class="cls-1" d="M562.23,48.84H563v6.94h-.79V55a2,2,0,0,1-1.72.94,2.29,2.29,0,0,1-2.26-2.49,2.35,2.35,0,0,1,2.26-2.54,2.07,2.07,0,0,1,1.72.84Zm-3.14,4.58a1.61,1.61,0,0,0,1.54,1.79,1.67,1.67,0,0,0,1.6-1.81,1.62,1.62,0,0,0-1.55-1.82A1.64,1.64,0,0,0,559.09,53.42Z"/><path class="cls-1" d="M564.77,51.08l-.58-.2.85-2.17.68.25Z"/><path class="cls-1" d="M569.09,52.3v0c0-.45-.37-.73-.92-.73s-.86.27-.86.68.21.58,1.07.82a2.35,2.35,0,0,1,1.16.55,1.33,1.33,0,0,1,.39.93c0,.84-.69,1.4-1.71,1.4a1.56,1.56,0,0,1-1.79-1.48h.78a.89.89,0,0,0,1,.83c.54,0,.9-.28.9-.7s-.27-.63-1.1-.84c-1-.28-1.5-.71-1.5-1.44s.67-1.4,1.68-1.4a1.47,1.47,0,0,1,1.68,1.43Z"/><path class="cls-1" d="M575.06,51v.67a1.65,1.65,0,0,1,1.43-.79,1.67,1.67,0,0,1,1.11.4,1.56,1.56,0,0,1,.4,1.28v3.23h-.79V52.72a1.37,1.37,0,0,0-.17-.82.93.93,0,0,0-.75-.32,1.17,1.17,0,0,0-.92.41,1.11,1.11,0,0,0-.31.87v2.92h-.79V51Z"/><path class="cls-1" d="M583.19,51H584v4.79h-.79v-.92a2,2,0,0,1-1.75,1,2.3,2.3,0,0,1-2.26-2.5,2.33,2.33,0,0,1,2.28-2.53,2,2,0,0,1,1.73.91Zm-2.78,1.16a2.2,2.2,0,0,0-.4,1.27,1.65,1.65,0,0,0,1.54,1.79,1.77,1.77,0,0,0,1.65-1.87,1.62,1.62,0,0,0-1.63-1.76A1.31,1.31,0,0,0,580.41,52.15Z"/><path class="cls-1" d="M586.36,51v.66a1.51,1.51,0,0,1,1.37-.78,1.24,1.24,0,0,1,1.29.88,1.55,1.55,0,0,1,1.51-.88,1.44,1.44,0,0,1,1.22.51c.23.3.29.57.29,1.33v3.07h-.79V52.9c0-.58,0-.72-.13-.91a1,1,0,0,0-.84-.41c-.69,0-1.08.47-1.08,1.32v2.88h-.79V52.91a1.81,1.81,0,0,0-.15-.91.84.84,0,0,0-.78-.42c-.7,0-1.12.5-1.12,1.33v2.87h-.79V51Z"/><path class="cls-1" d="M594.06,53.64a1.51,1.51,0,0,0,.31.87,1.58,1.58,0,0,0,1.3.66,1.65,1.65,0,0,0,1.43-.82l.7.26a2.36,2.36,0,0,1-2.13,1.29,2.52,2.52,0,1,1,2.4-2.57c0,.06,0,.2,0,.31Zm3.17-.58a1.56,1.56,0,0,0-.27-.82,1.67,1.67,0,0,0-1.33-.66,1.53,1.53,0,0,0-1.29.67,2,2,0,0,0-.27.81Z"/><polygon class="cls-1" points="129.08 43.89 128.33 43.89 128.33 13.8 157.21 13.8 157.21 14.55 129.08 14.55 129.08 43.89"/><polygon class="cls-1" points="156.11 17.91 162.59 14.17 156.11 10.43 156.11 17.91"/><polygon class="cls-1" points="157.21 91.7 128.33 91.7 128.33 61.61 129.08 61.61 129.08 90.95 157.21 90.95 157.21 91.7"/><polygon class="cls-1" points="156.11 95.06 162.59 91.32 156.11 87.58 156.11 95.06"/><rect class="cls-5" x="114.74" y="39.18" width="27.92" height="27.92" transform="translate(0.12 106.57) rotate(-45)"/><g class="cls-6"><rect class="cls-5" x="114.74" y="39.18" width="27.92" height="27.92" transform="translate(0.12 106.57) rotate(-45)"/><path class="cls-7" d="M128.7,73.23,108.61,53.14,128.7,33l20.1,20.1ZM109.31,53.14,128.7,72.53l19.39-19.39L128.7,33.75Z"/></g><path class="cls-8" d="M120.56,55.31a3.44,3.44,0,0,1-1.43.26,2.52,2.52,0,0,1-2.66-2.73A2.68,2.68,0,0,1,119.28,50a2.79,2.79,0,0,1,1.28.24l-.16.57a2.52,2.52,0,0,0-1.09-.23,2,2,0,0,0-2.11,2.23A2,2,0,0,0,119.28,55a2.88,2.88,0,0,0,1.13-.22Z"/><path class="cls-8" d="M121.4,49.81h.71v2.41h0a1.34,1.34,0,0,1,.51-.49,1.44,1.44,0,0,1,.72-.2c.52,0,1.35.32,1.35,1.65v2.31H124V53.26c0-.62-.23-1.15-.89-1.15a1,1,0,0,0-.94.71.82.82,0,0,0,0,.33v2.34h-.71Z"/><path class="cls-8" d="M129.35,53.52a1.89,1.89,0,0,1-1.93,2,1.83,1.83,0,0,1-1.85-2,1.88,1.88,0,0,1,1.91-2A1.83,1.83,0,0,1,129.35,53.52Zm-3.07,0c0,.85.48,1.49,1.17,1.49s1.18-.64,1.18-1.51c0-.65-.33-1.48-1.16-1.48S126.28,52.82,126.28,53.56Z"/><path class="cls-8" d="M133.74,53.52a1.89,1.89,0,0,1-1.93,2,1.83,1.83,0,0,1-1.85-2,1.88,1.88,0,0,1,1.92-2A1.83,1.83,0,0,1,133.74,53.52Zm-3.07,0c0,.85.49,1.49,1.17,1.49s1.18-.64,1.18-1.51c0-.65-.33-1.48-1.16-1.48S130.67,52.82,130.67,53.56Z"/><path class="cls-8" d="M134.53,54.77a1.93,1.93,0,0,0,.93.28c.51,0,.75-.26.75-.58s-.2-.52-.72-.71c-.69-.25-1-.63-1-1.1a1.19,1.19,0,0,1,1.33-1.13,1.93,1.93,0,0,1,1,.24l-.18.51a1.46,1.46,0,0,0-.79-.22c-.42,0-.65.24-.65.52s.23.47.74.66c.67.26,1,.59,1,1.17s-.53,1.16-1.45,1.16a2.18,2.18,0,0,1-1.08-.27Z"/><path class="cls-8" d="M138.19,53.68A1.23,1.23,0,0,0,139.52,55a2.6,2.6,0,0,0,1.07-.2l.12.51a3.17,3.17,0,0,1-1.29.24,1.8,1.8,0,0,1-1.9-2,1.87,1.87,0,0,1,1.81-2.09,1.63,1.63,0,0,1,1.6,1.82,2.38,2.38,0,0,1,0,.33Zm2.06-.5a1,1,0,0,0-1-1.15,1.17,1.17,0,0,0-1.08,1.15Z"/><rect class="cls-1" x="610.94" y="52.81" width="25.91" height="0.75"/><polygon class="cls-1" points="635.76 56.92 642.24 53.18 635.76 49.44 635.76 56.92"/><polygon class="cls-1" points="662.36 44.33 661.61 44.33 661.61 24.23 695.49 24.23 695.49 24.98 662.36 24.98 662.36 44.33"/><polygon class="cls-1" points="694.39 28.35 700.87 24.61 694.39 20.87 694.39 28.35"/><polygon class="cls-1" points="695.49 82.13 661.61 82.13 661.61 62.04 662.36 62.04 662.36 81.38 695.49 81.38 695.49 82.13"/><polygon class="cls-1" points="694.39 85.5 700.87 81.76 694.39 78.02 694.39 85.5"/><rect class="cls-4" x="701.72" y="68.46" width="74.84" height="26.6"/><rect class="cls-4" x="701.72" y="10.44" width="74.84" height="28.35"/><path class="cls-1" d="M717.44,26l-.64,1.61h-.9l2.61-6.95h1l2.55,7h-1L720.55,26ZM719,21.81l-1.31,3.48h2.58Z"/><path class="cls-1" d="M726.5,20.7h.79v7h-.79v-.83a2,2,0,0,1-1.72.94,2.28,2.28,0,0,1-2.25-2.49,2.34,2.34,0,0,1,2.25-2.54,2,2,0,0,1,1.72.85Zm-3.14,4.58a1.61,1.61,0,0,0,1.54,1.79,1.66,1.66,0,0,0,1.6-1.81A1.62,1.62,0,0,0,725,23.44,1.64,1.64,0,0,0,723.36,25.28Z"/><path class="cls-1" d="M732.48,20.7h.79v7h-.79v-.83a2,2,0,0,1-1.72.94,2.29,2.29,0,0,1-2.26-2.49,2.35,2.35,0,0,1,2.26-2.54,2,2,0,0,1,1.72.85Zm-3.15,4.58a1.61,1.61,0,0,0,1.54,1.79,1.67,1.67,0,0,0,1.61-1.81,1.62,1.62,0,0,0-1.55-1.82A1.65,1.65,0,0,0,729.33,25.28Z"/><path class="cls-1" d="M738.77,22.85v.87a1.86,1.86,0,0,1,1.75-1,2.27,2.27,0,0,1,2.26,2.48,2.31,2.31,0,0,1-2.26,2.55,2.26,2.26,0,0,1-1-.25,1.78,1.78,0,0,1-.7-.61v3H738v-7Zm0,2.48a1.57,1.57,0,0,0,1.58,1.74,1.63,1.63,0,0,0,1.59-1.83,1.86,1.86,0,0,0-.42-1.3,1.57,1.57,0,0,0-1.14-.5A1.68,1.68,0,0,0,738.77,25.33Z"/><path class="cls-1" d="M744.77,23.51a1.75,1.75,0,0,1,1.44-.78,1.61,1.61,0,0,1,1.12.44,1.66,1.66,0,0,1,.37,1.25v3.23h-.79V24.46c0-.65-.32-1-.89-1a1.23,1.23,0,0,0-.94.43,1.25,1.25,0,0,0-.31,1v2.81H744V20.7h.79Z"/><path class="cls-1" d="M753.76,25.26a2.45,2.45,0,0,1-2.46,2.5,2.37,2.37,0,0,1-2.42-2.52,2.36,2.36,0,0,1,2.45-2.51A2.39,2.39,0,0,1,753.76,25.26Zm-4.07,0A1.62,1.62,0,0,0,751.32,27,1.65,1.65,0,0,0,753,25.25a1.64,1.64,0,1,0-3.26,0Z"/><path class="cls-1" d="M755.76,26.67c0,.24.07.29.36.29h.36v.69h-.74c-.56,0-.78-.22-.78-.75V23.54h-.66v-.69H755V21.34h.8v1.51h.72v.69h-.72Z"/><path class="cls-1" d="M762,25.26a2.45,2.45,0,0,1-2.46,2.5,2.37,2.37,0,0,1-2.42-2.52,2.36,2.36,0,0,1,2.45-2.51A2.39,2.39,0,0,1,762,25.26Zm-4.07,0A1.62,1.62,0,0,0,759.57,27a1.65,1.65,0,0,0,1.63-1.78,1.64,1.64,0,1,0-3.26,0Z"/><path class="cls-1" d="M716,83.74a3.31,3.31,0,0,1-4.92.16,4,4,0,0,1-.93-2.57,3.37,3.37,0,0,1,3.32-3.6,3.41,3.41,0,0,1,1.74.47,3.46,3.46,0,0,1,.81.71l-.6.57a2.46,2.46,0,0,0-1.93-1,2.82,2.82,0,0,0,.05,5.59,2.3,2.3,0,0,0,1.88-1Z"/><path class="cls-1" d="M717.86,80.66a1.78,1.78,0,0,1,1.45-.78,1.59,1.59,0,0,1,1.11.44,1.64,1.64,0,0,1,.38,1.25v3.22H720V81.61c0-.66-.32-1-.9-1a1.22,1.22,0,0,0-.93.43,1.26,1.26,0,0,0-.32,1v2.8h-.79V77.85h.79Z"/><path class="cls-1" d="M726.85,82.41a2.45,2.45,0,0,1-2.45,2.5,2.52,2.52,0,1,1,2.45-2.5Zm-4.06,0a1.62,1.62,0,0,0,1.63,1.78A1.64,1.64,0,0,0,726,82.4a1.63,1.63,0,1,0-3.25,0Z"/><path class="cls-1" d="M730.28,81.31v0c0-.45-.37-.73-.92-.73s-.86.27-.86.68.21.58,1.07.82a2.39,2.39,0,0,1,1.17.55,1.32,1.32,0,0,1,.38.93c0,.84-.69,1.4-1.71,1.4a1.56,1.56,0,0,1-1.79-1.48h.79a.88.88,0,0,0,1,.83c.55,0,.9-.28.9-.7s-.27-.63-1.09-.84c-1-.28-1.51-.71-1.51-1.44s.67-1.4,1.68-1.4a1.47,1.47,0,0,1,1.68,1.43Z"/><path class="cls-1" d="M732.8,82.65a1.48,1.48,0,0,0,.31.88,1.57,1.57,0,0,0,1.29.65,1.67,1.67,0,0,0,1.44-.82l.69.26a2.34,2.34,0,0,1-2.13,1.29,2.52,2.52,0,1,1,2.4-2.57c0,.06,0,.2,0,.31Zm3.16-.58a1.43,1.43,0,0,0-.27-.82,1.63,1.63,0,0,0-1.32-.66,1.53,1.53,0,0,0-1.29.67,1.79,1.79,0,0,0-.27.81Z"/><path class="cls-1" d="M744.69,80h.79v4.79h-.79v-.92a2,2,0,0,1-1.75,1,2.29,2.29,0,0,1-2.25-2.5A2.33,2.33,0,0,1,743,79.88a2,2,0,0,1,1.73.91Zm-2.78,1.16a2.2,2.2,0,0,0-.39,1.27,1.64,1.64,0,0,0,1.54,1.79,1.77,1.77,0,0,0,1.64-1.87,1.62,1.62,0,0,0-1.62-1.76A1.32,1.32,0,0,0,741.91,81.16Z"/><path class="cls-1" d="M750.72,80l-1.81,4.79h-.84L746.32,80h.83l1.35,3.66L749.9,80Z"/><path class="cls-1" d="M755.07,80h.79v4.79h-.79v-.92a2,2,0,0,1-1.75,1,2.3,2.3,0,0,1-2.26-2.5,2.33,2.33,0,0,1,2.28-2.53,2,2,0,0,1,1.73.91Zm-2.78,1.16a2.2,2.2,0,0,0-.4,1.27,1.65,1.65,0,0,0,1.54,1.79,1.77,1.77,0,0,0,1.65-1.87,1.62,1.62,0,0,0-1.62-1.76A1.32,1.32,0,0,0,752.29,81.16Z"/><path class="cls-1" d="M758.26,83.82c0,.24.08.29.37.29H759v.68h-.74c-.56,0-.78-.21-.78-.74V80.69h-.66V80h.66V78.49h.79V80H759v.69h-.73Z"/><path class="cls-1" d="M763.64,80h.79v4.79h-.79v-.92a2,2,0,0,1-1.74,1,2.29,2.29,0,0,1-2.26-2.5,2.33,2.33,0,0,1,2.28-2.53,2,2,0,0,1,1.72.91Zm-2.78,1.16a2.2,2.2,0,0,0-.39,1.27A1.65,1.65,0,0,0,762,84.22a1.77,1.77,0,0,0,1.64-1.87A1.62,1.62,0,0,0,762,80.59,1.34,1.34,0,0,0,760.86,81.16Z"/><path class="cls-1" d="M766.82,80v.81a1.43,1.43,0,0,1,.43-.64,1.57,1.57,0,0,1,.92-.29h.19v.8h-.22a1.22,1.22,0,0,0-1,.56,1.74,1.74,0,0,0-.28,1.13v2.43H766V80Z"/><rect class="cls-5" x="648.02" y="39.22" width="27.92" height="27.92" transform="translate(156.28 483.67) rotate(-45)"/><g class="cls-6"><rect class="cls-5" x="648.02" y="39.22" width="27.92" height="27.92" transform="translate(156.28 483.67) rotate(-45)"/><path class="cls-7" d="M662,73.28l-20.09-20.1L662,33.09l20.1,20.09Zm-19.39-20.1L662,72.57l19.39-19.39L662,33.8Z"/></g><path class="cls-1" d="M653.84,55.36a3.65,3.65,0,0,1-1.43.25,2.51,2.51,0,0,1-2.66-2.72,2.68,2.68,0,0,1,2.81-2.84,2.94,2.94,0,0,1,1.28.24l-.16.57a2.53,2.53,0,0,0-1.09-.22,2,2,0,0,0-2.11,2.22A2,2,0,0,0,652.56,55a2.7,2.7,0,0,0,1.13-.23Z"/><path class="cls-1" d="M654.69,49.85h.7v2.42h0a1.36,1.36,0,0,1,.51-.5,1.44,1.44,0,0,1,.72-.2c.52,0,1.35.32,1.35,1.66v2.3h-.71V53.31c0-.62-.23-1.15-.89-1.15a1,1,0,0,0-.94.7.87.87,0,0,0-.05.34v2.33h-.7Z"/><path class="cls-1" d="M662.63,53.56a1.89,1.89,0,0,1-1.93,2.06,1.84,1.84,0,0,1-1.85-2,1.89,1.89,0,0,1,1.91-2.06A1.83,1.83,0,0,1,662.63,53.56Zm-3.07,0c0,.85.48,1.49,1.17,1.49s1.18-.63,1.18-1.5c0-.66-.33-1.49-1.16-1.49S659.56,52.87,659.56,53.6Z"/><path class="cls-1" d="M667,53.56a1.89,1.89,0,0,1-1.93,2.06,1.84,1.84,0,0,1-1.85-2,1.89,1.89,0,0,1,1.92-2.06A1.83,1.83,0,0,1,667,53.56Zm-3.07,0c0,.85.49,1.49,1.17,1.49s1.18-.63,1.18-1.5c0-.66-.33-1.49-1.16-1.49S664,52.87,664,53.6Z"/><path class="cls-1" d="M667.81,54.81a1.83,1.83,0,0,0,.93.28c.51,0,.75-.25.75-.57s-.2-.52-.72-.72c-.69-.24-1-.63-1-1.09a1.19,1.19,0,0,1,1.33-1.14,2,2,0,0,1,1,.24l-.18.52a1.45,1.45,0,0,0-.79-.23c-.42,0-.65.24-.65.53s.23.46.74.66c.67.25,1,.59,1,1.16s-.53,1.16-1.44,1.16a2.19,2.19,0,0,1-1.09-.26Z"/><path class="cls-1" d="M671.47,53.72a1.24,1.24,0,0,0,1.33,1.35,2.6,2.6,0,0,0,1.07-.2l.12.5a3.17,3.17,0,0,1-1.29.24,1.79,1.79,0,0,1-1.9-2,1.87,1.87,0,0,1,1.81-2.09,1.64,1.64,0,0,1,1.6,1.83,2.33,2.33,0,0,1,0,.32Zm2.06-.5a1,1,0,0,0-1-1.14,1.16,1.16,0,0,0-1.08,1.14Z"/><polygon class="cls-1" points="533.21 53.12 512.5 53.12 512.5 14.55 327.04 14.55 327.04 13.8 513.25 13.8 513.25 52.37 533.21 52.37 533.21 53.12"/><polygon class="cls-1" points="532.12 56.49 538.59 52.75 532.12 49.01 532.12 56.49"/><polygon class="cls-1" points="513.25 91.7 495.2 91.7 495.2 90.95 512.5 90.95 512.5 52.75 513.25 52.75 513.25 91.7"/></g></g></svg>