<svg xmlns="http://www.w3.org/2000/svg" viewBox="0 0 519.38 140.3"><defs><style>.cls-1{fill:#242156;opacity:0.7;}.cls-2{fill:#e8e8e8;}.cls-3{fill:#d27e66;}.cls-3,.cls-6{opacity:0.5;}.cls-4{fill:#272525;}.cls-5{fill:#d35e5f;}.cls-7{fill:#d04738;}.cls-8{fill:#010101;}</style></defs><title>flow1</title><g id="Layer_2" data-name="Layer 2"><g id="Layer_1-2" data-name="Layer 1"><rect class="cls-1" y="54.07" width="75.75" height="31.48" rx="15.74"/><path class="cls-2" d="M14.29,65.91h1.84a3.09,3.09,0,0,1,3.35,3.36,3.65,3.65,0,0,1-1.09,2.78,3.5,3.5,0,0,1-2.42.8H14.29Zm.87,6.19h.31a3.06,3.06,0,0,0,2.18-.52,2.79,2.79,0,0,0,.94-2.3,2.33,2.33,0,0,0-2.49-2.63h-.94Z"/><path class="cls-2" d="M24.39,68.05h.79v4.8h-.79v-.93a2,2,0,0,1-1.75,1,2.29,2.29,0,0,1-2.25-2.49,2.33,2.33,0,0,1,2.27-2.53,2,2,0,0,1,1.73.9Zm-2.78,1.17a2.17,2.17,0,0,0-.39,1.27,1.64,1.64,0,0,0,1.54,1.79A1.78,1.78,0,0,0,24.4,70.4a1.61,1.61,0,0,0-1.62-1.75A1.3,1.3,0,0,0,21.61,69.22Z"/><path class="cls-2" d="M29,69.36v0c0-.45-.36-.73-.91-.73s-.87.27-.87.69.21.57,1.07.81a2.48,2.48,0,0,1,1.17.55,1.35,1.35,0,0,1,.38.94c0,.83-.68,1.39-1.7,1.39s-1.71-.51-1.79-1.47h.78a.88.88,0,0,0,1,.83c.54,0,.89-.28.89-.71s-.27-.62-1.09-.83c-1-.28-1.51-.72-1.51-1.45s.68-1.39,1.69-1.39a1.46,1.46,0,0,1,1.67,1.42Z"/><path class="cls-2" d="M31.83,68.72a1.78,1.78,0,0,1,1.45-.78,1.58,1.58,0,0,1,1.11.43,1.66,1.66,0,0,1,.38,1.25v3.23H34V69.67c0-.66-.33-1-.9-1a1.23,1.23,0,0,0-.94.42,1.29,1.29,0,0,0-.31,1v2.81H31V65.91h.79Z"/><path class="cls-2" d="M37.12,72.85h-.79V65.91h.79v3a2,2,0,0,1,1.69-.93,2.31,2.31,0,0,1,2.28,2.53A2.28,2.28,0,0,1,38.85,73,2,2,0,0,1,37.12,72Zm0-2.39a1.59,1.59,0,1,0,3.14,0,1.59,1.59,0,1,0-3.14,0Z"/><path class="cls-2" d="M46.79,70.47A2.45,2.45,0,0,1,44.33,73a2.51,2.51,0,1,1,2.46-2.49Zm-4.07,0a1.62,1.62,0,0,0,1.63,1.78A1.65,1.65,0,0,0,46,70.46a1.64,1.64,0,1,0-3.26,0Z"/><path class="cls-2" d="M51.62,68.05h.79v4.8h-.79v-.93a2,2,0,0,1-1.75,1,2.29,2.29,0,0,1-2.26-2.49,2.33,2.33,0,0,1,2.28-2.53,2,2,0,0,1,1.73.9Zm-2.78,1.17a2.18,2.18,0,0,0-.4,1.27A1.65,1.65,0,0,0,50,72.28a1.78,1.78,0,0,0,1.65-1.88A1.61,1.61,0,0,0,50,68.65,1.28,1.28,0,0,0,48.84,69.22Z"/><path class="cls-2" d="M54.79,68.05v.81a1.34,1.34,0,0,1,.44-.63,1.48,1.48,0,0,1,.91-.29h.19v.8h-.22a1.25,1.25,0,0,0-1,.55,1.74,1.74,0,0,0-.28,1.13v2.44H54v-4.8Z"/><path class="cls-2" d="M60.73,65.91h.79v6.94h-.79V72A2,2,0,0,1,59,73a2.28,2.28,0,0,1-2.26-2.48A2.34,2.34,0,0,1,59,67.94a2.06,2.06,0,0,1,1.71.84Zm-3.14,4.58a1.61,1.61,0,0,0,1.54,1.79,1.66,1.66,0,0,0,1.6-1.81,1.61,1.61,0,0,0-1.55-1.82A1.64,1.64,0,0,0,57.59,70.49Z"/><rect class="cls-1" x="454.74" y="54.41" width="64.64" height="31.48" rx="15.74"/><path class="cls-2" d="M481.39,72.26c0,.24.07.29.36.29h.37v.69h-.74c-.56,0-.78-.22-.78-.75V69.14h-.67v-.7h.67V66.93h.79v1.51h.73v.7h-.73Z"/><path class="cls-2" d="M486.77,68.44h.79v4.8h-.79v-.93a2,2,0,0,1-1.75,1,2.29,2.29,0,0,1-2.26-2.49A2.33,2.33,0,0,1,485,68.33a2,2,0,0,1,1.73.9ZM484,69.61a2.17,2.17,0,0,0-.39,1.27,1.64,1.64,0,0,0,1.54,1.79,1.78,1.78,0,0,0,1.64-1.88A1.61,1.61,0,0,0,485.16,69,1.3,1.3,0,0,0,484,69.61Z"/><path class="cls-2" d="M489.94,68.44v.88a1.86,1.86,0,0,1,1.75-1A2.27,2.27,0,0,1,494,70.8a2.29,2.29,0,0,1-3.31,2.3,1.7,1.7,0,0,1-.7-.61v3h-.79v-7Zm0,2.48a1.58,1.58,0,0,0,1.59,1.75,1.63,1.63,0,0,0,1.58-1.83,1.85,1.85,0,0,0-.42-1.3,1.52,1.52,0,0,0-1.13-.5A1.68,1.68,0,0,0,489.94,70.92Z"/><rect class="cls-3" x="252.98" width="69.51" height="28.35"/><path class="cls-4" d="M270.91,12.41h.79v4.83a2.27,2.27,0,0,1-.63,1.76,2.47,2.47,0,0,1-1.77.63,2.72,2.72,0,0,1-2.13-.87l.54-.54a3.54,3.54,0,0,0,.46.42,2.42,2.42,0,0,0,1.13.28,1.76,1.76,0,0,0,1.25-.47,1.7,1.7,0,0,0,.36-1.15v-1a2,2,0,0,1-1.77,1,2.31,2.31,0,0,1-2.22-2.49,2.76,2.76,0,0,1,.76-2,2.14,2.14,0,0,1,1.52-.56,2,2,0,0,1,1.71.93Zm-3.15,2.39a1.65,1.65,0,0,0,1.57,1.8,1.63,1.63,0,0,0,1.22-.59,2,2,0,0,0,.34-1.18,1.67,1.67,0,0,0-.38-1.27,1.58,1.58,0,0,0-2.75,1.24Z"/><path class="cls-4" d="M277.75,14.83a2.45,2.45,0,0,1-2.46,2.49,2.37,2.37,0,0,1-2.42-2.51,2.44,2.44,0,1,1,4.88,0Zm-4.07,0a1.62,1.62,0,0,0,1.63,1.78,1.64,1.64,0,0,0,1.62-1.78,1.63,1.63,0,1,0-3.25,0Z"/><path class="cls-4" d="M283.45,14.83A2.45,2.45,0,0,1,281,17.32a2.37,2.37,0,0,1-2.42-2.51,2.44,2.44,0,1,1,4.88,0Zm-4.07,0A1.63,1.63,0,0,0,281,16.6a1.64,1.64,0,0,0,1.62-1.78,1.64,1.64,0,1,0-3.26,0Z"/><path class="cls-4" d="M288.25,10.27H289v6.94h-.79v-.82a2,2,0,0,1-1.72.93,2.29,2.29,0,0,1-2.26-2.48,2.35,2.35,0,0,1,2.26-2.54,2.07,2.07,0,0,1,1.72.84Zm-3.15,4.58a1.61,1.61,0,0,0,1.54,1.79,1.67,1.67,0,0,0,1.61-1.81A1.62,1.62,0,0,0,286.7,13,1.64,1.64,0,0,0,285.1,14.85Z"/><path class="cls-4" d="M294.54,12.41v.81a1.39,1.39,0,0,1,.44-.63,1.49,1.49,0,0,1,.92-.29h.18v.8h-.22a1.25,1.25,0,0,0-1,.55,1.8,1.8,0,0,0-.28,1.13v2.44h-.79v-4.8Z"/><path class="cls-4" d="M301.38,14.83a2.44,2.44,0,0,1-2.45,2.49,2.37,2.37,0,0,1-2.43-2.51,2.44,2.44,0,1,1,4.88,0Zm-4.07,0A1.63,1.63,0,0,0,299,16.6a1.64,1.64,0,0,0,1.62-1.78,1.64,1.64,0,1,0-3.26,0Z"/><path class="cls-4" d="M308.84,12.41l-1.7,4.8h-.72l-1.1-3.64-1.16,3.64h-.75l-1.64-4.8h.81l1.23,3.53,1.1-3.53h.78l1.08,3.53L308,12.41Z"/><rect class="cls-3" x="252.98" y="111.95" width="69.51" height="28.35"/><path class="cls-4" d="M262.32,124.36V125a1.63,1.63,0,0,1,1.42-.79,1.68,1.68,0,0,1,1.12.39,1.58,1.58,0,0,1,.4,1.28v3.24h-.79V126.1a1.35,1.35,0,0,0-.17-.82.93.93,0,0,0-.75-.32,1.19,1.19,0,0,0-.92.4,1.14,1.14,0,0,0-.31.88v2.92h-.79v-4.8Z"/><path class="cls-4" d="M270.45,124.36h.79v4.8h-.79v-.93a2,2,0,0,1-1.75,1,2.29,2.29,0,0,1-2.26-2.49,2.33,2.33,0,0,1,2.28-2.53,2,2,0,0,1,1.73.9Zm-2.78,1.17a2.18,2.18,0,0,0-.4,1.27,1.65,1.65,0,0,0,1.54,1.79,1.78,1.78,0,0,0,1.65-1.88,1.61,1.61,0,0,0-1.63-1.75A1.28,1.28,0,0,0,267.67,125.53Z"/><path class="cls-4" d="M276.42,124.36v3.07a1.62,1.62,0,0,1-.48,1.35,2.17,2.17,0,0,1-2.77,0,1.75,1.75,0,0,1-.48-1.33v-3.07h.79v3a1.07,1.07,0,0,0,1.08,1.16,1.14,1.14,0,0,0,.85-.37,1,1,0,0,0,.21-.77v-3.07Z"/><path class="cls-4" d="M281.46,124.36h.79v4.83a2.24,2.24,0,0,1-.64,1.76,2.44,2.44,0,0,1-1.77.63,2.71,2.71,0,0,1-2.12-.87l.54-.54a3,3,0,0,0,.46.42,2.41,2.41,0,0,0,1.12.28,1.75,1.75,0,0,0,1.25-.47,1.65,1.65,0,0,0,.37-1.15v-1a2,2,0,0,1-1.77,1,2.31,2.31,0,0,1-2.22-2.49,2.76,2.76,0,0,1,.76-2,2.13,2.13,0,0,1,1.52-.56,2,2,0,0,1,1.71.93Zm-3.16,2.39a1.65,1.65,0,0,0,1.57,1.8,1.61,1.61,0,0,0,1.22-.59,1.9,1.9,0,0,0,.35-1.18,1.67,1.67,0,0,0-.38-1.27,1.6,1.6,0,0,0-1.17-.53A1.62,1.62,0,0,0,278.3,126.75Z"/><path class="cls-4" d="M284.55,125a1.75,1.75,0,0,1,1.44-.78,1.43,1.43,0,0,1,1.49,1.68v3.23h-.79V126c0-.66-.32-1-.89-1a1.22,1.22,0,0,0-.94.42,1.25,1.25,0,0,0-.31,1v2.81h-.79v-6.94h.79Z"/><path class="cls-4" d="M289.89,128.18c0,.24.07.29.36.29h.36v.69h-.73c-.57,0-.78-.22-.78-.75v-3.35h-.67v-.7h.67v-1.51h.79v1.51h.72v.7h-.72Z"/><path class="cls-4" d="M294.75,124.36h.86l-2.86,7.11h-.87l1-2.46-1.7-4.65H292l1.29,3.56Z"/><path class="cls-4" d="M300.38,124.36v.81a1.39,1.39,0,0,1,.43-.63,1.51,1.51,0,0,1,.92-.29h.19v.8h-.22a1.23,1.23,0,0,0-1,.55,1.74,1.74,0,0,0-.28,1.13v2.44h-.79v-4.8Z"/><path class="cls-4" d="M307.21,126.78a2.44,2.44,0,0,1-2.45,2.49,2.51,2.51,0,1,1,2.45-2.49Zm-4.06,0a1.62,1.62,0,0,0,1.63,1.78,1.64,1.64,0,0,0,1.62-1.78,1.63,1.63,0,1,0-3.25,0Z"/><path class="cls-4" d="M314.68,124.36l-1.71,4.8h-.72l-1.1-3.64L310,129.16h-.75l-1.64-4.8h.81l1.23,3.53,1.1-3.53h.78l1.09,3.53,1.25-3.53Z"/><rect class="cls-4" x="75.75" y="69.44" width="27.34" height="0.75"/><polygon class="cls-4" points="101.99 73.55 108.47 69.81 101.99 66.07 101.99 73.55"/><rect class="cls-4" x="149.56" y="69.44" width="37.34" height="0.75"/><polygon class="cls-4" points="185.81 73.55 192.28 69.81 185.81 66.07 185.81 73.55"/><rect class="cls-4" x="352.12" y="69.44" width="19.42" height="0.75"/><polygon class="cls-4" points="370.44 73.55 376.92 69.81 370.44 66.07 370.44 73.55"/><rect class="cls-4" x="429.94" y="69.44" width="19.42" height="0.75"/><polygon class="cls-4" points="448.26 73.55 454.74 69.81 448.26 66.07 448.26 73.55"/><polygon class="cls-4" points="219.28 43.89 218.53 43.89 218.53 13.8 247.41 13.8 247.41 14.55 219.28 14.55 219.28 43.89"/><polygon class="cls-4" points="246.31 17.91 252.79 14.17 246.31 10.43 246.31 17.91"/><polygon class="cls-4" points="247.41 126.5 218.53 126.5 218.53 96.41 219.28 96.41 219.28 125.75 247.41 125.75 247.41 126.5"/><polygon class="cls-4" points="246.31 129.86 252.79 126.12 246.31 122.38 246.31 129.86"/><rect class="cls-5" x="116.76" y="51.38" width="37.64" height="37.64" transform="translate(-9.93 116.43) rotate(-45)"/><g class="cls-6"><rect class="cls-5" x="116.76" y="51.38" width="37.64" height="37.64" transform="translate(-9.93 116.43) rotate(-45)"/><path class="cls-7" d="M135.58,97.18l-27-27,27-27,27,27Zm-26.27-27,26.27,26.27L161.84,70.2,135.58,43.94Z"/></g><path class="cls-8" d="M120,66.87h.7v5.68H120Z"/><path class="cls-8" d="M125.42,70.58a1.89,1.89,0,0,1-1.93,2.06,1.84,1.84,0,0,1-1.85-2,1.89,1.89,0,0,1,1.92-2.06A1.83,1.83,0,0,1,125.42,70.58Zm-3.07,0c0,.85.49,1.49,1.17,1.49s1.18-.63,1.18-1.5c0-.66-.33-1.49-1.16-1.49S122.35,69.89,122.35,70.62Z"/><path class="cls-8" d="M129.07,72.41a2.72,2.72,0,0,1-1.11.22,1.84,1.84,0,0,1-1.93-2,2,2,0,0,1,2.08-2.06,2.49,2.49,0,0,1,1,.2l-.17.55a1.55,1.55,0,0,0-.81-.19,1.46,1.46,0,0,0,0,2.91,2,2,0,0,0,.86-.19Z"/><path class="cls-8" d="M132,72.55l-.06-.49h0a1.44,1.44,0,0,1-1.19.58,1.1,1.1,0,0,1-1.18-1.11c0-.94.83-1.45,2.33-1.44V70a.8.8,0,0,0-.88-.9,2,2,0,0,0-1,.29l-.16-.46a2.37,2.37,0,0,1,1.27-.35c1.19,0,1.47.81,1.47,1.59v1.44a5.18,5.18,0,0,0,.07.93Zm-.11-2c-.76,0-1.64.12-1.64.87a.63.63,0,0,0,.67.67,1,1,0,0,0,.93-.65.57.57,0,0,0,0-.22Z"/><path class="cls-8" d="M134.57,67.57v1.11h1v.54h-1V71.3c0,.48.13.76.52.76a1.73,1.73,0,0,0,.41,0l0,.53a1.85,1.85,0,0,1-.62.09,1,1,0,0,1-.76-.29,1.45,1.45,0,0,1-.27-1V69.22h-.6v-.54h.6v-.93Z"/><path class="cls-8" d="M136.71,70.75A1.24,1.24,0,0,0,138,72.09a2.6,2.6,0,0,0,1.07-.2l.12.5a3.17,3.17,0,0,1-1.29.24,1.79,1.79,0,0,1-1.9-1.95,1.88,1.88,0,0,1,1.81-2.09,1.64,1.64,0,0,1,1.6,1.83,2.63,2.63,0,0,1,0,.33Zm2.06-.51a1,1,0,0,0-1-1.14,1.16,1.16,0,0,0-1.08,1.14Z"/><path class="cls-8" d="M142.72,70.46h0a4.82,4.82,0,0,1,.35-.44l1.13-1.34h.85l-1.5,1.59,1.71,2.28h-.86l-1.33-1.85-.36.4v1.45H142V66.87h.7Z"/><path class="cls-8" d="M146.69,67.59a.41.41,0,0,1-.44.44.44.44,0,1,1,0-.87A.41.41,0,0,1,146.69,67.59Zm-.78,5V68.68h.7v3.87Z"/><path class="cls-8" d="M151.12,66.87v4.68a9.91,9.91,0,0,0,0,1h-.64l0-.67h0a1.44,1.44,0,0,1-1.32.76,1.77,1.77,0,0,1-1.66-2,1.85,1.85,0,0,1,1.74-2.08,1.26,1.26,0,0,1,1.16.6h0V66.87Zm-.7,3.39a1.53,1.53,0,0,0,0-.3,1,1,0,0,0-1-.81c-.72,0-1.16.64-1.16,1.49s.39,1.43,1.15,1.43a1.06,1.06,0,0,0,1-.84,1.39,1.39,0,0,0,0-.3Z"/><rect class="cls-5" x="200.08" y="51.38" width="37.64" height="37.64" transform="translate(14.47 175.35) rotate(-45)"/><g class="cls-6"><rect class="cls-5" x="200.08" y="51.38" width="37.64" height="37.64" transform="translate(14.47 175.35) rotate(-45)"/><path class="cls-7" d="M218.9,97.18l-27-27,27-27,27,27Zm-26.26-27L218.9,96.47,245.17,70.2,218.9,43.94Z"/></g><path class="cls-8" d="M205.22,72.41a2.68,2.68,0,0,1-1.11.22,1.84,1.84,0,0,1-1.93-2,2,2,0,0,1,2.08-2.06,2.49,2.49,0,0,1,1,.2l-.16.55a1.59,1.59,0,0,0-.82-.19,1.46,1.46,0,0,0,0,2.91,2,2,0,0,0,.86-.19Z"/><path class="cls-8" d="M206.05,66.87h.7v2.42h0a1.27,1.27,0,0,1,.5-.5,1.47,1.47,0,0,1,.72-.2c.52,0,1.35.32,1.35,1.66v2.3h-.7V70.33c0-.62-.24-1.15-.9-1.15a1,1,0,0,0-.94.7.87.87,0,0,0-.05.34v2.33h-.7Z"/><path class="cls-8" d="M214,70.58a1.89,1.89,0,0,1-1.93,2.06,1.84,1.84,0,0,1-1.85-2,1.89,1.89,0,0,1,1.92-2.06A1.83,1.83,0,0,1,214,70.58Zm-3.07,0c0,.85.49,1.49,1.17,1.49s1.18-.63,1.18-1.5c0-.66-.33-1.49-1.16-1.49S210.92,69.89,210.92,70.62Z"/><path class="cls-8" d="M214.78,71.83a1.83,1.83,0,0,0,.93.28c.51,0,.75-.25.75-.57s-.2-.52-.72-.71c-.69-.25-1-.64-1-1.1a1.19,1.19,0,0,1,1.33-1.14,2.08,2.08,0,0,1,1,.24l-.18.52a1.45,1.45,0,0,0-.79-.23c-.42,0-.65.24-.65.53s.23.46.74.66c.67.25,1,.59,1,1.16s-.53,1.16-1.45,1.16a2.18,2.18,0,0,1-1.08-.26Z"/><path class="cls-8" d="M218.44,70.75a1.23,1.23,0,0,0,1.33,1.34,2.6,2.6,0,0,0,1.07-.2l.12.5a3.21,3.21,0,0,1-1.29.24,1.79,1.79,0,0,1-1.9-1.95,1.87,1.87,0,0,1,1.81-2.09,1.65,1.65,0,0,1,1.6,1.83c0,.14,0,.25,0,.33Zm2.06-.51a1,1,0,0,0-1-1.14,1.15,1.15,0,0,0-1.07,1.14Z"/><path class="cls-8" d="M223.75,69.89c0-.46,0-.85,0-1.21h.61l0,.76h0a1.17,1.17,0,0,1,1.07-.85.6.6,0,0,1,.2,0v.66l-.24,0a1,1,0,0,0-.94.9,1.69,1.69,0,0,0,0,.33v2.06h-.7Z"/><path class="cls-8" d="M229.79,70.58a1.89,1.89,0,0,1-1.93,2.06,1.84,1.84,0,0,1-1.85-2,1.89,1.89,0,0,1,1.91-2.06A1.83,1.83,0,0,1,229.79,70.58Zm-3.07,0c0,.85.48,1.49,1.17,1.49s1.18-.63,1.18-1.5c0-.66-.33-1.49-1.16-1.49S226.72,69.89,226.72,70.62Z"/><path class="cls-8" d="M230.9,68.68l.51,2c.12.43.22.83.29,1.23h0a12.5,12.5,0,0,1,.34-1.22l.63-2h.59l.6,1.94c.15.46.26.87.35,1.26h0a10.76,10.76,0,0,1,.3-1.26l.55-1.94h.69l-1.24,3.87h-.64l-.6-1.84c-.13-.44-.24-.82-.34-1.28h0a10.77,10.77,0,0,1-.36,1.28L232,72.55h-.64l-1.17-3.87Z"/><rect class="cls-5" x="384.72" y="50.99" width="37.64" height="37.64" transform="translate(68.83 305.79) rotate(-45)"/><g class="cls-6"><rect class="cls-5" x="384.72" y="50.99" width="37.64" height="37.64" transform="translate(68.83 305.79) rotate(-45)"/><path class="cls-7" d="M403.54,96.79l-27-27,27-27,27,27Zm-26.27-27,26.27,26.27L429.8,69.81,403.54,43.55Z"/></g><path class="cls-8" d="M395.48,66.64a1.83,1.83,0,0,0,.93.28c.51,0,.75-.25.75-.57s-.2-.52-.72-.72c-.7-.24-1-.63-1-1.09a1.19,1.19,0,0,1,1.33-1.14,2,2,0,0,1,.95.24l-.17.52a1.52,1.52,0,0,0-.8-.23c-.41,0-.64.24-.64.53s.23.46.73.66c.67.25,1,.59,1,1.16s-.53,1.16-1.45,1.16a2.25,2.25,0,0,1-1.09-.26Z"/><path class="cls-8" d="M398.74,61.68h.71v5.68h-.71Z"/><path class="cls-8" d="M401,65.55a1.25,1.25,0,0,0,1.33,1.35,2.57,2.57,0,0,0,1.07-.2l.12.5a3.17,3.17,0,0,1-1.29.24,1.79,1.79,0,0,1-1.9-2,1.88,1.88,0,0,1,1.82-2.09,1.65,1.65,0,0,1,1.6,1.83,2,2,0,0,1,0,.32Zm2.07-.5a1,1,0,0,0-1-1.14A1.17,1.17,0,0,0,401,65.05Z"/><path class="cls-8" d="M407.4,67.22a2.72,2.72,0,0,1-1.11.22,1.84,1.84,0,0,1-1.93-2,2,2,0,0,1,2.08-2.06,2.44,2.44,0,0,1,1,.2l-.16.55a1.55,1.55,0,0,0-.81-.19,1.46,1.46,0,0,0,0,2.91,2,2,0,0,0,.87-.19Z"/><path class="cls-8" d="M409.18,62.38v1.11h1V64h-1v2.08c0,.48.13.76.52.76a1.73,1.73,0,0,0,.41-.05l0,.53a1.85,1.85,0,0,1-.62.09,1,1,0,0,1-.76-.29,1.45,1.45,0,0,1-.27-1V64h-.6v-.54h.6v-.93Z"/><path class="cls-8" d="M389.33,77c0-.26,0-.65,0-1V71.29h.7v2.43h0a1.44,1.44,0,0,1,1.32-.72c1,0,1.64.8,1.64,2a1.85,1.85,0,0,1-1.74,2.07,1.37,1.37,0,0,1-1.29-.73h0l0,.64Zm.73-1.55a1.07,1.07,0,0,0,1.09,1.08c.73,0,1.17-.6,1.17-1.49s-.4-1.44-1.15-1.44a1.18,1.18,0,0,0-1.11,1.15Z"/><path class="cls-8" d="M394.31,75.15a1.23,1.23,0,0,0,1.32,1.35,2.62,2.62,0,0,0,1.08-.2l.12.5a3.21,3.21,0,0,1-1.29.24,1.79,1.79,0,0,1-1.9-2A1.87,1.87,0,0,1,395.45,73a1.65,1.65,0,0,1,1.6,1.83c0,.14,0,.25,0,.32Zm2.06-.5a1,1,0,0,0-1-1.14,1.15,1.15,0,0,0-1.07,1.14Z"/><path class="cls-8" d="M397.92,71.29h.71V73.7h0a1.29,1.29,0,0,1,.51-.5,1.41,1.41,0,0,1,.72-.2c.52,0,1.35.32,1.35,1.66V77h-.71V74.74c0-.62-.23-1.15-.89-1.15a1,1,0,0,0-.95.7.88.88,0,0,0,0,.34V77h-.71Z"/><path class="cls-8" d="M404.51,77l-.06-.49h0a1.45,1.45,0,0,1-1.19.58,1.1,1.1,0,0,1-1.18-1.11c0-.94.83-1.45,2.33-1.44v-.08a.8.8,0,0,0-.88-.9,2,2,0,0,0-1,.29l-.16-.46a2.37,2.37,0,0,1,1.27-.35c1.18,0,1.47.81,1.47,1.59V76a5.18,5.18,0,0,0,.07.93Zm-.11-2c-.77,0-1.64.12-1.64.87a.63.63,0,0,0,.67.67,1,1,0,0,0,.93-.65.57.57,0,0,0,0-.22Z"/><path class="cls-8" d="M406.43,73.09l.76,2.18a9.26,9.26,0,0,1,.31,1h0c.09-.32.2-.64.33-1l.75-2.18h.74L407.82,77h-.67l-1.47-3.87Z"/><path class="cls-8" d="M410.79,72a.43.43,0,0,1-.45.44.42.42,0,0,1-.42-.44.43.43,0,0,1,.44-.44A.42.42,0,0,1,410.79,72ZM410,77V73.09h.71V77Z"/><path class="cls-8" d="M415.38,75a1.89,1.89,0,0,1-1.93,2,1.84,1.84,0,0,1-1.85-2A1.89,1.89,0,0,1,413.51,73,1.84,1.84,0,0,1,415.38,75Zm-3.07,0c0,.84.48,1.48,1.17,1.48s1.18-.63,1.18-1.5c0-.66-.33-1.49-1.16-1.49S412.31,74.3,412.31,75Z"/><path class="cls-8" d="M416.27,74.3c0-.46,0-.85,0-1.21h.62l0,.76h0A1.16,1.16,0,0,1,418,73a.64.64,0,0,1,.2,0v.66l-.24,0a1,1,0,0,0-.95.9,3.11,3.11,0,0,0,0,.33V77h-.69Z"/><polygon class="cls-4" points="352.38 126.5 322.49 126.5 322.49 125.75 351.63 125.75 351.63 14.55 322.49 14.55 322.49 13.8 352.38 13.8 352.38 126.5"/></g></g></svg>