<svg xmlns="http://www.w3.org/2000/svg" viewBox="0 0 166.28 577.34"><defs><style>.cls-1{fill:#fff;}.cls-2{fill:#272525;}.cls-3{fill:#242156;opacity:0.7;}.cls-4{fill:#e8e8e8;}.cls-5{fill:#d27e66;}.cls-5,.cls-7{opacity:0.5;}.cls-6{fill:#d35e5f;}.cls-8{fill:#d04738;}.cls-9{fill:#010101;}</style></defs><title>flow2mobile</title><g id="Layer_2" data-name="Layer 2"><g id="Layer_1-2" data-name="Layer 1"><polygon class="cls-1" points="37.05 136.29 37.05 161.11 33.68 161.11 37.42 167.58 41.16 161.11 37.8 161.11 37.8 136.29 37.05 136.29"/><polygon class="cls-1" points="128.22 136.29 128.22 161.11 124.85 161.11 128.59 167.58 132.33 161.11 128.97 161.11 128.97 136.29 128.22 136.29"/><polygon class="cls-1" points="37.05 342.5 83.06 342.5 83.06 358.57 79.69 358.57 83.43 365.05 87.17 358.57 83.81 358.57 83.81 342.5 128.97 342.5 128.97 315.23 128.22 315.23 128.22 341.75 83.81 341.75 83.43 341.75 37.8 341.75 37.8 195.97 74.35 195.97 74.35 167.62 0.49 167.62 0.49 195.97 37.05 195.97 37.05 342.5"/><polygon class="cls-1" points="128.22 255.4 128.22 280.22 124.85 280.22 128.59 286.7 132.33 280.22 128.97 280.22 128.97 255.4 128.22 255.4"/><rect class="cls-1" x="45.56" width="75.75" height="31.48" rx="15.74"/><path class="cls-1" d="M51.11,561.6h0a15.74,15.74,0,0,0,15.74,15.74H100a15.74,15.74,0,0,0,15.74-15.74h0A15.74,15.74,0,0,0,100,545.86H66.85A15.74,15.74,0,0,0,51.11,561.6Z"/><polygon class="cls-1" points="66.16 107.94 37.42 107.94 8.68 107.94 8.68 136.29 66.16 136.29 66.16 107.94"/><polygon class="cls-1" points="161.53 195.97 161.53 167.62 95.65 167.62 95.65 195.97 128.22 195.97 128.22 220.58 124.85 220.58 128.59 227.06 97.04 227.06 97.04 255.4 160.15 255.4 160.15 227.06 128.59 227.06 132.33 220.58 128.97 220.58 128.97 195.97 161.53 195.97"/><rect class="cls-1" x="105.15" y="286.88" width="46.88" height="28.35"/><polygon class="cls-1" points="99.85 136.29 157.33 136.29 157.33 107.94 128.59 107.94 99.85 107.94 99.85 136.29"/><polygon class="cls-1" points="46.98 393.39 119.88 393.39 119.88 365.05 83.43 365.05 46.98 365.05 46.98 393.39"/><polygon class="cls-1" points="37.8 101.47 37.8 74.43 63.71 74.43 83.43 94.15 103.15 74.43 128.22 74.43 128.22 101.47 124.85 101.47 128.59 107.94 132.33 101.47 128.97 101.47 128.97 73.68 103.15 73.68 83.56 54.09 87.17 47.84 83.81 47.84 83.81 31.48 83.06 31.48 83.06 47.84 79.69 47.84 83.3 54.09 63.71 73.68 37.05 73.68 37.05 101.47 33.68 101.47 37.42 107.94 41.16 101.47 37.8 101.47"/><path class="cls-1" d="M166,478.32H128.59l3.74-6.48H129V444.05H103.15L83.56,424.46l3.61-6.25H83.8V393.39h-.75v24.82H79.69l3.61,6.25L63.71,444.05H37.05v27.79H33.68l3.74,6.48H0v28.34H37.05v20H84.1v12.74H80.74l3.74,6.48,3.74-6.48H84.85V526.64H129v-20h37Zm-37.79,47.57H37.8V506.66h37V478.32H37.42l3.74-6.48H37.8v-27H63.71l19.72,19.72,19.72-19.72h25.07v27h-3.37l3.74,6.48H91.17v28.34h37.05Z"/><rect class="cls-2" x="37.31" y="136.29" width="0.75" height="25.91"/><polygon class="cls-2" points="33.95 161.11 37.69 167.58 41.43 161.11 33.95 161.11"/><rect class="cls-2" x="128.49" y="136.29" width="0.75" height="25.91"/><polygon class="cls-2" points="125.12 161.11 128.86 167.58 132.6 161.11 125.12 161.11"/><polygon class="cls-2" points="84.07 359.66 83.32 359.66 83.32 342.5 37.31 342.5 37.31 195.76 38.06 195.76 38.06 341.75 84.07 341.75 84.07 359.66"/><polygon class="cls-2" points="79.96 358.57 83.7 365.05 87.44 358.57 79.96 358.57"/><rect class="cls-2" x="128.49" y="195.76" width="0.75" height="25.91"/><polygon class="cls-2" points="125.12 220.58 128.86 227.06 132.6 220.58 125.12 220.58"/><rect class="cls-2" x="128.49" y="255.4" width="0.75" height="25.91"/><polygon class="cls-2" points="125.12 280.22 128.86 286.7 132.6 280.22 125.12 280.22"/><polygon class="cls-2" points="85.12 540.48 84.37 540.48 84.37 525.88 128.49 525.88 128.49 506.66 129.24 506.66 129.24 526.63 85.12 526.63 85.12 540.48"/><polygon class="cls-2" points="81.01 539.38 84.75 545.86 88.49 539.38 81.01 539.38"/><rect class="cls-2" x="83.32" y="393.39" width="0.75" height="25.91"/><polygon class="cls-2" points="79.96 418.21 83.7 424.69 87.44 418.21 79.96 418.21"/><rect class="cls-3" x="45.82" width="75.75" height="31.48" rx="15.74"/><path class="cls-4" d="M63.63,11.84h.79v6.94h-.79V18a2,2,0,0,1-1.72.94,2.29,2.29,0,0,1-2.26-2.49,2.35,2.35,0,0,1,2.26-2.54,2.08,2.08,0,0,1,1.72.85Zm-3.15,4.57A1.61,1.61,0,0,0,62,18.2a1.67,1.67,0,0,0,1.61-1.81,1.62,1.62,0,0,0-1.55-1.82A1.65,1.65,0,0,0,60.48,16.41Z"/><path class="cls-4" d="M69.59,14h.79v4.8h-.79v-.93a2,2,0,0,1-1.75,1,2.3,2.3,0,0,1-2.26-2.5,2.34,2.34,0,0,1,2.28-2.53,2,2,0,0,1,1.73.91Zm-2.78,1.16a2.22,2.22,0,0,0-.39,1.27A1.64,1.64,0,0,0,68,18.2a1.77,1.77,0,0,0,1.64-1.87A1.62,1.62,0,0,0,68,14.57,1.32,1.32,0,0,0,66.81,15.14Z"/><path class="cls-4" d="M74.18,15.29v0c0-.45-.36-.73-.92-.73s-.86.27-.86.69.21.57,1.07.81a2.48,2.48,0,0,1,1.17.55,1.33,1.33,0,0,1,.38.94c0,.83-.68,1.39-1.7,1.39s-1.71-.51-1.79-1.48h.78a.89.89,0,0,0,1,.84c.54,0,.89-.28.89-.71s-.27-.63-1.09-.83c-1-.28-1.51-.72-1.51-1.45s.68-1.4,1.69-1.4A1.47,1.47,0,0,1,75,15.29Z"/><path class="cls-4" d="M77,14.64a1.78,1.78,0,0,1,1.45-.78,1.61,1.61,0,0,1,1.11.44A1.66,1.66,0,0,1,80,15.55v3.23h-.79V15.59c0-.65-.33-1-.9-1A1.27,1.27,0,0,0,77,16v2.81h-.79V11.84H77Z"/><path class="cls-4" d="M82.32,18.78h-.79V11.84h.79v3A2,2,0,0,1,84,13.86a2.31,2.31,0,0,1,2.28,2.53,2.28,2.28,0,0,1-2.23,2.5A2,2,0,0,1,82.32,18Zm0-2.4a1.59,1.59,0,1,0,3.14,0,1.59,1.59,0,1,0-3.14,0Z"/><path class="cls-4" d="M92,16.39a2.45,2.45,0,0,1-2.45,2.5,2.36,2.36,0,0,1-2.42-2.52,2.44,2.44,0,1,1,4.87,0Zm-4.06,0a1.62,1.62,0,0,0,1.63,1.78,1.64,1.64,0,0,0,1.62-1.78,1.63,1.63,0,1,0-3.25,0Z"/><path class="cls-4" d="M96.81,14h.8v4.8h-.8v-.93a2,2,0,0,1-1.74,1,2.29,2.29,0,0,1-2.26-2.5,2.34,2.34,0,0,1,2.28-2.53,2,2,0,0,1,1.72.91ZM94,15.14a2.23,2.23,0,0,0-.4,1.27,1.65,1.65,0,0,0,1.54,1.79,1.77,1.77,0,0,0,1.64-1.87,1.62,1.62,0,0,0-1.62-1.76A1.31,1.31,0,0,0,94,15.14Z"/><path class="cls-4" d="M100,14v.81a1.27,1.27,0,0,1,.44-.63,1.46,1.46,0,0,1,.91-.3h.19v.81h-.22a1.21,1.21,0,0,0-1,.55,1.74,1.74,0,0,0-.28,1.13v2.44H99.2V14Z"/><path class="cls-4" d="M105.93,11.84h.79v6.94h-.79V18a2,2,0,0,1-1.72.94A2.28,2.28,0,0,1,102,16.4a2.34,2.34,0,0,1,2.25-2.54,2.08,2.08,0,0,1,1.72.85Zm-3.14,4.57a1.6,1.6,0,0,0,1.54,1.79,1.66,1.66,0,0,0,1.6-1.81,1.62,1.62,0,0,0-1.55-1.82A1.64,1.64,0,0,0,102.79,16.41Z"/><rect class="cls-3" x="51.38" y="545.86" width="64.64" height="31.48" rx="15.74"/><path class="cls-4" d="M76.14,561.15v0c0-.45-.37-.73-.92-.73s-.86.27-.86.68.21.58,1.07.82a2.39,2.39,0,0,1,1.16.55,1.33,1.33,0,0,1,.39.93c0,.84-.69,1.4-1.71,1.4a1.56,1.56,0,0,1-1.79-1.48h.78a.89.89,0,0,0,1,.83c.54,0,.9-.28.9-.7s-.27-.63-1.1-.84c-1-.28-1.5-.71-1.5-1.44s.67-1.4,1.68-1.4a1.47,1.47,0,0,1,1.68,1.43Z"/><path class="cls-4" d="M81.77,559.84h.79v4.8h-.79v-.93a2,2,0,0,1-1.75,1,2.3,2.3,0,0,1-2.26-2.5A2.33,2.33,0,0,1,80,559.72a2,2,0,0,1,1.73.91ZM79,561a2.2,2.2,0,0,0-.4,1.27,1.65,1.65,0,0,0,1.54,1.79,1.77,1.77,0,0,0,1.65-1.87,1.62,1.62,0,0,0-1.63-1.76A1.31,1.31,0,0,0,79,561Z"/><path class="cls-4" d="M87.79,559.84,86,564.64h-.83l-1.76-4.8h.83l1.36,3.66L87,559.84Z"/><path class="cls-4" d="M89,562.49a1.48,1.48,0,0,0,.31.88,1.57,1.57,0,0,0,1.29.65A1.67,1.67,0,0,0,92,563.2l.69.26a2.34,2.34,0,0,1-2.13,1.29,2.52,2.52,0,1,1,2.4-2.57v.31Zm3.16-.58a1.43,1.43,0,0,0-.27-.82,1.63,1.63,0,0,0-1.32-.66,1.53,1.53,0,0,0-1.29.67,1.79,1.79,0,0,0-.27.81Z"/><rect class="cls-5" x="8.95" y="107.94" width="57.48" height="28.35"/><path class="cls-2" d="M26.91,121.36v-2h.48v2h2.13v.46H27.39v2h-.48v-2H24.78v-.46Z"/><path class="cls-2" d="M37.29,120.35h.79v4.8h-.79v-.93a2,2,0,0,1-1.75,1,2.29,2.29,0,0,1-2.26-2.49,2.33,2.33,0,0,1,2.28-2.53,2,2,0,0,1,1.73.9Zm-2.78,1.17a2.18,2.18,0,0,0-.4,1.27,1.65,1.65,0,0,0,1.54,1.79,1.77,1.77,0,0,0,1.65-1.87A1.62,1.62,0,0,0,35.67,121,1.28,1.28,0,0,0,34.51,121.52Z"/><path class="cls-2" d="M43.26,118.21h.79v6.94h-.79v-.82a2,2,0,0,1-1.72.93,2.28,2.28,0,0,1-2.25-2.48,2.34,2.34,0,0,1,2.25-2.54,2.07,2.07,0,0,1,1.72.84Zm-3.14,4.58a1.61,1.61,0,0,0,1.54,1.79,1.67,1.67,0,0,0,1.6-1.81A1.61,1.61,0,0,0,41.71,121,1.64,1.64,0,0,0,40.12,122.79Z"/><path class="cls-2" d="M49.23,118.21H50v6.94h-.8v-.82a2,2,0,0,1-1.71.93,2.29,2.29,0,0,1-2.26-2.48,2.35,2.35,0,0,1,2.26-2.54,2,2,0,0,1,1.71.84Zm-3.14,4.58a1.61,1.61,0,0,0,1.54,1.79,1.66,1.66,0,0,0,1.6-1.81A1.61,1.61,0,0,0,47.68,121,1.65,1.65,0,0,0,46.09,122.79Z"/><rect class="cls-5" x="0.76" y="167.62" width="73.86" height="28.35"/><path class="cls-2" d="M18.53,181v-2H19v2h2.14v.46H19v2h-.48v-2H16.4V181Z"/><path class="cls-2" d="M29,184.24a2.45,2.45,0,0,1-1.77.71,2.34,2.34,0,0,1-2.35-2.5A2.42,2.42,0,0,1,29,180.64l-.51.51a1.72,1.72,0,0,0-1.21-.5,1.8,1.8,0,0,0,0,3.57,1.67,1.67,0,0,0,1.22-.52Z"/><path class="cls-2" d="M30.72,180.7a1.76,1.76,0,0,1,1.45-.78,1.61,1.61,0,0,1,1.11.44,1.64,1.64,0,0,1,.37,1.25v3.22h-.79v-3.18c0-.66-.32-1-.89-1a1.23,1.23,0,0,0-.94.42,1.25,1.25,0,0,0-.31,1v2.81h-.79v-6.94h.79Z"/><path class="cls-2" d="M36.12,178.69a.5.5,0,0,1-.51.5.51.51,0,0,1,0-1A.51.51,0,0,1,36.12,178.69ZM36,184.83h-.79V180H36Z"/><path class="cls-2" d="M37.6,184.83v-6.94h.79v6.94Z"/><path class="cls-2" d="M43.57,177.89h.79v6.94h-.79V184a2,2,0,0,1-1.71.94,2.28,2.28,0,0,1-2.26-2.49,2.34,2.34,0,0,1,2.26-2.54,2.06,2.06,0,0,1,1.71.84Zm-3.14,4.58A1.61,1.61,0,0,0,42,184.26a1.66,1.66,0,0,0,1.6-1.81A1.62,1.62,0,0,0,42,180.63,1.64,1.64,0,0,0,40.43,182.47Z"/><path class="cls-2" d="M46.75,180v.82a1.37,1.37,0,0,1,.43-.64,1.51,1.51,0,0,1,.92-.29h.19v.8h-.22a1.23,1.23,0,0,0-1,.55,1.77,1.77,0,0,0-.28,1.14v2.43H46V180Z"/><path class="cls-2" d="M49.55,182.69a1.47,1.47,0,0,0,.31.87,1.55,1.55,0,0,0,1.29.66,1.66,1.66,0,0,0,1.43-.83l.7.27A2.34,2.34,0,0,1,51.15,185a2.52,2.52,0,1,1,2.4-2.57c0,.06,0,.19,0,.31Zm3.16-.59a1.46,1.46,0,0,0-.27-.82,1.65,1.65,0,0,0-1.32-.65,1.55,1.55,0,0,0-1.29.66,1.84,1.84,0,0,0-.27.81Z"/><path class="cls-2" d="M55.49,180v.68a1.63,1.63,0,0,1,1.42-.79,1.68,1.68,0,0,1,1.12.39,1.59,1.59,0,0,1,.4,1.29v3.23h-.79v-3.06a1.37,1.37,0,0,0-.17-.82.93.93,0,0,0-.75-.32,1.19,1.19,0,0,0-.92.4,1.14,1.14,0,0,0-.31.88v2.92H54.7V180Z"/><rect class="cls-5" x="95.92" y="167.62" width="65.88" height="28.35"/><path class="cls-2" d="M110,180v.67a1.51,1.51,0,0,1,1.37-.78,1.24,1.24,0,0,1,1.29.87,1.57,1.57,0,0,1,1.52-.87,1.44,1.44,0,0,1,1.21.51,1.88,1.88,0,0,1,.3,1.33v3.07h-.8V182c0-.58,0-.72-.13-.92a.94.94,0,0,0-.83-.4c-.7,0-1.08.47-1.08,1.32v2.88h-.8V182a1.88,1.88,0,0,0-.15-.92.83.83,0,0,0-.78-.41c-.7,0-1.12.5-1.12,1.33v2.87h-.79V180Z"/><path class="cls-2" d="M117.72,182.69a1.47,1.47,0,0,0,.31.87,1.55,1.55,0,0,0,1.29.66,1.66,1.66,0,0,0,1.43-.83l.7.27a2.35,2.35,0,0,1-2.13,1.29,2.52,2.52,0,1,1,2.4-2.57c0,.06,0,.19,0,.31Zm3.16-.59a1.46,1.46,0,0,0-.27-.82,1.65,1.65,0,0,0-1.32-.65,1.55,1.55,0,0,0-1.29.66,1.84,1.84,0,0,0-.27.81Z"/><path class="cls-2" d="M123.66,180v.67a1.49,1.49,0,0,1,1.36-.78,1.24,1.24,0,0,1,1.29.87,1.57,1.57,0,0,1,1.52-.87,1.46,1.46,0,0,1,1.22.51c.23.3.29.57.29,1.33v3.07h-.79V182c0-.58,0-.72-.14-.92a.92.92,0,0,0-.83-.4c-.7,0-1.08.47-1.08,1.32v2.88h-.79V182a1.75,1.75,0,0,0-.16-.92.82.82,0,0,0-.78-.41c-.7,0-1.11.5-1.11,1.33v2.87h-.79V180Z"/><path class="cls-2" d="M131.69,184.83h-.79v-6.94h.79v3a2,2,0,0,1,1.69-.94,2.31,2.31,0,0,1,2.28,2.53,2.28,2.28,0,0,1-2.24,2.5,2,2,0,0,1-1.73-.94Zm0-2.39a1.59,1.59,0,1,0,3.14,0,1.59,1.59,0,1,0-3.14,0Z"/><path class="cls-2" d="M137.32,182.69a1.54,1.54,0,0,0,.31.87,1.57,1.57,0,0,0,1.29.66,1.66,1.66,0,0,0,1.44-.83l.7.27a2.47,2.47,0,1,1-2.17-3.74,2.39,2.39,0,0,1,2.44,2.46c0,.06,0,.19,0,.31Zm3.16-.59a1.46,1.46,0,0,0-.27-.82,1.65,1.65,0,0,0-1.32-.65,1.55,1.55,0,0,0-1.29.66,2,2,0,0,0-.27.81Z"/><path class="cls-2" d="M143.26,180v.82a1.38,1.38,0,0,1,.44-.64,1.49,1.49,0,0,1,.92-.29h.18v.8h-.21a1.25,1.25,0,0,0-1.05.55,1.83,1.83,0,0,0-.28,1.14v2.43h-.79V180Z"/><path class="cls-2" d="M148,181.35v-.06c0-.44-.36-.73-.92-.73s-.86.28-.86.69.21.57,1.07.81a2.58,2.58,0,0,1,1.17.55,1.35,1.35,0,0,1,.38.94c0,.83-.68,1.4-1.7,1.4s-1.71-.51-1.79-1.48h.78a.88.88,0,0,0,1,.83c.54,0,.89-.28.89-.71s-.27-.62-1.09-.83c-1-.28-1.51-.72-1.51-1.45s.68-1.39,1.69-1.39a1.46,1.46,0,0,1,1.67,1.43Z"/><rect class="cls-5" x="97.3" y="227.06" width="63.11" height="28.35"/><path class="cls-2" d="M113.73,239.47h.79v4.8h-.79v-.93a2,2,0,0,1-1.75,1,2.3,2.3,0,0,1-2.26-2.5,2.34,2.34,0,0,1,2.28-2.53,2,2,0,0,1,1.73.91ZM111,240.63a2.2,2.2,0,0,0-.39,1.27,1.64,1.64,0,0,0,1.54,1.79,1.77,1.77,0,0,0,1.64-1.87,1.62,1.62,0,0,0-1.62-1.76A1.32,1.32,0,0,0,111,240.63Z"/><path class="cls-2" d="M119.7,237.32h.79v7h-.79v-.83a2,2,0,0,1-1.71.94,2.28,2.28,0,0,1-2.26-2.49,2.35,2.35,0,0,1,2.26-2.54,2,2,0,0,1,1.71.85Zm-3.14,4.58a1.61,1.61,0,0,0,1.54,1.79,1.66,1.66,0,0,0,1.6-1.81,1.62,1.62,0,0,0-1.55-1.82A1.65,1.65,0,0,0,116.56,241.9Z"/><path class="cls-2" d="M125.68,237.32h.79v7h-.79v-.83a2,2,0,0,1-1.72.94,2.29,2.29,0,0,1-2.26-2.49,2.35,2.35,0,0,1,2.26-2.54,2,2,0,0,1,1.72.85Zm-3.15,4.58a1.61,1.61,0,0,0,1.54,1.79,1.67,1.67,0,0,0,1.61-1.81,1.62,1.62,0,0,0-1.55-1.82A1.65,1.65,0,0,0,122.53,241.9Z"/><path class="cls-2" d="M132,239.47v.67a1.71,1.71,0,0,1,2.54-.39,1.56,1.56,0,0,1,.41,1.28v3.24h-.79v-3.06a1.37,1.37,0,0,0-.18-.83,1,1,0,0,0-.75-.32,1.23,1.23,0,0,0-.92.41,1.16,1.16,0,0,0-.31.87v2.93h-.79v-4.8Z"/><path class="cls-2" d="M136.94,242.12a1.48,1.48,0,0,0,.31.88,1.57,1.57,0,0,0,1.29.65,1.68,1.68,0,0,0,1.44-.82l.69.26a2.34,2.34,0,0,1-2.13,1.29,2.52,2.52,0,1,1,2.4-2.57c0,.06,0,.2,0,.31Zm3.16-.58a1.43,1.43,0,0,0-.27-.82,1.63,1.63,0,0,0-1.32-.66,1.53,1.53,0,0,0-1.29.67,1.79,1.79,0,0,0-.27.81Z"/><path class="cls-2" d="M148.34,239.47l-1.7,4.8h-.72l-1.1-3.65-1.16,3.65h-.75l-1.64-4.8h.81l1.23,3.53,1.1-3.53h.78l1.08,3.53,1.26-3.53Z"/><rect class="cls-5" x="105.42" y="286.88" width="46.88" height="28.35"/><path class="cls-2" d="M123.05,303.49a2.45,2.45,0,0,1-1.77.71,2.51,2.51,0,1,1,1.79-4.31l-.5.51a1.81,1.81,0,0,0-1.22-.5,1.8,1.8,0,0,0,0,3.57,1.67,1.67,0,0,0,1.23-.52Z"/><path class="cls-2" d="M124.75,300a1.74,1.74,0,0,1,1.45-.78,1.6,1.6,0,0,1,1.11.43,1.66,1.66,0,0,1,.38,1.25v3.23h-.8V300.9c0-.65-.32-1-.89-1a1.27,1.27,0,0,0-1.25,1.4v2.81H124v-6.94h.79Z"/><path class="cls-2" d="M130.15,298a.5.5,0,0,1-.51.5.51.51,0,0,1,0-1A.51.51,0,0,1,130.15,298Zm-.11,6.14h-.79v-4.8H130Z"/><path class="cls-2" d="M131.63,304.09v-6.94h.79v6.94Z"/><path class="cls-2" d="M137.6,297.15h.79v6.94h-.79v-.83a2,2,0,0,1-1.71.94,2.28,2.28,0,0,1-2.26-2.49,2.34,2.34,0,0,1,2.26-2.53,2.06,2.06,0,0,1,1.71.84Zm-3.14,4.57a1.6,1.6,0,0,0,1.54,1.79,1.66,1.66,0,0,0,1.6-1.81,1.62,1.62,0,0,0-1.55-1.82A1.65,1.65,0,0,0,134.46,301.72Z"/><rect class="cls-5" x="100.12" y="107.94" width="57.48" height="28.35"/><path class="cls-2" d="M115.31,121.66v0c0-.44-.37-.73-.92-.73s-.86.27-.86.69.2.57,1.07.81a2.59,2.59,0,0,1,1.16.55,1.36,1.36,0,0,1,.39.94c0,.83-.69,1.39-1.71,1.39s-1.7-.5-1.79-1.47h.78a.89.89,0,0,0,1,.83c.54,0,.9-.28.9-.71s-.27-.62-1.1-.83c-1-.28-1.5-.72-1.5-1.45s.67-1.39,1.68-1.39,1.64.52,1.68,1.42Z"/><path class="cls-2" d="M117.82,123a1.64,1.64,0,0,0,1.61,1.53,1.66,1.66,0,0,0,1.43-.83l.7.26a2.34,2.34,0,0,1-2.13,1.29,2.51,2.51,0,1,1,2.4-2.57c0,.07,0,.2,0,.32Zm3.17-.59a1.54,1.54,0,0,0-.27-.82,1.65,1.65,0,0,0-1.32-.65,1.54,1.54,0,0,0-1.29.66,2,2,0,0,0-.28.81Z"/><path class="cls-2" d="M123.74,124.17c0,.24.07.29.36.29h.36v.69h-.73c-.57,0-.79-.22-.79-.75v-3.35h-.66v-.7h.66v-1.51h.8v1.51h.72v.7h-.72Z"/><path class="cls-2" d="M126.58,124.17c0,.24.07.29.36.29h.37v.69h-.74c-.57,0-.78-.22-.78-.75v-3.35h-.67v-.7h.67v-1.51h.79v1.51h.73v.7h-.73Z"/><path class="cls-2" d="M129.26,119a.5.5,0,0,1-.51.5.51.51,0,0,1,0-1A.51.51,0,0,1,129.26,119Zm-.11,6.14h-.79v-4.8h.79Z"/><path class="cls-2" d="M131.53,120.35V121a1.65,1.65,0,0,1,1.43-.79,1.67,1.67,0,0,1,1.11.39,1.58,1.58,0,0,1,.4,1.28v3.24h-.79v-3.06a1.35,1.35,0,0,0-.17-.82.93.93,0,0,0-.75-.32,1.19,1.19,0,0,0-.92.4,1.14,1.14,0,0,0-.31.88v2.92h-.79v-4.8Z"/><path class="cls-2" d="M139.56,120.35h.8v4.83a2.24,2.24,0,0,1-.64,1.76,2.46,2.46,0,0,1-1.77.64,2.72,2.72,0,0,1-2.12-.88l.54-.54a3,3,0,0,0,.46.42,2.37,2.37,0,0,0,1.12.28,1.75,1.75,0,0,0,1.25-.47,1.65,1.65,0,0,0,.36-1.15v-1a2,2,0,0,1-1.77,1,2.31,2.31,0,0,1-2.21-2.49,2.76,2.76,0,0,1,.76-2,2.11,2.11,0,0,1,1.52-.56,1.92,1.92,0,0,1,1.7.94Zm-3.15,2.39a1.65,1.65,0,0,0,1.57,1.8,1.61,1.61,0,0,0,1.22-.59,1.9,1.9,0,0,0,.34-1.18,1.67,1.67,0,0,0-.37-1.27A1.64,1.64,0,0,0,138,121,1.62,1.62,0,0,0,136.41,122.74Z"/><path class="cls-2" d="M144.15,121.66v0c0-.44-.36-.73-.91-.73s-.87.27-.87.69.21.57,1.08.81a2.59,2.59,0,0,1,1.16.55,1.36,1.36,0,0,1,.39.94c0,.83-.69,1.39-1.71,1.39s-1.71-.5-1.79-1.47h.78a.89.89,0,0,0,1,.83c.54,0,.9-.28.9-.71s-.28-.62-1.1-.83c-1-.28-1.51-.72-1.51-1.45s.68-1.39,1.69-1.39a1.46,1.46,0,0,1,1.67,1.42Z"/><rect class="cls-2" x="83.32" y="31.48" width="0.75" height="17.45"/><polygon class="cls-2" points="79.96 47.84 83.7 54.31 87.44 47.84 79.96 47.84"/><rect class="cls-5" x="47.24" y="365.05" width="72.91" height="28.35"/><path class="cls-2" d="M61.52,382.26h-.8v-6.95h.8v4.25l1.91-2.1h1l-2.15,2.34,2.14,2.46h-1l-1.91-2.15Z"/><path class="cls-2" d="M66.2,376.12a.5.5,0,0,1-.51.5.51.51,0,1,1,.51-.5Zm-.12,6.14h-.79v-4.8h.79Z"/><path class="cls-2" d="M71.27,375.31h.79v6.95h-.79v-.83a2,2,0,0,1-1.72.94,2.29,2.29,0,0,1-2.26-2.49,2.35,2.35,0,0,1,2.26-2.54,2,2,0,0,1,1.72.85Zm-3.15,4.58a1.61,1.61,0,0,0,1.54,1.79,1.67,1.67,0,0,0,1.61-1.81,1.62,1.62,0,0,0-1.55-1.82A1.65,1.65,0,0,0,68.12,379.89Z"/><path class="cls-2" d="M73.81,377.55l-.58-.2.85-2.17.68.25Z"/><path class="cls-2" d="M78.12,378.77v0c0-.45-.36-.73-.91-.73s-.87.27-.87.69.21.57,1.08.81a2.39,2.39,0,0,1,1.16.55A1.34,1.34,0,0,1,79,381c0,.83-.69,1.39-1.71,1.39s-1.71-.51-1.79-1.48h.78a.89.89,0,0,0,1,.84c.54,0,.9-.29.9-.71s-.27-.63-1.1-.84c-1-.28-1.51-.71-1.51-1.44s.68-1.4,1.69-1.4a1.47,1.47,0,0,1,1.68,1.43Z"/><path class="cls-2" d="M84.1,377.46v.68a1.62,1.62,0,0,1,1.42-.8,1.68,1.68,0,0,1,1.12.4A1.56,1.56,0,0,1,87,379v3.24h-.79V379.2a1.3,1.3,0,0,0-.18-.83.92.92,0,0,0-.74-.32,1.2,1.2,0,0,0-.92.41,1.13,1.13,0,0,0-.31.87v2.93h-.79v-4.8Z"/><path class="cls-2" d="M92.23,377.46H93v4.8h-.79v-.93a2,2,0,0,1-1.75,1,2.3,2.3,0,0,1-2.26-2.5,2.34,2.34,0,0,1,2.28-2.53,2,2,0,0,1,1.73.91Zm-2.78,1.16a2.23,2.23,0,0,0-.4,1.27,1.65,1.65,0,0,0,1.54,1.79,1.77,1.77,0,0,0,1.65-1.87,1.62,1.62,0,0,0-1.63-1.76A1.31,1.31,0,0,0,89.45,378.62Z"/><path class="cls-2" d="M95.4,377.46v.66a1.49,1.49,0,0,1,1.36-.78,1.24,1.24,0,0,1,1.29.88,1.58,1.58,0,0,1,1.52-.88,1.46,1.46,0,0,1,1.22.51,1.93,1.93,0,0,1,.29,1.34v3.07h-.79v-2.89c0-.58,0-.71-.13-.91a1,1,0,0,0-.84-.41c-.69,0-1.08.47-1.08,1.32v2.89h-.79v-2.88a1.74,1.74,0,0,0-.16-.91.82.82,0,0,0-.78-.42c-.69,0-1.11.5-1.11,1.33v2.88h-.79v-4.8Z"/><path class="cls-2" d="M103.1,380.11a1.54,1.54,0,0,0,.31.88,1.58,1.58,0,0,0,1.29.65,1.65,1.65,0,0,0,1.44-.82l.7.26a2.43,2.43,0,0,1-4.58-1.21,2.43,2.43,0,1,1,4.85-.07c0,.06,0,.2,0,.31Zm3.16-.58a1.43,1.43,0,0,0-.27-.82,1.63,1.63,0,0,0-1.32-.66,1.53,1.53,0,0,0-1.29.67,1.92,1.92,0,0,0-.27.81Z"/><polygon class="cls-2" points="129.24 102.56 128.49 102.56 128.49 74.43 93.74 74.43 93.74 73.68 129.24 73.68 129.24 102.56"/><polygon class="cls-2" points="125.12 101.47 128.86 107.94 132.6 101.47 125.12 101.47"/><polygon class="cls-2" points="38.06 102.56 37.31 102.56 37.31 73.68 72.81 73.68 72.81 74.43 38.06 74.43 38.06 102.56"/><polygon class="cls-2" points="33.95 101.47 37.69 107.94 41.43 101.47 33.95 101.47"/><polygon class="cls-2" points="129.24 472.93 128.49 472.93 128.49 444.8 93.74 444.8 93.74 444.05 129.24 444.05 129.24 472.93"/><polygon class="cls-2" points="125.12 471.84 128.86 478.31 132.6 471.84 125.12 471.84"/><polygon class="cls-2" points="38.06 472.93 37.31 472.93 37.31 444.05 72.81 444.05 72.81 444.8 38.06 444.8 38.06 472.93"/><polygon class="cls-2" points="33.95 471.84 37.69 478.31 41.43 471.84 33.95 471.84"/><rect class="cls-6" x="69.74" y="60.1" width="27.92" height="27.92" transform="translate(-27.85 80.87) rotate(-45)"/><g class="cls-7"><rect class="cls-6" x="69.74" y="60.1" width="27.92" height="27.92" transform="translate(-27.85 80.87) rotate(-45)"/><path class="cls-8" d="M83.7,94.15,63.6,74.06,83.7,54l20.09,20.1ZM64.31,74.06,83.7,93.44l19.38-19.38L83.7,54.67Z"/></g><path class="cls-9" d="M74.52,76.26a2.52,2.52,0,0,1-1.11.22,1.84,1.84,0,0,1-1.93-2,2,2,0,0,1,2.08-2.06,2.49,2.49,0,0,1,1,.2l-.16.55a1.62,1.62,0,0,0-.82-.19,1.34,1.34,0,0,0-1.37,1.47,1.33,1.33,0,0,0,1.35,1.44,2,2,0,0,0,.86-.19Z"/><path class="cls-9" d="M75.35,70.73h.7v2.41h0a1.24,1.24,0,0,1,.5-.49,1.44,1.44,0,0,1,.72-.2c.52,0,1.35.32,1.35,1.65v2.3h-.7V74.18c0-.62-.24-1.15-.9-1.15a1,1,0,0,0-.94.7.87.87,0,0,0,0,.34V76.4h-.7Z"/><path class="cls-9" d="M83.29,74.44a1.89,1.89,0,0,1-1.93,2,1.84,1.84,0,0,1-1.85-2,1.88,1.88,0,0,1,1.91-2A1.83,1.83,0,0,1,83.29,74.44Zm-3.07,0c0,.84.48,1.48,1.17,1.48s1.18-.63,1.18-1.5c0-.66-.33-1.49-1.16-1.49S80.22,73.74,80.22,74.48Z"/><path class="cls-9" d="M87.68,74.44a1.89,1.89,0,0,1-1.93,2,1.84,1.84,0,0,1-1.85-2,1.88,1.88,0,0,1,1.92-2A1.83,1.83,0,0,1,87.68,74.44Zm-3.07,0c0,.84.49,1.48,1.17,1.48S87,75.33,87,74.46C87,73.8,86.63,73,85.8,73S84.61,73.74,84.61,74.48Z"/><path class="cls-9" d="M88.47,75.68a1.83,1.83,0,0,0,.93.28c.51,0,.75-.25.75-.57s-.2-.52-.72-.71c-.69-.25-1-.63-1-1.1a1.19,1.19,0,0,1,1.33-1.13,1.93,1.93,0,0,1,1,.24l-.18.51a1.45,1.45,0,0,0-.79-.23c-.42,0-.65.24-.65.53s.23.47.74.66c.67.25,1,.59,1,1.16s-.53,1.16-1.45,1.16a2.18,2.18,0,0,1-1.08-.26Z"/><path class="cls-9" d="M92.13,74.6a1.23,1.23,0,0,0,1.33,1.34,2.6,2.6,0,0,0,1.07-.2l.12.5a3,3,0,0,1-1.29.24,1.79,1.79,0,0,1-1.9-2,1.87,1.87,0,0,1,1.81-2.08,1.64,1.64,0,0,1,1.6,1.82,2.63,2.63,0,0,1,0,.33Zm2.06-.51a1,1,0,0,0-1-1.14,1.16,1.16,0,0,0-1.08,1.14Z"/><rect class="cls-5" x="0.27" y="478.32" width="74.84" height="28.35"/><rect class="cls-5" x="91.44" y="478.32" width="74.84" height="28.35"/><path class="cls-2" d="M18.81,490.73h.79v4.79h-.79v-.92a2,2,0,0,1-1.75,1,2.3,2.3,0,0,1-2.26-2.5,2.33,2.33,0,0,1,2.28-2.53,2,2,0,0,1,1.73.91ZM16,491.89a2.2,2.2,0,0,0-.39,1.27A1.64,1.64,0,0,0,17.18,495a1.77,1.77,0,0,0,1.64-1.87,1.62,1.62,0,0,0-1.62-1.76A1.32,1.32,0,0,0,16,491.89Z"/><path class="cls-2" d="M24.78,488.58h.79v6.94h-.79v-.82a2,2,0,0,1-1.71.94,2.28,2.28,0,0,1-2.26-2.49,2.35,2.35,0,0,1,2.26-2.54,2,2,0,0,1,1.71.85Zm-3.14,4.58A1.61,1.61,0,0,0,23.18,495a1.66,1.66,0,0,0,1.6-1.81,1.62,1.62,0,0,0-1.55-1.82A1.65,1.65,0,0,0,21.64,493.16Z"/><path class="cls-2" d="M30.76,488.58h.79v6.94h-.79v-.82a2,2,0,0,1-1.72.94,2.29,2.29,0,0,1-2.26-2.49A2.35,2.35,0,0,1,29,490.61a2,2,0,0,1,1.72.85Zm-3.15,4.58A1.61,1.61,0,0,0,29.15,495a1.67,1.67,0,0,0,1.61-1.81,1.62,1.62,0,0,0-1.55-1.82A1.65,1.65,0,0,0,27.61,493.16Z"/><path class="cls-2" d="M37.05,490.73v.87a1.86,1.86,0,0,1,1.75-1,2.27,2.27,0,0,1,2.26,2.48,2.31,2.31,0,0,1-2.26,2.55,2.26,2.26,0,0,1-1-.25,1.78,1.78,0,0,1-.7-.61v3h-.79v-7Zm0,2.47A1.58,1.58,0,0,0,38.64,495a1.63,1.63,0,0,0,1.58-1.83,1.86,1.86,0,0,0-.42-1.3,1.56,1.56,0,0,0-1.13-.5A1.68,1.68,0,0,0,37.05,493.2Z"/><path class="cls-2" d="M43.05,491.39a1.75,1.75,0,0,1,1.44-.78,1.61,1.61,0,0,1,1.12.44A1.64,1.64,0,0,1,46,492.3v3.22h-.79v-3.18c0-.66-.32-1-.89-1a1.23,1.23,0,0,0-.94.43,1.25,1.25,0,0,0-.31,1v2.8h-.79v-6.94h.79Z"/><path class="cls-2" d="M52,493.14a2.45,2.45,0,0,1-2.46,2.5,2.52,2.52,0,1,1,2.46-2.5Zm-4.07,0a1.62,1.62,0,0,0,1.63,1.78,1.65,1.65,0,0,0,1.63-1.78,1.64,1.64,0,1,0-3.26,0Z"/><path class="cls-2" d="M54,494.55c0,.24.07.29.36.29h.37v.68H54c-.57,0-.78-.21-.78-.74v-3.36h-.67v-.69h.67v-1.51H54v1.51h.73v.69H54Z"/><path class="cls-2" d="M60.29,493.14a2.45,2.45,0,0,1-2.46,2.5,2.52,2.52,0,1,1,2.46-2.5Zm-4.07,0a1.63,1.63,0,0,0,1.64,1.78,1.64,1.64,0,0,0,1.62-1.78,1.64,1.64,0,1,0-3.26,0Z"/><path class="cls-2" d="M104,494.93a2.47,2.47,0,0,1-1.77.71,2.52,2.52,0,0,1,0-5,2.37,2.37,0,0,1,1.75.72l-.51.51a1.79,1.79,0,0,0-1.22-.5,1.8,1.8,0,0,0,0,3.57,1.7,1.7,0,0,0,1.23-.52Z"/><path class="cls-2" d="M105.67,491.39a1.78,1.78,0,0,1,1.45-.78,1.59,1.59,0,0,1,1.11.44,1.64,1.64,0,0,1,.38,1.25v3.22h-.79v-3.18c0-.66-.33-1-.9-1a1.24,1.24,0,0,0-.94.43,1.29,1.29,0,0,0-.31,1v2.8h-.79v-6.94h.79Z"/><path class="cls-2" d="M114.66,493.14a2.45,2.45,0,0,1-2.45,2.5,2.52,2.52,0,1,1,2.45-2.5Zm-4.06,0a1.62,1.62,0,0,0,1.63,1.78,1.64,1.64,0,0,0,1.62-1.78,1.63,1.63,0,1,0-3.25,0Z"/><path class="cls-2" d="M118.09,492V492c0-.45-.37-.73-.92-.73s-.86.27-.86.68.21.58,1.07.82a2.44,2.44,0,0,1,1.17.55,1.32,1.32,0,0,1,.38.93c0,.84-.69,1.4-1.71,1.4a1.56,1.56,0,0,1-1.79-1.48h.79a.88.88,0,0,0,1,.83c.55,0,.9-.28.9-.7s-.27-.63-1.09-.84c-1-.28-1.51-.71-1.51-1.44s.67-1.4,1.68-1.4a1.47,1.47,0,0,1,1.68,1.43Z"/><path class="cls-2" d="M120.61,493.38a1.48,1.48,0,0,0,.31.88,1.57,1.57,0,0,0,1.29.65,1.68,1.68,0,0,0,1.44-.82l.69.26a2.34,2.34,0,0,1-2.13,1.29,2.52,2.52,0,1,1,2.4-2.57c0,.06,0,.2,0,.31Zm3.16-.58a1.43,1.43,0,0,0-.27-.82,1.63,1.63,0,0,0-1.32-.66,1.53,1.53,0,0,0-1.29.67,1.79,1.79,0,0,0-.27.81Z"/><path class="cls-2" d="M132.5,490.73h.79v4.79h-.79v-.92a2,2,0,0,1-1.75,1,2.29,2.29,0,0,1-2.25-2.5,2.33,2.33,0,0,1,2.27-2.53,2,2,0,0,1,1.73.91Zm-2.78,1.16a2.2,2.2,0,0,0-.39,1.27,1.64,1.64,0,0,0,1.54,1.79,1.77,1.77,0,0,0,1.64-1.87,1.62,1.62,0,0,0-1.62-1.76A1.32,1.32,0,0,0,129.72,491.89Z"/><path class="cls-2" d="M138.53,490.73l-1.81,4.79h-.84l-1.75-4.79H135l1.35,3.66,1.4-3.66Z"/><path class="cls-2" d="M142.88,490.73h.79v4.79h-.79v-.92a2,2,0,0,1-1.75,1,2.3,2.3,0,0,1-2.26-2.5,2.33,2.33,0,0,1,2.28-2.53,2,2,0,0,1,1.73.91Zm-2.78,1.16a2.2,2.2,0,0,0-.4,1.27,1.65,1.65,0,0,0,1.54,1.79,1.77,1.77,0,0,0,1.65-1.87,1.62,1.62,0,0,0-1.62-1.76A1.31,1.31,0,0,0,140.1,491.89Z"/><path class="cls-2" d="M146.07,494.55c0,.24.08.29.37.29h.36v.68h-.74c-.56,0-.78-.21-.78-.74v-3.36h-.66v-.69h.66v-1.51h.79v1.51h.73v.69h-.73Z"/><path class="cls-2" d="M151.45,490.73h.79v4.79h-.79v-.92a2,2,0,0,1-1.75,1,2.29,2.29,0,0,1-2.25-2.5,2.33,2.33,0,0,1,2.28-2.53,2,2,0,0,1,1.72.91Zm-2.78,1.16a2.2,2.2,0,0,0-.39,1.27,1.64,1.64,0,0,0,1.54,1.79,1.77,1.77,0,0,0,1.64-1.87,1.62,1.62,0,0,0-1.62-1.76A1.34,1.34,0,0,0,148.67,491.89Z"/><path class="cls-2" d="M154.63,490.73v.81a1.43,1.43,0,0,1,.43-.64,1.57,1.57,0,0,1,.92-.29h.19v.8H156a1.22,1.22,0,0,0-1,.56,1.74,1.74,0,0,0-.28,1.13v2.43h-.79v-4.79Z"/><rect class="cls-6" x="69.74" y="430.47" width="27.92" height="27.92" transform="translate(-289.74 189.35) rotate(-45)"/><g class="cls-7"><rect class="cls-6" x="69.74" y="430.47" width="27.92" height="27.92" transform="translate(-289.74 189.35) rotate(-45)"/><path class="cls-8" d="M83.7,464.52,63.6,444.43l20.1-20.1,20.09,20.1ZM64.31,444.43,83.7,463.82l19.38-19.39L83.7,425Z"/></g><path class="cls-2" d="M74.52,446.63a2.49,2.49,0,0,1-1.11.23,1.84,1.84,0,0,1-1.93-2,2,2,0,0,1,2.08-2.05,2.33,2.33,0,0,1,1,.2l-.16.54a1.63,1.63,0,0,0-.82-.18,1.46,1.46,0,0,0,0,2.91,2.11,2.11,0,0,0,.86-.19Z"/><path class="cls-2" d="M75.35,441.1h.7v2.41h0a1.24,1.24,0,0,1,.5-.49,1.44,1.44,0,0,1,.72-.2c.52,0,1.35.32,1.35,1.65v2.31h-.7v-2.23c0-.62-.24-1.15-.9-1.15a1,1,0,0,0-.94.71.82.82,0,0,0,0,.33v2.34h-.7Z"/><path class="cls-2" d="M83.29,444.81a1.89,1.89,0,0,1-1.93,2.05,1.83,1.83,0,0,1-1.85-2,1.88,1.88,0,0,1,1.91-2.05A1.83,1.83,0,0,1,83.29,444.81Zm-3.07,0c0,.85.48,1.49,1.17,1.49s1.18-.63,1.18-1.51c0-.65-.33-1.48-1.16-1.48S80.22,444.11,80.22,444.85Z"/><path class="cls-2" d="M87.68,444.81a1.89,1.89,0,0,1-1.93,2.05,1.83,1.83,0,0,1-1.85-2,1.88,1.88,0,0,1,1.92-2.05A1.83,1.83,0,0,1,87.68,444.81Zm-3.07,0c0,.85.49,1.49,1.17,1.49s1.18-.63,1.18-1.51c0-.65-.33-1.48-1.16-1.48S84.61,444.11,84.61,444.85Z"/><path class="cls-2" d="M88.47,446.06a1.93,1.93,0,0,0,.93.28c.51,0,.75-.26.75-.58s-.2-.52-.72-.71c-.69-.25-1-.63-1-1.1a1.19,1.19,0,0,1,1.33-1.13,1.93,1.93,0,0,1,1,.24l-.18.51a1.46,1.46,0,0,0-.79-.22c-.42,0-.65.24-.65.52s.23.47.74.66c.67.26,1,.59,1,1.17s-.53,1.16-1.45,1.16a2.18,2.18,0,0,1-1.08-.27Z"/><path class="cls-2" d="M92.13,445a1.23,1.23,0,0,0,1.33,1.34,2.6,2.6,0,0,0,1.07-.2l.12.51a3.17,3.17,0,0,1-1.29.24,1.8,1.8,0,0,1-1.9-1.95,1.87,1.87,0,0,1,1.81-2.09,1.64,1.64,0,0,1,1.6,1.82,2.38,2.38,0,0,1,0,.33Zm2.06-.5a1,1,0,0,0-1-1.15,1.16,1.16,0,0,0-1.08,1.15Z"/><polygon class="cls-2" points="129.24 342.5 83.7 342.5 83.7 341.75 128.49 341.75 128.49 315.23 129.24 315.23 129.24 342.5"/><polygon class="cls-2" points="84.75 526.63 37.31 526.63 37.31 506.66 38.06 506.66 38.06 525.88 84.75 525.88 84.75 526.63"/></g></g></svg>