<?xml version="1.0" encoding="utf-8"?>
<!-- Generator: Adobe Illustrator 23.1.1, SVG Export Plug-In . SVG Version: 6.00 Build 0)  -->
<svg version="1.1" id="Layer_1" xmlns="http://www.w3.org/2000/svg" xmlns:xlink="http://www.w3.org/1999/xlink" x="0px" y="0px"
	 viewBox="0 0 514.3 325.2" style="enable-background:new 0 0 514.3 325.2;" xml:space="preserve">
<style type="text/css">
	.st0{fill:#FFFFFF;}
	.st1{fill:#383938;}
	.st2{fill:#2A0F10;}
	.st3{fill:#BC4E4B;}
	.st4{fill:#0F0F59;}
	.st5{fill:#F07262;}
	.st6{fill:#1F191A;}
	.st7{fill:#E8E8E8;}
</style>
<rect x="74.6" y="54.4" class="st0" width="29.8" height="24.8"/>
<rect x="135" y="134.8" class="st0" width="29.8" height="24.8"/>
<rect x="194.5" y="190" class="st0" width="29.8" height="24.8"/>
<rect x="254.5" y="190" class="st0" width="29.8" height="24.8"/>
<rect x="309.9" y="54.5" class="st0" width="29.8" height="24.8"/>
<rect x="369.8" y="80.6" class="st0" width="29.8" height="24.8"/>
<rect x="430.2" y="110" class="st0" width="29.8" height="24.8"/>
<title>Asset 48</title>
<rect y="270" class="st1" width="335" height="0.2"/>
<rect y="215.2" class="st1" width="335" height="0.2"/>
<rect y="160.2" class="st1" width="335" height="0.2"/>
<rect y="105.2" class="st1" width="335" height="0.2"/>
<rect y="50.2" class="st1" width="335" height="0.2"/>
<rect x="74.3" y="79.3" class="st2" width="30" height="245.2"/>
<rect x="254.3" y="215.2" class="st3" width="30" height="109.6"/>
<rect x="134.3" y="159.9" class="st4" width="30" height="164.7"/>
<rect x="194.3" y="215.2" class="st5" width="30" height="110"/>
<path class="st6" d="M3.5,4.5v0.9h-3V4.5h1V2.2C1.5,2.3,1.4,2.4,1.3,2.4C1.2,2.5,1.1,2.5,1,2.6C0.9,2.6,0.8,2.7,0.6,2.7
	c-0.1,0-0.2,0-0.3,0V1.8c0.1,0,0.2,0,0.3-0.1C0.8,1.7,0.9,1.6,1,1.5c0.1-0.1,0.2-0.2,0.3-0.2l0.2-0.2h1v3.4H3.5z"/>
<path class="st6" d="M9.1,3.2c0,0.3,0,0.6-0.1,0.9C8.8,4.4,8.7,4.6,8.5,4.8C8.4,5,8.1,5.2,7.9,5.3C7.7,5.4,7.4,5.5,7.1,5.5
	c-0.5,0-1-0.2-1.4-0.7C5.6,4.6,5.4,4.4,5.3,4.1C5.3,3.8,5.2,3.5,5.2,3.2c0-0.3,0-0.6,0.1-0.9C5.4,2,5.6,1.8,5.8,1.6
	c0.2-0.2,0.4-0.4,0.6-0.5C6.6,1,6.9,0.9,7.1,0.9c0.3,0,0.5,0.1,0.8,0.2c0.2,0.1,0.4,0.3,0.6,0.5C8.7,1.8,8.8,2,8.9,2.3
	C9,2.6,9.1,2.9,9.1,3.2z M8.1,3.2C8.1,3,8,2.8,8,2.6c0-0.2-0.1-0.3-0.2-0.4C7.7,2.1,7.6,2,7.5,1.9C7.4,1.9,7.3,1.8,7.1,1.8
	c-0.1,0-0.3,0-0.4,0.1C6.6,2,6.5,2.1,6.5,2.2C6.4,2.4,6.3,2.5,6.3,2.6c0,0.2-0.1,0.4-0.1,0.5c0,0.2,0,0.4,0.1,0.5
	c0,0.2,0.1,0.3,0.2,0.4c0.1,0.1,0.2,0.2,0.3,0.3C6.9,4.5,7,4.6,7.1,4.5c0.1,0,0.3,0,0.4-0.1c0.1-0.1,0.2-0.2,0.3-0.3
	C7.9,4,8,3.9,8,3.7C8,3.6,8.1,3.4,8.1,3.2L8.1,3.2z"/>
<path class="st6" d="M14.9,3.2c0,0.3,0,0.6-0.1,0.9c-0.1,0.3-0.2,0.5-0.4,0.7C14.2,5,14,5.2,13.7,5.3c-0.2,0.1-0.5,0.2-0.8,0.2
	c-0.3,0-0.5-0.1-0.8-0.2C12,5.2,11.8,5,11.6,4.8c-0.2-0.2-0.3-0.5-0.4-0.7C11.1,3.8,11,3.5,11,3.2c0-0.3,0-0.6,0.1-0.9
	c0.1-0.3,0.2-0.5,0.4-0.7c0.2-0.2,0.4-0.4,0.6-0.5C12.4,1,12.7,0.9,13,0.9c0.3,0,0.5,0.1,0.8,0.2c0.2,0.1,0.5,0.3,0.6,0.5
	c0.2,0.2,0.3,0.5,0.4,0.7C14.9,2.6,14.9,2.9,14.9,3.2z M13.9,3.2c0-0.2,0-0.4-0.1-0.5c0-0.2-0.1-0.3-0.2-0.4
	c-0.1-0.1-0.2-0.2-0.3-0.3c-0.1-0.1-0.2-0.1-0.4-0.1c-0.1,0-0.3,0-0.4,0.1c-0.1,0.1-0.2,0.2-0.3,0.3c-0.1,0.1-0.1,0.3-0.2,0.4
	c0,0.2-0.1,0.4-0.1,0.5c0,0.2,0,0.4,0.1,0.5c0,0.2,0.1,0.3,0.2,0.4c0.1,0.1,0.2,0.2,0.3,0.3c0.1,0.1,0.2,0.1,0.4,0.1
	c0.1,0,0.3,0,0.4-0.1c0.1-0.1,0.2-0.2,0.3-0.3c0.1-0.1,0.2-0.3,0.2-0.4C13.9,3.6,13.9,3.4,13.9,3.2L13.9,3.2z"/>
<path class="st6" d="M17.8,2.3c-0.2,0-0.3,0-0.5-0.1C17.1,2.1,17,2,16.9,1.9c-0.1-0.1-0.2-0.2-0.3-0.4c-0.1-0.1-0.1-0.3-0.1-0.4
	c0-0.2,0-0.3,0.1-0.4c0.1-0.1,0.1-0.3,0.3-0.4c0.1-0.1,0.2-0.2,0.4-0.2C17.4,0,17.6,0,17.8,0c0.2,0,0.3,0,0.5,0.1
	c0.1,0.1,0.3,0.1,0.4,0.2c0.1,0.1,0.2,0.2,0.3,0.4C19,0.8,19,1,19,1.1c0,0.2,0,0.3-0.1,0.4c-0.1,0.1-0.2,0.3-0.3,0.4
	c-0.1,0.1-0.2,0.2-0.4,0.2C18.1,2.2,17.9,2.3,17.8,2.3z M17,5l2.1-2.5L21,0l0.5,0.4l-2,2.4l-2,2.6L17,5z M17.8,1.8
	c0.1,0,0.1,0,0.2,0c0.1,0,0.1-0.1,0.2-0.1c0-0.1,0.1-0.1,0.1-0.2c0-0.1,0-0.2,0-0.2c0-0.2-0.1-0.3-0.2-0.4c-0.1-0.1-0.2-0.2-0.4-0.2
	c-0.1,0-0.1,0-0.2,0.1c-0.1,0-0.1,0.1-0.2,0.1c-0.1,0.1-0.1,0.1-0.1,0.2c-0.1,0.2-0.1,0.5,0.1,0.7C17.5,1.7,17.6,1.8,17.8,1.8
	L17.8,1.8z M20.7,5.5c-0.2,0-0.3,0-0.5-0.1c-0.1-0.1-0.3-0.1-0.4-0.2c-0.1-0.1-0.2-0.2-0.3-0.4c-0.1-0.1-0.1-0.3-0.1-0.4
	c0-0.2,0-0.3,0.1-0.4c0.1-0.1,0.2-0.3,0.3-0.4c0.1-0.1,0.2-0.2,0.4-0.2c0.2-0.1,0.3-0.1,0.5-0.1c0.2,0,0.3,0,0.5,0.1
	c0.1,0.1,0.3,0.1,0.4,0.2c0.1,0.1,0.2,0.2,0.3,0.4C21.9,4,22,4.2,21.9,4.3c0,0.2,0,0.3-0.1,0.4c-0.1,0.1-0.2,0.3-0.3,0.4
	c-0.1,0.1-0.2,0.2-0.4,0.2C21,5.5,20.8,5.5,20.7,5.5L20.7,5.5z M20.7,5c0.1,0,0.1,0,0.2,0C21,4.9,21,4.8,21,4.8
	c0.1-0.1,0.1-0.1,0.1-0.2c0-0.1,0.1-0.2,0-0.2c0-0.1,0-0.2,0-0.2C21.1,4,21,3.9,21,3.9c0-0.1-0.1-0.1-0.2-0.1c-0.1,0-0.1,0-0.2,0
	c-0.1,0-0.1,0-0.2,0c-0.1,0-0.1,0.1-0.2,0.1c-0.1,0.1-0.1,0.1-0.1,0.2c0,0.1,0,0.2,0,0.2c0,0.2,0.1,0.3,0.2,0.4
	C20.4,4.9,20.5,5,20.7,5L20.7,5z"/>
<path class="st6" d="M4.2,113.6c0,0.2,0,0.5-0.2,0.7c-0.1,0.2-0.2,0.4-0.4,0.6c-0.2,0.2-0.4,0.3-0.6,0.4c-0.2,0.1-0.5,0.1-0.8,0.1
	c-0.3,0-0.6-0.1-0.8-0.2c-0.2-0.1-0.5-0.3-0.6-0.5c-0.2-0.2-0.3-0.5-0.4-0.8c-0.1-0.3-0.1-0.7-0.1-1c0-0.4,0-0.9,0.1-1.3
	c0.1-0.3,0.2-0.7,0.4-0.9c0.2-0.2,0.4-0.4,0.6-0.6c0.3-0.1,0.6-0.2,0.9-0.2c0.3,0,0.6,0.1,0.9,0.2c0.3,0.1,0.5,0.4,0.7,0.6l-0.6,0.6
	c-0.1-0.2-0.3-0.3-0.5-0.4c-0.2-0.1-0.4-0.2-0.6-0.2c-0.3,0-0.6,0.1-0.8,0.4c-0.2,0.3-0.3,0.7-0.3,1.1c0.1-0.2,0.3-0.3,0.4-0.4
	c0.2-0.1,0.4-0.2,0.7-0.2c0.2,0,0.5,0,0.7,0.1c0.2,0.1,0.4,0.2,0.6,0.4c0.2,0.2,0.3,0.4,0.4,0.6C4.2,113.2,4.3,113.4,4.2,113.6z
	 M2.3,114.6c0.1,0,0.3,0,0.4-0.1c0.1,0,0.2-0.1,0.3-0.2c0.1-0.1,0.2-0.2,0.2-0.3c0.1-0.1,0.1-0.2,0.1-0.4c0-0.1,0-0.3-0.1-0.4
	c-0.1-0.2-0.3-0.4-0.5-0.5c-0.1-0.1-0.2-0.1-0.4-0.1c-0.3,0-0.5,0.1-0.7,0.3c-0.1,0.1-0.2,0.2-0.2,0.3c0,0.1-0.1,0.2-0.1,0.4
	c0,0.1,0,0.3,0.1,0.4c0,0.1,0.1,0.2,0.2,0.3c0.1,0.1,0.2,0.2,0.3,0.2C2.1,114.6,2.2,114.6,2.3,114.6z"/>
<path class="st6" d="M10,113.2c0,0.3,0,0.6-0.1,0.9c-0.1,0.3-0.2,0.5-0.4,0.7c-0.2,0.2-0.4,0.4-0.6,0.5c-0.2,0.1-0.5,0.2-0.8,0.2
	c-0.5,0-1-0.2-1.4-0.6c-0.2-0.2-0.3-0.5-0.4-0.7c-0.1-0.3-0.2-0.6-0.2-0.9c0-0.3,0-0.6,0.2-0.9c0.1-0.3,0.2-0.5,0.4-0.7
	c0.2-0.2,0.4-0.4,0.6-0.5c0.2-0.1,0.5-0.2,0.8-0.2c0.3,0,0.5,0.1,0.8,0.2c0.2,0.1,0.5,0.3,0.6,0.5c0.2,0.2,0.3,0.5,0.4,0.7
	C10,112.6,10,112.9,10,113.2z M9,113.2c0-0.2,0-0.4-0.1-0.6c0-0.2-0.1-0.3-0.2-0.4c-0.1-0.1-0.2-0.2-0.3-0.3
	c-0.1-0.1-0.2-0.1-0.4-0.1c-0.1,0-0.3,0-0.4,0.1c-0.1,0.1-0.2,0.2-0.3,0.3c-0.1,0.1-0.1,0.3-0.2,0.4c0,0.2-0.1,0.4-0.1,0.6
	c0,0.2,0,0.4,0.1,0.5c0,0.2,0.1,0.3,0.2,0.4c0.1,0.1,0.2,0.2,0.3,0.3c0.1,0.1,0.2,0.1,0.4,0.1c0.1,0,0.3,0,0.4-0.1
	c0.1-0.1,0.2-0.2,0.3-0.3c0.1-0.1,0.1-0.3,0.2-0.4C9,113.6,9,113.4,9,113.2z"/>
<path class="st6" d="M12.9,112.3c-0.3,0-0.6-0.1-0.9-0.3c-0.1-0.1-0.2-0.2-0.3-0.4c-0.1-0.1-0.1-0.3-0.1-0.4c0-0.2,0-0.3,0.1-0.4
	c0.1-0.1,0.2-0.3,0.3-0.4c0.1-0.1,0.2-0.2,0.4-0.2c0.2-0.1,0.3-0.1,0.5-0.1c0.3,0,0.6,0.1,0.9,0.3c0.1,0.1,0.2,0.2,0.3,0.4
	c0.1,0.1,0.1,0.3,0.1,0.4c0,0.2,0,0.3-0.1,0.4c-0.1,0.1-0.2,0.3-0.3,0.4c-0.1,0.1-0.2,0.2-0.4,0.2C13.2,112.3,13.1,112.3,12.9,112.3
	z M12.1,115l2.1-2.5l1.9-2.6l0.5,0.4l-2.1,2.4l-2,2.6L12.1,115z M12.9,111.8c0.1,0,0.1,0,0.2,0c0.1,0,0.1-0.1,0.2-0.1
	c0.1-0.1,0.1-0.1,0.1-0.2c0-0.1,0-0.2,0-0.2c0-0.2-0.1-0.3-0.2-0.4c-0.1-0.1-0.2-0.2-0.4-0.2c-0.1,0-0.1,0-0.2,0
	c-0.1,0-0.1,0.1-0.2,0.1c-0.1,0.1-0.1,0.1-0.1,0.2c0,0.1,0,0.2,0,0.2c0,0.2,0.1,0.3,0.2,0.4C12.6,111.7,12.7,111.8,12.9,111.8z
	 M15.8,115.5c-0.2,0-0.3,0-0.5-0.1c-0.1-0.1-0.3-0.1-0.4-0.2c-0.1-0.1-0.2-0.2-0.3-0.4c-0.1-0.1-0.1-0.3-0.1-0.4
	c0-0.2,0-0.3,0.1-0.4c0.1-0.1,0.2-0.3,0.3-0.4c0.1-0.1,0.2-0.2,0.4-0.2c0.3-0.1,0.7-0.1,1,0c0.1,0.1,0.3,0.1,0.4,0.2
	c0.1,0.1,0.2,0.2,0.3,0.4c0.1,0.1,0.1,0.3,0.1,0.4c0,0.2,0,0.3-0.1,0.4c-0.1,0.1-0.1,0.3-0.3,0.4c-0.1,0.1-0.2,0.2-0.4,0.2
	C16.1,115.5,16,115.5,15.8,115.5z M15.8,115c0.1,0,0.1,0,0.2-0.1c0.1,0,0.1-0.1,0.2-0.1c0.1-0.1,0.1-0.1,0.1-0.2c0-0.1,0-0.2,0-0.2
	c0-0.1,0-0.2,0-0.3c0-0.1-0.1-0.1-0.1-0.2c0-0.1-0.1-0.1-0.2-0.1c-0.1,0-0.1-0.1-0.2-0.1c-0.1,0-0.1,0-0.2,0.1
	c-0.1,0-0.1,0.1-0.2,0.1c0,0.1-0.1,0.1-0.1,0.2c0,0.1,0,0.2,0,0.2c0,0.2,0,0.3,0.1,0.4C15.5,114.9,15.6,115,15.8,115L15.8,115z"/>
<path class="st6" d="M0.3,225.3c0-0.2,0-0.4,0.1-0.6c0-0.2,0.1-0.4,0.2-0.5c0.1-0.2,0.2-0.3,0.4-0.4c0.2-0.2,0.4-0.3,0.6-0.4L2,223
	c0.1-0.1,0.3-0.1,0.4-0.2c0.1-0.1,0.2-0.1,0.2-0.2c0.1-0.1,0.1-0.2,0.1-0.2c0-0.2-0.1-0.3-0.2-0.4c-0.2-0.1-0.3-0.1-0.5-0.1
	c-0.1,0-0.2,0-0.3,0c-0.1,0-0.2,0.1-0.3,0.1l-0.2,0.2c-0.1,0.1-0.1,0.1-0.2,0.2l-0.6-0.8c0.1-0.1,0.2-0.2,0.3-0.2
	c0.1-0.1,0.3-0.2,0.4-0.2c0.2-0.1,0.4-0.1,0.5-0.2c0.2,0,0.4-0.1,0.6-0.1c0.2,0,0.5,0,0.7,0.1c0.2,0.1,0.4,0.2,0.5,0.3
	c0.1,0.1,0.2,0.2,0.3,0.4c0.1,0.2,0.1,0.3,0.1,0.5c0,0.2,0,0.3-0.1,0.5c-0.1,0.1-0.1,0.3-0.2,0.4c-0.1,0.1-0.2,0.2-0.3,0.3l-0.3,0.2
	l-0.3,0.2l-0.3,0.2c-0.1,0.1-0.2,0.1-0.3,0.2c-0.1,0.1-0.2,0.1-0.2,0.2h2.3v0.9L0.3,225.3z"/>
<path class="st6" d="M9.7,223.1c0,0.3,0,0.6-0.1,0.9c-0.1,0.3-0.2,0.5-0.4,0.7c-0.2,0.2-0.4,0.4-0.6,0.5c-0.5,0.2-1.1,0.2-1.5,0
	c-0.2-0.1-0.4-0.3-0.6-0.5c-0.2-0.2-0.3-0.5-0.4-0.7c-0.2-0.6-0.2-1.2,0-1.8c0.1-0.3,0.2-0.5,0.4-0.7c0.2-0.2,0.4-0.3,0.6-0.5
	c0.5-0.2,1.1-0.2,1.5,0c0.2,0.1,0.4,0.3,0.6,0.5c0.2,0.2,0.3,0.5,0.4,0.7C9.7,222.5,9.7,222.8,9.7,223.1z M8.7,223.1
	c0-0.2,0-0.4-0.1-0.6c0-0.2-0.1-0.3-0.2-0.4c-0.1-0.1-0.2-0.2-0.3-0.3c-0.1-0.1-0.2-0.1-0.4-0.1c-0.1,0-0.3,0-0.4,0.1
	c-0.1,0.1-0.2,0.2-0.3,0.3c-0.1,0.1-0.1,0.3-0.2,0.4c-0.1,0.4-0.1,0.7,0,1.1c0,0.2,0.1,0.3,0.2,0.4c0.1,0.1,0.2,0.2,0.3,0.3
	c0.1,0.1,0.2,0.1,0.4,0.1c0.1,0,0.3,0,0.4-0.1c0.1-0.1,0.2-0.2,0.3-0.3c0.1-0.1,0.1-0.3,0.2-0.4C8.7,223.4,8.7,223.3,8.7,223.1
	L8.7,223.1z"/>
<path class="st6" d="M4.2,58.8c0,0.2,0,0.5-0.2,0.7c-0.1,0.2-0.2,0.4-0.4,0.5c-0.2,0.1-0.4,0.3-0.6,0.3c-0.2,0.1-0.5,0.1-0.8,0.1
	c-0.3,0-0.5,0-0.8-0.1c-0.2-0.1-0.4-0.2-0.6-0.4c-0.2-0.1-0.3-0.3-0.4-0.5c-0.1-0.2-0.2-0.4-0.2-0.7c0-0.1,0-0.3,0.1-0.4
	c0.1-0.1,0.1-0.3,0.2-0.4c0.1-0.1,0.2-0.2,0.3-0.3c0.1-0.1,0.2-0.1,0.3-0.2c-0.2-0.1-0.3-0.2-0.5-0.4c-0.1-0.2-0.2-0.4-0.2-0.6
	c0-0.2,0-0.4,0.2-0.6c0.1-0.2,0.2-0.3,0.4-0.5c0.2-0.1,0.4-0.2,0.6-0.3C1.8,55.1,2.1,55,2.3,55c0.2,0,0.4,0,0.6,0.1
	c0.2,0.1,0.4,0.2,0.6,0.3c0.2,0.1,0.3,0.3,0.4,0.5C4,56.1,4,56.3,4,56.5c0,0.1,0,0.2,0,0.3C4,56.9,4,57,3.9,57.1
	c-0.1,0.1-0.1,0.2-0.2,0.2c-0.1,0.1-0.2,0.1-0.3,0.2c0.1,0.1,0.2,0.1,0.3,0.2C3.8,57.8,3.9,57.9,4,58c0.1,0.1,0.1,0.2,0.2,0.3
	C4.2,58.5,4.2,58.7,4.2,58.8z M3.2,58.8c0-0.1,0-0.2-0.1-0.3c0-0.1-0.1-0.2-0.2-0.2C2.8,58.1,2.7,58,2.6,58c-0.1,0-0.2,0-0.3,0
	c-0.1,0-0.2,0-0.4,0c-0.1,0-0.2,0.1-0.3,0.2c-0.1,0.1-0.1,0.2-0.2,0.2c-0.1,0.2-0.1,0.5,0,0.7c0.1,0.1,0.1,0.2,0.2,0.2
	c0.1,0.1,0.2,0.1,0.3,0.2c0.2,0.1,0.5,0.1,0.7,0c0.1,0,0.2-0.1,0.3-0.2c0.1-0.1,0.2-0.2,0.2-0.2C3.2,59,3.2,58.9,3.2,58.8L3.2,58.8z
	 M1.5,56.6c0,0.1,0,0.2,0.1,0.3c0,0.1,0.1,0.1,0.2,0.2c0.1,0.1,0.2,0.1,0.2,0.1c0.1,0,0.2,0,0.3,0c0.1,0,0.2,0,0.3,0
	c0.1,0,0.2-0.1,0.2-0.1C2.8,57,2.9,56.9,3,56.8c0-0.1,0.1-0.2,0-0.3c0-0.2-0.1-0.3-0.2-0.4C2.6,56,2.4,56,2.3,56
	c-0.2,0-0.4,0.1-0.5,0.2C1.6,56.3,1.5,56.4,1.5,56.6z"/>
<path class="st6" d="M10,58.2c0,0.3,0,0.6-0.1,0.9c-0.1,0.3-0.2,0.5-0.4,0.7c-0.3,0.4-0.8,0.6-1.4,0.6c-0.3,0-0.5-0.1-0.8-0.2
	c-0.2-0.1-0.4-0.3-0.6-0.5c-0.2-0.2-0.3-0.5-0.4-0.7c-0.1-0.3-0.2-0.6-0.2-0.9c0-0.3,0-0.6,0.2-0.9c0.1-0.3,0.2-0.5,0.4-0.7
	c0.2-0.2,0.4-0.4,0.6-0.5c0.2-0.1,0.5-0.2,0.8-0.2c0.3,0,0.5,0.1,0.8,0.2c0.2,0.1,0.4,0.3,0.6,0.5c0.2,0.2,0.3,0.5,0.4,0.7
	C10,57.6,10,57.9,10,58.2z M9,58.2c0-0.2,0-0.4-0.1-0.5c0-0.2-0.1-0.3-0.2-0.4c-0.1-0.1-0.2-0.2-0.3-0.2c-0.1-0.1-0.2-0.1-0.4-0.1
	c-0.1,0-0.3,0-0.4,0.1c-0.1,0.1-0.2,0.2-0.3,0.3c-0.1,0.1-0.2,0.3-0.2,0.4c-0.1,0.2-0.1,0.4-0.1,0.5c0,0.2,0,0.4,0.1,0.5
	c0,0.2,0.1,0.3,0.2,0.4c0.1,0.1,0.2,0.2,0.3,0.3c0.1,0.1,0.2,0.1,0.4,0.1c0.1,0,0.3,0,0.4-0.1c0.1-0.1,0.2-0.2,0.3-0.3
	c0.1-0.1,0.2-0.3,0.2-0.4C9,58.6,9,58.4,9,58.2z"/>
<path class="st6" d="M12.9,57.3c-0.2,0-0.3,0-0.5-0.1c-0.1-0.1-0.3-0.1-0.4-0.2c-0.1-0.1-0.2-0.2-0.3-0.4c-0.1-0.3-0.1-0.6,0-0.9
	c0.1-0.1,0.2-0.3,0.3-0.4c0.1-0.1,0.2-0.2,0.4-0.2c0.2-0.1,0.3-0.1,0.5-0.1c0.2,0,0.3,0,0.5,0.1c0.1,0.1,0.3,0.1,0.4,0.2
	c0.1,0.1,0.2,0.2,0.3,0.4c0.1,0.3,0.1,0.6,0,0.9c-0.1,0.1-0.1,0.3-0.3,0.4c-0.1,0.1-0.3,0.2-0.4,0.2C13.2,57.3,13,57.3,12.9,57.3z
	 M12.1,60l2.1-2.5l2-2.6l0.5,0.4l-2,2.4l-2,2.6L12.1,60z M12.9,56.8c0.1,0,0.1,0,0.2-0.1c0.1-0.1,0.2-0.2,0.3-0.3c0-0.1,0-0.2,0-0.2
	c0-0.2,0-0.3-0.1-0.5c-0.1-0.1-0.2-0.2-0.4-0.2c-0.1,0-0.1,0-0.2,0c-0.1,0-0.1,0.1-0.2,0.1c-0.1,0.1-0.1,0.1-0.1,0.2
	c0,0.1,0,0.2,0,0.2c0,0.2,0.1,0.3,0.2,0.5C12.6,56.7,12.7,56.8,12.9,56.8z M15.8,60.5c-0.2,0-0.3,0-0.5-0.1
	c-0.1-0.1-0.3-0.1-0.4-0.2c-0.1-0.1-0.2-0.2-0.3-0.4c-0.1-0.1-0.1-0.3-0.1-0.4c0-0.2,0-0.3,0.1-0.5c0.1-0.1,0.1-0.3,0.3-0.4
	c0.1-0.1,0.2-0.2,0.4-0.2c0.2-0.1,0.3-0.1,0.5-0.1c0.2,0,0.3,0,0.5,0.1c0.1,0.1,0.3,0.1,0.4,0.2c0.1,0.1,0.2,0.2,0.3,0.4
	C17,59,17,59.2,17,59.3c0,0.3-0.1,0.6-0.4,0.8c-0.1,0.1-0.3,0.2-0.4,0.2C16.1,60.5,15.9,60.5,15.8,60.5z M15.8,60
	c0.1,0,0.1,0,0.2-0.1c0.1,0,0.1-0.1,0.2-0.1c0-0.1,0.1-0.1,0.1-0.2c0-0.1,0-0.2,0-0.2c0-0.1,0-0.2,0-0.2c0-0.1-0.1-0.1-0.1-0.2
	c0-0.1-0.1-0.1-0.2-0.1c-0.1,0-0.1,0-0.2,0c-0.1,0-0.1,0-0.2,0c-0.1,0-0.1,0.1-0.2,0.1c0,0.1-0.1,0.1-0.1,0.2c0,0.1,0,0.2,0,0.2
	c0,0.2,0.1,0.3,0.2,0.4C15.5,59.9,15.6,60,15.8,60L15.8,60z"/>
<path class="st6" d="M2.3,171.4v-1.1H0.2v-0.9l2.5-3.2h0.7v3.2H4v0.9H3.3v1.1H2.3z M1.1,169.4h1.3v-1.7L1.1,169.4z"/>
<path class="st6" d="M9.7,168.2c0,0.3,0,0.6-0.1,0.9c-0.1,0.3-0.2,0.5-0.4,0.7c-0.2,0.2-0.4,0.4-0.6,0.5c-0.5,0.2-1.1,0.2-1.5,0
	c-0.2-0.1-0.4-0.3-0.6-0.5c-0.2-0.2-0.3-0.5-0.4-0.7c-0.2-0.6-0.2-1.2,0-1.8c0.1-0.3,0.2-0.5,0.4-0.7c0.2-0.2,0.4-0.4,0.6-0.5
	c0.5-0.2,1.1-0.2,1.5,0c0.2,0.1,0.4,0.3,0.6,0.5c0.2,0.2,0.3,0.5,0.4,0.7C9.7,167.6,9.7,167.9,9.7,168.2z M8.7,168.2
	c0-0.2,0-0.4-0.1-0.6c0-0.2-0.1-0.3-0.2-0.4c-0.1-0.1-0.2-0.2-0.3-0.3c-0.1-0.1-0.2-0.1-0.4-0.1c-0.1,0-0.3,0-0.4,0.1
	c-0.1,0.1-0.2,0.2-0.3,0.3c-0.1,0.1-0.1,0.3-0.2,0.4c-0.1,0.4-0.1,0.7,0,1.1c0,0.2,0.1,0.3,0.2,0.4c0.1,0.1,0.2,0.2,0.3,0.3
	c0.1,0.1,0.2,0.1,0.4,0.1c0.1,0,0.3,0,0.4-0.1c0.1-0.1,0.2-0.2,0.3-0.3c0.1-0.1,0.1-0.3,0.2-0.4C8.7,168.6,8.7,168.4,8.7,168.2
	L8.7,168.2z"/>
<path class="st6" d="M12.6,167.3c-0.3,0-0.6-0.1-0.9-0.3c-0.1-0.1-0.2-0.2-0.3-0.4c-0.1-0.1-0.1-0.3-0.1-0.4c0-0.2,0-0.3,0.1-0.4
	c0.1-0.1,0.2-0.3,0.3-0.4c0.2-0.2,0.5-0.3,0.9-0.3c0.2,0,0.3,0,0.5,0.1c0.1,0.1,0.3,0.1,0.4,0.2c0.1,0.1,0.2,0.2,0.3,0.4
	c0.1,0.1,0.1,0.3,0.1,0.4c0,0.2,0,0.3-0.1,0.4c-0.1,0.3-0.4,0.5-0.6,0.6C12.9,167.2,12.7,167.3,12.6,167.3z M11.8,170.1l2.1-2.5
	l2-2.6l0.5,0.4l-2,2.4l-2,2.6L11.8,170.1z M12.6,166.8c0.1,0,0.1,0,0.2-0.1l0.2-0.1c0.1-0.1,0.1-0.1,0.1-0.2c0-0.1,0-0.2,0-0.2
	c0-0.2-0.1-0.3-0.2-0.4c-0.1-0.1-0.2-0.2-0.4-0.2c-0.1,0-0.1,0-0.2,0.1c-0.1,0-0.1,0.1-0.2,0.1c0,0.1-0.1,0.1-0.1,0.2
	c0,0.1,0,0.2,0,0.2c0,0.2,0.1,0.3,0.2,0.4C12.3,166.7,12.4,166.8,12.6,166.8z M15.5,170.5c-0.2,0-0.3,0-0.5-0.1
	c-0.1-0.1-0.3-0.1-0.4-0.2c-0.1-0.1-0.2-0.2-0.3-0.4c-0.1-0.3-0.1-0.6,0-0.9c0.1-0.3,0.4-0.5,0.6-0.6c0.2-0.1,0.3-0.1,0.5-0.1
	c0.2,0,0.3,0,0.5,0.1c0.3,0.1,0.5,0.3,0.7,0.6c0.1,0.3,0.1,0.6,0,0.9c-0.1,0.1-0.2,0.3-0.3,0.4c-0.1,0.1-0.2,0.2-0.4,0.2
	C15.8,170.5,15.6,170.5,15.5,170.5z M15.5,170c0.1,0,0.1,0,0.2,0c0.1,0,0.1-0.1,0.2-0.1c0.1-0.1,0.1-0.1,0.1-0.2c0-0.1,0-0.2,0-0.2
	c0-0.1,0-0.2,0-0.2c0-0.1-0.1-0.1-0.1-0.2c-0.1-0.1-0.2-0.2-0.4-0.2c-0.1,0-0.1,0-0.2,0.1c-0.1,0-0.1,0.1-0.2,0.1
	c-0.1,0.1-0.1,0.1-0.1,0.2c0,0.1,0,0.2,0,0.2c0,0.2,0,0.3,0.1,0.4C15.2,169.9,15.3,170,15.5,170L15.5,170z"/>
<path class="st6" d="M12.6,222.3c-0.3,0-0.6-0.1-0.9-0.3c-0.1-0.1-0.2-0.2-0.3-0.4c-0.1-0.1-0.1-0.3-0.1-0.4c0-0.2,0-0.3,0.1-0.4
	c0.1-0.1,0.2-0.3,0.3-0.4c0.2-0.2,0.5-0.3,0.9-0.3c0.2,0,0.3,0,0.5,0.1c0.1,0.1,0.3,0.1,0.4,0.2c0.1,0.1,0.2,0.2,0.3,0.4
	c0.1,0.1,0.1,0.3,0.1,0.4c0,0.2,0,0.3-0.1,0.4c-0.1,0.3-0.4,0.5-0.6,0.6C12.9,222.3,12.7,222.3,12.6,222.3z M11.8,225.1l2.1-2.5
	l2-2.6l0.5,0.4l-2,2.4l-2,2.6L11.8,225.1z M12.6,221.8c0.1,0,0.1,0,0.2-0.1l0.2-0.1c0.1-0.1,0.1-0.1,0.1-0.2c0-0.1,0-0.2,0-0.2
	c0-0.2-0.1-0.3-0.2-0.4c-0.1-0.1-0.2-0.2-0.4-0.2c-0.1,0-0.1,0-0.2,0.1c-0.1,0-0.1,0.1-0.2,0.1c0,0.1-0.1,0.1-0.1,0.2
	c0,0.1,0,0.2,0,0.2c0,0.2,0.1,0.3,0.2,0.4C12.3,221.8,12.4,221.8,12.6,221.8z M15.5,225.5c-0.2,0-0.3,0-0.5-0.1
	c-0.1-0.1-0.3-0.1-0.4-0.2c-0.1-0.1-0.2-0.2-0.3-0.4c-0.1-0.3-0.1-0.6,0-0.9c0.1-0.3,0.4-0.5,0.6-0.6c0.2-0.1,0.3-0.1,0.5-0.1
	c0.2,0,0.3,0,0.5,0.1c0.3,0.1,0.5,0.3,0.7,0.6c0.1,0.3,0.1,0.6,0,0.9c-0.1,0.1-0.2,0.3-0.3,0.4c-0.1,0.1-0.2,0.2-0.4,0.2
	C15.8,225.5,15.6,225.5,15.5,225.5z M15.5,225c0.1,0,0.1,0,0.2,0c0.1,0,0.1-0.1,0.2-0.1c0.1-0.1,0.1-0.1,0.1-0.2c0-0.1,0-0.2,0-0.2
	c0-0.1,0-0.2,0-0.2c0-0.1-0.1-0.1-0.1-0.2c-0.1-0.1-0.2-0.2-0.4-0.2c-0.1,0-0.1,0-0.2,0.1c-0.1,0-0.1,0.1-0.2,0.1
	c-0.1,0.1-0.1,0.1-0.1,0.2c0,0.1,0,0.2,0,0.2c0,0.2,0,0.3,0.1,0.4C15.2,225,15.3,225.1,15.5,225L15.5,225z"/>
<path class="st6" d="M3.5,279.4v0.9h-3v-0.9h1v-2.3c-0.1,0.1-0.1,0.1-0.2,0.2c-0.1,0.1-0.2,0.1-0.3,0.2c-0.1,0.1-0.2,0.1-0.4,0.1
	c-0.1,0-0.2,0-0.3,0v-0.9c0.1,0,0.2,0,0.3-0.1c0.1-0.1,0.3-0.1,0.4-0.2c0.1-0.1,0.2-0.2,0.3-0.2c0.1,0,0.1-0.1,0.2-0.2h1v3.4
	L3.5,279.4z"/>
<path class="st6" d="M9.1,278.1c0,0.3,0,0.6-0.1,0.9c-0.1,0.3-0.2,0.5-0.4,0.7c-0.2,0.2-0.4,0.4-0.6,0.5c-0.2,0.1-0.5,0.2-0.8,0.2
	c-0.3,0-0.5-0.1-0.8-0.2c-0.2-0.1-0.4-0.3-0.6-0.5c-0.2-0.2-0.3-0.5-0.4-0.7c-0.1-0.3-0.1-0.6-0.1-0.9c0-0.3,0-0.6,0.1-0.9
	c0.1-0.3,0.2-0.5,0.4-0.7c0.2-0.2,0.4-0.4,0.6-0.5c0.2-0.1,0.5-0.2,0.8-0.2c0.3,0,0.5,0.1,0.8,0.2c0.2,0.1,0.4,0.3,0.6,0.5
	c0.2,0.2,0.3,0.5,0.4,0.7C9,277.5,9.1,277.8,9.1,278.1z M8.1,278.1c0-0.2,0-0.4-0.1-0.6c0-0.2-0.1-0.3-0.2-0.4
	c-0.1-0.1-0.2-0.2-0.3-0.3c-0.1-0.1-0.2-0.1-0.4-0.1c-0.1,0-0.3,0-0.4,0.1c-0.1,0.1-0.2,0.2-0.3,0.3c-0.1,0.1-0.2,0.3-0.2,0.4
	c0,0.2-0.1,0.4-0.1,0.6c0,0.2,0,0.4,0.1,0.5c0,0.2,0.1,0.3,0.2,0.4c0.1,0.1,0.2,0.2,0.3,0.3c0.1,0.1,0.2,0.1,0.4,0.1
	c0.1,0,0.3,0,0.4-0.1c0.1-0.1,0.2-0.2,0.3-0.3c0.1-0.1,0.2-0.3,0.2-0.4C8,278.5,8.1,278.3,8.1,278.1L8.1,278.1z"/>
<path class="st6" d="M11.9,277.2c-0.2,0-0.3,0-0.5-0.1c-0.1-0.1-0.3-0.1-0.4-0.2c-0.1-0.1-0.2-0.2-0.3-0.4c-0.1-0.1-0.1-0.3-0.1-0.4
	c0-0.2,0-0.3,0.1-0.5c0.1-0.1,0.2-0.3,0.3-0.4c0.2-0.2,0.5-0.3,0.9-0.3c0.2,0,0.3,0,0.5,0.1c0.1,0.1,0.3,0.1,0.4,0.2
	c0.1,0.1,0.2,0.2,0.3,0.4c0.1,0.1,0.1,0.3,0.1,0.5c0,0.2,0,0.3-0.1,0.4c-0.1,0.1-0.1,0.3-0.3,0.4c-0.1,0.1-0.2,0.2-0.4,0.2
	C12.3,277.1,12.1,277.2,11.9,277.2z M11.1,279.9l2.1-2.5l1.9-2.6l0.5,0.4l-2.1,2.4l-2,2.6L11.1,279.9z M11.9,276.6
	c0.1,0,0.1,0,0.2,0c0.1,0,0.1-0.1,0.2-0.1c0.1-0.1,0.1-0.1,0.1-0.2c0.1-0.2,0.1-0.5-0.1-0.7c-0.1-0.1-0.2-0.2-0.4-0.2
	c-0.1,0-0.1,0-0.2,0c-0.1,0-0.1,0.1-0.2,0.1c-0.1,0.1-0.1,0.1-0.1,0.2c0,0.1,0,0.2,0,0.2c0,0.2,0.1,0.3,0.2,0.5
	C11.7,276.6,11.8,276.7,11.9,276.6z M14.8,280.4c-0.2,0-0.3,0-0.5-0.1c-0.1-0.1-0.2-0.2-0.3-0.3c-0.1-0.1-0.2-0.2-0.3-0.4
	c-0.1-0.1-0.1-0.3-0.1-0.4c0-0.2,0-0.3,0.1-0.5c0.1-0.1,0.1-0.3,0.3-0.4c0.1-0.1,0.2-0.2,0.4-0.2c0.2-0.1,0.3-0.1,0.5-0.1
	c0.2,0,0.3,0,0.5,0.1c0.1,0.1,0.3,0.1,0.4,0.2c0.1,0.1,0.2,0.2,0.3,0.4c0.1,0.1,0.1,0.3,0.1,0.5c0,0.2,0,0.3-0.1,0.4
	c-0.1,0.1-0.1,0.3-0.3,0.4c-0.1,0.1-0.3,0.2-0.4,0.2C15.2,280.3,15,280.4,14.8,280.4z M14.8,279.9c0.1,0,0.1,0,0.2-0.1
	c0.1,0,0.1-0.1,0.2-0.1c0.1-0.1,0.1-0.1,0.1-0.2c0-0.1,0-0.2,0-0.2c0-0.1,0-0.2,0-0.3c0-0.1-0.1-0.1-0.1-0.2c0-0.1-0.1-0.1-0.2-0.1
	c-0.1,0-0.1-0.1-0.2,0c-0.1,0-0.1,0-0.2,0c-0.1,0-0.1,0.1-0.2,0.1c-0.1,0.1-0.1,0.1-0.1,0.2c0,0.1,0,0.2,0,0.2c0,0.2,0,0.3,0.1,0.4
	C14.6,279.8,14.7,279.8,14.8,279.9z"/>
<path class="st1" d="M104.3,79.2h-30v-25h30V79.2z M74.6,78.9h29.5V54.4H74.6V78.9z"/>
<path class="st1" d="M164.3,160.2h-30v-25h30V160.2z M134.6,159.9h29.5v-24.5h-29.5V159.9z"/>
<path class="st1" d="M224.3,214.8h-30v-25h30V214.8z M194.6,214.5h29.5V190h-29.5V214.5z"/>
<path class="st1" d="M284.3,214.8h-30v-25h30V214.8z M254.6,214.5h29.5V190h-29.5V214.5z"/>
<path class="st7" d="M86.4,241.6l1-0.1c-0.7-0.4-1.1-1.1-1.1-1.9c0-1.4,1-1.9,2.2-1.9h3.1v1.4h-2.9c-1,0-1.3,0.3-1.3,1
	c0,0.7,0.6,1.3,1.3,1.4h2.9v1.4h-5.2V241.6z"/>
<path class="st7" d="M86.2,246c0-0.7,0.2-1.5,0.6-2.1l1,0.2c-0.4,0.5-0.6,1.2-0.6,1.8c0,0.6,0.2,0.9,0.6,0.9s0.5-0.4,0.7-1.1
	c0.3-1.3,0.9-1.7,1.7-1.7s1.6,0.6,1.6,2c0,0.6-0.2,1.2-0.5,1.8l-0.9-0.2c0.3-0.5,0.4-1,0.4-1.5c0-0.6-0.2-0.8-0.5-0.8
	s-0.5,0.4-0.6,0.9c-0.3,1.4-0.9,1.9-1.6,1.9C86.9,248.1,86.2,247.3,86.2,246z"/>
<path class="st7" d="M88.9,253.7v-3.5c-0.9-0.1-1.6,0.5-1.7,1.4c0,0.1,0,0.3,0,0.4c0,0.6,0.2,1.2,0.6,1.7h-1
	c-0.4-0.6-0.6-1.4-0.6-2.1c0.1-1.5,1.3-2.7,2.8-2.6c1.4,0.1,2.5,1.1,2.6,2.5c0.1,1.2-0.7,2.2-1.9,2.3c-0.1,0-0.1,0-0.2,0
	C89.4,253.8,89.1,253.7,88.9,253.7z M90.8,251.5c0-0.6-0.5-1.2-1.1-1.2v2.2c0.5,0.1,1-0.2,1.1-0.7C90.8,251.7,90.8,251.6,90.8,251.5
	z"/>
<path class="st7" d="M86.4,264.4h2.9c0.9,0,1.3-0.2,1.3-0.9c0-0.7-0.6-1.3-1.3-1.3h-2.9v-1.4h2.9c0.9,0,1.3-0.2,1.3-0.9
	c0-0.7-0.6-1.3-1.3-1.3h-2.9v-1.4h5.2v1.3l-1,0.1c0.7,0.4,1.1,1.1,1.1,1.8c0.1,0.8-0.4,1.5-1.2,1.6c0.7,0.4,1.2,1.1,1.2,1.9
	c0,1.4-1,1.8-2.2,1.8h-3.1V264.4z"/>
<path class="st7" d="M88.9,271.7v-3.5c-0.9-0.1-1.6,0.5-1.7,1.4c0,0.1,0,0.3,0,0.4c0,0.6,0.2,1.2,0.6,1.7h-1
	c-0.4-0.6-0.6-1.4-0.6-2.1c0.1-1.5,1.3-2.7,2.8-2.6c1.4,0.1,2.5,1.1,2.6,2.5c0.1,1.2-0.7,2.2-1.9,2.3c-0.1,0-0.1,0-0.2,0
	C89.4,271.8,89.1,271.7,88.9,271.7z M90.8,269.5c0-0.6-0.5-1.2-1.1-1.2c0,0,0,0,0,0v2.2c0.5,0.1,1-0.2,1.1-0.7
	C90.8,269.7,90.8,269.6,90.8,269.5z"/>
<path class="st7" d="M86.4,280h2.9c0.9,0,1.3-0.2,1.3-0.9c0-0.7-0.6-1.3-1.3-1.3h-2.9v-1.4h2.9c0.9,0,1.3-0.2,1.3-0.9
	c0-0.7-0.6-1.3-1.3-1.3h-2.9v-1.4h5.2v1.3l-1,0.1c0.7,0.4,1.1,1.1,1.1,1.8c0.1,0.8-0.4,1.5-1.2,1.7c0.7,0.4,1.1,1.1,1.2,1.9
	c0,1.4-1,1.8-2.2,1.8h-3V280z"/>
<path class="st7" d="M86.2,285.4c0.1-1.5,1.4-2.7,2.9-2.7c1.5,0.1,2.7,1.4,2.7,2.9c-0.1,1.5-1.3,2.7-2.8,2.7c-1.5,0-2.8-1.2-2.8-2.8
	C86.2,285.4,86.2,285.4,86.2,285.4z M90.7,285.4c0.1-1-0.6-1.9-1.5-2c-1-0.1-1.9,0.6-2,1.5s0.6,1.9,1.5,2c0.1,0,0.2,0,0.3,0
	C89.9,287,90.6,286.3,90.7,285.4C90.7,285.4,90.7,285.4,90.7,285.4z"/>
<path class="st7" d="M89.2,290.7h-2.8v-1.4h5.2v1.3l-1,0.1c0.7,0.4,1.1,1.1,1.1,1.9h-1.3C90.6,291.6,90.1,290.7,89.2,290.7z"/>
<path class="st7" d="M84,295.2v-1.3l2.6,1.1l4.9-2.1v1.4l-3.5,1.4l3.5,1.4v1.3L84,295.2z"/>
<path class="st7" d="M146.3,232.3h2.9c1,0,1.3-0.4,1.3-1c0-0.7-0.6-1.3-1.3-1.4h-2.9v-1.4h5.2v1.3l-1,0.1c0.7,0.4,1.1,1.1,1.1,1.9
	c0,1.4-1,1.9-2.2,1.9h-3V232.3z"/>
<path class="st7" d="M146.1,237.7c0.1-1.5,1.4-2.7,2.9-2.7s2.7,1.4,2.7,2.9c-0.1,1.5-1.3,2.7-2.8,2.7c-1.5,0-2.8-1.2-2.8-2.8
	C146.1,237.7,146.1,237.7,146.1,237.7z M150.6,237.7c0.1-1-0.5-1.9-1.5-2c-1-0.1-1.9,0.5-2,1.5c-0.1,1,0.5,1.9,1.5,2
	c0.1,0,0.2,0,0.2,0c0.9,0.1,1.7-0.5,1.7-1.4C150.6,237.8,150.6,237.7,150.6,237.7z"/>
<path class="st7" d="M150.6,243.6h-4.3v-1.4h4.3v-1.1h0.9v1.1h1.4v1.4h-1.4v1.1h-0.9V243.6z"/>
<path class="st7" d="M148.9,250.1v-3.4c-0.9-0.1-1.6,0.5-1.7,1.4c0,0.1,0,0.2,0,0.4c0,0.6,0.2,1.2,0.6,1.7h-1
	c-0.4-0.6-0.6-1.4-0.6-2.1c0-1.5,1.2-2.8,2.7-2.8c1.5,0,2.8,1.2,2.8,2.7c0.1,1.2-0.7,2.2-1.9,2.3c-0.1,0-0.1,0-0.2,0
	C149.3,250.2,149.1,250.1,148.9,250.1z M150.7,247.9c0-0.6-0.5-1.2-1.1-1.2v2.2c0.5,0.1,1-0.2,1.1-0.7
	C150.7,248.1,150.8,248,150.7,247.9L150.7,247.9z"/>
<path class="st7" d="M146.1,256.3c0.1-1.5,1.4-2.7,2.9-2.7s2.7,1.4,2.7,2.9c-0.1,1.5-1.3,2.7-2.8,2.7c-1.5,0-2.8-1.2-2.8-2.8
	C146.1,256.4,146.1,256.3,146.1,256.3z M150.6,256.3c-0.1-1-1-1.7-1.9-1.6c-0.8,0.1-1.5,0.7-1.6,1.6c0.1,1,1.1,1.6,2,1.5
	C149.9,257.6,150.5,257,150.6,256.3z"/>
<path class="st7" d="M146.3,264h2.9c1,0,1.3-0.3,1.3-1c0-0.7-0.6-1.3-1.3-1.4h-2.9v-1.4h5.2v1.3l-1,0.1c0.7,0.4,1.1,1.1,1.1,1.9
	c0,1.4-1,1.9-2.2,1.9h-3V264z"/>
<path class="st7" d="M146.2,272.3c0-0.7,0.3-1.4,0.9-1.9h-3v-1.4h7.5v1.3h-0.8c0.6,0.4,1,1.2,1,1.9c-0.2,1.5-1.6,2.6-3.1,2.4
	C147.4,274.5,146.4,273.5,146.2,272.3L146.2,272.3z M150.6,271.9c0.1-0.9-0.5-1.8-1.5-1.9c-0.9-0.1-1.8,0.5-1.9,1.5
	c-0.1,0.9,0.5,1.8,1.5,1.9c0.1,0,0.2,0,0.2,0c0.8,0.1,1.6-0.5,1.7-1.3C150.6,272,150.6,271.9,150.6,271.9z"/>
<path class="st7" d="M146.3,279.9h0.8c-0.6-0.4-1-1.2-1-1.9c0.2-1.5,1.6-2.6,3.1-2.4c1.3,0.2,2.2,1.1,2.4,2.4c0,0.8-0.4,1.5-1,1.9
	h0.8v1.3h-5.1V279.9z M150.6,278.4c0.1-0.9-0.5-1.8-1.5-2c-0.9-0.1-1.8,0.5-2,1.5c-0.1,0.9,0.5,1.8,1.5,2c0.1,0,0.2,0,0.3,0
	c0.8,0.1,1.6-0.5,1.7-1.3C150.6,278.5,150.6,278.4,150.6,278.4L150.6,278.4z"/>
<path class="st7" d="M146.2,285.8c0-0.7,0.3-1.4,0.8-1.8h-3v-1.4h7.5v1.3h-0.8c0.6,0.4,1,1.2,1,1.9c-0.2,1.5-1.6,2.6-3.1,2.4
	C147.4,288,146.4,287.1,146.2,285.8L146.2,285.8z M150.6,285.4c0.1-0.9-0.5-1.8-1.5-1.9c-0.9-0.1-1.8,0.5-1.9,1.5
	c-0.1,0.9,0.5,1.8,1.5,1.9c0.1,0,0.2,0,0.2,0c0.8,0.1,1.6-0.5,1.7-1.3C150.6,285.5,150.6,285.4,150.6,285.4z"/>
<path class="st7" d="M148.9,293.9v-3.5c-0.9-0.1-1.6,0.5-1.7,1.4c0,0.1,0,0.2,0,0.4c0,0.6,0.2,1.2,0.6,1.7h-1
	c-0.4-0.6-0.6-1.4-0.6-2.1c0-1.5,1.2-2.8,2.7-2.8c1.5,0,2.8,1.2,2.8,2.7c0.1,1.2-0.7,2.2-1.9,2.3c-0.1,0-0.1,0-0.2,0
	C149.3,293.9,149.1,293.9,148.9,293.9z M150.7,291.7c0-0.6-0.5-1.2-1.1-1.2v2.2c0.5,0.1,1-0.2,1.1-0.7
	C150.7,291.9,150.7,291.8,150.7,291.7L150.7,291.7z"/>
<path class="st7" d="M149.1,296.5h-2.8v-1.4h5.2v1.3l-0.9,0.1c0.7,0.4,1.1,1.1,1.1,1.9h-1.4C150.5,297.4,150,296.5,149.1,296.5z"/>
<path class="st7" d="M206.3,248.8h2.9c0.9,0,1.3-0.3,1.3-0.9c0-0.7-0.6-1.3-1.3-1.3h-2.9v-1.4h2.9c0.9,0,1.3-0.2,1.3-0.9
	c0-0.7-0.6-1.3-1.3-1.3h-2.9v-1.4h5.2v1.3l-0.9,0.1c0.7,0.4,1.1,1.1,1.1,1.8c0.1,0.8-0.4,1.5-1.2,1.7c0.7,0.4,1.1,1.1,1.2,1.9
	c0,1.4-1,1.8-2.2,1.8h-3.1L206.3,248.8z"/>
<path class="st7" d="M206.3,255.7h0.8c-0.6-0.4-1-1.2-1-1.9c0.2-1.5,1.5-2.6,3-2.4c1.3,0.1,2.3,1.2,2.4,2.4c0,0.8-0.4,1.5-1,1.9h0.8
	v1.3h-5.2L206.3,255.7z M210.6,254.1c0.1-0.9-0.5-1.8-1.5-1.9c-0.9-0.1-1.8,0.5-1.9,1.5c-0.1,0.9,0.5,1.8,1.5,1.9c0.1,0,0.2,0,0.2,0
	c0.8,0.1,1.6-0.5,1.7-1.3C210.6,254.2,210.6,254.2,210.6,254.1z"/>
<path class="st7" d="M206.3,261.9l2.7-2.2h-2.7v-1.4h7.2v1.4h-4.2l2.2,2.2v1.5l-2.3-2.4l-2.9,2.5L206.3,261.9z"/>
<path class="st7" d="M208.9,268.6v-3.5c-0.9-0.1-1.6,0.5-1.7,1.4c0,0.1,0,0.2,0,0.4c0,0.6,0.2,1.2,0.6,1.7h-1
	c-0.4-0.6-0.6-1.4-0.6-2.1c0.1-1.5,1.3-2.7,2.8-2.6c1.4,0.1,2.5,1.1,2.6,2.5c0.1,1.2-0.7,2.2-1.9,2.3c0,0-0.1,0-0.1,0
	C209.4,268.6,209.1,268.6,208.9,268.6z M210.8,266.4c0-0.6-0.5-1.2-1.1-1.2c0,0,0,0,0,0v2.2c0.5,0.1,1-0.2,1.1-0.7
	C210.8,266.6,210.8,266.5,210.8,266.4z"/>
<path class="st7" d="M206.2,274.6c0.1-1.5,1.4-2.7,2.9-2.6c1.4,0.1,2.5,1.2,2.6,2.6c0,0.7-0.2,1.3-0.5,1.9h-1.1
	c0.4-0.4,0.6-1,0.5-1.6c-0.1-0.9-0.9-1.6-1.8-1.5c-0.8,0.1-1.5,0.7-1.5,1.5c0,0.6,0.2,1.1,0.6,1.6h-1.1
	C206.3,275.9,206.2,275.3,206.2,274.6z"/>
<path class="st7" d="M206.3,281.3h2.9c1,0,1.3-0.4,1.3-1c0-0.7-0.6-1.3-1.3-1.4h-2.9v-1.4h7.2v1.5h-2.9c0.6,0.4,1,1.1,1,1.9
	c0,1.4-1,1.9-2.2,1.9h-3.1L206.3,281.3z"/>
<path class="st7" d="M206.3,288.2l0.8,0c-0.6-0.4-1-1.2-1-1.9c0.2-1.5,1.5-2.6,3-2.4c1.3,0.1,2.3,1.2,2.4,2.4c0,0.8-0.4,1.5-1,1.9
	l0.8,0v1.3h-5.2L206.3,288.2z M210.6,286.6c0.1-0.9-0.5-1.8-1.5-1.9c-0.9-0.1-1.8,0.5-1.9,1.5s0.5,1.8,1.5,1.9c0.1,0,0.2,0,0.2,0
	c0.8,0.1,1.6-0.5,1.7-1.3C210.6,286.7,210.6,286.7,210.6,286.6z"/>
<path class="st7" d="M209.2,292.2h-2.8v-1.4h5.2v1.3l-0.9,0.1c0.7,0.4,1.1,1.1,1.1,1.9h-1.4C210.5,293.1,210.1,292.2,209.2,292.2z"
	/>
<path class="st7" d="M210.6,297.1h-4.3v-1.4h4.3v-1.1h0.9v1.1h1.4v1.4h-1.4v1.1h-0.9V297.1z"/>
<path class="st7" d="M264.1,247.3c0-0.8,0.2-1.6,0.6-2.3h1.1c-0.4,0.7-0.7,1.4-0.7,2.2c0,0.9,0.5,1.6,1.8,1.6h0.3
	c-0.5-0.5-0.9-1.1-0.9-1.9c0.2-1.5,1.5-2.6,3-2.4c1.3,0.1,2.3,1.2,2.4,2.4c0,0.8-0.4,1.5-1,1.9l0.8,0.1v1.3H267
	c-1.4,0.2-2.8-0.9-2.9-2.3C264,247.8,264,247.5,264.1,247.3z M270.8,247.5c0.1-0.9-0.5-1.8-1.5-2c-0.9-0.1-1.8,0.5-2,1.5
	c-0.1,0.9,0.5,1.8,1.5,2c0.1,0,0.2,0,0.3,0c0.8,0.1,1.6-0.5,1.7-1.3C270.8,247.6,270.8,247.5,270.8,247.5z"/>
<path class="st7" d="M266.5,251.6h5.2v1.4h-5.2V251.6z M272.6,251.6h1.1v1.4h-1.1V251.6z"/>
<path class="st7" d="M266.5,257v-1l5.2-2.3v1.4l-3.4,1.4l3.4,1.4v1.3L266.5,257z"/>
<path class="st7" d="M269.1,264.3v-3.5c-0.9-0.1-1.6,0.5-1.7,1.4c0,0.1,0,0.2,0,0.4c0,0.6,0.2,1.2,0.6,1.7h-1
	c-0.4-0.6-0.6-1.4-0.6-2.1c0.1-1.5,1.3-2.7,2.8-2.6c1.4,0.1,2.5,1.1,2.6,2.5c0.1,1.2-0.7,2.2-1.9,2.3c0,0-0.1,0-0.1,0
	C269.6,264.4,269.3,264.4,269.1,264.3z M271,262.1c0-0.6-0.5-1.2-1.1-1.2c0,0,0,0,0,0v2.2c0.5,0.2,1-0.1,1.2-0.6
	C271,262.4,271,262.3,271,262.1L271,262.1z"/>
<path class="st7" d="M266.4,271.2c0-0.7,0.3-1.4,0.9-1.8h-3v-1.4h7.5v1.3l-0.8,0c0.6,0.4,1,1.2,1,1.9c-0.2,1.5-1.5,2.6-3,2.4
	C267.6,273.5,266.6,272.5,266.4,271.2L266.4,271.2z M270.8,270.7c0.1-0.9-0.5-1.8-1.5-1.9c-0.9-0.1-1.8,0.5-1.9,1.5s0.5,1.8,1.5,1.9
	c0.1,0,0.2,0,0.2,0c0.8,0.1,1.6-0.5,1.7-1.3C270.8,270.8,270.8,270.8,270.8,270.7z"/>
<path class="st7" d="M266.3,277.2c0.1-1.5,1.4-2.7,2.9-2.7c1.5,0.1,2.7,1.4,2.7,2.9c-0.1,1.5-1.3,2.7-2.8,2.7
	C267.6,280.1,266.3,278.9,266.3,277.2C266.3,277.3,266.3,277.3,266.3,277.2z M270.9,277.2c0.1-1-0.5-1.9-1.5-2s-1.9,0.5-2,1.5
	c-0.1,1,0.5,1.9,1.5,2c0.1,0,0.2,0,0.3,0c0.9,0.1,1.7-0.5,1.8-1.4C270.9,277.3,270.9,277.3,270.9,277.2z"/>
<path class="st7" d="M266.5,281.2h5.2v1.4h-5.2V281.2z M272.6,281.2h1.1v1.4h-1.1V281.2z"/>
<path class="st7" d="M266.5,287.7h2.9c1,0,1.4-0.4,1.4-1c0-0.7-0.6-1.3-1.3-1.4h-2.9v-1.4h5.2v1.3l-1,0.1c0.7,0.4,1.1,1.1,1.1,1.9
	c0,1.4-1,1.9-2.2,1.9h-3.1L266.5,287.7z"/>
<path class="st7" d="M270.8,292.4h-4.3V291h4.3v-1.1h0.9v1.1h1.4v1.4h-1.4v1.1h-0.9V292.4z"/>
<path class="st7" d="M266.4,296.1c0-0.7,0.2-1.4,0.6-2.1l1,0.2c-0.4,0.5-0.5,1.2-0.6,1.8c0,0.5,0.2,0.9,0.6,0.9s0.5-0.4,0.7-1.1
	c0.3-1.3,1-1.7,1.7-1.7s1.6,0.6,1.6,2c0,0.6-0.2,1.2-0.5,1.8l-0.9-0.2c0.3-0.5,0.4-1,0.4-1.5c0-0.6-0.2-0.8-0.5-0.8
	s-0.5,0.4-0.6,0.9c-0.3,1.4-0.9,1.9-1.6,1.9C267,298.2,266.4,297.4,266.4,296.1z"/>
<path d="M84,70h-1.5c0.6-2.1,1.5-4.1,2.7-6h-3.5v-1.2h5.1v0.7C85.5,65.5,84.6,67.7,84,70z"/>
<path d="M90.2,70.3c-1.7,0-3-1.4-3-3.8s1.3-3.8,3-3.8s2.9,1.4,2.9,3.8S91.9,70.3,90.2,70.3z M90.2,63.7c-0.9,0-1.5,0.9-1.5,2.7
	s0.6,2.7,1.5,2.7s1.5-0.9,1.5-2.7S91.1,63.7,90.2,63.7z"/>
<path d="M95.8,66.3c-1,0.1-1.8-0.7-1.9-1.7c-0.1-1,0.7-1.8,1.7-1.9c1-0.1,1.8,0.7,1.9,1.7c0,0,0,0.1,0,0.1c0.1,0.9-0.6,1.7-1.6,1.8
	C95.8,66.3,95.8,66.3,95.8,66.3z M95.8,63.4c-0.4,0-0.7,0.3-0.7,1c0,0.7,0.3,1.1,0.7,1.1s0.7-0.3,0.7-1.1
	C96.5,63.7,96.2,63.4,95.8,63.4z M95.6,70.3L95.2,70l4.6-7.4l0.4,0.2L95.6,70.3z M99.6,70.2c-1,0.1-1.8-0.7-1.9-1.7
	c-0.1-1,0.7-1.8,1.7-1.9c1-0.1,1.8,0.7,1.9,1.7c0,0,0,0.1,0,0.1c0.1,0.9-0.6,1.7-1.6,1.8C99.7,70.2,99.7,70.2,99.6,70.2z M99.6,67.3
	c-0.4,0-0.7,0.3-0.7,1.1s0.3,1,0.7,1s0.7-0.3,0.7-1S100,67.3,99.6,67.3z"/>
<path d="M145.5,148.7v1.8h-1.4v-1.8h-3.3V148l3.6-4.8h1.1v4.5h1.3v1L145.5,148.7z M144.1,145.1l-2,2.6h2V145.1z"/>
<path d="M150.6,150.7c-1.7,0-2.9-1.4-2.9-3.8s1.3-3.8,2.9-3.8s3,1.4,3,3.8S152.2,150.7,150.6,150.7z M150.6,144.2
	c-0.9,0-1.5,0.9-1.5,2.7s0.6,2.7,1.5,2.7s1.5-0.9,1.5-2.7S151.5,144.2,150.6,144.2z"/>
<path d="M156.2,146.7c-1,0.1-1.8-0.7-1.9-1.7s0.7-1.8,1.7-1.9s1.8,0.7,1.9,1.7c0,0,0,0.1,0,0.1c0.1,0.9-0.6,1.7-1.6,1.8
	C156.2,146.7,156.2,146.7,156.2,146.7z M156.2,143.9c-0.4,0-0.7,0.3-0.7,1s0.3,1.1,0.7,1.1s0.7-0.3,0.7-1.1S156.6,143.9,156.2,143.9
	z M156,150.7l-0.4-0.2l4.6-7.4l0.4,0.2L156,150.7z M160,150.6c-1,0.1-1.8-0.7-1.9-1.7c-0.1-1,0.7-1.8,1.7-1.9c1-0.1,1.8,0.7,1.9,1.7
	c0,0,0,0.1,0,0.1c0.1,0.9-0.6,1.7-1.6,1.8C160.1,150.6,160,150.6,160,150.6L160,150.6z M160,147.8c-0.4,0-0.7,0.3-0.7,1.1
	s0.3,1,0.7,1s0.7-0.3,0.7-1S160.4,147.8,160,147.8L160,147.8z"/>
<path d="M200.8,205.7v-0.8l1.9-2c0.7-0.6,1.2-1.4,1.3-2.3c0.1-0.6-0.4-1.1-1-1.2c-0.1,0-0.1,0-0.2,0c-0.7,0-1.3,0.3-1.8,0.8V199
	c0.6-0.5,1.3-0.7,2.1-0.7c1.2-0.1,2.2,0.7,2.4,1.9c0,0.1,0,0.2,0,0.2c-0.1,1.1-0.6,2.1-1.5,2.7l-1.5,1.4h3.1v1.1L200.8,205.7z"/>
<path d="M209.5,205.9c-1.7,0-3-1.4-3-3.8s1.3-3.8,3-3.8s2.9,1.4,2.9,3.8S211.1,205.9,209.5,205.9z M209.5,199.4
	c-0.9,0-1.5,0.9-1.5,2.7s0.6,2.7,1.5,2.7s1.5-0.9,1.5-2.7S210.4,199.4,209.5,199.4L209.5,199.4z"/>
<path d="M215.1,201.9c-1,0.1-1.8-0.7-1.9-1.7c-0.1-1,0.7-1.8,1.7-1.9c1-0.1,1.8,0.7,1.9,1.7c0,0,0,0.1,0,0.1
	c0.1,0.9-0.6,1.7-1.6,1.8C215.1,201.9,215.1,201.9,215.1,201.9z M215.1,199.1c-0.4,0-0.7,0.3-0.7,1s0.3,1.1,0.7,1.1s0.7-0.3,0.7-1.1
	S215.5,199.1,215.1,199.1z M214.9,205.9l-0.4-0.2l4.6-7.4l0.4,0.2L214.9,205.9z M218.9,205.8c-1,0.1-1.8-0.7-1.9-1.7
	c-0.1-1,0.7-1.8,1.7-1.9c1-0.1,1.8,0.7,1.9,1.7c0,0,0,0.1,0,0.1C220.6,205,219.9,205.8,218.9,205.8
	C219,205.8,218.9,205.8,218.9,205.8L218.9,205.8z M218.9,203c-0.4,0-0.7,0.3-0.7,1.1s0.3,1,0.7,1s0.7-0.3,0.7-1S219.3,203,218.9,203
	L218.9,203z"/>
<path d="M261.6,205.7v-0.8l1.9-2c0.7-0.6,1.2-1.4,1.3-2.3c0.1-0.6-0.4-1.1-1-1.2c-0.1,0-0.1,0-0.2,0c-0.7,0-1.3,0.3-1.9,0.8V199
	c0.6-0.4,1.3-0.7,2.1-0.7c1.2-0.1,2.2,0.7,2.4,1.9c0,0.1,0,0.2,0,0.3c-0.1,1.1-0.6,2.1-1.5,2.7l-1.5,1.4h3.1v1.1L261.6,205.7z"/>
<path d="M270.3,205.9c-1.7,0-3-1.4-3-3.8s1.3-3.8,3-3.8s3,1.4,3,3.8S272,205.9,270.3,205.9z M270.3,199.4c-0.9,0-1.5,0.9-1.5,2.7
	s0.6,2.7,1.5,2.7s1.5-0.9,1.5-2.7S271.2,199.4,270.3,199.4L270.3,199.4z"/>
<path d="M275.9,201.9c-1,0.1-1.9-0.7-1.9-1.7c-0.1-1,0.7-1.9,1.7-1.9c1-0.1,1.9,0.7,1.9,1.7c0,0,0,0.1,0,0.1
	C277.6,201,276.9,201.8,275.9,201.9C275.9,201.9,275.9,201.9,275.9,201.9z M275.9,199.1c-0.4,0-0.7,0.3-0.7,1s0.3,1.1,0.7,1.1
	s0.7-0.3,0.7-1.1S276.3,199.1,275.9,199.1z M275.7,205.9l-0.4-0.2l4.6-7.4l0.4,0.2L275.7,205.9z M279.7,205.8
	c-1,0.1-1.8-0.7-1.9-1.7c-0.1-1,0.7-1.8,1.7-1.9c1-0.1,1.8,0.7,1.9,1.7c0,0,0,0.1,0,0.1c0.1,0.9-0.6,1.7-1.6,1.8
	C279.8,205.8,279.8,205.8,279.7,205.8L279.7,205.8z M279.7,203c-0.4,0-0.7,0.3-0.7,1.1s0.3,1,0.7,1s0.7-0.3,0.7-1
	S280.1,203,279.7,203L279.7,203z"/>
<rect x="333.1" y="270" class="st1" width="181.3" height="0.2"/>
<rect y="324.4" class="st1" width="335" height="0.2"/>
<rect x="333.1" y="324.4" class="st1" width="181.3" height="0.2"/>
<rect x="333.1" y="215.2" class="st1" width="181.3" height="0.2"/>
<rect x="333.1" y="160.2" class="st1" width="181.3" height="0.2"/>
<rect x="333.1" y="105.2" class="st1" width="181.3" height="0.2"/>
<rect x="333.1" y="50.2" class="st1" width="181.3" height="0.2"/>
<rect x="310.1" y="79.5" class="st2" width="30" height="245.2"/>
<rect x="370.1" y="105.4" class="st4" width="30" height="219.4"/>
<rect x="430.1" y="134.7" class="st5" width="30" height="190.7"/>
<path class="st1" d="M340.1,79.4h-30v-25h30V79.4z M310.3,79.1h29.5V54.6h-29.5V79.1z"/>
<path class="st1" d="M400,105.5h-30v-25h30V105.5z M370.2,105.2h29.5V80.8h-29.5L370.2,105.2z"/>
<path class="st1" d="M460.1,134.8h-30v-25h30V134.8z M430.3,134.6h29.5v-24.5h-29.5V134.6z"/>
<path class="st7" d="M321.9,127.9c0-0.7,0.2-1.4,0.6-2.1l1,0.2c-0.4,0.5-0.6,1.2-0.6,1.8c0,0.5,0.2,0.9,0.6,0.9
	c0.4,0,0.5-0.4,0.7-1.1c0.3-1.3,1-1.7,1.7-1.7c0.7,0,1.6,0.6,1.6,2c0,0.6-0.2,1.2-0.5,1.8l-0.9-0.2c0.3-0.5,0.4-1,0.4-1.5
	c0-0.6-0.2-0.8-0.5-0.8s-0.5,0.4-0.6,0.9c-0.3,1.4-0.9,1.9-1.6,1.9C322.6,130.1,321.9,129.2,321.9,127.9z"/>
<path class="st7" d="M321.9,133.7c0.1-1.5,1.4-2.7,2.9-2.7c1.5,0.1,2.7,1.4,2.7,2.9c-0.1,1.5-1.3,2.7-2.8,2.7
	c-1.5,0-2.8-1.3-2.8-2.8C321.9,133.7,321.9,133.7,321.9,133.7z M326.5,133.7c0.1-1-0.6-1.9-1.6-2s-1.9,0.6-2,1.6
	c-0.1,1,0.6,1.9,1.6,2c0.1,0,0.2,0,0.3,0c0.9,0.1,1.6-0.6,1.7-1.4C326.5,133.7,326.5,133.7,326.5,133.7z"/>
<path class="st7" d="M322.1,144.7h2.9c0.9,0,1.3-0.3,1.3-0.9c0-0.7-0.6-1.3-1.3-1.3h-2.9v-1.4h2.9c0.9,0,1.3-0.2,1.3-0.9
	c0-0.7-0.6-1.3-1.3-1.3h-2.9v-1.4h5.2v1.3l-1,0.1c0.7,0.4,1.1,1.1,1.1,1.8c0.1,0.8-0.4,1.5-1.2,1.7c0.7,0.4,1.1,1.1,1.2,1.9
	c0,1.4-1,1.8-2.2,1.8h-3V144.7z"/>
<path class="st7" d="M324.7,152v-3.4c-0.9-0.1-1.6,0.5-1.7,1.4c0,0.1,0,0.2,0,0.4c0,0.6,0.2,1.2,0.6,1.7h-1
	c-0.4-0.6-0.6-1.4-0.6-2.1c0-1.5,1.1-2.7,2.6-2.7c0.1,0,0.2,0,0.2,0c1.4,0,2.6,1.1,2.7,2.5c0,0,0,0.1,0,0.1c0.1,1.2-0.8,2.2-1.9,2.3
	c0,0-0.1,0-0.1,0C325.2,152.1,324.9,152,324.7,152z M326.5,149.8c0-0.6-0.5-1.2-1.1-1.2c0,0,0,0,0,0v2.2c0.5,0.1,1-0.2,1.1-0.7
	C326.5,150,326.6,149.9,326.5,149.8z"/>
<path class="st7" d="M326.4,155.2h-4.3v-1.4h4.3v-1.1h0.9v1.1h1.5v1.4h-1.5v1.1h-0.9V155.2z"/>
<path class="st7" d="M322.1,157.2h5.2v1.4h-5.2V157.2z M328.1,157.2h1.1v1.4h-1.1L328.1,157.2z"/>
<path class="st7" d="M322.1,167h2.9c0.9,0,1.3-0.2,1.3-0.9c0-0.7-0.6-1.3-1.3-1.3h-2.9v-1.4h2.9c0.9,0,1.3-0.2,1.3-0.9
	c0-0.7-0.6-1.3-1.3-1.3h-2.9v-1.4h5.2v1.3l-1,0.1c0.7,0.4,1.1,1.1,1.1,1.8c0.1,0.8-0.4,1.5-1.2,1.7c0.7,0.4,1.1,1.1,1.2,1.9
	c0,1.4-1,1.8-2.2,1.8h-3V167z"/>
<path class="st7" d="M324.7,174.3v-3.5c-0.9-0.1-1.6,0.6-1.7,1.4c0,0.1,0,0.2,0,0.4c0,0.6,0.2,1.2,0.6,1.7h-1
	c-0.4-0.6-0.7-1.4-0.6-2.1c0-1.5,1.1-2.7,2.6-2.7c0.1,0,0.2,0,0.2,0c1.4,0,2.6,1.1,2.7,2.5c0,0,0,0.1,0,0.1c0.1,1.2-0.7,2.2-1.9,2.3
	c-0.1,0-0.1,0-0.2,0C325.2,174.4,324.9,174.4,324.7,174.3z M326.5,172.1c0-0.6-0.5-1.2-1.1-1.2v2.2c0.5,0.1,1-0.2,1.1-0.7
	C326.5,172.3,326.6,172.2,326.5,172.1z"/>
<path class="st7" d="M321.9,177.3c0-0.7,0.2-1.4,0.6-2.1l1,0.2c-0.4,0.5-0.6,1.2-0.6,1.8c0,0.6,0.2,0.9,0.6,0.9
	c0.4,0,0.5-0.4,0.7-1.1c0.3-1.3,1-1.7,1.7-1.7c0.7,0,1.6,0.6,1.6,2c0,0.6-0.2,1.2-0.5,1.8l-0.9-0.2c0.3-0.5,0.4-1,0.4-1.5
	c0-0.6-0.2-0.8-0.5-0.8s-0.5,0.4-0.6,0.9c-0.3,1.4-0.9,1.9-1.6,1.9C322.6,179.4,321.9,178.6,321.9,177.3z"/>
<path class="st7" d="M326.4,184.5h-4.3v-1.4h4.3v-1h0.9v1l0,0c1.5,0,2.1,0.8,2.1,2c0,0.2,0,0.5-0.1,0.7h-0.9c0-0.2,0.1-0.3,0.1-0.5
	c0-0.6-0.2-0.8-1.1-0.8h-0.1v1.3h-0.9L326.4,184.5z"/>
<path class="st7" d="M321.9,189c0.1-1.5,1.4-2.7,2.9-2.7c1.5,0.1,2.7,1.4,2.7,2.9c-0.1,1.5-1.3,2.6-2.7,2.7c-1.5,0-2.8-1.2-2.8-2.7
	C321.9,189.1,321.9,189.1,321.9,189z M326.5,189c0.1-1-0.5-1.9-1.5-2c-1-0.1-1.9,0.5-2,1.5c-0.1,1,0.5,1.9,1.5,2c0.1,0,0.2,0,0.3,0
	C325.6,190.6,326.4,190,326.5,189C326.5,189.1,326.5,189.1,326.5,189z"/>
<path class="st7" d="M324.9,194.4h-2.8V193h5.2v1.3l-1,0.1c0.7,0.4,1.2,1.1,1.1,1.9h-1.4C326.3,195.3,325.8,194.4,324.9,194.4z"/>
<path class="st7" d="M319.7,199.5c0-0.8,0.2-1.6,0.6-2.3h1.1c-0.4,0.7-0.7,1.4-0.7,2.2c0,0.9,0.5,1.6,1.8,1.6h0.3
	c-0.6-0.4-0.9-1.1-0.9-1.8c0.2-1.5,1.5-2.6,3-2.4c1.3,0.1,2.3,1.2,2.4,2.4c0,0.8-0.4,1.5-1,1.9h0.8v1.3h-4.6c-1.4,0.2-2.8-0.8-3-2.3
	C319.6,199.9,319.6,199.7,319.7,199.5z M326.4,199.6c0.1-0.9-0.5-1.8-1.5-2c-0.9-0.1-1.8,0.5-2,1.5c-0.1,0.9,0.5,1.8,1.5,2
	c0.1,0,0.2,0,0.3,0c0.8,0.1,1.6-0.5,1.7-1.3C326.4,199.7,326.4,199.6,326.4,199.6z"/>
<path class="st7" d="M324.7,208.3v-3.4c-0.9-0.1-1.6,0.5-1.7,1.4c0,0.1,0,0.2,0,0.4c0,0.6,0.2,1.2,0.6,1.7h-1
	c-0.4-0.6-0.6-1.4-0.6-2.1c0.1-1.5,1.3-2.7,2.8-2.6c1.4,0.1,2.5,1.1,2.6,2.5c0.1,1.2-0.7,2.2-1.9,2.3c0,0-0.1,0-0.2,0
	C325.1,208.4,324.9,208.4,324.7,208.3z M326.5,206.1c0-0.6-0.5-1.2-1.1-1.2c0,0,0,0,0,0v2.2c0.5,0.1,1-0.2,1.1-0.7
	C326.5,206.3,326.6,206.2,326.5,206.1L326.5,206.1z"/>
<path class="st7" d="M326.4,211.5h-4.3v-1.4h4.3v-1.1h0.9v1.1h1.5v1.4h-1.5v1.1h-0.9V211.5z"/>
<path class="st7" d="M326.4,217.8h-4.3v-1.4h4.3v-1.1h0.9v1.1h1.5v1.4h-1.5v1.1h-0.9V217.8z"/>
<path class="st7" d="M321.9,222.4c0.1-1.5,1.4-2.7,2.9-2.6s2.7,1.4,2.6,2.9c-0.1,1.5-1.3,2.6-2.7,2.6c-1.5,0-2.8-1.2-2.8-2.7
	C321.9,222.5,321.9,222.4,321.9,222.4z M326.5,222.4c0.1-1-0.6-1.9-1.5-2c-1-0.1-1.9,0.6-2,1.5c-0.1,1,0.6,1.9,1.5,2
	c0.1,0,0.2,0,0.3,0c0.9,0.1,1.6-0.6,1.7-1.4C326.5,222.4,326.5,222.4,326.5,222.4z"/>
<path class="st7" d="M321.9,230.4c0-0.7,0.2-1.4,0.6-2.1l1,0.2c-0.4,0.5-0.6,1.2-0.6,1.8c0,0.6,0.2,0.9,0.6,0.9
	c0.4,0,0.5-0.4,0.7-1.1c0.3-1.3,1-1.7,1.7-1.7c0.7,0,1.6,0.6,1.6,2c0,0.6-0.2,1.2-0.5,1.8l-0.9-0.2c0.3-0.5,0.4-1,0.4-1.5
	c0-0.6-0.2-0.8-0.5-0.8s-0.5,0.4-0.6,0.9c-0.3,1.4-0.9,1.9-1.6,1.9C322.6,232.5,321.9,231.7,321.9,230.4z"/>
<path class="st7" d="M322.1,237.3h2.9c1,0,1.4-0.4,1.4-1c0-0.7-0.6-1.3-1.3-1.4h-2.9v-1.4h7.2v1.4h-2.9c0.6,0.4,1,1.1,1,1.9
	c0,1.4-1,1.9-2.2,1.9h-3.1V237.3z"/>
<path class="st7" d="M322.1,244.2l0.8-0.1c-0.6-0.4-1-1.2-1-1.9c0.2-1.5,1.5-2.6,3-2.4c1.3,0.1,2.3,1.2,2.4,2.4c0,0.8-0.4,1.5-1,1.9
	l0.8,0.1v1.3h-5.1V244.2z M326.4,242.6c0.1-0.9-0.5-1.8-1.5-2c-0.9-0.1-1.8,0.5-2,1.5c-0.1,0.9,0.5,1.8,1.5,2c0.1,0,0.2,0,0.3,0
	c0.8,0.1,1.6-0.5,1.7-1.3C326.4,242.7,326.4,242.7,326.4,242.6z"/>
<path class="st7" d="M324.9,248.2h-2.8v-1.4h5.2v1.3l-1,0.1c0.7,0.4,1.1,1.1,1.1,1.9h-1.3C326.3,249.1,325.8,248.2,324.9,248.2z"/>
<path class="st7" d="M324.7,255.4v-3.5c-0.9-0.1-1.6,0.6-1.7,1.4c0,0.1,0,0.2,0,0.4c0,0.6,0.2,1.2,0.6,1.7h-1
	c-0.4-0.6-0.6-1.4-0.6-2.1c0.1-1.5,1.3-2.7,2.8-2.6c1.4,0.1,2.5,1.1,2.6,2.5c0.1,1.2-0.7,2.2-1.9,2.3c-0.1,0-0.1,0-0.2,0
	C325.1,255.5,324.9,255.5,324.7,255.4z M326.5,253.2c0-0.6-0.5-1.2-1.1-1.2v2.2c0.5,0.1,1-0.2,1.1-0.7
	C326.5,253.4,326.6,253.3,326.5,253.2z"/>
<path class="st7" d="M322,262.2c0-0.8,0.4-1.5,1-1.9h-0.8V259h7.2v1.4h-2.8c0.5,0.5,0.9,1.1,0.9,1.9c-0.2,1.5-1.5,2.6-3,2.4
	C323.1,264.6,322.1,263.6,322,262.2L322,262.2z M326.4,261.8c0.1-0.9-0.5-1.8-1.5-2c-0.9-0.1-1.8,0.5-2,1.5c-0.1,0.9,0.5,1.8,1.5,2
	c0.1,0,0.2,0,0.3,0c0.8,0.1,1.6-0.5,1.7-1.3C326.4,261.9,326.4,261.9,326.4,261.8L326.4,261.8z"/>
<path class="st7" d="M324.7,270.3v-3.5c-0.9-0.1-1.6,0.5-1.7,1.4c0,0.1,0,0.2,0,0.4c0,0.6,0.2,1.2,0.6,1.7h-1
	c-0.4-0.6-0.6-1.4-0.6-2.1c0.1-1.5,1.3-2.7,2.8-2.6c1.4,0.1,2.5,1.1,2.6,2.5c0.1,1.2-0.7,2.2-1.9,2.3c0,0-0.1,0-0.2,0
	C325.1,270.4,324.9,270.4,324.7,270.3z M326.5,268.1c0-0.6-0.5-1.2-1.1-1.2c0,0,0,0,0,0v2.2c0.5,0.1,1-0.2,1.1-0.7
	C326.5,268.3,326.6,268.2,326.5,268.1z"/>
<path class="st7" d="M322.1,275.3h2.9c1,0,1.4-0.4,1.4-1c0-0.7-0.6-1.3-1.3-1.4h-2.9v-1.4h7.2v1.4h-2.9c0.6,0.4,1,1.1,1,1.9
	c0,1.4-1,1.9-2.2,1.9h-3.1V275.3z"/>
<path class="st7" d="M322.1,282.2l0.8,0c-0.6-0.4-1-1.2-1-1.9c0.2-1.5,1.5-2.6,3-2.4c1.3,0.1,2.3,1.2,2.4,2.4c0,0.8-0.4,1.5-1,1.9
	l0.8,0v1.3h-5.1V282.2z M326.4,280.6c0.1-0.9-0.5-1.8-1.5-1.9c-0.9-0.1-1.8,0.5-1.9,1.5s0.5,1.8,1.5,1.9c0.1,0,0.2,0,0.2,0
	c0.8,0.1,1.6-0.5,1.7-1.3C326.4,280.7,326.4,280.7,326.4,280.6z"/>
<path class="st7" d="M322.1,287.4v-1l5.2-2.3v1.4l-3.4,1.4l3.4,1.4v1.3L322.1,287.4z"/>
<path class="st7" d="M322.1,290.2h5.2v1.4h-5.2V290.2z M328.1,290.2h1.1v1.4h-1.1L328.1,290.2z"/>
<path class="st7" d="M321.9,295.6c0.1-1.5,1.4-2.7,2.9-2.7c1.5,0.1,2.7,1.4,2.7,2.9c-0.1,1.5-1.3,2.7-2.8,2.7
	c-1.5,0-2.8-1.2-2.8-2.8C321.9,295.7,321.9,295.7,321.9,295.6z M326.5,295.6c0.1-1-0.5-1.9-1.5-2c-1-0.1-1.9,0.5-2,1.5
	c-0.1,1,0.5,1.9,1.5,2c0.1,0,0.2,0,0.3,0C325.6,297.2,326.4,296.6,326.5,295.6C326.5,295.7,326.5,295.6,326.5,295.6z"/>
<path class="st7" d="M324.9,300.9h-2.8v-1.4h5.2v1.3l-1,0.1c0.7,0.4,1.1,1.1,1.1,1.9h-1.3C326.3,301.9,325.8,300.9,324.9,300.9z"/>
<path class="st7" d="M382.1,192.4h5.2v1.4h-5.2V192.4z M388.1,192.4h1.1v1.4h-1.1V192.4z"/>
<path class="st7" d="M381.9,196.9c0-0.7,0.2-1.4,0.6-2.1l1,0.2c-0.4,0.5-0.6,1.2-0.6,1.8c0,0.6,0.2,0.9,0.6,0.9
	c0.4,0,0.5-0.4,0.7-1.1c0.3-1.3,1-1.7,1.7-1.7c0.7,0,1.6,0.6,1.6,2c0,0.6-0.2,1.2-0.5,1.8l-0.9-0.2c0.3-0.5,0.4-1,0.4-1.5
	c0-0.6-0.2-0.8-0.5-0.8c-0.3,0-0.5,0.4-0.6,0.9c-0.3,1.4-0.9,1.9-1.6,1.9C382.6,199.1,381.9,198.2,381.9,196.9z"/>
<path class="st7" d="M386.3,204.4h-4.3V203h4.3v-1.1h0.9v1.1h1.4v1.4h-1.4v1.1h-0.9V204.4z"/>
<path class="st7" d="M382.1,206.4h5.2v1.4h-5.2V206.4z M388.1,206.4h1.1v1.4h-1.1V206.4z"/>
<path class="st7" d="M384.9,210.5h-2.8v-1.4h5.2v1.3l-1,0.1c0.7,0.4,1.1,1.1,1.1,1.9H386C386.3,211.4,385.8,210.5,384.9,210.5z"/>
<path class="st7" d="M384.6,217.7v-3.4c-0.9-0.1-1.6,0.5-1.7,1.4c0,0.1,0,0.2,0,0.4c0,0.6,0.2,1.2,0.6,1.7h-1
	c-0.4-0.6-0.6-1.4-0.6-2.1c0-1.5,1.2-2.8,2.7-2.8c1.5,0,2.8,1.2,2.8,2.7c0.1,1.2-0.7,2.2-1.9,2.3c-0.1,0-0.1,0-0.2,0
	C385.1,217.8,384.8,217.8,384.6,217.7z M386.5,215.6c0-0.6-0.5-1.2-1.1-1.2v2.2c0.5,0.1,1-0.2,1.1-0.7
	C386.5,215.8,386.5,215.7,386.5,215.6z"/>
<path class="st7" d="M382.1,223.1l0.8-0.1c-0.6-0.4-1-1.2-1-1.9c0.2-1.5,1.6-2.6,3.1-2.4c1.3,0.2,2.2,1.1,2.4,2.4
	c0,0.7-0.3,1.4-0.9,1.8h2.7v1.4H382L382.1,223.1z M386.3,221.6c0.1-0.9-0.5-1.8-1.5-2c-0.9-0.1-1.8,0.5-2,1.5
	c-0.1,0.9,0.5,1.8,1.5,2c0.1,0,0.2,0,0.3,0c0.8,0.1,1.6-0.5,1.7-1.3C386.3,221.6,386.3,221.6,386.3,221.6L386.3,221.6z"/>
<path class="st7" d="M386.3,230.1h-4.3v-1.4h4.3v-1.1h0.9v1.1h1.4v1.4h-1.4v1.1h-0.9V230.1z"/>
<path class="st7" d="M381.9,234.6c0.1-1.5,1.4-2.7,2.9-2.6c1.5,0.1,2.7,1.4,2.6,2.9c-0.1,1.5-1.3,2.6-2.8,2.6
	c-1.5,0-2.8-1.2-2.8-2.8C381.9,234.7,381.9,234.6,381.9,234.6z M386.4,234.6c0.1-1-0.5-1.9-1.5-2c-1-0.1-1.9,0.5-2,1.5
	c-0.1,1,0.5,1.9,1.5,2c0.1,0,0.2,0,0.2,0c0.9,0.1,1.6-0.5,1.7-1.4C386.4,234.7,386.4,234.7,386.4,234.6z"/>
<path class="st7" d="M379.6,243.3c0-0.8,0.2-1.6,0.6-2.3h1.1c-0.4,0.7-0.7,1.5-0.7,2.3c0,0.9,0.5,1.6,1.8,1.6h0.3
	c-0.6-0.5-0.9-1.1-0.9-1.9c0.2-1.5,1.6-2.6,3.1-2.4c1.3,0.2,2.2,1.1,2.4,2.4c0,0.8-0.4,1.5-1,1.9h0.8v1.3h-4.7
	c-1.4,0.2-2.8-0.9-2.9-2.3C379.6,243.7,379.6,243.5,379.6,243.3z M386.3,243.5c0.1-0.9-0.5-1.8-1.5-1.9c-0.9-0.1-1.8,0.5-1.9,1.5
	c-0.1,0.9,0.5,1.8,1.5,1.9c0.1,0,0.2,0,0.2,0c0.8,0.1,1.6-0.5,1.7-1.3C386.3,243.6,386.3,243.5,386.3,243.5L386.3,243.5z"/>
<path class="st7" d="M381.9,250.2c0.1-1.5,1.4-2.7,2.9-2.7c1.5,0.1,2.7,1.4,2.7,2.9c-0.1,1.5-1.3,2.7-2.8,2.7
	c-1.5,0-2.8-1.3-2.8-2.8C381.9,250.3,381.9,250.3,381.9,250.2z M386.4,250.2c0.1-1-0.5-1.9-1.5-2c-1-0.1-1.9,0.5-2,1.5
	c-0.1,1,0.5,1.9,1.5,2c0.1,0,0.2,0,0.3,0c0.9,0.1,1.7-0.5,1.8-1.4C386.4,250.3,386.4,250.3,386.4,250.2z"/>
<path class="st7" d="M386.3,258.5h-4.3v-1.4h4.3V256h0.9v1.1h1.4v1.4h-1.4v1.1h-0.9V258.5z"/>
<path class="st7" d="M381.9,263c0.1-1.5,1.4-2.7,2.9-2.6c1.5,0.1,2.7,1.4,2.6,2.9c-0.1,1.5-1.3,2.6-2.8,2.6c-1.5,0-2.8-1.2-2.8-2.8
	C381.9,263.1,381.9,263.1,381.9,263z M386.4,263c0.1-1-0.5-1.9-1.5-2c-1-0.1-1.9,0.5-2,1.5s0.5,1.9,1.5,2c0.1,0,0.2,0,0.2,0
	c0.9,0.1,1.6-0.5,1.7-1.4C386.4,263.2,386.4,263.1,386.4,263z"/>
<path class="st7" d="M382.1,273.5l0.8,0c-0.6-0.4-1-1.2-1-1.9c0.2-1.5,1.6-2.6,3.1-2.4c1.3,0.2,2.2,1.1,2.4,2.4
	c0,0.7-0.3,1.4-0.9,1.9h2.7v1.4H382L382.1,273.5z M386.3,271.9c0.1-0.9-0.5-1.8-1.5-1.9c-0.9-0.1-1.8,0.5-1.9,1.5s0.5,1.8,1.5,1.9
	c0.1,0,0.2,0,0.2,0c0.8,0.1,1.6-0.5,1.7-1.3C386.3,272,386.3,272,386.3,271.9L386.3,271.9z"/>
<path class="st7" d="M384.6,280.6v-3.4c-0.9-0.1-1.6,0.5-1.7,1.4c0,0.1,0,0.2,0,0.4c0,0.6,0.2,1.2,0.6,1.7h-1
	c-0.4-0.6-0.6-1.4-0.6-2.1c0-1.5,1.2-2.8,2.7-2.8c1.5,0,2.8,1.2,2.8,2.7c0.1,1.2-0.7,2.2-1.9,2.3c-0.1,0-0.1,0-0.2,0
	C385.1,280.8,384.8,280.7,384.6,280.6z M386.5,278.5c0-0.7-0.5-1.2-1.1-1.2c0,0,0,0,0,0v2.2c0.5,0.1,1-0.2,1.1-0.7
	C386.5,278.6,386.5,278.5,386.5,278.5z"/>
<path class="st7" d="M386.3,283.9h-4.3v-1.4h4.3v-1.1h0.9v1.1h1.4v1.4h-1.4v1.1h-0.9V283.9z"/>
<path class="st7" d="M382.1,289.9h0.8c-0.6-0.4-1-1.2-1-1.9c0.2-1.5,1.6-2.6,3.1-2.4c1.3,0.2,2.2,1.1,2.4,2.4c0,0.8-0.4,1.5-1,1.9
	h0.8v1.3h-5.1V289.9z M386.3,288.4c0.1-0.9-0.5-1.8-1.5-2c-0.9-0.1-1.8,0.5-2,1.5c-0.1,0.9,0.5,1.8,1.5,2c0.1,0,0.2,0,0.3,0
	c0.8,0.1,1.6-0.5,1.7-1.3C386.3,288.5,386.3,288.4,386.3,288.4z"/>
<path class="st7" d="M382.1,292.6h5.2v1.4h-5.2V292.6z M388.1,292.6h1.1v1.4h-1.1V292.6z"/>
<path class="st7" d="M382.1,295.3h7.2v1.4h-7.2V295.3z"/>
<path class="st7" d="M381.9,299.8c0-0.7,0.2-1.5,0.6-2.1l1,0.2c-0.4,0.5-0.6,1.2-0.6,1.8c0,0.5,0.2,0.9,0.6,0.9
	c0.4,0,0.5-0.4,0.7-1.1c0.3-1.3,1-1.7,1.7-1.7c0.7,0,1.6,0.6,1.6,2c0,0.6-0.2,1.2-0.5,1.8l-0.9-0.2c0.3-0.5,0.4-1,0.4-1.5
	c0-0.6-0.2-0.8-0.5-0.8c-0.3,0-0.5,0.4-0.6,0.9c-0.3,1.4-0.9,1.9-1.6,1.9C382.6,302,381.9,301.1,381.9,299.8z"/>
<path class="st7" d="M442.1,171.2h5.2v1.4h-5.2V171.2z M448.1,171.2h1.1v1.4h-1.1V171.2z"/>
<path class="st7" d="M441.9,175.7c0-0.7,0.2-1.4,0.6-2.1l1,0.2c-0.4,0.5-0.5,1.2-0.6,1.8c0,0.6,0.2,0.9,0.6,0.9
	c0.4,0,0.5-0.4,0.7-1.1c0.3-1.3,1-1.7,1.7-1.7s1.6,0.6,1.6,2c0,0.6-0.2,1.2-0.5,1.8l-0.9-0.2c0.3-0.5,0.4-1,0.4-1.5
	c0-0.6-0.2-0.8-0.5-0.8s-0.5,0.4-0.6,0.9c-0.3,1.4-0.9,1.9-1.6,1.9C442.6,177.8,441.9,177,441.9,175.7z"/>
<path class="st7" d="M442.1,185l1-0.1c-0.7-0.4-1.1-1.1-1.1-1.9c0-1.4,1-1.9,2.2-1.9h3.1v1.4h-2.9c-1,0-1.3,0.3-1.3,1
	c0,0.7,0.6,1.3,1.3,1.4h2.9v1.4h-5.2L442.1,185z"/>
<path class="st7" d="M442.1,191.4h2.9c1,0,1.3-0.4,1.3-1c0-0.7-0.6-1.3-1.3-1.4h-2.9v-1.4h5.2v1.3l-0.9,0.1c0.7,0.4,1.1,1.1,1.1,1.9
	c0,1.4-1,1.9-2.2,1.9h-3.1L442.1,191.4z"/>
<path class="st7" d="M441.9,196.6c0.1-1.5,1.4-2.7,2.9-2.6c1.4,0.1,2.5,1.2,2.6,2.6c0,0.7-0.2,1.3-0.5,1.9h-1.1
	c0.4-0.4,0.6-1,0.5-1.6c-0.1-0.9-0.9-1.6-1.8-1.5c-0.8,0.1-1.5,0.7-1.5,1.5c0,0.6,0.2,1.1,0.5,1.6h-1.1
	C442.1,197.9,441.9,197.3,441.9,196.6z"/>
<path class="st7" d="M441.9,202.1c0.1-1.5,1.4-2.7,2.9-2.7c1.5,0.1,2.7,1.4,2.7,2.9c-0.1,1.5-1.3,2.7-2.8,2.7
	c-1.5,0-2.8-1.2-2.8-2.8C441.9,202.2,441.9,202.2,441.9,202.1z M446.4,202.1c0.1-1-0.5-1.9-1.5-2c-1-0.1-1.9,0.5-2,1.5
	c-0.1,1,0.5,1.9,1.5,2c0.1,0,0.2,0,0.2,0c0.9,0.1,1.7-0.5,1.8-1.4C446.4,202.2,446.4,202.2,446.4,202.1z"/>
<path class="st7" d="M442.1,213.2h2.9c0.9,0,1.3-0.2,1.3-0.9c0-0.7-0.6-1.3-1.3-1.3h-2.9v-1.4h2.9c0.9,0,1.3-0.2,1.3-0.9
	c0-0.7-0.6-1.3-1.3-1.3h-2.9v-1.4h5.2v1.3l-1,0.1c0.7,0.4,1.1,1.1,1.1,1.8c0.1,0.8-0.4,1.5-1.2,1.6c0.7,0.4,1.1,1.1,1.2,1.9
	c0,1.4-1,1.8-2.2,1.8h-3.1L442.1,213.2z"/>
<path class="st7" d="M446.4,217.6h-4.3v-1.4h4.3v-1h0.9v1h0.1c1.5,0,2.1,0.8,2.1,2c0,0.2,0,0.5-0.1,0.7h-0.9c0-0.2,0.1-0.3,0.1-0.5
	c0-0.6-0.2-0.8-1.1-0.8h-0.1v1.3h-0.9V217.6z"/>
<path class="st7" d="M441.9,222.2c0.1-1.5,1.4-2.7,2.9-2.7s2.7,1.4,2.7,2.9c-0.1,1.5-1.3,2.7-2.8,2.7c-1.5,0-2.8-1.3-2.8-2.8
	C441.9,222.2,441.9,222.2,441.9,222.2z M446.4,222.2c0.1-1-0.5-1.9-1.5-2s-1.9,0.5-2,1.5s0.5,1.9,1.5,2c0.1,0,0.2,0,0.2,0
	c0.9,0.1,1.7-0.5,1.8-1.4C446.4,222.3,446.4,222.2,446.4,222.2z"/>
<path class="st7" d="M444.9,227.5h-2.8v-1.4h5.2v1.3l-0.9,0.1c0.7,0.4,1.1,1.1,1.1,1.9h-1.4C446.3,228.4,445.8,227.5,444.9,227.5z"
	/>
<path class="st7" d="M446.4,232.4h-4.3V231h4.3v-1.1h0.9v1.1h1.4v1.4h-1.4v1.1h-0.9V232.4z"/>
<path class="st7" d="M442.1,238.5l0.8-0.1c-0.6-0.4-1-1.2-1-1.9c0.2-1.5,1.5-2.6,3-2.4c1.3,0.1,2.3,1.2,2.4,2.4c0,0.8-0.4,1.5-1,1.9
	l0.8,0.1v1.3H442L442.1,238.5z M446.4,236.9c0.1-0.9-0.5-1.8-1.5-2s-1.8,0.5-2,1.5c-0.1,0.9,0.5,1.8,1.5,2c0.1,0,0.2,0,0.2,0
	c0.8,0.1,1.6-0.5,1.7-1.3C446.4,237,446.4,237,446.4,236.9z"/>
<path class="st7" d="M441.9,244.3c0-0.8,0.4-1.5,1-1.9h-0.8v-1.3h7.2v1.4h-2.7c0.5,0.5,0.9,1.1,0.9,1.8c-0.2,1.5-1.5,2.6-3,2.4
	C443.1,246.7,442.1,245.7,441.9,244.3L441.9,244.3z M446.4,243.9c0.1-0.9-0.5-1.8-1.5-1.9c-0.9-0.1-1.8,0.5-1.9,1.5s0.5,1.8,1.5,1.9
	c0.1,0,0.2,0,0.2,0c0.8,0.1,1.6-0.5,1.7-1.3C446.4,244,446.4,243.9,446.4,243.9L446.4,243.9z"/>
<path class="st7" d="M442.1,247.8h7.2v1.4h-7.2V247.8z"/>
<path class="st7" d="M444.6,255.2v-3.5c-0.9-0.1-1.6,0.5-1.7,1.4c0,0.1,0,0.2,0,0.4c0,0.6,0.2,1.2,0.6,1.7h-1
	c-0.4-0.6-0.6-1.4-0.6-2.1c0.1-1.5,1.3-2.7,2.9-2.6c1.4,0.1,2.5,1.1,2.6,2.5c0.1,1.2-0.7,2.2-1.9,2.3c0,0-0.1,0-0.1,0
	C445.2,255.2,444.9,255.2,444.6,255.2z M446.5,253c0-0.6-0.5-1.2-1.1-1.2v2.2c0.5,0.1,1-0.2,1.1-0.7
	C446.5,253.2,446.5,253.1,446.5,253z"/>
<path class="st7" d="M446.4,260.7h-4.3v-1.4h4.3v-1.1h0.9v1.1h1.4v1.4h-1.4v1.1h-0.9V260.7z"/>
<path class="st7" d="M441.9,265.2c0.1-1.5,1.4-2.7,2.9-2.7c1.5,0.1,2.7,1.4,2.7,2.9c-0.1,1.5-1.3,2.7-2.8,2.7
	c-1.5,0-2.8-1.3-2.8-2.8C441.9,265.3,441.9,265.3,441.9,265.2z M446.4,265.2c0.1-1-0.5-1.9-1.5-2s-1.9,0.5-2,1.5s0.5,1.9,1.5,2
	c0.1,0,0.2,0,0.2,0c0.9,0.1,1.7-0.5,1.8-1.4C446.4,265.3,446.4,265.3,446.4,265.2z"/>
<path class="st7" d="M444.9,273h-2.8v-1.4h5.2v1.3l-0.9,0.1c0.7,0.4,1.1,1.1,1.1,1.9h-1.4C446.3,273.9,445.8,273,444.9,273z"/>
<path class="st7" d="M444.6,280.2v-3.5c-0.9-0.1-1.6,0.6-1.7,1.4c0,0.1,0,0.2,0,0.4c0,0.6,0.2,1.2,0.6,1.7h-1
	c-0.4-0.6-0.6-1.4-0.6-2.1c0.1-1.5,1.3-2.7,2.9-2.6c1.4,0.1,2.5,1.1,2.6,2.5c0.1,1.2-0.7,2.2-1.9,2.3c0,0-0.1,0-0.1,0
	C445.2,280.3,444.9,280.3,444.6,280.2z M446.5,278c0-0.6-0.5-1.2-1.1-1.2v2.2c0.5,0.1,1-0.2,1.1-0.7
	C446.5,278.2,446.5,278.1,446.5,278L446.5,278z"/>
<path class="st7" d="M441.9,284.7c0-0.7,0.3-1.4,0.9-1.9h-3v-1.4h7.5v1.3l-0.8,0c0.6,0.4,1,1.2,1,1.9c-0.2,1.5-1.5,2.6-3,2.4
	C443.2,287,442.1,286,441.9,284.7L441.9,284.7z M446.4,284.2c0.1-0.9-0.5-1.8-1.5-1.9s-1.8,0.5-1.9,1.5s0.5,1.8,1.5,1.9
	c0.1,0,0.2,0,0.2,0c0.8,0.1,1.6-0.5,1.7-1.3C446.4,284.3,446.4,284.3,446.4,284.2z"/>
<path class="st7" d="M441.9,290.8c0.1-1.5,1.4-2.7,2.9-2.7s2.7,1.4,2.7,2.9c-0.1,1.5-1.3,2.7-2.8,2.7c-1.5,0-2.8-1.2-2.8-2.8
	C441.9,290.8,441.9,290.8,441.9,290.8z M446.4,290.8c0.1-1-0.5-1.9-1.5-2s-1.9,0.5-2,1.5s0.5,1.9,1.5,2c0.1,0,0.2,0,0.2,0
	c0.9,0.1,1.7-0.5,1.8-1.4C446.4,290.9,446.4,290.8,446.4,290.8z"/>
<path class="st7" d="M444.9,296.1h-2.8v-1.4h5.2v1.3l-0.9,0.1c0.7,0.4,1.1,1.1,1.1,1.9h-1.4C446.3,297,445.8,296.1,444.9,296.1z"/>
<path class="st7" d="M446.4,301h-4.3v-1.4h4.3v-1.1h0.9v1.1h1.4v1.4h-1.4v1.1h-0.9V301z"/>
<path d="M317.8,70.3h-1.5c0.6-2.1,1.5-4.1,2.7-6h-3.5v-1.2h5.1v0.7C319.2,65.8,318.3,68,317.8,70.3z"/>
<path d="M323.9,70.5c-1.7,0-3-1.4-3-3.8s1.3-3.8,3-3.8s2.9,1.4,2.9,3.8S325.6,70.5,323.9,70.5z M323.9,64c-0.9,0-1.5,0.9-1.5,2.7
	s0.6,2.7,1.5,2.7c0.9,0,1.5-0.9,1.5-2.7S324.9,64,323.9,64z"/>
<path d="M329.5,66.5c-1,0.1-1.8-0.7-1.9-1.7s0.7-1.8,1.7-1.9c1-0.1,1.8,0.7,1.9,1.7c0,0,0,0.1,0,0.1
	C331.3,65.6,330.6,66.4,329.5,66.5C329.6,66.5,329.6,66.5,329.5,66.5z M329.5,63.7c-0.4,0-0.7,0.3-0.7,1s0.3,1.1,0.7,1.1
	s0.7-0.3,0.7-1.1S329.9,63.7,329.5,63.7z M329.4,70.5l-0.4-0.2l4.6-7.4l0.4,0.2L329.4,70.5z M333.4,70.4c-1,0.1-1.8-0.7-1.9-1.7
	c-0.1-1,0.7-1.8,1.7-1.9c1-0.1,1.8,0.7,1.9,1.7c0,0,0,0.1,0,0.1c0.1,0.9-0.6,1.7-1.6,1.8C333.5,70.4,333.4,70.4,333.4,70.4
	L333.4,70.4z M333.4,67.6c-0.4,0-0.7,0.3-0.7,1.1s0.3,1,0.7,1s0.7-0.3,0.7-1S333.8,67.6,333.4,67.6L333.4,67.6z"/>
<path d="M378.2,97.5c-1.1,0-2.7-0.6-2.7-3.4c0-2.6,1.1-4.2,3.2-4.2c0.6,0,1.2,0.2,1.7,0.5v1.1c-0.5-0.3-1-0.5-1.6-0.5
	c-1.1,0-1.9,0.6-1.9,2.5c0.4-0.5,1-0.8,1.7-0.8c1.2,0,2.2,1,2.2,2.2c0,0.1,0,0.2,0,0.2c0,1.4-1.1,2.5-2.5,2.5
	C378.2,97.5,378.2,97.5,378.2,97.5z M376.9,94.9c0,1,0.6,1.6,1.2,1.6c0.7,0,1.3-0.6,1.3-1.3c0-0.1,0-0.1,0-0.2
	c0-0.8-0.4-1.4-1.2-1.4C377.4,93.6,376.9,94.1,376.9,94.9C376.9,94.9,376.9,94.9,376.9,94.9z"/>
<path d="M384.6,97.5c-1.7,0-3-1.4-3-3.8s1.3-3.8,3-3.8c1.7,0,3,1.4,3,3.8S386.3,97.5,384.6,97.5z M384.6,90.9
	c-0.9,0-1.5,0.9-1.5,2.7s0.6,2.7,1.5,2.7c0.9,0,1.5-0.9,1.5-2.7S385.6,90.9,384.6,90.9z"/>
<path d="M390.2,93.5c-1,0.1-1.8-0.7-1.9-1.7c-0.1-1,0.7-1.8,1.7-1.9c1-0.1,1.8,0.7,1.9,1.7c0,0,0,0.1,0,0.1c0.1,0.9-0.6,1.7-1.6,1.8
	C390.3,93.4,390.3,93.5,390.2,93.5z M390.2,90.6c-0.4,0-0.7,0.3-0.7,1s0.3,1.1,0.7,1.1s0.7-0.3,0.7-1.1S390.7,90.6,390.2,90.6z
	 M390.1,97.5l-0.4-0.2l4.6-7.4l0.4,0.2L390.1,97.5z M394.1,97.4c-1,0.1-1.8-0.7-1.9-1.7s0.7-1.8,1.7-1.9c1-0.1,1.8,0.7,1.9,1.7
	c0,0,0,0.1,0,0.1C395.8,96.5,395.1,97.3,394.1,97.4C394.2,97.4,394.1,97.4,394.1,97.4L394.1,97.4z M394.1,94.5c-0.4,0-0.7,0.3-0.7,1
	s0.3,1,0.7,1s0.7-0.3,0.7-1S394.5,94.5,394.1,94.5L394.1,94.5z"/>
<path d="M439,125.7c-0.8,0-1.6-0.2-2.2-0.7v-1.2c0.5,0.5,1.2,0.9,2,0.9c0.8,0.1,1.4-0.5,1.5-1.3c0-0.1,0-0.1,0-0.2
	c0.1-0.7-0.4-1.3-1.1-1.3c-0.1,0-0.1,0-0.2,0c-0.5,0-1.1,0.3-1.3,0.8l-0.6-0.3v-4h4.3v1.1h-3.2v1.8c0.3-0.3,0.8-0.4,1.2-0.4
	c1.2-0.1,2.2,0.9,2.3,2.1c0,0.1,0,0.2,0,0.2c0,1.4-1.1,2.5-2.5,2.5C439.1,125.7,439.1,125.7,439,125.7z"/>
<path d="M445.5,125.7c-1.7,0-2.9-1.4-2.9-3.8s1.3-3.8,2.9-3.8c1.7,0,3,1.4,3,3.8S447.2,125.7,445.5,125.7z M445.5,119.2
	c-0.9,0-1.5,0.9-1.5,2.7s0.6,2.7,1.5,2.7c0.9,0,1.5-0.9,1.5-2.7S446.5,119.2,445.5,119.2L445.5,119.2z"/>
<path d="M451.1,121.7c-1,0.1-1.8-0.7-1.9-1.7c-0.1-1,0.7-1.8,1.7-1.9c1-0.1,1.8,0.7,1.9,1.7c0,0,0,0.1,0,0.1
	c0.1,0.9-0.6,1.7-1.6,1.8C451.2,121.7,451.2,121.7,451.1,121.7z M451.1,118.9c-0.4,0-0.7,0.3-0.7,1s0.3,1,0.7,1s0.7-0.3,0.7-1
	S451.5,118.9,451.1,118.9z M451,125.7l-0.4-0.2l4.6-7.4l0.4,0.2L451,125.7z M455,125.7c-1,0.1-1.8-0.7-1.9-1.7
	c-0.1-1,0.7-1.8,1.7-1.9c1-0.1,1.8,0.7,1.9,1.7c0,0,0,0.1,0,0.1c0.1,0.9-0.6,1.7-1.6,1.8C455.1,125.7,455,125.7,455,125.7L455,125.7
	z M455,122.8c-0.4,0-0.7,0.3-0.7,1s0.3,1.1,0.7,1.1s0.7-0.3,0.7-1.1S455.4,122.8,455,122.8L455,122.8z"/>
</svg>
