<?xml version="1.0" encoding="utf-8"?>
<!-- Generator: Adobe Illustrator 23.1.1, SVG Export Plug-In . SVG Version: 6.00 Build 0)  -->
<svg version="1.1" id="Layer_1" xmlns="http://www.w3.org/2000/svg" xmlns:xlink="http://www.w3.org/1999/xlink" x="0px" y="0px"
	 viewBox="0 0 267.5 325.2" style="enable-background:new 0 0 267.5 325.2;" xml:space="preserve">
<style type="text/css">
	.st0{fill:#383938;}
	.st1{fill:#2A0F10;}
	.st2{fill:#0F0F59;}
	.st3{fill:#F07262;}
	.st4{fill:#1F191A;}
	.st5{fill:#E8E8E8;}
</style>
<title>Asset 49</title>
<rect y="269.9" class="st0" width="267.5" height="0.2"/>
<rect y="215" class="st0" width="267.5" height="0.2"/>
<rect y="160" class="st0" width="267.5" height="0.2"/>
<rect y="105" class="st0" width="267.5" height="0.2"/>
<rect y="50" class="st0" width="267.5" height="0.2"/>
<rect x="74.3" y="79.3" class="st1" width="30" height="245.2"/>
<rect x="134.3" y="105.2" class="st2" width="30" height="219.4"/>
<rect x="194.3" y="134.5" class="st3" width="30" height="190.7"/>
<path class="st4" d="M3.5,4.5v0.9h-3V4.5h1V2.2C1.5,2.3,1.4,2.4,1.3,2.4C1.2,2.5,1.1,2.5,1,2.6C0.9,2.6,0.8,2.7,0.6,2.7
	c-0.1,0-0.2,0-0.3,0V1.8c0.1,0,0.2,0,0.3-0.1C0.8,1.7,0.9,1.6,1,1.5c0.1-0.1,0.2-0.2,0.3-0.2l0.2-0.2h1v3.4H3.5z"/>
<path class="st4" d="M9.1,3.2c0,0.3,0,0.6-0.1,0.9C8.8,4.4,8.7,4.6,8.5,4.8C8.4,5,8.1,5.2,7.9,5.3C7.7,5.4,7.4,5.5,7.1,5.5
	c-0.5,0-1-0.2-1.4-0.7C5.6,4.6,5.4,4.4,5.3,4.1C5.3,3.8,5.2,3.5,5.2,3.2c0-0.3,0-0.6,0.1-0.9C5.4,2,5.6,1.8,5.8,1.6
	c0.2-0.2,0.4-0.4,0.6-0.5C6.6,1,6.9,0.9,7.1,0.9c0.3,0,0.5,0.1,0.8,0.2c0.2,0.1,0.4,0.3,0.6,0.5C8.7,1.8,8.8,2,8.9,2.3
	C9,2.6,9.1,2.9,9.1,3.2z M8.1,3.2C8.1,3,8,2.8,8,2.6c0-0.2-0.1-0.3-0.2-0.4C7.7,2.1,7.6,2,7.5,1.9C7.4,1.9,7.3,1.8,7.1,1.8
	c-0.1,0-0.3,0-0.4,0.1C6.6,2,6.5,2.1,6.5,2.2C6.4,2.4,6.3,2.5,6.3,2.6c0,0.2-0.1,0.4-0.1,0.5c0,0.2,0,0.4,0.1,0.5
	c0,0.2,0.1,0.3,0.2,0.4c0.1,0.1,0.2,0.2,0.3,0.3C6.9,4.5,7,4.6,7.1,4.5c0.1,0,0.3,0,0.4-0.1c0.1-0.1,0.2-0.2,0.3-0.3
	C7.9,4,8,3.9,8,3.7C8,3.6,8.1,3.4,8.1,3.2L8.1,3.2z"/>
<path class="st4" d="M14.9,3.2c0,0.3,0,0.6-0.1,0.9c-0.1,0.3-0.2,0.5-0.4,0.7C14.2,5,14,5.2,13.7,5.3c-0.2,0.1-0.5,0.2-0.8,0.2
	c-0.3,0-0.5-0.1-0.8-0.2C12,5.2,11.8,5,11.6,4.8c-0.2-0.2-0.3-0.5-0.4-0.7C11.1,3.8,11,3.5,11,3.2c0-0.3,0-0.6,0.1-0.9
	c0.1-0.3,0.2-0.5,0.4-0.7c0.2-0.2,0.4-0.4,0.6-0.5C12.4,1,12.7,0.9,13,0.9c0.3,0,0.5,0.1,0.8,0.2c0.2,0.1,0.5,0.3,0.6,0.5
	c0.2,0.2,0.3,0.5,0.4,0.7C14.9,2.6,14.9,2.9,14.9,3.2z M13.9,3.2c0-0.2,0-0.4-0.1-0.5c0-0.2-0.1-0.3-0.2-0.4
	c-0.1-0.1-0.2-0.2-0.3-0.3c-0.1-0.1-0.2-0.1-0.4-0.1c-0.1,0-0.3,0-0.4,0.1c-0.1,0.1-0.2,0.2-0.3,0.3c-0.1,0.1-0.1,0.3-0.2,0.4
	c0,0.2-0.1,0.4-0.1,0.5c0,0.2,0,0.4,0.1,0.5c0,0.2,0.1,0.3,0.2,0.4c0.1,0.1,0.2,0.2,0.3,0.3c0.1,0.1,0.2,0.1,0.4,0.1
	c0.1,0,0.3,0,0.4-0.1c0.1-0.1,0.2-0.2,0.3-0.3c0.1-0.1,0.2-0.3,0.2-0.4C13.9,3.6,13.9,3.4,13.9,3.2L13.9,3.2z"/>
<path class="st4" d="M17.8,2.3c-0.2,0-0.3,0-0.5-0.1C17.1,2.1,17,2,16.9,1.9c-0.1-0.1-0.2-0.2-0.3-0.4c-0.1-0.1-0.1-0.3-0.1-0.4
	c0-0.2,0-0.3,0.1-0.4c0.1-0.1,0.1-0.3,0.3-0.4c0.1-0.1,0.2-0.2,0.4-0.2C17.4,0,17.6,0,17.8,0c0.2,0,0.3,0,0.5,0.1
	c0.1,0.1,0.3,0.1,0.4,0.2c0.1,0.1,0.2,0.2,0.3,0.4C19,0.8,19,1,19,1.1c0,0.2,0,0.3-0.1,0.4c-0.1,0.1-0.2,0.3-0.3,0.4
	c-0.1,0.1-0.3,0.2-0.4,0.2C18.1,2.2,17.9,2.3,17.8,2.3z M17,5l2.1-2.5L21,0l0.5,0.4l-2,2.4l-2,2.6L17,5z M17.8,1.8
	c0.1,0,0.1,0,0.2,0c0.1,0,0.1-0.1,0.2-0.1c0-0.1,0.1-0.1,0.1-0.2c0-0.1,0-0.2,0-0.2c0-0.2-0.1-0.3-0.2-0.4c-0.1-0.1-0.2-0.2-0.4-0.2
	c-0.1,0-0.1,0-0.2,0.1c-0.1,0-0.1,0.1-0.2,0.1c-0.1,0.1-0.1,0.1-0.1,0.2c-0.1,0.2-0.1,0.5,0.1,0.7C17.5,1.7,17.6,1.8,17.8,1.8
	L17.8,1.8z M20.7,5.5c-0.3,0-0.6-0.1-0.9-0.3c-0.1-0.1-0.2-0.2-0.3-0.4c-0.1-0.1-0.1-0.3-0.1-0.4c0-0.2,0-0.3,0.1-0.4
	c0.1-0.1,0.2-0.3,0.3-0.4c0.1-0.1,0.2-0.2,0.4-0.2c0.2-0.1,0.3-0.1,0.5-0.1c0.2,0,0.3,0,0.5,0.1c0.1,0.1,0.3,0.1,0.4,0.2
	c0.1,0.1,0.2,0.2,0.3,0.4C21.9,4,22,4.2,21.9,4.3c0,0.2,0,0.3-0.1,0.4c-0.1,0.1-0.2,0.3-0.3,0.4c-0.1,0.1-0.2,0.2-0.4,0.2
	C21,5.5,20.8,5.5,20.7,5.5L20.7,5.5z M20.7,5c0.1,0,0.1,0,0.2,0C21,4.9,21,4.8,21,4.8c0.1-0.1,0.1-0.1,0.1-0.2c0-0.1,0.1-0.2,0-0.2
	c0-0.1,0-0.2,0-0.2C21.1,4,21,3.9,21,3.9c0-0.1-0.1-0.1-0.2-0.1c-0.1,0-0.1,0-0.2,0c-0.1,0-0.1,0-0.2,0c-0.1,0-0.1,0.1-0.2,0.1
	c-0.1,0.1-0.1,0.1-0.1,0.2c0,0.1,0,0.2,0,0.2c0,0.2,0.1,0.3,0.2,0.4C20.4,4.9,20.5,5,20.7,5L20.7,5z"/>
<path class="st4" d="M4.2,113.6c0,0.2,0,0.5-0.2,0.7c-0.1,0.2-0.2,0.4-0.4,0.6c-0.2,0.2-0.4,0.3-0.6,0.4c-0.2,0.1-0.5,0.1-0.8,0.1
	c-0.3,0-0.6-0.1-0.8-0.2c-0.2-0.1-0.5-0.3-0.6-0.5c-0.2-0.2-0.3-0.5-0.4-0.8c-0.1-0.3-0.1-0.7-0.1-1c0-0.4,0-0.9,0.1-1.3
	c0.1-0.3,0.2-0.7,0.4-0.9c0.2-0.2,0.4-0.4,0.6-0.6c0.3-0.1,0.6-0.2,0.9-0.2c0.3,0,0.6,0.1,0.9,0.2c0.3,0.1,0.5,0.4,0.7,0.6l-0.6,0.6
	c-0.1-0.2-0.3-0.3-0.5-0.4c-0.2-0.1-0.4-0.2-0.6-0.2c-0.3,0-0.6,0.1-0.8,0.4c-0.2,0.3-0.3,0.7-0.3,1.1c0.1-0.2,0.3-0.3,0.4-0.4
	c0.2-0.1,0.4-0.2,0.7-0.2c0.2,0,0.5,0,0.7,0.1c0.2,0.1,0.4,0.2,0.6,0.4c0.2,0.2,0.3,0.4,0.4,0.6C4.2,113.2,4.3,113.4,4.2,113.6z
	 M2.3,114.6c0.1,0,0.3,0,0.4-0.1c0.1,0,0.2-0.1,0.3-0.2c0.1-0.1,0.2-0.2,0.2-0.3c0.1-0.1,0.1-0.2,0.1-0.4c0-0.1,0-0.3-0.1-0.4
	c-0.1-0.2-0.3-0.4-0.5-0.5c-0.1-0.1-0.2-0.1-0.4-0.1c-0.3,0-0.5,0.1-0.7,0.3c-0.1,0.1-0.2,0.2-0.2,0.3c0,0.1-0.1,0.2-0.1,0.4
	c0,0.1,0,0.3,0.1,0.4c0,0.1,0.1,0.2,0.2,0.3c0.1,0.1,0.2,0.2,0.3,0.2C2.1,114.6,2.2,114.6,2.3,114.6z"/>
<path class="st4" d="M10,113.2c0,0.3,0,0.6-0.1,0.9c-0.1,0.3-0.2,0.5-0.4,0.7c-0.2,0.2-0.4,0.4-0.6,0.5c-0.2,0.1-0.5,0.2-0.8,0.2
	c-0.5,0-1-0.2-1.4-0.6c-0.2-0.2-0.3-0.5-0.4-0.7c-0.1-0.3-0.2-0.6-0.2-0.9c0-0.3,0-0.6,0.2-0.9c0.1-0.3,0.2-0.5,0.4-0.7
	c0.2-0.2,0.4-0.4,0.6-0.5c0.2-0.1,0.5-0.2,0.8-0.2c0.3,0,0.5,0.1,0.8,0.2c0.2,0.1,0.5,0.3,0.6,0.5c0.2,0.2,0.3,0.5,0.4,0.7
	C10,112.6,10,112.9,10,113.2z M9,113.2c0-0.2,0-0.4-0.1-0.6c0-0.2-0.1-0.3-0.2-0.4c-0.1-0.1-0.2-0.2-0.3-0.3
	c-0.1-0.1-0.2-0.1-0.4-0.1c-0.1,0-0.3,0-0.4,0.1c-0.1,0.1-0.2,0.2-0.3,0.3c-0.1,0.1-0.1,0.3-0.2,0.4c0,0.2-0.1,0.4-0.1,0.6
	c0,0.2,0,0.4,0.1,0.5c0,0.2,0.1,0.3,0.2,0.4c0.1,0.1,0.2,0.2,0.3,0.3c0.1,0.1,0.2,0.1,0.4,0.1c0.1,0,0.3,0,0.4-0.1
	c0.1-0.1,0.2-0.2,0.3-0.3c0.1-0.1,0.2-0.3,0.2-0.4C9,113.6,9,113.4,9,113.2z"/>
<path class="st4" d="M12.9,112.3c-0.3,0-0.6-0.1-0.9-0.3c-0.1-0.1-0.2-0.2-0.3-0.4c-0.1-0.1-0.1-0.3-0.1-0.4c0-0.2,0-0.3,0.1-0.4
	c0.1-0.1,0.2-0.3,0.3-0.4c0.1-0.1,0.2-0.2,0.4-0.2c0.2-0.1,0.3-0.1,0.5-0.1c0.3,0,0.6,0.1,0.9,0.3c0.1,0.1,0.2,0.2,0.3,0.4
	c0.1,0.1,0.1,0.3,0.1,0.4c0,0.2,0,0.3-0.1,0.4c-0.1,0.1-0.2,0.3-0.3,0.4c-0.1,0.1-0.2,0.2-0.4,0.2C13.2,112.3,13.1,112.3,12.9,112.3
	z M12.1,115l2.1-2.5l1.9-2.6l0.5,0.4l-2.1,2.4l-2,2.6L12.1,115z M12.9,111.8c0.1,0,0.1,0,0.2,0c0.1,0,0.1-0.1,0.2-0.1
	c0.1-0.1,0.1-0.1,0.1-0.2c0-0.1,0-0.2,0-0.2c0-0.2-0.1-0.3-0.2-0.4c-0.1-0.1-0.2-0.2-0.4-0.2c-0.1,0-0.1,0-0.2,0
	c-0.1,0-0.1,0.1-0.2,0.1c-0.1,0.1-0.1,0.1-0.1,0.2c0,0.1,0,0.2,0,0.2c0,0.2,0.1,0.3,0.2,0.4C12.6,111.7,12.7,111.8,12.9,111.8z
	 M15.8,115.5c-0.2,0-0.3,0-0.5-0.1c-0.1-0.1-0.3-0.1-0.4-0.2c-0.1-0.1-0.2-0.2-0.3-0.4c-0.1-0.1-0.1-0.3-0.1-0.4
	c0-0.2,0-0.3,0.1-0.4c0.1-0.1,0.2-0.3,0.3-0.4c0.1-0.1,0.2-0.2,0.4-0.2c0.3-0.1,0.7-0.1,1,0c0.1,0.1,0.3,0.1,0.4,0.2
	c0.1,0.1,0.2,0.2,0.3,0.4c0.1,0.1,0.1,0.3,0.1,0.4c0,0.2,0,0.3-0.1,0.4c-0.1,0.1-0.1,0.3-0.3,0.4c-0.1,0.1-0.2,0.2-0.4,0.2
	C16.1,115.5,16,115.5,15.8,115.5z M15.8,115c0.1,0,0.1,0,0.2-0.1c0.1,0,0.1-0.1,0.2-0.1c0.1-0.1,0.1-0.1,0.1-0.2c0-0.1,0-0.2,0-0.2
	c0-0.1,0-0.2,0-0.3c0-0.1-0.1-0.1-0.1-0.2c0-0.1-0.1-0.1-0.2-0.1c-0.1,0-0.1-0.1-0.2-0.1c-0.1,0-0.1,0-0.2,0.1
	c-0.1,0-0.1,0.1-0.2,0.1c0,0.1-0.1,0.1-0.1,0.2c0,0.1,0,0.2,0,0.2c0,0.2,0,0.3,0.1,0.4C15.5,114.9,15.6,115,15.8,115L15.8,115z"/>
<path class="st4" d="M0.3,225.3c0-0.2,0-0.4,0.1-0.6c0-0.2,0.1-0.4,0.2-0.5c0.1-0.2,0.2-0.3,0.4-0.4c0.2-0.2,0.4-0.3,0.6-0.4L2,223
	c0.1-0.1,0.3-0.1,0.4-0.2c0.1-0.1,0.2-0.1,0.2-0.2c0.1-0.1,0.1-0.2,0.1-0.2c0-0.2-0.1-0.3-0.2-0.4c-0.2-0.1-0.3-0.1-0.5-0.1
	c-0.1,0-0.2,0-0.3,0c-0.1,0-0.2,0.1-0.3,0.1l-0.2,0.2c-0.1,0.1-0.1,0.1-0.2,0.2l-0.6-0.8c0.1-0.1,0.2-0.2,0.3-0.2
	c0.1-0.1,0.3-0.2,0.4-0.2c0.2-0.1,0.4-0.1,0.5-0.2c0.2,0,0.4-0.1,0.6-0.1c0.2,0,0.5,0,0.7,0.1c0.2,0.1,0.4,0.2,0.5,0.3
	c0.1,0.1,0.2,0.2,0.3,0.4c0.1,0.2,0.1,0.3,0.1,0.5c0,0.2,0,0.3-0.1,0.5c-0.1,0.1-0.1,0.3-0.2,0.4c-0.1,0.1-0.2,0.2-0.3,0.3l-0.3,0.2
	l-0.3,0.2l-0.3,0.2c-0.1,0.1-0.2,0.1-0.3,0.2c-0.1,0.1-0.2,0.1-0.2,0.2h2.3v0.9L0.3,225.3z"/>
<path class="st4" d="M9.7,223.1c0,0.3,0,0.6-0.1,0.9c-0.1,0.3-0.2,0.5-0.4,0.7c-0.2,0.2-0.4,0.4-0.6,0.5c-0.5,0.2-1.1,0.2-1.5,0
	c-0.2-0.1-0.4-0.3-0.6-0.5c-0.2-0.2-0.3-0.5-0.4-0.7c-0.2-0.6-0.2-1.2,0-1.8c0.1-0.3,0.2-0.5,0.4-0.7c0.2-0.2,0.4-0.3,0.6-0.5
	c0.5-0.2,1.1-0.2,1.5,0c0.2,0.1,0.4,0.3,0.6,0.5c0.2,0.2,0.3,0.5,0.4,0.7C9.7,222.5,9.7,222.8,9.7,223.1z M8.7,223.1
	c0-0.2,0-0.4-0.1-0.6c0-0.2-0.1-0.3-0.2-0.4c-0.1-0.1-0.2-0.2-0.3-0.3c-0.1-0.1-0.2-0.1-0.4-0.1c-0.1,0-0.3,0-0.4,0.1
	c-0.1,0.1-0.2,0.2-0.3,0.3c-0.1,0.1-0.1,0.3-0.2,0.4c-0.1,0.4-0.1,0.7,0,1.1c0,0.2,0.1,0.3,0.2,0.4c0.1,0.1,0.2,0.2,0.3,0.3
	c0.1,0.1,0.2,0.1,0.4,0.1c0.1,0,0.3,0,0.4-0.1c0.1-0.1,0.2-0.2,0.3-0.3c0.1-0.1,0.1-0.3,0.2-0.4C8.7,223.4,8.7,223.3,8.7,223.1
	L8.7,223.1z"/>
<path class="st4" d="M4.2,58.8c0,0.2,0,0.5-0.2,0.7c-0.1,0.2-0.2,0.4-0.4,0.5c-0.2,0.1-0.4,0.3-0.6,0.3c-0.2,0.1-0.5,0.1-0.8,0.1
	c-0.3,0-0.5,0-0.8-0.1c-0.2-0.1-0.4-0.2-0.6-0.4c-0.2-0.1-0.3-0.3-0.4-0.5c-0.1-0.2-0.2-0.4-0.2-0.7c0-0.1,0-0.3,0.1-0.4
	c0.1-0.1,0.1-0.3,0.2-0.4c0.1-0.1,0.2-0.2,0.3-0.3c0.1-0.1,0.2-0.1,0.3-0.2c-0.2-0.1-0.3-0.2-0.5-0.4c-0.1-0.2-0.2-0.4-0.2-0.6
	c0-0.2,0-0.4,0.2-0.6c0.1-0.2,0.2-0.3,0.4-0.5c0.2-0.1,0.4-0.2,0.6-0.3C1.8,55.1,2.1,55,2.3,55c0.2,0,0.4,0,0.6,0.1
	c0.2,0.1,0.4,0.2,0.6,0.3c0.2,0.1,0.3,0.3,0.4,0.5C4,56.1,4,56.3,4,56.5c0,0.1,0,0.2,0,0.3C4,56.9,4,57,3.9,57.1
	c-0.1,0.1-0.1,0.2-0.2,0.2c-0.1,0.1-0.2,0.1-0.3,0.2c0.1,0.1,0.2,0.1,0.3,0.2C3.8,57.8,3.9,57.9,4,58c0.1,0.1,0.1,0.2,0.2,0.3
	C4.2,58.5,4.2,58.7,4.2,58.8z M3.2,58.8c0-0.1,0-0.2-0.1-0.3c0-0.1-0.1-0.2-0.2-0.2C2.8,58.1,2.7,58,2.6,58c-0.1,0-0.2,0-0.3,0
	c-0.1,0-0.2,0-0.4,0c-0.1,0-0.2,0.1-0.3,0.2c-0.1,0.1-0.1,0.2-0.2,0.2c-0.1,0.2-0.1,0.5,0,0.7c0.1,0.1,0.1,0.2,0.2,0.2
	c0.1,0.1,0.2,0.1,0.3,0.2c0.2,0.1,0.5,0.1,0.7,0c0.1,0,0.2-0.1,0.3-0.2c0.1-0.1,0.2-0.2,0.2-0.2C3.2,59,3.2,58.9,3.2,58.8L3.2,58.8z
	 M1.5,56.6c0,0.1,0,0.2,0.1,0.3c0,0.1,0.1,0.1,0.2,0.2c0.1,0.1,0.2,0.1,0.2,0.1c0.1,0,0.2,0,0.3,0c0.1,0,0.2,0,0.3,0
	c0.1,0,0.2-0.1,0.2-0.1C2.8,57,2.9,56.9,3,56.8c0-0.1,0.1-0.2,0-0.3c0-0.2-0.1-0.3-0.2-0.4C2.6,56,2.4,56,2.3,56
	c-0.2,0-0.4,0.1-0.5,0.2C1.6,56.3,1.5,56.4,1.5,56.6z"/>
<path class="st4" d="M10,58.2c0,0.3,0,0.6-0.1,0.9c-0.1,0.3-0.2,0.5-0.4,0.7c-0.3,0.4-0.8,0.6-1.4,0.6c-0.3,0-0.5-0.1-0.8-0.2
	c-0.2-0.1-0.4-0.3-0.6-0.5c-0.2-0.2-0.3-0.5-0.4-0.7c-0.1-0.3-0.2-0.6-0.2-0.9c0-0.3,0-0.6,0.2-0.9c0.1-0.3,0.2-0.5,0.4-0.7
	c0.2-0.2,0.4-0.4,0.6-0.5c0.2-0.1,0.5-0.2,0.8-0.2c0.3,0,0.5,0.1,0.8,0.2c0.2,0.1,0.4,0.3,0.6,0.5c0.2,0.2,0.3,0.5,0.4,0.7
	C10,57.6,10,57.9,10,58.2z M9,58.2c0-0.2,0-0.4-0.1-0.5c0-0.2-0.1-0.3-0.2-0.4c-0.1-0.1-0.2-0.2-0.3-0.2c-0.1-0.1-0.2-0.1-0.4-0.1
	c-0.1,0-0.3,0-0.4,0.1c-0.1,0.1-0.2,0.2-0.3,0.3c-0.1,0.1-0.2,0.3-0.2,0.4c-0.1,0.2-0.1,0.4-0.1,0.5c0,0.2,0,0.4,0.1,0.5
	c0,0.2,0.1,0.3,0.2,0.4c0.1,0.1,0.2,0.2,0.3,0.3c0.1,0.1,0.2,0.1,0.4,0.1c0.1,0,0.3,0,0.4-0.1c0.1-0.1,0.2-0.2,0.3-0.3
	c0.1-0.1,0.2-0.3,0.2-0.4C9,58.6,9,58.4,9,58.2z"/>
<path class="st4" d="M12.9,57.3c-0.2,0-0.3,0-0.5-0.1c-0.1-0.1-0.3-0.1-0.4-0.2c-0.1-0.1-0.2-0.2-0.3-0.4c-0.1-0.3-0.1-0.6,0-0.9
	c0.1-0.1,0.2-0.3,0.3-0.4c0.1-0.1,0.2-0.2,0.4-0.2c0.2-0.1,0.3-0.1,0.5-0.1c0.2,0,0.3,0,0.5,0.1c0.1,0.1,0.3,0.1,0.4,0.2
	c0.1,0.1,0.2,0.2,0.3,0.4c0.1,0.3,0.1,0.6,0,0.9c-0.1,0.1-0.1,0.3-0.3,0.4c-0.1,0.1-0.3,0.2-0.4,0.2C13.2,57.3,13,57.3,12.9,57.3z
	 M12.1,60l2.1-2.5l2-2.6l0.5,0.4l-2,2.4l-2,2.6L12.1,60z M12.9,56.8c0.1,0,0.1,0,0.2-0.1c0.1-0.1,0.2-0.2,0.3-0.3c0-0.1,0-0.2,0-0.2
	c0-0.2,0-0.3-0.1-0.5c-0.1-0.1-0.2-0.2-0.4-0.2c-0.1,0-0.1,0-0.2,0c-0.1,0-0.1,0.1-0.2,0.1c-0.1,0.1-0.1,0.1-0.1,0.2
	c0,0.1,0,0.2,0,0.2c0,0.2,0.1,0.3,0.2,0.5C12.6,56.7,12.7,56.8,12.9,56.8z M15.8,60.5c-0.2,0-0.3,0-0.5-0.1
	c-0.1-0.1-0.3-0.1-0.4-0.2c-0.1-0.1-0.2-0.2-0.3-0.4c-0.1-0.1-0.1-0.3-0.1-0.4c0-0.2,0-0.3,0.1-0.5c0.1-0.1,0.1-0.3,0.3-0.4
	c0.1-0.1,0.2-0.2,0.4-0.2c0.2-0.1,0.3-0.1,0.5-0.1c0.2,0,0.3,0,0.5,0.1c0.1,0.1,0.3,0.1,0.4,0.2c0.1,0.1,0.2,0.2,0.3,0.4
	C17,59,17,59.2,17,59.3c0,0.3-0.1,0.6-0.4,0.8c-0.1,0.1-0.3,0.2-0.4,0.2C16.1,60.5,15.9,60.5,15.8,60.5z M15.8,60
	c0.1,0,0.1,0,0.2-0.1c0.1,0,0.1-0.1,0.2-0.1c0-0.1,0.1-0.1,0.1-0.2c0-0.1,0-0.2,0-0.2c0-0.1,0-0.2,0-0.2c0-0.1-0.1-0.1-0.1-0.2
	c0-0.1-0.1-0.1-0.2-0.1c-0.1,0-0.1,0-0.2,0c-0.1,0-0.1,0-0.2,0c-0.1,0-0.1,0.1-0.2,0.1c0,0.1-0.1,0.1-0.1,0.2c0,0.1,0,0.2,0,0.2
	c0,0.2,0.1,0.3,0.2,0.4C15.5,59.9,15.6,60,15.8,60L15.8,60z"/>
<path class="st4" d="M2.3,171.4v-1.1H0.2v-0.9l2.5-3.2h0.7v3.2H4v0.9H3.3v1.1H2.3z M1.1,169.4h1.3v-1.7L1.1,169.4z"/>
<path class="st4" d="M9.7,168.2c0,0.3,0,0.6-0.1,0.9c-0.1,0.3-0.2,0.5-0.4,0.7c-0.2,0.2-0.4,0.4-0.6,0.5c-0.5,0.2-1.1,0.2-1.5,0
	c-0.2-0.1-0.4-0.3-0.6-0.5c-0.2-0.2-0.3-0.5-0.4-0.7c-0.2-0.6-0.2-1.2,0-1.8c0.1-0.3,0.2-0.5,0.4-0.7c0.2-0.2,0.4-0.4,0.6-0.5
	c0.5-0.2,1.1-0.2,1.5,0c0.2,0.1,0.4,0.3,0.6,0.5c0.2,0.2,0.3,0.5,0.4,0.7C9.7,167.6,9.7,167.9,9.7,168.2z M8.7,168.2
	c0-0.2,0-0.4-0.1-0.6c0-0.2-0.1-0.3-0.2-0.4c-0.1-0.1-0.2-0.2-0.3-0.3c-0.1-0.1-0.2-0.1-0.4-0.1c-0.1,0-0.3,0-0.4,0.1
	c-0.1,0.1-0.2,0.2-0.3,0.3c-0.1,0.1-0.1,0.3-0.2,0.4c-0.1,0.4-0.1,0.7,0,1.1c0,0.2,0.1,0.3,0.2,0.4c0.1,0.1,0.2,0.2,0.3,0.3
	c0.1,0.1,0.2,0.1,0.4,0.1c0.1,0,0.3,0,0.4-0.1c0.1-0.1,0.2-0.2,0.3-0.3c0.1-0.1,0.1-0.3,0.2-0.4C8.7,168.6,8.7,168.4,8.7,168.2
	L8.7,168.2z"/>
<path class="st4" d="M12.6,222.1c-0.3,0-0.6-0.1-0.9-0.3c-0.1-0.1-0.2-0.2-0.3-0.4c-0.1-0.1-0.1-0.3-0.1-0.4c0-0.2,0-0.3,0.1-0.4
	c0.1-0.1,0.2-0.3,0.3-0.4c0.2-0.2,0.5-0.3,0.9-0.3c0.2,0,0.3,0,0.5,0.1c0.1,0.1,0.3,0.1,0.4,0.2c0.1,0.1,0.2,0.2,0.3,0.4
	c0.1,0.1,0.1,0.3,0.1,0.4c0,0.2,0,0.3-0.1,0.4c-0.1,0.3-0.4,0.5-0.6,0.6C12.9,222.1,12.7,222.1,12.6,222.1z M11.8,224.9l2.1-2.5
	l2-2.6l0.5,0.4l-2,2.4l-2,2.6L11.8,224.9z M12.6,221.6c0.1,0,0.1,0,0.2-0.1l0.2-0.1c0.1-0.1,0.1-0.1,0.1-0.2c0-0.1,0-0.2,0-0.2
	c0-0.2-0.1-0.3-0.2-0.4c-0.1-0.1-0.2-0.2-0.4-0.2c-0.1,0-0.1,0-0.2,0.1c-0.1,0-0.1,0.1-0.2,0.1c0,0.1-0.1,0.1-0.1,0.2
	c0,0.1,0,0.2,0,0.2c0,0.2,0.1,0.3,0.2,0.4C12.3,221.6,12.4,221.6,12.6,221.6z M15.5,225.3c-0.2,0-0.3,0-0.5-0.1
	c-0.1-0.1-0.3-0.1-0.4-0.2c-0.1-0.1-0.2-0.2-0.3-0.4c-0.1-0.3-0.1-0.6,0-0.9c0.1-0.3,0.4-0.5,0.6-0.6c0.2-0.1,0.3-0.1,0.5-0.1
	c0.2,0,0.3,0,0.5,0.1c0.3,0.1,0.5,0.3,0.7,0.6c0.1,0.3,0.1,0.6,0,0.9c-0.1,0.1-0.2,0.3-0.3,0.4c-0.1,0.1-0.2,0.2-0.4,0.2
	C15.8,225.3,15.6,225.3,15.5,225.3z M15.5,224.8c0.1,0,0.1,0,0.2,0c0.1,0,0.1-0.1,0.2-0.1c0.1-0.1,0.1-0.1,0.1-0.2
	c0-0.1,0-0.2,0-0.2c0-0.1,0-0.2,0-0.2c0-0.1-0.1-0.1-0.1-0.2c-0.1-0.1-0.2-0.2-0.4-0.2c-0.1,0-0.1,0-0.2,0.1c-0.1,0-0.1,0.1-0.2,0.1
	c-0.1,0.1-0.1,0.1-0.1,0.2c0,0.1,0,0.2,0,0.2c0,0.2,0,0.3,0.1,0.4C15.2,224.8,15.3,224.8,15.5,224.8L15.5,224.8z"/>
<path class="st4" d="M3.5,279.4v0.9h-3v-0.9h1v-2.3c-0.1,0.1-0.1,0.1-0.2,0.2c-0.1,0.1-0.2,0.1-0.3,0.2c-0.1,0.1-0.2,0.1-0.4,0.1
	c-0.1,0-0.2,0-0.3,0v-0.9c0.1,0,0.2,0,0.3-0.1c0.1-0.1,0.3-0.1,0.4-0.2c0.1-0.1,0.2-0.2,0.3-0.2c0.1,0,0.1-0.1,0.2-0.2h1v3.4
	L3.5,279.4z"/>
<path class="st4" d="M9.1,278.1c0,0.3,0,0.6-0.1,0.9c-0.1,0.3-0.2,0.5-0.4,0.7c-0.2,0.2-0.4,0.4-0.6,0.5c-0.2,0.1-0.5,0.2-0.8,0.2
	c-0.3,0-0.5-0.1-0.8-0.2c-0.2-0.1-0.4-0.3-0.6-0.5c-0.2-0.2-0.3-0.5-0.4-0.7c-0.1-0.3-0.1-0.6-0.1-0.9c0-0.3,0-0.6,0.1-0.9
	c0.1-0.3,0.2-0.5,0.4-0.7c0.2-0.2,0.4-0.4,0.6-0.5c0.2-0.1,0.5-0.2,0.8-0.2c0.3,0,0.5,0.1,0.8,0.2c0.2,0.1,0.4,0.3,0.6,0.5
	c0.2,0.2,0.3,0.5,0.4,0.7C9,277.5,9.1,277.8,9.1,278.1z M8.1,278.1c0-0.2,0-0.4-0.1-0.6c0-0.2-0.1-0.3-0.2-0.4
	c-0.1-0.1-0.2-0.2-0.3-0.3c-0.1-0.1-0.2-0.1-0.4-0.1c-0.1,0-0.3,0-0.4,0.1c-0.1,0.1-0.2,0.2-0.3,0.3c-0.1,0.1-0.2,0.3-0.2,0.4
	c0,0.2-0.1,0.4-0.1,0.6c0,0.2,0,0.4,0.1,0.5c0,0.2,0.1,0.3,0.2,0.4c0.1,0.1,0.2,0.2,0.3,0.3c0.1,0.1,0.2,0.1,0.4,0.1
	c0.1,0,0.3,0,0.4-0.1c0.1-0.1,0.2-0.2,0.3-0.3c0.1-0.1,0.2-0.3,0.2-0.4C8,278.5,8.1,278.3,8.1,278.1L8.1,278.1z"/>
<path class="st4" d="M11.9,277.2c-0.2,0-0.3,0-0.5-0.1c-0.1-0.1-0.3-0.1-0.4-0.2c-0.1-0.1-0.2-0.2-0.3-0.4c-0.1-0.1-0.1-0.3-0.1-0.4
	c0-0.2,0-0.3,0.1-0.5c0.1-0.1,0.2-0.3,0.3-0.4c0.2-0.2,0.5-0.3,0.9-0.3c0.2,0,0.3,0,0.5,0.1c0.1,0.1,0.3,0.1,0.4,0.2
	c0.1,0.1,0.2,0.2,0.3,0.4c0.1,0.1,0.1,0.3,0.1,0.5c0,0.2,0,0.3-0.1,0.4c-0.1,0.1-0.1,0.3-0.3,0.4c-0.1,0.1-0.2,0.2-0.4,0.2
	C12.3,277.1,12.1,277.2,11.9,277.2z M11.1,279.9l2.1-2.5l1.9-2.6l0.5,0.4l-2.1,2.4l-2,2.6L11.1,279.9z M11.9,276.6
	c0.1,0,0.1,0,0.2,0c0.1,0,0.1-0.1,0.2-0.1c0.1-0.1,0.1-0.1,0.1-0.2c0.1-0.2,0.1-0.5-0.1-0.7c-0.1-0.1-0.2-0.2-0.4-0.2
	c-0.1,0-0.1,0-0.2,0c-0.1,0-0.1,0.1-0.2,0.1c-0.1,0.1-0.1,0.1-0.1,0.2c0,0.1,0,0.2,0,0.2c0,0.2,0.1,0.3,0.2,0.5
	C11.7,276.6,11.8,276.7,11.9,276.6z M14.8,280.4c-0.2,0-0.3,0-0.5-0.1c-0.1-0.1-0.2-0.2-0.3-0.3c-0.1-0.1-0.2-0.2-0.3-0.4
	c-0.1-0.1-0.1-0.3-0.1-0.4c0-0.2,0-0.3,0.1-0.5c0.1-0.1,0.1-0.3,0.3-0.4c0.1-0.1,0.2-0.2,0.4-0.2c0.2-0.1,0.3-0.1,0.5-0.1
	c0.2,0,0.3,0,0.5,0.1c0.1,0.1,0.3,0.1,0.4,0.2c0.1,0.1,0.2,0.2,0.3,0.4c0.1,0.1,0.1,0.3,0.1,0.5c0,0.2,0,0.3-0.1,0.4
	c-0.1,0.1-0.1,0.3-0.3,0.4c-0.1,0.1-0.3,0.2-0.4,0.2C15.2,280.3,15,280.4,14.8,280.4z M14.8,279.9c0.1,0,0.1,0,0.2-0.1
	c0.1,0,0.1-0.1,0.2-0.1c0.1-0.1,0.1-0.1,0.1-0.2c0-0.1,0-0.2,0-0.2c0-0.1,0-0.2,0-0.3c0-0.1-0.1-0.1-0.1-0.2c0-0.1-0.1-0.1-0.2-0.1
	c-0.1,0-0.1-0.1-0.2,0c-0.1,0-0.1,0-0.2,0c-0.1,0-0.1,0.1-0.2,0.1c-0.1,0.1-0.1,0.1-0.1,0.2c0,0.1,0,0.2,0,0.2c0,0.2,0,0.3,0.1,0.4
	C14.6,279.8,14.7,279.8,14.8,279.9z"/>
<path class="st0" d="M104.3,79.2h-30v-25h30V79.2z M74.6,78.9h29.5V54.4H74.6V78.9z"/>
<path class="st0" d="M164.2,105.3h-30v-25h30V105.3z M134.5,105H164V80.5h-29.5L134.5,105z"/>
<path class="st0" d="M224.3,134.6h-30v-25h30V134.6z M194.6,134.3h29.5v-24.5h-29.5V134.3z"/>
<path class="st5" d="M86.2,127.7c0-0.7,0.2-1.4,0.6-2.1l1,0.2c-0.4,0.5-0.6,1.2-0.6,1.8c0,0.6,0.2,0.9,0.6,0.9s0.5-0.4,0.7-1.1
	c0.3-1.3,0.9-1.7,1.7-1.7s1.6,0.6,1.6,2c0,0.6-0.2,1.2-0.5,1.8l-0.9-0.2c0.3-0.5,0.4-1,0.4-1.5c0-0.6-0.2-0.8-0.5-0.8
	s-0.5,0.4-0.6,0.9c-0.3,1.4-0.9,1.9-1.6,1.9C86.9,129.8,86.2,129,86.2,127.7z"/>
<path class="st5" d="M86.2,133.4c0.1-1.5,1.4-2.7,2.9-2.7s2.7,1.4,2.7,2.9c-0.1,1.5-1.3,2.7-2.8,2.7c-1.5,0-2.8-1.3-2.8-2.8
	C86.2,133.5,86.2,133.5,86.2,133.4z M90.7,133.4c0.1-1-0.6-1.9-1.6-2c-1-0.1-1.9,0.6-2,1.6c-0.1,1,0.6,1.9,1.6,2c0.1,0,0.2,0,0.3,0
	c0.9,0.1,1.6-0.6,1.7-1.4C90.7,133.5,90.7,133.5,90.7,133.4z"/>
<path class="st5" d="M86.4,144.5h2.9c0.9,0,1.3-0.3,1.3-0.9c0-0.7-0.6-1.3-1.3-1.3h-2.9v-1.4h2.9c0.9,0,1.3-0.2,1.3-0.9
	c0-0.7-0.6-1.3-1.3-1.3h-2.9v-1.4h5.2v1.3l-1,0.1c0.7,0.4,1.1,1.1,1.1,1.8c0.1,0.8-0.4,1.5-1.2,1.7c0.7,0.4,1.1,1.1,1.2,1.9
	c0,1.4-1,1.8-2.2,1.8h-3V144.5z"/>
<path class="st5" d="M88.9,151.7v-3.4c-0.9-0.1-1.6,0.5-1.7,1.4c0,0.1,0,0.2,0,0.4c0,0.6,0.2,1.2,0.6,1.7h-1
	c-0.4-0.6-0.6-1.4-0.6-2.1c0-1.5,1.1-2.7,2.6-2.7c0.1,0,0.2,0,0.2,0c1.4,0,2.6,1.1,2.7,2.5c0,0,0,0.1,0,0.1c0.1,1.2-0.8,2.2-1.9,2.3
	c0,0-0.1,0-0.1,0C89.4,151.8,89.2,151.8,88.9,151.7z M90.8,149.6c0-0.6-0.5-1.2-1.1-1.2c0,0,0,0,0,0v2.2c0.5,0.1,1-0.2,1.1-0.7
	C90.8,149.8,90.8,149.7,90.8,149.6z"/>
<path class="st5" d="M90.6,155h-4.3v-1.4h4.3v-1.1h0.9v1.1H93v1.4h-1.5v1.1h-0.9V155z"/>
<path class="st5" d="M86.4,156.9h5.2v1.4h-5.2V156.9z M92.4,156.9h1.1v1.4h-1.1L92.4,156.9z"/>
<path class="st5" d="M86.4,166.8h2.9c0.9,0,1.3-0.2,1.3-0.9c0-0.7-0.6-1.3-1.3-1.3h-2.9v-1.4h2.9c0.9,0,1.3-0.2,1.3-0.9
	c0-0.7-0.6-1.3-1.3-1.3h-2.9v-1.4h5.2v1.3l-1,0.1c0.7,0.4,1.1,1.1,1.1,1.8c0.1,0.8-0.4,1.5-1.2,1.7c0.7,0.4,1.1,1.1,1.2,1.9
	c0,1.4-1,1.8-2.2,1.8h-3V166.8z"/>
<path class="st5" d="M88.9,174.1v-3.5c-0.9-0.1-1.6,0.6-1.7,1.4c0,0.1,0,0.2,0,0.4c0,0.6,0.2,1.2,0.6,1.7h-1
	c-0.4-0.6-0.7-1.4-0.6-2.1c0-1.5,1.1-2.7,2.6-2.7c0.1,0,0.2,0,0.2,0c1.4,0,2.6,1.1,2.7,2.5c0,0,0,0.1,0,0.1c0.1,1.2-0.7,2.2-1.9,2.3
	c-0.1,0-0.1,0-0.2,0C89.4,174.2,89.2,174.2,88.9,174.1z M90.8,171.9c0-0.6-0.5-1.2-1.1-1.2v2.2c0.5,0.1,1-0.2,1.1-0.7
	C90.8,172.1,90.8,172,90.8,171.9z"/>
<path class="st5" d="M86.2,177.1c0-0.7,0.2-1.4,0.6-2.1l1,0.2c-0.4,0.5-0.6,1.2-0.6,1.8c0,0.6,0.2,0.9,0.6,0.9s0.5-0.4,0.7-1.1
	c0.3-1.3,0.9-1.7,1.7-1.7s1.6,0.6,1.6,2c0,0.6-0.2,1.2-0.5,1.8l-0.9-0.2c0.3-0.5,0.4-1,0.4-1.5c0-0.6-0.2-0.8-0.5-0.8
	s-0.5,0.4-0.6,0.9c-0.3,1.4-0.9,1.9-1.6,1.9C86.9,179.2,86.2,178.4,86.2,177.1z"/>
<path class="st5" d="M90.6,184.2h-4.3v-1.4h4.3v-1h0.9v1l0,0c1.5,0,2.1,0.8,2.1,2c0,0.2,0,0.5-0.1,0.7h-0.9c0-0.2,0.1-0.3,0.1-0.5
	c0-0.6-0.2-0.8-1.2-0.8h-0.1v1.3h-0.9L90.6,184.2z"/>
<path class="st5" d="M86.2,188.8c0.1-1.5,1.4-2.7,2.9-2.7c1.5,0.1,2.7,1.4,2.7,2.9c-0.1,1.5-1.3,2.6-2.7,2.7c-1.5,0-2.8-1.2-2.8-2.7
	C86.2,188.9,86.2,188.9,86.2,188.8z M90.7,188.8c0.1-1-0.5-1.9-1.5-2c-1-0.1-1.9,0.5-2,1.5c-0.1,1,0.5,1.9,1.5,2c0.1,0,0.2,0,0.3,0
	C89.9,190.4,90.6,189.8,90.7,188.8C90.7,188.9,90.7,188.8,90.7,188.8z"/>
<path class="st5" d="M89.2,194.1h-2.8v-1.4h5.2v1.3l-1,0.1c0.7,0.4,1.2,1.1,1.1,1.9h-1.3C90.6,195,90.1,194.1,89.2,194.1z"/>
<path class="st5" d="M83.9,199.2c0-0.8,0.2-1.6,0.6-2.3h1.1c-0.4,0.7-0.7,1.4-0.7,2.2c0,0.9,0.5,1.6,1.8,1.6h0.3
	c-0.6-0.4-0.9-1.1-0.9-1.8c0.2-1.5,1.5-2.6,3-2.4c1.3,0.1,2.3,1.2,2.4,2.4c0,0.8-0.4,1.5-1,1.9h0.8v1.3h-4.6c-1.4,0.2-2.8-0.8-3-2.3
	C83.9,199.6,83.9,199.4,83.9,199.2z M90.7,199.4c0.1-0.9-0.5-1.8-1.5-2c-0.9-0.1-1.8,0.5-2,1.5c-0.1,0.9,0.5,1.8,1.5,2
	c0.1,0,0.2,0,0.3,0c0.8,0.1,1.6-0.5,1.7-1.3C90.6,199.5,90.6,199.4,90.7,199.4z"/>
<path class="st5" d="M88.9,208.1v-3.4c-0.9-0.1-1.6,0.5-1.7,1.4c0,0.1,0,0.2,0,0.4c0,0.6,0.2,1.2,0.6,1.7h-1
	c-0.4-0.6-0.6-1.4-0.6-2.1c0.1-1.5,1.3-2.7,2.8-2.6c1.4,0.1,2.5,1.1,2.6,2.5c0.1,1.2-0.7,2.2-1.9,2.3c0,0-0.1,0-0.2,0
	C89.4,208.2,89.1,208.1,88.9,208.1z M90.8,205.9c0-0.6-0.5-1.2-1.1-1.2c0,0,0,0,0,0v2.2c0.5,0.1,1-0.2,1.1-0.7
	C90.8,206.1,90.8,206,90.8,205.9L90.8,205.9z"/>
<path class="st5" d="M90.6,211.3h-4.3v-1.4h4.3v-1.1h0.9v1.1H93v1.4h-1.5v1.1h-0.9V211.3z"/>
<path class="st5" d="M90.6,217.6h-4.3v-1.4h4.3v-1.1h0.9v1.1H93v1.4h-1.5v1.1h-0.9V217.6z"/>
<path class="st5" d="M86.2,222.1c0.1-1.5,1.4-2.7,2.9-2.6c1.5,0.1,2.7,1.4,2.6,2.9c-0.1,1.5-1.3,2.6-2.7,2.6c-1.5,0-2.8-1.2-2.8-2.7
	C86.2,222.2,86.2,222.2,86.2,222.1z M90.7,222.1c0.1-1-0.6-1.9-1.5-2c-1-0.1-1.9,0.6-2,1.5s0.6,1.9,1.5,2c0.1,0,0.2,0,0.3,0
	c0.9,0.1,1.6-0.6,1.7-1.4C90.7,222.2,90.7,222.2,90.7,222.1z"/>
<path class="st5" d="M86.2,230.2c0-0.7,0.2-1.4,0.6-2.1l1,0.2c-0.4,0.5-0.6,1.2-0.6,1.8c0,0.6,0.2,0.9,0.6,0.9s0.5-0.4,0.7-1.1
	c0.3-1.3,0.9-1.7,1.7-1.7s1.6,0.6,1.6,2c0,0.6-0.2,1.2-0.5,1.8l-0.9-0.2c0.3-0.5,0.4-1,0.4-1.5c0-0.6-0.2-0.8-0.5-0.8
	s-0.5,0.4-0.6,0.9c-0.3,1.4-0.9,1.9-1.6,1.9C86.9,232.3,86.2,231.5,86.2,230.2z"/>
<path class="st5" d="M86.4,237.1h2.9c1,0,1.3-0.4,1.3-1c0-0.7-0.6-1.3-1.3-1.4h-2.9v-1.4h7.2v1.4h-2.9c0.6,0.4,1,1.1,1,1.9
	c0,1.4-1,1.9-2.2,1.9h-3.1V237.1z"/>
<path class="st5" d="M86.4,243.9l0.8-0.1c-0.6-0.4-1-1.2-1-1.9c0.2-1.5,1.5-2.6,3-2.4c1.3,0.1,2.3,1.2,2.4,2.4c0,0.8-0.4,1.5-1,1.9
	l0.8,0.1v1.3h-5.1V243.9z M90.7,242.4c0.1-0.9-0.5-1.8-1.5-2c-0.9-0.1-1.8,0.5-2,1.5c-0.1,0.9,0.5,1.8,1.5,2c0.1,0,0.2,0,0.3,0
	c0.8,0.1,1.6-0.5,1.7-1.3C90.6,242.5,90.6,242.4,90.7,242.4z"/>
<path class="st5" d="M89.2,248h-2.8v-1.4h5.2v1.3l-1,0.1c0.7,0.4,1.1,1.1,1.1,1.9h-1.3C90.6,248.9,90.1,248,89.2,248z"/>
<path class="st5" d="M88.9,255.2v-3.5c-0.9-0.1-1.6,0.6-1.7,1.4c0,0.1,0,0.2,0,0.4c0,0.6,0.2,1.2,0.6,1.7h-1
	c-0.4-0.6-0.6-1.4-0.6-2.1c0.1-1.5,1.3-2.7,2.8-2.6c1.4,0.1,2.5,1.1,2.6,2.5c0.1,1.2-0.7,2.2-1.9,2.3c-0.1,0-0.1,0-0.2,0
	C89.4,255.3,89.1,255.2,88.9,255.2z M90.8,253c0-0.6-0.5-1.2-1.1-1.2v2.2c0.5,0.1,1-0.2,1.1-0.7C90.8,253.2,90.8,253.1,90.8,253z"/>
<path class="st5" d="M86.2,262c0-0.8,0.4-1.5,1-1.9h-0.8v-1.3h7.2v1.4h-2.8c0.5,0.5,0.9,1.1,0.8,1.9c-0.2,1.5-1.5,2.6-3,2.4
	C87.4,264.4,86.3,263.3,86.2,262L86.2,262z M90.7,261.6c0.1-0.9-0.5-1.8-1.5-2c-0.9-0.1-1.8,0.5-2,1.5c-0.1,0.9,0.5,1.8,1.5,2
	c0.1,0,0.2,0,0.3,0c0.8,0.1,1.6-0.5,1.7-1.3C90.6,261.7,90.6,261.6,90.7,261.6L90.7,261.6z"/>
<path class="st5" d="M88.9,270.1v-3.5c-0.9-0.1-1.6,0.5-1.7,1.4c0,0.1,0,0.2,0,0.4c0,0.6,0.2,1.2,0.6,1.7h-1
	c-0.4-0.6-0.6-1.4-0.6-2.1c0.1-1.5,1.3-2.7,2.8-2.6c1.4,0.1,2.5,1.1,2.6,2.5c0.1,1.2-0.7,2.2-1.9,2.3c0,0-0.1,0-0.2,0
	C89.4,270.2,89.1,270.1,88.9,270.1z M90.8,267.9c0-0.6-0.5-1.2-1.1-1.2c0,0,0,0,0,0v2.2c0.5,0.1,1-0.2,1.1-0.7
	C90.8,268.1,90.8,268,90.8,267.9z"/>
<path class="st5" d="M86.4,275.1h2.9c1,0,1.3-0.4,1.3-1c0-0.7-0.6-1.3-1.3-1.4h-2.9v-1.4h7.2v1.4h-2.9c0.6,0.4,1,1.1,1,1.9
	c0,1.4-1,1.9-2.2,1.9h-3.1V275.1z"/>
<path class="st5" d="M86.4,281.9l0.8,0c-0.6-0.4-1-1.2-1-1.9c0.2-1.5,1.5-2.6,3-2.4c1.3,0.1,2.3,1.2,2.4,2.4c0,0.8-0.4,1.5-1,1.9
	l0.8,0v1.3h-5.1V281.9z M90.7,280.4c0.1-0.9-0.5-1.8-1.5-1.9c-0.9-0.1-1.8,0.5-1.9,1.5c-0.1,0.9,0.5,1.8,1.5,1.9c0.1,0,0.2,0,0.2,0
	c0.8,0.1,1.6-0.5,1.7-1.3C90.6,280.5,90.6,280.4,90.7,280.4z"/>
<path class="st5" d="M86.4,287.1v-1l5.2-2.3v1.4l-3.4,1.4l3.4,1.4v1.3L86.4,287.1z"/>
<path class="st5" d="M86.4,290h5.2v1.4h-5.2V290z M92.4,290h1.1v1.4h-1.1L92.4,290z"/>
<path class="st5" d="M86.2,295.4c0.1-1.5,1.4-2.7,2.9-2.7c1.5,0.1,2.7,1.4,2.7,2.9c-0.1,1.5-1.3,2.7-2.8,2.7c-1.5,0-2.8-1.2-2.8-2.8
	C86.2,295.5,86.2,295.4,86.2,295.4z M90.7,295.4c0.1-1-0.5-1.9-1.5-2c-1-0.1-1.9,0.5-2,1.5c-0.1,1,0.5,1.9,1.5,2c0.1,0,0.2,0,0.3,0
	C89.9,297,90.6,296.3,90.7,295.4C90.7,295.4,90.7,295.4,90.7,295.4z"/>
<path class="st5" d="M89.2,300.7h-2.8v-1.4h5.2v1.3l-1,0.1c0.7,0.4,1.1,1.1,1.1,1.9h-1.3C90.6,301.6,90.1,300.7,89.2,300.7z"/>
<path class="st5" d="M146.3,192.2h5.2v1.4h-5.2V192.2z M152.4,192.2h1.1v1.4h-1.1V192.2z"/>
<path class="st5" d="M146.1,196.7c0-0.7,0.2-1.4,0.6-2.1l1,0.2c-0.4,0.5-0.6,1.2-0.6,1.8c0,0.6,0.2,0.9,0.6,0.9s0.5-0.4,0.7-1.1
	c0.3-1.3,0.9-1.7,1.7-1.7s1.6,0.6,1.6,2c0,0.6-0.2,1.2-0.5,1.8l-0.9-0.2c0.3-0.5,0.4-1,0.4-1.5c0-0.6-0.2-0.8-0.5-0.8
	s-0.5,0.4-0.6,0.9c-0.3,1.4-0.9,1.9-1.6,1.9C146.8,198.8,146.1,198,146.1,196.7z"/>
<path class="st5" d="M150.6,204.2h-4.3v-1.4h4.3v-1.1h0.9v1.1h1.4v1.4h-1.4v1.1h-0.9V204.2z"/>
<path class="st5" d="M146.3,206.1h5.2v1.4h-5.2V206.1z M152.4,206.1h1.1v1.4h-1.1V206.1z"/>
<path class="st5" d="M149.1,210.3h-2.8v-1.4h5.2v1.3l-0.9,0.1c0.7,0.4,1.1,1.1,1.1,1.9h-1.4C150.5,211.2,150,210.3,149.1,210.3z"/>
<path class="st5" d="M148.9,217.5V214c-0.9-0.1-1.6,0.5-1.7,1.4c0,0.1,0,0.2,0,0.4c0,0.6,0.2,1.2,0.6,1.7h-1
	c-0.4-0.6-0.6-1.4-0.6-2.1c0-1.5,1.2-2.8,2.7-2.8c1.5,0,2.8,1.2,2.8,2.7c0.1,1.2-0.7,2.2-1.9,2.3c-0.1,0-0.1,0-0.2,0
	C149.3,217.6,149.1,217.6,148.9,217.5z M150.7,215.3c0-0.6-0.5-1.2-1.1-1.2v2.2c0.5,0.1,1-0.2,1.1-0.7
	C150.7,215.5,150.7,215.4,150.7,215.3z"/>
<path class="st5" d="M146.3,222.9l0.8-0.1c-0.6-0.4-1-1.2-1-1.9c0.2-1.5,1.6-2.6,3.1-2.4c1.3,0.2,2.2,1.1,2.4,2.4
	c0,0.7-0.3,1.4-0.9,1.8h2.7v1.4h-7.2L146.3,222.9z M150.6,221.3c0.1-0.9-0.5-1.8-1.5-2c-0.9-0.1-1.8,0.5-2,1.5
	c-0.1,0.9,0.5,1.8,1.5,2c0.1,0,0.2,0,0.3,0c0.8,0.1,1.6-0.5,1.7-1.3C150.6,221.4,150.6,221.4,150.6,221.3L150.6,221.3z"/>
<path class="st5" d="M150.6,229.8h-4.3v-1.4h4.3v-1.1h0.9v1.1h1.4v1.4h-1.4v1.1h-0.9V229.8z"/>
<path class="st5" d="M146.1,234.4c0.1-1.5,1.4-2.7,2.9-2.6c1.5,0.1,2.7,1.4,2.6,2.9c-0.1,1.5-1.3,2.6-2.8,2.6
	c-1.5,0-2.8-1.2-2.8-2.8C146.1,234.5,146.1,234.4,146.1,234.4z M150.6,234.4c0.1-1-0.5-1.9-1.5-2c-1-0.1-1.9,0.5-2,1.5
	c-0.1,1,0.5,1.9,1.5,2c0.1,0,0.2,0,0.2,0c0.9,0.1,1.6-0.5,1.7-1.4C150.6,234.5,150.6,234.4,150.6,234.4z"/>
<path class="st5" d="M143.9,243.1c0-0.8,0.2-1.6,0.6-2.3h1.1c-0.4,0.7-0.7,1.5-0.7,2.3c0,0.9,0.5,1.6,1.8,1.6h0.3
	c-0.6-0.5-0.9-1.1-0.9-1.9c0.2-1.5,1.6-2.6,3.1-2.4c1.3,0.2,2.2,1.1,2.4,2.4c0,0.8-0.4,1.5-1,1.9h0.8v1.3h-4.7
	c-1.4,0.2-2.8-0.9-2.9-2.3C143.8,243.5,143.8,243.3,143.9,243.1z M150.6,243.2c0.1-0.9-0.5-1.8-1.5-1.9c-0.9-0.1-1.8,0.5-1.9,1.5
	c-0.1,0.9,0.5,1.8,1.5,1.9c0.1,0,0.2,0,0.2,0c0.8,0.1,1.6-0.5,1.7-1.3C150.6,243.3,150.6,243.3,150.6,243.2L150.6,243.2z"/>
<path class="st5" d="M146.1,250c0.1-1.5,1.4-2.7,2.9-2.7s2.7,1.4,2.7,2.9c-0.1,1.5-1.3,2.7-2.8,2.7c-1.5,0-2.8-1.3-2.8-2.8
	C146.1,250.1,146.1,250,146.1,250z M150.6,250c0.1-1-0.5-1.9-1.5-2c-1-0.1-1.9,0.5-2,1.5c-0.1,1,0.5,1.9,1.5,2c0.1,0,0.2,0,0.3,0
	c0.9,0.1,1.7-0.5,1.8-1.4C150.6,250.1,150.6,250,150.6,250z"/>
<path class="st5" d="M150.6,258.3h-4.3v-1.4h4.3v-1.1h0.9v1.1h1.4v1.4h-1.4v1.1h-0.9V258.3z"/>
<path class="st5" d="M146.1,262.8c0.1-1.5,1.4-2.7,2.9-2.6c1.5,0.1,2.7,1.4,2.6,2.9c-0.1,1.5-1.3,2.6-2.8,2.6
	c-1.5,0-2.8-1.2-2.8-2.8C146.1,262.9,146.1,262.9,146.1,262.8z M150.6,262.8c0.1-1-0.5-1.9-1.5-2c-1-0.1-1.9,0.5-2,1.5
	s0.5,1.9,1.5,2c0.1,0,0.2,0,0.2,0c0.9,0.1,1.6-0.5,1.7-1.4C150.6,262.9,150.6,262.9,150.6,262.8z"/>
<path class="st5" d="M146.3,273.2l0.8,0c-0.6-0.4-1-1.2-1-1.9c0.2-1.5,1.6-2.6,3.1-2.4c1.3,0.2,2.2,1.1,2.4,2.4
	c0,0.7-0.3,1.4-0.9,1.9h2.7v1.4h-7.2L146.3,273.2z M150.6,271.7c0.1-0.9-0.5-1.8-1.5-1.9c-0.9-0.1-1.8,0.5-1.9,1.5
	c-0.1,0.9,0.5,1.8,1.5,1.9c0.1,0,0.2,0,0.2,0c0.8,0.1,1.6-0.5,1.7-1.3C150.6,271.8,150.6,271.7,150.6,271.7L150.6,271.7z"/>
<path class="st5" d="M148.9,280.4V277c-0.9-0.1-1.6,0.5-1.7,1.4c0,0.1,0,0.2,0,0.4c0,0.6,0.2,1.2,0.6,1.7h-1
	c-0.4-0.6-0.6-1.4-0.6-2.1c0-1.5,1.2-2.8,2.7-2.8c1.5,0,2.8,1.2,2.8,2.7c0.1,1.2-0.7,2.2-1.9,2.3c-0.1,0-0.1,0-0.2,0
	C149.3,280.5,149.1,280.5,148.9,280.4z M150.7,278.2c0-0.7-0.5-1.2-1.1-1.2c0,0,0,0,0,0v2.2c0.5,0.1,1-0.2,1.1-0.7
	C150.7,278.4,150.7,278.3,150.7,278.2z"/>
<path class="st5" d="M150.6,283.6h-4.3v-1.4h4.3v-1.1h0.9v1.1h1.4v1.4h-1.4v1.1h-0.9V283.6z"/>
<path class="st5" d="M146.3,289.7h0.8c-0.6-0.4-1-1.2-1-1.9c0.2-1.5,1.6-2.6,3.1-2.4c1.3,0.2,2.2,1.1,2.4,2.4c0,0.8-0.4,1.5-1,1.9
	h0.8v1.3h-5.1V289.7z M150.6,288.2c0.1-0.9-0.5-1.8-1.5-2c-0.9-0.1-1.8,0.5-2,1.5c-0.1,0.9,0.5,1.8,1.5,2c0.1,0,0.2,0,0.3,0
	c0.8,0.1,1.6-0.5,1.7-1.3C150.6,288.3,150.6,288.2,150.6,288.2z"/>
<path class="st5" d="M146.3,292.3h5.2v1.4h-5.2V292.3z M152.4,292.3h1.1v1.4h-1.1V292.3z"/>
<path class="st5" d="M146.3,295.1h7.2v1.4h-7.2V295.1z"/>
<path class="st5" d="M146.1,299.6c0-0.7,0.2-1.5,0.6-2.1l1,0.2c-0.4,0.5-0.6,1.2-0.6,1.8c0,0.5,0.2,0.9,0.6,0.9s0.5-0.4,0.7-1.1
	c0.3-1.3,0.9-1.7,1.7-1.7s1.6,0.6,1.6,2c0,0.6-0.2,1.2-0.5,1.8l-0.9-0.2c0.3-0.5,0.4-1,0.4-1.5c0-0.6-0.2-0.8-0.5-0.8
	s-0.5,0.4-0.6,0.9c-0.3,1.4-0.9,1.9-1.6,1.9C146.8,301.7,146.1,300.9,146.1,299.6z"/>
<path class="st5" d="M206.3,170.9h5.2v1.4h-5.2V170.9z M212.4,170.9h1.1v1.4h-1.1V170.9z"/>
<path class="st5" d="M206.2,175.4c0-0.7,0.2-1.4,0.6-2.1l1,0.2c-0.4,0.5-0.5,1.2-0.6,1.8c0,0.6,0.2,0.9,0.6,0.9s0.5-0.4,0.7-1.1
	c0.3-1.3,1-1.7,1.7-1.7s1.6,0.6,1.6,2c0,0.6-0.2,1.2-0.5,1.8l-0.9-0.2c0.3-0.5,0.4-1,0.4-1.5c0-0.6-0.2-0.8-0.5-0.8
	s-0.5,0.4-0.6,0.9c-0.3,1.4-0.9,1.9-1.6,1.9C206.9,177.6,206.2,176.7,206.2,175.4z"/>
<path class="st5" d="M206.3,184.8l1-0.1c-0.7-0.4-1.1-1.1-1.1-1.9c0-1.4,1-1.9,2.2-1.9h3.1v1.4h-2.9c-1,0-1.3,0.3-1.3,1
	c0,0.7,0.6,1.3,1.3,1.4h2.9v1.4h-5.2L206.3,184.8z"/>
<path class="st5" d="M206.3,191.2h2.9c1,0,1.3-0.4,1.3-1c0-0.7-0.6-1.3-1.3-1.4h-2.9v-1.4h5.2v1.3l-0.9,0.1c0.7,0.4,1.1,1.1,1.1,1.9
	c0,1.4-1,1.9-2.2,1.9h-3.1L206.3,191.2z"/>
<path class="st5" d="M206.2,196.4c0.1-1.5,1.4-2.7,2.9-2.6c1.4,0.1,2.5,1.2,2.6,2.6c0,0.7-0.2,1.3-0.5,1.9h-1.1
	c0.4-0.4,0.6-1,0.5-1.6c-0.1-0.9-0.9-1.6-1.8-1.5c-0.8,0.1-1.5,0.7-1.5,1.5c0,0.6,0.2,1.1,0.6,1.6h-1.1
	C206.3,197.7,206.2,197,206.2,196.4z"/>
<path class="st5" d="M206.1,201.9c0.1-1.5,1.4-2.7,2.9-2.7c1.5,0.1,2.7,1.4,2.7,2.9c-0.1,1.5-1.3,2.7-2.8,2.7
	c-1.5,0-2.8-1.2-2.8-2.8C206.1,202,206.1,202,206.1,201.9z M210.7,201.9c0.1-1-0.5-1.9-1.5-2c-1-0.1-1.9,0.5-2,1.5
	c-0.1,1,0.5,1.9,1.5,2c0.1,0,0.2,0,0.2,0c0.9,0.1,1.7-0.5,1.8-1.4C210.7,202,210.7,202,210.7,201.9z"/>
<path class="st5" d="M206.3,213h2.9c0.9,0,1.3-0.2,1.3-0.9c0-0.7-0.6-1.3-1.3-1.3h-2.9v-1.4h2.9c0.9,0,1.3-0.2,1.3-0.9
	c0-0.7-0.6-1.3-1.3-1.3h-2.9v-1.4h5.2v1.3l-0.9,0.1c0.7,0.4,1.1,1.1,1.1,1.8c0.1,0.8-0.4,1.5-1.2,1.6c0.7,0.4,1.1,1.1,1.2,1.9
	c0,1.4-1,1.8-2.2,1.8h-3.1L206.3,213z"/>
<path class="st5" d="M210.6,217.3h-4.3V216h4.3v-1h0.9v1h0.1c1.5,0,2.1,0.8,2.1,2c0,0.2,0,0.5-0.1,0.7h-0.9c0-0.2,0.1-0.3,0.1-0.5
	c0-0.6-0.2-0.8-1.1-0.8h-0.1v1.3h-0.9V217.3z"/>
<path class="st5" d="M206.1,221.9c0.1-1.5,1.4-2.7,2.9-2.7c1.5,0.1,2.7,1.4,2.7,2.9c-0.1,1.5-1.3,2.7-2.8,2.7
	c-1.5,0-2.8-1.3-2.8-2.8C206.1,222,206.1,222,206.1,221.9z M210.7,221.9c0.1-1-0.5-1.9-1.5-2s-1.9,0.5-2,1.5s0.5,1.9,1.5,2
	c0.1,0,0.2,0,0.2,0c0.9,0.1,1.7-0.5,1.8-1.4C210.7,222,210.7,222,210.7,221.9z"/>
<path class="st5" d="M209.2,227.2h-2.8v-1.4h5.2v1.3l-0.9,0.1c0.7,0.4,1.1,1.1,1.1,1.9h-1.4C210.5,228.2,210.1,227.2,209.2,227.2z"
	/>
<path class="st5" d="M210.6,232.2h-4.3v-1.4h4.3v-1.1h0.9v1.1h1.4v1.4h-1.4v1.1h-0.9V232.2z"/>
<path class="st5" d="M206.3,238.2l0.8-0.1c-0.6-0.4-1-1.2-1-1.9c0.2-1.5,1.5-2.6,3-2.4c1.3,0.1,2.3,1.2,2.4,2.4c0,0.8-0.4,1.5-1,1.9
	l0.8,0.1v1.3h-5.2L206.3,238.2z M210.6,236.7c0.1-0.9-0.5-1.8-1.5-2c-0.9-0.1-1.8,0.5-2,1.5c-0.1,0.9,0.5,1.8,1.5,2
	c0.1,0,0.2,0,0.2,0c0.8,0.1,1.6-0.5,1.7-1.3C210.6,236.8,210.6,236.7,210.6,236.7z"/>
<path class="st5" d="M206.2,244.1c0-0.8,0.4-1.5,1-1.9h-0.8v-1.3h7.2v1.4h-2.7c0.5,0.5,0.9,1.1,0.9,1.8c-0.2,1.5-1.5,2.6-3,2.4
	C207.4,246.5,206.4,245.4,206.2,244.1L206.2,244.1z M210.6,243.7c0.1-0.9-0.5-1.8-1.5-1.9c-0.9-0.1-1.8,0.5-1.9,1.5
	c-0.1,0.9,0.5,1.8,1.5,1.9c0.1,0,0.2,0,0.2,0c0.8,0.1,1.6-0.5,1.7-1.3C210.6,243.8,210.6,243.7,210.6,243.7L210.6,243.7z"/>
<path class="st5" d="M206.3,247.6h7.2v1.4h-7.2V247.6z"/>
<path class="st5" d="M208.9,254.9v-3.5c-0.9-0.1-1.6,0.5-1.7,1.4c0,0.1,0,0.2,0,0.4c0,0.6,0.2,1.2,0.6,1.7h-1
	c-0.4-0.6-0.6-1.4-0.6-2.1c0.1-1.5,1.3-2.7,2.9-2.6c1.4,0.1,2.5,1.1,2.6,2.5c0.1,1.2-0.7,2.2-1.9,2.3c0,0-0.1,0-0.1,0
	C209.4,255,209.1,255,208.9,254.9z M210.8,252.7c0-0.6-0.5-1.2-1.1-1.2v2.2c0.5,0.1,1-0.2,1.1-0.7
	C210.8,252.9,210.8,252.8,210.8,252.7z"/>
<path class="st5" d="M210.6,260.5h-4.3v-1.4h4.3V258h0.9v1.1h1.4v1.4h-1.4v1.1h-0.9V260.5z"/>
<path class="st5" d="M206.1,265c0.1-1.5,1.4-2.7,2.9-2.7c1.5,0.1,2.7,1.4,2.7,2.9c-0.1,1.5-1.3,2.7-2.8,2.7c-1.5,0-2.8-1.3-2.8-2.8
	C206.1,265.1,206.1,265,206.1,265z M210.7,265c0.1-1-0.5-1.9-1.5-2s-1.9,0.5-2,1.5s0.5,1.9,1.5,2c0.1,0,0.2,0,0.2,0
	c0.9,0.1,1.7-0.5,1.8-1.4C210.7,265.1,210.7,265.1,210.7,265z"/>
<path class="st5" d="M209.2,272.7h-2.8v-1.4h5.2v1.3l-0.9,0.1c0.7,0.4,1.1,1.1,1.1,1.9h-1.4C210.5,273.7,210.1,272.7,209.2,272.7z"
	/>
<path class="st5" d="M208.9,280v-3.5c-0.9-0.1-1.6,0.6-1.7,1.4c0,0.1,0,0.2,0,0.4c0,0.6,0.2,1.2,0.6,1.7h-1
	c-0.4-0.6-0.6-1.4-0.6-2.1c0.1-1.5,1.3-2.7,2.9-2.6c1.4,0.1,2.5,1.1,2.6,2.5c0.1,1.2-0.7,2.2-1.9,2.3c0,0-0.1,0-0.1,0
	C209.4,280.1,209.1,280.1,208.9,280z M210.8,277.8c0-0.6-0.5-1.2-1.1-1.2v2.2c0.5,0.1,1-0.2,1.1-0.7
	C210.8,278,210.8,277.9,210.8,277.8L210.8,277.8z"/>
<path class="st5" d="M206.2,284.4c0-0.7,0.3-1.4,0.9-1.9h-3v-1.4h7.5v1.3l-0.8,0c0.6,0.4,1,1.2,1,1.9c-0.2,1.5-1.5,2.6-3,2.4
	C207.4,286.8,206.4,285.7,206.2,284.4L206.2,284.4z M210.6,284c0.1-0.9-0.5-1.8-1.5-1.9c-0.9-0.1-1.8,0.5-1.9,1.5s0.5,1.8,1.5,1.9
	c0.1,0,0.2,0,0.2,0c0.8,0.1,1.6-0.5,1.7-1.3C210.6,284.1,210.6,284,210.6,284z"/>
<path class="st5" d="M206.1,290.5c0.1-1.5,1.4-2.7,2.9-2.7c1.5,0.1,2.7,1.4,2.7,2.9c-0.1,1.5-1.3,2.7-2.8,2.7
	c-1.5,0-2.8-1.2-2.8-2.8C206.1,290.6,206.1,290.6,206.1,290.5z M210.7,290.5c0.1-1-0.5-1.9-1.5-2s-1.9,0.5-2,1.5s0.5,1.9,1.5,2
	c0.1,0,0.2,0,0.2,0c0.9,0.1,1.7-0.5,1.8-1.4C210.7,290.6,210.7,290.6,210.7,290.5z"/>
<path class="st5" d="M209.2,295.8h-2.8v-1.4h5.2v1.3l-0.9,0.1c0.7,0.4,1.1,1.1,1.1,1.9h-1.4C210.5,296.8,210.1,295.8,209.2,295.8z"
	/>
<path class="st5" d="M210.6,300.8h-4.3v-1.4h4.3v-1.1h0.9v1.1h1.4v1.4h-1.4v1.1h-0.9V300.8z"/>
<path d="M82,70h-1.5c0.6-2.1,1.5-4.1,2.7-6h-3.5v-1.2h5.1v0.7C83.5,65.5,82.6,67.7,82,70z"/>
<path d="M88.2,70.3c-1.7,0-3-1.4-3-3.8s1.3-3.8,3-3.8s2.9,1.4,2.9,3.8S89.9,70.3,88.2,70.3z M88.2,63.7c-0.9,0-1.5,0.9-1.5,2.7
	s0.6,2.7,1.5,2.7s1.5-0.9,1.5-2.7S89.1,63.7,88.2,63.7z"/>
<path d="M93.8,66.3c-1,0.1-1.8-0.7-1.9-1.7c-0.1-1,0.7-1.8,1.7-1.9c1-0.1,1.8,0.7,1.9,1.7c0,0,0,0.1,0,0.1
	C95.5,65.4,94.8,66.2,93.8,66.3C93.9,66.3,93.8,66.3,93.8,66.3z M93.8,63.4c-0.4,0-0.7,0.3-0.7,1c0,0.7,0.3,1.1,0.7,1.1
	s0.7-0.3,0.7-1.1C94.5,63.7,94.2,63.4,93.8,63.4z M93.6,70.3L93.2,70l4.6-7.4l0.4,0.2L93.6,70.3z M97.6,70.2c-1,0.1-1.8-0.7-1.9-1.7
	c-0.1-1,0.7-1.8,1.7-1.9c1-0.1,1.8,0.7,1.9,1.7c0,0,0,0.1,0,0.1c0.1,0.9-0.6,1.7-1.6,1.8C97.7,70.2,97.7,70.2,97.6,70.2L97.6,70.2z
	 M97.6,67.3c-0.4,0-0.7,0.3-0.7,1.1s0.3,1,0.7,1s0.7-0.3,0.7-1S98,67.3,97.6,67.3L97.6,67.3z"/>
<path d="M142.4,97.2c-1.1,0-2.7-0.6-2.7-3.4c0-2.6,1.1-4.2,3.2-4.2c0.6,0,1.2,0.2,1.7,0.5v1.1c-0.5-0.3-1-0.5-1.6-0.5
	c-1.1,0-1.9,0.6-1.9,2.5c0.4-0.5,1-0.8,1.7-0.8c1.2,0,2.2,1,2.2,2.2c0,0.1,0,0.2,0,0.2c0,1.4-1.1,2.5-2.5,2.5
	C142.5,97.2,142.4,97.2,142.4,97.2z M141.1,94.7c0,1,0.6,1.6,1.2,1.6c0.7,0,1.3-0.6,1.3-1.3c0-0.1,0-0.1,0-0.2
	c0-0.8-0.4-1.4-1.2-1.4C141.7,93.3,141.1,93.9,141.1,94.7C141.1,94.6,141.1,94.6,141.1,94.7z"/>
<path d="M148.9,97.2c-1.7,0-2.9-1.4-2.9-3.8s1.3-3.8,2.9-3.8s3,1.4,3,3.8S150.6,97.2,148.9,97.2z M148.9,90.7
	c-0.9,0-1.5,0.9-1.5,2.7s0.6,2.7,1.5,2.7s1.5-0.9,1.5-2.7S149.8,90.7,148.9,90.7z"/>
<path d="M154.5,93.2c-1,0.1-1.8-0.7-1.9-1.7c-0.1-1,0.7-1.8,1.7-1.9c1-0.1,1.8,0.7,1.9,1.7c0,0,0,0.1,0,0.1c0.1,0.9-0.6,1.7-1.6,1.8
	C154.6,93.2,154.5,93.2,154.5,93.2z M154.5,90.4c-0.4,0-0.7,0.3-0.7,1s0.3,1.1,0.7,1.1s0.7-0.3,0.7-1.1S154.9,90.4,154.5,90.4z
	 M154.3,97.2l-0.4-0.2l4.6-7.4l0.4,0.2L154.3,97.2z M158.3,97.1c-1,0.1-1.8-0.7-1.9-1.7c-0.1-1,0.7-1.8,1.7-1.9
	c1-0.1,1.8,0.7,1.9,1.7c0,0,0,0.1,0,0.1C160.1,96.3,159.4,97.1,158.3,97.1C158.4,97.1,158.4,97.1,158.3,97.1L158.3,97.1z
	 M158.3,94.3c-0.4,0-0.7,0.3-0.7,1s0.3,1,0.7,1s0.7-0.3,0.7-1S158.8,94.3,158.3,94.3L158.3,94.3z"/>
<path d="M203.2,125.5c-0.8,0-1.6-0.2-2.2-0.7v-1.2c0.5,0.5,1.2,0.9,2,0.9c0.8,0.1,1.4-0.5,1.5-1.3c0-0.1,0-0.1,0-0.2
	c0.1-0.7-0.4-1.3-1.1-1.3c-0.1,0-0.1,0-0.2,0c-0.5,0-1.1,0.3-1.3,0.8l-0.6-0.3v-4h4.3v1.1h-3.2v1.8c0.3-0.3,0.8-0.4,1.2-0.4
	c1.2-0.1,2.2,0.9,2.3,2.1c0,0.1,0,0.2,0,0.2c0,1.4-1.1,2.5-2.5,2.5C203.4,125.5,203.3,125.5,203.2,125.5z"/>
<path d="M209.8,125.5c-1.7,0-2.9-1.4-2.9-3.8s1.3-3.8,2.9-3.8s2.9,1.4,2.9,3.8S211.5,125.5,209.8,125.5z M209.8,119
	c-0.9,0-1.5,0.9-1.5,2.7s0.6,2.7,1.5,2.7s1.5-0.9,1.5-2.7S210.7,119,209.8,119L209.8,119z"/>
<path d="M215.4,121.5c-1,0.1-1.8-0.7-1.9-1.7c-0.1-1,0.7-1.8,1.7-1.9c1-0.1,1.8,0.7,1.9,1.7c0,0,0,0.1,0,0.1
	c0.1,0.9-0.6,1.7-1.6,1.8C215.5,121.5,215.4,121.5,215.4,121.5z M215.4,118.6c-0.4,0-0.7,0.3-0.7,1s0.3,1,0.7,1s0.7-0.3,0.7-1
	S215.8,118.6,215.4,118.6z M215.2,125.5l-0.4-0.2l4.6-7.4l0.4,0.2L215.2,125.5z M219.2,125.4c-1,0.1-1.8-0.7-1.9-1.7
	c-0.1-1,0.7-1.8,1.7-1.9c1-0.1,1.8,0.7,1.9,1.7c0,0,0,0.1,0,0.1c0.1,0.9-0.6,1.7-1.6,1.8C219.3,125.4,219.3,125.4,219.2,125.4
	L219.2,125.4z M219.2,122.6c-0.4,0-0.7,0.3-0.7,1s0.3,1.1,0.7,1.1s0.7-0.3,0.7-1.1S219.6,122.6,219.2,122.6L219.2,122.6z"/>
</svg>
