<svg xmlns="http://www.w3.org/2000/svg" viewBox="0 0 334.96 325.16"><defs><style>.cls-1{fill:#383938;}.cls-2{fill:#2a0f10;}.cls-3{fill:#bc4e4b;}.cls-4{fill:#0f0f59;}.cls-5{fill:#f07262;}.cls-6{fill:#1f191a;}.cls-7{fill:#e8e8e8;}</style></defs><title>Asset 48</title><g id="Layer_2" data-name="Layer 2"><g id="Layer_1-2" data-name="Layer 1"><rect class="cls-1" y="269.91" width="334.96" height="0.25"/><rect class="cls-1" y="215.04" width="334.96" height="0.25"/><rect class="cls-1" y="160.04" width="334.96" height="0.25"/><rect class="cls-1" y="105.04" width="334.96" height="0.25"/><rect class="cls-1" y="50.04" width="334.96" height="0.25"/><rect class="cls-2" x="74.33" y="79.3" width="30" height="245.22"/><rect class="cls-3" x="254.33" y="215.16" width="30" height="109.59"/><rect class="cls-4" x="134.33" y="159.86" width="30" height="164.66"/><rect class="cls-5" x="194.33" y="215.16" width="30" height="110"/><path class="cls-6" d="M3.53,4.49V5.4h-3V4.49H1.55V2.22a.85.85,0,0,1-.22.18A1.65,1.65,0,0,1,1,2.58a2.13,2.13,0,0,1-.35.14,1.47,1.47,0,0,1-.33,0V1.83a.82.82,0,0,0,.33-.09A2,2,0,0,0,1,1.54a2.36,2.36,0,0,0,.33-.24l.18-.18h1V4.49Z"/><path class="cls-6" d="M9.07,3.2a2.63,2.63,0,0,1-.14.91,2.12,2.12,0,0,1-.41.72,1.78,1.78,0,0,1-.61.48,1.81,1.81,0,0,1-.77.17,1.76,1.76,0,0,1-1.38-.65,2.12,2.12,0,0,1-.41-.72,2.63,2.63,0,0,1-.14-.91,2.67,2.67,0,0,1,.14-.91,2.12,2.12,0,0,1,.41-.72,1.76,1.76,0,0,1,.61-.47A1.65,1.65,0,0,1,7.14.92a1.68,1.68,0,0,1,.77.18,1.76,1.76,0,0,1,.61.47,2.12,2.12,0,0,1,.41.72A2.67,2.67,0,0,1,9.07,3.2Zm-1,0A2.38,2.38,0,0,0,8,2.65a1.32,1.32,0,0,0-.2-.43,1,1,0,0,0-.29-.28.75.75,0,0,0-.37-.09.79.79,0,0,0-.38.09,1,1,0,0,0-.29.28,1.3,1.3,0,0,0-.19.43,1.93,1.93,0,0,0-.07.55,1.93,1.93,0,0,0,.07.55,1.3,1.3,0,0,0,.19.43,1,1,0,0,0,.29.28.79.79,0,0,0,.38.09.75.75,0,0,0,.37-.09,1,1,0,0,0,.29-.28A1.32,1.32,0,0,0,8,3.75,2.38,2.38,0,0,0,8.06,3.2Z"/><path class="cls-6" d="M14.91,3.2a2.63,2.63,0,0,1-.15.91,2.1,2.1,0,0,1-.4.72,1.82,1.82,0,0,1-.62.48,1.76,1.76,0,0,1-.76.17,1.85,1.85,0,0,1-.78-.17,1.88,1.88,0,0,1-.61-.48,2.1,2.1,0,0,1-.4-.72A2.63,2.63,0,0,1,11,3.2a2.67,2.67,0,0,1,.15-.91,2.1,2.1,0,0,1,.4-.72,1.85,1.85,0,0,1,.61-.47A1.72,1.72,0,0,1,13,.92a1.64,1.64,0,0,1,.76.18,1.79,1.79,0,0,1,.62.47,2.1,2.1,0,0,1,.4.72A2.67,2.67,0,0,1,14.91,3.2Zm-1,0a1.93,1.93,0,0,0-.07-.55,1.3,1.3,0,0,0-.19-.43,1,1,0,0,0-.29-.28A.81.81,0,0,0,13,1.85a.79.79,0,0,0-.38.09,1,1,0,0,0-.3.28,1.55,1.55,0,0,0-.19.43,2.38,2.38,0,0,0-.06.55,2.38,2.38,0,0,0,.06.55,1.55,1.55,0,0,0,.19.43,1,1,0,0,0,.3.28.79.79,0,0,0,.38.09.81.81,0,0,0,.37-.09,1,1,0,0,0,.29-.28,1.3,1.3,0,0,0,.19-.43A1.93,1.93,0,0,0,13.9,3.2Z"/><path class="cls-6" d="M17.77,2.27a1.3,1.3,0,0,1-.49-.09,1.28,1.28,0,0,1-.39-.24,1,1,0,0,1-.26-.36,1,1,0,0,1-.1-.45,1,1,0,0,1,.1-.44,1,1,0,0,1,.26-.36,1.28,1.28,0,0,1,.39-.24A1.3,1.3,0,0,1,17.77,0a1.28,1.28,0,0,1,.48.09,1.17,1.17,0,0,1,.39.24,1.07,1.07,0,0,1,.27.36,1.13,1.13,0,0,1,.1.44,1.14,1.14,0,0,1-.1.45,1.07,1.07,0,0,1-.27.36,1.17,1.17,0,0,1-.39.24A1.28,1.28,0,0,1,17.77,2.27ZM17,5.05l2.11-2.47L21,0l.45.4-2,2.42-2,2.61Zm.82-3.28a.46.46,0,0,0,.2-.05.58.58,0,0,0,.17-.14.82.82,0,0,0,.12-.2.69.69,0,0,0,0-.25.63.63,0,0,0-.16-.44A.46.46,0,0,0,17.77.5a.37.37,0,0,0-.21.06.7.7,0,0,0-.17.13.56.56,0,0,0-.11.2.67.67,0,0,0,.11.69A.47.47,0,0,0,17.77,1.77Zm2.89,3.71a1.28,1.28,0,0,1-.48-.09,1.17,1.17,0,0,1-.39-.24,1.22,1.22,0,0,1-.27-.36,1.13,1.13,0,0,1-.09-.45,1,1,0,0,1,.09-.44,1.22,1.22,0,0,1,.27-.36,1,1,0,0,1,.39-.25,1.28,1.28,0,0,1,.48-.09,1.3,1.3,0,0,1,.49.09,1.14,1.14,0,0,1,.39.25,1.07,1.07,0,0,1,.27.36,1,1,0,0,1,.09.44,1.13,1.13,0,0,1-.09.45,1.07,1.07,0,0,1-.27.36,1.28,1.28,0,0,1-.39.24A1.3,1.3,0,0,1,20.66,5.48Zm0-.51a.36.36,0,0,0,.21,0A.55.55,0,0,0,21,4.78a.49.49,0,0,0,.11-.2.6.6,0,0,0,.05-.24.7.7,0,0,0-.05-.25.67.67,0,0,0-.12-.2.54.54,0,0,0-.16-.14.52.52,0,0,0-.21,0,.35.35,0,0,0-.2,0,.46.46,0,0,0-.17.14.56.56,0,0,0-.12.2.67.67,0,0,0,0,.24.64.64,0,0,0,.16.45A.47.47,0,0,0,20.66,5Z"/><path class="cls-6" d="M4.25,113.63a1.72,1.72,0,0,1-.15.72,1.74,1.74,0,0,1-.41.59,1.89,1.89,0,0,1-.62.4,2.15,2.15,0,0,1-.77.14,1.92,1.92,0,0,1-.81-.17,1.7,1.7,0,0,1-.62-.48,2.15,2.15,0,0,1-.39-.77,3.58,3.58,0,0,1-.13-1,5,5,0,0,1,.14-1.28,2.7,2.7,0,0,1,.41-.94,1.85,1.85,0,0,1,.65-.57,1.88,1.88,0,0,1,.86-.2,1.92,1.92,0,0,1,.92.22,1.87,1.87,0,0,1,.72.62l-.58.63a1.21,1.21,0,0,0-.46-.44,1.22,1.22,0,0,0-.62-.16,1,1,0,0,0-.8.4,1.89,1.89,0,0,0-.31,1.12,1.05,1.05,0,0,1,.44-.42,1.33,1.33,0,0,1,.67-.16,1.93,1.93,0,0,1,.73.13,1.86,1.86,0,0,1,.6.38,1.82,1.82,0,0,1,.39.56A1.7,1.7,0,0,1,4.25,113.63Zm-1.94,1a1,1,0,0,0,.38-.08.84.84,0,0,0,.31-.22,1,1,0,0,0,.21-.32.84.84,0,0,0,.08-.38.79.79,0,0,0-.08-.38,1,1,0,0,0-.52-.52,1,1,0,0,0-.38-.08,1,1,0,0,0-.7.29,1,1,0,0,0-.21.31.92.92,0,0,0-.07.38.84.84,0,0,0,.08.38,1,1,0,0,0,.21.32,1.16,1.16,0,0,0,.31.22A1,1,0,0,0,2.31,114.63Z"/><path class="cls-6" d="M10,113.21a2.67,2.67,0,0,1-.15.91,2.3,2.3,0,0,1-.4.72,1.79,1.79,0,0,1-.62.47,1.76,1.76,0,0,1-.76.17,1.79,1.79,0,0,1-1.39-.64,2.3,2.3,0,0,1-.4-.72,2.67,2.67,0,0,1-.15-.91,2.73,2.73,0,0,1,.15-.92,2.3,2.3,0,0,1,.4-.72,1.85,1.85,0,0,1,.61-.47,1.71,1.71,0,0,1,.78-.17,1.63,1.63,0,0,1,.76.17,1.79,1.79,0,0,1,.62.47,2.3,2.3,0,0,1,.4.72A2.73,2.73,0,0,1,10,113.21Zm-1,0a2.45,2.45,0,0,0-.07-.56,1.69,1.69,0,0,0-.19-.43.82.82,0,0,0-.29-.27.71.71,0,0,0-.37-.1.7.7,0,0,0-.38.1.85.85,0,0,0-.3.27,1.69,1.69,0,0,0-.19.43,2.45,2.45,0,0,0-.07.56,2.21,2.21,0,0,0,.07.54,1.55,1.55,0,0,0,.19.43,1,1,0,0,0,.3.28.8.8,0,0,0,.38.1.82.82,0,0,0,.37-.1,1,1,0,0,0,.29-.28,1.55,1.55,0,0,0,.19-.43A2.21,2.21,0,0,0,9,113.21Z"/><path class="cls-6" d="M12.89,112.28a1.25,1.25,0,0,1-.88-.34,1.22,1.22,0,0,1-.27-.36,1.08,1.08,0,0,1-.09-.44,1.13,1.13,0,0,1,.09-.45,1.22,1.22,0,0,1,.27-.36,1.28,1.28,0,0,1,.39-.24,1.3,1.3,0,0,1,.49-.09,1.3,1.3,0,0,1,.87.33,1.22,1.22,0,0,1,.27.36,1.13,1.13,0,0,1,.09.45,1.08,1.08,0,0,1-.09.44,1.22,1.22,0,0,1-.27.36,1.3,1.3,0,0,1-.39.25A1.28,1.28,0,0,1,12.89,112.28Zm-.82,2.77,2.11-2.47L16.13,110l.46.4-2.05,2.43-2,2.61Zm.82-3.28a.35.35,0,0,0,.2,0,.55.55,0,0,0,.17-.14.67.67,0,0,0,.12-.2,1,1,0,0,0,0-.24.64.64,0,0,0-.16-.45.49.49,0,0,0-.37-.18.36.36,0,0,0-.21,0,.55.55,0,0,0-.17.14.56.56,0,0,0-.12.2.86.86,0,0,0,0,.24.67.67,0,0,0,.16.45A.49.49,0,0,0,12.89,111.77Zm2.89,3.71a1.3,1.3,0,0,1-.49-.09,1.28,1.28,0,0,1-.39-.24,1.19,1.19,0,0,1-.26-.36,1,1,0,0,1-.1-.44,1,1,0,0,1,.1-.45,1.19,1.19,0,0,1,.26-.36,1.28,1.28,0,0,1,.39-.24,1.38,1.38,0,0,1,1,0,1.28,1.28,0,0,1,.39.24,1,1,0,0,1,.26.36,1,1,0,0,1,.1.45,1,1,0,0,1-.1.44,1,1,0,0,1-.26.36,1.28,1.28,0,0,1-.39.24A1.3,1.3,0,0,1,15.78,115.48Zm0-.5a.39.39,0,0,0,.21-.06.52.52,0,0,0,.16-.14.47.47,0,0,0,.12-.19.67.67,0,0,0,0-.24.75.75,0,0,0,0-.26.82.82,0,0,0-.12-.2.43.43,0,0,0-.17-.13.35.35,0,0,0-.2-.05.54.54,0,0,0-.21.05,1,1,0,0,0-.17.14.64.64,0,0,0-.11.2.69.69,0,0,0,0,.25.67.67,0,0,0,.15.44A.49.49,0,0,0,15.78,115Z"/><path class="cls-6" d="M.29,225.28a2.84,2.84,0,0,1,.05-.61,1.48,1.48,0,0,1,.18-.51,1.79,1.79,0,0,1,.36-.43,3.08,3.08,0,0,1,.58-.4L2,223a4,4,0,0,0,.39-.23.86.86,0,0,0,.24-.21.39.39,0,0,0,.08-.25.51.51,0,0,0-.18-.39A.73.73,0,0,0,2,221.8a.85.85,0,0,0-.33,0,1.08,1.08,0,0,0-.29.13l-.24.18a2,2,0,0,0-.19.22l-.65-.75a1.91,1.91,0,0,1,.28-.23,2.73,2.73,0,0,1,.42-.23,3.42,3.42,0,0,1,.54-.18,2.62,2.62,0,0,1,.64-.07,2.38,2.38,0,0,1,.68.09,1.58,1.58,0,0,1,.5.27,1,1,0,0,1,.32.4,1.27,1.27,0,0,1,.11.52,1,1,0,0,1-.1.46,1.36,1.36,0,0,1-.25.36,1.58,1.58,0,0,1-.32.27l-.34.21-.31.17-.34.22a1.5,1.5,0,0,0-.31.24,1,1,0,0,0-.22.24H3.9v.91Z"/><path class="cls-6" d="M9.7,223.08a2.67,2.67,0,0,1-.15.91,2.28,2.28,0,0,1-.4.72,1.76,1.76,0,0,1-.62.47,1.83,1.83,0,0,1-1.54,0,1.73,1.73,0,0,1-.61-.47A2.3,2.3,0,0,1,6,224a3,3,0,0,1,0-1.82,2.3,2.3,0,0,1,.41-.72A2,2,0,0,1,7,221a1.83,1.83,0,0,1,1.54,0,2.07,2.07,0,0,1,.62.48,2.28,2.28,0,0,1,.4.72A2.67,2.67,0,0,1,9.7,223.08Zm-1,0a2.36,2.36,0,0,0-.07-.55,1.55,1.55,0,0,0-.19-.43,1,1,0,0,0-.3-.28.76.76,0,0,0-.37-.1.83.83,0,0,0-.38.1,1,1,0,0,0-.29.28,1.55,1.55,0,0,0-.19.43,2.2,2.2,0,0,0,0,1.1,1.69,1.69,0,0,0,.19.43.82.82,0,0,0,.29.27.72.72,0,0,0,.38.1.66.66,0,0,0,.37-.1.85.85,0,0,0,.3-.27,1.69,1.69,0,0,0,.19-.43A2.36,2.36,0,0,0,8.69,223.08Z"/><path class="cls-6" d="M15.31,225.28l-.42-.44a2.57,2.57,0,0,1-.71.38,2.38,2.38,0,0,1-.79.13,2.19,2.19,0,0,1-.75-.12,1.67,1.67,0,0,1-.56-.35,1.36,1.36,0,0,1-.36-.5,1.46,1.46,0,0,1-.13-.61,1.39,1.39,0,0,1,.07-.46,1.28,1.28,0,0,1,.21-.38,2.35,2.35,0,0,1,.3-.33,3.44,3.44,0,0,1,.36-.28,2.86,2.86,0,0,1-.46-.62,1.13,1.13,0,0,1-.13-.54,1.27,1.27,0,0,1,.11-.52,1.39,1.39,0,0,1,.31-.41,1.36,1.36,0,0,1,.46-.25,1.81,1.81,0,0,1,.58-.09,1.9,1.9,0,0,1,.54.07,1.35,1.35,0,0,1,.45.22,1.12,1.12,0,0,1,.31.37,1.07,1.07,0,0,1,.12.51,1.19,1.19,0,0,1-.26.76,3,3,0,0,1-.65.62l1,1.06a2.13,2.13,0,0,0,.18-.52,3,3,0,0,0,.06-.62H16a4.06,4.06,0,0,1-.13,1,3.29,3.29,0,0,1-.33.79l1.1,1.16Zm-1.83-.71a1.42,1.42,0,0,0,.87-.31L13.12,223a1.91,1.91,0,0,0-.41.38.71.71,0,0,0-.15.44.8.8,0,0,0,.06.3.79.79,0,0,0,.19.25,1.11,1.11,0,0,0,.3.17A1.16,1.16,0,0,0,13.48,224.57Zm-.62-3.44a.27.27,0,0,0,0,.13.61.61,0,0,0,.07.14,1.77,1.77,0,0,0,.14.17l.22.24a2.57,2.57,0,0,0,.44-.36.55.55,0,0,0,.15-.37.42.42,0,0,0-.14-.33.52.52,0,0,0-.36-.12.56.56,0,0,0-.39.14A.49.49,0,0,0,12.86,221.13Z"/><path class="cls-6" d="M4.2,58.83a1.44,1.44,0,0,1-.15.67,1.66,1.66,0,0,1-.42.52,2,2,0,0,1-.62.34,2.67,2.67,0,0,1-.75.11,2.27,2.27,0,0,1-.75-.12A1.88,1.88,0,0,1,.89,60a1.76,1.76,0,0,1-.41-.53,1.54,1.54,0,0,1-.15-.68,1.3,1.3,0,0,1,.07-.41A1.68,1.68,0,0,1,.6,58a1.44,1.44,0,0,1,.27-.28,1.32,1.32,0,0,1,.29-.19,1.41,1.41,0,0,1-.47-.41,1,1,0,0,1-.19-.59,1.24,1.24,0,0,1,.16-.64,1.41,1.41,0,0,1,.42-.46,1.89,1.89,0,0,1,.57-.28,1.87,1.87,0,0,1,.62-.1,2.2,2.2,0,0,1,.61.09,1.86,1.86,0,0,1,.58.29,1.43,1.43,0,0,1,.42.46,1.18,1.18,0,0,1,.16.63.81.81,0,0,1,0,.31.89.89,0,0,1-.15.29,1.19,1.19,0,0,1-.22.23,1.27,1.27,0,0,1-.27.18,1.55,1.55,0,0,1,.32.2,1.5,1.5,0,0,1,.27.29,1.31,1.31,0,0,1,.19.35A1.21,1.21,0,0,1,4.2,58.83Zm-1-.06a.77.77,0,0,0-.08-.34.72.72,0,0,0-.21-.25A.8.8,0,0,0,2.6,58,1,1,0,0,0,2.26,58a1,1,0,0,0-.35.05,1,1,0,0,0-.29.16.92.92,0,0,0-.19.25.72.72,0,0,0,0,.66.82.82,0,0,0,.21.25.9.9,0,0,0,.29.16.92.92,0,0,0,.68,0,.9.9,0,0,0,.29-.16.72.72,0,0,0,.21-.25A.83.83,0,0,0,3.18,58.77ZM1.52,56.59a.6.6,0,0,0,.06.27.86.86,0,0,0,.18.2.9.9,0,0,0,.24.12,1.26,1.26,0,0,0,.27,0,1.27,1.27,0,0,0,.26,0,.7.7,0,0,0,.24-.13.7.7,0,0,0,.18-.2A.54.54,0,0,0,3,56.58a.53.53,0,0,0-.23-.44A.84.84,0,0,0,2.26,56a.86.86,0,0,0-.53.17A.54.54,0,0,0,1.52,56.59Z"/><path class="cls-6" d="M10,58.21a2.94,2.94,0,0,1-.14.91,2.3,2.3,0,0,1-.41.72,1.79,1.79,0,0,1-1.38.64,1.77,1.77,0,0,1-.77-.17,1.89,1.89,0,0,1-.62-.47,2.28,2.28,0,0,1-.4-.72,2.67,2.67,0,0,1-.15-.91,2.63,2.63,0,0,1,.15-.91,2.28,2.28,0,0,1,.4-.72,1.92,1.92,0,0,1,.62-.48,1.77,1.77,0,0,1,.77-.17,1.84,1.84,0,0,1,.77.17,1.88,1.88,0,0,1,.61.48,2.3,2.3,0,0,1,.41.72A2.9,2.9,0,0,1,10,58.21Zm-1,0a1.88,1.88,0,0,0-.07-.55,1.3,1.3,0,0,0-.19-.43A.86.86,0,0,0,8.45,57a.69.69,0,0,0-.37-.1.7.7,0,0,0-.38.1.86.86,0,0,0-.29.28,1.13,1.13,0,0,0-.19.43,1.88,1.88,0,0,0-.07.55,1.81,1.81,0,0,0,.07.54,1.13,1.13,0,0,0,.19.43.86.86,0,0,0,.29.28.7.7,0,0,0,.38.1.69.69,0,0,0,.37-.1.86.86,0,0,0,.29-.28,1.3,1.3,0,0,0,.19-.43A1.81,1.81,0,0,0,9,58.21Z"/><path class="cls-6" d="M12.87,57.28a1.33,1.33,0,0,1-.49-.09,1.14,1.14,0,0,1-.39-.25,1.19,1.19,0,0,1-.26-.36,1,1,0,0,1,0-.88,1.37,1.37,0,0,1,.26-.37,1.49,1.49,0,0,1,.39-.23,1.34,1.34,0,0,1,.49-.1,1.29,1.29,0,0,1,.48.1,1.4,1.4,0,0,1,.4.23,1.18,1.18,0,0,1,.26.37,1,1,0,0,1,0,.88,1,1,0,0,1-.26.36,1.09,1.09,0,0,1-.4.25A1.28,1.28,0,0,1,12.87,57.28Zm-.82,2.77,2.12-2.47,2-2.56.46.4-2,2.43-2,2.61Zm.82-3.27a.39.39,0,0,0,.21-.06.6.6,0,0,0,.28-.34.67.67,0,0,0,0-.24.68.68,0,0,0-.15-.45.49.49,0,0,0-.38-.18.54.54,0,0,0-.21.05.7.7,0,0,0-.16.14.67.67,0,0,0-.12.2.61.61,0,0,0,0,.24.67.67,0,0,0,.16.45A.48.48,0,0,0,12.87,56.78Zm2.9,3.7a1.3,1.3,0,0,1-.49-.09,1.28,1.28,0,0,1-.39-.24,1,1,0,0,1-.26-.36.92.92,0,0,1-.1-.44,1,1,0,0,1,.1-.45,1,1,0,0,1,.26-.36,1.28,1.28,0,0,1,.39-.24,1.3,1.3,0,0,1,.49-.09,1.28,1.28,0,0,1,.48.09,1.47,1.47,0,0,1,.4.24,1,1,0,0,1,.26.36,1.13,1.13,0,0,1,.09.45,1.06,1.06,0,0,1-.35.8,1.47,1.47,0,0,1-.4.24A1.28,1.28,0,0,1,15.77,60.48Zm0-.5a.36.36,0,0,0,.2-.06.7.7,0,0,0,.17-.13.82.82,0,0,0,.12-.2,1,1,0,0,0,0-.24.66.66,0,0,0-.05-.25,1,1,0,0,0-.11-.21.7.7,0,0,0-.17-.13.49.49,0,0,0-.2,0,.46.46,0,0,0-.21,0,.75.75,0,0,0-.17.14.82.82,0,0,0-.12.2,1,1,0,0,0,0,.25.68.68,0,0,0,.16.44A.47.47,0,0,0,15.77,60Z"/><path class="cls-6" d="M2.34,171.36v-1.12H.15v-.89l2.51-3.22h.69v3.21H4v.9H3.35v1.12Zm-1.19-2h1.3v-1.69Z"/><path class="cls-6" d="M9.7,168.21a2.67,2.67,0,0,1-.15.91,2.28,2.28,0,0,1-.4.72,1.89,1.89,0,0,1-.62.47,1.83,1.83,0,0,1-1.54,0,1.85,1.85,0,0,1-.61-.47,2.3,2.3,0,0,1-.41-.72,3,3,0,0,1,0-1.82,2.3,2.3,0,0,1,.41-.72A2,2,0,0,1,7,166.1a1.83,1.83,0,0,1,1.54,0,2.07,2.07,0,0,1,.62.48,2.28,2.28,0,0,1,.4.72A2.67,2.67,0,0,1,9.7,168.21Zm-1,0a2.36,2.36,0,0,0-.07-.55,1.55,1.55,0,0,0-.19-.43,1,1,0,0,0-.3-.28.76.76,0,0,0-.37-.1.83.83,0,0,0-.38.1,1,1,0,0,0-.29.28,1.55,1.55,0,0,0-.19.43,2.2,2.2,0,0,0,0,1.1,1.69,1.69,0,0,0,.19.43.82.82,0,0,0,.29.27.72.72,0,0,0,.38.1.66.66,0,0,0,.37-.1.85.85,0,0,0,.3-.27,1.69,1.69,0,0,0,.19-.43A2.36,2.36,0,0,0,8.69,168.21Z"/><path class="cls-6" d="M12.56,167.28a1.3,1.3,0,0,1-.87-.33,1.54,1.54,0,0,1-.27-.36,1.13,1.13,0,0,1-.09-.45,1.12,1.12,0,0,1,.09-.44,1.22,1.22,0,0,1,.27-.36,1.3,1.3,0,0,1,.87-.33,1.37,1.37,0,0,1,.49.09,1.28,1.28,0,0,1,.39.24,1,1,0,0,1,.26.36,1,1,0,0,1,.1.44,1,1,0,0,1-.1.45,1.15,1.15,0,0,1-.65.6A1.37,1.37,0,0,1,12.56,167.28Zm-.81,2.78,2.11-2.47,2-2.57.46.41-2,2.42-2,2.61Zm.81-3.28a.46.46,0,0,0,.21-.05l.17-.14a.53.53,0,0,0,.11-.21.6.6,0,0,0,0-.24.73.73,0,0,0-.16-.45.49.49,0,0,0-.38-.18.46.46,0,0,0-.2.05.58.58,0,0,0-.17.14.82.82,0,0,0-.12.2.67.67,0,0,0,0,.24.64.64,0,0,0,.16.45A.46.46,0,0,0,12.56,166.78Zm2.9,3.7a1.3,1.3,0,0,1-.49-.09,1.28,1.28,0,0,1-.39-.24,1.1,1.1,0,0,1-.26-.35,1.06,1.06,0,0,1,0-.9,1.15,1.15,0,0,1,.65-.6,1.3,1.3,0,0,1,.49-.09,1.33,1.33,0,0,1,.49.09,1.15,1.15,0,0,1,.65.6,1.06,1.06,0,0,1,0,.9,1.1,1.1,0,0,1-.26.35,1.28,1.28,0,0,1-.39.24A1.33,1.33,0,0,1,15.46,170.48Zm0-.5a.46.46,0,0,0,.2,0,.58.58,0,0,0,.17-.14.67.67,0,0,0,.12-.2.61.61,0,0,0,0-.24.69.69,0,0,0,0-.25.56.56,0,0,0-.12-.2.48.48,0,0,0-.37-.19.37.37,0,0,0-.21.06.7.7,0,0,0-.17.13.53.53,0,0,0-.11.21.64.64,0,0,0,0,.24.7.7,0,0,0,.15.45A.49.49,0,0,0,15.46,170Z"/><path class="cls-6" d="M3.53,279.38v.9h-3v-.9H1.55V277.1a1.11,1.11,0,0,1-.22.19,2.4,2.4,0,0,1-.32.17,2.13,2.13,0,0,1-.35.14,1.47,1.47,0,0,1-.33,0v-.94a1,1,0,0,0,.33-.08,2.82,2.82,0,0,0,.38-.21,2.36,2.36,0,0,0,.33-.24.75.75,0,0,0,.18-.18h1v3.38Z"/><path class="cls-6" d="M9.07,278.09a2.67,2.67,0,0,1-.14.91,2.32,2.32,0,0,1-.41.72,1.76,1.76,0,0,1-.61.47,1.81,1.81,0,0,1-.77.17,1.77,1.77,0,0,1-.77-.17,1.76,1.76,0,0,1-.61-.47,2.32,2.32,0,0,1-.41-.72,2.67,2.67,0,0,1-.14-.91,2.73,2.73,0,0,1,.14-.92,2.32,2.32,0,0,1,.41-.72,1.76,1.76,0,0,1,.61-.47,1.64,1.64,0,0,1,.77-.17,1.67,1.67,0,0,1,.77.17,1.76,1.76,0,0,1,.61.47,2.32,2.32,0,0,1,.41.72A2.73,2.73,0,0,1,9.07,278.09Zm-1,0a2.47,2.47,0,0,0-.06-.56,1.42,1.42,0,0,0-.2-.43.82.82,0,0,0-.29-.27.66.66,0,0,0-.37-.1.7.7,0,0,0-.38.1.82.82,0,0,0-.29.27,1.4,1.4,0,0,0-.19.43,2,2,0,0,0-.07.56,1.81,1.81,0,0,0,.07.54,1.3,1.3,0,0,0,.19.43,1,1,0,0,0,.29.28.8.8,0,0,0,.38.1.76.76,0,0,0,.37-.1,1,1,0,0,0,.29-.28,1.32,1.32,0,0,0,.2-.43A2.23,2.23,0,0,0,8.06,278.09Z"/><path class="cls-6" d="M11.93,277.16a1.28,1.28,0,0,1-.48-.09,1.3,1.3,0,0,1-.39-.25,1.22,1.22,0,0,1-.27-.36,1.08,1.08,0,0,1-.09-.44,1.13,1.13,0,0,1,.09-.45,1.22,1.22,0,0,1,.27-.36,1.3,1.3,0,0,1,.87-.33,1.37,1.37,0,0,1,.49.09,1.28,1.28,0,0,1,.39.24,1,1,0,0,1,.26.36,1,1,0,0,1,.1.45,1,1,0,0,1-.1.44,1,1,0,0,1-.26.36,1.3,1.3,0,0,1-.39.25A1.37,1.37,0,0,1,11.93,277.16Zm-.81,2.77,2.11-2.47,1.95-2.56.46.4-2.05,2.43-2,2.61Zm.81-3.28a.36.36,0,0,0,.21,0,.55.55,0,0,0,.17-.14.49.49,0,0,0,.11-.2.67.67,0,0,0-.11-.69.49.49,0,0,0-.38-.18.35.35,0,0,0-.2.05.46.46,0,0,0-.17.14.56.56,0,0,0-.12.2.61.61,0,0,0,0,.24.67.67,0,0,0,.16.45A.47.47,0,0,0,11.93,276.65Zm2.9,3.71a1.3,1.3,0,0,1-.49-.09A1.28,1.28,0,0,1,14,280a1,1,0,0,1-.26-.36,1,1,0,0,1-.1-.44,1,1,0,0,1,.1-.45,1,1,0,0,1,.26-.36,1.28,1.28,0,0,1,.39-.24,1.3,1.3,0,0,1,.49-.09,1.24,1.24,0,0,1,.48.09,1.22,1.22,0,0,1,.4.24,1,1,0,0,1,.26.36,1.13,1.13,0,0,1,.09.45,1.08,1.08,0,0,1-.09.44,1,1,0,0,1-.26.36,1.22,1.22,0,0,1-.4.24A1.24,1.24,0,0,1,14.83,280.36Zm0-.5a.36.36,0,0,0,.2-.06.46.46,0,0,0,.17-.14.62.62,0,0,0,.12-.19.67.67,0,0,0,0-.24.58.58,0,0,0,0-.26.56.56,0,0,0-.11-.2.43.43,0,0,0-.17-.13.35.35,0,0,0-.2-.05.46.46,0,0,0-.21.05.75.75,0,0,0-.17.14.49.49,0,0,0-.11.2.69.69,0,0,0,0,.25.67.67,0,0,0,.15.44A.5.5,0,0,0,14.83,279.86Z"/><path class="cls-1" d="M104.33,79.16h-30v-25h30Zm-29.75-.25h29.5V54.41H74.58Z"/><path class="cls-1" d="M164.33,160.17h-30v-25h30Zm-29.75-.25h29.5v-24.5h-29.5Z"/><path class="cls-1" d="M224.33,214.77h-30v-25h30Zm-29.75-.25h29.5V190h-29.5Z"/><path class="cls-1" d="M284.33,214.77h-30v-25h30Zm-29.75-.25h29.5V190h-29.5Z"/><path class="cls-7" d="M86.36,241.61l1-.06a2.23,2.23,0,0,1-1.11-1.92c0-1.38,1-1.9,2.25-1.9h3.08v1.4H88.67c-1,0-1.34.33-1.34,1a1.43,1.43,0,0,0,1.32,1.38h2.89v1.39H86.36Z"/><path class="cls-7" d="M86.19,246a4.12,4.12,0,0,1,.59-2.08l1,.23a3.47,3.47,0,0,0-.58,1.82c0,.55.17.94.6.94s.5-.4.67-1.11c.28-1.27.95-1.72,1.68-1.72s1.58.63,1.58,2a4,4,0,0,1-.46,1.76l-.91-.23a3,3,0,0,0,.43-1.5c0-.56-.2-.84-.51-.84s-.5.36-.63.91c-.29,1.37-.93,1.92-1.62,1.92C86.87,248.11,86.19,247.3,86.19,246Z"/><path class="cls-7" d="M88.91,253.67v-3.46A1.56,1.56,0,0,0,87.22,252a2.8,2.8,0,0,0,.61,1.68h-1a3.46,3.46,0,0,1-.62-2.11,2.74,2.74,0,0,1,5.47-.1,2.1,2.1,0,0,1-2.05,2.3A3.17,3.17,0,0,1,88.91,253.67Zm1.88-2.19a1.18,1.18,0,0,0-1.13-1.21v2.22A.93.93,0,0,0,90.79,251.48Z"/><path class="cls-7" d="M86.36,264.38h2.91c.94,0,1.3-.25,1.3-.89a1.31,1.31,0,0,0-1.32-1.27H86.36v-1.39h2.91c.94,0,1.3-.24,1.3-.89a1.31,1.31,0,0,0-1.32-1.27H86.36v-1.39h5.18v1.27l-1,.06a2.12,2.12,0,0,1,1.1,1.83,1.53,1.53,0,0,1-1.16,1.65A2.28,2.28,0,0,1,91.68,264c0,1.38-1,1.77-2.24,1.77H86.36Z"/><path class="cls-7" d="M88.91,271.68v-3.45A1.55,1.55,0,0,0,87.22,270a2.78,2.78,0,0,0,.61,1.68h-1a3.44,3.44,0,0,1-.62-2.11,2.74,2.74,0,0,1,5.47-.1,2.1,2.1,0,0,1-2.05,2.3A3.17,3.17,0,0,1,88.91,271.68Zm1.88-2.18a1.17,1.17,0,0,0-1.13-1.21v2.21A.92.92,0,0,0,90.79,269.5Z"/><path class="cls-7" d="M86.36,280h2.91c.94,0,1.3-.25,1.3-.89a1.31,1.31,0,0,0-1.32-1.27H86.36v-1.39h2.91c.94,0,1.3-.24,1.3-.89a1.31,1.31,0,0,0-1.32-1.27H86.36v-1.39h5.18v1.27l-1,.06a2.11,2.11,0,0,1,1.1,1.82,1.53,1.53,0,0,1-1.16,1.66,2.28,2.28,0,0,1,1.16,1.91c0,1.38-1,1.77-2.24,1.77H86.36Z"/><path class="cls-7" d="M86.17,285.36a2.78,2.78,0,1,1,2.78,2.9A2.78,2.78,0,0,1,86.17,285.36Zm4.54,0A1.78,1.78,0,1,0,89,286.9,1.58,1.58,0,0,0,90.71,285.36Z"/><path class="cls-7" d="M89.19,290.69H86.36V289.3h5.18v1.27l-1,.06a2.17,2.17,0,0,1,1.09,1.93H90.33C90.55,291.61,90.08,290.69,89.19,290.69Z"/><path class="cls-7" d="M84,295.25v-1.34l2.63,1.15L91.54,293v1.36l-3.47,1.43,3.47,1.42v1.31Z"/><path class="cls-7" d="M146.3,232.33h2.87c1,0,1.34-.35,1.34-1a1.43,1.43,0,0,0-1.32-1.38H146.3v-1.39h5.18v1.27l-1,.06a2.21,2.21,0,0,1,1.1,1.92c0,1.38-1,1.89-2.24,1.89H146.3Z"/><path class="cls-7" d="M146.11,237.66a2.78,2.78,0,1,1,2.78,2.9A2.78,2.78,0,0,1,146.11,237.66Zm4.54,0a1.78,1.78,0,1,0-1.76,1.54A1.58,1.58,0,0,0,150.65,237.66Z"/><path class="cls-7" d="M150.57,243.58H146.3v-1.39h4.27v-1.1h.91v1.1h1.42v1.39h-1.42v1.09h-.91Z"/><path class="cls-7" d="M148.85,250.08v-3.45a1.55,1.55,0,0,0-1.69,1.76,2.84,2.84,0,0,0,.61,1.68h-1a3.44,3.44,0,0,1-.61-2.11,2.73,2.73,0,0,1,5.46-.1,2.1,2.1,0,0,1-2.05,2.3A3.17,3.17,0,0,1,148.85,250.08Zm1.89-2.18a1.18,1.18,0,0,0-1.14-1.21v2.21A.93.93,0,0,0,150.74,247.9Z"/><path class="cls-7" d="M146.11,256.27a2.78,2.78,0,1,1,2.78,2.9A2.78,2.78,0,0,1,146.11,256.27Zm4.54,0a1.77,1.77,0,0,0-3.52,0,1.78,1.78,0,0,0,3.52,0Z"/><path class="cls-7" d="M146.3,264h2.87c1,0,1.34-.34,1.34-1a1.43,1.43,0,0,0-1.32-1.38H146.3v-1.39h5.18v1.27l-1,.06a2.21,2.21,0,0,1,1.1,1.92c0,1.38-1,1.9-2.24,1.9H146.3Z"/><path class="cls-7" d="M146.16,272.32a2.32,2.32,0,0,1,.85-1.85h-3v-1.39h7.52v1.26l-.83,0a2.35,2.35,0,0,1,1,1.94,2.75,2.75,0,0,1-5.46,0Zm4.43-.44a1.72,1.72,0,1,0-1.7,1.48A1.52,1.52,0,0,0,150.59,271.88Z"/><path class="cls-7" d="M146.3,279.93l.83,0a2.33,2.33,0,0,1-1-1.93,2.75,2.75,0,0,1,5.46,0,2.33,2.33,0,0,1-1,1.93l.83,0v1.26H146.3Zm4.29-1.54a1.72,1.72,0,1,0-1.7,1.47A1.52,1.52,0,0,0,150.59,278.39Z"/><path class="cls-7" d="M146.16,285.8A2.32,2.32,0,0,1,147,284h-3v-1.39h7.52v1.26l-.83,0a2.33,2.33,0,0,1,1,1.93,2.75,2.75,0,0,1-5.46,0Zm4.43-.43a1.72,1.72,0,1,0-1.7,1.48A1.52,1.52,0,0,0,150.59,285.37Z"/><path class="cls-7" d="M148.85,293.86V290.4a1.55,1.55,0,0,0-1.69,1.76,2.82,2.82,0,0,0,.61,1.68h-1a3.41,3.41,0,0,1-.61-2.11,2.73,2.73,0,0,1,5.46-.09,2.1,2.1,0,0,1-2.05,2.3A3.86,3.86,0,0,1,148.85,293.86Zm1.89-2.19a1.19,1.19,0,0,0-1.14-1.21v2.22A.94.94,0,0,0,150.74,291.67Z"/><path class="cls-7" d="M149.13,296.5H146.3v-1.39h5.18v1.27l-.95.06a2.17,2.17,0,0,1,1.09,1.93h-1.35C150.5,297.42,150,296.5,149.13,296.5Z"/><path class="cls-7" d="M206.33,248.81h2.92c.93,0,1.29-.26,1.29-.89a1.3,1.3,0,0,0-1.32-1.27h-2.89v-1.39h2.92c.93,0,1.29-.24,1.29-.89a1.3,1.3,0,0,0-1.32-1.27h-2.89v-1.39h5.18V243l-.95.06a2.11,2.11,0,0,1,1.1,1.82,1.55,1.55,0,0,1-1.16,1.66,2.26,2.26,0,0,1,1.16,1.9c0,1.38-1,1.78-2.24,1.78h-3.09Z"/><path class="cls-7" d="M206.33,255.67l.83,0a2.36,2.36,0,0,1-1-1.93,2.75,2.75,0,0,1,5.47,0,2.36,2.36,0,0,1-1,1.93l.82,0v1.26h-5.18Zm4.3-1.55a1.72,1.72,0,1,0-1.71,1.48A1.53,1.53,0,0,0,210.63,254.12Z"/><path class="cls-7" d="M206.33,261.91l2.68-2.22h-2.68V258.3h7.2v1.39h-4.22l2.2,2.2v1.51l-2.3-2.36-2.88,2.46Z"/><path class="cls-7" d="M208.89,268.56v-3.45a1.55,1.55,0,0,0-1.69,1.76,2.78,2.78,0,0,0,.61,1.68h-1a3.5,3.5,0,0,1-.61-2.11,2.74,2.74,0,0,1,5.47-.1,2.1,2.1,0,0,1-2,2.3A3.17,3.17,0,0,1,208.89,268.56Zm1.88-2.18a1.17,1.17,0,0,0-1.14-1.21v2.21A.93.93,0,0,0,210.77,266.38Z"/><path class="cls-7" d="M206.19,274.62a2.74,2.74,0,0,1,5.47,0,3.16,3.16,0,0,1-.52,1.86h-1.08a2.31,2.31,0,0,0,.54-1.56,1.68,1.68,0,0,0-3.35,0,2.23,2.23,0,0,0,.55,1.56h-1.09A3.09,3.09,0,0,1,206.19,274.62Z"/><path class="cls-7" d="M206.33,281.32h2.87c1,0,1.34-.35,1.34-1a1.43,1.43,0,0,0-1.32-1.38h-2.89v-1.39h7.2V279h-2.88a2.39,2.39,0,0,1,1,1.86c0,1.38-1,1.9-2.24,1.9h-3.09Z"/><path class="cls-7" d="M206.33,288.18l.83-.05a2.36,2.36,0,0,1-1-1.93,2.75,2.75,0,0,1,5.47,0,2.36,2.36,0,0,1-1,1.93l.82.05v1.26h-5.18Zm4.3-1.55a1.72,1.72,0,1,0-1.71,1.48A1.53,1.53,0,0,0,210.63,286.63Z"/><path class="cls-7" d="M209.16,292.2h-2.83v-1.39h5.18v1.27l-.94.06a2.18,2.18,0,0,1,1.09,1.93H210.3C210.53,293.12,210.05,292.2,209.16,292.2Z"/><path class="cls-7" d="M210.6,297.12h-4.27v-1.39h4.27v-1.09h.91v1.09h1.42v1.39h-1.42v1.09h-.91Z"/><path class="cls-7" d="M264.07,247.34a5,5,0,0,1,.61-2.27h1.07a3.89,3.89,0,0,0-.67,2.25c0,.86.5,1.57,1.81,1.57h.33a2.35,2.35,0,0,1-.85-1.85,2.75,2.75,0,0,1,5.47,0,2.35,2.35,0,0,1-1,1.93l.83.05v1.26H267A2.64,2.64,0,0,1,264.07,247.34Zm6.74.14a1.72,1.72,0,1,0-1.7,1.47A1.53,1.53,0,0,0,270.81,247.48Z"/><path class="cls-7" d="M266.52,251.65h5.18v1.4h-5.18Zm6.05,0h1.14v1.4h-1.14Z"/><path class="cls-7" d="M266.52,257v-1l5.18-2.27v1.37l-3.41,1.43,3.41,1.41v1.32Z"/><path class="cls-7" d="M269.07,264.31v-3.45a1.55,1.55,0,0,0-1.69,1.76,2.78,2.78,0,0,0,.61,1.68h-1a3.5,3.5,0,0,1-.61-2.11,2.74,2.74,0,0,1,5.47-.1,2.1,2.1,0,0,1-2,2.3A3.17,3.17,0,0,1,269.07,264.31Zm1.88-2.18a1.17,1.17,0,0,0-1.14-1.21v2.21A.92.92,0,0,0,271,262.13Z"/><path class="cls-7" d="M266.37,271.16a2.35,2.35,0,0,1,.85-1.84h-3v-1.4h7.52v1.26l-.83.05a2.36,2.36,0,0,1,1,1.93,2.75,2.75,0,0,1-5.47,0Zm4.44-.43a1.72,1.72,0,1,0-1.7,1.48A1.53,1.53,0,0,0,270.81,270.73Z"/><path class="cls-7" d="M266.32,277.25a2.79,2.79,0,1,1,2.79,2.9A2.8,2.8,0,0,1,266.32,277.25Zm4.55,0a1.78,1.78,0,1,0-1.76,1.53A1.58,1.58,0,0,0,270.87,277.25Z"/><path class="cls-7" d="M266.52,281.18h5.18v1.4h-5.18Zm6.05,0h1.14v1.4h-1.14Z"/><path class="cls-7" d="M266.52,287.7h2.86c1,0,1.35-.35,1.35-1a1.43,1.43,0,0,0-1.32-1.38h-2.89v-1.4h5.18v1.28l-1,.06a2.18,2.18,0,0,1,1.1,1.91c0,1.38-1,1.9-2.24,1.9h-3.08Z"/><path class="cls-7" d="M270.79,292.43h-4.27V291h4.27v-1.1h.91V291h1.41v1.39H271.7v1.09h-.91Z"/><path class="cls-7" d="M266.35,296.1a3.94,3.94,0,0,1,.59-2.07l.95.22a3.6,3.6,0,0,0-.57,1.83c0,.55.17.93.6.93s.5-.39.67-1.1c.28-1.27,1-1.73,1.68-1.73s1.58.64,1.58,2a3.85,3.85,0,0,1-.47,1.76l-.91-.22a3,3,0,0,0,.44-1.5c0-.57-.2-.84-.51-.84s-.5.36-.63.91c-.29,1.37-.93,1.92-1.62,1.92C267,298.25,266.35,297.43,266.35,296.1Z"/><path d="M84,70.05H82.5a23.69,23.69,0,0,1,2.66-6H81.65V62.86h5.06v.66A22.29,22.29,0,0,0,84,70.05Z"/><path d="M90.18,70.26c-1.67,0-3-1.43-3-3.83s1.28-3.81,3-3.81,2.95,1.42,2.95,3.81S91.86,70.26,90.18,70.26Zm0-6.53c-.94,0-1.5.92-1.5,2.7s.57,2.71,1.5,2.71,1.5-.92,1.5-2.71S91.11,63.73,90.18,63.73Z"/><path d="M95.78,66.26a1.79,1.79,0,1,1,1.68-1.8A1.69,1.69,0,0,1,95.78,66.26Zm0-2.84c-.41,0-.71.3-.71,1s.3,1.06.71,1.06.72-.3.72-1.06S96.19,63.42,95.78,63.42Zm-.15,6.85-.44-.22,4.6-7.41.43.22Zm4-.07a1.8,1.8,0,1,1,1.68-1.8A1.69,1.69,0,0,1,99.63,70.2Zm0-2.85c-.41,0-.71.3-.71,1.05s.3,1,.71,1,.72-.3.72-1S100,67.35,99.63,67.35Z"/><path d="M145.54,148.73v1.76h-1.39v-1.76h-3.31V148l3.56-4.75h1.14v4.47h1.3v1Zm-1.39-3.64-2,2.62h2Z"/><path d="M150.57,150.7c-1.67,0-2.95-1.43-2.95-3.83s1.28-3.81,2.95-3.81,3,1.42,3,3.81S152.25,150.7,150.57,150.7Zm0-6.53c-.94,0-1.5.92-1.5,2.7s.57,2.71,1.5,2.71,1.5-.92,1.5-2.71S151.5,144.17,150.57,144.17Z"/><path d="M156.17,146.7a1.79,1.79,0,1,1,1.68-1.8A1.69,1.69,0,0,1,156.17,146.7Zm0-2.84c-.41,0-.71.3-.71,1s.3,1.06.71,1.06.72-.3.72-1.06S156.58,143.86,156.17,143.86Zm-.16,6.85-.43-.22,4.6-7.41.43.22Zm4-.07a1.8,1.8,0,1,1,1.68-1.8A1.69,1.69,0,0,1,160,150.64Zm0-2.85c-.41,0-.71.3-.71,1.05s.3,1,.71,1,.72-.3.72-1S160.43,147.79,160,147.79Z"/><path d="M200.76,205.7v-.8l1.88-2a3.59,3.59,0,0,0,1.31-2.31,1.08,1.08,0,0,0-1.17-1.19,2.88,2.88,0,0,0-1.84.78V199a3.71,3.71,0,0,1,2.1-.73,2.15,2.15,0,0,1,2.37,2.16,3.75,3.75,0,0,1-1.46,2.72l-1.48,1.39h3.1v1.14Z"/><path d="M209.46,205.9c-1.67,0-3-1.42-3-3.82s1.29-3.82,3-3.82,2.95,1.43,2.95,3.82S211.14,205.9,209.46,205.9Zm0-6.52c-.94,0-1.5.92-1.5,2.7s.57,2.71,1.5,2.71,1.5-.92,1.5-2.71S210.39,199.38,209.46,199.38Z"/><path d="M215.06,201.91a1.8,1.8,0,1,1,1.68-1.8A1.69,1.69,0,0,1,215.06,201.91Zm0-2.84c-.41,0-.71.3-.71,1s.3,1.06.71,1.06.72-.3.72-1.06S215.47,199.07,215.06,199.07Zm-.15,6.85-.44-.22,4.6-7.41.43.21Zm4-.08a1.79,1.79,0,1,1,1.68-1.79A1.69,1.69,0,0,1,218.91,205.84Zm0-2.84c-.41,0-.71.3-.71,1.05s.3,1,.71,1,.72-.3.72-1S219.32,203,218.91,203Z"/><path d="M261.57,205.7v-.8l1.89-2a3.58,3.58,0,0,0,1.3-2.31,1.08,1.08,0,0,0-1.16-1.19,2.91,2.91,0,0,0-1.85.78V199a3.76,3.76,0,0,1,2.1-.73,2.15,2.15,0,0,1,2.38,2.16,3.75,3.75,0,0,1-1.47,2.72l-1.47,1.39h3.09v1.14Z"/><path d="M270.27,205.9c-1.67,0-2.95-1.42-2.95-3.82s1.28-3.82,2.95-3.82,3,1.43,3,3.82S272,205.9,270.27,205.9Zm0-6.52c-.94,0-1.5.92-1.5,2.7s.58,2.71,1.5,2.71,1.5-.92,1.5-2.71S271.21,199.38,270.27,199.38Z"/><path d="M275.88,201.91a1.8,1.8,0,1,1,1.67-1.8A1.69,1.69,0,0,1,275.88,201.91Zm0-2.84c-.41,0-.71.3-.71,1s.3,1.06.71,1.06.71-.3.71-1.06S276.28,199.07,275.88,199.07Zm-.16,6.85-.43-.22,4.59-7.41.43.21Zm4-.08a1.79,1.79,0,1,1,1.68-1.79A1.68,1.68,0,0,1,279.72,205.84Zm0-2.84c-.4,0-.7.3-.7,1.05s.3,1,.7,1,.72-.3.72-1S280.13,203,279.72,203Z"/></g></g></svg>