<svg xmlns="http://www.w3.org/2000/svg" viewBox="0 0 1839.14 196.27"><defs><style>.cls-1{fill:#efefef;}.cls-2{fill:#fff;}</style></defs><title>Asset 62</title><g id="Layer_2" data-name="Layer 2"><g id="Layer_1-2" data-name="Layer 1"><path class="cls-1" d="M1211.27,141.22V22.29c-18,0-27.08-5.71-35.89-11.23S1157.72,0,1140.08,0s-26.61,5.62-35.29,11.06-17.93,11.23-35.89,11.23-27.07-5.71-35.89-11.23S1015.36,0,997.72,0s-26.61,5.62-35.29,11.06S944.5,22.29,926.55,22.29s-27.07-5.71-35.89-11.23S873,0,855.37,0V0l-.79,0C836.94,0,828,5.62,819.28,11.06s-17.93,11.23-35.89,11.23-27.07-5.71-35.89-11.23S729.85,0,712.21,0,685.6,5.62,676.92,11.06s-17.87,11.19-35.7,11.23-26.92-5.73-35.7-11.23S587.86,0,570.22,0h-.36c-17.39.08-26.31,5.65-34.93,11.05C526.11,16.58,517,22.29,499,22.29S472,16.58,463.15,11.06,445.49,0,427.86,0s-26.61,5.62-35.29,11.06-17.93,11.23-35.89,11.23-27.07-5.71-35.88-11.23S303.14,0,285.51,0V0l-.8,0c-17.63,0-26.61,5.62-35.29,11.06s-17.93,11.23-35.89,11.23-27.07-5.71-35.89-11.23S160,0,142.35,0s-26.61,5.62-35.29,11.06S89.13,22.29,71.17,22.29,44.1,16.58,35.29,11.06,17.63,0,0,0V172.86H0V174H0c17.63,0,26.61,5.62,35.29,11.06s17.93,11.23,35.88,11.23,27.08-5.71,35.89-11.23S124.72,174,142.35,174,169,179.6,177.64,185s17.93,11.23,35.89,11.23,27.07-5.71,35.89-11.23S267.08,174,284.71,174,311.33,179.6,320,185s17.93,11.23,35.89,11.23h.78c18,0,27.08-5.71,35.89-11.23S410.23,174,427.86,174h.06c17.59,0,26.56,5.63,35.23,11.06s17.91,11.22,35.83,11.23H499c18,0,27.07-5.71,35.89-11.23,8.65-5.42,17.6-11,35.11-11.06s26.46,5.64,35.11,11.06c8.82,5.52,17.93,11.23,35.89,11.23h.37c17.7-.08,26.76-5.75,35.51-11.23S694.58,174,712.21,174,738.82,179.6,747.5,185s17.94,11.23,35.89,11.23,27.08-5.71,35.89-11.23S836.94,174,854.58,174s26.61,5.62,35.29,11.06,17.93,11.23,35.89,11.23h.79c18,0,27.07-5.71,35.88-11.23S980.09,174,997.72,174h.06c17.6,0,26.56,5.63,35.23,11.06s17.92,11.22,35.83,11.23h.06c18,0,27.08-5.71,35.89-11.23S1122.45,174,1140.08,174h.07c17.59,0,26.56,5.63,35.23,11.06s17.91,11.22,35.83,11.23h.06v-1.12h0V141.22Z"/><path class="cls-2" d="M1816.72,11.06c-8.82,5.52-17.93,11.23-35.89,11.23s-27.07-5.71-35.88-11.23S1727.29,0,1709.66,0V0l-.8,0c-17.63,0-26.61,5.62-35.29,11.06s-17.93,11.23-35.89,11.23-27.07-5.71-35.89-11.23S1584.13,0,1566.5,0s-26.61,5.62-35.29,11.06-17.87,11.19-35.7,11.23-26.92-5.73-35.71-11.23S1442.15,0,1424.51,0h-.36c-17.39.08-26.31,5.65-34.93,11.05-8.82,5.52-17.93,11.23-35.89,11.23s-27.07-5.71-35.89-11.23S1299.78,0,1282.15,0s-26.61,5.62-35.29,11.06S1229,22.22,1211.27,22.29v174c17.75-.07,26.82-5.74,35.59-11.23S1264.52,174,1282.15,174h.06c17.59,0,26.56,5.63,35.23,11.06s17.91,11.22,35.83,11.23h.06c18,0,27.07-5.71,35.89-11.23,8.65-5.42,17.6-11,35.11-11.06s26.46,5.64,35.11,11.06c8.81,5.52,17.93,11.23,35.88,11.23h.37c17.71-.08,26.77-5.75,35.52-11.23S1548.87,174,1566.5,174s26.61,5.62,35.29,11.06,17.93,11.23,35.89,11.23,27.07-5.71,35.89-11.23S1691.23,174,1708.86,174s26.62,5.62,35.3,11.06,17.93,11.23,35.89,11.23h.78c18,0,27.07-5.71,35.89-11.23,6.27-3.92,12.71-7.93,22.42-9.87V1.19C1829.43,3.13,1823,7.14,1816.72,11.06Z"/></g></g></svg>