<?xml version="1.0" encoding="utf-8"?>
<!-- Generator: Adobe Illustrator 23.1.1, SVG Export Plug-In . SVG Version: 6.00 Build 0)  -->
<svg version="1.1" id="Layer_1" xmlns="http://www.w3.org/2000/svg" xmlns:xlink="http://www.w3.org/1999/xlink" x="0px" y="0px"
	 viewBox="0 0 1440 1084.8" style="enable-background:new 0 0 1440 1084.8;" xml:space="preserve">
<style type="text/css">
	.st0{fill:none;}
	.st1{fill:#0F0F59;}
	.st2{fill:#F07262;}
	.st3{fill:#E2AC9C;}
</style>
<title>Asset 61</title>
<g>
	<path class="st0" d="M110.4,249.9l0.6,0c12.8,0.7,18.9,5.1,25.1,9.4s12.5,8.9,25.5,9.6c13,0.7,19.8-3,26.5-6.7
		c6.5-3.6,13.2-7.3,26-6.6c12.8,0.7,19,5.1,25.1,9.5c6.2,4.4,12.5,8.9,25.5,9.6c13,0.7,19.8-3,26.5-6.7c6.5-3.6,13.2-7.3,25.8-6.6
		l0.1,0l0.1,0c12.8,0.7,19,5.1,25.1,9.5c6.1,4.3,12.5,8.8,25.4,9.6s19.8-3.1,26.3-6.6c6.5-3.6,13.2-7.3,26-6.6
		c12.8,0.7,19,5.1,25.1,9.5c6.2,4.4,12.5,8.9,25.5,9.6s19.9-3,26.5-6.7c6.5-3.6,13.2-7.3,26-6.6l0.6,0c12.8,0.7,18.9,5.1,25.1,9.4
		s12.5,8.9,25.5,9.6c13,0.7,19.8-3,26.5-6.7c11.2-6.2,24.5-9.4,37.1-5.3c14.4,4.7,23,15.9,39,16.8c13,0.7,19.9-3.1,26.5-6.7
		s13.2-7.3,26-6.6c12.8,0.7,18.9,5.1,25.1,9.4s12.5,8.9,25.5,9.6s19.8-3,26.5-6.7c6.5-3.6,13.2-7.3,26-6.6c0.2,0,0.4,0.1,0.6,0
		c12.8,0.7,18.9,5.1,25.1,9.4s12.5,8.9,25.5,9.6c13,0.7,19.8-3,26.5-6.7c6.5-3.6,13.2-7.3,26-6.6s18.9,5.1,25.1,9.5
		c6.2,4.4,12.5,8.9,25.5,9.6c13,0.7,19.8-3,26.5-6.7c6.5-3.6,13.1-7.3,25.7-6.6l0.1,0l0.1,0c12.8,0.7,18.9,5.1,25.1,9.5
		s12.5,8.9,25.4,9.6s19.8-3.1,26.3-6.6s13.2-7.3,26-6.6c0.8,0,1.6,0.1,2.3,0.2c11.3,1.1,17.1,5.2,22.8,9.3
		c6.2,4.4,12.5,8.9,25.5,9.6s19.9-3.1,26.5-6.7c6.5-3.6,13.2-7.3,26-6.6l0.6,0c12.8,0.7,18.9,5.1,25.1,9.4s12.5,8.9,25.5,9.6
		s19.8-3,26.5-6.7c4.1-2.3,8.3-4.6,14.1-5.8V293c-1.9,0.9-3.6,1.9-5.4,2.8c-3.5,1.9-7.1,3.9-11.7,5.2c-4.8,1.3-9.8,1.8-14.8,1.4
		l-0.6,0c-13-0.7-19.5-5.3-25.5-9.6c-6.1-4.3-12.3-8.8-25.1-9.5c-12.8-0.7-19.5,3-26,6.6c-6.6,3.6-13.4,7.4-26.5,6.7
		c-13-0.7-19.5-5.3-25.5-9.6c-6.1-4.3-12.3-8.7-25.1-9.5c-9.7-0.5-15.9,1.5-21.1,4c-1.7,0.8-3.3,1.7-4.9,2.6
		c-6.6,3.6-13.4,7.3-26.2,6.7l0,0l-0.1,0l-0.1,0c-13-0.7-19.4-5.2-25.5-9.6c-6-4.3-12.3-8.8-25-9.4c-12.7-0.7-19.4,3-25.9,6.6
		c-6.6,3.6-13.4,7.4-26.5,6.7l0,0c-13-0.7-19.4-5.3-25.5-9.6s-12.3-8.7-25.1-9.4l0,0c-12.8-0.7-19.4,2.9-26,6.6s-13.4,7.4-26.5,6.7
		l-0.6,0c-13-0.7-19.5-5.3-25.5-9.6c-6.1-4.3-12.3-8.7-25.1-9.5c-15.3-0.9-24.5,8.2-38.4,11.8c-13.4,3.5-27.7,0.9-39-7.2
		c-6.1-4.3-12.3-8.7-25.1-9.4l0,0c-12.8-0.7-19.5,3-26,6.6c-6.6,3.6-13.4,7.4-26.5,6.7l0,0c-13-0.7-19.4-5.3-25.5-9.6
		c-6.1-4.3-12.3-8.7-25.1-9.5l0,0c-12.8-0.7-19.4,2.9-26,6.6c-6.6,3.6-13.4,7.4-26.5,6.7l-0.6,0c-13-0.7-19.5-5.3-25.5-9.6
		c-6.1-4.3-12.3-8.7-25.1-9.4s-19.4,2.9-26,6.6c-6.6,3.6-13.5,7.4-26.5,6.7c-13-0.7-19.5-5.3-25.5-9.6s-12.3-8.7-25.1-9.4
		c-12.8-0.7-19.4,3-26,6.6s-13.4,7.3-26.2,6.7l0,0l-0.1,0l-0.1,0c-13-0.7-19.5-5.3-25.5-9.6s-12.3-8.8-25-9.4
		c-12.7-0.7-19.4,3-25.9,6.6c-6.6,3.6-13.4,7.4-26.5,6.7l0,0c-13-0.7-19.4-5.3-25.5-9.6s-12.3-8.7-25.1-9.4l0,0
		c-12.8-0.7-19.4,2.9-26,6.6c-6.6,3.6-13.4,7.4-26.5,6.7l-0.6,0c-13-0.7-19.5-5.3-25.5-9.6c-6.1-4.3-12.3-8.8-25.1-9.5
		c-7.9-0.4-13.5,0.8-18.2,2.7v27C103.8,249.9,106.8,249.7,110.4,249.9z"/>
	<path class="st1" d="M1315.8,451.2c-3,1.8-6.1,3.2-9.4,4.5c-4.5,1.6-9.8,2.6-17.1,2.2l-0.6,0c-13-0.7-19.5-5.4-25.5-9.7
		s-12.3-8.7-25.1-9.4c-12.8-0.7-19.4,2.9-26,6.6s-13.4,7.4-26.5,6.7s-19.5-5.3-25.5-9.6c-6.1-4.3-12.3-8.8-25.1-9.5
		c-12.8-0.7-19.4,3-26,6.6c-6.6,3.6-13.4,7.3-26.2,6.7l0,0l-0.1,0l-0.1,0c-13-0.7-19.5-5.3-25.5-9.6c-6-4.3-12.3-8.8-25-9.4
		c-12.7-0.7-19.4,3-25.9,6.6c-6.6,3.6-13.5,7.4-26.5,6.7l0,0c-13-0.7-19.4-5.3-25.5-9.6c-6.1-4.3-12.3-8.7-25.1-9.5l0,0
		c-12.8-0.7-19.5,3-26,6.6c-6.6,3.6-13.5,7.4-26.5,6.7l-0.6,0c-13-0.7-19.5-5.3-25.5-9.6s-12.3-8.8-25.1-9.5
		c-12.8-0.7-19.5,3-26,6.6c-16.7,9.2-35.6,9.4-51.4-1.9c-6.1-4.3-12.3-8.7-25.1-9.4l0,0c-12.8-0.7-19.5,3-26,6.6
		c-6.6,3.6-13.5,7.4-26.5,6.7l0,0c-13-0.7-19.4-5.3-25.5-9.6s-12.3-8.7-25.1-9.4l0,0c-12.8-0.7-19.5,3-26,6.6
		c-6.6,3.6-13.5,7.4-26.5,6.7l-0.6,0c-13-0.7-19.5-5.3-25.5-9.6c-6.1-4.3-12.3-8.8-25.1-9.5c-12.8-0.7-19.4,2.9-26,6.6
		c-6.6,3.6-13.4,7.4-26.5,6.7c-13-0.7-19.5-5.3-25.5-9.6s-12.4-8.9-25.1-9.6c-12.8-0.7-19.4,3-26,6.6c-6.6,3.6-13.4,7.3-26.2,6.7
		l0,0l-0.1,0l-0.1,0c-13-0.7-19.4-5.2-25.5-9.6c-6-4.3-12.3-8.8-25-9.5c-12.7-0.7-19.4,3-25.9,6.6c-6.6,3.6-13.4,7.4-26.5,6.7l0,0
		c-13-0.7-19.4-5.3-25.5-9.6c-6.1-4.3-12.3-8.7-25.1-9.5l0,0c-12.8-0.7-19.5,3-26,6.6c-6.6,3.6-13.4,7.4-26.5,6.7l-0.6,0
		c-13-0.7-19.5-5.3-25.5-9.6s-12.3-8.7-25.1-9.4c-0.8,0-1.6-0.1-2.3-0.1V398c2-0.1,4.1-0.2,6.4,0c12.8,0.7,19,5.2,25.1,9.5
		c6.1,4.3,12.5,8.9,25.5,9.6l0.6,0c13,0.7,19.8-3,26.5-6.7s13.2-7.3,26-6.6l0,0c12.7,0.7,19,5.2,25.1,9.4s12.5,8.9,25.5,9.6l0,0
		c13,0.7,19.8-3,26.5-6.7c6.5-3.6,13.2-7.3,25.9-6.6c12.7,0.7,18.9,5.2,25,9.4s12.5,8.9,25.5,9.6l0.1,0l0.1,0l0,0
		c12.8,0.6,19.6-3.1,26.2-6.7c6.6-3.6,13.2-7.3,26-6.6c12.8,0.7,19,5.2,25.1,9.4c6.1,4.3,12.5,8.9,25.5,9.6c13,0.7,19.8-3,26.5-6.7
		c6.6-3.6,13.2-7.3,26-6.6c12.8,0.7,19,5.2,25.1,9.4s12.5,8.9,25.5,9.6l0.6,0c13,0.7,19.8-3,26.5-6.7s13.2-7.3,26-6.6l0,0
		c12.7,0.7,19,5.2,25.1,9.5c6.1,4.3,12.5,8.9,25.5,9.6l0,0c13,0.7,19.8-3,26.5-6.7c6.5-3.6,13.2-7.3,26-6.6l0,0
		c12.7,0.7,19,5.2,25.1,9.4c11.3,8.1,25.6,10.7,39,7.2c14-3.6,23.2-12.7,38.4-11.8c12.8,0.7,19,5.2,25.1,9.5
		c6.1,4.3,12.5,8.9,25.5,9.6l0.6,0c13,0.7,19.8-3,26.5-6.7c6.6-3.6,13.2-7.3,26-6.6l0,0c12.7,0.7,19,5.2,25.1,9.4s12.5,8.9,25.5,9.6
		l0,0c13,0.7,19.8-3,26.5-6.7c6.5-3.6,13.2-7.3,25.9-6.6c12.7,0.7,18.9,5.2,25,9.4c6.2,4.4,12.5,8.9,25.5,9.6l0.1,0l0.1,0l0,0
		c12.8,0.6,19.6-3.1,26.2-6.7c1.6-0.9,3.2-1.8,4.9-2.6c5.3-2.6,11.5-4.6,21.1-4c12.8,0.7,19,5.2,25.1,9.5s12.5,8.9,25.5,9.6
		c13,0.7,19.8-3,26.5-6.7c6.5-3.6,13.2-7.3,26-6.6c12.8,0.7,19,5.2,25.1,9.5c6.1,4.3,12.5,8.9,25.5,9.6l0.6,0c5,0.4,10-0.1,14.8-1.4
		c4.6-1.3,8.2-3.3,11.7-5.2c4.8-2.7,9.7-5.3,17.1-6.3v-22.3C1327.2,444.9,1321.4,448.1,1315.8,451.2z"/>
	<path class="st2" d="M1322.9,325.3c-6.6,3.6-13.4,7.4-26.5,6.7s-19.4-5.2-25.5-9.6s-12.3-8.7-25.1-9.4l-0.6,0
		c-12.8-0.7-19.5,3-26,6.6c-6.5,3.6-13.4,7.4-26.5,6.7s-19.4-5.2-25.5-9.6c-5.7-4-11.6-8.2-22.8-9.3c-0.7-0.1-1.5-0.1-2.3-0.2
		c-12.8-0.7-19.5,3-26,6.6s-13.4,7.4-26.3,6.6s-19.3-5.2-25.4-9.6s-12.3-8.7-25.1-9.5l-0.1,0l-0.1,0c-12.6-0.7-19.3,3-25.7,6.6
		c-6.6,3.6-13.4,7.4-26.5,6.7c-13-0.7-19.4-5.2-25.5-9.6c-6.2-4.4-12.3-8.7-25.1-9.5s-19.5,3-26,6.6c-6.6,3.6-13.4,7.4-26.5,6.7
		c-13-0.7-19.4-5.2-25.5-9.6s-12.3-8.7-25.1-9.4c-0.2,0-0.4,0-0.6,0c-12.8-0.7-19.5,3-26,6.6c-6.6,3.6-13.4,7.4-26.5,6.7
		s-19.4-5.2-25.5-9.6s-12.3-8.7-25.1-9.4c-12.8-0.7-19.5,3-26,6.6s-13.4,7.4-26.5,6.7c-16-0.9-24.6-12.1-39-16.8
		c-12.6-4.1-25.8-0.8-37.1,5.3c-6.6,3.6-13.4,7.4-26.5,6.7c-13-0.7-19.4-5.3-25.5-9.6s-12.3-8.7-25.1-9.4l-0.6,0
		c-12.8-0.7-19.5,3-26,6.6c-6.5,3.6-13.4,7.4-26.5,6.7s-19.4-5.2-25.5-9.6c-6.2-4.4-12.3-8.8-25.1-9.5c-12.8-0.7-19.5,3-26,6.6
		c-6.5,3.6-13.4,7.4-26.3,6.6s-19.3-5.2-25.4-9.6c-6.1-4.3-12.3-8.7-25.1-9.5l-0.1,0l-0.1,0c-12.6-0.7-19.3,3-25.8,6.6
		c-6.6,3.6-13.4,7.4-26.5,6.7c-13-0.7-19.4-5.2-25.5-9.6c-6.2-4.4-12.3-8.7-25.1-9.5c-12.8-0.7-19.5,3-26,6.6
		c-6.6,3.6-13.4,7.4-26.5,6.7c-13-0.7-19.4-5.2-25.5-9.6s-12.3-8.7-25.1-9.4l-0.6,0c-3.6-0.2-6.7,0-9.4,0.3v22.9v102.7
		c0.7,0,1.5,0,2.3,0.1c12.8,0.7,19,5.1,25.1,9.4s12.5,8.9,25.5,9.6l0.6,0c13,0.7,19.8-3,26.5-6.7c6.5-3.6,13.2-7.3,26-6.6l0,0
		c12.7,0.7,19,5.2,25.1,9.5c6.1,4.3,12.5,8.9,25.5,9.6l0,0c13,0.7,19.8-3,26.5-6.7c6.5-3.6,13.2-7.3,25.9-6.6
		c12.7,0.7,18.9,5.2,25,9.5c6.2,4.4,12.5,8.9,25.5,9.6l0.1,0l0.1,0l0,0c12.8,0.6,19.6-3.1,26.2-6.7c6.6-3.6,13.2-7.3,26-6.6
		c12.8,0.7,19.1,5.3,25.1,9.6s12.5,8.9,25.5,9.6c13,0.7,19.8-3,26.5-6.7c6.6-3.6,13.2-7.3,26-6.6c12.8,0.7,19,5.2,25.1,9.5
		c6.1,4.3,12.5,8.9,25.5,9.6l0.6,0c13,0.7,19.8-3,26.5-6.7c6.5-3.6,13.2-7.3,26-6.6l0,0c12.7,0.7,19,5.2,25.1,9.4s12.5,8.9,25.5,9.6
		l0,0c13,0.7,19.8-3,26.5-6.7c6.5-3.6,13.2-7.3,26-6.6l0,0c12.7,0.7,19,5.2,25.1,9.4c15.9,11.2,34.7,11.1,51.4,1.9
		c6.5-3.6,13.2-7.3,26-6.6c12.8,0.7,19,5.2,25.1,9.5s12.5,8.9,25.5,9.6l0.6,0c13,0.7,19.8-3,26.5-6.7c6.5-3.6,13.2-7.3,26-6.6l0,0
		c12.7,0.7,19,5.2,25.1,9.5c6.1,4.3,12.5,8.8,25.5,9.6l0,0c13,0.7,19.8-3,26.5-6.7c6.5-3.6,13.2-7.3,25.9-6.6
		c12.7,0.7,18.9,5.2,25,9.4c6,4.3,12.5,8.9,25.5,9.6l0.1,0l0.1,0l0,0c12.8,0.6,19.6-3.1,26.2-6.7c6.6-3.6,13.2-7.3,26-6.6
		c12.8,0.7,19,5.2,25.1,9.5c6.1,4.3,12.5,8.9,25.5,9.6s19.8-3,26.5-6.7s13.2-7.3,26-6.6c12.8,0.7,19,5.2,25.1,9.4s12.6,9,25.5,9.7
		l0.6,0c7.3,0.4,12.6-0.6,17.1-2.2c3.2-1.2,6.4-2.7,9.4-4.5c5.6-3.1,11.5-6.3,21.2-6.6v-102v-23.2
		C1331.2,320.6,1327,323,1322.9,325.3z"/>
	<path class="st3" d="M119.2,220.7c12.8,0.7,19,5.2,25.1,9.5c6.1,4.3,12.5,8.9,25.5,9.6l0.6,0c13,0.7,19.8-3,26.5-6.7
		c6.6-3.6,13.2-7.3,26-6.6l0,0c12.7,0.7,19,5.2,25.1,9.4s12.5,8.9,25.5,9.6l0,0c13,0.7,19.8-3,26.5-6.7c6.5-3.6,13.2-7.3,25.9-6.6
		c12.7,0.7,18.9,5.2,25,9.4s12.5,8.9,25.5,9.6l0.1,0l0.1,0l0,0c12.8,0.6,19.6-3.1,26.2-6.7s13.2-7.3,26-6.6
		c12.8,0.7,19,5.2,25.1,9.4s12.5,8.9,25.5,9.6c13,0.7,19.8-3,26.5-6.7c6.6-3.6,13.2-7.3,26-6.6s19,5.2,25.1,9.4
		c6.1,4.3,12.5,8.9,25.5,9.6l0.6,0c13,0.7,19.8-3,26.5-6.7c6.6-3.6,13.2-7.3,26-6.6l0,0c12.7,0.7,19,5.2,25.1,9.5
		c6.1,4.3,12.5,8.9,25.5,9.6l0,0c13,0.7,19.8-3,26.5-6.7c6.5-3.6,13.2-7.3,26-6.6l0,0c12.7,0.7,19,5.2,25.1,9.4
		c11.3,8.1,25.6,10.7,39,7.2c14-3.6,23.2-12.7,38.4-11.8c12.8,0.7,19,5.2,25.1,9.5c6.1,4.3,12.5,8.9,25.5,9.6l0.6,0
		c13,0.7,19.8-3,26.5-6.7s13.2-7.3,26-6.6l0,0c12.7,0.7,19,5.2,25.1,9.4s12.5,8.9,25.5,9.6l0,0c13,0.7,19.8-3,26.5-6.7
		c6.5-3.6,13.2-7.3,25.9-6.6c12.7,0.7,18.9,5.2,25,9.4c6.2,4.4,12.5,8.9,25.5,9.6l0.1,0l0.1,0l0,0c12.8,0.6,19.6-3.1,26.2-6.7
		c1.6-0.9,3.2-1.8,4.9-2.6c5.3-2.6,11.5-4.6,21.1-4c12.8,0.7,19,5.2,25.1,9.5c6.1,4.3,12.5,8.9,25.5,9.6c13,0.7,19.8-3,26.5-6.7
		c6.5-3.6,13.2-7.3,26-6.6c12.8,0.7,19,5.2,25.1,9.5c6.1,4.3,12.5,8.9,25.5,9.6l0.6,0c5,0.4,10-0.1,14.8-1.4
		c4.6-1.3,8.2-3.3,11.7-5.2c1.7-1,3.5-1.9,5.4-2.8V170.9c-6,3.3-12.8,6.4-24.7,5.7c-13-0.7-19.4-5.2-25.5-9.6
		c-6.2-4.4-12.3-8.7-25.1-9.4l-0.6,0c-12.8-0.7-19.5,3-26,6.6c-6.6,3.6-13.4,7.4-26.5,6.7s-19.4-5.2-25.5-9.6
		c-6.2-4.4-12.3-8.7-25.1-9.4c-1.6-0.1-3.1-0.1-4.5-0.1c-9.9,0.3-15.8,3.5-21.5,6.6c-6.6,3.6-13.4,7.4-26.3,6.6
		c-12.9-0.7-19.3-5.2-25.4-9.6s-12.3-8.7-25.1-9.5l-0.1,0l-0.1,0c-12.6-0.7-19.3,3-25.8,6.6c-6.6,3.6-13.4,7.4-26.5,6.7
		c-11.1-0.6-17.4-4-22.8-7.7c-0.9-0.6-1.8-1.3-2.7-1.9c-6.1-4.3-12.3-8.7-25.1-9.4c-12.8-0.7-19.5,3-26,6.6
		c-6.5,3.6-13.4,7.4-26.5,6.7c-13-0.7-19.4-5.2-25.5-9.6c-6.2-4.4-12.3-8.7-25.1-9.4l-0.6,0c-12.8-0.7-19.5,3-26,6.6
		c-6.6,3.6-13.4,7.4-26.5,6.7c-13-0.7-19.4-5.2-25.5-9.6s-12.3-8.7-25.1-9.5s-19.5,3-26,6.6c-6.5,3.6-13.4,7.4-26.4,6.7
		c-13-0.7-19.4-5.2-25.5-9.6c-15.8-11.2-33.9-11.1-50.6-1.8c-6.6,3.6-13.4,7.4-26.5,6.7c-13-0.7-19.4-5.2-25.5-9.6
		c-6.2-4.4-12.3-8.7-25.1-9.4l-0.6,0c-12.8-0.7-19.5,3-26,6.6c-6.6,3.6-13.4,7.4-26.5,6.7s-19.3-5.2-25.5-9.5s-12.3-8.7-25.1-9.5
		s-19.5,3-26,6.6c-6.5,3.6-13.4,7.4-26.3,6.6c-12.9-0.7-19.3-5.2-25.4-9.6c-6.2-4.3-12.3-8.7-25.1-9.4l-0.1,0l-0.1,0
		c-12.6-0.7-19.3,3-25.8,6.6c-6.6,3.6-13.4,7.4-26.5,6.7c-13-0.7-19.4-5.2-25.5-9.6c-6.2-4.4-12.3-8.8-25.1-9.5
		c-12.8-0.7-19.5,3-26,6.6s-13.4,7.4-26.5,6.7c-13-0.7-19.4-5.2-25.5-9.6c-6.2-4.4-12.3-8.7-25.1-9.4l-0.6,0
		c-12.3-0.7-19,2.7-25.3,6.2v122.5C105.7,221.5,111.3,220.2,119.2,220.7z"/>
</g>
</svg>
