<?xml version="1.0" encoding="utf-8"?>
<!-- Generator: Adobe Illustrator 23.1.1, SVG Export Plug-In . SVG Version: 6.00 Build 0)  -->
<svg version="1.1" id="Layer_1" xmlns="http://www.w3.org/2000/svg" xmlns:xlink="http://www.w3.org/1999/xlink" x="0px" y="0px"
	 viewBox="0 0 1440 757" style="enable-background:new 0 0 1440 757;" xml:space="preserve">
<style type="text/css">
	.st0{fill:#0F0F59;}
	.st1{fill:#F07262;}
	.st2{fill:#E2AC9C;}
</style>
<path class="st0" d="M1431.1,464.1c-6.6,3.6-13.4,7.4-26.5,6.7c-13-0.7-19.4-5.2-25.5-9.6c-6.2-4.4-12.3-8.7-25.1-9.5
	s-19.5,3-26,6.6s-13.4,7.4-26.5,6.7c-13-0.7-19.4-5.2-25.5-9.6s-12.3-8.7-25.1-9.4h-0.6c-12.8-0.7-19.5,3-26,6.6
	c-6.6,3.6-13.4,7.4-26.5,6.7s-19.4-5.2-25.5-9.6c-6.2-4.4-12.3-8.7-25.1-9.4c-1.6-0.1-3.1-0.1-4.5-0.1c-9.9,0.3-15.8,3.5-21.5,6.6
	c-6.6,3.6-13.4,7.4-26.3,6.6c-12.9-0.7-19.3-5.2-25.4-9.6c-6.2-4.3-12.3-8.7-25.1-9.5h-0.1h-0.1c-12.6-0.7-19.3,3-25.8,6.6
	c-6.6,3.6-13.4,7.4-26.5,6.7c-11.1-0.6-17.4-4-22.8-7.7c-0.9-0.6-1.8-1.3-2.7-1.9c-6.1-4.3-12.3-8.7-25.1-9.4s-19.5,3-26,6.6
	s-13.4,7.4-26.5,6.7c-13-0.7-19.4-5.2-25.5-9.6c-6.2-4.4-12.3-8.7-25.1-9.4h-0.6c-12.8-0.7-19.5,3-26,6.6
	c-6.6,3.6-13.4,7.4-26.5,6.7c-13-0.7-19.4-5.2-25.5-9.6c-6.2-4.4-12.3-8.7-25.1-9.5s-19.5,3-26,6.6s-13.4,7.4-26.4,6.7
	c-13-0.7-19.4-5.2-25.5-9.6c-15.8-11.2-33.9-11.1-50.6-1.8c-6.6,3.6-13.4,7.4-26.5,6.7c-13-0.7-19.4-5.2-25.5-9.6
	c-6.2-4.4-12.3-8.7-25.1-9.4h-0.6c-12.8-0.7-19.5,3-26,6.6c-6.6,3.6-13.4,7.4-26.5,6.7c-13-0.7-19.3-5.2-25.5-9.5
	c-6.2-4.4-12.3-8.7-25.1-9.5c-12.8-0.7-19.5,3-26,6.6s-13.4,7.4-26.3,6.6c-12.9-0.7-19.3-5.2-25.4-9.6s-12.3-8.7-25.1-9.4h-0.1h-0.1
	c-12.6-0.7-19.3,3-25.8,6.6c-6.6,3.6-13.4,7.4-26.5,6.7c-13-0.7-19.4-5.2-25.5-9.6c-6.2-4.4-12.3-8.8-25.1-9.5s-19.5,3-26,6.6
	s-13.4,7.4-26.5,6.7c-13-0.7-19.4-5.2-25.5-9.6c-6.2-4.4-12.3-8.7-25.1-9.4h-0.6c-12.8-0.7-19.5,3-26,6.6
	c-6.6,3.6-13.4,7.4-26.5,6.7c-13-0.7-19.4-5.2-25.5-9.6c-6.2-4.4-12.4-8.7-25.1-9.4c-12.8-0.7-19.5,3-26,6.6
	c-6.6,3.6-13.4,7.4-26.5,6.7c-13-0.7-19.4-5.2-25.5-9.6c-3.4-2.5-7-4.9-11.7-6.8L-61,513.6c4.4,1.7,9.1,2.6,13.8,2.8
	c13,0.7,19.8-3,26.5-6.7s13.2-7.3,26-6.6c12.8,0.7,19,5.2,25.1,9.5c6.1,4.3,12.5,8.9,25.5,9.6s19.8-3,26.5-6.7
	c6.5-3.6,13.2-7.3,26-6.6c12.8,0.7,19,5.2,25.1,9.5c6.1,4.3,12.5,8.9,25.5,9.6h0.6c13,0.7,19.8-3,26.5-6.7c6.6-3.6,13.2-7.3,26-6.6
	l0,0c12.7,0.7,19,5.2,25.1,9.4c6.1,4.3,12.5,8.9,25.5,9.6l0,0c13,0.7,19.8-3,26.5-6.7c6.5-3.6,13.2-7.3,25.9-6.6
	c12.7,0.7,18.9,5.2,25,9.4c6,4.3,12.5,8.9,25.5,9.6h0.1h0.1l0,0c12.8,0.6,19.6-3.1,26.2-6.7c6.6-3.6,13.2-7.3,26-6.6
	c12.8,0.7,19,5.2,25.1,9.4c6.1,4.3,12.5,8.9,25.5,9.6s19.8-3,26.5-6.7c6.6-3.6,13.2-7.3,26-6.6s19,5.2,25.1,9.4
	c6.1,4.3,12.5,8.9,25.5,9.6h0.6c13,0.7,19.8-3,26.5-6.7s13.2-7.3,26-6.6l0,0c12.7,0.7,19,5.2,25.1,9.5s12.5,8.9,25.5,9.6l0,0
	c13,0.7,19.8-3,26.5-6.7c6.5-3.6,13.2-7.3,26-6.6l0,0c12.7,0.7,19,5.2,25.1,9.4c11.3,8.1,25.6,10.7,39,7.2
	c14-3.6,23.2-12.7,38.4-11.8c12.8,0.7,19,5.2,25.1,9.5s12.5,8.9,25.5,9.6h0.6c13,0.7,19.8-3,26.5-6.7c6.6-3.6,13.2-7.3,26-6.6l0,0
	c12.7,0.7,19,5.2,25.1,9.4c6.1,4.2,12.5,8.9,25.5,9.6l0,0c13,0.7,19.8-3,26.5-6.7c6.5-3.6,13.2-7.3,25.9-6.6
	c12.7,0.7,18.9,5.2,25,9.4c6.2,4.4,12.5,8.9,25.5,9.6h0.1h0.1l0,0c12.8,0.6,19.6-3.1,26.2-6.7c1.6-0.9,3.2-1.8,4.9-2.6
	c5.3-2.6,11.5-4.6,21.1-4c12.8,0.7,19,5.2,25.1,9.5s12.5,8.9,25.5,9.6s19.8-3,26.5-6.7c6.5-3.6,13.2-7.3,26-6.6s19,5.2,25.1,9.5
	s12.5,8.9,25.5,9.6h0.6c5,0.4,10-0.1,14.8-1.4c4.6-1.3,8.2-3.3,11.7-5.2c6.5-3.6,13.2-7.3,26-6.6l0,0c12.7,0.7,19,5.2,25.1,9.4
	c6.1,4.2,12.5,8.9,25.5,9.6l0,0c13,0.7,19.8-3,26.5-6.7s13.2-7.3,26-6.6l0,0c1.8,0.1,3.6,0.3,5.3,0.6l-14.5-124.5
	C1437.5,460.7,1434.2,462.2,1431.1,464.1z"/>
<title>Asset 61</title>
<path class="st1" d="M1453,435.5c-12.8-0.7-19.5,3-26,6.6c-6.6,3.6-13.4,7.4-26.5,6.7c-12.4-0.7-18.7-4.8-24.6-8.9l-0.9-0.7
	c-6.1-4.3-12.3-8.7-25.1-9.5c-12.8-0.7-19.5,3-26,6.6c-6.6,3.6-13.4,7.4-26.5,6.7s-19.4-5.2-25.5-9.6c-6.2-4.4-12.3-8.7-25.1-9.4
	h-0.6c-12.8-0.7-19.5,3-26,6.6s-13.4,7.4-26.5,6.7s-19.4-5.2-25.5-9.6c-5.7-4-11.6-8.2-22.8-9.3c-0.7-0.1-1.5-0.1-2.3-0.2
	c-12.8-0.7-19.5,3-26,6.6s-13.4,7.4-26.3,6.6c-12.9-0.7-19.3-5.2-25.4-9.6c-6.2-4.3-12.3-8.7-25.1-9.5h-0.1h-0.1
	c-12.6-0.7-19.3,3-25.7,6.6c-6.6,3.6-13.4,7.4-26.5,6.7c-13-0.7-19.4-5.2-25.5-9.6c-6.2-4.4-12.3-8.7-25.1-9.5
	c-12.8-0.7-19.5,3-26,6.6c-6.6,3.6-13.4,7.4-26.5,6.7c-13-0.7-19.4-5.2-25.5-9.6c-6.2-4.4-12.3-8.7-25.1-9.4c-0.2,0-0.4,0-0.6,0
	c-12.8-0.7-19.5,3-26,6.6c-6.6,3.6-13.4,7.4-26.5,6.7s-19.4-5.2-25.5-9.6s-12.3-8.7-25.1-9.4s-19.5,3-26,6.6s-13.4,7.4-26.5,6.7
	c-16-0.9-24.6-12.1-39-16.8c-12.6-4.1-25.8-0.8-37.1,5.3c-6.6,3.6-13.4,7.4-26.5,6.7c-13-0.7-19.4-5.3-25.5-9.6s-12.3-8.7-25.1-9.4
	h-0.6c-12.8-0.7-19.5,3-26,6.6s-13.4,7.4-26.5,6.7c-13-0.7-19.4-5.2-25.5-9.6c-6.2-4.4-12.3-8.8-25.1-9.5c-12.8-0.7-19.5,3-26,6.6
	s-13.4,7.4-26.3,6.6c-12.9-0.7-19.3-5.2-25.4-9.6c-6.1-4.3-12.3-8.7-25.1-9.5h-0.1h-0.1c-12.6-0.7-19.3,3-25.8,6.6
	c-6.6,3.6-13.4,7.4-26.5,6.7s-19.4-5.2-25.5-9.6c-6.2-4.4-12.3-8.7-25.1-9.5c-12.8-0.7-19.5,3-26,6.6c-6.6,3.6-13.4,7.4-26.5,6.7
	c-13-0.7-19.4-5.2-25.5-9.6c-6.2-4.4-12.3-8.7-25.1-9.4h-0.6c-12.8-0.7-19.5,3-26,6.6s-13.4,7.4-26.5,6.7c-13-0.7-19.4-5.3-25.5-9.6
	c-6.2-4.4-12.3-8.7-25.1-9.5c-12.8-0.7-19.5,3-26,6.6c-6,3.3-12.2,6.7-23.1,6.8l14.1,120.3l1.9-1.1c6.5-3.6,13.2-7.3,26-6.6
	s19,5.2,25.1,9.5s12.5,8.9,25.5,9.6s19.8-3,26.5-6.7c6.5-3.6,13.2-7.3,26-6.6c12.8,0.7,19,5.1,25.1,9.4c6.1,4.3,12.5,8.9,25.5,9.6
	h0.6c13,0.7,19.8-3,26.5-6.7c6.5-3.6,13.2-7.3,26-6.6l0,0c12.7,0.7,19,5.2,25.1,9.5s12.5,8.9,25.5,9.6l0,0c13,0.7,19.8-3,26.5-6.7
	c6.5-3.6,13.2-7.3,25.9-6.6c12.7,0.7,18.9,5.2,25,9.5c6.2,4.4,12.5,8.9,25.5,9.6h0.1h0.1l0,0c12.8,0.6,19.6-3.1,26.2-6.7
	s13.2-7.3,26-6.6s19.1,5.3,25.1,9.6c6.1,4.3,12.5,8.9,25.5,9.6s19.8-3,26.5-6.7s13.2-7.3,26-6.6s19,5.2,25.1,9.5s12.5,8.9,25.5,9.6
	h0.6c13,0.7,19.8-3,26.5-6.7c6.5-3.6,13.2-7.3,26-6.6l0,0c12.7,0.7,19,5.2,25.1,9.4c6.1,4.2,12.5,8.9,25.5,9.6l0,0
	c13,0.7,19.8-3,26.5-6.7c6.5-3.6,13.2-7.3,26-6.6l0,0c12.7,0.7,19,5.2,25.1,9.4c15.9,11.2,34.7,11.1,51.4,1.9
	c6.5-3.6,13.2-7.3,26-6.6c12.8,0.7,19,5.2,25.1,9.5s12.5,8.9,25.5,9.6h0.6c13,0.7,19.8-3,26.5-6.7c6.5-3.6,13.2-7.3,26-6.6l0,0
	c12.7,0.7,19,5.2,25.1,9.5s12.5,8.8,25.5,9.6l0,0c13,0.7,19.8-3,26.5-6.7c6.5-3.6,13.2-7.3,25.9-6.6c12.7,0.7,18.9,5.2,25,9.4
	c6,4.3,12.5,8.9,25.5,9.6h0.1h0.1l0,0c12.8,0.6,19.6-3.1,26.2-6.7c6.6-3.6,13.2-7.3,26-6.6s19,5.2,25.1,9.5s12.5,8.9,25.5,9.6
	s19.8-3,26.5-6.7c6.6-3.6,13.2-7.3,26-6.6s19,5.2,25.1,9.4c6.1,4.3,12.6,9,25.5,9.7h0.6c7.3,0.4,12.6-0.6,17.1-2.2
	c3.2-1.2,6.4-2.7,9.4-4.5c6.5-3.6,13.2-7.3,26-6.6l0,0c12.7,0.7,19,5.2,25.1,9.5s12.6,8.9,25.5,9.6l0,0c13,0.7,19.8-3,26.5-6.7
	c6.5-3.6,13.2-7.3,26-6.6l0,0c12.7,0.7,19,5.2,25.1,9.5c5.4,3.8,11,7.8,21,9.2l-16-136.6C1470.6,439.7,1464.3,436.1,1453,435.5z"/>
<path class="st2" d="M1442.8,286.7c-6.6,3.6-13.4,7.4-26.5,6.7c-13-0.7-19.4-5.2-25.5-9.6c-6.2-4.4-12.3-8.7-25.1-9.5
	c-12.8-0.8-19.5,3-26,6.6s-13.4,7.4-26.5,6.7c-13.1-0.7-19.4-5.2-25.5-9.6c-6.2-4.4-12.3-8.7-25.1-9.4h-0.6c-12.8-0.7-19.5,3-26,6.6
	c-6.6,3.6-13.4,7.4-26.5,6.7c-13-0.7-19.4-5.2-25.5-9.6c-6.2-4.4-12.3-8.7-25.1-9.4c-1.6-0.1-3.1-0.1-4.5-0.1
	c-9.9,0.3-15.8,3.5-21.5,6.6c-6.6,3.6-13.4,7.4-26.3,6.6s-19.3-5.2-25.4-9.6c-6.2-4.3-12.3-8.7-25.1-9.5h-0.1h-0.1
	c-12.6-0.7-19.3,3-25.8,6.6c-6.6,3.6-13.4,7.4-26.5,6.7c-11.1-0.6-17.4-4-22.8-7.7c-0.9-0.6-1.8-1.3-2.7-1.9
	c-6.1-4.3-12.3-8.7-25.1-9.4s-19.5,3-26,6.6s-13.4,7.4-26.5,6.7c-13.1-0.7-19.4-5.2-25.5-9.6s-12.3-8.7-25.1-9.4h-0.6
	c-12.8-0.7-19.5,3-26,6.6c-6.6,3.6-13.4,7.4-26.5,6.7c-13-0.7-19.4-5.2-25.5-9.6c-6.2-4.4-12.3-8.7-25.1-9.5
	c-12.8-0.7-19.5,3-26,6.6s-13.4,7.4-26.4,6.7s-19.4-5.2-25.5-9.6c-15.8-11.2-33.9-11.1-50.6-1.8c-6.6,3.6-13.4,7.4-26.5,6.7
	c-13-0.7-19.4-5.2-25.5-9.6c-6.2-4.4-12.3-8.7-25.1-9.4H540c-12.8-0.7-19.5,3-26,6.6c-6.6,3.6-13.4,7.4-26.5,6.7
	c-13-0.7-19.3-5.2-25.5-9.5c-6.2-4.4-12.3-8.7-25.1-9.5s-19.5,3-26,6.6c-6.5,3.6-13.4,7.4-26.3,6.6c-12.9-0.7-19.3-5.2-25.4-9.6
	c-6.2-4.3-12.3-8.7-25.1-9.4H334h-0.1c-12.6-0.7-19.3,3-25.8,6.6c-6.6,3.6-13.4,7.4-26.5,6.7c-13.1-0.7-19.4-5.2-25.5-9.6
	c-6.2-4.4-12.3-8.8-25.1-9.5s-19.5,3-26,6.6c-6.5,3.6-13.4,7.4-26.5,6.7c-13-0.7-19.4-5.2-25.5-9.6c-6.2-4.4-12.3-8.7-25.1-9.4h-0.6
	c-12.8-0.7-19.5,3-26,6.6c-6.6,3.6-13.4,7.4-26.5,6.7c-13.1-0.7-19.4-5.2-25.5-9.6c-6.1-4.4-12.4-8.7-25.1-9.4
	c-12.8-0.7-19.5,3-26,6.6c-6.6,3.6-13.4,7.4-26.5,6.7c-13.1-0.7-19.4-5.2-25.5-9.6c-3.4-2.5-7-4.9-11.7-6.8L-49.2,337
	c4.4,1.7,9.1,2.6,13.8,2.8c13,0.7,19.8-3,26.5-6.7c6.6-3.6,13.2-7.3,26-6.6c12.8,0.7,19,5.2,25.1,9.5c6.1,4.3,12.5,8.9,25.5,9.6
	s19.8-3,26.5-6.7c6.5-3.6,13.2-7.3,26-6.6c12.8,0.7,19,5.2,25.1,9.5c6.1,4.3,12.5,8.9,25.5,9.6h0.6c13,0.7,19.8-3,26.5-6.7
	c6.6-3.6,13.2-7.3,26-6.6l0,0c12.7,0.7,19,5.2,25.1,9.4c6.1,4.3,12.5,8.9,25.5,9.6l0,0c13,0.7,19.8-3,26.5-6.7
	c6.5-3.6,13.2-7.3,25.9-6.6c12.7,0.7,18.9,5.2,25,9.4c6,4.3,12.5,8.9,25.5,9.6h0.1h0.1l0,0c12.8,0.6,19.6-3.1,26.2-6.7
	s13.2-7.3,26-6.6c12.8,0.7,19,5.2,25.1,9.4c6.1,4.3,12.5,8.9,25.5,9.6c13,0.7,19.8-3,26.5-6.7c6.6-3.6,13.2-7.3,26-6.6
	c12.8,0.7,19,5.2,25.1,9.4c6.1,4.3,12.5,8.9,25.5,9.6h0.6c13,0.7,19.8-3,26.5-6.7c6.6-3.6,13.2-7.3,26-6.6l0,0
	c12.7,0.7,19,5.2,25.1,9.5c6.1,4.3,12.5,8.9,25.5,9.6l0,0c13,0.7,19.8-3,26.5-6.7c6.5-3.6,13.2-7.3,26-6.6l0,0
	c12.7,0.7,19,5.2,25.1,9.4c11.3,8.1,25.6,10.7,39,7.2c14-3.6,23.2-12.7,38.4-11.8c12.8,0.7,19,5.2,25.1,9.5s12.5,8.9,25.5,9.6h0.6
	c13,0.7,19.8-3,26.5-6.7c6.6-3.6,13.2-7.3,26-6.6l0,0c12.7,0.7,19,5.2,25.1,9.4s12.5,8.9,25.5,9.6l0,0c13,0.7,19.8-3,26.5-6.7
	c6.5-3.6,13.2-7.3,25.9-6.6c12.7,0.7,18.9,5.2,25,9.4c6.2,4.4,12.5,8.9,25.5,9.6h0.1h0.1l0,0c12.8,0.6,19.6-3.1,26.2-6.7
	c1.6-0.9,3.2-1.8,4.9-2.6c5.3-2.6,11.5-4.6,21.1-4c12.8,0.7,19,5.2,25.1,9.5s12.5,8.9,25.5,9.6s19.8-3,26.5-6.7
	c6.5-3.6,13.2-7.3,26-6.6c12.8,0.7,19,5.2,25.1,9.5s12.5,8.9,25.5,9.6h0.6c5,0.4,10-0.1,14.8-1.4c4.6-1.3,8.2-3.3,11.7-5.2
	c6.5-3.6,13.2-7.3,26-6.6l0,0c12.7,0.7,19,5.2,25.1,9.4s12.5,8.9,25.5,9.6l0,0c13,0.7,19.8-3,26.5-6.7s13.2-7.3,26-6.6l0,0
	c1.8,0.1,3.6,0.3,5.3,0.6l-14.5-124.5C1449.2,283.4,1445.9,284.9,1442.8,286.7z"/>
</svg>
