<svg xmlns="http://www.w3.org/2000/svg" viewBox="0 0 2109.06 1084.77"><defs><style>.cls-1{fill:#0f0f59;}.cls-2{fill:#f07262;}.cls-3{fill:#e2ac9c;}</style></defs><title>Asset 61</title><g id="Layer_2" data-name="Layer 2"><g id="Layer_1-2" data-name="Layer 1"><path class="cls-1" d="M2096,832.74a67.58,67.58,0,0,1-10.58-9.86c-12.11-13.77-13.88-24.61-15.59-35.1-1.68-10.33-3.42-21-15.32-34.53a66.94,66.94,0,0,0-9.91-9.32c-8.87-7.48-17-9.9-24.84-12.25-7.26-2.16-14.7-4.39-22.76-10.47a73,73,0,0,1-7.6-7.51c-12.11-13.77-13.88-24.61-15.59-35.1-1.68-10.32-3.42-21-15.31-34.52l-.46.4c-.64-.78-1.31-1.57-2-2.38-11.9-13.52-22.26-16.61-32.29-19.6s-20.64-6.16-32.69-19.81-13.77-24.51-15.47-35-3.43-21-15.33-34.53l-.12-.13-.12-.15h0c-11.79-13.29-22.08-16.37-32-19.34-10.18-3-20.71-6.17-32.82-20s-13.88-24.61-15.59-35.1c-1.68-10.32-3.42-21-15.32-34.52S1742,407.4,1732,404.41c-10.19-3-20.72-6.18-32.83-20a74.9,74.9,0,0,1-5.15-6.53l1.31.09c-6.27-9.82-7.64-18.21-9-26.38-1.68-10.32-3.43-21-15.32-34.52h0c-.18-.21-.34-.41-.53-.62a66.53,66.53,0,0,0-9.4-8.93c-9.19-8.05-17.54-10.54-25.66-13-7.39-2.2-15-4.47-23.2-10.81a72.63,72.63,0,0,1-6.85-6.86c-12.11-13.77-13.88-24.62-15.59-35.1-1.68-10.33-3.43-21-15.32-34.53a66.42,66.42,0,0,0-9.91-9.32c-8.87-7.49-17-9.9-24.84-12.25-7.26-2.17-14.7-4.39-22.76-10.47a73,73,0,0,1-7.6-7.51c-12.11-13.77-13.88-24.61-15.59-35.1-1.68-10.33-3.42-21-15.32-34.53l-.45.41c-.64-.79-1.31-1.58-2-2.38-11.9-13.52-22.27-16.62-32.29-19.61S1423,70.4,1411,56.76s-13.76-24.51-15.47-35c-1.12-6.87-2.27-13.89-6.4-21.8H1154.46c8.78,11.65,10.35,21.23,11.87,30.53,1.68,10.33,3.42,21,15.32,34.53s22.26,16.62,32.29,19.61,20.63,6.16,32.69,19.81,13.77,24.51,15.47,35,3.43,21,15.32,34.53a1.59,1.59,0,0,1,.13.13l.12.15h0c11.78,13.28,22.08,16.36,32,19.33s20.54,6.13,32.53,19.63h0c12.11,13.77,13.88,24.62,15.59,35.1s3.42,21,15.31,34.53c1.25,1.41,2.47,2.71,3.69,3.91a61.47,61.47,0,0,0,6.52,5.71c8.88,7.5,17,9.91,24.85,12.26,7.26,2.17,14.7,4.39,22.75,10.47a66.68,66.68,0,0,1,5.15,4.85c.71.75,1.43,1.53,2.15,2.35,12.11,13.77,13.88,24.62,15.59,35.1,1.69,10.33,3.43,21,15.32,34.53s22.27,16.62,32.29,19.61c10.18,3,20.71,6.17,32.82,19.95s13.89,24.61,15.6,35.1c1.68,10.32,3.42,21,15.32,34.53h0c.18.2.34.4.52.61,11.89,13.53,22.26,16.62,32.29,19.61,10.18,3,20.71,6.17,32.82,19.94s13.88,24.62,15.59,35.1c1.68,10.33,3.42,21,15.32,34.53S1684,627.61,1694,630.6s20.63,6.16,32.69,19.81,13.77,24.51,15.48,35,3.42,21,15.31,34.53l.13.14.12.14h0c11.78,13.27,22.08,16.36,32,19.32,10.18,3,20.71,6.18,32.82,20s13.88,24.61,15.59,35.1c1.69,10.33,3.43,21,15.32,34.53a67.06,67.06,0,0,0,9.36,8.89c9.22,8.08,17.57,10.57,25.7,13,7.36,2.2,14.9,4.45,23.08,10.72a72.46,72.46,0,0,1,7,7c8.93,10.15,12.24,18.71,14,26.71.9.78,1.83,1.56,2.78,2.32.64,2.84,1.09,5.61,1.54,8.35,1.69,10.32,3.43,21,15.32,34.53v0l.52.62c11.9,13.52,22.26,16.62,32.29,19.61s20.71,6.17,32.82,19.94,13.88,24.62,15.59,35.1,3.43,21,15.32,34.53,22.26,16.62,32.29,19.61c8.78,2.62,17.81,5.32,27.9,14.83V839.16A55.88,55.88,0,0,1,2096,832.74Z"/><path class="cls-2" d="M2078.08,805c-17.74-3.09-27.76,1-37.45,4.95-9.84,4-20,8.15-38.08,5-17.16-3-25.39-9.77-32.94-16.52l-1.2-1.08c-7.78-7-15.83-14.22-33.57-17.32s-27.76,1-37.45,5c-9.84,4-20,8.16-38.08,5s-26.24-10.49-34.14-17.59-15.82-14.23-33.57-17.31l-.8-.15c-17.74-3.09-27.76,1-37.45,4.94s-20,8.16-38.08,5-26.24-10.49-34.14-17.59c-7.3-6.57-14.84-13.34-30.41-16.7-1-.22-2.07-.43-3.16-.62-17.74-3.09-27.76,1-37.45,4.94s-19.94,8.13-37.89,5-26.08-10.48-34-17.55-15.83-14.23-33.57-17.32l-.18,0-.19,0c-17.51-3-27.46,1.08-37.08,5-9.84,4-20,8.16-38.08,5s-26.24-10.49-34.15-17.59-15.82-14.23-33.57-17.32-27.76,1-37.44,4.94c-9.84,4-20,8.16-38.08,5s-26.24-10.49-34.14-17.59-15.83-14.22-33.57-17.3c-.27,0-.53-.11-.8-.15-17.74-3.1-27.76,1-37.45,4.94-9.84,4-20,8.16-38.08,5s-26.24-10.49-34.14-17.6-15.83-14.22-33.57-17.31-27.76,1-37.45,4.94-20,8.16-38.09,5c-22.23-3.87-32.45-20.89-51.87-29.84-16.89-7.77-36-5.4-52.69,1.41-9.84,4-20,8.16-38.08,5S829.75,606.09,821.85,599s-15.83-14.23-33.57-17.3l-.8-.16c-17.75-3.09-27.76,1-37.45,5s-20,8.15-38.08,5-26.24-10.5-34.14-17.6S662,559.67,644.24,556.58s-27.76,1-37.45,4.94-19.95,8.12-37.9,5S542.81,556.08,534.94,549s-15.83-14.23-33.58-17.32l-.18,0-.18,0c-17.51-3-27.47,1.07-37.09,5-9.84,4-20,8.15-38.08,5s-26.24-10.5-34.14-17.6-15.83-14.22-33.57-17.32-27.76,1-37.45,4.95c-9.84,4-20,8.16-38.08,5s-26.23-10.49-34.14-17.59-15.82-14.23-33.57-17.3l-.79-.16c-17.75-3.09-27.77,1-37.46,4.94s-20,8.16-38.08,5S112.31,481.09,104.41,474s-15.83-14.23-33.57-17.32-27.76,1-37.45,4.94c-8.95,3.65-18.2,7.4-33.39,5.68V637.84l2.89-1.17c9.69-3.95,19.71-8,37.45-4.94s25.79,10.32,33.57,17.32S90,663.49,108.05,666.64s28.24-1,38.08-5c9.69-4,19.71-8,37.46-4.94S209.38,667,217.16,674s16.07,14.45,34.14,17.58l.79.16c18.07,3.14,28.24-1,38.08-5,9.69-4,19.71-8,37.45-5h.06c17.7,3.1,25.74,10.32,33.51,17.31s16.06,14.43,34.08,17.58h.06c18.07,3.15,28.24-1,38.08-5,9.66-3.93,19.64-8,37.27-5S496.32,717,504.07,724c7.9,7.11,16.07,14.45,34.14,17.6l.18,0,.13,0h.06c17.83,3,27.94-1.08,37.71-5.06s19.7-8,37.44-5S639.52,742,647.3,749s16.08,14.45,34.15,17.59,28.24-1,38.08-5,19.7-8,37.45-4.94,25.79,10.32,33.57,17.32,16.08,14.44,34.15,17.58l.79.15c18.06,3.15,28.24-1,38.08-5,9.68-4,19.7-8,37.44-4.94h.07c17.69,3.1,25.73,10.32,33.5,17.3s16.06,14.43,34.08,17.59h.07c18.06,3.14,28.24-1,38.08-5,9.68-4,19.7-8,37.45-5l.06,0c17.7,3.09,25.73,10.31,33.51,17.3,20.34,18.28,46.75,21.19,71.63,11,9.69-4,19.7-8,37.45-5s25.79,10.33,33.57,17.32,16.08,14.45,34.15,17.58l.79.15c18.06,3.15,28.24-1,38.08-5,9.68-4,19.7-8,37.44-4.94h.07c17.69,3.1,25.73,10.32,33.5,17.31s16.06,14.42,34.08,17.58h.07c18.06,3.15,28.24-1,38.08-5,9.65-3.94,19.64-8,37.27-5s25.63,10.31,33.38,17.28,16.08,14.45,34.14,17.59l.19,0,.12,0h.06c17.83,3,27.94-1.08,37.71-5.07s19.71-8,37.45-4.94,25.79,10.32,33.57,17.32,16.07,14.44,34.14,17.59,28.24-1,38.08-5,19.71-8,37.45-4.94,25.79,10.32,33.58,17.31S1810,961.73,1828,964.86l.79.16c10.12,1.76,17.77,1.23,24.26-.28a88.16,88.16,0,0,0,13.82-4.74c9.69-3.94,19.71-8,37.45-4.94h.06c17.7,3.1,25.74,10.32,33.51,17.31S1954,986.81,1972,990h.06c18.07,3.15,28.24-1,38.08-5,9.69-4,19.71-8,37.45-4.94h.06c17.7,3.1,25.74,10.32,33.51,17.31,6.93,6.23,14.07,12.64,27.91,16.24V820C2102,813.74,2093.87,807.71,2078.08,805Z"/><path class="cls-3" d="M2094.72,596.11c-9.84,4-20,8.16-38.08,5s-26.24-10.49-34.14-17.59-15.83-14.23-33.57-17.32-27.76,1-37.45,4.94-20,8.16-38.08,5-26.24-10.49-34.14-17.59-15.83-14.23-33.57-17.3l-.8-.16c-17.74-3.09-27.76,1-37.45,4.95-9.84,4-20,8.15-38.08,5s-26.24-10.5-34.14-17.6-15.83-14.22-33.57-17.31c-2.24-.39-4.35-.67-6.35-.84-13.91-1.23-22.63,2.33-31.1,5.78-9.81,4-20,8.12-37.89,5s-26.09-10.48-34-17.56-15.83-14.22-33.57-17.32l-.19,0-.18,0c-17.51-3-27.47,1.07-37.09,5-9.83,4-20,8.15-38.08,5-15.44-2.69-23.65-8.45-30.64-14.5-1.19-1-2.35-2.07-3.5-3.1-7.78-7-15.83-14.22-33.57-17.31s-27.76,1-37.45,4.94-20,8.16-38.08,5-26.23-10.49-34.13-17.59-15.83-14.23-33.58-17.3l-.79-.16c-17.75-3.09-27.77,1-37.45,4.94-9.84,4-20,8.16-38.09,5s-26.23-10.49-34.14-17.59-15.82-14.23-33.57-17.32-27.76,1-37.45,4.95-20,8.15-38.07,5-26.24-10.49-34.14-17.59c-20.33-18.28-45.57-21-70.44-10.84-9.84,4-20,8.16-38.08,5s-26.23-10.49-34.13-17.6-15.83-14.22-33.58-17.3l-.79-.15c-17.75-3.09-27.77,1-37.45,4.94-9.84,4-20,8.16-38.09,5S739.8,367.2,731.89,360.1s-15.83-14.23-33.57-17.32-27.76,1-37.45,4.94-19.94,8.13-37.89,5-26.08-10.48-34-17.56S573.2,321,555.45,317.89l-.18,0-.18,0c-17.51-3-27.47,1.08-37.09,5-9.84,4-20,8.16-38.08,5s-26.24-10.49-34.14-17.59S430,296,412.21,292.93s-27.76,1-37.45,4.94-20,8.16-38.08,5-26.24-10.49-34.14-17.59S286.72,271.07,269,268l-.8-.16c-17.74-3.09-27.76,1-37.45,4.95-9.84,4-20,8.16-38.08,5s-26.24-10.49-34.14-17.6S142.67,246,124.93,242.88s-27.76,1-37.45,4.94c-9.84,4-20,8.16-38.08,5s-26.24-10.49-34.14-17.59c-4.42-4-8.93-8-15.26-11.36v197.8a61.89,61.89,0,0,0,18.9,6.21c18.07,3.15,28.24-1,38.08-5s19.71-8,37.45-4.95,25.79,10.33,33.57,17.32,16.07,14.45,34.14,17.6,28.24-1,38.08-5c9.69-4,19.71-8,37.45-4.95s25.79,10.33,33.57,17.32,16.08,14.45,34.15,17.58l.79.15c18.07,3.15,28.24-1,38.08-5s19.7-8,37.45-4.94h.06c17.7,3.1,25.74,10.32,33.51,17.3s16.05,14.43,34.08,17.59h.06c18.07,3.15,28.24-1,38.08-5,9.65-3.94,19.64-8,37.27-5s25.63,10.31,33.39,17.28,16.07,14.44,34.13,17.59l.19,0,.12,0h.07c17.83,3,27.93-1.09,37.7-5.07s19.71-8,37.45-4.94,25.79,10.32,33.57,17.31,16.08,14.45,34.14,17.6,28.25-1,38.08-5,19.71-8,37.46-4.94,25.79,10.32,33.57,17.31,16.07,14.45,34.14,17.58l.79.16c18.07,3.14,28.24-1,38.08-5s19.71-8,37.45-4.94h.06c17.7,3.1,25.74,10.32,33.51,17.31s16.06,14.43,34.08,17.58h.06c18.07,3.15,28.24-1,38.08-5,9.69-3.95,19.71-8,37.46-4.94h.06c17.69,3.1,25.73,10.32,33.5,17.3a65.69,65.69,0,0,0,53.39,16.39c20.12-2.8,34.46-14,55.7-10.28,17.74,3.09,25.79,10.32,33.57,17.32s16.07,14.44,34.14,17.57l.79.16c18.07,3.15,28.24-1,38.08-5s19.71-8,37.45-4.95l.06,0c17.7,3.09,25.74,10.32,33.51,17.3s16.06,14.43,34.08,17.58h.06c18.07,3.15,28.24-1,38.08-5,9.66-3.93,19.64-8,37.27-5s25.64,10.32,33.39,17.29c7.9,7.1,16.07,14.44,34.14,17.59l.18,0,.13,0h.06c17.83,3,27.94-1.09,37.71-5.07,2.35-1,4.73-1.93,7.23-2.8,7.78-2.71,16.79-4.49,30.22-2.15,17.74,3.1,25.78,10.33,33.57,17.32s16.07,14.45,34.14,17.6,28.24-1,38.08-5c9.69-4,19.71-8,37.45-4.94s25.79,10.33,33.57,17.32,16.08,14.45,34.15,17.58l.79.15a61.28,61.28,0,0,0,20.89.39c6.58-1.09,11.94-3.26,17.19-5.4,9.68-4,19.7-8,37.44-4.94h.07c17.69,3.1,25.73,10.32,33.5,17.3s16.06,14.43,34.08,17.59h.07c18.06,3.15,28.24-1,38.08-5s19.7-8,37.45-4.94h.06a71.23,71.23,0,0,1,7.33,1.67V591.29A84.59,84.59,0,0,0,2094.72,596.11Z"/></g></g></svg>