<svg width="375" height="159" viewBox="0 0 375 159" fill="none" xmlns="http://www.w3.org/2000/svg">
<path d="M684 113.681V17.9445C669.56 17.9445 662.249 13.3498 655.164 8.89988C648.08 4.44994 640.986 0 626.816 0C612.647 0 605.399 4.5223 598.468 8.90892C591.537 13.2956 584.028 17.9535 569.587 17.9535C555.147 17.9535 547.846 13.3589 540.761 8.90892C533.676 4.45898 526.627 0 512.44 0C498.252 0 491.068 4.5223 484.091 8.89988C477.115 13.2775 469.651 17.9445 455.265 17.9445C440.879 17.9445 433.523 13.3498 426.438 8.89988C419.353 4.44994 412.26 0 398.108 0H397.467C383.307 0 376.096 4.5223 369.119 8.90892C362.143 13.2956 354.679 17.9535 340.293 17.9535C325.906 17.9535 318.542 13.3589 311.412 8.90892C304.282 4.45898 297.278 0 283.109 0C268.939 0 261.737 4.5223 254.76 8.89988C247.784 13.2775 240.41 17.9445 226.087 17.9445C211.764 17.9445 204.427 13.3317 197.405 8.89988C190.384 4.46803 183.218 0 169.057 0H168.759C154.797 0.0633122 147.631 4.5223 140.7 8.89988C133.624 13.3408 126.259 17.9445 111.873 17.9445C97.487 17.9445 90.1224 13.3498 83.0467 8.89988C75.9709 4.44994 68.859 0 54.6985 0C40.5379 0 33.3177 4.5223 26.3502 8.89988C19.3828 13.2775 11.9099 17.9445 -2.47632 17.9445C-16.8625 17.9445 -24.2271 13.3498 -31.3029 8.89988C-38.3787 4.44994 -45.4905 0 -59.6511 0H-60.2919C-74.4615 0 -81.6726 4.5223 -88.6401 8.90892C-95.6076 13.2956 -103.08 17.9535 -117.476 17.9535C-131.871 17.9535 -139.217 13.3589 -146.302 8.90892C-153.387 4.45898 -160.49 0 -174.65 0C-188.811 0 -196.04 4.5223 -202.999 8.89988C-209.957 13.2775 -217.439 17.9445 -231.825 17.9445C-246.211 17.9445 -253.576 13.3498 -260.652 8.89988C-267.728 4.44994 -274.839 0 -289 0V139.151V140.056C-274.839 140.056 -267.628 144.578 -260.652 148.964C-253.675 153.351 -246.211 158.009 -231.825 158.009C-217.439 158.009 -210.083 153.414 -202.999 148.964C-195.914 144.515 -188.811 140.065 -174.65 140.065C-160.49 140.065 -153.279 144.587 -146.302 148.964C-139.326 153.342 -131.862 158.009 -117.476 158.009C-103.089 158.009 -95.7249 153.414 -88.6401 148.964C-81.5553 144.515 -74.4615 140.056 -60.2919 140.056C-46.1223 140.056 -38.9202 144.578 -31.9437 148.955C-24.9672 153.333 -17.5033 158 -3.11713 158H-2.47632C11.964 158 19.2654 153.405 26.3502 148.955C33.435 144.505 40.5288 140.056 54.6985 140.056H54.7436C68.877 140.056 76.0792 144.578 83.0467 148.955C90.0141 153.333 97.4328 158 111.819 158H111.873C126.314 158 133.624 153.405 140.7 148.955C147.776 144.505 154.842 140.083 168.913 140.046C182.983 140.01 190.167 144.569 197.107 148.955C204.192 153.396 211.548 158 225.934 158H226.232C240.456 157.937 247.73 153.378 254.76 148.955C261.791 144.533 268.948 140.056 283.109 140.056C297.269 140.056 304.489 144.578 311.457 148.955C318.424 153.333 325.897 158 340.338 158C354.778 158 362.079 153.405 369.164 148.955C376.249 144.505 383.352 140.046 397.512 140.046C411.673 140.046 418.893 144.569 425.87 148.946C432.846 153.324 440.31 157.991 454.696 157.991H455.328C469.768 157.991 477.07 153.396 484.154 148.946C491.239 144.496 498.342 140.046 512.503 140.046H512.557C526.681 140.046 533.883 144.569 540.851 148.946C547.818 153.324 555.237 157.991 569.632 157.991C584.073 157.991 591.383 153.396 598.513 148.946C605.643 144.496 612.692 140.037 626.861 140.037H626.915C641.04 140.037 648.251 144.56 655.209 148.937C662.168 153.315 669.605 157.982 683.991 157.982H684.045V157.077V113.663L684 113.681Z" fill="#E2AC9C"/>
</svg>
