<?xml version="1.0" encoding="utf-8"?>
<!-- Generator: Adobe Illustrator 23.1.1, SVG Export Plug-In . SVG Version: 6.00 Build 0)  -->
<svg version="1.1" id="Layer_1" xmlns="http://www.w3.org/2000/svg" xmlns:xlink="http://www.w3.org/1999/xlink" x="0px" y="0px"
	 viewBox="0 0 1440 121" style="enable-background:new 0 0 1440 121;" xml:space="preserve">
<style type="text/css">
	.st0{fill:#E2AC9C;}
	.st1{opacity:1.000000e-02;fill:#FFFFFF;}
</style>
<g>
	<path class="st0" d="M647.8,5.2L647.8,5.2c-4.1-2.6-8.3-5.2-16.6-5.2h-0.4c-8.3,0-12.6,2.7-16.6,5.2l0,0c-4,2.5-8.2,5.1-16.3,5.1
		c-8.2,0-12.3-2.6-16.3-5.1l0,0c-4.1-2.6-8.3-5.2-16.6-5.2c-1.4,0-2.7,0.1-3.9,0.2V0h0c-8.3,0-12.6,2.7-16.6,5.2
		c-3.7,2.3-7.4,4.7-14.3,5.1c-7-0.3-10.8-2.7-14.6-5.1C511.5,2.6,507.3,0,499,0c-0.7,0-1.4,0-2,0.1c-0.6,0-1.2,0-1.9,0
		c-8.3,0-12.6,2.7-16.6,5.2l0,0c-4,2.5-8.2,5.1-16.3,5.1h0c-8.2,0-12.3-2.6-16.3-5.1l0,0c-4.1-2.6-8.3-5.2-16.6-5.2h-0.4
		c-8.3,0-12.6,2.7-16.6,5.2c-4,2.5-8.2,5.1-16.3,5.1c-8.2,0-12.3-2.6-16.3-5.1l0,0c-4.1-2.6-8.3-5.2-16.6-5.2
		c-8.3,0-12.6,2.7-16.7,5.2c-4,2.5-8.2,5.1-16.3,5.1c-8.2,0-12.3-2.6-16.3-5.1c-4.1-2.5-8.2-5.2-16.4-5.2h-0.2
		c-8.3,0-12.5,2.7-16.6,5.2l0,0c-4,2.5-8.1,5.1-16.2,5.1c-8.1,0-12.2-2.6-16.3-5.1c-4.1-2.6-8.3-5.2-16.6-5.2h0
		c-8.3,0-12.6,2.7-16.6,5.2l0,0c-4,2.5-8.2,5.1-16.3,5.1h0c-8.2,0-12.3-2.6-16.3-5.1l0,0c-4.1-2.6-8.3-5.2-16.6-5.2h-0.4
		c-8.3,0-12.6,2.7-16.6,5.2l0,0c-4,2.5-8.2,5.1-16.3,5.1c-8.2,0-12.3-2.6-16.3-5.1l0,0C111.4,2.6,107.2,0,98.9,0
		c-8.3,0-12.6,2.7-16.6,5.2c-4,2.5-8.2,5.1-16.3,5.1c-8.2,0-12.3-2.6-16.3-5.1C45.5,2.6,41.3,0,33,0S20.4,2.7,16.3,5.2
		c-4,2.5-8.2,5.1-16.3,5.1v0.5V121c8.2,0,12.3-2.6,16.3-5.1c4.1-2.6,8.3-5.2,16.6-5.2s12.6,2.7,16.6,5.2c4,2.5,8.2,5.1,16.3,5.1
		c8.2,0,12.3-2.6,16.3-5.1c4.1-2.6,8.3-5.2,16.6-5.2c8.3,0,12.6,2.7,16.6,5.2c4,2.5,8.2,5.1,16.3,5.1h0.4c8.2,0,12.3-2.6,16.3-5.1
		c4.1-2.6,8.3-5.2,16.6-5.2c8.3,0,12.6,2.7,16.6,5.2c4,2.5,8.2,5.1,16.3,5.1c8.2,0,12.3-2.6,16.3-5.1s8.3-5.2,16.6-5.2
		c8.3,0,12.5,2.7,16.6,5.2c4,2.5,8.1,5.1,16.2,5.1h0.2c8.2,0,12.3-2.6,16.3-5.1c4-2.6,8.3-5.2,16.5-5.2c8.2,0,12.5,2.7,16.5,5.2
		l0.1,0l0,0c4,2.5,8.2,5.1,16.3,5.1c8.1,0,12.1-2.5,16.2-5.1l0.1-0.1c4.1-2.6,8.4-5.2,16.7-5.2c8.3,0,12.6,2.7,16.6,5.2
		c4,2.5,8.2,5.1,16.3,5.1h0.4c8.2,0,12.2-2.6,16.3-5.1c4.1-2.6,8.3-5.2,16.6-5.2c8.3,0,12.6,2.7,16.6,5.2l0,0
		c4,2.5,8.2,5.1,16.3,5.1c1.4,0,2.7-0.1,3.9-0.2v0.2c8.2,0,12.3-2.6,16.3-5.1c3.8-2.4,7.6-4.8,14.7-5.2c7,0.4,11,2.8,14.6,5.2
		c4,2.5,8.2,5.1,16.3,5.1c0.7,0,1.3,0,2-0.1c0.6,0,1.3,0.1,1.9,0.1c8.2,0,12.3-2.6,16.3-5.1c4.1-2.6,8.3-5.2,16.6-5.2
		c8.3,0,12.6,2.7,16.6,5.2c4,2.5,8.2,5.1,16.3,5.1h0.4c8.2,0,12.3-2.6,16.3-5.1c4.1-2.6,8.3-5.2,16.6-5.2c8.3,0,12.6,2.7,16.6,5.2
		c1.3,0.8,2.7,1.7,4.2,2.4V7.6C650.5,6.9,649.2,6.1,647.8,5.2z"/>
	<path class="st1" d="M1427.1,0c-8.3,0-12.6,2.7-16.6,5.2l0,0c-4,2.5-8.2,5.1-16.3,5.1h0c-8.2,0-12.3-2.6-16.3-5.1l0,0
		c-4.1-2.6-8.3-5.2-16.6-5.2h-0.4c-8.3,0-12.6,2.7-16.6,5.2c-4,2.5-8.2,5.1-16.4,5.1c-8.2,0-12.3-2.6-16.3-5.1l0,0
		c-4.1-2.6-8.3-5.2-16.6-5.2c-8.3,0-12.6,2.7-16.7,5.2c-4,2.5-8.2,5.1-16.3,5.1c-8.2,0-12.3-2.6-16.3-5.1c-4.1-2.5-8.2-5.2-16.4-5.2
		h-0.2c-8.3,0-12.5,2.7-16.6,5.2l0,0c-4,2.5-8.1,5.1-16.2,5.1c-8.1,0-12.2-2.6-16.3-5.1c-4.1-2.6-8.3-5.2-16.6-5.2h0
		c-8.3,0-12.6,2.7-16.6,5.2l0,0c-4,2.5-8.2,5.1-16.3,5.1h0c-8.2,0-12.3-2.6-16.4-5.1l0,0c-4.1-2.6-8.3-5.2-16.6-5.2h-0.4
		c-8.3,0-12.6,2.7-16.6,5.2v0c-4,2.5-8.2,5.1-16.3,5.1c-8.2,0-12.3-2.6-16.3-5.1l0,0c-4.1-2.6-8.3-5.2-16.6-5.2
		c-1.4,0-2.7,0.1-3.9,0.2V0h0c-8.3,0-12.6,2.7-16.6,5.2c-3.7,2.3-7.4,4.7-14.3,5.1c-7-0.3-10.8-2.7-14.6-5.1
		C977.5,2.6,973.3,0,965,0c-0.7,0-1.4,0-2,0.1c-0.6,0-1.2,0-1.9,0c-8.3,0-12.6,2.7-16.6,5.2l0,0c-4,2.5-8.2,5.1-16.3,5.1h0
		c-8.2,0-12.3-2.6-16.3-5.1l0,0c-4.1-2.6-8.3-5.2-16.6-5.2h-0.4c-8.3,0-12.6,2.7-16.6,5.2c-4,2.5-8.2,5.1-16.3,5.1
		c-8.2,0-12.3-2.6-16.3-5.1l0,0c-4.1-2.6-8.3-5.2-16.6-5.2c-8.3,0-12.6,2.7-16.7,5.2c-4,2.5-8.2,5.1-16.3,5.1
		c-8.2,0-12.3-2.6-16.3-5.1c-4.1-2.5-8.2-5.2-16.4-5.2h-0.2c-8.3,0-12.5,2.7-16.6,5.2l0,0c-4,2.5-8.1,5.1-16.2,5.1
		c-8.1,0-12.2-2.6-16.3-5.1c-4.1-2.6-8.3-5.2-16.6-5.2h0c-8.3,0-12.6,2.7-16.6,5.2l0,0c-4,2.5-8.2,5.1-16.3,5.1h0
		c-5.5,0-9.1-1.2-12.2-2.7v110.7c3,1.5,6.7,2.7,12.2,2.7c8.2,0,12.3-2.6,16.3-5.1s8.3-5.2,16.6-5.2c8.3,0,12.5,2.7,16.6,5.2
		c4,2.5,8.1,5.1,16.2,5.1h0.2c8.2,0,12.3-2.6,16.3-5.1c4-2.6,8.3-5.2,16.5-5.2c8.2,0,12.5,2.7,16.5,5.2l0.1,0l0,0
		c4,2.5,8.2,5.1,16.3,5.1c8.1,0,12.1-2.5,16.2-5.1l0.1-0.1c4.1-2.6,8.4-5.2,16.7-5.2c8.3,0,12.6,2.7,16.6,5.2
		c4,2.5,8.2,5.1,16.3,5.1h0.4c8.2,0,12.2-2.6,16.3-5.1c4.1-2.6,8.3-5.2,16.6-5.2c8.3,0,12.6,2.7,16.6,5.2l0,0
		c4,2.5,8.2,5.1,16.3,5.1c1.4,0,2.7-0.1,3.9-0.2v0.2c8.2,0,12.3-2.6,16.3-5.1c3.8-2.4,7.6-4.8,14.7-5.2c7,0.4,11,2.8,14.6,5.2
		c4,2.5,8.2,5.1,16.3,5.1c0.7,0,1.3,0,2-0.1c0.6,0,1.3,0.1,1.9,0.1c8.2,0,12.3-2.6,16.3-5.1c4.1-2.6,8.3-5.2,16.6-5.2
		c8.3,0,12.6,2.7,16.6,5.2c4,2.5,8.2,5.1,16.3,5.1h0.4c8.2,0,12.3-2.6,16.3-5.1c4.1-2.6,8.3-5.2,16.6-5.2c8.3,0,12.6,2.7,16.6,5.2
		c4,2.5,8.2,5.1,16.4,5.1c8.2,0,12.3-2.6,16.3-5.1s8.3-5.2,16.6-5.2c8.3,0,12.5,2.7,16.6,5.2c4,2.5,8.1,5.1,16.2,5.1h0.2
		c8.2,0,12.3-2.6,16.3-5.1c4-2.6,8.3-5.2,16.5-5.2c8.2,0,12.5,2.7,16.5,5.2l0.1,0l0,0c4,2.5,8.2,5.1,16.3,5.1
		c8.1,0,12.1-2.5,16.2-5.1l0.1-0.1c4.1-2.6,8.3-5.2,16.6-5.2c8.3,0,12.6,2.7,16.6,5.2c4,2.5,8.2,5.1,16.3,5.1h0.4
		c8.2,0,12.2-2.6,16.3-5.1c4.1-2.6,8.3-5.2,16.6-5.2c8.3,0,12.6,2.7,16.6,5.2l0,0c4,2.5,8.2,5.1,16.3,5.1c8.2,0,12.2-2.5,16.3-5.1
		l0,0l0,0c4.1-2.6,8.3-5.2,16.6-5.2c5.9,0,9.8,1.3,13,3V3C1436.8,1.3,1433,0,1427.1,0z"/>
</g>
</svg>
