<?xml version="1.0" encoding="utf-8"?>
<!-- Generator: Adobe Illustrator 23.1.1, SVG Export Plug-In . SVG Version: 6.00 Build 0)  -->
<svg version="1.1" id="Layer_1" xmlns="http://www.w3.org/2000/svg" xmlns:xlink="http://www.w3.org/1999/xlink" x="0px" y="0px"
	 viewBox="0 0 1180.4 135" style="enable-background:new 0 0 1180.4 135;" xml:space="preserve">
<style type="text/css">
	.st0{fill:#E2AC9C;}
	.st1{opacity:1.000000e-02;fill:#FFFFFF;}
</style>
<g>
	<path class="st0" d="M931.4,15.3c-12.3,0-18.6-3.9-24.8-7.7C900.5,3.8,894.5,0,882.4,0c-12.1,0-18.3,3.9-24.3,7.6
		c-6,3.7-12.3,7.7-24.4,7.7c-12.1-0.1-18.4-4-24.4-7.7C803.2,3.8,797.1,0,785,0c0,0-0.1,0-0.1,0c-0.1,0-0.2,0-0.3,0h-0.3
		c-12,0.1-18.1,3.9-24.1,7.6c-6.1,3.8-12.4,7.7-24.7,7.7c-0.7,0-1.4,0-2.1,0c-10.8-0.5-16.7-4.1-22.3-7.7C705.2,3.8,699.1,0,686.9,0
		c0,0,0,0-0.1,0c-0.1,0-0.2,0-0.3,0c-12.1,0-18.3,3.9-24.3,7.6c-6,3.7-12.4,7.7-24.6,7.7c-12.1-0.1-18.4-3.9-24.4-7.7
		C607.2,3.8,601.1,0,589,0h-0.2c-0.1,0-0.1,0-0.2,0H588c-12.1,0-18.3,3.9-24.3,7.6c-6,3.7-12.3,7.7-24.6,7.7
		c-12.1-0.1-18.4-4-24.5-7.7C508.5,3.8,502.5,0,490.4,0c0,0-0.1,0-0.1,0c-0.1,0-0.2,0-0.3,0c-12.1,0-18.3,3.9-24.3,7.6
		c-5.9,3.7-12.3,7.7-24.6,7.7c-12-0.1-18.3-4-24.2-7.7c-6-3.8-12.2-7.6-24.3-7.6h-0.3c0,0,0,0-0.1,0c-0.1,0-0.2,0-0.3,0v0
		c-11.7,0.1-17.8,3.9-23.7,7.6c-6.1,3.8-12.4,7.7-24.7,7.7s-18.6-3.9-24.7-7.7C312.8,3.8,306.7,0,294.6,0c-12.1,0-18.3,3.9-24.3,7.6
		c-6,3.7-12.4,7.7-24.7,7.7c-12.3,0-18.6-3.9-24.7-7.7C214.8,3.8,208.7,0,196.6,0H196c-12.1,0-18.3,3.9-24.3,7.6s-12.4,7.7-24.7,7.7
		s-18.6-3.9-24.7-7.7C116.2,3.8,110.2,0,98,0C85.9,0,79.7,3.9,73.7,7.6c-6,3.7-12.4,7.7-24.7,7.7c-12.3,0-18.6-3.9-24.7-7.7
		C18.2,3.8,12.1,0,0,0v118.9v0.8c12.1,0,18.3,3.9,24.3,7.6c6,3.7,12.4,7.7,24.7,7.7c12.3,0,18.6-3.9,24.7-7.7s12.2-7.6,24.3-7.6
		c12.1,0,18.3,3.9,24.3,7.6c6,3.7,12.4,7.7,24.7,7.7s18.6-3.9,24.7-7.7s12.2-7.6,24.3-7.6c12.1,0,18.3,3.9,24.3,7.6
		c6,3.7,12.4,7.7,24.7,7.7h0.5c12.4,0,18.6-3.9,24.7-7.7c6.1-3.8,12.2-7.6,24.3-7.6h0c12.1,0,18.3,3.9,24.3,7.6
		c6,3.7,12.3,7.7,24.7,7.7h0c12.4,0,18.6-3.9,24.7-7.7c6-3.8,12-7.5,23.9-7.6c12,0,18.2,3.9,24.1,7.6c6,3.7,12.4,7.7,24.7,7.7
		c0.1,0,0.2,0,0.3,0c0,0,0.1,0,0.1,0h0.3c12.2-0.1,18.4-3.9,24.5-7.7c6-3.8,12.1-7.5,24-7.6c12.1,0,18.2,3.9,24.2,7.6
		c6,3.7,12.4,7.7,24.7,7.7c0.1,0,0.2,0,0.3,0c0,0,0.1,0,0.1,0c12.4,0,18.6-3.9,24.7-7.7c6-3.8,12.1-7.5,24-7.6
		c12.1,0,18.2,3.9,24.2,7.6c6,3.7,12.4,7.7,24.7,7.7h0.5c0.1,0,0.1,0,0.2,0h0.2c12.4,0,18.6-3.9,24.7-7.7c6-3.8,12.1-7.5,24-7.6
		c12.1,0,18.2,3.9,24.2,7.6c6,3.7,12.3,7.7,24.7,7.7h0c0.1,0,0.2,0,0.3,0c0,0,0.1,0,0.1,0c12.4,0,18.6-3.9,24.8-7.7
		c6-3.8,12-7.5,23.9-7.6c11.9,0,18.1,3.9,24,7.6c6.1,3.8,12.4,7.7,24.7,7.7h0.3c12.2-0.1,18.4-3.9,24.5-7.7c6-3.8,12.2-7.6,24.3-7.6
		s18.3,3.9,24.3,7.6s12.4,7.7,24.8,7.7c0.9,0,1.8,0,2.6-0.1V15.3C933.2,15.3,932.3,15.3,931.4,15.3z"/>
	<path class="st1" d="M980.4,119.7c12.1,0,18.3,3.9,24.3,7.6c6,3.7,12.4,7.7,24.7,7.7h0.5c12.4,0,18.6-3.9,24.7-7.7
		s12.2-7.6,24.3-7.6h0c12.1,0,18.3,3.9,24.3,7.6c6,3.7,12.3,7.7,24.7,7.7c12.4,0,18.6-3.9,24.8-7.7c6.1-3.8,12.2-7.6,24.3-7.6h0
		c1.2,0,2.3,0,3.3,0.1V0.1c-1.1-0.1-2.2-0.1-3.4-0.1c-12.1,0-18.4,3.9-24.3,7.6c-5.9,3.7-12.4,7.7-24.8,7.7s-18.6-3.9-24.7-7.7
		c-6.1-3.8-12.1-7.6-24.3-7.6s-18.3,3.9-24.3,7.6c-6,3.7-12.4,7.7-24.7,7.7c-12.3,0-18.6-3.9-24.7-7.7C999.2,3.8,993.1,0,981,0h-0.5
		c-12.1,0-18.3,3.9-24.3,7.6c-5.5,3.5-11.4,7.1-22.1,7.7v119.7c10.7-0.5,16.5-4.1,22.1-7.7C962.2,123.5,968.3,119.7,980.4,119.7z"/>
</g>
</svg>
