<svg width="834" height="135" viewBox="0 0 834 135" fill="none" xmlns="http://www.w3.org/2000/svg">
<path d="M834 97.1329V15.3323C821.622 15.3323 815.357 11.4065 809.284 7.60433C803.211 3.80216 797.131 0 784.985 0C772.84 0 766.628 3.86399 760.687 7.61206C754.746 11.3601 748.309 15.34 735.932 15.34C723.555 15.34 717.296 11.4142 711.223 7.61206C705.151 3.80989 699.109 0 686.948 0C674.787 0 668.63 3.86399 662.65 7.60433C656.67 11.3447 650.272 15.3323 637.941 15.3323C625.61 15.3323 619.305 11.4065 613.233 7.60433C607.16 3.80216 601.08 0 588.95 0H588.401C576.263 0 570.082 3.86399 564.102 7.61206C558.122 11.3601 551.725 15.34 539.394 15.34C527.063 15.34 520.75 11.4142 514.639 7.61206C508.527 3.80989 502.524 0 490.379 0C478.234 0 472.06 3.86399 466.08 7.60433C460.101 11.3447 453.78 15.3323 441.503 15.3323C429.227 15.3323 422.937 11.391 416.919 7.60433C410.9 3.81762 404.758 0 392.62 0H392.365C380.398 0.0540958 374.255 3.86399 368.314 7.60433C362.249 11.3988 355.937 15.3323 343.606 15.3323C331.275 15.3323 324.962 11.4065 318.897 7.60433C312.832 3.80216 306.736 0 294.599 0C282.461 0 276.272 3.86399 270.3 7.60433C264.328 11.3447 257.923 15.3323 245.592 15.3323C233.261 15.3323 226.948 11.4065 220.883 7.60433C214.818 3.80216 208.722 0 196.585 0H196.036C183.89 0 177.709 3.86399 171.737 7.61206C165.765 11.3601 159.36 15.34 147.021 15.34C134.682 15.34 128.385 11.4142 122.312 7.61206C116.24 3.80989 110.152 0 98.0139 0C85.8763 0 79.6798 3.86399 73.7154 7.60433C67.751 11.3447 61.338 15.3323 49.0069 15.3323C36.6759 15.3323 30.3634 11.4065 24.2985 7.60433C18.2335 3.80216 12.1376 0 0 0V118.895V119.668C12.1376 119.668 18.3186 123.532 24.2985 127.28C30.2783 131.028 36.6759 135.008 49.0069 135.008C61.338 135.008 67.6427 131.082 73.7154 127.28C79.7881 123.478 85.8763 119.675 98.0139 119.675C110.152 119.675 116.333 123.539 122.312 127.28C128.292 131.02 134.69 135.008 147.021 135.008C159.352 135.008 165.664 131.082 171.737 127.28C177.81 123.478 183.89 119.668 196.036 119.668C208.181 119.668 214.354 123.532 220.334 127.272C226.314 131.012 232.711 135 245.042 135H245.592C257.969 135 264.228 131.074 270.3 127.272C276.373 123.47 282.453 119.668 294.599 119.668H294.637C306.752 119.668 312.925 123.532 318.897 127.272C324.869 131.012 331.228 135 343.559 135H343.606C355.983 135 362.249 131.074 368.314 127.272C374.379 123.47 380.436 119.691 392.497 119.66C404.557 119.629 410.715 123.524 416.663 127.272C422.736 131.066 429.041 135 441.372 135H441.627C453.819 134.946 460.054 131.051 466.08 127.272C472.107 123.493 478.241 119.668 490.379 119.668C502.517 119.668 508.705 123.532 514.677 127.272C520.649 131.012 527.055 135 539.432 135C551.81 135 558.068 131.074 564.141 127.272C570.213 123.47 576.302 119.66 588.439 119.66C600.577 119.66 606.766 123.524 612.745 127.264C618.725 131.005 625.123 134.992 637.454 134.992H637.995C650.373 134.992 656.631 131.066 662.704 127.264C668.777 123.462 674.865 119.66 687.002 119.66H687.049C699.155 119.66 705.329 123.524 711.301 127.264C717.273 131.005 723.632 134.992 735.971 134.992C748.348 134.992 754.614 131.066 760.726 127.264C766.837 123.462 772.879 119.652 785.024 119.652H785.07C797.177 119.652 803.358 123.516 809.322 127.257C815.287 130.997 821.661 134.985 833.992 134.985H834.039V134.212V97.1175L834 97.1329Z" fill="#E2AC9C"/>
</svg>
