<?xml version="1.0" encoding="utf-8"?>
<!-- Generator: Adobe Illustrator 23.1.1, SVG Export Plug-In . SVG Version: 6.00 Build 0)  -->
<svg version="1.1" id="Layer_1" xmlns="http://www.w3.org/2000/svg" xmlns:xlink="http://www.w3.org/1999/xlink" x="0px" y="0px"
	 viewBox="0 0 1440 121" style="enable-background:new 0 0 1440 121;" xml:space="preserve">
<style type="text/css">
	.st0{fill:#E2AC9C;}
</style>
<g>
	<path class="st0" d="M646.8,5.2c-4.1-2.6-8.3-5.2-16.6-5.2h-0.4c-8.3,0-12.6,2.7-16.6,5.2s-8.2,5.1-16.3,5.1
		c-8.2,0-12.3-2.6-16.3-5.1C576.5,2.6,572.3,0,564,0c-1.4,0-2.7,0.1-3.9,0.2V0c-8.3,0-12.6,2.7-16.6,5.2c-3.7,2.3-7.4,4.7-14.3,5.1
		c-7-0.3-10.8-2.7-14.6-5.1C510.5,2.6,506.3,0,498,0c-0.7,0-1.4,0-2,0.1c-0.6,0-1.2,0-1.9,0c-8.3,0-12.6,2.7-16.6,5.2
		s-8.2,5.1-16.3,5.1c-8.2,0-12.3-2.6-16.3-5.1c-4.1-2.6-8.3-5.2-16.6-5.2h-0.4c-8.3,0-12.6,2.7-16.6,5.2s-8.2,5.1-16.3,5.1
		c-8.2,0-12.3-2.6-16.3-5.1c-4.1-2.6-8.3-5.2-16.6-5.2c-8.3,0-12.6,2.7-16.7,5.2c-4,2.5-8.2,5.1-16.3,5.1c-8.2,0-12.3-2.6-16.3-5.1
		c-4.1-2.5-8.2-5.2-16.4-5.2h-0.2c-8.3,0-12.5,2.7-16.6,5.2c-4,2.5-8.1,5.1-16.2,5.1c-8.1,0-12.2-2.6-16.3-5.1
		c-4.1-2.6-8.3-5.2-16.6-5.2c-8.3,0-12.6,2.7-16.6,5.2s-8.2,5.1-16.3,5.1c-8.2,0-12.3-2.6-16.3-5.1c-4.1-2.6-8.3-5.2-16.6-5.2h-0.4
		c-8.3,0-12.6,2.7-16.6,5.2s-8.2,5.1-16.3,5.1c-8.2,0-12.3-2.6-16.3-5.1C111,3,107.3,0.7,101,0.1v110.7c6.2,0.6,9.9,2.9,13.3,5
		c4,2.5,8.2,5.1,16.3,5.1h0.4c8.2,0,12.3-2.6,16.3-5.1c4.1-2.6,8.3-5.2,16.6-5.2s12.6,2.7,16.6,5.2s8.2,5.1,16.3,5.1
		c8.2,0,12.3-2.6,16.3-5.1s8.3-5.2,16.6-5.2c8.3,0,12.5,2.7,16.6,5.2c4,2.5,8.1,5.1,16.2,5.1h0.2c8.2,0,12.3-2.6,16.3-5.1
		c4-2.6,8.3-5.2,16.5-5.2s12.5,2.7,16.5,5.2h0.1c4,2.5,8.2,5.1,16.3,5.1c8.1,0,12.1-2.5,16.2-5.1l0.1-0.1c4.1-2.6,8.4-5.2,16.7-5.2
		c8.3,0,12.6,2.7,16.6,5.2s8.2,5.1,16.3,5.1h0.4c8.2,0,12.2-2.6,16.3-5.1c4.1-2.6,8.3-5.2,16.6-5.2s12.6,2.7,16.6,5.2
		s8.2,5.1,16.3,5.1c1.4,0,2.7-0.1,3.9-0.2v0.2c8.2,0,12.3-2.6,16.3-5.1c3.8-2.4,7.6-4.8,14.7-5.2c7,0.4,11,2.8,14.6,5.2
		c4,2.5,8.2,5.1,16.3,5.1c0.7,0,1.3,0,2-0.1c0.6,0,1.3,0.1,1.9,0.1c8.2,0,12.3-2.6,16.3-5.1c4.1-2.6,8.3-5.2,16.6-5.2
		s12.6,2.7,16.6,5.2s8.2,5.1,16.3,5.1h0.4c8.2,0,12.3-2.6,16.3-5.1c4.1-2.6,8.3-5.2,16.6-5.2s12.6,2.7,16.6,5.2
		c1.3,0.8,2.7,1.7,4.2,2.4V7.6C649.5,6.9,648.2,6.1,646.8,5.2z"/>
</g>
</svg>
