<?xml version="1.0" encoding="utf-8"?>
<!-- Generator: Adobe Illustrator 23.1.1, SVG Export Plug-In . SVG Version: 6.00 Build 0)  -->
<svg version="1.1" id="Layer_1" xmlns="http://www.w3.org/2000/svg" xmlns:xlink="http://www.w3.org/1999/xlink" x="0px" y="0px"
	 viewBox="0 0 375 91" style="enable-background:new 0 0 375 91;" xml:space="preserve">
<style type="text/css">
	.st0{fill:#FFFFFF;}
	.st1{fill:#E2AC9C;}
	.st2{opacity:1.000000e-02;fill:#FFFFFF;}
</style>
<path class="st0" d="M-34.7-273.5c-2.4,1.5-4.8,3-9.7,3c-4.8,0-7.3-1.5-9.7-3c-2.3-1.5-4.8-3-9.5-3v0c-0.1,0-0.1,0-0.2,0
	c-4.8,0-7.2,1.5-9.5,3c-2.4,1.5-4.8,3-9.7,3c-4.8,0-7.3-1.5-9.7-3c-2.3-1.5-4.8-3-9.5-3c-4.8,0-7.2,1.5-9.5,3c-2.4,1.5-4.8,3-9.6,3
	c-4.8,0-7.3-1.5-9.6-3c-2.3-1.5-4.8-3-9.5-3c0,0,0,0,0,0c0,0,0,0,0,0v0c-4.7,0-7.1,1.5-9.4,3c-2.4,1.5-4.8,3-9.7,3s-7.3-1.5-9.7-3
	c-2.3-1.5-4.8-3-9.5-3c-4.8,0-7.2,1.5-9.5,3c-2.4,1.5-4.8,3-9.6,3v46.9c4.8,0,7.2-1.5,9.6-3c2.3-1.5,4.8-3,9.5-3c0,0,0,0,0,0
	c4.7,0,7.2,1.5,9.5,3c2.4,1.5,4.8,3,9.7,3c0,0,0,0,0,0h0c4.8,0,7.3-1.5,9.7-3c2.3-1.5,4.7-3,9.5-3c4.7,0,7.1,1.5,9.5,3
	c2.4,1.5,4.8,3,9.7,3c0,0,0,0,0,0c0,0,0,0,0,0c0,0,0,0,0,0c0,0,0,0,0,0v0c4.8,0,7.2-1.5,9.6-3c2.3-1.5,4.8-3,9.5-3
	c4.8,0,7.2,1.5,9.5,3c2.4,1.5,4.8,3,9.7,3c4.8,0,7.3-1.5,9.7-3c2.3-1.5,4.8-3,9.5-3c4.8,0,7.2,1.5,9.5,3c2.4,1.5,4.8,3,9.7,3v0
	c0.1,0,0.1,0,0.2,0c0,0,0,0,0,0c4.8,0,7.3-1.5,9.7-3c1.7-1.1,3.4-2.1,6-2.7v-46.9C-31.3-275.6-33-274.6-34.7-273.5z"/>
<g>
	<path class="st1" d="M211,10.3c-8.3,0-12.6-2.6-16.6-5.2c-4-2.5-8.2-5.1-16.4-5.1s-12.3,2.6-16.4,5.1c-4.1,2.6-8.3,5.2-16.6,5.2
		c-8.3,0-12.5-2.6-16.6-5.2c-4-2.5-8.2-5.1-16.4-5.1v0c-0.1,0-0.2,0-0.4,0c-8.2,0-12.3,2.6-16.4,5.1c-4.1,2.6-8.3,5.2-16.6,5.2
		S66,7.7,62,5.1C57.9,2.6,53.8,0,45.6,0c-8.2,0-12.3,2.6-16.4,5.1c-4.1,2.6-8.3,5.2-16.6,5.2C6.9,10.3,3.1,9.1,0,7.5v80.7
		C3.1,89.8,6.9,91,12.6,91c8.3,0,12.6-2.6,16.6-5.2c4-2.5,8.2-5.1,16.4-5.1c8.2,0,12.3,2.6,16.4,5.1C66,88.3,70.3,91,78.6,91
		s12.6-2.6,16.6-5.2c4-2.5,8.2-5.1,16.4-5.1c8.2,0,12.3,2.6,16.4,5.1c4.1,2.6,8.3,5.2,16.6,5.2v0c0.1,0,0.2,0,0.4,0c0,0,0,0,0,0h0
		c8.3,0,12.6-2.6,16.6-5.2c4-2.5,8.2-5.1,16.4-5.1c0,0,0,0,0,0c8.2,0,12.3,2.6,16.3,5.1c4.1,2.6,8.3,5.2,16.6,5.2c0,0,0,0,0,0h0
		c3.5,0,6.3-0.5,8.7-1.2V9.1C217.3,9.9,214.5,10.3,211,10.3z"/>
	<path class="st2" d="M243.9,80.7c8.1,0,12.3,2.6,16.3,5.1c4.1,2.6,8.3,5.2,16.6,5.2c0,0,0.1,0,0.1,0c0,0,0,0,0.1,0c0,0,0,0,0,0
		c0,0,0,0,0,0v0c8.2,0,12.4-2.7,16.5-5.2c4-2.5,8.2-5.1,16.4-5.1s12.3,2.6,16.4,5.1c4.1,2.6,8.3,5.2,16.6,5.2
		c8.3,0,12.6-2.6,16.6-5.2c3.9-2.4,7.9-5,15.6-5.1V0c-7.7,0.2-11.7,2.7-15.6,5.1c-4.1,2.6-8.3,5.2-16.6,5.2
		c-8.3,0-12.6-2.6-16.6-5.2c-4-2.5-8.2-5.1-16.4-5.1s-12.3,2.6-16.4,5.1c-4.1,2.6-8.3,5.2-16.6,5.2c-8.3,0-12.5-2.7-16.6-5.2
		c-4-2.5-8.2-5.1-16.4-5.1c0,0-0.1,0-0.1,0c0,0-0.1,0-0.1,0v0c-8.1,0-12.2,2.6-16.2,5.1c-2.4,1.5-4.8,3-8,4v80.7c3.2-1,5.6-2.5,8-4
		C231.6,83.3,235.8,80.7,243.9,80.7z"/>
</g>
</svg>
