<?xml version="1.0" encoding="utf-8"?>
<!-- Generator: Adobe Illustrator 23.1.1, SVG Export Plug-In . SVG Version: 6.00 Build 0)  -->
<svg version="1.1" id="Layer_1" xmlns="http://www.w3.org/2000/svg" xmlns:xlink="http://www.w3.org/1999/xlink" x="0px" y="0px"
	 viewBox="0 0 375 175" style="enable-background:new 0 0 375 175;" xml:space="preserve">
<style type="text/css">
	.st0{fill:#F07262;}
</style>
<path class="st0" d="M375,3.4c-4.5,1.8-8.2,4.1-11.9,6.4c-7.8,4.9-16,10-31.9,10c-15.9,0-24.1-5.1-31.9-10
	C291.4,4.9,283.5,0,267.8,0s-23.7,5-31.4,9.8c-7.7,4.8-16,10-31.9,10s-24.1-5.1-31.9-10C164.7,4.9,156.8,0,141.1,0h-0.7
	c-15.7,0-23.7,5-31.4,9.8c-7.7,4.9-16,10-32,10S53,14.8,45.1,9.8C37.3,4.9,29.4,0,13.7,0C8.3,0,3.9,0.6,0,1.6v154.8
	c3.9-1,8.3-1.6,13.7-1.6c15.7,0,23.7,5,31.4,9.8c7.7,4.8,16,10,31.9,10s24.1-5.1,32-10s15.7-9.8,31.4-9.8c15.7,0,23.7,5,31.4,9.8
	c7.7,4.8,16,10,31.9,10h0.7c16,0,24.1-5.1,31.9-10c7.8-4.9,15.7-9.8,31.4-9.8h0c15.7,0,23.6,5,31.4,9.8c7.7,4.8,15.9,10,31.9,10h0.1
	c16,0,24.1-5.1,31.9-10c3.7-2.3,7.4-4.6,11.9-6.4V3.4z"/>
</svg>
