<?xml version="1.0" encoding="utf-8"?>
<!-- Generator: Adobe Illustrator 23.1.1, SVG Export Plug-In . SVG Version: 6.00 Build 0)  -->
<svg version="1.1" id="Layer_1" xmlns="http://www.w3.org/2000/svg" xmlns:xlink="http://www.w3.org/1999/xlink" x="0px" y="0px"
	 viewBox="0 0 1440 174.7" style="enable-background:new 0 0 1440 174.7;" xml:space="preserve">
<style type="text/css">
	.st0{fill:none;}
	.st1{fill:#F07262;}
	.st2{opacity:1.000000e-02;fill:#606060;enable-background:new    ;}
	.st3{opacity:1.000000e-02;fill:#FFFFFF;enable-background:new    ;}
</style>
<g>
	<path class="st0" d="M317.5,19.8c15.9,0,24.2-5.2,31.9-10C357.1,5,365.1,0,380.8,0H254.1c15.7,0,23.6,4.9,31.4,9.8
		C293.4,14.8,301.5,19.8,317.5,19.8z"/>
	<path class="st0" d="M444.2,19.8c15.9,0,24.1-5.1,31.9-10C483.8,5,491.7,0,507.2,0H380.8c15.7,0,23.6,4.9,31.4,9.8
		C420.1,14.8,428.2,19.8,444.2,19.8z"/>
	<path class="st0" d="M570.7,19.8c15.8,0,24-5.1,31.7-9.9l0.1-0.1l0,0C610.2,5,618.2,0,633.9,0H507.5c15.7,0,23.6,4.9,31.4,9.8
		C546.7,14.7,554.8,19.8,570.7,19.8z"/>
	<path class="st0" d="M665.3,9.9c7.9,4.9,16.1,10,32,10s24.2-5.2,31.9-10C736.9,5,744.9,0,760.6,0H633.9c15.5,0,23.3,4.8,31.1,9.7
		L665.3,9.9z"/>
	<path class="st0" d="M125.7,154.9c-11.3,0-18.6,2.6-24.7,5.9v14h87.6c-15.6-0.1-23.8-5.2-31.4-10
		C149.4,159.9,141.4,154.9,125.7,154.9z"/>
	<path class="st0" d="M763,0h-1.7C761.9,0,762.5,0,763,0L763,0z"/>
	<path class="st0" d="M189,19.9c16,0,24.2-5.2,32-10C228.7,5,237.7,0,253.4,0H125.7c15.7,0,23.6,4.9,31.4,9.9
		C165,14.8,173.1,19.9,189,19.9z"/>
	<path class="st0" d="M125.7,0H101v5.9C107.1,2.6,114.4,0,125.7,0z"/>
	<path class="st0" d="M1016.4,0h-1.7c0.3,0,0.6,0,0.9,0C1015.9,0,1016.2,0,1016.4,0z"/>
	<path class="st0" d="M1080.5,19.8c15.9,0,24.2-5.2,31.9-10c7.7-4.8,15.7-9.8,31.4-9.8h-126.7c15.7,0,23.5,4.9,31.4,9.8
		C1056.4,14.8,1064.6,19.8,1080.5,19.8z"/>
	<path class="st0" d="M1207.2,19.8c15.9,0,24.1-5.1,31.9-10c7.7-4.8,15.6-9.8,31.1-9.8h-126.4c15.7,0,23.6,4.9,31.4,9.8
		S1191.3,19.8,1207.2,19.8z"/>
	<path class="st0" d="M1333.8,19.8c1.5,0,2.9-0.1,4.2-0.1V0h-67.4c15.7,0,23.6,4.9,31.4,9.8S1317.9,19.8,1333.8,19.8z"/>
	<path class="st0" d="M284.8,164.7c-7.7-4.8-15.7-9.8-31.4-9.8s-24.6,4.9-32.4,9.8l0,0c-7.8,4.9-15.8,9.9-31.5,10h127.2
		C300.8,174.7,292.5,169.5,284.8,164.7L284.8,164.7z"/>
	<path class="st0" d="M889.7,0H888c0.3,0,0.6,0,0.9,0C889.2,0,889.4,0,889.7,0z"/>
	<path class="st0" d="M825.5,19.8c15.4-0.2,23.5-5.2,31.1-10l0,0C864.3,5,872.3,0,888,0H763c15.7,0,23.6,4.9,31.4,9.8
		C802.1,14.7,810.1,19.7,825.5,19.8z"/>
	<path class="st0" d="M952.2,19.8c15.4-0.2,23.6-5.2,31.1-10C991,5,999,0,1014.7,0h-125c15.7,0,23.6,4.9,31.4,9.9
		C928.8,14.7,936.8,19.7,952.2,19.8z"/>
	<path class="st0" d="M1175.2,164.7c-7.7-4.8-15.7-9.8-31.4-9.8h-0.1c-15.7,0-23.6,4.9-31.4,9.8c-7.8,4.9-15.9,10-31.9,10h126.7
		C1191.2,174.7,1183,169.5,1175.2,164.7L1175.2,164.7z"/>
	<path class="st0" d="M1301.6,164.7c-7.7-4.8-15.7-9.9-31.2-9.8c-15.6,0-23.5,5-31.2,9.8l0,0c-7.8,4.9-15.9,10-31.9,10h126.4
		C1317.6,174.7,1309.3,169.5,1301.6,164.7L1301.6,164.7z"/>
	<path class="st0" d="M1333.9,174.7h4.1v-0.2C1336.7,174.6,1335.3,174.7,1333.9,174.7z"/>
	<path class="st0" d="M1046.2,164.7c-7.4-4.7-15.1-9.5-29.6-9.8h-0.1c-15.7,0-23.6,4.9-31.4,9.8c-7.8,4.9-15.8,9.9-31.4,10h126.2
		c-0.6,0-1.1,0-1.7,0C1062.1,174.7,1053.9,169.5,1046.2,164.7z"/>
	<path class="st0" d="M412.2,164.7c-7.7-4.8-15.7-9.8-31.4-9.8l0,0c-15.7,0-23.6,4.9-31.4,9.8l0,0c-7.8,4.9-15.9,10-31.9,10h126.6
		C428.2,174.7,420,169.5,412.2,164.7L412.2,164.7z"/>
	<path class="st0" d="M919.5,164.7L919.5,164.7c-7.5-4.7-15.1-9.5-29.7-9.8h-0.1c-15.7,0-23.6,4.9-31.4,9.8
		c-7.8,4.9-15.8,9.9-31.4,10h125.4c-0.3,0-0.6,0-0.9,0C935.4,174.7,927.2,169.5,919.5,164.7z"/>
	<path class="st0" d="M538.6,164.7c-7.7-4.8-15.6-9.9-31.2-9.8c-15.6,0-23.4,4.9-31.3,9.8c-7.8,4.9-15.9,10-31.9,10h126.4
		C554.6,174.7,546.5,169.6,538.6,164.7L538.6,164.7z"/>
	<path class="st0" d="M633.9,154.9c-15.7,0-23.6,5-31.4,9.8c-7.8,4.9-15.8,9.9-31.6,10h126.4c-16,0-24.3-5.2-32-10
		C657.6,159.9,649.6,154.9,633.9,154.9z"/>
	<path class="st0" d="M824,174.7c-15.9,0-24.2-5.2-31.9-10s-15.7-9.8-31.4-9.8s-23.6,4.9-31.4,9.8l0,0c-7.8,4.9-15.9,10-31.9,10
		h128.2c-0.3,0-0.6,0-0.9,0H824z"/>
	<path class="st1" d="M1338,19.7c-1.4,0.1-2.8,0.1-4.2,0.1c-15.9,0-24-5.1-31.8-10S1286.2,0,1270.6,0h-0.3
		c-15.5,0.1-23.4,5-31.1,9.8c-7.8,4.9-16,10-31.9,10s-24.1-5.1-31.9-10S1159.5,0,1143.8,0s-23.7,5-31.4,9.8c-7.7,4.8-16,10-31.9,10
		s-24.1-5.1-31.9-10c-7.9-4.9-15.7-9.8-31.4-9.8h-0.7c-0.3,0-0.6,0-0.8,0c-0.3,0-0.6,0-0.9,0C999,0,991,5,983.3,9.9
		c-7.5,4.8-15.7,9.8-31.1,10c-15.4-0.2-23.4-5.2-31.1-10c-7.8-5-15.7-9.9-31.4-9.9c-0.3,0-0.6,0-0.9,0c-0.3,0-0.6,0-0.9,0
		c-15.7,0-23.7,5-31.4,9.8l0,0c-7.6,4.8-15.7,9.8-31.1,10c-15.4-0.2-23.4-5.2-31.1-10C786.6,4.9,778.7,0,763,0l0,0
		c-0.5,0-1.1,0-1.7,0h-0.7c-15.7,0-23.7,5-31.4,9.9c-7.7,4.8-16,10-31.9,10s-24.1-5.1-32-10L665,9.7C657.2,4.8,649.4,0,633.9,0
		c-15.7,0-23.7,5-31.4,9.8l0,0l-0.1,0.1c-7.7,4.8-15.9,9.9-31.7,9.9c-15.9,0-24-5.1-31.8-10C531.2,4.9,523.2,0,507.5,0h-0.3
		c-15.5,0.1-23.4,5-31.1,9.8c-7.8,4.9-16,10-31.9,10s-24.1-5.1-31.9-10C404.4,4.9,396.5,0,380.8,0s-23.7,5-31.4,9.8
		c-7.7,4.8-16,10-31.9,10s-24.1-5.1-31.9-10C277.7,4.9,269.8,0,254.1,0h-0.7c-15.7,0-24.7,5-32.4,9.9c-7.7,4.8-16,10-32,10
		c-15.9,0-24.1-5.1-31.9-10c-7.8-5-15.7-9.9-31.4-9.9c-11.3,0-18.6,2.6-24.7,5.9v154.9c6.1-3.3,13.4-5.9,24.7-5.9
		c15.7,0,23.7,5,31.4,9.8c7.6,4.8,15.8,9.9,31.4,10h1c15.6-0.1,23.7-5.1,31.5-10l0,0c7.8-4.9,16.7-9.8,32.4-9.8s23.7,5,31.4,9.8l0,0
		c7.7,4.8,16,10,31.9,10h0.7c16,0,24.1-5.1,31.9-10l0,0c7.8-4.9,15.7-9.8,31.4-9.8l0,0c15.7,0,23.6,5,31.4,9.8l0,0
		c7.7,4.8,15.9,10,31.9,10h0.1c16,0,24.1-5.1,31.9-10s15.7-9.8,31.3-9.8c15.6,0,23.5,5,31.2,9.8l0,0c7.9,4.9,16,10,31.9,10h0.3
		c15.8-0.1,23.8-5.1,31.6-10s15.7-9.8,31.4-9.8s23.7,5,31.4,9.8s16,10,32,10s24.1-5.1,31.9-10l0,0c7.8-4.9,15.7-9.8,31.4-9.8
		s23.7,5,31.4,9.8s16,10,31.9,10h0.6c0.3,0,0.6,0,0.9,0h1.3c15.6-0.1,23.7-5.1,31.4-10c7.9-4.9,15.7-9.8,31.4-9.8h0.1
		c14.5,0.3,22.2,5.2,29.6,9.8l0,0c7.7,4.8,15.9,10,31.9,10c0.3,0,0.6,0,0.9,0h1.3c15.6-0.1,23.7-5.1,31.4-10
		c7.8-4.9,15.7-9.8,31.4-9.8h0.1c14.5,0.3,22.2,5.2,29.6,9.8c7.7,4.8,15.9,10,31.9,10c0.6,0,1.1,0,1.7,0h0.7c16,0,24.1-5.1,31.9-10
		s15.7-9.8,31.4-9.8h0.1c15.7,0,23.6,5,31.4,9.8l0,0c7.7,4.8,15.9,10,31.9,10h0.1c16,0,24.1-5.1,31.9-10l0,0
		c7.7-4.8,15.7-9.8,31.2-9.8c15.6,0,23.5,5,31.2,9.8l0,0c7.7,4.9,16,10,31.9,10h0.3c1.4,0,2.8-0.1,4.1-0.2V19.7H1338z"/>
	<path class="st2" d="M1428.3,9.9L1428.3,9.9c-7.9-5-15.7-9.9-31.4-9.9c-15.7,0-23.7,5-31.4,9.8l0,0l-0.1,0.1
		c-7,4.4-14.4,9-27.4,9.8v154.8c13.1-0.9,20.4-5.4,27.5-9.8c7.8-4.9,15.7-9.8,31.4-9.8c15.7,0,23.7,5,31.4,9.8
		c3.5,2.2,7.2,4.5,11.7,6.3V16.2C1435.6,14.4,1431.9,12.1,1428.3,9.9L1428.3,9.9z"/>
	<path class="st3" d="M61.9,174.7h1c15.6-0.1,23.7-5.1,31.4-10c2.2-1.4,4.4-2.7,6.7-4V5.9c-2.4,1.3-4.6,2.6-6.7,4
		c-7.7,4.8-16,10-31.9,10s-23.1-5.1-30.9-10C23.6,4.9,15.7,0,0,0v153.9v1c15.7,0,23.7,5,31.4,9.8S46.2,174.6,61.9,174.7z"/>
</g>
</svg>
