<?xml version="1.0" encoding="utf-8"?>
<!-- Generator: Adobe Illustrator 23.1.1, SVG Export Plug-In . SVG Version: 6.00 Build 0)  -->
<svg version="1.1" id="Layer_1" xmlns="http://www.w3.org/2000/svg" xmlns:xlink="http://www.w3.org/1999/xlink" x="0px" y="0px"
	 viewBox="0 0 834 175" style="enable-background:new 0 0 834 175;" xml:space="preserve">
<style type="text/css">
	.st0{clip-path:url(#SVGID_2_);fill:#F07262;}
</style>
<g>
	<defs>
		<rect id="SVGID_1_" y="0" width="1841.1" height="174.7"/>
	</defs>
	<clipPath id="SVGID_2_">
		<use xlink:href="#SVGID_1_"  style="overflow:visible;"/>
	</clipPath>
	<path class="st0" d="M834,19.1c-2.6,0.4-5.4,0.6-8.5,0.7c-15.4-0.2-23.4-5.2-31.1-10C786.6,4.9,778.7,0,763,0v0c-0.6,0-1.1,0-1.7,0
		h-0.7c-15.7,0-23.7,5-31.4,9.8c-7.7,4.9-16,10-31.9,10s-24.1-5.1-32-10C657.4,4.9,649.6,0,633.9,0c-15.7,0-23.7,5-31.4,9.8
		c-7.7,4.8-15.9,10-31.8,10c-15.9,0-24-5.1-31.8-10C531.2,4.9,523.2,0,507.5,0h-0.3c-15.5,0.1-23.4,5-31.1,9.8
		c-7.8,4.9-16,10-31.9,10c-15.9,0-24.1-5.1-31.9-10C404.4,4.9,396.5,0,380.8,0s-23.7,5-31.4,9.8c-7.7,4.8-16,10-31.9,10
		s-24.1-5.1-31.9-10C277.7,4.9,269.8,0,254.1,0h-0.7c-15.7,0-23.7,5-31.4,9.8c-7.7,4.9-16,10-32,10c-15.9,0-24.1-5.1-31.9-10
		C150.3,4.9,142.4,0,126.7,0S103,5,95.3,9.8c-7.7,4.8-16,10-31.9,10s-24.1-5.1-31.9-10C23.6,4.9,15.7,0,0,0v153.9v1
		c15.7,0,23.7,5,31.4,9.8c7.7,4.8,16,10,31.9,10s24.1-5.1,31.9-10c7.9-4.9,15.7-9.8,31.4-9.8s23.7,5,31.4,9.8c7.7,4.8,16,10,31.9,10
		s24.1-5.1,32-10c7.9-4.9,15.7-9.8,31.4-9.8c15.7,0,23.7,5,31.4,9.8c7.7,4.8,16,10,31.9,10h0.7c16,0,24.1-5.1,31.9-10
		c7.8-4.9,15.7-9.8,31.4-9.8h0c15.7,0,23.6,5,31.4,9.8c7.7,4.8,15.9,10,31.9,10h0.1c16,0,24.1-5.1,31.9-10
		c7.8-4.9,15.7-9.8,31.3-9.8c15.6,0,23.5,5,31.2,9.8c7.9,4.9,16,10,31.9,10h0.3c15.8-0.1,23.8-5.1,31.6-10
		c7.8-4.9,15.7-9.8,31.4-9.8s23.7,5,31.4,9.8c7.7,4.8,16,10,32,10s24.1-5.1,31.9-10s15.7-9.8,31.4-9.8s23.7,5,31.4,9.8
		c7.7,4.8,16,10,31.9,10h0.7c0.1,0,0.2,0,0.3,0c0.4,0,0.9,0,1.3,0c2.8,0,5.3-0.2,7.7-0.4V19.1z"/>
</g>
</svg>
