<svg xmlns="http://www.w3.org/2000/svg" viewBox="0 0 216.36 344.14"><defs><style>.cls-1{fill:#6ba332;}.cls-1,.cls-5{opacity:0.5;}.cls-2{fill:blue;}.cls-3{fill:#221f20;}.cls-4,.cls-5{fill:#f3524d;}</style></defs><title>flow1mobile</title><g id="Layer_2" data-name="Layer 2"><g id="Layer_1-2" data-name="Layer 1"><rect class="cls-1" x="108.18" y="312.66" width="75.75" height="31.48" rx="15.74"/><rect class="cls-1" x="70.31" width="75.75" height="31.48" rx="15.74"/><path class="cls-2" d="M189.42,253.52H102.69V224.17h86.73Zm-85.73-1h84.73V225.17H103.69Z"/><path class="cls-3" d="M115.55,238h2.71v.75h-2.71v3.12h-.87V234.9h3.58v.75h-2.71Z"/><path class="cls-3" d="M123.88,239.46a2.46,2.46,0,0,1-2.46,2.5,2.52,2.52,0,1,1,2.46-2.5Zm-4.07,0a1.62,1.62,0,0,0,1.63,1.78,1.64,1.64,0,0,0,1.62-1.78,1.63,1.63,0,1,0-3.25,0Z"/><path class="cls-3" d="M125.88,237.05v.81a1.3,1.3,0,0,1,.43-.64,1.55,1.55,0,0,1,.92-.29h.19v.8h-.22a1.23,1.23,0,0,0-1,.55,1.78,1.78,0,0,0-.28,1.14v2.43h-.8v-4.79Z"/><path class="cls-3" d="M135.11,237.05v3.07a1.6,1.6,0,0,1-.48,1.34,2.08,2.08,0,0,1-1.39.5,2,2,0,0,1-1.38-.51,1.76,1.76,0,0,1-.48-1.33v-3.07h.79v3a1.07,1.07,0,0,0,1.07,1.15,1.17,1.17,0,0,0,.86-.36,1.11,1.11,0,0,0,.2-.77v-3.07Z"/><path class="cls-3" d="M137.35,237.05v.67a1.71,1.71,0,0,1,2.54-.39,1.56,1.56,0,0,1,.41,1.28v3.23h-.79v-3.06a1.29,1.29,0,0,0-.18-.82.93.93,0,0,0-.75-.32,1.18,1.18,0,0,0-.91.4,1.14,1.14,0,0,0-.32.88v2.92h-.79v-4.79Z"/><path class="cls-3" d="M142.76,235.7a.51.51,0,1,1-.5-.52A.5.5,0,0,1,142.76,235.7Zm-.11,6.14h-.79v-4.79h.79Z"/><path class="cls-3" d="M147.89,237.05l-1.82,4.79h-.83l-1.76-4.79h.84l1.35,3.66,1.39-3.66Z"/><path class="cls-3" d="M149.07,239.7a1.54,1.54,0,0,0,.31.87,1.57,1.57,0,0,0,1.29.66,1.65,1.65,0,0,0,1.44-.82l.7.26a2.47,2.47,0,1,1-2.17-3.74,2.39,2.39,0,0,1,2.44,2.46c0,.06,0,.2,0,.31Zm3.17-.58a1.55,1.55,0,0,0-.28-.83,1.65,1.65,0,0,0-1.32-.65,1.53,1.53,0,0,0-1.29.67,1.87,1.87,0,0,0-.27.81Z"/><path class="cls-3" d="M155,237.05v.81a1.38,1.38,0,0,1,.44-.64,1.55,1.55,0,0,1,.92-.29h.18v.8h-.21a1.26,1.26,0,0,0-1.05.55,1.85,1.85,0,0,0-.28,1.14v2.43h-.79v-4.79Z"/><path class="cls-3" d="M159.77,238.36v-.05c0-.45-.36-.73-.92-.73s-.86.27-.86.68.21.58,1.07.81a2.48,2.48,0,0,1,1.17.56,1.32,1.32,0,0,1,.38.93c0,.84-.68,1.4-1.7,1.4s-1.71-.51-1.79-1.48h.78a.88.88,0,0,0,1,.83c.54,0,.89-.28.89-.71s-.27-.62-1.09-.83c-1-.28-1.51-.72-1.51-1.44s.68-1.4,1.69-1.4a1.46,1.46,0,0,1,1.67,1.43Z"/><path class="cls-3" d="M162.74,235.7a.5.5,0,0,1-.51.5.51.51,0,0,1,0-1A.51.51,0,0,1,162.74,235.7Zm-.12,6.14h-.79v-4.79h.79Z"/><path class="cls-3" d="M165.06,240.86c0,.24.07.3.36.3h.37v.68h-.74c-.57,0-.78-.22-.78-.75v-3.35h-.67v-.69h.67v-1.51h.79v1.51h.73v.69h-.73Z"/><path class="cls-3" d="M167.74,235.7a.5.5,0,0,1-.51.5.51.51,0,0,1,0-1A.51.51,0,0,1,167.74,235.7Zm-.11,6.14h-.79v-4.79h.79Z"/><path class="cls-3" d="M169.68,239.7a1.47,1.47,0,0,0,.31.87,1.55,1.55,0,0,0,1.29.66,1.67,1.67,0,0,0,1.44-.82l.69.26a2.34,2.34,0,0,1-2.13,1.29,2.52,2.52,0,1,1,2.4-2.57c0,.06,0,.2,0,.31Zm3.16-.58a1.46,1.46,0,0,0-.27-.83,1.65,1.65,0,0,0-1.32-.65,1.53,1.53,0,0,0-1.29.67,1.75,1.75,0,0,0-.27.81Z"/><path class="cls-3" d="M177,238.36v-.05c0-.45-.36-.73-.91-.73s-.87.27-.87.68.21.58,1.08.81a2.48,2.48,0,0,1,1.16.56,1.33,1.33,0,0,1,.39.93c0,.84-.69,1.4-1.71,1.4s-1.71-.51-1.79-1.48h.78a.89.89,0,0,0,1,.83c.54,0,.9-.28.9-.71s-.27-.62-1.1-.83c-1-.28-1.51-.72-1.51-1.44s.68-1.4,1.69-1.4a1.47,1.47,0,0,1,1.68,1.43Z"/><path class="cls-2" d="M137,160.68H79.33V131.34H137Zm-56.7-1H136V132.34H80.33Z"/><path class="cls-3" d="M96.91,147.44l-.63,1.61h-.91l2.62-7h1l2.55,7h-1l-.57-1.61Zm1.58-4.23-1.32,3.48h2.58Z"/><path class="cls-3" d="M103.21,149.05h-.79v-7h.79v3a2,2,0,0,1,1.69-.94,2.31,2.31,0,0,1,2.27,2.53,2.28,2.28,0,0,1-2.23,2.5,2,2,0,0,1-1.73-.94Zm0-2.4a1.59,1.59,0,1,0,3.14,0,1.59,1.59,0,1,0-3.14,0Z"/><path class="cls-3" d="M112.88,146.66a2.45,2.45,0,0,1-2.46,2.5,2.52,2.52,0,1,1,2.46-2.5Zm-4.07,0a1.62,1.62,0,0,0,1.63,1.78,1.65,1.65,0,0,0,1.63-1.78,1.64,1.64,0,1,0-3.26,0Z"/><path class="cls-3" d="M117.67,144.25v3.07a1.6,1.6,0,0,1-.47,1.34,2.08,2.08,0,0,1-1.39.5,2,2,0,0,1-1.38-.51,1.76,1.76,0,0,1-.48-1.33v-3.07h.79v3.05a1.07,1.07,0,0,0,1.07,1.15,1.14,1.14,0,0,0,.86-.36,1.11,1.11,0,0,0,.2-.77v-3.07Z"/><path class="cls-3" d="M120,148.07c0,.24.08.29.37.29h.36v.69H120c-.56,0-.78-.22-.78-.75V145h-.66v-.7h.66v-1.51H120v1.51h.73v.7H120Z"/><path class="cls-2" d="M57.69,160.68H0V131.34H57.69ZM1,159.68H56.69V132.34H1Z"/><path class="cls-3" d="M18.27,148a3.07,3.07,0,0,1-2.54,1.17,3.1,3.1,0,0,1-2.39-1,3.92,3.92,0,0,1-.92-2.57,3.36,3.36,0,0,1,3.32-3.6,3.43,3.43,0,0,1,1.74.47,3.76,3.76,0,0,1,.81.72l-.61.56a2.43,2.43,0,0,0-1.92-.95,2.82,2.82,0,0,0,0,5.59,2.29,2.29,0,0,0,1.88-1Z"/><path class="cls-3" d="M23.78,146.66a2.45,2.45,0,0,1-2.45,2.5,2.51,2.51,0,1,1,2.45-2.5Zm-4.07,0a1.62,1.62,0,0,0,1.64,1.78A1.64,1.64,0,0,0,23,146.65a1.61,1.61,0,0,0-1.61-1.79A1.63,1.63,0,0,0,19.71,146.65Z"/><path class="cls-3" d="M25.78,144.25v.68a1.62,1.62,0,0,1,1.43-.79,1.67,1.67,0,0,1,1.11.39,1.57,1.57,0,0,1,.41,1.28v3.24h-.79V146a1.32,1.32,0,0,0-.18-.82.93.93,0,0,0-.75-.33,1.22,1.22,0,0,0-.92.41,1.13,1.13,0,0,0-.31.87v2.93H25v-4.8Z"/><path class="cls-3" d="M31.13,148.07c0,.24.07.29.36.29h.37v.69h-.74c-.56,0-.78-.22-.78-.75V145h-.67v-.7h.67v-1.51h.79v1.51h.73v.7h-.73Z"/><path class="cls-3" d="M36.51,144.25h.79v4.8h-.79v-.93a2,2,0,0,1-1.75,1,2.3,2.3,0,0,1-2.26-2.5,2.33,2.33,0,0,1,2.28-2.52,2,2,0,0,1,1.73.9Zm-2.78,1.17a2.17,2.17,0,0,0-.39,1.27,1.65,1.65,0,0,0,1.54,1.79,1.78,1.78,0,0,0,1.64-1.88,1.62,1.62,0,0,0-1.62-1.76A1.31,1.31,0,0,0,33.73,145.42Z"/><path class="cls-3" d="M42.63,148.45a2.45,2.45,0,0,1-1.77.71,2.51,2.51,0,1,1,1.79-4.31l-.51.51a1.77,1.77,0,0,0-1.22-.5,1.8,1.8,0,0,0,0,3.57,1.67,1.67,0,0,0,1.23-.52Z"/><path class="cls-3" d="M44.67,148.07c0,.24.07.29.36.29h.37v.69h-.74c-.56,0-.78-.22-.78-.75V145h-.67v-.7h.67v-1.51h.79v1.51h.73v.7h-.73Z"/><path class="cls-2" d="M216.36,160.68H158.67V131.34h57.69Zm-56.69-1h55.69V132.34H159.67Z"/><path class="cls-3" d="M170.92,147.19a1.12,1.12,0,0,0,1.23,1.2,1.2,1.2,0,0,0,1.33-1.17c0-.61-.31-.89-1.41-1.25a3.46,3.46,0,0,1-1.4-.7,1.7,1.7,0,0,1-.54-1.31,2.07,2.07,0,0,1,4.13,0h-.88a1.37,1.37,0,0,0-.16-.72,1.21,1.21,0,0,0-1-.49A1.11,1.11,0,0,0,171,143.9a1,1,0,0,0,.4.8,4.22,4.22,0,0,0,1.11.49,3,3,0,0,1,1.37.75,1.74,1.74,0,0,1,.47,1.22,2,2,0,0,1-2.18,2,2,2,0,0,1-1.85-.93,1.72,1.72,0,0,1-.24-.91v-.14Z"/><path class="cls-3" d="M176.07,146.9a1.48,1.48,0,0,0,.31.88,1.57,1.57,0,0,0,1.29.65,1.65,1.65,0,0,0,1.44-.82l.7.26a2.58,2.58,0,1,1,.27-1.28c0,.06,0,.2,0,.31Zm3.16-.58a1.46,1.46,0,0,0-.27-.82,1.63,1.63,0,0,0-1.32-.66,1.53,1.53,0,0,0-1.29.67,2,2,0,0,0-.27.81Z"/><path class="cls-3" d="M182,144.25v.81a1.34,1.34,0,0,1,.44-.63,1.48,1.48,0,0,1,.91-.29h.19v.8h-.22a1.22,1.22,0,0,0-1,.55,1.74,1.74,0,0,0-.28,1.13v2.44h-.79v-4.8Z"/><path class="cls-3" d="M188.46,144.25l-1.81,4.8h-.83l-1.76-4.8h.83l1.36,3.66,1.39-3.66Z"/><path class="cls-3" d="M190.2,142.91a.5.5,0,0,1-.51.5.51.51,0,0,1,0-1A.51.51,0,0,1,190.2,142.91Zm-.11,6.14h-.79v-4.8h.79Z"/><path class="cls-3" d="M195.42,148.45a2.49,2.49,0,0,1-1.77.71,2.51,2.51,0,1,1,1.79-4.31l-.51.51a1.79,1.79,0,0,0-1.22-.5,1.8,1.8,0,0,0,0,3.57,1.67,1.67,0,0,0,1.23-.52Z"/><path class="cls-3" d="M196.72,146.9a1.48,1.48,0,0,0,.31.88,1.57,1.57,0,0,0,1.29.65,1.65,1.65,0,0,0,1.43-.82l.7.26a2.34,2.34,0,0,1-2.13,1.29,2.51,2.51,0,1,1,2.4-2.57c0,.06,0,.2,0,.31Zm3.16-.58a1.46,1.46,0,0,0-.27-.82,1.63,1.63,0,0,0-1.32-.66,1.53,1.53,0,0,0-1.29.67,1.84,1.84,0,0,0-.27.81Z"/><path class="cls-3" d="M204.06,145.56v-.05c0-.45-.36-.73-.91-.73s-.87.27-.87.69.21.57,1.08.81a2.49,2.49,0,0,1,1.16.55,1.34,1.34,0,0,1,.39.94c0,.83-.69,1.39-1.71,1.39s-1.71-.51-1.79-1.48h.78a.89.89,0,0,0,1,.84c.54,0,.9-.28.9-.71s-.27-.62-1.1-.83c-1-.28-1.51-.72-1.51-1.45s.68-1.39,1.69-1.39a1.47,1.47,0,0,1,1.68,1.42Z"/><path class="cls-3" d="M135.47,329.93a3,3,0,0,1-2.54,1.17,3.12,3.12,0,0,1-2.38-1,4,4,0,0,1-.92-2.58,3.36,3.36,0,0,1,3.31-3.6,3.41,3.41,0,0,1,1.74.47,4.07,4.07,0,0,1,.82.72l-.61.56a2.48,2.48,0,0,0-1.92-.94,2.81,2.81,0,0,0,0,5.58,2.3,2.3,0,0,0,1.88-.95Z"/><path class="cls-3" d="M141,328.6a2.45,2.45,0,0,1-2.46,2.49A2.51,2.51,0,1,1,141,328.6Zm-4.07,0a1.62,1.62,0,0,0,1.63,1.78,1.65,1.65,0,0,0,1.63-1.78,1.64,1.64,0,1,0-3.26,0Z"/><path class="cls-3" d="M143,326.18v.68a1.63,1.63,0,0,1,1.42-.79,1.68,1.68,0,0,1,1.12.39,1.58,1.58,0,0,1,.4,1.28V331h-.79v-3.06a1.27,1.27,0,0,0-.18-.82.89.89,0,0,0-.74-.32,1.19,1.19,0,0,0-.92.4,1.14,1.14,0,0,0-.31.88V331h-.79v-4.8Z"/><path class="cls-3" d="M148.34,330c0,.24.07.29.36.29h.37V331h-.74c-.57,0-.78-.22-.78-.75v-3.35h-.67v-.7h.67v-1.51h.79v1.51h.73v.7h-.73Z"/><path class="cls-3" d="M153.72,326.18h.79V331h-.79v-.93a2,2,0,0,1-1.75,1,2.29,2.29,0,0,1-2.26-2.49,2.33,2.33,0,0,1,2.28-2.53,2,2,0,0,1,1.73.9Zm-2.78,1.17a2.18,2.18,0,0,0-.4,1.27,1.65,1.65,0,0,0,1.54,1.79,1.78,1.78,0,0,0,1.65-1.88,1.61,1.61,0,0,0-1.63-1.75A1.28,1.28,0,0,0,150.94,327.35Z"/><path class="cls-3" d="M159.83,330.39a2.44,2.44,0,0,1-1.76.7,2.33,2.33,0,0,1-2.35-2.49,2.42,2.42,0,0,1,4.14-1.81l-.51.51a1.74,1.74,0,0,0-1.22-.5,1.61,1.61,0,0,0-1.6,1.77,1.63,1.63,0,0,0,1.59,1.8,1.7,1.7,0,0,0,1.23-.52Z"/><path class="cls-3" d="M161.88,330c0,.24.07.29.36.29h.36V331h-.73c-.57,0-.79-.22-.79-.75v-3.35h-.66v-.7h.66v-1.51h.8v1.51h.72v.7h-.72Z"/><rect class="cls-3" x="107.8" y="31.94" width="0.75" height="24.42"/><polygon class="cls-3" points="104.44 55.27 108.18 61.75 111.92 55.27 104.44 55.27"/><rect class="cls-3" x="145.67" y="253.19" width="0.75" height="52.42"/><polygon class="cls-3" points="142.3 304.52 146.04 310.99 149.78 304.52 142.3 304.52"/><polygon class="cls-3" points="186.09 184.79 106.01 184.79 106.01 160.9 106.76 160.9 106.76 184.04 185.34 184.04 185.34 160.9 186.09 160.9 186.09 184.79"/><rect class="cls-3" x="145.68" y="184.6" width="0.75" height="34.52"/><circle class="cls-3" cx="146.05" cy="184.74" r="2.82"/><polygon class="cls-3" points="142.31 218.02 146.05 224.5 149.79 218.02 142.31 218.02"/><path class="cls-3" d="M82.65,18.78h-.88V11.84h.88V15H86V11.84h.87v6.94H86V15.71H82.65Z"/><path class="cls-3" d="M93.05,16.39a2.45,2.45,0,0,1-2.45,2.5,2.37,2.37,0,0,1-2.43-2.52,2.44,2.44,0,1,1,4.88,0Zm-4.06,0a1.61,1.61,0,0,0,1.63,1.78,1.64,1.64,0,0,0,1.62-1.78,1.63,1.63,0,1,0-3.25,0Z"/><path class="cls-3" d="M95.05,14v.67a1.49,1.49,0,0,1,1.37-.78,1.24,1.24,0,0,1,1.29.87,1.57,1.57,0,0,1,1.52-.87,1.41,1.41,0,0,1,1.21.51c.23.3.29.57.29,1.33v3.07h-.79V15.9c0-.59,0-.72-.13-.92a.94.94,0,0,0-.83-.41c-.7,0-1.09.47-1.09,1.33v2.88H97.1V15.91A1.88,1.88,0,0,0,97,15a.84.84,0,0,0-.78-.42c-.7,0-1.12.5-1.12,1.34v2.87h-.79V14Z"/><path class="cls-3" d="M102.75,16.63a1.48,1.48,0,0,0,.32.88,1.54,1.54,0,0,0,1.29.65,1.65,1.65,0,0,0,1.43-.82l.7.26a2.36,2.36,0,0,1-2.13,1.29,2.38,2.38,0,0,1-2.45-2.5,2.43,2.43,0,1,1,4.85-.07c0,.06,0,.2,0,.31Zm3.17-.58a1.54,1.54,0,0,0-.27-.82,1.65,1.65,0,0,0-1.32-.66,1.55,1.55,0,0,0-1.3.67,2.13,2.13,0,0,0-.27.81Z"/><path class="cls-3" d="M111.82,14v.87a1.86,1.86,0,0,1,1.75-1,2.26,2.26,0,0,1,2.25,2.47,2.29,2.29,0,0,1-3.31,2.3,1.68,1.68,0,0,1-.69-.61v3H111V14Zm0,2.48a1.58,1.58,0,0,0,1.58,1.75A1.63,1.63,0,0,0,115,16.37a1.88,1.88,0,0,0-.41-1.3,1.58,1.58,0,0,0-1.14-.5A1.67,1.67,0,0,0,111.82,16.46Z"/><path class="cls-3" d="M120.64,14h.79v4.8h-.79v-.93a2,2,0,0,1-1.75,1,2.29,2.29,0,0,1-2.25-2.5,2.32,2.32,0,0,1,2.28-2.52,2,2,0,0,1,1.72.9Zm-2.78,1.17a2.17,2.17,0,0,0-.39,1.27A1.64,1.64,0,0,0,119,18.21a1.78,1.78,0,0,0,1.64-1.88A1.62,1.62,0,0,0,119,14.57,1.31,1.31,0,0,0,117.86,15.15Z"/><path class="cls-3" d="M126.56,14h.8v4.83a2.24,2.24,0,0,1-.64,1.76,2.5,2.5,0,0,1-1.77.63,2.71,2.71,0,0,1-2.12-.87l.54-.54a2.39,2.39,0,0,0,.46.41,2.29,2.29,0,0,0,1.12.28A1.74,1.74,0,0,0,126.2,20a1.65,1.65,0,0,0,.36-1.15v-1a2,2,0,0,1-1.77,1,2.31,2.31,0,0,1-2.21-2.5,2.73,2.73,0,0,1,.76-2,2.07,2.07,0,0,1,1.52-.56,1.92,1.92,0,0,1,1.7.93Zm-3.15,2.38a1.65,1.65,0,0,0,1.57,1.8,1.6,1.6,0,0,0,1.22-.58,1.94,1.94,0,0,0,.34-1.19,1.7,1.7,0,0,0-.37-1.27,1.64,1.64,0,0,0-1.17-.53A1.62,1.62,0,0,0,123.41,16.36Z"/><path class="cls-3" d="M129.36,16.63A1.62,1.62,0,0,0,131,18.16a1.65,1.65,0,0,0,1.43-.82l.7.26A2.36,2.36,0,0,1,131,18.89a2.38,2.38,0,0,1-2.45-2.5,2.43,2.43,0,1,1,4.85-.07c0,.06,0,.2,0,.31Zm3.17-.58a1.54,1.54,0,0,0-.27-.82,1.63,1.63,0,0,0-1.32-.66,1.55,1.55,0,0,0-1.3.67,2.13,2.13,0,0,0-.27.81Z"/><polygon class="cls-3" points="185.7 126.45 184.95 126.45 184.95 82.33 127.92 82.33 127.92 81.58 185.7 81.58 185.7 126.45"/><polygon class="cls-3" points="181.59 125.36 185.33 131.84 189.07 125.36 181.59 125.36"/><rect class="cls-3" x="107.8" y="81.95" width="0.75" height="44.5"/><polygon class="cls-3" points="104.44 125.36 108.18 131.84 111.92 125.36 104.44 125.36"/><rect class="cls-4" x="94.22" y="67.99" width="27.92" height="27.92" transform="translate(89.63 -52.49) rotate(45)"/><rect class="cls-5" x="94.22" y="67.99" width="27.92" height="27.92" transform="translate(89.63 -52.49) rotate(45)"/><path class="cls-3" d="M100,84.12a3.35,3.35,0,0,1-1.42.26A2.52,2.52,0,0,1,96,81.65a2.68,2.68,0,0,1,2.81-2.83,3,3,0,0,1,1.28.24l-.17.57a2.48,2.48,0,0,0-1.08-.22,2,2,0,0,0-2.11,2.22,2,2,0,0,0,2.07,2.17,2.72,2.72,0,0,0,1.14-.23Z"/><path class="cls-3" d="M100.88,78.62h.71V81h0a1.29,1.29,0,0,1,.51-.5,1.41,1.41,0,0,1,.72-.2c.52,0,1.35.32,1.35,1.66v2.3h-.71V82.08c0-.63-.23-1.15-.89-1.15a1,1,0,0,0-1,.7.88.88,0,0,0,0,.34V84.3h-.71Z"/><path class="cls-3" d="M108.83,82.33a1.9,1.9,0,0,1-1.93,2.06,1.84,1.84,0,0,1-1.86-2A1.89,1.89,0,0,1,107,80.34,1.84,1.84,0,0,1,108.83,82.33Zm-3.07,0c0,.85.48,1.49,1.17,1.49s1.18-.63,1.18-1.5c0-.66-.33-1.49-1.16-1.49S105.76,81.64,105.76,82.37Z"/><path class="cls-3" d="M113.22,82.33a1.9,1.9,0,0,1-1.93,2.06,1.84,1.84,0,0,1-1.85-2,1.89,1.89,0,0,1,1.91-2.06A1.83,1.83,0,0,1,113.22,82.33Zm-3.07,0c0,.85.48,1.49,1.17,1.49s1.18-.63,1.18-1.5c0-.66-.33-1.49-1.16-1.49S110.15,81.64,110.15,82.37Z"/><path class="cls-3" d="M114,83.58a1.83,1.83,0,0,0,.93.28c.51,0,.75-.26.75-.58s-.2-.51-.72-.71c-.69-.24-1-.63-1-1.09a1.19,1.19,0,0,1,1.33-1.14,2,2,0,0,1,1,.24l-.18.51a1.55,1.55,0,0,0-.79-.22c-.42,0-.65.24-.65.53s.23.46.74.65c.67.26,1,.6,1,1.17s-.53,1.16-1.45,1.16a2.18,2.18,0,0,1-1.08-.26Z"/><path class="cls-3" d="M117.67,82.49A1.24,1.24,0,0,0,119,83.84a2.6,2.6,0,0,0,1.07-.2l.12.5a3.21,3.21,0,0,1-1.29.24,1.79,1.79,0,0,1-1.9-1.95,1.87,1.87,0,0,1,1.81-2.09,1.64,1.64,0,0,1,1.6,1.83c0,.14,0,.25,0,.32Zm2.06-.5a1,1,0,0,0-1-1.14A1.15,1.15,0,0,0,117.68,82Z"/><polygon class="cls-3" points="31.04 126.45 30.29 126.45 30.29 81.58 88.44 81.58 88.44 82.33 31.04 82.33 31.04 126.45"/><polygon class="cls-3" points="26.92 125.36 30.66 131.84 34.4 125.36 26.92 125.36"/><path class="cls-3" d="M145.62,281.78h-115v-.37c-.28-45.06-.63-120.76.1-121.49l.11-.11H31v.37l.34.14c-.54,2.08-.22,79.64,0,120.71H145.62Z"/></g></g></svg>