<svg xmlns="http://www.w3.org/2000/svg" viewBox="0 0 171.67 243.26"><defs><style>.cls-1{fill:blue;}.cls-2{fill:#221f20;}.cls-3{fill:#f0ede8;}.cls-4{fill:#6ba332;opacity:0.5;}</style></defs><title>flow4mobile</title><g id="Layer_2" data-name="Layer 2"><g id="Layer_1-2" data-name="Layer 1"><path class="cls-1" d="M171.67,112.08H114V82.73h57.69Zm-56.69-1h55.69V83.73H115Z"/><path class="cls-2" d="M133.22,99.33a3.31,3.31,0,0,1-4.92.16,4,4,0,0,1-.93-2.58,3.37,3.37,0,0,1,3.32-3.6,3.41,3.41,0,0,1,1.74.47,3.8,3.8,0,0,1,.81.72l-.6.56a2.48,2.48,0,0,0-1.93-.94,2.81,2.81,0,0,0,0,5.58,2.32,2.32,0,0,0,1.89-1Z"/><path class="cls-2" d="M138.74,98a2.45,2.45,0,0,1-2.46,2.49A2.51,2.51,0,1,1,138.74,98Zm-4.07,0a1.62,1.62,0,0,0,1.63,1.78A1.64,1.64,0,0,0,137.92,98a1.63,1.63,0,1,0-3.25,0Z"/><path class="cls-2" d="M140.74,95.58v.68a1.63,1.63,0,0,1,1.42-.79,1.65,1.65,0,0,1,1.11.39,1.55,1.55,0,0,1,.41,1.28v3.24h-.79V97.32a1.27,1.27,0,0,0-.18-.82.9.9,0,0,0-.75-.32,1.18,1.18,0,0,0-.91.4,1.14,1.14,0,0,0-.31.88v2.92h-.8v-4.8Z"/><path class="cls-2" d="M146.08,99.4c0,.24.08.29.37.29h.36v.69h-.74c-.56,0-.78-.22-.78-.75V96.28h-.66v-.7h.66V94.07h.79v1.51h.73v.7h-.73Z"/><path class="cls-2" d="M151.46,95.58h.8v4.8h-.8v-.93a2,2,0,0,1-1.74,1A2.29,2.29,0,0,1,147.46,98a2.33,2.33,0,0,1,2.28-2.53,2,2,0,0,1,1.72.9Zm-2.77,1.17a2.18,2.18,0,0,0-.4,1.27,1.65,1.65,0,0,0,1.54,1.79,1.77,1.77,0,0,0,1.65-1.87,1.62,1.62,0,0,0-1.63-1.76A1.28,1.28,0,0,0,148.69,96.75Z"/><path class="cls-2" d="M157.58,99.79a2.44,2.44,0,0,1-1.77.7A2.33,2.33,0,0,1,153.46,98a2.42,2.42,0,0,1,4.14-1.81l-.51.51a1.72,1.72,0,0,0-1.21-.5,1.8,1.8,0,0,0,0,3.57,1.67,1.67,0,0,0,1.22-.52Z"/><path class="cls-2" d="M159.62,99.4c0,.24.08.29.37.29h.36v.69h-.74c-.56,0-.78-.22-.78-.75V96.28h-.66v-.7h.66V94.07h.79v1.51h.73v.7h-.73Z"/><rect class="cls-3" y="83.23" width="103.35" height="28.35"/><path class="cls-2" d="M16.48,100.44h-.87V93.5h1.85c1.64,0,2.55.75,2.55,2.12a2.16,2.16,0,0,1-.74,1.69,2.65,2.65,0,0,1-1.72.48H16.48Zm.91-3.4a2.13,2.13,0,0,0,.86-.13,1.35,1.35,0,0,0,0-2.53,2.91,2.91,0,0,0-1-.13h-.79V97Z"/><path class="cls-2" d="M21.87,94.3a.5.5,0,0,1-.51.5.51.51,0,0,1,0-1A.51.51,0,0,1,21.87,94.3Zm-.11,6.14H21v-4.8h.79Z"/><path class="cls-2" d="M27.09,99.85a2.46,2.46,0,0,1-1.77.7A2.33,2.33,0,0,1,23,98.06a2.42,2.42,0,0,1,4.14-1.81l-.51.51a1.74,1.74,0,0,0-1.22-.5A1.61,1.61,0,0,0,23.78,98a1.63,1.63,0,0,0,1.59,1.8,1.7,1.7,0,0,0,1.23-.52Z"/><path class="cls-2" d="M28.78,100.44H28V93.5h.79v4.24l1.92-2.1h1L29.55,98l2.14,2.46h-1L28.78,98.3Z"/><path class="cls-2" d="M39.32,95.64v3.07a1.62,1.62,0,0,1-.47,1.35,2.07,2.07,0,0,1-1.39.49,2,2,0,0,1-1.38-.51,1.71,1.71,0,0,1-.48-1.33V95.64h.79v3a1.07,1.07,0,0,0,1.07,1.16,1.14,1.14,0,0,0,.86-.37,1.08,1.08,0,0,0,.2-.77V95.64Z"/><path class="cls-2" d="M41.57,95.64v.88a1.86,1.86,0,0,1,1.75-1A2.27,2.27,0,0,1,45.58,98a2.31,2.31,0,0,1-2.26,2.55,2.26,2.26,0,0,1-1-.25,1.7,1.7,0,0,1-.7-.61v3h-.79v-7Zm0,2.48a1.58,1.58,0,0,0,1.58,1.75A1.63,1.63,0,0,0,44.74,98a1.89,1.89,0,0,0-.42-1.31,1.55,1.55,0,0,0-1.13-.49A1.68,1.68,0,0,0,41.57,98.12Z"/><path class="cls-2" d="M49.9,100.44V93.5h.79v6.94Z"/><path class="cls-2" d="M56.78,98.06a2.45,2.45,0,0,1-2.46,2.49,2.51,2.51,0,1,1,2.46-2.49Zm-4.07,0a1.62,1.62,0,0,0,1.63,1.78A1.64,1.64,0,0,0,56,98.05a1.63,1.63,0,1,0-3.25,0Z"/><path class="cls-2" d="M61.72,99.85a2.44,2.44,0,0,1-1.77.7,2.33,2.33,0,0,1-2.35-2.49,2.42,2.42,0,0,1,4.14-1.81l-.51.51a1.73,1.73,0,0,0-1.22-.5A1.61,1.61,0,0,0,58.41,98,1.63,1.63,0,0,0,60,99.83a1.69,1.69,0,0,0,1.23-.52Z"/><path class="cls-2" d="M66.21,95.64H67v4.8h-.79v-.93a2,2,0,0,1-1.75,1,2.29,2.29,0,0,1-2.26-2.49,2.33,2.33,0,0,1,2.28-2.53,2,2,0,0,1,1.73.9Zm-2.78,1.17a2.18,2.18,0,0,0-.4,1.27,1.65,1.65,0,0,0,1.54,1.79A1.78,1.78,0,0,0,66.22,98a1.61,1.61,0,0,0-1.63-1.75A1.28,1.28,0,0,0,63.43,96.81Z"/><path class="cls-2" d="M69.4,99.46c0,.24.07.29.36.29h.37v.69h-.74c-.56,0-.78-.22-.78-.75V96.34h-.67v-.7h.67V94.13h.79v1.51h.73v.7H69.4Z"/><path class="cls-2" d="M72.09,94.3a.5.5,0,0,1-.51.5.51.51,0,0,1,0-1A.51.51,0,0,1,72.09,94.3ZM72,100.44h-.79v-4.8H72Z"/><path class="cls-2" d="M78.06,98.06a2.45,2.45,0,0,1-2.46,2.49,2.51,2.51,0,1,1,2.46-2.49Zm-4.07,0a1.62,1.62,0,0,0,1.63,1.78,1.65,1.65,0,0,0,1.63-1.78,1.64,1.64,0,1,0-3.26,0Z"/><path class="cls-2" d="M80.06,95.64v.68a1.63,1.63,0,0,1,1.42-.79,1.68,1.68,0,0,1,1.12.39A1.58,1.58,0,0,1,83,97.2v3.24h-.79V97.38a1.27,1.27,0,0,0-.18-.82.89.89,0,0,0-.74-.32,1.19,1.19,0,0,0-.92.4,1.14,1.14,0,0,0-.31.88v2.92h-.79v-4.8Z"/><path class="cls-2" d="M86.78,97v0c0-.45-.36-.73-.92-.73s-.86.27-.86.69.21.57,1.07.81a2.48,2.48,0,0,1,1.17.55,1.35,1.35,0,0,1,.38.94c0,.83-.68,1.39-1.7,1.39s-1.71-.51-1.79-1.47h.78a.88.88,0,0,0,1,.83c.54,0,.89-.28.89-.71s-.27-.62-1.09-.83c-1-.28-1.51-.72-1.51-1.45s.68-1.39,1.69-1.39A1.46,1.46,0,0,1,87.57,97Z"/><rect class="cls-4" x="60.11" width="75.75" height="31.48" rx="15.74"/><path class="cls-2" d="M73.31,18.78h-.87V11.84h.87V15h3.38V11.84h.88v6.94h-.88V15.71H73.31Z"/><path class="cls-2" d="M83.72,16.39a2.45,2.45,0,0,1-2.46,2.5,2.37,2.37,0,0,1-2.42-2.52,2.37,2.37,0,0,1,2.46-2.51A2.39,2.39,0,0,1,83.72,16.39Zm-4.07,0a1.62,1.62,0,0,0,1.63,1.78,1.65,1.65,0,0,0,1.63-1.78,1.64,1.64,0,1,0-3.26,0Z"/><path class="cls-2" d="M85.72,14v.67a1.49,1.49,0,0,1,1.36-.79,1.24,1.24,0,0,1,1.29.88,1.57,1.57,0,0,1,1.52-.88,1.46,1.46,0,0,1,1.22.51,1.93,1.93,0,0,1,.29,1.34v3.07h-.79V15.89c0-.58,0-.71-.14-.91a.92.92,0,0,0-.83-.41c-.7,0-1.08.47-1.08,1.32v2.89h-.79V15.9a1.74,1.74,0,0,0-.16-.91.83.83,0,0,0-.78-.42c-.7,0-1.11.5-1.11,1.33v2.88h-.79V14Z"/><path class="cls-2" d="M93.42,16.63a1.48,1.48,0,0,0,.31.88,1.57,1.57,0,0,0,1.29.65,1.67,1.67,0,0,0,1.44-.82l.7.26a2.43,2.43,0,0,1-4.58-1.21,2.42,2.42,0,1,1,4.84-.07v.31Zm3.16-.58a1.46,1.46,0,0,0-.27-.82A1.63,1.63,0,0,0,95,14.57a1.53,1.53,0,0,0-1.29.67,1.79,1.79,0,0,0-.27.81Z"/><path class="cls-2" d="M102.48,14v.87a1.88,1.88,0,0,1,1.75-1,2.27,2.27,0,0,1,2.26,2.48,2.31,2.31,0,0,1-2.26,2.55,2.26,2.26,0,0,1-1-.25,1.7,1.7,0,0,1-.7-.61v3h-.79V14Zm0,2.48a1.58,1.58,0,0,0,1.59,1.74,1.63,1.63,0,0,0,1.58-1.83,1.86,1.86,0,0,0-.42-1.3,1.56,1.56,0,0,0-1.13-.5A1.68,1.68,0,0,0,102.48,16.46Z"/><path class="cls-2" d="M111.31,14h.79v4.8h-.79v-.93a2,2,0,0,1-1.75,1,2.3,2.3,0,0,1-2.26-2.5,2.34,2.34,0,0,1,2.28-2.53,2,2,0,0,1,1.73.91Zm-2.78,1.16a2.23,2.23,0,0,0-.4,1.27,1.65,1.65,0,0,0,1.54,1.79,1.77,1.77,0,0,0,1.65-1.87,1.62,1.62,0,0,0-1.63-1.76A1.31,1.31,0,0,0,108.53,15.14Z"/><path class="cls-2" d="M117.23,14H118v4.83a2.27,2.27,0,0,1-.63,1.76,2.52,2.52,0,0,1-1.77.63,2.72,2.72,0,0,1-2.13-.87l.54-.54a3.29,3.29,0,0,0,.46.41,2.3,2.3,0,0,0,1.13.28,1.72,1.72,0,0,0,1.25-.47,1.67,1.67,0,0,0,.36-1.14v-1a2,2,0,0,1-1.77,1,2.31,2.31,0,0,1-2.22-2.5,2.72,2.72,0,0,1,.76-2,2.11,2.11,0,0,1,1.52-.57,2,2,0,0,1,1.71.94Zm-3.15,2.38a1.58,1.58,0,0,0,2.79,1.22,2,2,0,0,0,.34-1.19,1.66,1.66,0,0,0-.38-1.27,1.64,1.64,0,0,0-1.16-.53A1.61,1.61,0,0,0,114.08,16.36Z"/><path class="cls-2" d="M120,16.63a1.48,1.48,0,0,0,.31.88,1.57,1.57,0,0,0,1.29.65,1.67,1.67,0,0,0,1.44-.82l.69.26a2.34,2.34,0,0,1-2.13,1.29,2.38,2.38,0,0,1-2.44-2.5,2.43,2.43,0,1,1,4.85-.07,1.9,1.9,0,0,1,0,.31Zm3.16-.58a1.46,1.46,0,0,0-.27-.82,1.63,1.63,0,0,0-1.32-.66,1.53,1.53,0,0,0-1.29.67,1.92,1.92,0,0,0-.27.81Z"/><rect class="cls-4" x="60.11" y="211.78" width="75.75" height="31.48" rx="15.74"/><path class="cls-2" d="M81.83,229l-.64,1.6h-.9l2.61-6.94h1l2.55,6.94h-1l-.57-1.6Zm1.57-4.24-1.31,3.49h2.58Z"/><path class="cls-2" d="M90.89,223.62h.79v6.94h-.79v-.82a2,2,0,0,1-1.72.93,2.29,2.29,0,0,1-2.26-2.48,2.35,2.35,0,0,1,2.26-2.54,2.07,2.07,0,0,1,1.72.84Zm-3.14,4.58A1.61,1.61,0,0,0,89.29,230a1.67,1.67,0,0,0,1.6-1.81,1.62,1.62,0,0,0-1.55-1.82A1.64,1.64,0,0,0,87.75,228.2Z"/><path class="cls-2" d="M96.86,223.62h.79v6.94h-.79v-.82a2,2,0,0,1-1.71.93,2.28,2.28,0,0,1-2.26-2.48,2.34,2.34,0,0,1,2.26-2.54,2,2,0,0,1,1.71.84Zm-3.14,4.58A1.61,1.61,0,0,0,95.26,230a1.66,1.66,0,0,0,1.6-1.81,1.61,1.61,0,0,0-1.55-1.82A1.64,1.64,0,0,0,93.72,228.2Z"/><path class="cls-2" d="M100,225.76v.81a1.39,1.39,0,0,1,.43-.63,1.51,1.51,0,0,1,.92-.29h.19v.8h-.22a1.23,1.23,0,0,0-1,.55,1.74,1.74,0,0,0-.28,1.13v2.44h-.79v-4.8Z"/><path class="cls-2" d="M102.84,228.42a1.47,1.47,0,0,0,.31.87,1.55,1.55,0,0,0,1.29.66,1.69,1.69,0,0,0,1.44-.83l.69.26a2.33,2.33,0,0,1-2.13,1.29,2.51,2.51,0,1,1,2.4-2.57c0,.07,0,.2,0,.32Zm3.16-.59a1.46,1.46,0,0,0-.27-.82,1.63,1.63,0,0,0-1.32-.65,1.53,1.53,0,0,0-1.29.66,1.84,1.84,0,0,0-.27.81Z"/><path class="cls-2" d="M110.18,227.07v0c0-.45-.36-.73-.91-.73s-.87.27-.87.69.21.57,1.08.81a2.49,2.49,0,0,1,1.16.55,1.36,1.36,0,0,1,.39.94c0,.83-.69,1.39-1.71,1.39s-1.71-.51-1.79-1.47h.78a.89.89,0,0,0,1,.83c.54,0,.89-.28.89-.71s-.27-.62-1.09-.83c-1-.28-1.51-.72-1.51-1.45s.68-1.39,1.69-1.39a1.46,1.46,0,0,1,1.67,1.42Z"/><path class="cls-2" d="M114.46,227.07v0c0-.45-.36-.73-.91-.73s-.87.27-.87.69.21.57,1.07.81a2.48,2.48,0,0,1,1.17.55,1.35,1.35,0,0,1,.38.94c0,.83-.68,1.39-1.7,1.39s-1.71-.51-1.79-1.47h.78a.88.88,0,0,0,1,.83c.54,0,.89-.28.89-.71s-.27-.62-1.09-.83c-1-.28-1.51-.72-1.51-1.45s.68-1.39,1.69-1.39a1.46,1.46,0,0,1,1.67,1.42Z"/><rect class="cls-2" x="97.61" y="31.61" width="0.75" height="22.52"/><polygon class="cls-2" points="143.2 76.63 142.45 76.63 142.45 54.43 53.52 54.43 53.52 76.63 52.77 76.63 52.77 53.68 143.2 53.68 143.2 76.63"/><polygon class="cls-2" points="146.56 75.53 142.82 82.01 139.08 75.53 146.56 75.53"/><polygon class="cls-2" points="49.4 75.53 53.14 82.01 56.88 75.53 49.4 75.53"/><rect class="cls-2" x="97.61" y="187.95" width="0.75" height="16.46"/><polygon class="cls-2" points="101.72 203.31 97.98 209.79 94.24 203.31 101.72 203.31"/><circle class="cls-2" cx="97.98" cy="188.09" r="2.82"/><polygon class="cls-2" points="143.2 187.72 52.77 187.72 52.77 111.58 53.52 111.58 53.52 186.97 142.45 186.97 142.45 111.58 143.2 111.58 143.2 187.72"/></g></g></svg>