<svg xmlns="http://www.w3.org/2000/svg" viewBox="0 0 473.25 266.75"><defs><style>.cls-1,.cls-12,.cls-2{fill:#fff;}.cls-13,.cls-2{opacity:0.2;}.cls-11,.cls-12,.cls-13,.cls-2,.cls-7,.cls-8,.cls-9{isolation:isolate;}.cls-16,.cls-3,.cls-4{fill:none;}.cls-16,.cls-4{stroke:#000;stroke-miterlimit:10;}.cls-4{stroke-width:0.2px;}.cls-5{fill:#2a2d7d;}.cls-6{fill:#ffd1d1;}.cls-13,.cls-15,.cls-7,.cls-9{fill:#00008c;}.cls-12,.cls-14,.cls-7,.cls-8{opacity:0.8;}.cls-8{fill:#9797ea;}.cls-9{opacity:0.5;}.cls-10,.cls-11{fill:#1b1b1b;}.cls-11{opacity:0.6;}.cls-16{stroke-width:0.75px;}</style></defs><title>colab</title><g id="Layer_2" data-name="Layer 2"><g id="Layer_1-2" data-name="Layer 1"><path class="cls-1" d="M472.77,255.57h-48.1a10,10,0,0,0,10-10V10.38a10,10,0,0,0-10-10H48.58a10,10,0,0,0-10,10V245.57a10,10,0,0,0,10,10H.48v3.9s43,6.8,114.4,6.8h243.5c71.39,0,114.39-6.8,114.39-6.8h0v-3.9Z"/><g id="Layer_1-2-2" data-name="Layer 1-2-2"><g id="Layer_2-2" data-name="Layer 2-2"><rect class="cls-2" x="57.67" y="16.97" width="358.9" height="224.9"/><path class="cls-3" d="M424.67,255.57a10,10,0,0,0,10-10V10.28a10,10,0,0,0-10-10H48.58a10,10,0,0,0-10,10v235.2a10,10,0,0,0,10,10H.48v3.9s43,6.9,114.4,6.9h243.5c71.39,0,114.39-6.9,114.39-6.9v-3.9Z"/><path class="cls-4" d="M48.58.38h376.1a10,10,0,0,1,10,10V245.57a10,10,0,0,1-10,10H48.58a10,10,0,0,1-10-10V10.28A9.94,9.94,0,0,1,48.58.38Z"/><rect class="cls-4" x="57.17" y="16.97" width="358.9" height="224.9"/><rect class="cls-4" x="0.48" y="255.57" width="472.4" height="3.9"/><path class="cls-4" d="M.48,259.47s43,6.9,114.4,6.9h243.5c71.39,0,114.39-6.9,114.39-6.9Z"/><path class="cls-4" d="M195.77,255.57h81.61a1.22,1.22,0,0,1,1.2,1.21v1.4a1.22,1.22,0,0,1-1.2,1.2H195.77a1.22,1.22,0,0,1-1.2-1.2v-1.4A1.22,1.22,0,0,1,195.77,255.57Z"/></g></g><rect class="cls-4" x="57.17" y="16.97" width="358.9" height="224.9"/><g id="Layer_1-2-2-2" data-name="Layer 1-2"><path class="cls-5" d="M263.08,193.68c-2.2-36-23.2-69.31-52.1-90.91-23.1-17.29-58.7-34.4-88.5-32-24.4,1.91-50.5,28.6-60.9,49a73.06,73.06,0,0,0-4.3,10v82.5A163.27,163.27,0,0,0,69,241.78h187.6C261.27,226.18,264.08,210,263.08,193.68Z"/><path class="cls-6" d="M371.48,41.18a81.45,81.45,0,0,0-24-24.21H240.38c-4.4,4.21-8.5,9-13,13.21a179.87,179.87,0,0,0-51.2,83.9,169.75,169.75,0,0,0-5.9,56.4c1.5,21.6,8.1,44.5,25.4,57.59,16.3,12.4,38.5,13.2,59,13.5,20.09.3,40.3.61,60-3.7s38.8-13.5,51.21-29.3c17.2-21.7,18.89-51.5,19.89-79.1C387,99.27,387.67,66.87,371.48,41.18Z"/><path class="cls-7" d="M263.58,241.78c.4-4.2,1.4-14.4,1.4-15.1-2,2.1-5,9.6-8,15.1"/><path class="cls-7" d="M262.58,241.87a9,9,0,0,0,.9-1c.1-1.1.2-2.1.29-3.19.11-.81,0-1.61.11-2.4.1-.5.2-.9.29-1.4v-2.2a27.45,27.45,0,0,1,.8-5,15.87,15.87,0,0,1,.7-2c.1-.4.21-.8.3-1.1a6.73,6.73,0,0,1,1.1-1.4c.3-.4.4-.3.7-.6a2.05,2.05,0,0,0,.5-.8,8.57,8.57,0,0,0,.5-2.7,14.32,14.32,0,0,0,0-3,16.78,16.78,0,0,0-.79-2.3c-.21-.5-.3-.4-.21-1s.3-1.4.4-2c.1-.9.21-1.8.3-2.7.1-.7.2-1.4.3-2,0-.1.2-.3.2-.4v-.8a4.15,4.15,0,0,1,.3-1.6,23.48,23.48,0,0,0,.5-3.7c.1-1.2.4-2.4.5-3.7.1-1,.5-2,.5-3a5.46,5.46,0,0,1,.6-2.8,253.4,253.4,0,0,1-.9-37,30.28,30.28,0,0,1-.2-3.1v-4.9c0-3,.2-6.1,0-9a15.17,15.17,0,0,1-.3-2.1v-.61a4.42,4.42,0,0,0-.5-1.5,25,25,0,0,1-1-2.5c-.7-1.9-1.4-4.19-.8-6.19a14.13,14.13,0,0,0,.71-3.5c0-.91.29-1.7.29-2.6a38.09,38.09,0,0,1,.8-5.9c.1-.5.2-1,.3-1.41v-.69c0-.2.2-.2.3-.4a5.24,5.24,0,0,0-.1-2.5c.5-.5,1.1-.5,1.7-.81a3.42,3.42,0,0,0,1.2-1.19,5.09,5.09,0,0,0,.7-1.7,13.32,13.32,0,0,1,.5-1.9,7.49,7.49,0,0,0,.4-3.9,13.81,13.81,0,0,1-.8-3.5,3,3,0,0,0-.2-.91,2.72,2.72,0,0,1,0-.9,2.11,2.11,0,0,0-.5-1.3c-.4-.3-1.1-.3-1.5-.6a4.74,4.74,0,0,1-1-1,14.94,14.94,0,0,1-1.3-2.5,18,18,0,0,0-1.79-2c-.9-1.1-1.4-2.4-2.61-3.3a15.27,15.27,0,0,0-1.39-.9,4,4,0,0,0-1.5-.3l-.8-.3h-.2c-.3,0-.4.2-.61.2a10.81,10.81,0,0,1-1.79.1,13.6,13.6,0,0,1-2-.3h-2a20.07,20.07,0,0,1-4.2-.5c-.3-.1-.6-.2-1-.3a2.15,2.15,0,0,0-.8,0c-.3,0-.2-.2-.4-.3h-.6l-1.1-.3a8.33,8.33,0,0,0-1.5-.4,5.28,5.28,0,0,0-1.61.6,3.74,3.74,0,0,0-1,.7c-.3.2-.6.2-.89.4a1.37,1.37,0,0,0-.4.4,10.63,10.63,0,0,0-1.1.9,10.33,10.33,0,0,0-3.31,5,6.59,6.59,0,0,1-1.89,2.6c-.7.7-1.7,1-2.4,1.6-.5.4-.6,1.3-1.4,1.4,0,.5-.3.7-.3,1.3v1.6a18.41,18.41,0,0,1-.3,3.3c-.1.6-.4,1-.2,1.6s.2.8.3,1.4c.2,1.4.8,2.8,1,4.2a5.78,5.78,0,0,1,1.7.6,1.06,1.06,0,0,1,.9,1c.2,1,.2,2.1.3,3.1v6.2a25.49,25.49,0,0,1-.2,3.9,10.55,10.55,0,0,1-.4,3.1,12.81,12.81,0,0,1-1.4,3.4,9.68,9.68,0,0,0-1.4,3.3c-.4,1.1-1,2.2-1.3,3.3a4.81,4.81,0,0,1-.8,1.6c-.3.6-.5,1.3-.8,1.9a14,14,0,0,0-1.6,4.3c-.7,3.2-1.6,6.3-1.5,9.6,0,1.2-.3,2.3-.3,3.5a20.55,20.55,0,0,1-.2,3.5,21.36,21.36,0,0,0-.1,3.6v4.1c0,2.3,0,4.6-.2,6.9a16.15,16.15,0,0,0,0,2.2,14.81,14.81,0,0,1-.3,1.9,17.65,17.65,0,0,0,0,2.3c0,.9-.3,1.8-.3,2.7-.1,1.5,0,2.9-.2,4.3-.2,1.6,0,3.2-.3,4.8-.2,1.8-.4,3.7-.5,5.5s.2,3.7-.1,5.5c-.31,2.1-.2,4.3-.7,6.3-.5,2.5-.9,4.9-1.3,7.4-.4,2.2-.7,4.4-1.2,6.6-.4,1.9-.61,3.9-1,5.8-.61,2.7-1.5,5.3-2.3,8-.61,1.9-1.11,3.9-1.7,5.8-.3.7-.5,1.8-.8,2.6"/><path class="cls-8" d="M254.27,78c-2.2-.2-4.39-.4-6.6-.7-1.7-.2-4-.9-5.5.3l-.2.1a1.79,1.79,0,0,0,1.4.4,11.53,11.53,0,0,1,2.6.3,4.5,4.5,0,0,1,2.3,2.4,2.58,2.58,0,0,1-.39,3,6.46,6.46,0,0,0-.81,1,2,2,0,0,1-.39.6c-.2.3-.5.5-.7.8l-.6.9a2.48,2.48,0,0,0,0,.9,3.29,3.29,0,0,1-.31.6v1.1c0,.8-.39,3.2.31,3.6.39.3,1.1-.1,1.5-.2h.19a18.81,18.81,0,0,1,1-1.7,3.82,3.82,0,0,1,.9-.9c-1.1-1.7-.4-4.7,2.3-4.7,3.11,0,3.7,3.9,1.8,5.4,1.2,1.2,3.2,2,4.51,3.4.1.1.2.2.2.3a1.38,1.38,0,0,0,1.1-.6c.2-.2,0-.6,0-.9a2,2,0,0,1,.4-.8c.5-.6.9-.9.9-1.7a2.39,2.39,0,0,0-.5-1.4,16.22,16.22,0,0,0-2.5-2.8,2.73,2.73,0,0,1-.9-1.2,6.87,6.87,0,0,1-.5-2.4c0-1.3-.2-2.7,1.1-3.4a14.16,14.16,0,0,1,2.2-.7c.6-.1,1.6-.2,1.9-.8a.6.6,0,0,0,.1-.4A51.75,51.75,0,0,1,254.27,78Z"/><path class="cls-8" d="M244.48,76c-.1.1-.3.1-.4.2S244.07,76.08,244.48,76Z"/><path class="cls-7" d="M284.48,211.78a17,17,0,0,1-.6-3.1c-.21-3.31,0-6.7,0-10.11,0-3,1.5-5.89,1.29-8.89a19.4,19.4,0,0,0-2.6-7.7,38.19,38.19,0,0,1-2.1-3.9c-.8-1.8-1.5-3.7-2.4-5.4-.4-.8-.8-1.5-1.2-2.3a10.09,10.09,0,0,0-.7-1.5,3.51,3.51,0,0,1-.5-.8,6.39,6.39,0,0,0-.8-1.9,6.72,6.72,0,0,1-.6-1.2c-.3-.6-.7-1.2-1-1.8a27.18,27.18,0,0,0-1.1-2.5,15.87,15.87,0,0,1-.7-2,9.83,9.83,0,0,1-.5-1.6,15.4,15.4,0,0,1-.6-4.3v-.6a240.44,240.44,0,0,0,.9,37v-.11c.2.11.5.8.6,1a16.77,16.77,0,0,0,1.2,1.61,22,22,0,0,1,1.8,3.39,32.09,32.09,0,0,1,.7,4.3c.2.81.3,1.7.5,2.5V203c.1.3.2.5.3.8.1.5,0,1,.1,1.4.1.69.5,1.19.6,1.8s.4,1.3.6,2,.7,1,.9,1.6.4,1.1.6,1.6c.5.7,1.4.6,2.1,1,.9.6.8,1.6.8,2.6a6.15,6.15,0,0,1-.9,2.9c-.3.7-.4,2.3.9,1.8.6-.2.9-.8,1.2-1.2a1.56,1.56,0,0,0,.6-.8,6,6,0,0,0,.7-3,9.66,9.66,0,0,0-.1-2.4C284.77,212.57,284.48,212.07,284.48,211.78Z"/><path class="cls-7" d="M284.48,211.78a17,17,0,0,1-.6-3.1c-.21-3.31,0-6.7,0-10.11,0-3,1.5-5.89,1.29-8.89a19.4,19.4,0,0,0-2.6-7.7,38.19,38.19,0,0,1-2.1-3.9c-.8-1.8-1.5-3.7-2.4-5.4-.4-.8-.8-1.5-1.2-2.3a10.09,10.09,0,0,0-.7-1.5,3.51,3.51,0,0,1-.5-.8,6.39,6.39,0,0,0-.8-1.9,6.72,6.72,0,0,1-.6-1.2c-.3-.6-.7-1.2-1-1.8a27.18,27.18,0,0,0-1.1-2.5,15.87,15.87,0,0,1-.7-2,9.83,9.83,0,0,1-.5-1.6,15.4,15.4,0,0,1-.6-4.3v-.6a240.44,240.44,0,0,0,.9,37v-.11c.2.11.5.8.6,1a16.77,16.77,0,0,0,1.2,1.61,22,22,0,0,1,1.8,3.39,32.09,32.09,0,0,1,.7,4.3c.2.81.3,1.7.5,2.5V203c.1.3.2.5.3.8.1.5,0,1,.1,1.4.1.69.5,1.19.6,1.8s.4,1.3.6,2,.7,1,.9,1.6.4,1.1.6,1.6c.5.7,1.4.6,2.1,1,.9.6.8,1.6.8,2.6a6.15,6.15,0,0,1-.9,2.9c-.3.7-.4,2.3.9,1.8.6-.2.9-.8,1.2-1.2a1.56,1.56,0,0,0,.6-.8,6,6,0,0,0,.7-3,9.66,9.66,0,0,0-.1-2.4C284.77,212.57,284.48,212.07,284.48,211.78Z"/><path class="cls-9" d="M258.88,80c-.9.7-2.4,1.3-2.5,2.5a5.91,5.91,0,0,0,.79,2.9c.5,1.3,1.8,1.9,2.5,3,.71,1.3,1.3,2.6,2,3.9.3.6.3.7,1,.7a1.08,1.08,0,0,0,.8-.2c.2-.2.1-.7.4-1a4.42,4.42,0,0,1,1.6-.6c.7-.2,1.4-.1,2.1-.3a1.59,1.59,0,0,0,1.5-1.2,2.26,2.26,0,0,0,.1-1.8c-.5-1.3-1.9-2.2-2.7-3.3-.4-.5-.6-1.1-1-1.6s-.8-1.1-1.2-1.6a12,12,0,0,0-1.1-1.2,3.55,3.55,0,0,0-.9-.4h-.4c-.2,0-.4-.2-.7-.2"/><path class="cls-9" d="M247.48,79.27h0a6.07,6.07,0,0,0-1.8-.5h-1.2a1.88,1.88,0,0,0-.8.2,2.35,2.35,0,0,0-.8.2c-.2.1-.5.2-.7.3a2.18,2.18,0,0,0-.9.7c-.3.3-.6.5-.9.8s-.6.7-.9,1.1-.5.7-.7,1.1a3.55,3.55,0,0,0-.4.9,1.42,1.42,0,0,0-.2.6,8.88,8.88,0,0,0-.1,2.3,1.21,1.21,0,0,0,.3,1,6.39,6.39,0,0,0,1.5,1.3,8.51,8.51,0,0,0,2.2.91,1.42,1.42,0,0,0,1.5-.31l.8-.8c.1-.1.2-.3.3-.4a3,3,0,0,1,.8-.8,10.59,10.59,0,0,0,1.2-1,12,12,0,0,1,1.2-1.1,5,5,0,0,0,1.4-1.5,2,2,0,0,0,.4-.8,4.48,4.48,0,0,0,.1-1.1,2.72,2.72,0,0,0,0-.9c0-.1-.1-.1-.1-.2V81c-.1-.3-.3-.4-.4-.7s-.3-.4-.4-.6A5.58,5.58,0,0,0,247.48,79.27Z"/><path class="cls-10" d="M249.27,88.68a.87.87,0,0,0,.5.5c.2.09.3,0,.4-.2a.52.52,0,0,0,.2-.4c0-.31,0-.31-.3-.4s-.8,0-.9-.2,0-.4,0-.6a1.42,1.42,0,0,1,.2-.6,1.37,1.37,0,0,1,.8-.5h.6c.2,0,.3-.1.5-.1h.7a1.27,1.27,0,0,1,.6.1c.2.1.5.1.7.2a2.19,2.19,0,0,1,.9,1,1.7,1.7,0,0,1,0,1,.83.83,0,0,1-.8.3c-.2,0-1-.1-1,.3,0,.2.2.2.3.2a2,2,0,0,0,.8.4,2.1,2.1,0,0,1,1.1.4c.31.3.11.7-.19.9a5.2,5.2,0,0,1-1.11.5,2.74,2.74,0,0,1-1.3.3c-.1,0-.2-.1-.4-.1a.56.56,0,0,1-.39-.1,1.88,1.88,0,0,0-.8-.2,2.26,2.26,0,0,0-.81-.1.78.78,0,0,1-.5-.1,2.15,2.15,0,0,1-.5-1.5A1.41,1.41,0,0,1,249.27,88.68Z"/><path class="cls-11" d="M245.48,96.68l.6-.31a.75.75,0,0,0,.4-.4c.3-.4.7-.7,1-1.1.2-.19.4-.3.6-.5s.3-.19.4-.4a.6.6,0,0,1,.4-.1c.19,0,.39-.1.6-.1a2.06,2.06,0,0,0,1-.59.9.9,0,0,1,.8-.41,1.55,1.55,0,0,1,.9.31,4.42,4.42,0,0,0,1.6.6c.3.09.5.3.8.4a3.51,3.51,0,0,1,.8.5c.2.19.4.3.6.5s.3.3.5.5.6.5.9.69.8.41.7.7-.6.2-.9.2a3.58,3.58,0,0,1-1.1-.4,1.61,1.61,0,0,0-.7-.4,4.48,4.48,0,0,0-2-.4c-.3,0-.6-.1-1-.1h-1.2c-.4,0-.8-.1-1.1-.1h-.4c-.1,0-.1.1-.2.1h-.4c-.2,0-.5.1-.7.1a4.25,4.25,0,0,1-1.1.2,2.38,2.38,0,0,0-1.1.6,1.61,1.61,0,0,1-.9.3C245.48,97.08,245.48,97,245.48,96.68Z"/><path class="cls-10" d="M246.27,83.08c0,.1.11.19.11.3v.4a.75.75,0,0,0,.1.5.6.6,0,0,1-.1.4,1.56,1.56,0,0,1-.2.7,2.49,2.49,0,0,1-.61.5l-.89.3a4.18,4.18,0,0,0-1,.4.45.45,0,0,1-.5,0,3.4,3.4,0,0,1-.9-.4c-.1-.1-.1-.2-.2-.3a2,2,0,0,1-.4-.8c-.2.19-.3.19-.3.5a1.29,1.29,0,0,0,.1.6,1.41,1.41,0,0,0,.9.59,5,5,0,0,0,1.2.2h.6a1.27,1.27,0,0,0,.6-.1,1.55,1.55,0,0,0,.6-.19,1.64,1.64,0,0,0,.5-.41c.1-.19.2-.3.3-.5s.3-.4.4-.59a4.35,4.35,0,0,0,.4-1C246.88,83.87,246.88,83.08,246.27,83.08Z"/><path class="cls-10" d="M244.68,82.27a2.63,2.63,0,0,0-1.5.31,5,5,0,0,0-.9.69,1.63,1.63,0,0,0-.5,1.1,1.59,1.59,0,0,0,.5,1.1,2.38,2.38,0,0,0,1.1.6,2,2,0,0,0,1.3-.1l.3-.3a1.76,1.76,0,0,0,.5-.4,1.61,1.61,0,0,0,.5-1.1,1.72,1.72,0,0,0-.2-1.2C245.57,82.37,245.07,82.37,244.68,82.27Z"/><path class="cls-10" d="M260,83.68a1.26,1.26,0,0,0-.4.4c-.1.19-.3.4-.4.6a.89.89,0,0,0-.1.5,1.23,1.23,0,0,0-.1.59,3.35,3.35,0,0,0,1.2,1.7,3.6,3.6,0,0,0,1.8,1.2,10.28,10.28,0,0,0,1.7.1,3.08,3.08,0,0,0,1.3-.3,1.61,1.61,0,0,0,.6-.8c.1-.1.1-.3.2-.5a1.27,1.27,0,0,0,.1-.6c0-.2-.1-.4-.1-.6a.76.76,0,0,0-.2-.4c-.1-.1-.5-.6-.8-.4a1.27,1.27,0,0,0-.1.6,4.33,4.33,0,0,1-.1.5,2,2,0,0,1-.8.8,3.32,3.32,0,0,1-2.4.1c-.3-.1-.5-.5-.7-.7a2.07,2.07,0,0,1-.6-1,.6.6,0,0,0-.1-.4V84C260,83.77,259.88,83.77,260,83.68Z"/><path class="cls-10" d="M262.67,83.08c-.6,0-1.5-.2-1.79.5a2.16,2.16,0,0,0-.21.8,1.27,1.27,0,0,0-.1.6,3,3,0,0,0,.4,1,1.52,1.52,0,0,0,1.2.7,3.12,3.12,0,0,0,1.6-.1,1.45,1.45,0,0,0,.71-.6c.1-.2.2-.5.29-.7a1.67,1.67,0,0,0-.39-1.5,2.26,2.26,0,0,0-.8-.5.9.9,0,0,0-.5-.1.31.31,0,0,0-.41-.1"/><path class="cls-7" d="M246.77,100.08a1.31,1.31,0,0,0,.61.69,5,5,0,0,0,1.6,1c.2,0,.4.1.6,0h1.3a17.2,17.2,0,0,0,2.2-.3c.5,0,1.8-.1,1.8.6.1.9-1.5.8-2,.8-.9,0-1.8.4-2.7.4H249a4.07,4.07,0,0,1-1.1-.4,4.28,4.28,0,0,1-1.6-1.4,1.61,1.61,0,0,1-.3-.9,1.27,1.27,0,0,1-.1-.6C246.18,100,246.48,100.08,246.77,100.08Z"/><path class="cls-2" d="M238.68,158.78c0,.2-.3.4-.4.6a2.77,2.77,0,0,0,.1.9,1.85,1.85,0,0,0,.2.7c.1.1.4.2.4.3s0,.5,0,.7a2.74,2.74,0,0,1,.1.89,5.9,5.9,0,0,1-.2,1.4c-.2.6-.4,1.2-.6,1.7a15.87,15.87,0,0,0-.7,2,24.37,24.37,0,0,0-.6,2.6,3.72,3.72,0,0,0,.2,1.11,3,3,0,0,1-.11,1.39,5,5,0,0,1-1.3,2.61c-.1.1-.3.19-.39.39l-.2.2c-.11,0-.2.1-.3.2s-.11.2-.2.3-.3.1-.3.2.19.3.19.4a1.33,1.33,0,0,0,.5.5c.11.1.2.1.4.1s.5,0,.6.1c-.1.2-.39.3-.5.4s-.5.4-.69.6a1.42,1.42,0,0,0-.4.3c.2.2.8-.1,1-.1h1.2a12.81,12.81,0,0,1,2,.1c1.3.2,2.2,1.11,3.3,1.7l2.4,1.5a8.13,8.13,0,0,1,1.69,1.4,7.73,7.73,0,0,0,1.81,1.8,11.56,11.56,0,0,1,2,1.7,3.57,3.57,0,0,0,1.1,1,4.07,4.07,0,0,0,1.8.5.6.6,0,0,1,.4.1c.5.3.39.9.6,1.4.1.2.1.5.2.7v.9a6.75,6.75,0,0,0,.2,1.4c.1.4.1.9.2,1.3s.1.8.1,1.3-.3,1.3-.3,1.9c0,.8.1,1.6.1,2.4a4.1,4.1,0,0,0,.1,1.1,6.37,6.37,0,0,1,.2.7c0,.3.1.7.1,1a2.19,2.19,0,0,0,.3.5c.2.4.2.8.4,1.1a6.47,6.47,0,0,0,.4,1.3c.1.2.1.1.3.2s.6,0,.7.2a3,3,0,0,1,.4,1l.6,1.8a2.09,2.09,0,0,0,.4.6c.2.2.4.5.6.7.4.4,1.1.4,1.6.6a5.94,5.94,0,0,1,.8.4l.6.3a1.46,1.46,0,0,1,.6.9c.1.2.2.3.3.5a6.15,6.15,0,0,1-.1,1.4v1c0,.2-.1.4-.1.6,0,.4-.21.5,0,.9,0,.1.2.6.4.6a10.54,10.54,0,0,1,.7-1.1,4.05,4.05,0,0,1,.5-.9c0,.2.1.3.1.5s.1.3.1.4.1.3.1.4v.5a5.45,5.45,0,0,1-.5,2.2,6.47,6.47,0,0,0-.4,1.3,1.27,1.27,0,0,0-.1.6c0,.1-.2.4-.2.5.1.3.8-.1.9.2s-.5.7-.4,1c.2,0,.4-.2.6-.3s.5-.4.7-.5a3.74,3.74,0,0,0,1.2-1.3,3.1,3.1,0,0,0,.6-1.3c0-.3.1-.6,0-.8s.1-.6.1-.9v-2c0-.2-.1-.4-.1-.6a1.85,1.85,0,0,1,.2-.7c.1-.1.1-.4.3-.4s.4.9.4,1.1a7.72,7.72,0,0,0,.2,1.5,6.05,6.05,0,0,1,0,1.9v1.3a1.85,1.85,0,0,1-.2.7.76.76,0,0,0-.2.4c.1.3.7.1.8,0,.5-.3.6-1,.8-1.5.1-.1.1-.2.2-.4a.6.6,0,0,0-.1-.4v-.9a25.39,25.39,0,0,0,0-3.9,6.47,6.47,0,0,0-.4-1.3c-.1-.4-.2-.7-.3-1.1a9.51,9.51,0,0,1-.7-2.4c-.2-.8-.3-1.5-.5-2.3-.1-.3-.2-.7-.3-1s.1-1.1-.1-1.3a1.42,1.42,0,0,0-.2-.6,6.37,6.37,0,0,0-.2-.7c-.1-.3-.21-.5-.3-.8s-.1-.6-.2-.9-.3-.7-.4-1-.2-.9-.3-1.4c-.2-.9-.3-1.8-.5-2.7a10.46,10.46,0,0,0-.4-1.7,5.08,5.08,0,0,1-.3-1.7c-.1-.7-.1-1.5-.2-2.2,0-.4-.1-.8-.1-1.3a5,5,0,0,0-.2-1.2c-.1-.7-.3-1.4-.4-2.2a5.08,5.08,0,0,0-.9-1.8c-.5-.7-.8-1.5-1.3-2.2a11.81,11.81,0,0,0-.9-1.1,3.59,3.59,0,0,1-.7-1,2.65,2.65,0,0,1-.5-.6c-.1-.2-.3-.5-.4-.7-.2-.4-.5-.8-.7-1.2-.4-.9-.9-1.7-1.4-2.6s-.9-1.6-1.3-2.4a18.34,18.34,0,0,0-1.3-2.4c-.6-1.2-1.4-2.3-1.9-3.5-.4-.89-.7-1.8-1.1-2.8a8.33,8.33,0,0,1-.4-1.5,2.49,2.49,0,0,1-.1-.8,1.27,1.27,0,0,0,.1-.6,1.14,1.14,0,0,1-.3.8,1.09,1.09,0,0,0-.1.5.37.37,0,0,1-.1.3c0-1.6.1-4-.5-5.5a11.11,11.11,0,0,1-.7-1.6,8.33,8.33,0,0,0-.4-1.5c-.3-.8-.5-1.6-.8-2.4a6.19,6.19,0,0,0-.7-1.9,2.73,2.73,0,0,0-2.2-1,3.09,3.09,0,0,0-3.3,1.8c-.3.5-.6.9-.9,1.4-.2.3-.3.7-.5,1a14.17,14.17,0,0,0-.8,1.8C239.27,155.68,238.18,158.37,238.68,158.78Z"/><path class="cls-11" d="M273.67,90.48a1.61,1.61,0,0,0-.7-.4,1.91,1.91,0,0,0-1,.5,5,5,0,0,0-2,2.3,8.47,8.47,0,0,0-.4,1.7,8.75,8.75,0,0,0-.2,1.6c0,.9-.1,1.69-.1,2.59v4c.1.7.3,1.7,1.1,1.7a.9.9,0,0,0,.5-.1c.2,0,.3.1.5,0s.2-.3.3-.4.3-.2.4-.3a2,2,0,0,0,.7-.9,9.41,9.41,0,0,0,1.2-2.2,15,15,0,0,0,.2-2.2v-5.6A3,3,0,0,1,273.67,90.48Z"/><path class="cls-11" d="M233.18,88a.91.91,0,0,0-.7-.3,2.14,2.14,0,0,0-1,.59,4.52,4.52,0,0,0-1.8,2.5,10,10,0,0,0-.2,1.7,4.3,4.3,0,0,0,0,1.6c.1.9,0,1.7.1,2.6a16.35,16.35,0,0,1,.2,2.2,11,11,0,0,0,.2,1.8c.2.6.5,1.7,1.3,1.6.1,0,.3-.1.4-.1s.3,0,.5-.1.2-.3.3-.4a1.38,1.38,0,0,1,.4-.3,2.07,2.07,0,0,0,.6-1,9.17,9.17,0,0,0,.9-2.3,14.74,14.74,0,0,0-.11-2.2l-.39-4.1a8.57,8.57,0,0,0-.2-1.5C233.68,89.68,233.18,89.37,233.18,88Z"/><path class="cls-12" d="M243.88,82.37c-.4.31-.61.4-.5.9,0,.31.1.7.5.7s.6-.2.8-.5a.6.6,0,0,0,.1-.4c0-.3-.1-.3-.4-.3"/><path class="cls-12" d="M262.48,83.48c-.3,0-.6-.1-.71.3s.21.5.5.5.5-.1.5-.4-.1-.51-.29-.4"/><path class="cls-12" d="M262.77,84.58c-.2,0-.39,0-.39.19a.43.43,0,0,0,.29.41c.21,0,.3-.1.3-.31s-.09-.39-.2-.29"/><path class="cls-13" d="M249.07,89.48a5.84,5.84,0,0,1-1.1,2.7,12.13,12.13,0,0,1-1,1.4,3.86,3.86,0,0,1-.6.69,5.56,5.56,0,0,0-.8.7.78.78,0,0,1-.4.4c-.1.1-.3.2-.4.31s-.2.19-.3.19a.37.37,0,0,1-.3.1c-.2.2-.1.2,0,.4.2.4.4.31.8.31s1.1-.1,1.6-.1a5.12,5.12,0,0,0,.81-.31c.39-.09.8-.3,1.19-.4a6.6,6.6,0,0,1,1.4-.1h3.2c.4.1.8,0,1.1.1.61.2,1.11.5,1.61.6a5.65,5.65,0,0,0,1.79.3.65.65,0,0,0,.4-.09c.1-.1,0-.41-.1-.6a3.92,3.92,0,0,0-.8-1.4,10.25,10.25,0,0,0-1.3-.91c-.2-.19-.4-.3-.6-.5a1.9,1.9,0,0,0-.7-.5,2.9,2.9,0,0,1-.8-.8c-.2-.3-.5-.4-.7-.6a2,2,0,0,1-.4-.6C252,89.87,250.27,90.18,249.07,89.48Z"/><g class="cls-14"><path class="cls-15" d="M260.27,75c.11.4.21.9.3,1.3a1.9,1.9,0,0,0,.7,1.1c.21.1.4.3.61.3s.39,0,.6-.1c0-.1.1-.2.1-.3a.37.37,0,0,1,.1-.3c0-.2.1-.4.1-.7a6.26,6.26,0,0,0-.3-2.7,8,8,0,0,0-1.1-2.5,7.45,7.45,0,0,1,1.1,2.4,12.41,12.41,0,0,1,.3,2.7,2,2,0,0,1-.1.7,2018371951810.18,2018371951810.18,0,0,0-.2.6.61.61,0,0,1-.71.1,2.24,2.24,0,0,1-.6-.4,1.9,1.9,0,0,1-.7-1.1,1.85,1.85,0,0,1-.2-1.1Z"/></g><g class="cls-14"><path class="cls-15" d="M239.18,70.58a2.69,2.69,0,0,1,1.2.3,2.41,2.41,0,0,1,1,.7h0a7.4,7.4,0,0,1,2,2.3h0a6.25,6.25,0,0,1,1,2.2,2.4,2.4,0,0,1,0,1.19,1.52,1.52,0,0,1-.2.6,1.45,1.45,0,0,0-.2.5v.1h0c-1-.6-2-1.1-3-1.6a9.11,9.11,0,0,0-1.5-.69,8.94,8.94,0,0,0-1.6-.5c-1.11-.31-2.2-.6-3.31-1a14.14,14.14,0,0,1-3.19-1.31,17.73,17.73,0,0,0,3.19,1.2c1.11.3,2.2.6,3.31,1,.5.2,1.1.3,1.6.5s1,.4,1.6.7c1,.5,2,1,3,1.6h0a1.42,1.42,0,0,1,.2-.6,1.42,1.42,0,0,0,.2-.6,2.44,2.44,0,0,0,0-1.2,8.75,8.75,0,0,0-1-2.2h0a5.82,5.82,0,0,0-1.9-2.19h0a5,5,0,0,0-.9-.7,5.16,5.16,0,0,0-1.1-.2Z"/></g><g class="cls-14"><path class="cls-15" d="M262.67,97.37a1.67,1.67,0,0,1,.21-.69c.1-.2.29-.41.39-.6a5,5,0,0,1,1-1,18.93,18.93,0,0,1,2.3-1.5l4.9-2.31h0a72,72,0,0,1,10.4-3.09,23.26,23.26,0,0,1,2.7-.5c.9-.2,1.8-.31,2.7-.5a31.91,31.91,0,0,1,5.4-.5,31.91,31.91,0,0,0-5.4.5c-.89.19-1.79.3-2.7.5s-1.8.3-2.7.5a66.58,66.58,0,0,0-10.4,3.19h0l-4.9,2.4a12.27,12.27,0,0,0-2.3,1.5,10.06,10.06,0,0,0-1,.91,2.32,2.32,0,0,0-.6,1.19Z"/></g><g class="cls-14"><path class="cls-15" d="M265.27,96.37a36.63,36.63,0,0,1,5.71.4c1.9.31,3.79.7,5.6,1.1.9.2,1.8.5,2.8.7.5.1.89.3,1.39.4a7.37,7.37,0,0,0,1.4.4,16.18,16.18,0,0,1,5,2.7h0a15.45,15.45,0,0,1,4.71,4.1,16.31,16.31,0,0,0-4.71-4h0a21.86,21.86,0,0,0-5-2.7,5.73,5.73,0,0,0-1.4-.4,7.27,7.27,0,0,0-1.39-.4,22.91,22.91,0,0,0-2.8-.7c-1.9-.4-3.7-.8-5.6-1.1s-3.81-.39-5.71-.5Z"/></g><g class="cls-14"><path class="cls-15" d="M239.07,93.27a9.11,9.11,0,0,0-.69-1.5c-.31-.5-.61-.9-.9-1.4h0a8.07,8.07,0,0,0-3.3-2.5h0a25.69,25.69,0,0,0-5.3-2.5h0a43.7,43.7,0,0,0-9.5-3.19h0l-3-.2-1.5-.1c-.5,0-1-.1-1.5-.1a19.74,19.74,0,0,0-5.9,1,17,17,0,0,1,5.9-1,7.57,7.57,0,0,1,1.5.1l1.5.1,3,.2h0a38.93,38.93,0,0,1,9.5,3.19h0a21.56,21.56,0,0,1,5.3,2.5h0a6.72,6.72,0,0,1,1.89,1,5.11,5.11,0,0,1,1.5,1.5h0c.31.5.61.9.9,1.4a4.49,4.49,0,0,1,.6,1.5Z"/></g><g class="cls-14"><path class="cls-15" d="M236.27,98.08c-1.1.19-2.1.4-3.2.5s-2.19.1-3.19.19a8.38,8.38,0,0,0-3.11.81,15.92,15.92,0,0,0-2.8,1.6h0a7.46,7.46,0,0,0-1.7,1.4h0a5.71,5.71,0,0,0-1.6,1.9,10,10,0,0,1,1.6-2h0a12.05,12.05,0,0,1,1.7-1.4h0a16.09,16.09,0,0,1,2.8-1.7,11.88,11.88,0,0,1,3.11-.8c1.1-.1,2.19-.1,3.19-.2s2.11-.3,3.2-.5Z"/></g><path class="cls-13" d="M247.57,94.48a11.81,11.81,0,0,0-1.1.9,13.79,13.79,0,0,0-1.7,2.5,2.18,2.18,0,0,0,.4,2.2c.6.8,1.4,1.19,1.9,2.1a11.32,11.32,0,0,0,1.3,1.69c.5.5.4.9.4,1.6a5.43,5.43,0,0,0,0,1.8c.2.31.4.31.7.41h2.2a9.58,9.58,0,0,0,2.4-.41,9.62,9.62,0,0,0,0-2.4c0-.9.2-1.69.2-2.69,0-.81.5-1.1,1.1-1.5a7.53,7.53,0,0,0,1.4-1,3,3,0,0,0,.4-.81,2.18,2.18,0,0,0,.2-1.9,5,5,0,0,0-2.6-1.3,6.64,6.64,0,0,0-2-.6c-.7-.1-1.3,0-2-.1S247.07,94.58,247.57,94.48Z"/><path class="cls-1" d="M264.88,86.48a.53.53,0,0,1-.21.4.78.78,0,0,1-.4.4,3.49,3.49,0,0,1-.89.4c-.4.1-2.5.3-2.11-.4.21-.3.5-.1.71-.1a3.22,3.22,0,0,0,2-.4c.1-.1.29-.4.5-.4"/><path class="cls-1" d="M241.68,84.77a1.57,1.57,0,0,0,.5,1.1c.2.2.8.81,1,.31.1-.31-.7-.6-.9-.81a.6.6,0,0,1-.1-.4c0-.2-.11-.29-.5-.2"/><path class="cls-1" d="M252.38,86.48h0a.39.39,0,0,0-.31-.1,1,1,0,0,1-.3-.1.35.35,0,0,1-.2.1h-.3c-.6.2-.2.6.2.7a3.92,3.92,0,0,1,1,.19,6.63,6.63,0,0,1,1.1.6c.4-.1.4-.9.11-1.1a2.15,2.15,0,0,0-.8-.4,6.57,6.57,0,0,0-.81-.19"/><path class="cls-13" d="M264,164.48a5.74,5.74,0,0,0,.2,1.39A6.28,6.28,0,0,0,264,164.48Z"/><path class="cls-13" d="M265,121.58v-2c-.1-.9.2-2.2-.6-2.9-.4.09-.8.8-1.21,1A10.19,10.19,0,0,1,261,119a2.15,2.15,0,0,1,0-.8c-.5-.1-1.3.5-1.8.59a8.33,8.33,0,0,1-3.1.6c-.3-1-1.7-1.1-2.4-1.6-.1-.09-.3-.19-.4-.3a8.79,8.79,0,0,0,1-.6c1-.69,2-1.19,3-1.9a18.57,18.57,0,0,0,2.21-1.6c.6-.5,1.2-1.1,1.79-1.69.4-.6.8-1.31,1.21-1.91a4.38,4.38,0,0,0,.7-1.8c.1-.6-.2-.5-.7-.6a44.5,44.5,0,0,0-5-.4h-5.7c-1.2,0-2.4-.1-3.6-.1h-1.8a18.27,18.27,0,0,1-3.2-.8l-1.4-1.4a1.14,1.14,0,0,0,.3.6c.2.4.3.7.5,1.1v1.5a6.47,6.47,0,0,0,.4,2c.3.6.4,1.2.7,1.7s.5.9.8,1.4c.4.9.7,1.8,1.1,2.6.2.4.5.8.7,1.2a13.36,13.36,0,0,1,.7,1.8c.3.7.5,1.5.8,2.2a3.7,3.7,0,0,0,.5,1.1c.3-.1.5-.5.6-.6a15.38,15.38,0,0,1,1.3-1.2l.5-.5a5.85,5.85,0,0,1,.4,1.9,1.79,1.79,0,0,1-.6,1.8c-2.2,1.7-5.1,2.4-7.5,3.9a30,30,0,0,0,4.5,2.1c1.4.6,3.1.9,4.3,1.8.6.4.7.8,1,1.5a10.09,10.09,0,0,1,.7,1.5c.6,1.8,2,3.3,2.7,5.11-.8-.31-1.5-.9-2.4-.81a4.29,4.29,0,0,0,1.2,1.11,11.25,11.25,0,0,0,2.1,1.2c.9,1.6,2.6,2.69,3.3,4.5a10.9,10.9,0,0,1,.2,1.8,9.83,9.83,0,0,0,.5,1.6,6.89,6.89,0,0,0,.3.8c.1-1.4.2-2.8.2-4.2,0-1.7.3-3.4.3-5.2v-3.1a19.48,19.48,0,0,1,0-3.5,18.35,18.35,0,0,1,1.5-3.6,14.46,14.46,0,0,1,.79-2.3,1.61,1.61,0,0,1-.7.4c.3-.6.6-1.2.9-1.9s.4-1.5.7-2.3C265.38,122.68,265,122.37,265,121.58Z"/><path class="cls-13" d="M263,160.37c.4,1.4.7,2.7,1,4.11h0a19.22,19.22,0,0,1,0-2.4v-4.7c0-1.4-.21-2.7-.3-4a3.45,3.45,0,0,0-1-2.3,8.17,8.17,0,0,1-1.2-2c0,.7-.1,1.5-.1,2.2C261.27,154.37,262.17,157.37,263,160.37Z"/><path class="cls-8" d="M275.27,169.68s4.11,13.19,4.5,14.19c.61,1.9.9,4.11,1.3,6,.2,1,.2,2,.4,2.9a7.07,7.07,0,0,0,1.1,2.5,4.1,4.1,0,0,0,1.7-2,8.71,8.71,0,0,1,.5-1.4c.3-.6.11-1,.3-1.6a4,4,0,0,0-.1-3.2c-.4-.89-.8-1.7-1.2-2.7a17.14,17.14,0,0,0-2.7-5.19c-.6-.9-.9-1.9-1.5-2.81S275.27,169.68,275.27,169.68Z"/><path class="cls-8" d="M258.88,182.68a14.68,14.68,0,0,1,2.7,5.1,51.61,51.61,0,0,0,2.5,8.5,28.47,28.47,0,0,1,1.1,3.9c.2,1-.1,2.1.2,3.19.1.5.7,1.9.4,2.4-.5.7-2-.7-2.4-1.1-.5-.6-.5-1.5-.9-2.3-.7-1.7-.9-3.4-1.5-5.1q-1.35-4.05-3-8.1a18.17,18.17,0,0,0-2.7-4.1c-.8-.9-1.2-2-2-3l-2-2.6c.6-.9-.4-2.9.6-3.1.6-.1-3.2-14-3.2-14s6.1,13.4,6.9,15.2A31,31,0,0,0,258.88,182.68Z"/></g><path class="cls-16" d="M424.67,255.58a10,10,0,0,0,10-10V10.38a10,10,0,0,0-10-10H48.58a9.94,9.94,0,0,0-10,9.89V245.58a10,10,0,0,0,10,10H.38v3.9s43,6.9,114.4,6.9h243.6c71.39,0,114.39-6.9,114.39-6.9h.11v-3.9Z"/></g></g></svg>