<svg xmlns="http://www.w3.org/2000/svg" xmlns:xlink="http://www.w3.org/1999/xlink" viewBox="0 0 472.55 266.25"><defs><style>.cls-1,.cls-2,.cls-3{fill:none;}.cls-2,.cls-3{stroke:#000;stroke-miterlimit:10;}.cls-2{stroke-width:0.3px;}.cls-3{stroke-width:0.2px;}.cls-4{clip-path:url(#clip-path);}.cls-5{fill:#ff2e39;fill-opacity:0.8;}.cls-6{fill:#cb80ba;fill-opacity:0.7;}.cls-11,.cls-7{fill:#fff;}.cls-8{clip-path:url(#clip-path-2);}.cls-10,.cls-13,.cls-9{opacity:0.8;}.cls-10,.cls-14,.cls-15{fill:#000089;}.cls-10,.cls-11,.cls-13,.cls-15{isolation:isolate;}.cls-11,.cls-15{opacity:0.2;}.cls-12{fill:#212121;}.cls-13{fill:#9797e8;}</style><clipPath id="clip-path"><rect class="cls-1" x="174.53" y="25.19" width="66.39" height="78.04"/></clipPath><clipPath id="clip-path-2"><rect class="cls-1" x="160.61" y="91.33" width="58.79" height="141.96"/></clipPath></defs><title>colablaptop_1</title><g id="Layer_2" data-name="Layer 2"><g id="Layer_1-2" data-name="Layer 1"><g id="Layer_1-2-2" data-name="Layer 1-2"><g id="Layer_2-2" data-name="Layer 2-2"><path class="cls-1" d="M424.31,255.39a10,10,0,0,0,10-10V10.15a10,10,0,0,0-10-10H48.24a10,10,0,0,0-10,10V245.39a10,10,0,0,0,10,10H.1v3.91s43,6.85,114.42,6.85H358c71.39,0,114.42-6.85,114.42-6.85v-3.91Z"/><rect class="cls-2" x="38.24" y="0.15" width="396.07" height="255.24" rx="10"/><rect class="cls-3" x="56.82" y="16.77" width="358.9" height="224.93"/><rect class="cls-3" x="0.1" y="255.39" width="472.35" height="3.91"/><path class="cls-3" d="M.1,259.3s43,6.85,114.42,6.85H358c71.39,0,114.42-6.85,114.42-6.85Z"/><rect class="cls-3" x="194.22" y="255.39" width="84.1" height="3.91" rx="1.23"/></g></g><g class="cls-4"><path class="cls-5" d="M232.41,49.69c6,9,9.81,20,8.13,30.71s-9.83,20.73-20.5,22.53c-8.13,1.37-16.37-2-23.19-6.61C187.1,89.7,179.13,80.05,176,68.69s-1.05-24.37,6.71-33.26c6-6.88,18.71-13,27.8-8.91C218.83,30.31,227.49,42.35,232.41,49.69Z"/></g><path class="cls-6" d="M240.11,40.56c-14.2,6.72-27.05,17.6-32.81,32.17s-2.92,33.1,9.16,43.27c9.19,7.74,22,9.7,34,9,17.12-1,34.24-7.09,46.58-18.86s19.26-29.54,16.07-46.38c-2.47-13-13.91-30.13-28.36-31.75C271.44,26.53,251.7,35.08,240.11,40.56Z"/><path class="cls-7" d="M223.17,74V70.6h-.85l0,4.13h2.22V74Zm2.64-2.72h1.45v-.69H225l0,4.13h2.29v-.7h-1.45V73h1.45v-.69h-1.45Zm3.65,0h1v-.69h-2.81v.69h1v3.43h.85Zm4.14.88L235,74.9l1.34-2.69v2.57h.85l0-4.13h-.95L235,73.16l-1.24-2.52h-1v4.13h.85Zm5.1-.84h1.45v-.69h-2.3l0,4.13h2.29v-.69h-1.45v-1h1.45v-.69h-1.44Zm3.78,2.24a1.42,1.42,0,0,0,2.82,0,1.08,1.08,0,0,0-.33-.8,2.43,2.43,0,0,0-.86-.46,2.93,2.93,0,0,1-.49-.2.46.46,0,0,1-.25-.4.44.44,0,0,1,.5-.43.49.49,0,0,1,.54.52h.86a1.32,1.32,0,0,0-1.4-1.27,1.24,1.24,0,0,0-1.36,1.25c0,.63.33,1,1.23,1.3a1.78,1.78,0,0,1,.51.23.42.42,0,0,1,.16.33c0,.25-.23.44-.54.43a.51.51,0,0,1-.56-.48V73.6Zm4.32-.46h1.56v1.69h.85l0-4.12h-.85v1.75H246.8V70.7h-.85l0,4.13h.84Zm5.23-2.5a2.11,2.11,0,0,0-2.16,2.16A2.15,2.15,0,0,0,252,74.93a2.15,2.15,0,0,0,0-4.29Zm0,.78a1.31,1.31,0,0,1,1.27,1.39A1.29,1.29,0,0,1,252,74.15a1.31,1.31,0,0,1-1.27-1.36A1.28,1.28,0,0,1,252,71.42Zm6,2-.65-2.65h-.84l-.66,2.6-.67-2.61h-.9l1.14,4.13h.86l.64-2.7.66,2.71h.85l1.13-4.12h-.88Zm5.6-.32,1.34-2.3h-1l-.78,1.42-.8-1.43h-1l1.39,2.31v1.82h.85Zm3.46-2.37a2.1,2.1,0,0,0-2.16,2.16A2.14,2.14,0,0,0,267.1,75a2.15,2.15,0,0,0,0-4.29Zm0,.78a1.3,1.3,0,0,1,1.26,1.4,1.28,1.28,0,0,1-1.26,1.33,1.31,1.31,0,0,1-1.27-1.36A1.27,1.27,0,0,1,267.08,71.48Zm3.56-.69h-.85v2.39a1.83,1.83,0,0,0,.38,1.31,1.69,1.69,0,0,0,1.25.51,1.52,1.52,0,0,0,1.19-.47,1.89,1.89,0,0,0,.41-1.34V70.8h-.86v2.41a1.06,1.06,0,0,1-.15.73.71.71,0,0,1-.6.28.77.77,0,0,1-.58-.25,1.07,1.07,0,0,1-.19-.76Zm5.89,2.47h1.56V75H279l0-4.12h-.85v1.75h-1.57V70.82h-.85l0,4.13h.84Zm5.23-2.5a2.11,2.11,0,0,0-2.16,2.16,2.15,2.15,0,0,0,2.16,2.13,2.15,2.15,0,0,0,0-4.29Zm0,.78A1.31,1.31,0,0,1,283,72.93a1.27,1.27,0,1,1-2.54,0A1.28,1.28,0,0,1,281.74,71.54Zm6,2-.65-2.65h-.84l-.66,2.6L285,70.85h-.9L285.19,75h.86l.63-2.7.66,2.71h.86l1.13-4.12h-.88Zm-55.21,9.13,1.35,2.7,1.34-2.69v2.57h.85l0-4.13h-1l-1.22,2.5-1.25-2.51h-1l0,4.13h.85Zm5.1-.84h1.45v-.69h-2.29v4.13h2.3v-.7h-1.45v-1h1.44v-.69h-1.45Zm2.86,0H242v-.69h-2.3l0,4.13H242v-.69h-1.45v-1H242v-.69h-1.45Zm3,1.81,1.14,1.64h1l-1.14-1.58a1.19,1.19,0,0,0,1-1.25c0-.84-.55-1.3-1.58-1.3h-1.27l0,4.13h.84Zm0-.5V81.83H244a.62.62,0,0,1,.68.64c0,.42-.27.65-.75.65Zm3.61.31,1.17,1.84h1L248,83.13l1.33-2h-1l-1.16,1.79v-1.8h-.85l0,4.13h.85Zm5.14,1.15.24.71h.93L252,81.16H251l-1.41,4.12h.9l.25-.71Zm-.23-.7h-1.14l.57-1.71Zm3-2h1v-.69H253.2v.69h1l0,3.44h.85Zm1.26,2.23a1.42,1.42,0,0,0,2.82,0,1.12,1.12,0,0,0-.33-.8,2.5,2.5,0,0,0-.87-.46,2.15,2.15,0,0,1-.48-.21.43.43,0,0,1-.26-.39.45.45,0,0,1,.51-.43.49.49,0,0,1,.54.52h.85a1.31,1.31,0,0,0-1.39-1.27,1.24,1.24,0,0,0-1.36,1.25c0,.63.33,1,1.23,1.3a1.67,1.67,0,0,1,.5.23.4.4,0,0,1,.17.33.48.48,0,0,1-.54.43.52.52,0,0,1-.57-.48V84.1Zm8.62-.24-.66-2.65h-.84l-.66,2.6-.67-2.61h-.9l1.14,4.13h.86l.64-2.7.66,2.71h.85l1.14-4.12h-.89Zm3.91-2.71a2.11,2.11,0,0,0-2.16,2.16,2.15,2.15,0,0,0,2.17,2.13,2.1,2.1,0,0,0,2.1-2.12,2.09,2.09,0,0,0-2.11-2.17Zm0,.78a1.31,1.31,0,0,1,1.27,1.4,1.28,1.28,0,0,1-1.26,1.33,1.31,1.31,0,0,1-1.28-1.36A1.28,1.28,0,0,1,268.8,81.93Zm3.64,1.8,1.14,1.65h1l-1.14-1.59a1.18,1.18,0,0,0,1-1.24c0-.85-.56-1.3-1.58-1.3h-1.27v4.13h.85Zm0-.49v-1.3h.46a.63.63,0,0,1,.68.65c0,.42-.27.65-.75.65Zm3.62.31,1.16,1.84h1l-1.35-2.14,1.33-2h-1l-1.16,1.79V81.26h-.85l0,4.13h.85Zm3.47-2.28h-.77v2.84h.77Zm-.36,3.3a.44.44,0,0,0-.47.45.46.46,0,0,0,.92,0A.44.44,0,0,0,279.17,84.57Z"/><g class="cls-8"><g class="cls-9"><path class="cls-10" d="M179.33,103.9Z"/><path class="cls-10" d="M198.78,209.66l.06-.22a9,9,0,0,0,.28-.88c.71.2,1.08,1.36,1.17,2,.13.94.2,1.94.35,2.89a33.3,33.3,0,0,1,.16,5v1.36c0,.2,0,.41,0,.61,0,.4.18.36.55.54a1.35,1.35,0,0,0,1.17.18,1.64,1.64,0,0,1,.85,0c.64.16,1.22.16,1.36-.6a4.45,4.45,0,0,0,0-1.41,8.25,8.25,0,0,1-.13-1.49c0-.61.18-1.15.17-1.76v-1.57a11.17,11.17,0,0,0,0-1.83c-.14-.74-.54-1.45-.66-2.18a3.89,3.89,0,0,0-.08-.51.75.75,0,0,1,0-.26.74.74,0,0,1,0-.25,14.44,14.44,0,0,0,.12-1.76,15.4,15.4,0,0,1,1.16-4.49c.1-.21.21-.41.33-.61C202.63,204.05,199.49,206.34,198.78,209.66Z"/><path class="cls-10" d="M183.16,210.2c-2.39.52-3.25,3.6-3.93,5.82-.75,2.72-2.43,5-3.52,7.66h0a4.1,4.1,0,0,0,1,.18h1.13a18.27,18.27,0,0,1,3.46.33c.06-.2,0-.39,0-.58a5.52,5.52,0,0,1,.29-.61,13,13,0,0,1,.55-1.28c.42-.84.6-1.77,1-2.64.13-.29.26-.56.38-.85a6.18,6.18,0,0,0,.21-.65,2.57,2.57,0,0,0,.12-.55c.08-.5.36-1,.48-1.53a7.06,7.06,0,0,0,.22-1.13,3.53,3.53,0,0,1,0-.65c0-.16.13-.24.16-.44a2.52,2.52,0,0,0-.38-1.67,6.68,6.68,0,0,1-.61-.89,1.69,1.69,0,0,1-.17-.58,3.62,3.62,0,0,0-.46.06Z"/><path class="cls-10" d="M213.27,160.14c-.09-1,0-2.09-.07-3.14a27.56,27.56,0,0,1-.13-2.87,36.37,36.37,0,0,0-.34-4.55,39.22,39.22,0,0,0-2.47-9.44c-.52-1.33-.8-2.74-1.37-4-.4-.93-.63-1.94-1.06-2.84-.22-.45-.3-.94-.49-1.41a4,4,0,0,0-.75-1.07c-.31-.36-.48-.81-.77-1.18a10.29,10.29,0,0,1-.88-1.46,16,16,0,0,0-3.14-3.87,11.36,11.36,0,0,1-1.52-2.07,10.14,10.14,0,0,1-.8-1.74,6.44,6.44,0,0,1,0-2.73,8.3,8.3,0,0,1,.25-1.72c.06-.25.14-.54.21-.82a2.85,2.85,0,0,0,.24-.65,2.52,2.52,0,0,0,.51-.47c.12-.23.26-.62.52-.76s.62,0,.91-.45a7.85,7.85,0,0,0,.76-1.28,5,5,0,0,0,.36-.69,4.32,4.32,0,0,0,0-.5,10.94,10.94,0,0,0,.18-1.4,8.47,8.47,0,0,0,0-1.33,6.09,6.09,0,0,0-.65-1.2c-.31-.55-.58-1.4-1.14-1.78s-1.15.16-1.51-.25a4.5,4.5,0,0,1-.62-1.46,5.39,5.39,0,0,0-1.2-2.66,6.2,6.2,0,0,0-.77-.58,5.26,5.26,0,0,0-1.25-.47,1.51,1.51,0,0,0-.46-.13c-.23,0-.46,0-.69,0-.67,0-1.31-.18-2-.18a2.69,2.69,0,0,1-1.63-.39l-.38-.2c-.16-.06-.45,0-.56-.22a2.48,2.48,0,0,1-.72.13,5.66,5.66,0,0,1-.93.18,3.46,3.46,0,0,0-.86.18,7.37,7.37,0,0,1-.94,0,4.15,4.15,0,0,1-1.41,0c-.27-.12-.35-.3-.71-.32a4.22,4.22,0,0,0-.94,0,2,2,0,0,0-.38.2c-.15.07-.24.06-.39.12a8.52,8.52,0,0,0-3,2.23,2,2,0,0,0-.55,1.35c0,.53-.36,1.13-.14,1.65l-.2.06a.7.7,0,0,1,0,.14,3,3,0,0,0-1.62.92c-.62.6-1.26,1.07-1.25,2,0,1.11-.26,2.71.68,3.45a4.56,4.56,0,0,1,.65.51c.16.22.24.55.42.79.35.46.8.75.81,1.4,0,.91.74,1.22,1.21,1.92a3,3,0,0,1,.36,1.18c.11.63.31,1.24.44,1.86a9.94,9.94,0,0,1,.38,1.91c0,.91,0,1.82,0,2.73a6.14,6.14,0,0,0,.17,1c.09.54.11,1,.16,1.57l-.06.2c-.07.29-.17.57-.22.86a5.24,5.24,0,0,0,0,1c0,.74,0,1.48,0,2.21a3.08,3.08,0,0,0,.44,1.35c0,.12,0,.23,0,.32a5.34,5.34,0,0,0,.18,1.06c0,.1,0,.24,0,.35s.16.26.18.5c.08.64.31,1.27.35,2a15,15,0,0,0,0,1.9,8.39,8.39,0,0,1,.13,1.66v4.21c0,.57,0,1.13,0,1.7-.2.18-.41.36-.6.55a5.23,5.23,0,0,1-.64.69,8,8,0,0,0-1.18,1.22c-.6.7-1.25,1.36-1.86,2.07a21.77,21.77,0,0,0-1.36,1.94c-.22.33-.4.68-.62,1a4.11,4.11,0,0,0-.89,1.62,3.11,3.11,0,0,0,.15.71,2.83,2.83,0,0,0,.23.75,4.87,4.87,0,0,1,.42,1.29,4.12,4.12,0,0,0,.3,1c.2.61.36,1.21.54,1.81a10.4,10.4,0,0,0,.4,1.48c.2.44.28.9.46,1.36a9.08,9.08,0,0,0,.46,1.12,4,4,0,0,1,.3.7,6.7,6.7,0,0,1,.23.88c.06.34,0,.69.05,1,.11.56.07,1.14.2,1.69.08.32.16.68.26,1s.23.45.29.69.07.68.17,1a3.68,3.68,0,0,0,.34.85c.25.39.76.54,1,.92,0-.17.09-.31.11-.47a3,3,0,0,1,0-.52,2.79,2.79,0,0,0,.23-.87c0,.26.26.63.43.8.29-.23.27-.74.36-1.07,0-.15.08-.3.13-.46a13.06,13.06,0,0,1-.3,1.75,4.15,4.15,0,0,0-.17,1.11,7.17,7.17,0,0,1-.12,1.31c-.13.72,0,1.45-.17,2.18a24.84,24.84,0,0,1-.55,2.7c-.81,2.58-1.34,5.36-2.89,7.61-.27.41-.57.78-.82,1.19a7.35,7.35,0,0,1-.51,1,5.84,5.84,0,0,0-.47.64c-.63,1.1-1.23,2.22-1.84,3.33a7.16,7.16,0,0,0-.34,5.06c.24,1.13.8,2.18,1.07,3.29a15.73,15.73,0,0,0,.71,2.43c.32.79.64,1.61,1,2.36a6.94,6.94,0,0,1,.51,1.23,7.78,7.78,0,0,1,.3,1.15,20.66,20.66,0,0,1,0,2.61c0,.3,0,.6,0,.91s-.15.56-.18.88,0,.38,0,.56a4.88,4.88,0,0,1-.18.54,11.16,11.16,0,0,0-.34,2.7,3.18,3.18,0,0,1-.13,1c0,.19,0,.35-.07.54-.08.34-.32.59-.32,1a.79.79,0,0,1,.18-.29,5.19,5.19,0,0,1-.34,1.27,6.56,6.56,0,0,1-.38,1.16c-.17.36-.43.64-.61,1s0,.4-.46.32-.88-.71-1.38-.34c-.17.13-.76.91-.72,1.14.05.39.88.62,1.17.75a5.34,5.34,0,0,0,1.31.32c1.09-2.62,2.77-4.94,3.53-7.65.68-2.23,1.53-5.31,3.92-5.82a2,2,0,0,1,.48-.06c0-.21,0-.43-.06-.7a15.8,15.8,0,0,1,.22-4.45c.17-1.14.42-2.28.49-3.42a4.73,4.73,0,0,1,.15-1.43c.2-.55.45-1.16.69-1.72.17-.41.14-.42.5-.5a6.17,6.17,0,0,1,.86,0c1.34-.07,2.63-.72,4-.69.45,0,1.64.46,1.62,1-.32.13-.14,1.18-.19,1.49a10.6,10.6,0,0,0-.13,2,23,23,0,0,1-.22,2.87,19.66,19.66,0,0,1-.63,3.82c-.4,1.28-.83,2.54-1.16,3.84a17.43,17.43,0,0,0-.25,2.29,16.6,16.6,0,0,0-.13,2.11c0,.34,0,.69,0,1s-.17.77-.18,1.2c0,.65,0,1.31,0,2v.76a2.18,2.18,0,0,0,.13.72,5.17,5.17,0,0,0,.33,1.21,2.41,2.41,0,0,0,1.07.9,6,6,0,0,0,2.05.25h2.64a4.45,4.45,0,0,0,2.27-.24,4.66,4.66,0,0,1,2.54-.78,7.17,7.17,0,0,1,1.67.08c.48.12,1,.06,1.45.17a3.41,3.41,0,0,1,2.12,1.49,2.31,2.31,0,0,1,.47,1,2.08,2.08,0,0,1,0,1.16,2.83,2.83,0,0,1-1,1.66,13.63,13.63,0,0,1-1.17.82,4.53,4.53,0,0,1-1.69.46,11.8,11.8,0,0,1-1.88.13c-.57,0-1.13-.15-1.7-.17s-1.26-.16-1.92-.17a10.94,10.94,0,0,1-1.15-.14c-.47-.06-.22,0-.6.1-.62.11-1.09,0-1.58.5a1.41,1.41,0,0,0-.47,1.24c0,.55.06.82.58,1.1a3.86,3.86,0,0,0,1.6.1,6.42,6.42,0,0,0,1.45-.13c1.15-.28,2.37-.11,3.53-.38s2.13-.38,3.18-.68a10.89,10.89,0,0,0,2.36-.69,7.52,7.52,0,0,0,1-.52,5.85,5.85,0,0,0,.45-.54c.24-.25.56-.41.8-.65a6.44,6.44,0,0,0,1.23-2.12,4.94,4.94,0,0,0,0-2.75,1.84,1.84,0,0,0-.3-.74,1.75,1.75,0,0,0-.61-.54,12.1,12.1,0,0,0-2.26-.86,11.31,11.31,0,0,0-2.73-.82c-.44,0-.87-.17-1.3-.2-.73-.05-1.45.2-2.18.18a3.68,3.68,0,0,1-1.1,0,3,3,0,0,1-.52-.43,3.82,3.82,0,0,1-1.27-1.94,5,5,0,0,1,.26-2.57,3.75,3.75,0,0,0,.4-1.61,21.49,21.49,0,0,1,1-3.88c.13-.56.24-1.14.38-1.7.71-3.33,3.85-5.61,6.78-7.16l.33-.58c.14-.28.23-.56.38-.83.26-.45.67-.8,1-1.22a16.75,16.75,0,0,0,1.1-2.73,15,15,0,0,0,.8-2.34c.2-.69.45-1.36.69-2s.36-1.47.58-2.2a33.09,33.09,0,0,0,1.25-5.27c.26-1.81.18-3.64.47-5.44.23-1.49.47-3,.67-4.46a17,17,0,0,0,.26-2.56c0-.83.15-1.62.18-2.44A80.15,80.15,0,0,0,213.27,160.14Zm-13.16-45.57a3.39,3.39,0,0,1-.33.42C199.78,114.87,199.93,114.73,200.11,114.57Zm-15.5,47.17a4.14,4.14,0,0,1-.34,1.5c-.24.74-.34,1.52-.58,2.27s-.4,1.18-.58,1.78c0-.85,0-1.7,0-2.54,0-.31,0-.65,0-1s-.1-.34-.13-.52,0-.34,0-.51a11.22,11.22,0,0,0-1-2.95,13.11,13.11,0,0,0-.54-1.21,2.63,2.63,0,0,1-.2-.33c0-.16,0-.35-.05-.52s-.05-.49-.28-.71-.4-.42-.32-.71a3,3,0,0,1,1.31-1.48c.46-.32.95-.63,1.44-.91.18-.11.36-.19.54-.28.06.5.18,1,.28,1.51a20.17,20.17,0,0,1,.2,3.65c0,.5.18,1,.18,1.46s0,1,0,1.46Z"/></g><path class="cls-11" d="M189.41,108.19c-.13,0-.25.15-.35.23s-.31.21-.47.3a7.6,7.6,0,0,0-1.33.83,3.32,3.32,0,0,0-.72.68,2.88,2.88,0,0,0-.51.92,1.22,1.22,0,0,0,.09,1.13c.12.15.26.27.4.42a3.31,3.31,0,0,0,.5.41,3.12,3.12,0,0,0,.82.4,2.9,2.9,0,0,0,1,.06h3.42a2.37,2.37,0,0,0,.92-.15,3.86,3.86,0,0,1,.51-.2,1.26,1.26,0,0,0,.47-.25,3.31,3.31,0,0,0,.69-.6c.24-.27.16-.69.16-1a6.83,6.83,0,0,0-.07-1.11c-.15-.89-1.26-1.1-2-1.36-.38-.14-.76-.23-1.13-.37l-.59-.2A7,7,0,0,0,189.41,108.19Z"/><path class="cls-11" d="M184.37,134.63c.09.24.36.65.48,1a4,4,0,0,0,.09,1,3.44,3.44,0,0,1,.15.55c0,.2,0,.4,0,.61a5.4,5.4,0,0,1,.13.7v1.11a4.57,4.57,0,0,0,0,.74c0,.14.13.3.13.43a2,2,0,0,1-.13.34,6.74,6.74,0,0,1-.67,1.56,7.22,7.22,0,0,1-.5.6,2.76,2.76,0,0,1-.37.46c-.18.17-.35.35-.54.52a11.69,11.69,0,0,0-.91.81,8.3,8.3,0,0,1-.64.69,8.51,8.51,0,0,0-1.19,1.21c-.6.71-1.25,1.37-1.85,2.08a21.87,21.87,0,0,0-1.37,1.94c-.22.33-.4.68-.62,1a4.16,4.16,0,0,0-.89,1.62,3.75,3.75,0,0,0,.15.71,3.36,3.36,0,0,0,.24.76,4.93,4.93,0,0,1,.42,1.28,5.3,5.3,0,0,0,.3,1c.2.61.36,1.21.54,1.81a10.4,10.4,0,0,0,.4,1.48c.2.44.28.9.46,1.36a9.08,9.08,0,0,0,.46,1.12,4,4,0,0,1,.31.7,8.75,8.75,0,0,1,.23.88c.05.34,0,.69.05,1,.1.56.06,1.14.2,1.69.07.32.15.68.25,1s.23.45.29.69.07.68.17,1a3.63,3.63,0,0,0,.32.85c.25.39.76.54,1,.92,0-.17.09-.31.11-.47a3,3,0,0,1,0-.52,2.79,2.79,0,0,0,.23-.87c0,.26.26.63.43.8.29-.23.27-.74.36-1.07a1.92,1.92,0,0,1,.38-.87c.11.11.07.27.2.38-.08-1.49,0-3,0-4.51,0-.32,0-.66,0-1s-.1-.34-.12-.52,0-.34,0-.5a11.54,11.54,0,0,0-1-3c-.18-.41-.33-.8-.54-1.21a1.38,1.38,0,0,1-.2-.33c0-.16,0-.35-.05-.52s-.05-.48-.29-.71a.78.78,0,0,1-.32-.71,2.94,2.94,0,0,1,1.31-1.47,16.51,16.51,0,0,1,1.44-.92c.43-.25.89-.4,1.3-.69,1.23-.81,2.2-2.21,3.67-2.61a9.72,9.72,0,0,0,2.63-1.33,12.32,12.32,0,0,0,1.33-.89,7.61,7.61,0,0,1,.85-.45c.33-.22.68-.44,1-.67s.66-.6,1-.89.55-.66.91-.94a9.15,9.15,0,0,0,1-.8,3.88,3.88,0,0,0,.71-.75,1.24,1.24,0,0,1,.16-.3l.45-.39a4.55,4.55,0,0,0,1-1.83c.21-.69-.16-1.26-.15-2a7,7,0,0,1,0-1.58c.16-.71.58-1.33.8-2,.45-1.4.11-2.84.38-4.26a10.1,10.1,0,0,0,.26-2.45c-.19-2.32-2.29-3.59-3.58-5.27a10.62,10.62,0,0,0-1.77-1.9,2.47,2.47,0,0,0-.86-.32,13.46,13.46,0,0,0-2-.39c-.17,0-.16-.26-.32-.3s-.54-.09-.8-.14c-.62-.14-1.28-.08-1.91-.17a2.74,2.74,0,0,0-.5,0,5.33,5.33,0,0,0-1,.09,6.77,6.77,0,0,1-.78,0,8.35,8.35,0,0,0-1.21.24c-.31.07-.63.05-.94.12a2.58,2.58,0,0,0-.44.22,2,2,0,0,1-.55.13,1.93,1.93,0,0,0-.8.45,4.47,4.47,0,0,0-.88,1.41,11.13,11.13,0,0,0-.8,2.15c-.07.29-.17.57-.23.86a7.85,7.85,0,0,0,0,1c0,.74,0,1.48,0,2.21.05,1,.85,1.91,1.32,2.79a9.7,9.7,0,0,0,.61,1A8.91,8.91,0,0,1,184.37,134.63Z"/><path class="cls-12" d="M178.78,104.75c-.14,0-.27.23-.34.32a5.85,5.85,0,0,0-.5.79,1.49,1.49,0,0,0-.23.43c0,.06,0,.11,0,.16s-.17.25-.21.4-.07.29-.1.44a4.52,4.52,0,0,0,0,.9,3.47,3.47,0,0,0,.06.45c0,.12,0,.23,0,.35a3,3,0,0,0,.11.4c0,.14,0,.28.09.42s.17.54.3.61a1.63,1.63,0,0,0,.58-.43,2.51,2.51,0,0,0,.4-1,9.42,9.42,0,0,0,.5-2.16c0-.4-.06-.8,0-1.2,0-.2-.05-.39-.06-.59s0-.26,0-.34-.4-.06-.55-.07C178.78,104.65,178.84,104.67,178.78,104.75Z"/><path class="cls-12" d="M201.21,105.83c-.07,0-.18.09-.24.13a.75.75,0,0,0-.3.31,2.11,2.11,0,0,0-.1,1.34,14.72,14.72,0,0,1,.3,1.74,3.52,3.52,0,0,0,.1.65,2.63,2.63,0,0,1,0,.56,5.66,5.66,0,0,1-.18,1.43,2.11,2.11,0,0,0-.1.5V113c0,.19-.12.8.22.58a5.16,5.16,0,0,0,.63-.4c.17-.17.15-.33.22-.53.14-.37.37-.69.52-1a8.62,8.62,0,0,1,.55-1.29,3.31,3.31,0,0,0,.3-.92,1.78,1.78,0,0,0,0-1.07,9.06,9.06,0,0,0-.28-1.17,3.11,3.11,0,0,0-.32-.53,3.14,3.14,0,0,0-.24-.39,1.75,1.75,0,0,0-.28-.33,1.61,1.61,0,0,0-.3-.21,1.22,1.22,0,0,0-.33,0C201.2,105.68,201,105.6,201.21,105.83Z"/><path class="cls-12" d="M191.21,108.85a3.38,3.38,0,0,1-.45,0,1.2,1.2,0,0,0-.5,0,2,2,0,0,1-.2.09,1.51,1.51,0,0,0-.45.2,2,2,0,0,0-.52.4c-.24.26-.13.51.12.72a1.64,1.64,0,0,0,.67.27.39.39,0,0,0,.26,0,.44.44,0,0,0,.19-.19.51.51,0,0,1,.19.22.48.48,0,0,1,0,.29.45.45,0,0,1-.15.21.37.37,0,0,1-.25.07.62.62,0,0,1-.27,0s-.06-.07-.08-.09-.21-.11-.29-.17-.2-.18-.33-.07a.72.72,0,0,0-.2.31,2.22,2.22,0,0,0-.08.68,2.34,2.34,0,0,0,.1.83.66.66,0,0,0,.62.44,1.94,1.94,0,0,0,.59,0c.13,0,.22-.13.35-.16a1.72,1.72,0,0,1,.9.06,1.75,1.75,0,0,0,.82.1.68.68,0,0,0,.31-.11l.18-.16a.65.65,0,0,0,.21-.16l.12-.24s.08-.08.1-.13a1.06,1.06,0,0,0,.13-.39.38.38,0,0,0,0-.15.31.31,0,0,0-.06-.13s-.1-.06-.14-.1l-.14-.13a.92.92,0,0,0-.27-.08l-.07,0a.61.61,0,0,0-.3,0c-.25,0-.38-.06-.39-.31s0-.21.09-.25.26,0,.38.06.16,0,.24,0h.14l.12,0a1,1,0,0,0,.28-.38,1.3,1.3,0,0,0,0-.52,1.38,1.38,0,0,0-.21-.48,1.87,1.87,0,0,0-.88-.58,1.26,1.26,0,0,0-.91.1Z"/><path class="cls-10" d="M186.33,100.15a4.21,4.21,0,0,1,1.15.24c.49.11,1,.11,1.51.27a3.82,3.82,0,0,0,.48.15c.27.06.54.13.82.18a2.83,2.83,0,0,0,.42.06c.14,0,.29-.12.44-.15s.47-.07.7-.13a8.37,8.37,0,0,1,1.22-.19,3.66,3.66,0,0,1,.81,0,1.07,1.07,0,0,0,.4,0l.26,0c.07,0,.14,0,.14-.11s-.42-.34-.55-.4a6.08,6.08,0,0,0-2.21-.17h-1.26a1.44,1.44,0,0,1-.58-.06,4.12,4.12,0,0,0-.84-.27,2.18,2.18,0,0,0-.51,0c-.2,0-.36,0-.55-.06a8.76,8.76,0,0,0-1.45.09,3.57,3.57,0,0,0-.56.07c-.15,0-.42,0-.53.12s.2.18.31.23a.87.87,0,0,0,.38.17Z"/><path class="cls-10" d="M196.27,104a1.82,1.82,0,0,1-.46-.06c-.3,0-.6,0-.91,0a1.29,1.29,0,0,0-.44,0,5.2,5.2,0,0,0-.55.21,1.56,1.56,0,0,0-.34.23c-.12.11-.31.2-.38.34a1.18,1.18,0,0,0-.07.2c0,.07-.06.15-.07.21a1.62,1.62,0,0,0-.06.62,2.41,2.41,0,0,0,.75,1.09c.25.25.52.48.77.72a3.65,3.65,0,0,1,.67.69c.13.2.22.44.33.65a2.22,2.22,0,0,0,.62.8,1.87,1.87,0,0,0,.57.35.7.7,0,0,0,.7-.26c.07-.16.06-.35.12-.52a3.39,3.39,0,0,1,.18-.39c.09-.17.23-.3.33-.47a1.11,1.11,0,0,0,.09-.19,2,2,0,0,1,.29-.43,2.46,2.46,0,0,0,.22-.39,3.83,3.83,0,0,0,.25-.44,1.35,1.35,0,0,0,.05-.77,1.78,1.78,0,0,0-.7-.9c-.24-.19-.46-.38-.71-.55s-.35-.3-.54-.46a1.81,1.81,0,0,0-.71-.31Z"/><path class="cls-10" d="M187,103.56a14.84,14.84,0,0,0-2.4-.29h-1.28a.89.89,0,0,0-.39.19,4,4,0,0,0-.45.26.45.45,0,0,0-.09.25,1.58,1.58,0,0,1-.2.36,1.2,1.2,0,0,1-.47.45c-.08,0-.14.11-.22.15l-.22.13a.62.62,0,0,0-.07.33.71.71,0,0,0,0,.25.65.65,0,0,0,.11.22,1.89,1.89,0,0,0,.73.34,2.16,2.16,0,0,1,.83.76,7.28,7.28,0,0,1,.53.83,3.87,3.87,0,0,1,.37.8,2,2,0,0,1,.09.68.89.89,0,0,0,0,.23c0,.07.06.1,0,.18a1.16,1.16,0,0,1,.45-.12,2.13,2.13,0,0,0,.55-.2,2.38,2.38,0,0,0,.43-.41c.1-.11.1-.25.18-.38a1,1,0,0,1,.27-.3c.11-.11.18-.24.36-.23s.29.12.46.12.29-.16.4-.32a13.66,13.66,0,0,0,.89-1.12,1.83,1.83,0,0,0,.32-.73,7.18,7.18,0,0,0-.06-.81,1.25,1.25,0,0,0-.32-.88,1.61,1.61,0,0,0-.47-.39C187.16,103.8,186.9,103.75,187,103.56Z"/><path class="cls-7" d="M190,108.79a.4.4,0,0,0-.15,0,.26.26,0,0,0-.13.08l-.32.26c-.13.08-.26.15-.25.31s0,.17.11.18.16-.09.22-.14a2,2,0,0,0,.25-.16c.11-.1.21-.2.33-.29a1.73,1.73,0,0,1,1.25-.21c.1,0,.29.06.23-.12s-.13-.11-.2-.14a1.58,1.58,0,0,0-.65-.14,2.81,2.81,0,0,0-.49,0c-.15,0-.25.14-.4.18h0"/><path class="cls-13" d="M200.3,106.06a1.21,1.21,0,0,1,.8-.23,4.35,4.35,0,0,1,1,.4c.22-.2.32-.4.16-.67a1,1,0,0,0-.51-.41c-.17-.08-.32-.2-.48-.29a1.56,1.56,0,0,0-.52-.15,1.06,1.06,0,0,0-.39.18c-.33.17-.34.52-.34.85"/><path class="cls-13" d="M179.91,104.13a1.31,1.31,0,0,0-.82-.4.56.56,0,0,0-.34,0c-.15,0-.14.12-.14.26,0,.35.24.34.53.34a.54.54,0,0,1,.35.06c.11.06.29.36.41.33a.77.77,0,0,0,.07-.45"/><path class="cls-10" d="M186.73,114.14c.08-.14.26-.13.4-.17a3.37,3.37,0,0,1,.48-.15l.45-.07a1.75,1.75,0,0,1,.56-.06c.26,0,.5.17.76.2a4.79,4.79,0,0,0,1,0c.19,0,.37,0,.56-.06a3,3,0,0,0,.52-.07,4.43,4.43,0,0,1,1-.27,4.31,4.31,0,0,1,1.05.24c.11,0,.55.14.55.31s-.57.06-.64.07l-.22.07c-.22.08-.46.11-.69.17s-.25.11-.38.15a2.9,2.9,0,0,1-.6.11c-.43.06-.86,0-1.3.06a2.7,2.7,0,0,1-1.06-.06,2,2,0,0,1-.6-.2,2,2,0,0,0-.63-.33,1.55,1.55,0,0,0-.43,0,1.19,1.19,0,0,1-.42,0C187.07,114,187.08,113.91,186.73,114.14Z"/><path class="cls-12" d="M195.19,104.47a1.38,1.38,0,0,0-.8.16,1.83,1.83,0,0,0-.53.61,1.67,1.67,0,0,0,.87,2.34,1.64,1.64,0,0,0,.67.27,1.79,1.79,0,0,0,.73,0,1.38,1.38,0,0,0,.48-.25q.31-.33.6-.69a1.06,1.06,0,0,0,.27-.35,1.19,1.19,0,0,0,.11-.42,1,1,0,0,0-.18-.52,1.87,1.87,0,0,0-.33-.45.82.82,0,0,0-.28-.14c-.12-.06-.21-.14-.33-.19-.27-.11-.55-.19-.82-.29s-.29-.07-.44-.11S194.89,104.27,195.19,104.47Z"/><path class="cls-12" d="M185.08,104.41a5.61,5.61,0,0,0-.58,0,1.78,1.78,0,0,0-.77.4,1.64,1.64,0,0,0-.64.92,2,2,0,0,0,.4,1.24,2.25,2.25,0,0,0,1.9.69c.49,0,.93,0,1.22-.47a2,2,0,0,0,.33-.66c0-.11,0-.22,0-.33a1,1,0,0,0,0-.38,2.32,2.32,0,0,0-.44-1,.88.88,0,0,0-.56-.31l-.46-.11a1.17,1.17,0,0,0-.46-.07Z"/><path class="cls-14" d="M198.78,209.66l.06-.22a9,9,0,0,0,.28-.88c.71.2,1.08,1.36,1.17,2,.13.94.2,1.94.35,2.89a33.3,33.3,0,0,1,.16,5v1.36c0,.2,0,.41,0,.61,0,.4.18.36.55.54a1.35,1.35,0,0,0,1.17.18,1.64,1.64,0,0,1,.85,0c.64.16,1.22.16,1.36-.6a4.45,4.45,0,0,0,0-1.41,8.25,8.25,0,0,1-.13-1.49c0-.61.18-1.15.17-1.76v-1.57a11.17,11.17,0,0,0,0-1.83c-.14-.74-.54-1.45-.66-2.18a3.89,3.89,0,0,0-.08-.51.75.75,0,0,1,0-.26.74.74,0,0,1,0-.25,14.44,14.44,0,0,0,.12-1.76,15.4,15.4,0,0,1,1.16-4.49c.1-.21.21-.41.33-.61C202.63,204.05,199.49,206.34,198.78,209.66Z"/><path class="cls-14" d="M183.16,210.2c-2.39.52-3.25,3.6-3.93,5.82-.75,2.72-2.43,5-3.52,7.66h0a4.1,4.1,0,0,0,1,.18h1.13a18.27,18.27,0,0,1,3.46.33c.06-.2,0-.39,0-.58a5.52,5.52,0,0,1,.29-.61,13,13,0,0,1,.55-1.28c.42-.84.6-1.77,1-2.64.13-.29.26-.56.38-.85a6.18,6.18,0,0,0,.21-.65,2.57,2.57,0,0,0,.12-.55c.08-.5.36-1,.48-1.53a7.06,7.06,0,0,0,.22-1.13,3.53,3.53,0,0,1,0-.65c0-.16.13-.24.16-.44a2.52,2.52,0,0,0-.38-1.67,6.68,6.68,0,0,1-.61-.89,1.69,1.69,0,0,1-.17-.58,3.62,3.62,0,0,0-.46.06Z"/><path class="cls-14" d="M180.82,156.35c-.13-.18-.71-.15-.91-.1s-.34.48-.4.73c-.2.77.28,1.31.29,2a6.15,6.15,0,0,0,.25,1.64,1.17,1.17,0,0,1,.09.24,2.67,2.67,0,0,1,0,.4v1.57c0,.7.1,1.36.11,2.07a1.77,1.77,0,0,1-.27.84,1.94,1.94,0,0,0-.18.92,1.11,1.11,0,0,0,.08.6c.06.11.27.29.27.43s-.11.13-.13.22a.71.71,0,0,0,0,.35,7.64,7.64,0,0,0,.17.77c.09.24.17.5.28.73a1.3,1.3,0,0,1,.2.49,2.17,2.17,0,0,0,0,.36,3.05,3.05,0,0,0,.6-.59c.14-.19.28-.32.43-.5.33.07.09.71.52.66,0-.29.37-.69.51-.93a2.42,2.42,0,0,0,.43-1c0-.28-.12-.51-.12-.81v-.9c0-.41-.11-.74-.12-1.12v-.93c0-.7-.21-1.36-.23-2V162a1.45,1.45,0,0,0-.08-.36,6.5,6.5,0,0,0-.12-.77c-.18-.57-.17-1.16-.36-1.72a2.54,2.54,0,0,0-.37-.64c-.1-.13-.24-.25-.32-.38s-.07-.2-.13-.31A5,5,0,0,1,181,157C180.92,156.77,180.69,156.62,180.82,156.35Z"/><path class="cls-7" d="M184.34,105.57c-.13,0-.16-.08-.25,0s-.18.15-.2.24.09.23.18.29a1,1,0,0,0,.48.2c.08,0,.11-.06.15-.14a.29.29,0,0,0,0-.18.41.41,0,0,0,0-.19c0-.07-.09-.25-.18-.26"/><path class="cls-7" d="M196.64,106a.27.27,0,0,0-.13,0,.23.23,0,0,0-.09.08.11.11,0,0,0,0,.08.11.11,0,0,0,0,.08.2.2,0,0,0,0,.08.17.17,0,0,0,.06.06.46.46,0,0,0,.23.06c.07,0,.07,0,.11-.06s.09-.33-.05-.39v0"/><path class="cls-11" d="M197.12,106.8c-.19.17-.47.2-.68.33a.28.28,0,0,0-.15.15.34.34,0,0,0,0,.2c0,.17.24.17.39.18a1,1,0,0,0,.4-.14.89.89,0,0,0,.31-.3c.06-.07.15-.26.08-.35a.53.53,0,0,0-.33-.13"/><path class="cls-11" d="M184.57,106.86c-.14,0-.2-.2-.3-.29a1,1,0,0,0-.36-.23c-.21-.07-.56-.09-.54.24s.2.35.4.42a1.93,1.93,0,0,0,.85.2c.12,0,.15,0,.13-.17a.48.48,0,0,0-.12-.22.35.35,0,0,0-.23-.12"/><path class="cls-13" d="M183,102.08c.51-.63,1.63-.68,2.35-.83a3.31,3.31,0,0,1,2.3.21,2.75,2.75,0,0,1,.83,1.05c0,.06.06.2.08.25s.13.14.13.22-.09.2-.11.29,0,.26,0,.39c-.25,0-.47-.32-.66-.44a4.73,4.73,0,0,0-1.2-.46,9.9,9.9,0,0,0-2-.33c-.31,0-.62,0-.92,0s-.57.11-.65,0S183.12,102.3,183,102.08Z"/><path class="cls-13" d="M197.63,103a1.2,1.2,0,0,0-.49-1.09c-.11-.09-.14-.2-.27-.26s-.2,0-.32,0a2.78,2.78,0,0,0-.76-.1,3.87,3.87,0,0,0-1.7.1,1.22,1.22,0,0,0-.65,1.25,2.38,2.38,0,0,0,1.12-.11,10.84,10.84,0,0,1,1.14,0,4,4,0,0,1,1.09.15,3.42,3.42,0,0,0,.84.08"/><path class="cls-13" d="M194.45,106.34c0,.35.37.61.67.69a5.35,5.35,0,0,0,.55.11c.26,0,.21.17,0,.17a1.17,1.17,0,0,1-.82-.26l-.2-.2a.61.61,0,0,1-.16-.12l-.06-.2a.58.58,0,0,1-.06-.26"/><path class="cls-13" d="M186.5,106.23h0c0,.13-.16.23-.23.33a1.27,1.27,0,0,1-.27.34.61.61,0,0,1-.31.18,1.34,1.34,0,0,0-.4,0c0,.16.35.1.45.1a.61.61,0,0,0,.45-.13,1,1,0,0,0,.24-.41c0-.08.08-.13.11-.2a.59.59,0,0,0,.05-.23"/><path class="cls-15" d="M196.72,114.31c-.2,0-.43.26-.61.34a4.15,4.15,0,0,1-.6.29,20.3,20.3,0,0,1-2.09.4,21.81,21.81,0,0,1-3.88.23c-.31,0-.62,0-.93,0s-.23-.07-.42-.12a2.48,2.48,0,0,0-.47,0,2.66,2.66,0,0,1-.49-.1c-.28,0-.57,0-.85,0a4.85,4.85,0,0,1-.91-.4c-.27-.12-.47-.26-.72-.4s-.6-.38-.89-.54-.36-.2-.55,0a.74.74,0,0,0-.12.87c.2.42.45.59.33,1.08s-.29.65-.12,1.11.54.53,1,.71a4.39,4.39,0,0,1,1.32.91,14,14,0,0,0,1.84,1.17,5.59,5.59,0,0,0,1.56.56,2.77,2.77,0,0,0,1.3.19,2.33,2.33,0,0,1,1.08-.08,4.62,4.62,0,0,0,1.17.09,1.76,1.76,0,0,1,1.11.18c.24-.2.27-.6.4-.87.2-.44.42-.84.63-1.28a3.26,3.26,0,0,1,1.7-1.44,10.67,10.67,0,0,0,1.07-.67c.26-.16.47-.4.72-.59a2.37,2.37,0,0,0,.6-.54c.3-.42,1.18-1.1,1-1.72a3.27,3.27,0,0,0-1.18.38c-.36.16-.7.37-1.07.51a10.86,10.86,0,0,1-2,.26S195.7,114.85,196.72,114.31Z"/><path class="cls-10" d="M194.79,103.86a1.28,1.28,0,0,0,.48-.09,8.1,8.1,0,0,1,.86-.13,1.69,1.69,0,0,0,.57-.2c.1,0,.07-.08.19,0a.35.35,0,0,1,.11.13c.05.09.06.17.11.25l.14.13c.15.17.37.77-.06.55a2.48,2.48,0,0,0-.6-.26,4.86,4.86,0,0,0-1.2-.14"/><path class="cls-10" d="M186.16,103.79a1.61,1.61,0,0,0-.45-.52c-.17-.14-.28-.36-.46-.52-.41-.38-1,.45-1.43.52,0,.3.6.2.77.23a2.12,2.12,0,0,0,.43.06,1.51,1.51,0,0,1,.52,0v.06"/><path class="cls-11" d="M188.77,106.52c0-.21.17-.19.29-.3a1.39,1.39,0,0,0,.28-.39,1.46,1.46,0,0,1,.34-.36c.12-.11.15-.24.28-.33.5-.34,1.27,0,1.71.28a6.22,6.22,0,0,1,1.28,1.13l1,1.16c.19.22.6,1.26.05,1.32-.32,0-.8-.38-1-.56a2.22,2.22,0,0,0-1.29-.36,4.16,4.16,0,0,0-1.54.08,4.92,4.92,0,0,1-.45.24,1.8,1.8,0,0,1-.4,0c-.16,0-.31.16-.46.13s-.1-.08-.19-.23-.2-.23-.2-.46v-.46a4.35,4.35,0,0,1,.13-.88.5.5,0,0,1,.21,0Z"/><path class="cls-10" d="M186.39,109.93c-.13,0-.45.08-.51.22s0,.22,0,.29-.31.1-.38.23a.77.77,0,0,0,0,.34.91.91,0,0,0,.12.31,1.37,1.37,0,0,1,.16.32c0,.1-.26.26-.33.35-.29.38.2.49.48.63a1.65,1.65,0,0,0,.25.15.81.81,0,0,0,.38,0c.26-.12-.12-.62-.14-.8a1,1,0,0,1,.1-.4c.06-.21.1-.43.15-.64a.76.76,0,0,0,0-.47.73.73,0,0,0-.14-.31c-.07-.08-.17-.13-.2-.24S186.32,109.88,186.39,109.93Z"/><path class="cls-10" d="M195,110.84c.1.15.2.3.29.46s.12.16.12.26-.2.21-.23.36.49.47.29.73a.48.48,0,0,1-.3.11,7,7,0,0,1-.8.07,2.07,2.07,0,0,0,.62-1c.06-.35,0-.75.07-1.14l0,0h0"/><g class="cls-9"><path class="cls-10" d="M193.19,110.18a4.49,4.49,0,0,1,.53-.29l.55-.23c1-.3,2-.57,3.09-.8s2.08-.46,3.12-.68,2.09-.42,3.14-.59l3.14-.58q3.13-.57,6.3-1l3.16-.42c.53-.07,1.06-.15,1.59-.2a10.55,10.55,0,0,1,1.59,0,1,1,0,0,1-.23.12,1,1,0,0,0,.23-.12h0a10.55,10.55,0,0,0-1.59,0l-1.59.2-3.16.42c-2.1.32-4.2.66-6.3,1l-3.13.59c-1,.18-2.1.38-3.14.6s-2.07.47-3.12.69-2.06.5-3.08.8l-.55.23a3.39,3.39,0,0,0-.53.29Z"/></g><g class="cls-9"><path class="cls-10" d="M210.72,108.7l-8.44.52c-1.4.08-2.8.18-4.2.33l-2.09.24a9,9,0,0,0-1,.18,4.16,4.16,0,0,0-.5.16,1.58,1.58,0,0,0-.46.25v0c.37,0,.46.48.8.52l1,.09,1.94.18,1.93.19c.65.06,1.29.15,1.93.24s1.29.19,1.93.3,1.28.21,1.91.33,1.28.25,1.91.4l1.88.51a10.5,10.5,0,0,1,1.54.66,10.5,10.5,0,0,0-1.54-.66l-1.9-.52c-.62-.15-1.26-.27-1.9-.4s-1.28-.23-1.92-.33-1.28-.18-1.92-.29-1.29-.18-1.93-.24l-1.94-.18-1.94-.19-1-.09c-.35,0-.44-.5-.79-.52h0l0,0a1.86,1.86,0,0,1,.46-.25,3,3,0,0,1,.51-.16,6.12,6.12,0,0,1,1-.18l2.09-.24c1.4-.14,2.8-.24,4.2-.33l8.43-.53Z"/></g><g class="cls-9"><path class="cls-10" d="M169.13,108.23a5.94,5.94,0,0,1,1.92-.26h0a22.92,22.92,0,0,1,4.38.18l2.19.26,1.09.13,1.08.18,2.17.36c.72.13,1.45.2,2.16.38.36.08.71.18,1.06.29l.52.19.51.2c.35.12.68.27,1,.42s.66.31,1,.49l.07,0h-.08a13.64,13.64,0,0,0-2.3-.19c-.78,0-1.55,0-2.32,0-1.55-.08-3.09-.15-4.64-.2s-3.09-.06-4.64-.1-3.09,0-4.64.06a18,18,0,0,0-4.33.43,18,18,0,0,1,4.33-.44h0c1.55-.09,3.09-.11,4.64-.06l4.64.09c1.54,0,3.09.11,4.64.19.77,0,1.54,0,2.32,0a15,15,0,0,1,2.31.18v0c-.32-.18-.65-.33-1-.48s-.66-.3-1-.42a5.49,5.49,0,0,1-.51-.21c-.17-.07-.35-.12-.52-.18-.35-.11-.7-.2-1.06-.29-.71-.17-1.44-.25-2.16-.38l-2.18-.34-1.08-.17-1.09-.13-2.18-.26a21.27,21.27,0,0,0-4.37-.18h0a5.88,5.88,0,0,0-1.91.26Z"/></g><g class="cls-9"><path class="cls-10" d="M187.47,111.31c-2.71,0-5.43-.11-8.14,0a32.39,32.39,0,0,0-4.05.35l-4,.54-4.66,1.25c-1.51.51-3,1.1-4.47,1.76a6.86,6.86,0,0,0-1.51.75,6.86,6.86,0,0,1,1.51-.75h0a47.16,47.16,0,0,1,4.47-1.77l4.65-1.26,4-.55a34.59,34.59,0,0,1,4.06-.36c2.71-.1,5.43,0,8.14,0Z"/></g><g class="cls-9"><path class="cls-10" d="M183.94,102.13c-.84-.91-1.65-1.86-2.46-2.81s-1.62-1.87-2.47-2.77a21.07,21.07,0,0,0-2.79-2.47,23.48,23.48,0,0,0-3.16-2,23.63,23.63,0,0,1,3.18,2,21,21,0,0,1,2.8,2.45c.85.91,1.67,1.84,2.49,2.78s1.62,1.89,2.46,2.8Z"/></g><g class="cls-9"><path class="cls-10" d="M185.76,102.88c-.22-1-.45-1.94-.64-2.92,0-.24-.09-.49-.13-.73s-.1-.49-.12-.74a6.84,6.84,0,0,1,0-1.5h0a21.44,21.44,0,0,1,1.08-3.67A20.38,20.38,0,0,0,184.87,97h0a7.43,7.43,0,0,0,0,1.49c0,.24.08.49.13.73s.09.49.14.74c.2,1,.43,1.94.65,2.91Z"/></g><g class="cls-9"><path class="cls-10" d="M195,91.33a2.94,2.94,0,0,1,.56.75,2.78,2.78,0,0,1,.27.89h0a6.51,6.51,0,0,1,.24,3h0a25.25,25.25,0,0,1-.65,4.06q-.24,1-.57,2c-.21.65-.43,1.29-.61,2h0c0-.06.07-.08.1-.11a.75.75,0,0,1,.13-.06l.25-.11.26-.1a1.15,1.15,0,0,0,.25-.12h0a16.21,16.21,0,0,0,.9-1.88,41.08,41.08,0,0,1,3.1-4.85c.28-.39.58-.76.87-1.14s.56-.78.82-1.18a23.14,23.14,0,0,0,1.43-2.51,23,23,0,0,1-1.43,2.5c-.26.4-.54.79-.82,1.18s-.59.76-.87,1.15a41.47,41.47,0,0,0-3.09,4.85,16.35,16.35,0,0,1-.9,1.89h0a.85.85,0,0,1-.25.13l-.26.1-.26.11c-.08,0-.17.08-.2.15h0c.17-.66.4-1.31.6-2s.4-1.31.56-2a24.17,24.17,0,0,0,.64-4.06h0a6.2,6.2,0,0,0-.24-3h0a2.72,2.72,0,0,0-.27-.88,3,3,0,0,0-.54-.74Z"/></g></g></g></g></svg>