<?xml version="1.0" encoding="utf-8"?>
<!-- Generator: Adobe Illustrator 23.0.6, SVG Export Plug-In . SVG Version: 6.00 Build 0)  -->
<svg version="1.1" id="Layer_1" xmlns="http://www.w3.org/2000/svg" xmlns:xlink="http://www.w3.org/1999/xlink" x="0px" y="0px"
	 viewBox="0 0 472.5 266.2" style="enable-background:new 0 0 472.5 266.2;" xml:space="preserve">
<style type="text/css">
	.st0{fill:#FFFFFF;}
	.st1{fill:none;}
	.st2{fill:none;stroke:#000000;stroke-width:0.3;stroke-miterlimit:10;}
	.st3{fill:none;stroke:#000000;stroke-width:0.2;stroke-miterlimit:10;}
	.st4{clip-path:url(#SVGID_2_);}
	.st5{fill:#FF2E39;fill-opacity:0.8;}
	.st6{fill:#CB80BA;fill-opacity:0.7;}
	.st7{clip-path:url(#SVGID_4_);}
	.st8{opacity:0.8;}
	.st9{opacity:0.8;fill:#000089;enable-background:new    ;}
	.st10{opacity:0.2;fill:#FFFFFF;enable-background:new    ;}
	.st11{fill:#212121;}
	.st12{opacity:0.8;fill:#9797E8;enable-background:new    ;}
	.st13{fill:#000089;}
	.st14{opacity:0.2;fill:#000089;enable-background:new    ;}
</style>
<path class="st0" d="M472.4,255.4L472.4,255.4h-48.1c5.5,0,10-4.5,10-10V10.2c0-5.5-4.5-10-10-10H48.2c-5.5,0-10,4.5-10,10v235.2
	c0,5.5,4.5,10,10,10H0.1v3.9c0,0,43,6.8,114.4,6.8H358c71.4,0,114.4-6.8,114.4-6.8h0L472.4,255.4L472.4,255.4z"/>
<title>colablaptop_1</title>
<g>
	<g id="Layer_1-2">
		<g id="Layer_1-2-2">
			<g id="Layer_2-2">
				<path class="st1" d="M424.3,255.4c5.5,0,10-4.5,10-10V10.1c0-5.5-4.5-10-10-10H48.2c-5.5,0-10,4.5-10,10v235.2
					c0,5.5,4.5,10,10,10H0.1v3.9c0,0,43,6.9,114.4,6.9H358c71.4,0,114.4-6.9,114.4-6.9v-3.9L424.3,255.4z"/>
				<path class="st2" d="M48.2,0.2h376.1c5.5,0,10,4.5,10,10v235.2c0,5.5-4.5,10-10,10H48.2c-5.5,0-10-4.5-10-10V10.1
					C38.2,4.6,42.7,0.2,48.2,0.2z"/>
				<rect x="56.8" y="16.8" class="st3" width="358.9" height="224.9"/>
				<rect x="0.1" y="255.4" class="st3" width="472.4" height="3.9"/>
				<path class="st3" d="M0.1,259.3c0,0,43,6.9,114.4,6.9H358c71.4,0,114.4-6.9,114.4-6.9H0.1z"/>
				<path class="st3" d="M195.4,255.4h81.6c0.7,0,1.2,0.6,1.2,1.2v1.4c0,0.7-0.6,1.2-1.2,1.2h-81.6c-0.7,0-1.2-0.6-1.2-1.2v-1.4
					C194.2,255.9,194.8,255.4,195.4,255.4z"/>
			</g>
		</g>
		<g>
			<defs>
				<rect id="SVGID_1_" x="174.5" y="25.2" width="66.4" height="78"/>
			</defs>
			<clipPath id="SVGID_2_">
				<use xlink:href="#SVGID_1_"  style="overflow:visible;"/>
			</clipPath>
			<g class="st4">
				<path class="st5" d="M232.4,49.7c6,9,9.8,20,8.1,30.7s-9.8,20.7-20.5,22.5c-8.1,1.4-16.4-2-23.2-6.6
					c-9.8-6.6-17.7-16.3-20.9-27.6s-1.1-24.4,6.7-33.3c6-6.9,18.7-13,27.8-8.9C218.8,30.3,227.5,42.3,232.4,49.7z"/>
			</g>
		</g>
		<path class="st6" d="M240.1,40.6c-14.2,6.7-27.1,17.6-32.8,32.2s-2.9,33.1,9.2,43.3c9.2,7.7,22,9.7,34,9
			c17.1-1,34.2-7.1,46.6-18.9s19.3-29.5,16.1-46.4c-2.5-13-13.9-30.1-28.4-31.8C271.4,26.5,251.7,35.1,240.1,40.6z"/>
		<path class="st0" d="M223.2,74v-3.4h-0.9v4.1h2.2V74H223.2z M225.8,71.3h1.4v-0.7H225v4.1h2.3V74h-1.4v-1h1.4v-0.7h-1.4
			L225.8,71.3z M229.5,71.3h1v-0.7h-2.8v0.7h1v3.4h0.9L229.5,71.3z M233.6,72.2l1.4,2.7l1.3-2.7v2.6h0.9v-4.1h-0.9l-1.2,2.5
			l-1.2-2.5h-1v4.1h0.9L233.6,72.2z M238.7,71.3h1.4v-0.7h-2.3v4.1h2.3v-0.7h-1.4v-1h1.4v-0.7h-1.4L238.7,71.3z M242.5,73.6
			c0.1,0.8,0.8,1.3,1.6,1.2c0.7-0.1,1.2-0.6,1.2-1.2c0-0.3-0.1-0.6-0.3-0.8c-0.3-0.2-0.5-0.4-0.9-0.5c-0.2-0.1-0.3-0.1-0.5-0.2
			c-0.2-0.1-0.2-0.2-0.2-0.4c0-0.2,0.2-0.4,0.4-0.4c0,0,0,0,0.1,0c0.3,0,0.5,0.2,0.5,0.4c0,0,0,0.1,0,0.1h0.9c0-0.7-0.6-1.3-1.4-1.3
			c0,0,0,0,0,0c-0.7-0.1-1.3,0.4-1.4,1.1c0,0,0,0.1,0,0.1c0,0.6,0.3,1,1.2,1.3c0.2,0,0.4,0.1,0.5,0.2c0.1,0.1,0.2,0.2,0.2,0.3
			c0,0.2-0.2,0.4-0.5,0.4c-0.3,0-0.5-0.2-0.6-0.5c0,0,0,0,0,0v0L242.5,73.6z M246.8,73.1h1.6v1.7h0.9v-4.1h-0.9v1.8h-1.6v-1.7h-0.9
			v4.1h0.8L246.8,73.1z M252,70.6c-1.2,0-2.1,0.9-2.2,2.1c0,0,0,0.1,0,0.1c0,1.2,0.9,2.2,2.1,2.2c0,0,0,0,0,0c1.2-0.1,2.1-1.1,2-2.3
			C253.9,71.6,253.1,70.7,252,70.6L252,70.6z M252,71.4c0.7,0,1.3,0.6,1.3,1.3c0,0,0,0,0,0c0,0.7-0.5,1.3-1.2,1.4c0,0-0.1,0-0.1,0
			c-0.7,0-1.3-0.6-1.3-1.3c0,0,0,0,0,0c0-0.7,0.5-1.3,1.2-1.4C251.9,71.4,252,71.4,252,71.4L252,71.4z M258,73.4l-0.6-2.7h-0.8
			l-0.7,2.6l-0.7-2.6h-0.9l1.1,4.1h0.9l0.6-2.7l0.7,2.7h0.9l1.1-4.1h-0.9L258,73.4z M263.6,73.1l1.3-2.3h-1l-0.8,1.4l-0.8-1.4h-1
			l1.4,2.3v1.8h0.9L263.6,73.1z M267.1,70.7c-1.2,0-2.1,0.9-2.2,2c0,0,0,0.1,0,0.1c0,1.2,0.9,2.1,2.1,2.2c0,0,0,0,0,0
			c1.2-0.1,2.1-1.1,2-2.3C269,71.6,268.2,70.8,267.1,70.7L267.1,70.7z M267.1,71.5c0.7,0,1.3,0.6,1.3,1.3c0,0,0,0,0,0.1
			c0,0.7-0.5,1.3-1.2,1.3c0,0,0,0,0,0c-0.7,0-1.3-0.6-1.3-1.3c0,0,0,0,0,0C265.8,72.1,266.3,71.5,267.1,71.5
			C267,71.5,267.1,71.5,267.1,71.5L267.1,71.5z M270.6,70.8h-0.9v2.4c0,0.5,0.1,0.9,0.4,1.3c0.3,0.3,0.8,0.5,1.2,0.5
			c0.4,0,0.9-0.1,1.2-0.5c0.3-0.4,0.5-0.9,0.4-1.3v-2.4h-0.9v2.4c0,0.3,0,0.5-0.1,0.7c-0.1,0.2-0.4,0.3-0.6,0.3
			c-0.2,0-0.4-0.1-0.6-0.2c-0.2-0.2-0.2-0.5-0.2-0.8L270.6,70.8z M276.5,73.2h1.6V75h0.9v-4.1h-0.9v1.8h-1.6v-1.8h-0.9v4.1h0.8
			L276.5,73.2z M281.8,70.7c-1.2,0-2.1,0.9-2.2,2.1c0,0,0,0.1,0,0.1c0,1.2,1,2.1,2.2,2.1c1.2-0.1,2.1-1.1,2-2.3
			C283.7,71.7,282.8,70.8,281.8,70.7z M281.8,71.5c0.7,0,1.3,0.7,1.2,1.4c0,0,0,0,0,0c0,0.7-0.6,1.3-1.3,1.3c-0.7,0-1.3-0.6-1.3-1.3
			l0,0c-0.1-0.7,0.5-1.3,1.2-1.4C281.7,71.5,281.7,71.5,281.8,71.5L281.8,71.5z M287.8,73.5l-0.6-2.7h-0.8l-0.7,2.6l-0.6-2.6h-0.9
			l1.1,4.2h0.9l0.6-2.7l0.7,2.7h0.9l1.1-4.1h-0.9L287.8,73.5z M232.6,82.7l1.4,2.7l1.3-2.7v2.6h0.9v-4.1h-1l-1.2,2.5l-1.2-2.5h-1
			v4.1h0.9L232.6,82.7z M237.7,81.8h1.4v-0.7h-2.3v4.1h2.3v-0.7h-1.4v-1h1.4v-0.7h-1.4L237.7,81.8z M240.5,81.8h1.5v-0.7h-2.3v4.1
			h2.3v-0.7h-1.4v-1h1.4v-0.7h-1.4L240.5,81.8z M243.5,83.6l1.1,1.6h1l-1.1-1.6c0.6-0.1,1-0.6,1-1.2c0-0.8-0.6-1.3-1.6-1.3h-1.3v4.1
			h0.8L243.5,83.6z M243.5,83.1v-1.3h0.5c0.3,0,0.6,0.2,0.7,0.6c0,0,0,0.1,0,0.1c0,0.4-0.3,0.7-0.8,0.7L243.5,83.1z M247.1,83.4
			l1.2,1.8h1l-1.3-2.1l1.3-2h-1l-1.2,1.8v-1.8h-0.9v4.1h0.9L247.1,83.4z M252.3,84.6l0.2,0.7h0.9l-1.4-4.1h-1l-1.4,4.1h0.9l0.2-0.7
			L252.3,84.6z M252,83.9h-1.1l0.6-1.7L252,83.9z M255,81.9h1v-0.7h-2.8v0.7h1v3.4h0.9L255,81.9z M256.3,84.1
			c0.1,0.8,0.8,1.3,1.6,1.2c0.7-0.1,1.2-0.6,1.2-1.2c0-0.3-0.1-0.6-0.3-0.8c-0.3-0.2-0.6-0.4-0.9-0.5c-0.2-0.1-0.3-0.1-0.5-0.2
			c-0.2-0.1-0.3-0.2-0.3-0.4c0-0.2,0.2-0.4,0.5-0.4c0,0,0,0,0,0c0.3,0,0.5,0.2,0.5,0.4c0,0,0,0.1,0,0.1h0.9c0-0.7-0.6-1.3-1.3-1.3
			c0,0,0,0,0,0c-0.7-0.1-1.3,0.4-1.4,1.1c0,0,0,0.1,0,0.1c0,0.6,0.3,1,1.2,1.3c0.2,0,0.3,0.1,0.5,0.2c0.1,0.1,0.2,0.2,0.2,0.3
			c0,0.3-0.3,0.5-0.5,0.4c0,0,0,0,0,0c-0.3,0-0.5-0.2-0.6-0.5c0,0,0,0,0,0v0L256.3,84.1z M264.9,83.9l-0.7-2.7h-0.8l-0.7,2.6
			l-0.7-2.6h-0.9l1.1,4.1h0.9l0.6-2.7l0.7,2.7h0.9l1.1-4.1h-0.9L264.9,83.9z M268.8,81.2c-1.2,0-2.1,0.9-2.2,2.1c0,0,0,0.1,0,0.1
			c0,1.2,1,2.1,2.2,2.1c0,0,0,0,0,0c1.2,0,2.1-0.9,2.1-2.1c0,0,0,0,0,0c0-1.2-0.9-2.1-2-2.2C268.9,81.2,268.9,81.2,268.8,81.2
			L268.8,81.2z M268.8,81.9c0.7,0,1.3,0.6,1.3,1.3c0,0,0,0,0,0.1c0,0.7-0.5,1.3-1.2,1.3c0,0,0,0,0,0c-0.7,0-1.3-0.6-1.3-1.3
			c0,0,0,0,0,0c-0.1-0.7,0.5-1.3,1.2-1.4C268.7,81.9,268.8,81.9,268.8,81.9L268.8,81.9z M272.5,83.8l1.1,1.7h1l-1.1-1.6
			c0.6-0.1,1-0.6,1-1.2c0-0.8-0.6-1.3-1.6-1.3h-1.3v4.1h0.9L272.5,83.8z M272.5,83.3V82h0.5c0.3,0,0.7,0.2,0.7,0.6c0,0,0,0,0,0.1
			c0,0.4-0.3,0.7-0.8,0.7H272.5z M276.1,83.6l1.2,1.8h1l-1.4-2.1l1.3-2h-1l-1.2,1.8v-1.8h-0.9v4.1h0.9L276.1,83.6z M279.6,81.3h-0.8
			v2.8h0.8V81.3z M279.2,84.6c-0.2,0-0.5,0.2-0.5,0.4c0,0,0,0,0,0c0,0.3,0.2,0.5,0.5,0.5c0.3,0,0.5-0.2,0.5-0.5
			C279.7,84.8,279.5,84.6,279.2,84.6C279.2,84.6,279.2,84.6,279.2,84.6L279.2,84.6z"/>
		<g>
			<defs>
				<rect id="SVGID_3_" x="160.6" y="91.3" width="58.8" height="142"/>
			</defs>
			<clipPath id="SVGID_4_">
				<use xlink:href="#SVGID_3_"  style="overflow:visible;"/>
			</clipPath>
			<g class="st7">
				<g class="st8">
					<path class="st9" d="M179.3,103.9"/>
					<path class="st9" d="M198.8,209.7l0.1-0.2c0.1-0.3,0.2-0.6,0.3-0.9c0.7,0.2,1.1,1.4,1.2,2c0.1,0.9,0.2,1.9,0.4,2.9
						c0.2,1.7,0.2,3.3,0.2,5v1.4c0,0.2,0,0.4,0,0.6c0,0.4,0.2,0.4,0.6,0.5c0.3,0.2,0.8,0.3,1.2,0.2c0.3-0.1,0.6-0.1,0.9,0
						c0.6,0.2,1.2,0.2,1.4-0.6c0.1-0.5,0.1-0.9,0-1.4c-0.1-0.5-0.1-1-0.1-1.5c0-0.6,0.2-1.1,0.2-1.8v-1.6c0.1-0.6,0.1-1.2,0-1.8
						c-0.1-0.7-0.5-1.4-0.7-2.2c0-0.2,0-0.3-0.1-0.5c0-0.1,0-0.2,0-0.3c0-0.1,0-0.2,0-0.2c0.1-0.6,0.1-1.2,0.1-1.8
						c0.2-1.5,0.5-3.1,1.2-4.5c0.1-0.2,0.2-0.4,0.3-0.6C202.6,204.1,199.5,206.3,198.8,209.7z"/>
					<path class="st9" d="M183.2,210.2c-2.4,0.5-3.2,3.6-3.9,5.8c-0.8,2.7-2.4,5-3.5,7.7l0,0c0.3,0.1,0.7,0.2,1,0.2h1.1
						c1.2,0,2.3,0.1,3.5,0.3c0.1-0.2,0-0.4,0-0.6c0.1-0.2,0.2-0.4,0.3-0.6c0.2-0.4,0.3-0.9,0.6-1.3c0.4-0.8,0.6-1.8,1-2.6
						c0.1-0.3,0.3-0.6,0.4-0.9c0.1-0.2,0.2-0.4,0.2-0.6c0.1-0.2,0.1-0.4,0.1-0.6c0.1-0.5,0.4-1,0.5-1.5c0.1-0.4,0.2-0.7,0.2-1.1
						c0-0.2,0-0.4,0-0.6c0-0.2,0.1-0.2,0.2-0.4c0.1-0.6-0.1-1.2-0.4-1.7c-0.2-0.3-0.4-0.6-0.6-0.9c-0.1-0.2-0.1-0.4-0.2-0.6
						C183.4,210.2,183.2,210.2,183.2,210.2L183.2,210.2z"/>
					<path class="st9" d="M213.3,160.1c-0.1-1,0-2.1-0.1-3.1c-0.1-1-0.1-1.9-0.1-2.9c0-1.5-0.1-3-0.3-4.6c-0.4-3.2-1.3-6.4-2.5-9.4
						c-0.5-1.3-0.8-2.7-1.4-4c-0.4-0.9-0.6-1.9-1.1-2.8c-0.2-0.4-0.3-0.9-0.5-1.4c-0.2-0.4-0.4-0.8-0.8-1.1
						c-0.3-0.4-0.5-0.8-0.8-1.2c-0.3-0.5-0.6-0.9-0.9-1.5c-0.8-1.4-1.9-2.8-3.1-3.9c-0.6-0.6-1.1-1.3-1.5-2.1
						c-0.3-0.6-0.6-1.1-0.8-1.7c-0.2-0.9-0.2-1.8,0-2.7c0-0.6,0.1-1.2,0.2-1.7c0.1-0.2,0.1-0.5,0.2-0.8c0.1-0.2,0.2-0.4,0.2-0.7
						c0.2-0.1,0.4-0.3,0.5-0.5c0.1-0.2,0.3-0.6,0.5-0.8s0.6,0,0.9-0.4c0.3-0.4,0.5-0.8,0.8-1.3c0.1-0.2,0.3-0.5,0.4-0.7
						c0-0.2,0-0.3,0-0.5c0.1-0.5,0.2-0.9,0.2-1.4c0-0.4,0-0.9,0-1.3c-0.2-0.4-0.4-0.8-0.6-1.2c-0.3-0.6-0.6-1.4-1.1-1.8
						s-1.1,0.2-1.5-0.2c-0.3-0.4-0.5-0.9-0.6-1.5c-0.1-1-0.6-1.9-1.2-2.7c-0.2-0.2-0.5-0.4-0.8-0.6c-0.4-0.2-0.8-0.4-1.2-0.5
						c-0.1-0.1-0.3-0.1-0.5-0.1c-0.2,0-0.5,0-0.7,0c-0.7,0-1.3-0.2-2-0.2c-0.6,0-1.1-0.1-1.6-0.4l-0.4-0.2c-0.2-0.1-0.4,0-0.6-0.2
						c-0.2,0.1-0.5,0.1-0.7,0.1c-0.3,0.1-0.6,0.1-0.9,0.2c-0.3,0-0.6,0.1-0.9,0.2c-0.3,0-0.6,0-0.9,0c-0.5,0.1-0.9,0.1-1.4,0
						c-0.3-0.1-0.4-0.3-0.7-0.3c-0.3,0-0.6,0-0.9,0c-0.1,0.1-0.3,0.1-0.4,0.2c-0.1,0.1-0.2,0.1-0.4,0.1c-1.2,0.5-2.2,1.3-3,2.2
						c-0.3,0.4-0.5,0.8-0.6,1.3c0,0.5-0.4,1.1-0.1,1.7l-0.2,0.1c0,0,0,0.1,0,0.1c-0.6,0.1-1.2,0.4-1.6,0.9c-0.6,0.6-1.3,1.1-1.2,2
						c0,1.1-0.3,2.7,0.7,3.4c0.2,0.1,0.4,0.3,0.6,0.5c0.2,0.2,0.2,0.6,0.4,0.8c0.4,0.5,0.8,0.8,0.8,1.4c0,0.9,0.7,1.2,1.2,1.9
						c0.2,0.4,0.3,0.8,0.4,1.2c0.1,0.6,0.3,1.2,0.4,1.9c0.2,0.6,0.3,1.3,0.4,1.9c0,0.9,0,1.8,0,2.7c0,0.3,0.1,0.7,0.2,1
						c0.1,0.5,0.1,1,0.2,1.6l-0.1,0.2c-0.1,0.3-0.2,0.6-0.2,0.9c0,0.3,0,0.7,0,1c0,0.7,0,1.5,0,2.2c0,0.5,0.2,0.9,0.4,1.4
						c0,0.1,0,0.2,0,0.3c0,0.4,0.1,0.7,0.2,1.1c0,0.1,0,0.2,0,0.4s0.2,0.3,0.2,0.5c0.1,0.6,0.3,1.3,0.4,2c0,0.6,0,1.3,0,1.9
						c0.1,0.5,0.1,1.1,0.1,1.7v4.2c0,0.6,0,1.1,0,1.7c-0.2,0.2-0.4,0.4-0.6,0.6c-0.2,0.2-0.4,0.5-0.6,0.7c-0.4,0.4-0.8,0.8-1.2,1.2
						c-0.6,0.7-1.2,1.4-1.9,2.1c-0.5,0.6-0.9,1.3-1.4,1.9c-0.2,0.3-0.4,0.7-0.6,1c-0.4,0.5-0.7,1-0.9,1.6c0,0.2,0.1,0.5,0.1,0.7
						c0,0.3,0.1,0.5,0.2,0.8c0.2,0.4,0.3,0.8,0.4,1.3c0.1,0.3,0.2,0.7,0.3,1c0.2,0.6,0.4,1.2,0.5,1.8c0.1,0.5,0.2,1,0.4,1.5
						c0.2,0.4,0.3,0.9,0.5,1.4c0.1,0.4,0.3,0.8,0.5,1.1c0.1,0.2,0.2,0.5,0.3,0.7c0.1,0.3,0.2,0.6,0.2,0.9c0.1,0.3,0,0.7,0.1,1
						c0.1,0.6,0.1,1.1,0.2,1.7c0.1,0.3,0.2,0.7,0.3,1s0.2,0.4,0.3,0.7s0.1,0.7,0.2,1c0.1,0.3,0.2,0.6,0.3,0.9c0.2,0.4,0.8,0.5,1,0.9
						c0-0.2,0.1-0.3,0.1-0.5c0-0.2,0-0.3,0-0.5c0.1-0.3,0.2-0.6,0.2-0.9c0,0.3,0.3,0.6,0.4,0.8c0.3-0.2,0.3-0.7,0.4-1.1
						c0-0.1,0.1-0.3,0.1-0.5c-0.1,0.6-0.2,1.2-0.3,1.8c-0.1,0.4-0.2,0.7-0.2,1.1c0,0.4,0,0.9-0.1,1.3c-0.1,0.7,0,1.4-0.2,2.2
						c-0.1,0.9-0.3,1.8-0.6,2.7c-0.8,2.6-1.3,5.4-2.9,7.6c-0.3,0.4-0.6,0.8-0.8,1.2c-0.1,0.3-0.3,0.7-0.5,1
						c-0.2,0.2-0.3,0.4-0.5,0.6c-0.6,1.1-1.2,2.2-1.8,3.3c-0.7,1.6-0.8,3.4-0.3,5.1c0.2,1.1,0.8,2.2,1.1,3.3
						c0.2,0.8,0.4,1.6,0.7,2.4c0.3,0.8,0.6,1.6,1,2.4c0.2,0.4,0.4,0.8,0.5,1.2c0.1,0.4,0.2,0.8,0.3,1.1c0.1,0.9,0.1,1.7,0,2.6
						c0,0.3,0,0.6,0,0.9s-0.1,0.6-0.2,0.9s0,0.4,0,0.6c0,0.2-0.1,0.4-0.2,0.5c-0.2,0.9-0.3,1.8-0.3,2.7c0,0.3,0,0.7-0.1,1
						c0,0.2,0,0.4-0.1,0.5c-0.1,0.3-0.3,0.6-0.3,1c0-0.1,0.1-0.2,0.2-0.3c-0.1,0.4-0.2,0.9-0.3,1.3c-0.1,0.4-0.2,0.8-0.4,1.2
						c-0.2,0.4-0.4,0.6-0.6,1s0,0.4-0.5,0.3s-0.9-0.7-1.4-0.3c-0.2,0.1-0.8,0.9-0.7,1.1c0.1,0.4,0.9,0.6,1.2,0.8
						c0.4,0.2,0.9,0.3,1.3,0.3c1.1-2.6,2.8-4.9,3.5-7.6c0.7-2.2,1.5-5.3,3.9-5.8c0.2,0,0.3-0.1,0.5-0.1c0-0.2,0-0.4-0.1-0.7
						c-0.1-1.5-0.1-3,0.2-4.4c0.2-1.1,0.4-2.3,0.5-3.4c0-0.5,0-1,0.1-1.4c0.2-0.6,0.4-1.2,0.7-1.7c0.2-0.4,0.1-0.4,0.5-0.5
						c0.3,0,0.6,0,0.9,0c1.3-0.1,2.6-0.7,4-0.7c0.4,0,1.6,0.5,1.6,1c-0.3,0.1-0.1,1.2-0.2,1.5c-0.1,0.7-0.1,1.3-0.1,2
						c0,1-0.1,1.9-0.2,2.9c-0.1,1.3-0.3,2.6-0.6,3.8c-0.4,1.3-0.8,2.5-1.2,3.8c-0.1,0.8-0.2,1.5-0.2,2.3c-0.1,0.7-0.1,1.4-0.1,2.1
						c0,0.3,0,0.7,0,1s-0.2,0.8-0.2,1.2c0,0.6,0,1.3,0,2v0.8c0,0.2,0,0.5,0.1,0.7c0.1,0.4,0.2,0.8,0.3,1.2c0.3,0.4,0.6,0.7,1.1,0.9
						c0.7,0.2,1.4,0.3,2.1,0.2h2.6c0.8,0.1,1.5,0,2.3-0.2c0.8-0.5,1.6-0.8,2.5-0.8c0.6,0,1.1,0,1.7,0.1c0.5,0.1,1,0.1,1.4,0.2
						c0.9,0.2,1.6,0.7,2.1,1.5c0.2,0.3,0.4,0.6,0.5,1c0.1,0.4,0.1,0.8,0,1.2c-0.1,0.7-0.5,1.2-1,1.7c-0.4,0.3-0.8,0.6-1.2,0.8
						c-0.5,0.3-1.1,0.4-1.7,0.5c-0.6,0.1-1.3,0.1-1.9,0.1c-0.6,0-1.1-0.1-1.7-0.2s-1.3-0.2-1.9-0.2c-0.4,0-0.8-0.1-1.1-0.1
						c-0.5-0.1-0.2,0-0.6,0.1c-0.6,0.1-1.1,0-1.6,0.5c-0.4,0.3-0.5,0.8-0.5,1.2c0,0.6,0.1,0.8,0.6,1.1c0.5,0.1,1.1,0.2,1.6,0.1
						c0.5,0,1,0,1.4-0.1c1.1-0.3,2.4-0.1,3.5-0.4s2.1-0.4,3.2-0.7c0.8-0.1,1.6-0.4,2.4-0.7c0.3-0.1,0.7-0.3,1-0.5
						c0.2-0.2,0.3-0.4,0.4-0.5c0.2-0.2,0.6-0.4,0.8-0.6c0.5-0.6,1-1.3,1.2-2.1c0.3-0.9,0.3-1.9,0-2.8c0-0.3-0.1-0.5-0.3-0.7
						c-0.2-0.2-0.4-0.4-0.6-0.5c-0.7-0.4-1.5-0.6-2.3-0.9c-0.9-0.4-1.8-0.7-2.7-0.8c-0.4,0-0.9-0.2-1.3-0.2
						c-0.7-0.1-1.4,0.2-2.2,0.2c-0.4,0.1-0.7,0.1-1.1,0c-0.2-0.1-0.4-0.3-0.5-0.4c-0.6-0.5-1.1-1.2-1.3-1.9
						c-0.1-0.9-0.1-1.8,0.3-2.6c0.3-0.5,0.4-1.1,0.4-1.6c0.2-1.3,0.5-2.6,1-3.9c0.1-0.6,0.2-1.1,0.4-1.7c0.7-3.3,3.9-5.6,6.8-7.2
						l0.3-0.6c0.1-0.3,0.2-0.6,0.4-0.8c0.3-0.4,0.7-0.8,1-1.2c0.4-0.9,0.8-1.8,1.1-2.7c0.3-0.8,0.6-1.5,0.8-2.3
						c0.2-0.7,0.4-1.4,0.7-2s0.4-1.5,0.6-2.2c0.6-1.7,1-3.5,1.2-5.3c0.3-1.8,0.2-3.6,0.5-5.4c0.2-1.5,0.5-3,0.7-4.5
						c0.2-0.8,0.2-1.7,0.3-2.6c0-0.8,0.1-1.6,0.2-2.4C213.4,167.1,213.5,163.6,213.3,160.1z M200.1,114.6c-0.1,0.1-0.2,0.3-0.3,0.4
						C199.8,114.9,199.9,114.7,200.1,114.6z M184.6,161.7c0,0.5-0.1,1-0.3,1.5c-0.2,0.7-0.3,1.5-0.6,2.3s-0.4,1.2-0.6,1.8
						c0-0.9,0-1.7,0-2.5c0-0.3,0-0.6,0-1s-0.1-0.3-0.1-0.5s0-0.3,0-0.5c-0.2-1-0.5-2-1-2.9c-0.2-0.4-0.3-0.8-0.5-1.2
						c-0.1-0.1-0.1-0.2-0.2-0.3c0-0.2,0-0.4-0.1-0.5s-0.1-0.5-0.3-0.7s-0.4-0.4-0.3-0.7c0.3-0.6,0.7-1.1,1.3-1.5
						c0.5-0.3,0.9-0.6,1.4-0.9c0.2-0.1,0.4-0.2,0.5-0.3c0.1,0.5,0.2,1,0.3,1.5c0.2,1.2,0.2,2.4,0.2,3.6c0,0.5,0.2,1,0.2,1.5
						S184.5,161.2,184.6,161.7L184.6,161.7z"/>
				</g>
				<path class="st10" d="M189.4,108.2c-0.1,0-0.2,0.2-0.4,0.2s-0.3,0.2-0.5,0.3c-0.5,0.2-0.9,0.5-1.3,0.8c-0.3,0.2-0.5,0.4-0.7,0.7
					c-0.2,0.3-0.4,0.6-0.5,0.9c-0.2,0.4-0.1,0.8,0.1,1.1c0.1,0.2,0.3,0.3,0.4,0.4c0.2,0.2,0.3,0.3,0.5,0.4c0.3,0.2,0.5,0.3,0.8,0.4
					c0.3,0.1,0.7,0.1,1,0.1h3.4c0.3,0,0.6,0,0.9-0.2c0.2-0.1,0.3-0.1,0.5-0.2c0.2,0,0.3-0.1,0.5-0.2c0.3-0.2,0.5-0.4,0.7-0.6
					c0.2-0.3,0.2-0.7,0.2-1c0-0.4,0-0.7-0.1-1.1c-0.1-0.9-1.3-1.1-2-1.4c-0.4-0.1-0.8-0.2-1.1-0.4l-0.6-0.2
					C190.6,108.2,190,108.2,189.4,108.2z"/>
				<path class="st10" d="M184.4,134.6c0.1,0.2,0.4,0.6,0.5,1c0,0.3,0,0.7,0.1,1c0.1,0.2,0.1,0.4,0.1,0.6c0,0.2,0,0.4,0,0.6
					c0.1,0.2,0.1,0.5,0.1,0.7v1.1c0,0.2,0,0.5,0,0.7c0,0.1,0.1,0.3,0.1,0.4c0,0.1-0.1,0.2-0.1,0.3c-0.2,0.5-0.4,1.1-0.7,1.6
					c-0.2,0.2-0.3,0.4-0.5,0.6c-0.1,0.2-0.2,0.3-0.4,0.5c-0.2,0.2-0.4,0.4-0.5,0.5c-0.3,0.3-0.6,0.5-0.9,0.8
					c-0.2,0.2-0.4,0.5-0.6,0.7c-0.4,0.4-0.8,0.8-1.2,1.2c-0.6,0.7-1.2,1.4-1.9,2.1c-0.5,0.6-0.9,1.3-1.4,1.9c-0.2,0.3-0.4,0.7-0.6,1
					c-0.4,0.5-0.7,1-0.9,1.6c0,0.2,0.1,0.5,0.1,0.7c0,0.3,0.1,0.5,0.2,0.8c0.2,0.4,0.3,0.8,0.4,1.3c0.1,0.3,0.2,0.7,0.3,1
					c0.2,0.6,0.4,1.2,0.5,1.8c0.1,0.5,0.2,1,0.4,1.5c0.2,0.4,0.3,0.9,0.5,1.4c0.1,0.4,0.3,0.8,0.5,1.1c0.1,0.2,0.2,0.5,0.3,0.7
					c0.1,0.3,0.2,0.6,0.2,0.9c0.1,0.3,0,0.7,0.1,1c0.1,0.6,0.1,1.1,0.2,1.7c0.1,0.3,0.1,0.7,0.2,1s0.2,0.4,0.3,0.7s0.1,0.7,0.2,1
					c0.1,0.3,0.2,0.6,0.3,0.9c0.2,0.4,0.8,0.5,1,0.9c0-0.2,0.1-0.3,0.1-0.5c0-0.2,0-0.3,0-0.5c0.1-0.3,0.2-0.6,0.2-0.9
					c0,0.3,0.3,0.6,0.4,0.8c0.3-0.2,0.3-0.7,0.4-1.1c0.1-0.3,0.2-0.6,0.4-0.9c0.1,0.1,0.1,0.3,0.2,0.4c-0.1-1.5,0-3,0-4.5
					c0-0.3,0-0.7,0-1s-0.1-0.3-0.1-0.5s0-0.3,0-0.5c-0.2-1-0.5-2.1-1-3c-0.2-0.4-0.3-0.8-0.5-1.2c-0.1-0.1-0.1-0.2-0.2-0.3
					c0-0.2,0-0.4-0.1-0.5s-0.1-0.5-0.3-0.7c-0.2-0.2-0.3-0.4-0.3-0.7c0.3-0.6,0.7-1.1,1.3-1.5c0.5-0.3,0.9-0.6,1.4-0.9
					c0.4-0.2,0.9-0.4,1.3-0.7c1.2-0.8,2.2-2.2,3.7-2.6c0.9-0.3,1.8-0.8,2.6-1.3c0.5-0.3,0.9-0.6,1.3-0.9c0.3-0.2,0.6-0.3,0.9-0.4
					c0.3-0.2,0.7-0.4,1-0.7s0.7-0.6,1-0.9s0.6-0.7,0.9-0.9c0.4-0.2,0.7-0.5,1-0.8c0.3-0.2,0.5-0.5,0.7-0.8c0-0.1,0.1-0.2,0.2-0.3
					l0.4-0.4c0.5-0.5,0.8-1.2,1-1.8c0.2-0.7-0.2-1.3-0.1-2c-0.1-0.5-0.1-1.1,0-1.6c0.2-0.7,0.6-1.3,0.8-2c0.4-1.4,0.1-2.8,0.4-4.3
					c0.2-0.8,0.3-1.6,0.3-2.4c-0.2-2.3-2.3-3.6-3.6-5.3c-0.5-0.7-1.1-1.3-1.8-1.9c-0.3-0.2-0.6-0.3-0.9-0.3c-0.7-0.2-1.3-0.3-2-0.4
					c-0.2,0-0.2-0.3-0.3-0.3s-0.5-0.1-0.8-0.1c-0.6-0.1-1.3-0.1-1.9-0.2c-0.2,0-0.3,0-0.5,0c-0.3,0-0.7,0-1,0.1c-0.3,0-0.5,0-0.8,0
					c-0.4,0.1-0.8,0.1-1.2,0.2c-0.3,0.1-0.6,0.1-0.9,0.1c-0.2,0.1-0.3,0.1-0.4,0.2c-0.2,0.1-0.4,0.1-0.6,0.1
					c-0.3,0.1-0.6,0.2-0.8,0.4c-0.4,0.4-0.7,0.9-0.9,1.4c-0.3,0.7-0.6,1.4-0.8,2.2c-0.1,0.3-0.2,0.6-0.2,0.9c0,0.3,0,0.7,0,1
					c0,0.7,0,1.5,0,2.2c0.1,1,0.9,1.9,1.3,2.8c0.2,0.3,0.4,0.7,0.6,1C183.7,133.6,184.1,134.1,184.4,134.6z"/>
				<path class="st11" d="M178.8,104.8c-0.1,0-0.3,0.2-0.3,0.3c-0.2,0.2-0.4,0.5-0.5,0.8c-0.1,0.1-0.2,0.3-0.2,0.4
					c0,0.1,0,0.1,0,0.2s-0.2,0.2-0.2,0.4s-0.1,0.3-0.1,0.4c0,0.3,0,0.6,0,0.9c0,0.2,0,0.3,0.1,0.4c0,0.1,0,0.2,0,0.3
					c0,0.1,0.1,0.3,0.1,0.4c0,0.1,0,0.3,0.1,0.4s0.2,0.5,0.3,0.6c0.2-0.1,0.4-0.2,0.6-0.4c0.2-0.3,0.3-0.6,0.4-1
					c0.3-0.7,0.4-1.4,0.5-2.2c0-0.4-0.1-0.8,0-1.2c0-0.2-0.1-0.4-0.1-0.6s0-0.3,0-0.3s-0.4-0.1-0.6-0.1
					C178.8,104.7,178.8,104.7,178.8,104.8z"/>
				<path class="st11" d="M201.2,105.8c-0.1,0-0.2,0.1-0.2,0.1c-0.1,0.1-0.2,0.2-0.3,0.3c-0.2,0.4-0.2,0.9-0.1,1.3
					c0.1,0.6,0.2,1.2,0.3,1.7c0,0.2,0,0.4,0.1,0.7c0,0.2,0,0.4,0,0.6c0,0.5-0.1,1-0.2,1.4c-0.1,0.2-0.1,0.3-0.1,0.5v0.5
					c0,0.2-0.1,0.8,0.2,0.6c0.2-0.1,0.4-0.3,0.6-0.4c0.2-0.2,0.1-0.3,0.2-0.5c0.1-0.4,0.4-0.7,0.5-1c0.1-0.4,0.3-0.9,0.6-1.3
					c0.1-0.3,0.2-0.6,0.3-0.9c0.1-0.3,0.1-0.7,0-1.1c-0.1-0.4-0.2-0.8-0.3-1.2c-0.1-0.2-0.2-0.4-0.3-0.5c-0.1-0.1-0.2-0.3-0.2-0.4
					c-0.1-0.1-0.2-0.2-0.3-0.3c-0.1-0.1-0.2-0.2-0.3-0.2c-0.1,0-0.2,0-0.3,0C201.2,105.7,201,105.6,201.2,105.8z"/>
				<path class="st11" d="M191.2,108.8c-0.1,0-0.3,0-0.4,0c-0.2,0-0.3,0-0.5,0c-0.1,0-0.1,0.1-0.2,0.1c-0.2,0-0.3,0.1-0.4,0.2
					c-0.2,0.1-0.4,0.2-0.5,0.4c-0.2,0.3-0.1,0.5,0.1,0.7c0.2,0.1,0.4,0.2,0.7,0.3c0.1,0,0.2,0,0.3,0c0.1,0,0.1-0.1,0.2-0.2
					c0.1,0.1,0.1,0.1,0.2,0.2c0,0.1,0,0.2,0,0.3c0,0.1-0.1,0.2-0.1,0.2c-0.1,0.1-0.2,0.1-0.2,0.1c-0.1,0-0.2,0-0.3,0
					c0,0-0.1-0.1-0.1-0.1s-0.2-0.1-0.3-0.2s-0.2-0.2-0.3-0.1c-0.1,0.1-0.2,0.2-0.2,0.3c-0.1,0.2-0.1,0.5-0.1,0.7
					c0,0.3,0,0.6,0.1,0.8c0.1,0.3,0.3,0.4,0.6,0.4c0.2,0,0.4,0,0.6,0c0.1,0,0.2-0.1,0.4-0.2c0.3-0.1,0.6,0,0.9,0.1
					c0.3,0.1,0.5,0.1,0.8,0.1c0.1,0,0.2,0,0.3-0.1l0.2-0.2c0.1,0,0.2-0.1,0.2-0.2l0.1-0.2c0,0,0.1-0.1,0.1-0.1
					c0.1-0.1,0.1-0.3,0.1-0.4c0,0,0-0.1,0-0.2c0,0,0-0.1-0.1-0.1c0,0-0.1-0.1-0.1-0.1l-0.1-0.1c-0.1,0-0.2-0.1-0.3-0.1h-0.1
					c-0.1,0-0.2,0-0.3,0c-0.2,0-0.4-0.1-0.4-0.3s0-0.2,0.1-0.2s0.3,0,0.4,0.1s0.2,0,0.2,0h0.1h0.1c0.1-0.1,0.2-0.2,0.3-0.4
					c0-0.2,0-0.3,0-0.5c0-0.2-0.1-0.3-0.2-0.5c-0.2-0.3-0.5-0.5-0.9-0.6C191.8,108.7,191.5,108.8,191.2,108.8L191.2,108.8z"/>
				<path class="st9" d="M186.3,100.2c0.4,0,0.8,0.1,1.1,0.2c0.5,0.1,1,0.1,1.5,0.3c0.2,0.1,0.3,0.1,0.5,0.2
					c0.3,0.1,0.5,0.1,0.8,0.2c0.1,0,0.3,0.1,0.4,0.1c0.1,0,0.3-0.1,0.4-0.2s0.5-0.1,0.7-0.1c0.4-0.1,0.8-0.2,1.2-0.2
					c0.3,0,0.5,0,0.8,0c0.1,0,0.3,0,0.4,0h0.3c0.1,0,0.1,0,0.1-0.1s-0.4-0.3-0.6-0.4c-0.7-0.2-1.5-0.2-2.2-0.2h-1.3
					c-0.2,0-0.4,0-0.6-0.1c-0.3-0.1-0.6-0.2-0.8-0.3c-0.2,0-0.3,0-0.5,0c-0.2,0-0.4,0-0.6-0.1c-0.5,0-1,0-1.4,0.1
					c-0.2,0-0.4,0-0.6,0.1c-0.1,0-0.4,0-0.5,0.1s0.2,0.2,0.3,0.2C186.1,100.1,186.2,100.2,186.3,100.2L186.3,100.2z"/>
				<path class="st9" d="M196.3,104c-0.2,0-0.3,0-0.5-0.1c-0.3,0-0.6,0-0.9,0c-0.1,0-0.3,0-0.4,0c-0.2,0.1-0.4,0.1-0.6,0.2
					c-0.1,0.1-0.2,0.1-0.3,0.2c-0.1,0.1-0.3,0.2-0.4,0.3c0,0.1-0.1,0.1-0.1,0.2c0,0.1-0.1,0.2-0.1,0.2c-0.1,0.2-0.1,0.4-0.1,0.6
					c0.1,0.4,0.4,0.8,0.8,1.1c0.2,0.2,0.5,0.5,0.8,0.7c0.3,0.2,0.5,0.4,0.7,0.7c0.1,0.2,0.2,0.4,0.3,0.7c0.1,0.3,0.4,0.6,0.6,0.8
					c0.2,0.1,0.4,0.3,0.6,0.3c0.3,0.1,0.5,0,0.7-0.3c0.1-0.2,0.1-0.3,0.1-0.5c0.1-0.1,0.1-0.3,0.2-0.4c0.1-0.2,0.2-0.3,0.3-0.5
					c0-0.1,0.1-0.1,0.1-0.2c0.1-0.2,0.2-0.3,0.3-0.4c0.1-0.1,0.2-0.3,0.2-0.4c0.1-0.1,0.2-0.3,0.2-0.4c0.1-0.2,0.1-0.5,0.1-0.8
					c-0.1-0.4-0.4-0.7-0.7-0.9c-0.2-0.2-0.5-0.4-0.7-0.6s-0.4-0.3-0.5-0.5C196.8,104.1,196.5,104,196.3,104L196.3,104z"/>
				<path class="st9" d="M187,103.6c-0.8-0.2-1.6-0.3-2.4-0.3h-1.3c-0.1,0-0.3,0.1-0.4,0.2c-0.2,0.1-0.3,0.2-0.4,0.3
					c-0.1,0.1-0.1,0.2-0.1,0.2c-0.1,0.1-0.1,0.2-0.2,0.4c-0.1,0.2-0.3,0.3-0.5,0.4c-0.1,0-0.1,0.1-0.2,0.2l-0.2,0.1
					c-0.1,0.1-0.1,0.2-0.1,0.3c0,0.1,0,0.2,0,0.2c0,0.1,0.1,0.2,0.1,0.2c0.2,0.2,0.5,0.3,0.7,0.3c0.3,0.2,0.6,0.4,0.8,0.8
					c0.2,0.3,0.4,0.5,0.5,0.8c0.2,0.3,0.3,0.5,0.4,0.8c0.1,0.2,0.1,0.4,0.1,0.7c0,0.1,0,0.2,0,0.2c0,0.1,0.1,0.1,0,0.2
					c0.1-0.1,0.3-0.1,0.4-0.1c0.2,0,0.4-0.1,0.6-0.2c0.2-0.1,0.3-0.3,0.4-0.4c0.1-0.1,0.1-0.2,0.2-0.4c0.1-0.1,0.2-0.2,0.3-0.3
					c0.1-0.1,0.2-0.2,0.4-0.2s0.3,0.1,0.5,0.1s0.3-0.2,0.4-0.3c0.3-0.4,0.6-0.7,0.9-1.1c0.2-0.2,0.3-0.5,0.3-0.7
					c0-0.3,0-0.5-0.1-0.8c0-0.3-0.1-0.6-0.3-0.9c-0.1-0.2-0.3-0.3-0.5-0.4C187.2,103.8,186.9,103.8,187,103.6z"/>
				<path class="st0" d="M190,108.8c0,0-0.1,0-0.1,0c-0.1,0-0.1,0-0.1,0.1l-0.3,0.3c-0.1,0.1-0.3,0.2-0.2,0.3s0,0.2,0.1,0.2
					s0.2-0.1,0.2-0.1c0.1,0,0.2-0.1,0.2-0.2c0.1-0.1,0.2-0.2,0.3-0.3c0.4-0.2,0.8-0.3,1.2-0.2c0.1,0,0.3,0.1,0.2-0.1
					s-0.1-0.1-0.2-0.1c-0.2-0.1-0.4-0.1-0.6-0.1c-0.2,0-0.3,0-0.5,0c-0.1,0-0.2,0.1-0.4,0.2l0,0"/>
				<path class="st12" d="M200.3,106.1c0.2-0.2,0.5-0.3,0.8-0.2c0.3,0.1,0.7,0.2,1,0.4c0.2-0.2,0.3-0.4,0.2-0.7
					c-0.1-0.2-0.3-0.3-0.5-0.4c-0.2-0.1-0.3-0.2-0.5-0.3c-0.2-0.1-0.3-0.1-0.5-0.2c-0.1,0-0.3,0.1-0.4,0.2c-0.3,0.2-0.3,0.5-0.3,0.8
					"/>
				<path class="st12" d="M179.9,104.1c-0.2-0.2-0.5-0.4-0.8-0.4c-0.1,0-0.2,0-0.3,0c-0.1,0-0.1,0.1-0.1,0.3c0,0.3,0.2,0.3,0.5,0.3
					c0.1,0,0.2,0,0.4,0.1c0.1,0.1,0.3,0.4,0.4,0.3c0.1-0.1,0.1-0.3,0.1-0.4"/>
				<path class="st9" d="M186.7,114.1c0.1-0.1,0.3-0.1,0.4-0.2c0.2-0.1,0.3-0.1,0.5-0.2l0.4-0.1c0.2-0.1,0.4-0.1,0.6-0.1
					c0.3,0,0.5,0.2,0.8,0.2c0.3,0,0.7,0,1,0c0.2,0,0.4,0,0.6-0.1c0.2,0,0.3,0,0.5-0.1c0.3-0.1,0.7-0.2,1-0.3c0.4,0,0.7,0.1,1.1,0.2
					c0.1,0,0.6,0.1,0.6,0.3s-0.6,0.1-0.6,0.1l-0.2,0.1c-0.2,0.1-0.5,0.1-0.7,0.2s-0.2,0.1-0.4,0.2c-0.2,0.1-0.4,0.1-0.6,0.1
					c-0.4,0.1-0.9,0-1.3,0.1c-0.4,0.1-0.7,0-1.1-0.1c-0.2,0-0.4-0.1-0.6-0.2c-0.2-0.1-0.4-0.3-0.6-0.3c-0.1,0-0.3,0-0.4,0
					c-0.1,0-0.3,0-0.4,0C187.1,114,187.1,113.9,186.7,114.1z"/>
				<path class="st11" d="M195.2,104.5c-0.3,0-0.6,0-0.8,0.2c-0.2,0.2-0.4,0.4-0.5,0.6c-0.4,0.8-0.1,1.8,0.7,2.3
					c0.1,0,0.1,0.1,0.2,0.1c0.2,0.1,0.4,0.2,0.7,0.3c0.2,0.1,0.5,0.1,0.7,0c0.2-0.1,0.3-0.1,0.5-0.2c0.2-0.2,0.4-0.5,0.6-0.7
					c0.1-0.1,0.2-0.2,0.3-0.3c0.1-0.1,0.1-0.3,0.1-0.4c0-0.2-0.1-0.4-0.2-0.5c-0.1-0.2-0.2-0.3-0.3-0.4c-0.1-0.1-0.2-0.1-0.3-0.1
					c-0.1-0.1-0.2-0.1-0.3-0.2c-0.3-0.1-0.6-0.2-0.8-0.3S195.4,104.5,195.2,104.5C195.1,104.4,194.9,104.3,195.2,104.5z"/>
				<path class="st11" d="M185.1,104.4c-0.2,0-0.4,0-0.6,0c-0.3,0.1-0.6,0.2-0.8,0.4c-0.3,0.2-0.5,0.5-0.6,0.9
					c0,0.4,0.1,0.9,0.4,1.2c0.5,0.5,1.2,0.8,1.9,0.7c0.5,0,0.9,0,1.2-0.5c0.1-0.2,0.3-0.4,0.3-0.7c0-0.1,0-0.2,0-0.3
					c0-0.1,0-0.3,0-0.4c-0.1-0.4-0.2-0.7-0.4-1c-0.1-0.2-0.3-0.3-0.6-0.3l-0.5-0.1C185.3,104.3,185.2,104.3,185.1,104.4L185.1,104.4
					z"/>
				<path class="st13" d="M198.8,209.7l0.1-0.2c0.1-0.3,0.2-0.6,0.3-0.9c0.7,0.2,1.1,1.4,1.2,2c0.1,0.9,0.2,1.9,0.4,2.9
					c0.2,1.7,0.2,3.3,0.2,5v1.4c0,0.2,0,0.4,0,0.6c0,0.4,0.2,0.4,0.6,0.5c0.3,0.2,0.8,0.3,1.2,0.2c0.3-0.1,0.6-0.1,0.9,0
					c0.6,0.2,1.2,0.2,1.4-0.6c0.1-0.5,0.1-0.9,0-1.4c-0.1-0.5-0.1-1-0.1-1.5c0-0.6,0.2-1.1,0.2-1.8v-1.6c0.1-0.6,0.1-1.2,0-1.8
					c-0.1-0.7-0.5-1.4-0.7-2.2c0-0.2,0-0.3-0.1-0.5c0-0.1,0-0.2,0-0.3c0-0.1,0-0.2,0-0.2c0.1-0.6,0.1-1.2,0.1-1.8
					c0.2-1.5,0.5-3.1,1.2-4.5c0.1-0.2,0.2-0.4,0.3-0.6C202.6,204.1,199.5,206.3,198.8,209.7z"/>
				<path class="st13" d="M183.2,210.2c-2.4,0.5-3.2,3.6-3.9,5.8c-0.8,2.7-2.4,5-3.5,7.7l0,0c0.3,0.1,0.7,0.2,1,0.2h1.1
					c1.2,0,2.3,0.1,3.5,0.3c0.1-0.2,0-0.4,0-0.6c0.1-0.2,0.2-0.4,0.3-0.6c0.2-0.4,0.3-0.9,0.6-1.3c0.4-0.8,0.6-1.8,1-2.6
					c0.1-0.3,0.3-0.6,0.4-0.9c0.1-0.2,0.2-0.4,0.2-0.6c0.1-0.2,0.1-0.4,0.1-0.6c0.1-0.5,0.4-1,0.5-1.5c0.1-0.4,0.2-0.7,0.2-1.1
					c0-0.2,0-0.4,0-0.6c0-0.2,0.1-0.2,0.2-0.4c0.1-0.6-0.1-1.2-0.4-1.7c-0.2-0.3-0.4-0.6-0.6-0.9c-0.1-0.2-0.1-0.4-0.2-0.6
					C183.4,210.2,183.2,210.2,183.2,210.2L183.2,210.2z"/>
				<path class="st13" d="M180.8,156.4c-0.1-0.2-0.7-0.1-0.9-0.1s-0.3,0.5-0.4,0.7c-0.2,0.8,0.3,1.3,0.3,2c0,0.6,0.1,1.1,0.2,1.6
					c0,0.1,0.1,0.2,0.1,0.2c0,0.1,0,0.3,0,0.4v1.6c0,0.7,0.1,1.4,0.1,2.1c0,0.3-0.1,0.6-0.3,0.8c-0.1,0.3-0.2,0.6-0.2,0.9
					c0,0.2,0,0.4,0.1,0.6c0.1,0.1,0.3,0.3,0.3,0.4s-0.1,0.1-0.1,0.2c0,0.1,0,0.2,0,0.4c0,0.3,0.1,0.5,0.2,0.8
					c0.1,0.2,0.2,0.5,0.3,0.7c0.1,0.1,0.2,0.3,0.2,0.5c0,0.1,0,0.2,0,0.4c0.2-0.2,0.4-0.4,0.6-0.6c0.1-0.2,0.3-0.3,0.4-0.5
					c0.3,0.1,0.1,0.7,0.5,0.7c0-0.3,0.4-0.7,0.5-0.9c0.2-0.3,0.4-0.6,0.4-1c0-0.3-0.1-0.5-0.1-0.8v-0.9c0-0.4-0.1-0.7-0.1-1.1v-0.9
					c0-0.7-0.2-1.4-0.2-2V162c0-0.1,0-0.2-0.1-0.4c0-0.3-0.1-0.5-0.1-0.8c-0.2-0.6-0.2-1.2-0.4-1.7c-0.1-0.2-0.2-0.4-0.4-0.6
					c-0.1-0.1-0.2-0.2-0.3-0.4s-0.1-0.2-0.1-0.3c-0.1-0.3-0.2-0.5-0.3-0.8C180.9,156.8,180.7,156.6,180.8,156.4z"/>
				<path class="st0" d="M184.3,105.6c-0.1,0-0.2-0.1-0.2,0s-0.2,0.2-0.2,0.2s0.1,0.2,0.2,0.3c0.1,0.1,0.3,0.2,0.5,0.2
					c0.1,0,0.1-0.1,0.1-0.1c0-0.1,0-0.1,0-0.2c0-0.1,0-0.1,0-0.2c0-0.1-0.1-0.2-0.2-0.3"/>
				<path class="st0" d="M196.6,106c0,0-0.1,0-0.1,0c0,0-0.1,0-0.1,0.1c0,0,0,0.1,0,0.1c0,0,0,0.1,0,0.1c0,0,0,0.1,0,0.1
					c0,0,0,0,0.1,0.1c0.1,0,0.1,0.1,0.2,0.1c0.1,0,0.1,0,0.1-0.1s0.1-0.3-0.1-0.4l0,0"/>
				<path class="st10" d="M197.1,106.8c-0.2,0.2-0.5,0.2-0.7,0.3c-0.1,0-0.1,0.1-0.1,0.2c0,0.1,0,0.1,0,0.2c0,0.2,0.2,0.2,0.4,0.2
					c0.1,0,0.3-0.1,0.4-0.1c0.1-0.1,0.2-0.2,0.3-0.3c0.1-0.1,0.1-0.3,0.1-0.3C197.4,106.8,197.3,106.7,197.1,106.8"/>
				<path class="st10" d="M184.6,106.9c-0.1,0-0.2-0.2-0.3-0.3c-0.1-0.1-0.2-0.2-0.4-0.2c-0.2-0.1-0.6-0.1-0.5,0.2s0.2,0.3,0.4,0.4
					c0.3,0.1,0.6,0.2,0.9,0.2c0.1,0,0.1,0,0.1-0.2C184.7,106.9,184.7,106.9,184.6,106.9c0-0.1-0.1-0.2-0.2-0.2"/>
				<path class="st12" d="M183,102.1c0.5-0.6,1.6-0.7,2.4-0.8c0.8-0.2,1.6-0.1,2.3,0.2c0.4,0.3,0.6,0.6,0.8,1.1
					c0,0.1,0.1,0.2,0.1,0.2s0.1,0.1,0.1,0.2s-0.1,0.2-0.1,0.3s0,0.3,0,0.4c-0.2,0-0.5-0.3-0.7-0.4c-0.4-0.2-0.8-0.4-1.2-0.5
					c-0.7-0.2-1.3-0.3-2-0.3c-0.3,0-0.6,0-0.9,0s-0.6,0.1-0.6,0S183.1,102.3,183,102.1z"/>
				<path class="st12" d="M197.6,103c0-0.4-0.1-0.8-0.5-1.1c-0.1-0.1-0.1-0.2-0.3-0.3s-0.2,0-0.3,0c-0.2-0.1-0.5-0.1-0.8-0.1
					c-0.6-0.1-1.1-0.1-1.7,0.1c-0.5,0.2-0.7,0.7-0.6,1.2c0.4,0.1,0.8,0,1.1-0.1c0.4,0,0.8,0,1.1,0c0.4,0,0.7,0.1,1.1,0.2
					C197.1,103,197.3,103,197.6,103"/>
				<path class="st12" d="M194.4,106.3c0,0.3,0.4,0.6,0.7,0.7c0.2,0,0.4,0.1,0.6,0.1c0.3,0,0.2,0.2,0,0.2c-0.3,0-0.6-0.1-0.8-0.3
					l-0.2-0.2c-0.1,0-0.1-0.1-0.2-0.1l-0.1-0.2C194.4,106.4,194.4,106.4,194.4,106.3"/>
				<path class="st12" d="M186.5,106.2L186.5,106.2c0,0.1-0.2,0.2-0.2,0.3c-0.1,0.1-0.2,0.2-0.3,0.3c-0.1,0.1-0.2,0.2-0.3,0.2
					c-0.1,0-0.3,0-0.4,0c0,0.2,0.4,0.1,0.4,0.1c0.2,0,0.3,0,0.4-0.1c0.1-0.1,0.2-0.3,0.2-0.4c0-0.1,0.1-0.1,0.1-0.2
					C186.6,106.4,186.6,106.3,186.5,106.2"/>
				<path class="st14" d="M196.7,114.3c-0.2,0-0.4,0.3-0.6,0.3c-0.2,0.1-0.4,0.2-0.6,0.3c-0.7,0.2-1.4,0.3-2.1,0.4
					c-1.3,0.2-2.6,0.3-3.9,0.2c-0.3,0-0.6,0-0.9,0s-0.2-0.1-0.4-0.1c-0.2,0-0.3,0-0.5,0c-0.2,0-0.3-0.1-0.5-0.1c-0.3,0-0.6,0-0.9,0
					c-0.3-0.1-0.6-0.2-0.9-0.4c-0.3-0.1-0.5-0.3-0.7-0.4s-0.6-0.4-0.9-0.5s-0.4-0.2-0.6,0c-0.2,0.2-0.3,0.6-0.1,0.9
					c0.2,0.4,0.4,0.6,0.3,1.1s-0.3,0.7-0.1,1.1s0.5,0.5,1,0.7c0.5,0.2,0.9,0.5,1.3,0.9c0.6,0.4,1.2,0.8,1.8,1.2
					c0.5,0.3,1,0.5,1.6,0.6c0.4,0.2,0.9,0.2,1.3,0.2c0.3-0.1,0.7-0.1,1.1-0.1c0.4,0.1,0.8,0.1,1.2,0.1c0.4-0.1,0.8,0,1.1,0.2
					c0.2-0.2,0.3-0.6,0.4-0.9c0.2-0.4,0.4-0.8,0.6-1.3c0.4-0.7,1-1.2,1.7-1.4c0.4-0.2,0.7-0.4,1.1-0.7c0.3-0.2,0.5-0.4,0.7-0.6
					c0.2-0.1,0.4-0.3,0.6-0.5c0.3-0.4,1.2-1.1,1-1.7c-0.4,0.1-0.8,0.2-1.2,0.4c-0.4,0.2-0.7,0.4-1.1,0.5c-0.7,0.1-1.3,0.2-2,0.3
					C195.7,114.8,195.7,114.8,196.7,114.3z"/>
				<path class="st9" d="M194.8,103.9c0.2,0,0.3,0,0.5-0.1c0.3-0.1,0.6-0.1,0.9-0.1c0.2,0,0.4-0.1,0.6-0.2c0.1,0,0.1-0.1,0.2,0
					c0,0,0.1,0.1,0.1,0.1c0.1,0.1,0.1,0.2,0.1,0.2l0.1,0.1c0.1,0.2,0.4,0.8-0.1,0.6c-0.2-0.1-0.4-0.2-0.6-0.3
					c-0.4-0.1-0.8-0.1-1.2-0.1"/>
				<path class="st9" d="M186.2,103.8c-0.1-0.2-0.3-0.4-0.4-0.5c-0.2-0.1-0.3-0.4-0.5-0.5c-0.4-0.4-1,0.4-1.4,0.5
					c0,0.3,0.6,0.2,0.8,0.2c0.1,0,0.3,0.1,0.4,0.1c0.2,0,0.3,0,0.5,0v0.1"/>
				<path class="st10" d="M188.8,106.5c0-0.2,0.2-0.2,0.3-0.3c0.1-0.1,0.2-0.2,0.3-0.4c0.1-0.1,0.2-0.3,0.3-0.4
					c0.1-0.1,0.1-0.2,0.3-0.3c0.5-0.3,1.3,0,1.7,0.3c0.5,0.3,0.9,0.7,1.3,1.1l1,1.2c0.2,0.2,0.6,1.3,0.1,1.3c-0.3,0-0.8-0.4-1-0.6
					c-0.4-0.2-0.8-0.4-1.3-0.4c-0.5-0.1-1,0-1.5,0.1c-0.1,0.1-0.3,0.2-0.4,0.2c-0.1,0-0.3,0-0.4,0c-0.2,0-0.3,0.2-0.5,0.1
					s-0.1-0.1-0.2-0.2s-0.2-0.2-0.2-0.5v-0.5c0-0.3,0.1-0.6,0.1-0.9C188.7,106.5,188.7,106.5,188.8,106.5L188.8,106.5z"/>
				<path class="st9" d="M186.4,109.9c-0.1,0-0.4,0.1-0.5,0.2s0,0.2,0,0.3s-0.3,0.1-0.4,0.2c0,0.1,0,0.2,0,0.3
					c0,0.1,0.1,0.2,0.1,0.3c0.1,0.1,0.1,0.2,0.2,0.3c0,0.1-0.3,0.3-0.3,0.3c-0.3,0.4,0.2,0.5,0.5,0.6c0.1,0.1,0.2,0.1,0.2,0.2
					c0.1,0,0.3,0,0.4,0c0.3-0.1-0.1-0.6-0.1-0.8c0-0.1,0-0.3,0.1-0.4c0.1-0.2,0.1-0.4,0.1-0.6c0-0.2,0-0.3,0-0.5
					c0-0.1-0.1-0.2-0.1-0.3C186.5,110.1,186.4,110,186.4,109.9C186.3,109.8,186.3,109.9,186.4,109.9z"/>
				<path class="st9" d="M195,110.8c0.1,0.2,0.2,0.3,0.3,0.5s0.1,0.2,0.1,0.3s-0.2,0.2-0.2,0.4s0.5,0.5,0.3,0.7
					c-0.1,0.1-0.2,0.1-0.3,0.1c-0.3,0-0.5,0.1-0.8,0.1c0.3-0.3,0.5-0.6,0.6-1c0.1-0.3,0-0.8,0.1-1.1l0,0l0,0"/>
				<g class="st8">
					<path class="st9" d="M193.2,110.2c0.2-0.1,0.3-0.2,0.5-0.3l0.6-0.2c1-0.3,2-0.6,3.1-0.8s2.1-0.5,3.1-0.7s2.1-0.4,3.1-0.6
						l3.1-0.6c2.1-0.4,4.2-0.7,6.3-1l3.2-0.4c0.5-0.1,1.1-0.2,1.6-0.2c0.5,0,1.1,0,1.6,0c-0.1,0-0.1,0.1-0.2,0.1
						c0.1,0,0.2-0.1,0.2-0.1l0,0c-0.5,0-1.1,0-1.6,0l-1.6,0.2l-3.2,0.4c-2.1,0.3-4.2,0.7-6.3,1l-3.1,0.6c-1,0.2-2.1,0.4-3.1,0.6
						s-2.1,0.5-3.1,0.7s-2.1,0.5-3.1,0.8l-0.6,0.2C193.6,110,193.4,110.1,193.2,110.2L193.2,110.2z"/>
				</g>
				<g class="st8">
					<path class="st9" d="M210.7,108.7l-8.4,0.5c-1.4,0.1-2.8,0.2-4.2,0.3l-2.1,0.2c-0.3,0-0.7,0.1-1,0.2c-0.2,0-0.3,0.1-0.5,0.2
						c-0.2,0.1-0.3,0.1-0.5,0.2l0,0c0.4,0,0.5,0.5,0.8,0.5l1,0.1l1.9,0.2l1.9,0.2c0.6,0.1,1.3,0.2,1.9,0.2s1.3,0.2,1.9,0.3
						s1.3,0.2,1.9,0.3s1.3,0.2,1.9,0.4l1.9,0.5c0.5,0.2,1,0.4,1.5,0.7c-0.5-0.3-1-0.5-1.5-0.7l-1.9-0.5c-0.6-0.2-1.3-0.3-1.9-0.4
						s-1.3-0.2-1.9-0.3s-1.3-0.2-1.9-0.3s-1.3-0.2-1.9-0.2l-1.9-0.2l-1.9-0.2l-1-0.1c-0.4,0-0.4-0.5-0.8-0.5l0,0l0,0
						c0.1-0.1,0.3-0.2,0.5-0.2c0.2-0.1,0.3-0.1,0.5-0.2c0.3-0.1,0.7-0.1,1-0.2l2.1-0.2c1.4-0.1,2.8-0.2,4.2-0.3L210.7,108.7
						L210.7,108.7z"/>
				</g>
				<g class="st8">
					<path class="st9" d="M169.1,108.2c0.6-0.2,1.3-0.3,1.9-0.3l0,0c1.5-0.1,2.9,0,4.4,0.2l2.2,0.3l1.1,0.1l1.1,0.2l2.2,0.4
						c0.7,0.1,1.4,0.2,2.2,0.4c0.4,0.1,0.7,0.2,1.1,0.3l0.5,0.2l0.5,0.2c0.4,0.1,0.7,0.3,1,0.4s0.7,0.3,1,0.5h0.1h-0.1
						c-0.8-0.1-1.5-0.2-2.3-0.2c-0.8,0-1.6,0-2.3,0c-1.6-0.1-3.1-0.2-4.6-0.2s-3.1-0.1-4.6-0.1s-3.1,0-4.6,0.1
						c-1.5,0-2.9,0.1-4.3,0.4c1.4-0.3,2.9-0.5,4.3-0.4l0,0c1.6-0.1,3.1-0.1,4.6-0.1l4.6,0.1c1.5,0,3.1,0.1,4.6,0.2
						c0.8,0,1.5,0,2.3,0c0.8,0,1.5,0.1,2.3,0.2l0,0c-0.3-0.2-0.6-0.3-1-0.5s-0.7-0.3-1-0.4c-0.2-0.1-0.3-0.1-0.5-0.2
						c-0.2-0.1-0.4-0.1-0.5-0.2c-0.4-0.1-0.7-0.2-1.1-0.3c-0.7-0.2-1.4-0.2-2.2-0.4l-2.2-0.3l-1.1-0.2l-1.1-0.1l-2.2-0.3
						c-1.4-0.2-2.9-0.3-4.4-0.2l0,0C170.4,108,169.8,108,169.1,108.2L169.1,108.2z"/>
				</g>
				<g class="st8">
					<path class="st9" d="M187.5,111.3c-2.7,0-5.4-0.1-8.1,0c-1.4,0-2.7,0.1-4.1,0.3l-4,0.5l-4.7,1.2c-1.5,0.5-3,1.1-4.5,1.8
						c-0.5,0.2-1,0.4-1.5,0.8c0.5-0.3,1-0.6,1.5-0.8l0,0c1.5-0.7,3-1.3,4.5-1.8l4.6-1.3l4-0.6c1.3-0.2,2.7-0.3,4.1-0.4
						C182,111.2,184.8,111.3,187.5,111.3L187.5,111.3z"/>
				</g>
				<g class="st8">
					<path class="st9" d="M183.9,102.1c-0.8-0.9-1.6-1.9-2.5-2.8s-1.6-1.9-2.5-2.8c-0.9-0.9-1.8-1.7-2.8-2.5c-1-0.7-2.1-1.4-3.2-2
						c1.1,0.6,2.2,1.2,3.2,2c1,0.7,1.9,1.6,2.8,2.4c0.9,0.9,1.7,1.8,2.5,2.8S183.1,101.2,183.9,102.1L183.9,102.1z"/>
				</g>
				<g class="st8">
					<path class="st9" d="M185.8,102.9c-0.2-1-0.4-1.9-0.6-2.9c0-0.2-0.1-0.5-0.1-0.7s-0.1-0.5-0.1-0.7c-0.1-0.5-0.1-1,0-1.5l0,0
						c0.2-1.3,0.6-2.5,1.1-3.7c-0.5,1.2-0.8,2.4-1.1,3.7l0,0c0,0.5,0,1,0,1.5c0,0.2,0.1,0.5,0.1,0.7s0.1,0.5,0.1,0.7
						C185.3,101,185.6,101.9,185.8,102.9L185.8,102.9z"/>
				</g>
				<g class="st8">
					<path class="st9" d="M195,91.3c0.2,0.2,0.4,0.5,0.6,0.8c0.1,0.3,0.2,0.6,0.3,0.9l0,0c0.3,1,0.4,2,0.2,3l0,0
						c-0.1,1.4-0.3,2.7-0.6,4.1c-0.2,0.7-0.4,1.3-0.6,2c-0.2,0.7-0.4,1.3-0.6,2l0,0c0-0.1,0.1-0.1,0.1-0.1c0,0,0.1,0,0.1-0.1
						l0.2-0.1l0.3-0.1c0.1,0,0.2-0.1,0.2-0.1l0,0c0.3-0.6,0.6-1.2,0.9-1.9c0.9-1.7,2-3.3,3.1-4.8c0.3-0.4,0.6-0.8,0.9-1.1
						s0.6-0.8,0.8-1.2c0.5-0.8,1-1.6,1.4-2.5c-0.4,0.9-0.9,1.7-1.4,2.5c-0.3,0.4-0.5,0.8-0.8,1.2s-0.6,0.8-0.9,1.2
						c-1.1,1.5-2.2,3.2-3.1,4.8c-0.3,0.6-0.6,1.3-0.9,1.9l0,0c-0.1,0.1-0.2,0.1-0.2,0.1l-0.3,0.1l-0.3,0.1c-0.1,0-0.2,0.1-0.2,0.2
						l0,0c0.2-0.7,0.4-1.3,0.6-2s0.4-1.3,0.6-2c0.3-1.3,0.5-2.7,0.6-4.1l0,0c0.2-1,0.1-2-0.2-3l0,0c0-0.3-0.1-0.6-0.3-0.9
						C195.4,91.8,195.2,91.6,195,91.3L195,91.3z"/>
				</g>
			</g>
		</g>
	</g>
</g>
</svg>
