<svg width="263" height="286" viewBox="0 0 263 286" fill="none" xmlns="http://www.w3.org/2000/svg">
<g clip-path="url(#clip0)">
<path opacity="0.5" d="M224.516 41.1614C224.516 32.2358 215.118 25 203.508 25C191.898 25 182.5 32.2358 182.5 41.1614C182.55 44.6356 183.923 47.9598 186.339 50.4558C185.403 52.4548 184.182 54.3073 182.715 55.9555C182.609 56.0752 182.539 56.2219 182.512 56.3793C182.484 56.5366 182.502 56.6984 182.561 56.8466C182.626 56.9881 182.729 57.1082 182.86 57.1926C182.991 57.277 183.143 57.3222 183.298 57.3228C186.458 57.2885 189.551 56.4193 192.267 54.8034C195.78 56.4629 199.623 57.3033 203.508 57.2614C215.118 57.2614 224.516 50.0871 224.516 41.1614Z" fill="#970076"/>
<path opacity="0.5" d="M199.484 54.6961C199.484 45.7704 208.898 38.5347 220.493 38.5347C232.087 38.5347 241.501 45.7704 241.501 54.6961C241.432 58.1664 240.062 61.4842 237.661 63.9904C238.588 66.0097 239.804 67.8831 241.27 69.5517C241.377 69.667 241.448 69.8108 241.475 69.9657C241.502 70.1206 241.483 70.28 241.422 70.4246C241.36 70.5691 241.258 70.6927 241.127 70.7805C240.997 70.8682 240.844 70.9163 240.687 70.9189C237.532 70.8848 234.443 70.0155 231.734 68.3995C228.225 70.0776 224.382 70.939 220.493 70.9189C208.898 70.8575 199.484 63.6217 199.484 54.6961Z" fill="#FF4344"/>
<path d="M224.931 220.903C224.931 211.977 215.532 204.742 203.999 204.742C192.466 204.742 182.991 211.977 182.991 220.903C183.078 224.347 184.448 227.634 186.83 230.121C185.899 232.118 184.683 233.971 183.222 235.62C183.108 235.732 183.033 235.877 183.005 236.034C182.978 236.191 183 236.352 183.068 236.496C183.129 236.642 183.231 236.766 183.362 236.854C183.493 236.941 183.647 236.988 183.805 236.988C186.96 236.956 190.049 236.086 192.758 234.468C196.266 236.15 200.109 237.017 203.999 237.003C215.532 237.003 224.931 229.829 224.931 220.903ZM237.216 243.133C239.626 240.632 240.998 237.311 241.055 233.838C241.055 227.079 235.65 221.287 228.002 218.875C228.09 219.548 228.131 220.225 228.125 220.903C228.125 231.657 217.252 240.291 203.892 240.291C202.825 240.284 201.758 240.223 200.698 240.106C203.876 245.913 211.34 250 220.047 250C223.938 250.023 227.783 249.156 231.288 247.465C233.994 249.091 237.085 249.966 240.241 250C240.4 250.004 240.556 249.959 240.688 249.871C240.82 249.783 240.922 249.656 240.979 249.508C241.045 249.365 241.067 249.205 241.042 249.049C241.017 248.894 240.947 248.749 240.84 248.633C239.379 246.991 238.168 245.143 237.247 243.148L237.216 243.133Z" fill="#FF6262"/>
<path opacity="0.5" d="M227.234 106.836C213.152 100.691 196.152 99.616 182.285 106.16C168.417 112.705 158.804 127.637 161.43 142.047C162.297 146.415 163.968 150.582 166.36 154.337C176.695 171.144 198.471 180.945 218.834 177.996C236.556 175.338 255.23 161.88 260.082 145.058C264.935 128.236 241.055 112.812 227.234 106.836Z" fill="#970076"/>
<path opacity="0.5" d="M233.392 101.721C220.938 95.9137 205.888 94.8537 193.633 101.076C181.379 107.297 172.871 121.538 175.205 135.257C175.95 139.362 177.422 143.3 179.551 146.887C184.206 154.799 191.094 161.159 199.352 165.166C207.609 169.173 216.866 170.649 225.959 169.408C241.623 166.95 258.209 154.138 262.432 138.115C266.655 122.091 245.616 107.42 233.392 101.721Z" fill="#FF4344"/>
<path d="M222.32 131.186C222.32 122.245 212.922 115.024 201.327 115.024C189.733 115.024 180.319 122.245 180.319 131.186C180.406 134.63 181.775 137.917 184.158 140.403C183.224 142.403 182.003 144.256 180.534 145.903C180.427 146.019 180.357 146.164 180.332 146.32C180.308 146.476 180.33 146.636 180.396 146.779C180.453 146.927 180.554 147.054 180.686 147.142C180.818 147.23 180.974 147.275 181.133 147.27C184.28 147.257 187.368 146.415 190.086 144.828C193.595 146.506 197.438 147.367 201.327 147.347C212.922 147.347 222.32 140.111 222.32 131.186ZM234.605 153.4C237 150.921 238.371 147.629 238.445 144.183C238.445 137.438 233.039 131.647 225.376 129.235C225.46 129.882 225.501 130.533 225.499 131.186C225.499 141.94 214.626 150.573 201.266 150.573C200.194 150.566 199.122 150.505 198.056 150.389C201.235 156.196 208.714 160.283 217.421 160.283C221.312 160.304 225.157 159.437 228.662 157.748C231.367 159.378 234.458 160.253 237.615 160.283C237.773 160.28 237.926 160.232 238.056 160.144C238.186 160.056 238.289 159.933 238.35 159.788C238.412 159.644 238.431 159.484 238.404 159.329C238.377 159.174 238.306 159.031 238.199 158.915C236.774 157.257 235.6 155.399 234.713 153.4H234.605Z" fill="white"/>
</g>
<g clip-path="url(#clip1)">
<path d="M59.5902 10.224H58.2602L58.4422 8.90802H59.8842L59.8982 8.19402H58.5402L58.9182 5.45002H58.2182L57.8122 8.19402H56.5942L56.9722 5.45002H56.2442L55.8522 8.19402H54.3122V8.90802H55.7542L55.5722 10.224H53.9762V10.924H55.4602L55.0542 13.892H55.7822L56.1882 10.924H57.4342L57.0142 13.892H57.7282L58.1482 10.924H59.5902V10.224ZM57.7562 8.88002L57.5462 10.252H56.2722L56.4542 8.88002H57.7562ZM65.6102 4.93202H61.5502V10.21C62.1522 9.59402 62.8942 9.25802 63.6222 9.25802C64.8542 9.25802 65.6942 10.056 65.6942 11.246C65.6942 12.394 64.8402 13.262 63.7202 13.262C63.2022 13.262 62.6842 13.08 62.3902 12.786C62.2362 12.646 62.1382 12.478 61.9142 12.072L60.9062 12.45C61.3822 13.682 62.3762 14.368 63.6922 14.368C65.5262 14.368 66.8422 13.066 66.8422 11.274C66.8422 9.52402 65.6102 8.23602 63.9722 8.23602C63.4962 8.23602 63.0762 8.32002 62.6002 8.50202V5.99602H65.6102V4.93202ZM72.0502 9.20202C72.5262 9.03402 72.7222 8.90802 72.9742 8.62802C73.3102 8.23602 73.4922 7.73202 73.4922 7.20002C73.4922 5.87002 72.4282 4.90402 70.9582 4.90402C69.4742 4.90402 68.3822 5.88402 68.3822 7.21402C68.3822 7.73202 68.5502 8.20802 68.8582 8.58602C69.1102 8.89402 69.3202 9.03402 69.8102 9.20202C69.2502 9.38402 69.0122 9.52402 68.7182 9.83202C68.2702 10.294 68.0182 10.966 68.0182 11.708C68.0182 13.304 69.2082 14.438 70.9022 14.438C72.6102 14.438 73.8282 13.262 73.8282 11.61C73.8282 10.882 73.5902 10.266 73.1282 9.80402C72.8342 9.49602 72.5822 9.37002 72.0502 9.20202ZM70.9582 5.88402C71.7562 5.88402 72.4422 6.51402 72.4422 7.24202C72.4422 7.99802 71.7282 8.65602 70.9302 8.65602C70.1042 8.65602 69.4462 8.02602 69.4462 7.22802C69.4462 6.44402 70.0622 5.88402 70.9582 5.88402ZM70.9442 9.79002C71.9102 9.79002 72.7082 10.616 72.7082 11.596C72.7082 12.59 71.9102 13.402 70.9162 13.402C69.9222 13.402 69.1242 12.59 69.1242 11.596C69.1242 10.588 69.9362 9.79002 70.9442 9.79002ZM80.7022 7.74602C80.7022 6.65402 80.5062 6.09402 79.9742 5.60402C79.4562 5.14202 78.7562 4.90402 77.9022 4.90402C76.9502 4.90402 76.1802 5.21202 75.7182 5.77202C75.2982 6.27602 75.1582 6.85002 75.1582 8.06802V11.148C75.1582 12.562 75.2842 13.094 75.7742 13.612C76.2642 14.144 77.0202 14.424 77.9302 14.424C78.8122 14.424 79.5542 14.158 80.0442 13.64C80.5062 13.15 80.7022 12.506 80.7022 11.456V7.74602ZM76.2642 8.09602C76.2642 7.28402 76.3202 6.96202 76.5582 6.62602C76.8242 6.19202 77.3422 5.95402 77.9442 5.95402C78.4062 5.95402 78.8262 6.10802 79.1342 6.38802C79.4842 6.72402 79.6102 7.08802 79.6102 7.81602V11.386C79.6102 12.072 79.5262 12.464 79.3162 12.772C79.0502 13.15 78.5182 13.388 77.9442 13.388C77.4122 13.388 76.9082 13.178 76.6142 12.842C76.3062 12.492 76.2642 12.296 76.2642 11.218V8.09602ZM87.7022 7.74602C87.7022 6.65402 87.5062 6.09402 86.9742 5.60402C86.4562 5.14202 85.7562 4.90402 84.9022 4.90402C83.9502 4.90402 83.1802 5.21202 82.7182 5.77202C82.2982 6.27602 82.1582 6.85002 82.1582 8.06802V11.148C82.1582 12.562 82.2842 13.094 82.7742 13.612C83.2642 14.144 84.0202 14.424 84.9302 14.424C85.8122 14.424 86.5542 14.158 87.0442 13.64C87.5062 13.15 87.7022 12.506 87.7022 11.456V7.74602ZM83.2642 8.09602C83.2642 7.28402 83.3202 6.96202 83.5582 6.62602C83.8242 6.19202 84.3422 5.95402 84.9442 5.95402C85.4062 5.95402 85.8262 6.10802 86.1342 6.38802C86.4842 6.72402 86.6102 7.08802 86.6102 7.81602V11.386C86.6102 12.072 86.5262 12.464 86.3162 12.772C86.0502 13.15 85.5182 13.388 84.9442 13.388C84.4122 13.388 83.9082 13.178 83.6142 12.842C83.3062 12.492 83.2642 12.296 83.2642 11.218V8.09602ZM94.7022 7.74602C94.7022 6.65402 94.5062 6.09402 93.9742 5.60402C93.4562 5.14202 92.7562 4.90402 91.9022 4.90402C90.9502 4.90402 90.1802 5.21202 89.7182 5.77202C89.2982 6.27602 89.1582 6.85002 89.1582 8.06802V11.148C89.1582 12.562 89.2842 13.094 89.7742 13.612C90.2642 14.144 91.0202 14.424 91.9302 14.424C92.8122 14.424 93.5542 14.158 94.0442 13.64C94.5062 13.15 94.7022 12.506 94.7022 11.456V7.74602ZM90.2642 8.09602C90.2642 7.28402 90.3202 6.96202 90.5582 6.62602C90.8242 6.19202 91.3422 5.95402 91.9442 5.95402C92.4062 5.95402 92.8262 6.10802 93.1342 6.38802C93.4842 6.72402 93.6102 7.08802 93.6102 7.81602V11.386C93.6102 12.072 93.5262 12.464 93.3162 12.772C93.0502 13.15 92.5182 13.388 91.9442 13.388C91.4122 13.388 90.9082 13.178 90.6142 12.842C90.3062 12.492 90.2642 12.296 90.2642 11.218V8.09602ZM101.702 7.74602C101.702 6.65402 101.506 6.09402 100.974 5.60402C100.456 5.14202 99.7562 4.90402 98.9022 4.90402C97.9502 4.90402 97.1802 5.21202 96.7182 5.77202C96.2982 6.27602 96.1582 6.85002 96.1582 8.06802V11.148C96.1582 12.562 96.2842 13.094 96.7742 13.612C97.2642 14.144 98.0202 14.424 98.9302 14.424C99.8122 14.424 100.554 14.158 101.044 13.64C101.506 13.15 101.702 12.506 101.702 11.456V7.74602ZM97.2642 8.09602C97.2642 7.28402 97.3202 6.96202 97.5582 6.62602C97.8242 6.19202 98.3422 5.95402 98.9442 5.95402C99.4062 5.95402 99.8262 6.10802 100.134 6.38802C100.484 6.72402 100.61 7.08802 100.61 7.81602V11.386C100.61 12.072 100.526 12.464 100.316 12.772C100.05 13.15 99.5182 13.388 98.9442 13.388C98.4122 13.388 97.9082 13.178 97.6142 12.842C97.3062 12.492 97.2642 12.296 97.2642 11.218V8.09602Z" fill="black"/>
<path d="M59.5902 53.6742H58.2602L58.4422 52.3582H59.8842L59.8982 51.6442H58.5402L58.9182 48.9002H58.2182L57.8122 51.6442H56.5942L56.9722 48.9002H56.2442L55.8522 51.6442H54.3122V52.3582H55.7542L55.5722 53.6742H53.9762V54.3742H55.4602L55.0542 57.3422H55.7822L56.1882 54.3742H57.4342L57.0142 57.3422H57.7282L58.1482 54.3742H59.5902V53.6742ZM57.7562 52.3302L57.5462 53.7022H56.2722L56.4542 52.3302H57.7562ZM62.9782 56.6982L65.4842 53.2122C66.2682 52.1202 66.5482 51.4342 66.5482 50.6502C66.5482 49.2922 65.4842 48.3402 63.9582 48.3402C62.2922 48.3402 61.3542 49.3202 61.2982 51.0982H62.3482C62.3622 50.6082 62.4042 50.3982 62.5162 50.1322C62.7262 49.6422 63.2442 49.3482 63.8742 49.3482C64.7842 49.3482 65.4282 49.9222 65.4282 50.7342C65.4282 51.2942 65.2182 51.7142 64.2802 53.0722L61.0322 57.7202H66.2682V56.6982H62.9782ZM73.7582 55.5642L74.5282 57.7202H75.8442L72.4142 48.3822H71.0142L67.5002 57.7202H68.7182L69.5722 55.5642H73.7582ZM73.3942 54.5562H69.9222L71.6862 49.8662L73.3942 54.5562ZM78.4684 56.6982L80.9744 53.2122C81.7584 52.1202 82.0384 51.4342 82.0384 50.6502C82.0384 49.2922 80.9744 48.3402 79.4484 48.3402C77.7824 48.3402 76.8444 49.3202 76.7884 51.0982H77.8384C77.8524 50.6082 77.8944 50.3982 78.0064 50.1322C78.2164 49.6422 78.7344 49.3482 79.3644 49.3482C80.2744 49.3482 80.9184 49.9222 80.9184 50.7342C80.9184 51.2942 80.7084 51.7142 79.7704 53.0722L76.5224 57.7202H81.7584V56.6982H78.4684ZM84.0824 57.7202H86.3504C87.7084 57.7202 88.7864 57.3702 89.5984 56.6422C90.5504 55.7882 91.0684 54.4862 91.0684 52.9042C91.0684 50.0902 89.3744 48.3822 86.5604 48.3822H84.0824V57.7202ZM85.2584 49.3762H86.5184C88.6604 49.3762 89.8644 50.6642 89.8644 52.9182C89.8644 54.3042 89.4444 55.3402 88.6044 56.0122C87.9324 56.5442 87.2604 56.7122 85.6784 56.7122H85.2584V49.3762ZM96.4441 49.5582L93.1401 57.7202H94.3441L98.0401 48.5222H92.8601V49.5582H96.4441ZM99.8461 57.7202H102.114C103.472 57.7202 104.55 57.3702 105.362 56.6422C106.314 55.7882 106.832 54.4862 106.832 52.9042C106.832 50.0902 105.138 48.3822 102.324 48.3822H99.8461V57.7202ZM101.022 49.3762H102.282C104.424 49.3762 105.628 50.6642 105.628 52.9182C105.628 54.3042 105.208 55.3402 104.368 56.0122C103.696 56.5442 103.024 56.7122 101.442 56.7122H101.022V49.3762Z" fill="black"/>
<path d="M59.5902 97.6444H58.2602L58.4422 96.3284H59.8842L59.8982 95.6144H58.5402L58.9182 92.8704H58.2182L57.8122 95.6144H56.5942L56.9722 92.8704H56.2442L55.8522 95.6144H54.3122V96.3284H55.7542L55.5722 97.6444H53.9762V98.3444H55.4602L55.0542 101.312H55.7822L56.1882 98.3444H57.4342L57.0142 101.312H57.7282L58.1482 98.3444H59.5902V97.6444ZM57.7562 96.3004L57.5462 97.6724H56.2722L56.4542 96.3004H57.7562ZM61.5922 92.3524V101.69H64.2242C65.4002 101.69 66.0022 101.564 66.5482 101.214C67.1782 100.808 67.5562 100.052 67.5562 99.1844C67.5562 98.4284 67.2902 97.7984 66.7862 97.3924C66.4922 97.1684 66.2402 97.0704 65.7222 96.9584C66.2262 96.7624 66.4502 96.6224 66.6742 96.3564C67.0242 95.9644 67.2062 95.4324 67.2062 94.8304C67.2062 93.2484 66.1282 92.3524 64.2242 92.3524H61.5922ZM62.7682 93.3184H63.7342C64.5882 93.3184 64.9802 93.3744 65.3162 93.5424C65.7642 93.7524 66.0582 94.2844 66.0582 94.8864C66.0582 95.4044 65.8482 95.8804 65.4842 96.1744C65.1482 96.4404 64.7002 96.5384 63.9582 96.5384L62.7682 96.5524V93.3184ZM62.7682 97.5044H64.2382C65.7222 97.5044 66.3802 97.9944 66.3802 99.1144C66.3802 99.7304 66.1562 100.178 65.7082 100.43C65.3022 100.668 64.9242 100.738 63.9442 100.738H62.7682V97.5044ZM70.4791 93.3604H74.1191V92.3524H69.3031V101.69H70.4791V97.4904H74.1191V96.4824H70.4791V93.3604ZM79.2859 93.5284L75.9819 101.69H77.1859L80.8819 92.4924H75.7019V93.5284H79.2859ZM83.8639 93.3604H87.5039V92.3524H82.6879V101.69H83.8639V97.4904H87.5039V96.4824H83.8639V93.3604ZM89.0726 92.3524V101.69H91.7046C92.8806 101.69 93.4826 101.564 94.0286 101.214C94.6586 100.808 95.0366 100.052 95.0366 99.1844C95.0366 98.4284 94.7706 97.7984 94.2666 97.3924C93.9726 97.1684 93.7206 97.0704 93.2026 96.9584C93.7066 96.7624 93.9306 96.6224 94.1546 96.3564C94.5046 95.9644 94.6866 95.4324 94.6866 94.8304C94.6866 93.2484 93.6086 92.3524 91.7046 92.3524H89.0726ZM90.2486 93.3184H91.2146C92.0686 93.3184 92.4606 93.3744 92.7966 93.5424C93.2446 93.7524 93.5386 94.2844 93.5386 94.8864C93.5386 95.4044 93.3286 95.8804 92.9646 96.1744C92.6286 96.4404 92.1806 96.5384 91.4386 96.5384L90.2486 96.5524V93.3184ZM90.2486 97.5044H91.7186C93.2026 97.5044 93.8606 97.9944 93.8606 99.1144C93.8606 99.7304 93.6366 100.178 93.1886 100.43C92.7826 100.668 92.4046 100.738 91.4246 100.738H90.2486V97.5044ZM97.4696 101.69H98.7716L101.46 97.2944C101.922 96.5244 102.104 95.9784 102.104 95.2644C102.104 93.5984 100.844 92.3244 99.1636 92.3244C97.4696 92.3244 96.1396 93.6404 96.1396 95.3064C96.1396 96.9024 97.3576 98.1344 98.9256 98.1344C99.2476 98.1344 99.4296 98.0924 99.8216 97.9524L97.4696 101.69ZM99.1636 93.3604C100.186 93.3604 100.998 94.2004 100.998 95.2784C100.998 96.3424 100.186 97.1544 99.1076 97.1544C98.0576 97.1544 97.2456 96.3144 97.2456 95.2644C97.2456 94.2004 98.0996 93.3604 99.1636 93.3604ZM106.43 99.7724L103.924 92.3524H102.692L105.842 101.69H106.99L110.238 92.3524H108.992L106.43 99.7724Z" fill="black"/>
<path d="M59.5902 177.604H58.2602L58.4422 176.288H59.8842L59.8982 175.574H58.5402L58.9182 172.83H58.2182L57.8122 175.574H56.5942L56.9722 172.83H56.2442L55.8522 175.574H54.3122V176.288H55.7542L55.5722 177.604H53.9762V178.304H55.4602L55.0542 181.272H55.7822L56.1882 178.304H57.4342L57.0142 181.272H57.7282L58.1482 178.304H59.5902V177.604ZM57.7562 176.26L57.5462 177.632H56.2722L56.4542 176.26H57.7562ZM62.7682 173.32H66.4082V172.312H61.5922V181.65H62.7682V177.45H66.4082V176.442H62.7682V173.32ZM69.1529 173.32H72.7929V172.312H67.9769V181.65H69.1529V177.45H72.7929V176.442H69.1529V173.32ZM77.4697 173.46L74.7677 176.848L75.2297 177.254C75.6357 177.016 75.9157 176.932 76.3497 176.932C77.5677 176.932 78.4077 177.716 78.4077 178.836C78.4077 179.928 77.5117 180.782 76.3777 180.782C75.5097 180.782 74.8517 180.278 74.5997 179.382L73.5917 179.564C73.9137 180.978 74.9637 181.804 76.4337 181.804C78.2117 181.804 79.5277 180.502 79.5277 178.752C79.5277 177.1 78.3797 175.938 76.7557 175.938L79.4997 172.452H74.2077V173.46H77.4697ZM84.4697 173.46L81.7677 176.848L82.2297 177.254C82.6357 177.016 82.9157 176.932 83.3497 176.932C84.5677 176.932 85.4077 177.716 85.4077 178.836C85.4077 179.928 84.5117 180.782 83.3777 180.782C82.5097 180.782 81.8517 180.278 81.5997 179.382L80.5917 179.564C80.9137 180.978 81.9637 181.804 83.4337 181.804C85.2117 181.804 86.5277 180.502 86.5277 178.752C86.5277 177.1 85.3797 175.938 83.7557 175.938L86.4997 172.452H81.2077V173.46H84.4697ZM92.3797 172.312H88.3197V177.59C88.9217 176.974 89.6637 176.638 90.3917 176.638C91.6237 176.638 92.4637 177.436 92.4637 178.626C92.4637 179.774 91.6097 180.642 90.4897 180.642C89.9717 180.642 89.4537 180.46 89.1597 180.166C89.0057 180.026 88.9077 179.858 88.6837 179.452L87.6757 179.83C88.1517 181.062 89.1457 181.748 90.4617 181.748C92.2957 181.748 93.6117 180.446 93.6117 178.654C93.6117 176.904 92.3797 175.616 90.7417 175.616C90.2657 175.616 89.8457 175.7 89.3697 175.882V173.376H92.3797V172.312ZM97.8117 174.006V181.65H98.9177V172.242L95.7537 174.314V175.378L97.8117 174.006Z" fill="black"/>
<path d="M71.5601 197.004H70.2301L70.4121 195.688H71.8541L71.8681 194.974H70.5101L70.8881 192.23H70.1881L69.7821 194.974H68.5641L68.9421 192.23H68.2141L67.8221 194.974H66.2821V195.688H67.7241L67.5421 197.004H65.9461V197.704H67.4301L67.0241 200.672H67.7521L68.1581 197.704H69.4041L68.9841 200.672H69.6981L70.1181 197.704H71.5601V197.004ZM69.7261 195.66L69.5161 197.032H68.2421L68.4241 195.66H69.7261ZM74.7381 192.72H78.3781V191.712H73.5621V201.05H74.7381V196.85H78.3781V195.842H74.7381V192.72ZM81.1229 192.72H84.7629V191.712H79.9469V201.05H81.1229V196.85H84.7629V195.842H81.1229V192.72ZM90.3777 191.852H89.0757L86.4017 196.15C85.8697 197.004 85.6877 197.522 85.6877 198.208C85.6877 199.902 86.9757 201.218 88.6417 201.218C90.2937 201.218 91.6517 199.86 91.6517 198.208C91.6517 196.626 90.4477 195.408 88.8937 195.408C88.5577 195.408 88.3757 195.45 87.9837 195.59L90.3777 191.852ZM88.6977 196.36C89.7337 196.36 90.5597 197.2 90.5597 198.25C90.5597 199.314 89.7197 200.168 88.6697 200.168C87.6197 200.168 86.7937 199.3 86.7937 198.208C86.7937 197.172 87.6337 196.36 88.6977 196.36ZM94.7177 200.028L97.2237 196.542C98.0077 195.45 98.2877 194.764 98.2877 193.98C98.2877 192.622 97.2237 191.67 95.6977 191.67C94.0317 191.67 93.0937 192.65 93.0377 194.428H94.0877C94.1017 193.938 94.1437 193.728 94.2557 193.462C94.4657 192.972 94.9837 192.678 95.6137 192.678C96.5237 192.678 97.1677 193.252 97.1677 194.064C97.1677 194.624 96.9577 195.044 96.0197 196.402L92.7717 201.05H98.0077V200.028H94.7177ZM104.378 191.852H103.076L100.402 196.15C99.8697 197.004 99.6877 197.522 99.6877 198.208C99.6877 199.902 100.976 201.218 102.642 201.218C104.294 201.218 105.652 199.86 105.652 198.208C105.652 196.626 104.448 195.408 102.894 195.408C102.558 195.408 102.376 195.45 101.984 195.59L104.378 191.852ZM102.698 196.36C103.734 196.36 104.56 197.2 104.56 198.25C104.56 199.314 103.72 200.168 102.67 200.168C101.62 200.168 100.794 199.3 100.794 198.208C100.794 197.172 101.634 196.36 102.698 196.36ZM108.718 200.028L111.224 196.542C112.008 195.45 112.288 194.764 112.288 193.98C112.288 192.622 111.224 191.67 109.698 191.67C108.032 191.67 107.094 192.65 107.038 194.428H108.088C108.102 193.938 108.144 193.728 108.256 193.462C108.466 192.972 108.984 192.678 109.614 192.678C110.524 192.678 111.168 193.252 111.168 194.064C111.168 194.624 110.958 195.044 110.02 196.402L106.772 201.05H112.008V200.028H108.718Z" fill="black"/>
<path d="M59.5902 256.514H58.2602L58.4422 255.198H59.8842L59.8982 254.484H58.5402L58.9182 251.74H58.2182L57.8122 254.484H56.5942L56.9722 251.74H56.2442L55.8522 254.484H54.3122V255.198H55.7542L55.5722 256.514H53.9762V257.214H55.4602L55.0542 260.182H55.7822L56.1882 257.214H57.4342L57.0142 260.182H57.7282L58.1482 257.214H59.5902V256.514ZM57.7562 255.17L57.5462 256.542H56.2722L56.4542 255.17H57.7562ZM62.7682 252.23H66.4082V251.222H61.5922V260.56H62.7682V256.36H66.4082V255.352H62.7682V252.23ZM69.1529 252.23H72.7929V251.222H67.9769V260.56H69.1529V256.36H72.7929V255.352H69.1529V252.23ZM77.4837 258.46V260.56H78.5617V258.46H79.6537V257.452H78.5617V251.096L73.7457 257.592V258.46H77.4837ZM77.4837 257.452H74.8657L77.4837 253.882V257.452ZM84.4697 252.37L81.7677 255.758L82.2297 256.164C82.6357 255.926 82.9157 255.842 83.3497 255.842C84.5677 255.842 85.4077 256.626 85.4077 257.746C85.4077 258.838 84.5117 259.692 83.3777 259.692C82.5097 259.692 81.8517 259.188 81.5997 258.292L80.5917 258.474C80.9137 259.888 81.9637 260.714 83.4337 260.714C85.2117 260.714 86.5277 259.412 86.5277 257.662C86.5277 256.01 85.3797 254.848 83.7557 254.848L86.4997 251.362H81.2077V252.37H84.4697ZM91.4837 258.46V260.56H92.5617V258.46H93.6537V257.452H92.5617V251.096L87.7457 257.592V258.46H91.4837ZM91.4837 257.452H88.8657L91.4837 253.882V257.452ZM98.4837 258.46V260.56H99.5617V258.46H100.654V257.452H99.5617V251.096L94.7457 257.592V258.46H98.4837ZM98.4837 257.452H95.8657L98.4837 253.882V257.452Z" fill="black"/>
<path d="M1.65006 53.5001C-0.349935 57.8001 -0.679935 62.9901 1.43006 67.2201C3.54006 71.4501 8.43007 74.3901 13.0501 73.5901C14.4455 73.3293 15.7832 72.8213 17.0001 72.0901C19.6981 70.4607 21.8607 68.0779 23.2217 65.2351C24.5827 62.3922 25.0827 59.2134 24.6601 56.0901C23.8301 50.6501 19.4701 45.0001 14.0001 43.4701C8.53007 41.9401 3.59007 49.2801 1.65006 53.5001Z" fill="#2A2D7D"/>
<path d="M1.65006 10.2302C-0.349935 14.5302 -0.679935 19.7202 1.43006 23.9502C3.54006 28.1802 8.43007 31.1202 13.0501 30.3202C14.4455 30.0594 15.7832 29.5515 17.0001 28.8202C19.6981 27.1909 21.8607 24.8081 23.2217 21.9652C24.5827 19.1224 25.0827 15.9436 24.6601 12.8202C23.8301 7.38022 19.4701 1.68022 14.0001 0.200224C8.53007 -1.27978 3.59007 6.00022 1.65006 10.2302Z" fill="#580000"/>
<path d="M1.65006 180.29C-0.349935 184.59 -0.679935 189.79 1.43006 194.02C3.54006 198.25 8.43007 201.19 13.0501 200.38C14.4455 200.12 15.7832 199.612 17.0001 198.88C19.699 197.252 21.8624 194.869 23.2235 192.026C24.5846 189.183 25.084 186.004 24.6601 182.88C23.8301 177.47 19.4701 171.77 14.0301 170.28C8.59007 168.79 3.59007 176.07 1.65006 180.29Z" fill="#FF3351"/>
<path d="M13.82 195.52C11.82 199.82 11.49 205.01 13.6 209.25C15.71 213.49 20.6 216.42 25.22 215.61C26.632 215.353 27.9866 214.845 29.22 214.11C31.9171 212.481 34.0784 210.097 35.4377 207.254C36.797 204.411 37.2949 201.233 36.87 198.11C36 192.67 31.64 187 26.2 185.49C20.76 183.98 15.76 191.3 13.82 195.52Z" fill="#FF6262"/>
<path opacity="0.5" d="M1.65006 250.42C-0.349935 254.72 -0.679935 259.91 1.43006 264.15C3.54006 268.39 8.43007 271.32 13.0501 270.51C14.4462 270.247 15.7839 269.735 17.0001 269C19.699 267.372 21.8624 264.989 23.2235 262.146C24.5846 259.303 25.084 256.124 24.6601 253C23.8301 247.59 19.4701 241.88 14.0301 240.4C8.59007 238.92 3.59007 246.2 1.65006 250.42Z" fill="#FF4344"/>
<path d="M13.82 265.64C11.82 269.95 11.49 275.14 13.6 279.37C15.71 283.6 20.6 286.54 25.22 285.74C26.632 285.482 27.9866 284.974 29.22 284.24C31.9171 282.61 34.0784 280.227 35.4377 277.384C36.797 274.541 37.2949 271.363 36.87 268.24C36 262.8 31.64 257.1 26.2 255.62C20.76 254.14 15.76 261.42 13.82 265.64Z" fill="#FFD1D1"/>
<path d="M1.65006 96.77C-0.349935 101.07 -0.679935 106.26 1.43006 110.49C3.54006 114.72 8.43007 117.66 13.0501 116.86C14.4455 116.599 15.7832 116.091 17.0001 115.36C19.6981 113.731 21.8607 111.348 23.2217 108.505C24.5827 105.662 25.0827 102.483 24.6601 99.36C23.8301 93.92 19.4701 88.22 14.0001 86.74C8.53007 85.26 3.59007 92.55 1.65006 96.77Z" fill="#BF7FB9"/>
</g>
<defs>
<clipPath id="clip0">
<rect width="102" height="225" fill="white" transform="translate(161 25)"/>
</clipPath>
<clipPath id="clip1">
<rect width="185" height="285.87" fill="white"/>
</clipPath>
</defs>
</svg>
