<?xml version="1.0" encoding="utf-8"?>
<!-- Generator: Adobe Illustrator 23.1.1, SVG Export Plug-In . SVG Version: 6.00 Build 0)  -->
<svg version="1.1" id="Layer_1" xmlns="http://www.w3.org/2000/svg" xmlns:xlink="http://www.w3.org/1999/xlink" x="0px" y="0px"
	 viewBox="0 0 263 286" style="enable-background:new 0 0 263 286;" xml:space="preserve">
<style type="text/css">
	.st0{clip-path:url(#SVGID_2_);}
	.st1{opacity:0.5;fill:#970076;enable-background:new    ;}
	.st2{opacity:0.5;fill:#FF4344;enable-background:new    ;}
	.st3{fill:#FF6262;}
	.st4{fill:#FFFFFF;}
	.st5{clip-path:url(#SVGID_4_);}
	.st6{clip-path:url(#SVGID_4_);fill:#2A2D7D;}
	.st7{clip-path:url(#SVGID_4_);fill:#580000;}
	.st8{clip-path:url(#SVGID_4_);fill:#FF3351;}
	.st9{clip-path:url(#SVGID_4_);fill:#FF6262;}
	.st10{opacity:0.5;clip-path:url(#SVGID_4_);fill:#FF4344;enable-background:new    ;}
	.st11{clip-path:url(#SVGID_4_);fill:#FFD1D1;}
	.st12{clip-path:url(#SVGID_4_);fill:#BF7FB9;}
</style>
<g>
	<defs>
		<rect id="SVGID_1_" x="161" y="25" width="102" height="225"/>
	</defs>
	<clipPath id="SVGID_2_">
		<use xlink:href="#SVGID_1_"  style="overflow:visible;"/>
	</clipPath>
	<g class="st0">
		<path class="st1" d="M224.5,41.2c0-8.9-9.4-16.2-21-16.2s-21,7.2-21,16.2c0.1,3.5,1.4,6.8,3.8,9.3c-0.9,2-2.2,3.9-3.6,5.5
			c-0.1,0.1-0.2,0.3-0.2,0.4c0,0.2,0,0.3,0,0.5c0.1,0.1,0.2,0.3,0.3,0.3s0.3,0.1,0.4,0.1c3.2,0,6.3-0.9,9-2.5
			c3.5,1.7,7.4,2.5,11.2,2.5C215.1,57.3,224.5,50.1,224.5,41.2z"/>
		<path class="st2" d="M199.5,54.7c0-8.9,9.4-16.2,21-16.2c11.6,0,21,7.2,21,16.2c-0.1,3.5-1.4,6.8-3.8,9.3c0.9,2,2.1,3.9,3.6,5.6
			c0.1,0.1,0.2,0.3,0.2,0.4c0,0.2,0,0.3-0.1,0.5c-0.1,0.1-0.2,0.3-0.3,0.4c-0.1,0.1-0.3,0.1-0.4,0.1c-3.2,0-6.2-0.9-9-2.5
			c-3.5,1.7-7.4,2.5-11.2,2.5C208.9,70.9,199.5,63.6,199.5,54.7z"/>
		<path class="st3" d="M224.9,220.9c0-8.9-9.4-16.2-20.9-16.2c-11.5,0-21,7.2-21,16.2c0.1,3.4,1.5,6.7,3.8,9.2
			c-0.9,2-2.1,3.8-3.6,5.5c-0.1,0.1-0.2,0.3-0.2,0.4c0,0.2,0,0.3,0.1,0.5c0.1,0.1,0.2,0.3,0.3,0.4c0.1,0.1,0.3,0.1,0.4,0.1
			c3.2,0,6.2-0.9,9-2.5c3.5,1.7,7.4,2.5,11.2,2.5C215.5,237,224.9,229.8,224.9,220.9z M237.2,243.1c2.4-2.5,3.8-5.8,3.8-9.3
			c0-6.8-5.4-12.6-13.1-15c0.1,0.7,0.1,1.4,0.1,2c0,10.8-10.9,19.4-24.2,19.4c-1.1,0-2.1-0.1-3.2-0.2c3.2,5.8,10.6,9.9,19.3,9.9
			c3.9,0,7.7-0.8,11.2-2.5c2.7,1.6,5.8,2.5,9,2.5c0.2,0,0.3,0,0.4-0.1s0.2-0.2,0.3-0.4c0.1-0.1,0.1-0.3,0.1-0.5
			c0-0.2-0.1-0.3-0.2-0.4C239.4,247,238.2,245.1,237.2,243.1L237.2,243.1z"/>
		<path class="st1" d="M227.2,106.8c-14.1-6.1-31.1-7.2-44.9-0.7c-13.9,6.5-23.5,21.5-20.9,35.9c0.9,4.4,2.5,8.5,4.9,12.3
			c10.3,16.8,32.1,26.6,52.5,23.7c17.7-2.7,36.4-16.1,41.2-32.9C264.9,128.2,241.1,112.8,227.2,106.8z"/>
		<path class="st2" d="M233.4,101.7c-12.5-5.8-27.5-6.9-39.8-0.6c-12.3,6.2-20.8,20.5-18.4,34.2c0.7,4.1,2.2,8,4.3,11.6
			c4.7,7.9,11.5,14.3,19.8,18.3c8.3,4,17.5,5.5,26.6,4.2c15.7-2.5,32.3-15.3,36.5-31.3C266.7,122.1,245.6,107.4,233.4,101.7z"/>
		<path class="st4" d="M222.3,131.2c0-8.9-9.4-16.2-21-16.2c-11.6,0-21,7.2-21,16.2c0.1,3.4,1.5,6.7,3.8,9.2c-0.9,2-2.2,3.9-3.6,5.5
			c-0.1,0.1-0.2,0.3-0.2,0.4c0,0.2,0,0.3,0.1,0.5c0.1,0.1,0.2,0.3,0.3,0.4c0.1,0.1,0.3,0.1,0.4,0.1c3.1,0,6.2-0.9,9-2.4
			c3.5,1.7,7.4,2.5,11.2,2.5C212.9,147.3,222.3,140.1,222.3,131.2z M234.6,153.4c2.4-2.5,3.8-5.8,3.8-9.2c0-6.7-5.4-12.5-13.1-14.9
			c0.1,0.6,0.1,1.3,0.1,2c0,10.8-10.9,19.4-24.2,19.4c-1.1,0-2.1-0.1-3.2-0.2c3.2,5.8,10.7,9.9,19.4,9.9c3.9,0,7.7-0.8,11.2-2.5
			c2.7,1.6,5.8,2.5,9,2.5c0.2,0,0.3-0.1,0.4-0.1s0.2-0.2,0.3-0.4c0.1-0.1,0.1-0.3,0.1-0.5c0-0.2-0.1-0.3-0.2-0.4
			c-1.4-1.7-2.6-3.5-3.5-5.5H234.6z"/>
	</g>
</g>
<g>
	<defs>
		<rect id="SVGID_3_" width="185" height="285.9"/>
	</defs>
	<clipPath id="SVGID_4_">
		<use xlink:href="#SVGID_3_"  style="overflow:visible;"/>
	</clipPath>
	<path class="st5" d="M79.6,10.2h-1.3l0.2-1.3h1.4l0-0.7h-1.4l0.4-2.7h-0.7l-0.4,2.7h-1.2L77,5.5h-0.7l-0.4,2.7h-1.5v0.7h1.4
		l-0.2,1.3H74v0.7h1.5l-0.4,3h0.7l0.4-3h1.2l-0.4,3h0.7l0.4-3h1.4V10.2z M77.8,8.9l-0.2,1.4h-1.3l0.2-1.4H77.8z M85.6,4.9h-4.1v5.3
		c0.6-0.6,1.3-1,2.1-1c1.2,0,2.1,0.8,2.1,2c0,1.1-0.9,2-2,2c-0.5,0-1-0.2-1.3-0.5c-0.2-0.1-0.3-0.3-0.5-0.7l-1,0.4
		c0.5,1.2,1.5,1.9,2.8,1.9c1.8,0,3.2-1.3,3.2-3.1c0-1.7-1.2-3-2.9-3c-0.5,0-0.9,0.1-1.4,0.3V6h3V4.9z M92.1,9.2
		C92.5,9,92.7,8.9,93,8.6c0.3-0.4,0.5-0.9,0.5-1.4c0-1.3-1.1-2.3-2.5-2.3c-1.5,0-2.6,1-2.6,2.3c0,0.5,0.2,1,0.5,1.4
		c0.3,0.3,0.5,0.4,1,0.6c-0.6,0.2-0.8,0.3-1.1,0.6C88.3,10.3,88,11,88,11.7c0,1.6,1.2,2.7,2.9,2.7c1.7,0,2.9-1.2,2.9-2.8
		c0-0.7-0.2-1.3-0.7-1.8C92.8,9.5,92.6,9.4,92.1,9.2z M91,5.9c0.8,0,1.5,0.6,1.5,1.4c0,0.8-0.7,1.4-1.5,1.4c-0.8,0-1.5-0.6-1.5-1.4
		C89.4,6.4,90.1,5.9,91,5.9z M90.9,9.8c1,0,1.8,0.8,1.8,1.8c0,1-0.8,1.8-1.8,1.8c-1,0-1.8-0.8-1.8-1.8C89.1,10.6,89.9,9.8,90.9,9.8z
		 M100.7,7.7c0-1.1-0.2-1.7-0.7-2.1c-0.5-0.5-1.2-0.7-2.1-0.7c-1,0-1.7,0.3-2.2,0.9c-0.4,0.5-0.6,1.1-0.6,2.3v3.1
		c0,1.4,0.1,1.9,0.6,2.5c0.5,0.5,1.2,0.8,2.2,0.8c0.9,0,1.6-0.3,2.1-0.8c0.5-0.5,0.7-1.1,0.7-2.2V7.7z M96.3,8.1
		c0-0.8,0.1-1.1,0.3-1.5C96.8,6.2,97.3,6,97.9,6c0.5,0,0.9,0.2,1.2,0.4c0.3,0.3,0.5,0.7,0.5,1.4v3.6c0,0.7-0.1,1.1-0.3,1.4
		c-0.3,0.4-0.8,0.6-1.4,0.6c-0.5,0-1-0.2-1.3-0.5c-0.3-0.4-0.3-0.5-0.3-1.6V8.1z M107.7,7.7c0-1.1-0.2-1.7-0.7-2.1
		c-0.5-0.5-1.2-0.7-2.1-0.7c-1,0-1.7,0.3-2.2,0.9c-0.4,0.5-0.6,1.1-0.6,2.3v3.1c0,1.4,0.1,1.9,0.6,2.5c0.5,0.5,1.2,0.8,2.2,0.8
		c0.9,0,1.6-0.3,2.1-0.8c0.5-0.5,0.7-1.1,0.7-2.2V7.7z M103.3,8.1c0-0.8,0.1-1.1,0.3-1.5c0.3-0.4,0.8-0.7,1.4-0.7
		c0.5,0,0.9,0.2,1.2,0.4c0.3,0.3,0.5,0.7,0.5,1.4v3.6c0,0.7-0.1,1.1-0.3,1.4c-0.3,0.4-0.8,0.6-1.4,0.6c-0.5,0-1-0.2-1.3-0.5
		c-0.3-0.4-0.3-0.5-0.3-1.6V8.1z M114.7,7.7c0-1.1-0.2-1.7-0.7-2.1c-0.5-0.5-1.2-0.7-2.1-0.7c-1,0-1.7,0.3-2.2,0.9
		c-0.4,0.5-0.6,1.1-0.6,2.3v3.1c0,1.4,0.1,1.9,0.6,2.5c0.5,0.5,1.2,0.8,2.2,0.8c0.9,0,1.6-0.3,2.1-0.8c0.5-0.5,0.7-1.1,0.7-2.2V7.7z
		 M110.3,8.1c0-0.8,0.1-1.1,0.3-1.5c0.3-0.4,0.8-0.7,1.4-0.7c0.5,0,0.9,0.2,1.2,0.4c0.3,0.3,0.5,0.7,0.5,1.4v3.6
		c0,0.7-0.1,1.1-0.3,1.4c-0.3,0.4-0.8,0.6-1.4,0.6c-0.5,0-1-0.2-1.3-0.5c-0.3-0.4-0.3-0.5-0.3-1.6V8.1z M121.7,7.7
		c0-1.1-0.2-1.7-0.7-2.1c-0.5-0.5-1.2-0.7-2.1-0.7c-1,0-1.7,0.3-2.2,0.9c-0.4,0.5-0.6,1.1-0.6,2.3v3.1c0,1.4,0.1,1.9,0.6,2.5
		c0.5,0.5,1.2,0.8,2.2,0.8c0.9,0,1.6-0.3,2.1-0.8c0.5-0.5,0.7-1.1,0.7-2.2V7.7z M117.3,8.1c0-0.8,0.1-1.1,0.3-1.5
		c0.3-0.4,0.8-0.7,1.4-0.7c0.5,0,0.9,0.2,1.2,0.4c0.3,0.3,0.5,0.7,0.5,1.4v3.6c0,0.7-0.1,1.1-0.3,1.4c-0.3,0.4-0.8,0.6-1.4,0.6
		c-0.5,0-1-0.2-1.3-0.5c-0.3-0.4-0.3-0.5-0.3-1.6V8.1z"/>
	<path class="st5" d="M79.6,53.7h-1.3l0.2-1.3h1.4l0-0.7h-1.4l0.4-2.7h-0.7l-0.4,2.7h-1.2l0.4-2.7h-0.7l-0.4,2.7h-1.5v0.7h1.4
		l-0.2,1.3H74v0.7h1.5l-0.4,3h0.7l0.4-3h1.2l-0.4,3h0.7l0.4-3h1.4V53.7z M77.8,52.3l-0.2,1.4h-1.3l0.2-1.4H77.8z M83,56.7l2.5-3.5
		c0.8-1.1,1.1-1.8,1.1-2.6c0-1.4-1.1-2.3-2.6-2.3c-1.7,0-2.6,1-2.7,2.8h1.1c0-0.5,0.1-0.7,0.2-1c0.2-0.5,0.7-0.8,1.4-0.8
		c0.9,0,1.6,0.6,1.6,1.4c0,0.6-0.2,1-1.1,2.3L81,57.7h5.2v-1H83z M93.8,55.6l0.8,2.2h1.3l-3.4-9.3H91l-3.5,9.3h1.2l0.9-2.2H93.8z
		 M93.4,54.6h-3.5l1.8-4.7L93.4,54.6z M98.5,56.7l2.5-3.5c0.8-1.1,1.1-1.8,1.1-2.6c0-1.4-1.1-2.3-2.6-2.3c-1.7,0-2.6,1-2.7,2.8h1.1
		c0-0.5,0.1-0.7,0.2-1c0.2-0.5,0.7-0.8,1.4-0.8c0.9,0,1.6,0.6,1.6,1.4c0,0.6-0.2,1-1.1,2.3l-3.2,4.6h5.2v-1H98.5z M104.1,57.7h2.3
		c1.4,0,2.4-0.3,3.2-1.1c1-0.9,1.5-2.2,1.5-3.7c0-2.8-1.7-4.5-4.5-4.5h-2.5V57.7z M105.3,49.4h1.3c2.1,0,3.3,1.3,3.3,3.5
		c0,1.4-0.4,2.4-1.3,3.1c-0.7,0.5-1.3,0.7-2.9,0.7h-0.4V49.4z M116.4,49.6l-3.3,8.2h1.2l3.7-9.2h-5.2v1H116.4z M119.8,57.7h2.3
		c1.4,0,2.4-0.3,3.2-1.1c1-0.9,1.5-2.2,1.5-3.7c0-2.8-1.7-4.5-4.5-4.5h-2.5V57.7z M121,49.4h1.3c2.1,0,3.3,1.3,3.3,3.5
		c0,1.4-0.4,2.4-1.3,3.1c-0.7,0.5-1.3,0.7-2.9,0.7H121V49.4z"/>
	<path class="st5" d="M79.6,97.6h-1.3l0.2-1.3h1.4l0-0.7h-1.4l0.4-2.7h-0.7l-0.4,2.7h-1.2l0.4-2.7h-0.7l-0.4,2.7h-1.5v0.7h1.4
		l-0.2,1.3H74v0.7h1.5l-0.4,3h0.7l0.4-3h1.2l-0.4,3h0.7l0.4-3h1.4V97.6z M77.8,96.3l-0.2,1.4h-1.3l0.2-1.4H77.8z M81.6,92.4v9.3h2.6
		c1.2,0,1.8-0.1,2.3-0.5c0.6-0.4,1-1.2,1-2c0-0.8-0.3-1.4-0.8-1.8c-0.3-0.2-0.5-0.3-1.1-0.4c0.5-0.2,0.7-0.3,1-0.6
		c0.3-0.4,0.5-0.9,0.5-1.5c0-1.6-1.1-2.5-3-2.5H81.6z M82.8,93.3h1c0.9,0,1.2,0.1,1.6,0.2c0.4,0.2,0.7,0.7,0.7,1.3
		c0,0.5-0.2,1-0.6,1.3c-0.3,0.3-0.8,0.4-1.5,0.4l-1.2,0V93.3z M82.8,97.5h1.5c1.5,0,2.1,0.5,2.1,1.6c0,0.6-0.2,1.1-0.7,1.3
		c-0.4,0.2-0.8,0.3-1.8,0.3h-1.2V97.5z M90.5,93.4h3.6v-1h-4.8v9.3h1.2v-4.2h3.6v-1h-3.6V93.4z M99.3,93.5l-3.3,8.2h1.2l3.7-9.2
		h-5.2v1H99.3z M103.9,93.4h3.6v-1h-4.8v9.3h1.2v-4.2h3.6v-1h-3.6V93.4z M109.1,92.4v9.3h2.6c1.2,0,1.8-0.1,2.3-0.5
		c0.6-0.4,1-1.2,1-2c0-0.8-0.3-1.4-0.8-1.8c-0.3-0.2-0.5-0.3-1.1-0.4c0.5-0.2,0.7-0.3,1-0.6c0.3-0.4,0.5-0.9,0.5-1.5
		c0-1.6-1.1-2.5-3-2.5H109.1z M110.2,93.3h1c0.9,0,1.2,0.1,1.6,0.2c0.4,0.2,0.7,0.7,0.7,1.3c0,0.5-0.2,1-0.6,1.3
		c-0.3,0.3-0.8,0.4-1.5,0.4l-1.2,0V93.3z M110.2,97.5h1.5c1.5,0,2.1,0.5,2.1,1.6c0,0.6-0.2,1.1-0.7,1.3c-0.4,0.2-0.8,0.3-1.8,0.3
		h-1.2V97.5z M117.5,101.7h1.3l2.7-4.4c0.5-0.8,0.6-1.3,0.6-2c0-1.7-1.3-2.9-2.9-2.9c-1.7,0-3,1.3-3,3c0,1.6,1.2,2.8,2.8,2.8
		c0.3,0,0.5,0,0.9-0.2L117.5,101.7z M119.2,93.4c1,0,1.8,0.8,1.8,1.9c0,1.1-0.8,1.9-1.9,1.9c-1,0-1.9-0.8-1.9-1.9
		C117.2,94.2,118.1,93.4,119.2,93.4z M126.4,99.8l-2.5-7.4h-1.2l3.2,9.3h1.1l3.2-9.3H129L126.4,99.8z"/>
	<path class="st5" d="M79.6,177.6h-1.3l0.2-1.3h1.4l0-0.7h-1.4l0.4-2.7h-0.7l-0.4,2.7h-1.2l0.4-2.7h-0.7l-0.4,2.7h-1.5v0.7h1.4
		l-0.2,1.3H74v0.7h1.5l-0.4,3h0.7l0.4-3h1.2l-0.4,3h0.7l0.4-3h1.4V177.6z M77.8,176.3l-0.2,1.4h-1.3l0.2-1.4H77.8z M82.8,173.3h3.6
		v-1h-4.8v9.3h1.2v-4.2h3.6v-1h-3.6V173.3z M89.2,173.3h3.6v-1H88v9.3h1.2v-4.2h3.6v-1h-3.6V173.3z M97.5,173.5l-2.7,3.4l0.5,0.4
		c0.4-0.2,0.7-0.3,1.1-0.3c1.2,0,2.1,0.8,2.1,1.9c0,1.1-0.9,1.9-2,1.9c-0.9,0-1.5-0.5-1.8-1.4l-1,0.2c0.3,1.4,1.4,2.2,2.8,2.2
		c1.8,0,3.1-1.3,3.1-3.1c0-1.7-1.1-2.8-2.8-2.8l2.7-3.5h-5.3v1H97.5z M104.5,173.5l-2.7,3.4l0.5,0.4c0.4-0.2,0.7-0.3,1.1-0.3
		c1.2,0,2.1,0.8,2.1,1.9c0,1.1-0.9,1.9-2,1.9c-0.9,0-1.5-0.5-1.8-1.4l-1,0.2c0.3,1.4,1.4,2.2,2.8,2.2c1.8,0,3.1-1.3,3.1-3.1
		c0-1.7-1.1-2.8-2.8-2.8l2.7-3.5h-5.3v1H104.5z M112.4,172.3h-4.1v5.3c0.6-0.6,1.3-1,2.1-1c1.2,0,2.1,0.8,2.1,2c0,1.1-0.9,2-2,2
		c-0.5,0-1-0.2-1.3-0.5c-0.2-0.1-0.3-0.3-0.5-0.7l-1,0.4c0.5,1.2,1.5,1.9,2.8,1.9c1.8,0,3.2-1.3,3.2-3.1c0-1.8-1.2-3-2.9-3
		c-0.5,0-0.9,0.1-1.4,0.3v-2.5h3V172.3z M117.8,174v7.6h1.1v-9.4l-3.2,2.1v1.1L117.8,174z"/>
	<path class="st5" d="M91.6,197h-1.3l0.2-1.3h1.4l0-0.7h-1.4l0.4-2.7h-0.7l-0.4,2.7h-1.2l0.4-2.7h-0.7l-0.4,2.7h-1.5v0.7h1.4
		l-0.2,1.3h-1.6v0.7h1.5l-0.4,3h0.7l0.4-3h1.2l-0.4,3h0.7l0.4-3h1.4V197z M89.7,195.7l-0.2,1.4h-1.3l0.2-1.4H89.7z M94.7,192.7h3.6
		v-1h-4.8v9.3h1.2v-4.2h3.6v-1h-3.6V192.7z M101.1,192.7h3.6v-1h-4.8v9.3h1.2v-4.2h3.6v-1h-3.6V192.7z M110.4,191.9h-1.3l-2.7,4.3
		c-0.5,0.9-0.7,1.4-0.7,2.1c0,1.7,1.3,3,3,3c1.7,0,3-1.4,3-3c0-1.6-1.2-2.8-2.8-2.8c-0.3,0-0.5,0-0.9,0.2L110.4,191.9z M108.7,196.4
		c1,0,1.9,0.8,1.9,1.9c0,1.1-0.8,1.9-1.9,1.9s-1.9-0.9-1.9-2C106.8,197.2,107.6,196.4,108.7,196.4z M114.7,200l2.5-3.5
		c0.8-1.1,1.1-1.8,1.1-2.6c0-1.4-1.1-2.3-2.6-2.3c-1.7,0-2.6,1-2.7,2.8h1.1c0-0.5,0.1-0.7,0.2-1c0.2-0.5,0.7-0.8,1.4-0.8
		c0.9,0,1.6,0.6,1.6,1.4c0,0.6-0.2,1-1.1,2.3l-3.2,4.6h5.2v-1H114.7z M124.4,191.9h-1.3l-2.7,4.3c-0.5,0.9-0.7,1.4-0.7,2.1
		c0,1.7,1.3,3,3,3c1.7,0,3-1.4,3-3c0-1.6-1.2-2.8-2.8-2.8c-0.3,0-0.5,0-0.9,0.2L124.4,191.9z M122.7,196.4c1,0,1.9,0.8,1.9,1.9
		c0,1.1-0.8,1.9-1.9,1.9c-1,0-1.9-0.9-1.9-2C120.8,197.2,121.6,196.4,122.7,196.4z M128.7,200l2.5-3.5c0.8-1.1,1.1-1.8,1.1-2.6
		c0-1.4-1.1-2.3-2.6-2.3c-1.7,0-2.6,1-2.7,2.8h1c0-0.5,0.1-0.7,0.2-1c0.2-0.5,0.7-0.8,1.4-0.8c0.9,0,1.6,0.6,1.6,1.4
		c0,0.6-0.2,1-1.1,2.3l-3.2,4.6h5.2v-1H128.7z"/>
	<path class="st5" d="M79.6,256.5h-1.3l0.2-1.3h1.4l0-0.7h-1.4l0.4-2.7h-0.7l-0.4,2.7h-1.2l0.4-2.7h-0.7l-0.4,2.7h-1.5v0.7h1.4
		l-0.2,1.3H74v0.7h1.5l-0.4,3h0.7l0.4-3h1.2l-0.4,3h0.7l0.4-3h1.4V256.5z M77.8,255.2l-0.2,1.4h-1.3l0.2-1.4H77.8z M82.8,252.2h3.6
		v-1h-4.8v9.3h1.2v-4.2h3.6v-1h-3.6V252.2z M89.2,252.2h3.6v-1H88v9.3h1.2v-4.2h3.6v-1h-3.6V252.2z M97.5,258.5v2.1h1.1v-2.1h1.1v-1
		h-1.1v-6.4l-4.8,6.5v0.9H97.5z M97.5,257.5h-2.6l2.6-3.6V257.5z M104.5,252.4l-2.7,3.4l0.5,0.4c0.4-0.2,0.7-0.3,1.1-0.3
		c1.2,0,2.1,0.8,2.1,1.9c0,1.1-0.9,1.9-2,1.9c-0.9,0-1.5-0.5-1.8-1.4l-1,0.2c0.3,1.4,1.4,2.2,2.8,2.2c1.8,0,3.1-1.3,3.1-3.1
		c0-1.7-1.1-2.8-2.8-2.8l2.7-3.5h-5.3v1H104.5z M111.5,258.5v2.1h1.1v-2.1h1.1v-1h-1.1v-6.4l-4.8,6.5v0.9H111.5z M111.5,257.5h-2.6
		l2.6-3.6V257.5z M118.5,258.5v2.1h1.1v-2.1h1.1v-1h-1.1v-6.4l-4.8,6.5v0.9H118.5z M118.5,257.5h-2.6l2.6-3.6V257.5z"/>
	<path class="st6" d="M1.7,53.5c-2,4.3-2.3,9.5-0.2,13.7c2.1,4.2,7,7.2,11.6,6.4c1.4-0.3,2.7-0.8,3.9-1.5c2.7-1.6,4.9-4,6.2-6.9
		c1.4-2.8,1.9-6,1.4-9.1C23.8,50.7,19.5,45,14,43.5C8.5,41.9,3.6,49.3,1.7,53.5z"/>
	<path class="st7" d="M1.7,10.2c-2,4.3-2.3,9.5-0.2,13.7c2.1,4.2,7,7.2,11.6,6.4c1.4-0.3,2.7-0.8,3.9-1.5c2.7-1.6,4.9-4,6.2-6.9
		c1.4-2.8,1.9-6,1.4-9.1C23.8,7.4,19.5,1.7,14,0.2C8.5-1.3,3.6,6,1.7,10.2z"/>
	<path class="st8" d="M1.7,180.3c-2,4.3-2.3,9.5-0.2,13.7c2.1,4.2,7,7.2,11.6,6.4c1.4-0.3,2.7-0.8,3.9-1.5c2.7-1.6,4.9-4,6.2-6.9
		c1.4-2.8,1.9-6,1.4-9.1c-0.8-5.4-5.2-11.1-10.6-12.6C8.6,168.8,3.6,176.1,1.7,180.3z"/>
	<path class="st9" d="M13.8,195.5c-2,4.3-2.3,9.5-0.2,13.7s7,7.2,11.6,6.4c1.4-0.3,2.8-0.8,4-1.5c2.7-1.6,4.9-4,6.2-6.9
		c1.4-2.8,1.9-6,1.4-9.1c-0.9-5.4-5.2-11.1-10.7-12.6C20.8,184,15.8,191.3,13.8,195.5z"/>
	<path class="st10" d="M1.7,250.4c-2,4.3-2.3,9.5-0.2,13.7c2.1,4.2,7,7.2,11.6,6.4c1.4-0.3,2.7-0.8,3.9-1.5c2.7-1.6,4.9-4,6.2-6.9
		c1.4-2.8,1.9-6,1.4-9.1c-0.8-5.4-5.2-11.1-10.6-12.6C8.6,238.9,3.6,246.2,1.7,250.4z"/>
	<path class="st11" d="M13.8,265.6c-2,4.3-2.3,9.5-0.2,13.7c2.1,4.2,7,7.2,11.6,6.4c1.4-0.3,2.8-0.8,4-1.5c2.7-1.6,4.9-4,6.2-6.9
		c1.4-2.8,1.9-6,1.4-9.1c-0.9-5.4-5.2-11.1-10.7-12.6C20.8,254.1,15.8,261.4,13.8,265.6z"/>
	<path class="st12" d="M1.7,96.8c-2,4.3-2.3,9.5-0.2,13.7c2.1,4.2,7,7.2,11.6,6.4c1.4-0.3,2.7-0.8,3.9-1.5c2.7-1.6,4.9-4,6.2-6.9
		c1.4-2.8,1.9-6,1.4-9.1c-0.8-5.4-5.2-11.1-10.7-12.6C8.5,85.3,3.6,92.6,1.7,96.8z"/>
</g>
</svg>
