<svg xmlns="http://www.w3.org/2000/svg" viewBox="0 0 365.3 276.55"><defs><style>.cls-1{fill:#fff;}.cls-2,.cls-3,.cls-4,.cls-5{fill:none;stroke:#000100;}.cls-2,.cls-3{stroke-miterlimit:10;}.cls-2{stroke-width:0.5px;}.cls-3,.cls-4{stroke-width:0.2px;}.cls-4,.cls-5{stroke-linejoin:round;}.cls-5{stroke-width:0.75px;}.cls-6{fill:#bfdcc7;opacity:0.5;}.cls-7{fill:#272525;}</style></defs><title>comingsoon1</title><g id="Layer_2" data-name="Layer 2"><g id="Layer_1-2" data-name="Layer 1"><path class="cls-1" d="M357.6.73H7.7A7.32,7.32,0,0,0,.37,8.05V204.17a7.33,7.33,0,0,0,7.33,7.32H164.46V263.7L113,265h0l-4.8,7.54H109a2.64,2.64,0,0,0,1.51.52h0a10.45,10.45,0,0,0,4.74,2.22v.31a.5.5,0,0,0,.51.5h7.64a.5.5,0,0,0,.51-.5v0c13,.16,37.07.16,42.13.16h12.15V276a.51.51,0,0,0,.52.51h8a.51.51,0,0,0,.51-.51v-.24h12.15c5.07,0,29.11,0,42.14-.16v0a.5.5,0,0,0,.51.5h7.64a.5.5,0,0,0,.5-.5v-.31a10.45,10.45,0,0,0,4.75-2.22h0a2.68,2.68,0,0,0,1.51-.52h.8l-4.8-7.54h0l-51.48-1.34V211.49H357.6a7.32,7.32,0,0,0,7.32-7.32V8.05A7.32,7.32,0,0,0,357.6.73Z"/><rect class="cls-2" x="0.38" y="0.38" width="364.55" height="210.77" rx="7.32"/><rect class="cls-3" x="9.3" y="9.99" width="346.7" height="191.54" rx="0.14"/><rect class="cls-3" x="358.06" y="163.77" width="5.49" height="1.37" rx="0.69"/><rect class="cls-3" x="358.06" y="172.01" width="5.49" height="1.37" rx="0.69"/><rect class="cls-3" x="358.06" y="180.25" width="5.49" height="1.37" rx="0.69"/><rect class="cls-3" x="358.06" y="188.48" width="5.49" height="1.37" rx="0.69"/><circle class="cls-3" cx="360.12" cy="204.96" r="2.75"/><rect class="cls-3" x="164.46" y="211.14" width="36.39" height="53.55"/><path class="cls-3" d="M176.47,211.14v10.3c0,3,2.77,5.49,6.18,5.49s6.18-2.46,6.18-5.49v-10.3Z"/><path class="cls-3" d="M164.46,263.35,113,264.69h0l-4.8,7.54h149l-4.8-7.54h0l-51.48-1.34"/><path class="cls-3" d="M108.8,272.05s.37.73,2.26.73,44.39.38,54.93.38h33.32c10.54,0,53.05-.38,54.93-.38s2.26-.73,2.26-.73"/><path class="cls-4" d="M110.45,272.76a10.45,10.45,0,0,0,4.74,2.22v.31a.5.5,0,0,0,.51.5h7.64a.5.5,0,0,0,.51-.5v0c13,.16,37.07.16,42.14.16h12.14v.24a.51.51,0,0,0,.52.51h8a.51.51,0,0,0,.51-.51v-.24h12.15c5.07,0,29.11,0,42.14-.16v0a.5.5,0,0,0,.51.5h7.64a.5.5,0,0,0,.5-.5V275a10.45,10.45,0,0,0,4.75-2.22"/><path class="cls-5" d="M357.6.38H7.7A7.31,7.31,0,0,0,.38,7.7V203.82a7.32,7.32,0,0,0,7.32,7.32H164.46v52.21L113,264.69h0l-4.8,7.54H109a2.64,2.64,0,0,0,1.51.52h0a10.45,10.45,0,0,0,4.74,2.22v.31a.5.5,0,0,0,.51.5h7.64a.5.5,0,0,0,.51-.5v0c13,.16,37.07.16,42.13.16h12.15v.24a.51.51,0,0,0,.52.51h8a.51.51,0,0,0,.51-.51v-.24h12.15c5.07,0,29.11,0,42.14-.16v0a.5.5,0,0,0,.51.5h7.64a.5.5,0,0,0,.5-.5V275a10.45,10.45,0,0,0,4.75-2.22h0a2.68,2.68,0,0,0,1.51-.52h.8l-4.8-7.54h0l-51.48-1.34V211.14H357.6a7.32,7.32,0,0,0,7.32-7.32V7.7A7.32,7.32,0,0,0,357.6.38Z"/><polygon class="cls-6" points="9.3 195.22 356 50.96 356 12.89 9.3 157.15 9.3 195.22"/><path class="cls-7" d="M102.3,146a9.27,9.27,0,0,1-5.3,5.26,8.57,8.57,0,0,1-7.23,0,10.27,10.27,0,0,1-4.94-5.34c-2.18-5.23-.18-10.44,4.79-12.51a9,9,0,0,1,7.63,0l-1.33,3.27a6.13,6.13,0,0,0-4.75-.11c-3,1.26-4.17,4.46-2.79,7.75s4.58,4.77,7.67,3.48a5.13,5.13,0,0,0,3.11-3.34Z"/><path class="cls-7" d="M115,126.24a9.71,9.71,0,1,1-7.75-.16A9.52,9.52,0,0,1,115,126.24Zm-9.42,11A5.73,5.73,0,1,0,116.13,133c-1.39-3.32-4.62-4.84-7.66-3.58S104.18,134,105.54,137.29Z"/><path class="cls-7" d="M130.83,136.8l-3.53,1.46-7.14-17.17,4-1.66,9.46,8.29.81-12.57,4-1.66,7.14,17.18L142,132.13l-4.45-10.71-1,13.56-10.25-8.9Z"/><path class="cls-7" d="M154,127.17l-3.53,1.47-7.14-17.18,3.52-1.47Z"/><path class="cls-7" d="M162.36,123.68l-3.53,1.47L151.68,108l3.48-1.45,11.64,7.73-4.46-10.72,3.53-1.47L173,119.24l-3.45,1.44-11.73-7.87Z"/><path class="cls-7" d="M190.85,100.52l.39.93a9.19,9.19,0,0,1,.16,7.42,9.5,9.5,0,0,1-5.23,5.29,9.66,9.66,0,0,1-7.46-17.83,9.47,9.47,0,0,1,8.33.4l-1.79,3.19a5.57,5.57,0,0,0-5.11-.38,5.87,5.87,0,0,0-2.93,7.92,6,6,0,0,0,7.76,3.46,5.54,5.54,0,0,0,3.12-3.33,5.3,5.3,0,0,0,.15-2.6l-4.79,2-1.2-2.89Z"/><path class="cls-7" d="M208,98.77l.1.24a2.31,2.31,0,0,0,3.18,1,2.21,2.21,0,0,0,1.51-2.77,1.89,1.89,0,0,0-1.27-1.08,7.54,7.54,0,0,0-2.48-.08c-4.32.22-6.24-.64-7.34-3.26-1.29-3.12.13-6.16,3.5-7.56s6.33-.34,8,2.84l-3.55,1.48a2.19,2.19,0,0,0-3.13-1.2,2,2,0,0,0-1.36,2.68,2,2,0,0,0,1.73,1.18,13.86,13.86,0,0,0,2.36,0,10.54,10.54,0,0,1,4.37.42,4.8,4.8,0,0,1,2.75,2.75c1.31,3.15-.19,6.22-3.75,7.7s-6.67.36-8-3Z"/><path class="cls-7" d="M231.06,77.93a9.81,9.81,0,0,1-.36,17.7,9.66,9.66,0,1,1,.36-17.7Zm-9.42,11a5.73,5.73,0,1,0,10.6-4.32c-1.39-3.32-4.62-4.85-7.66-3.58S220.28,85.71,221.64,89Z"/><path class="cls-7" d="M252,69.2a9.71,9.71,0,1,1-7.74-.16A9.52,9.52,0,0,1,252,69.2Zm-9.42,11a5.73,5.73,0,1,0,10.59-4.31c-1.38-3.32-4.61-4.85-7.65-3.58S241.25,77,242.61,80.25Z"/><path class="cls-7" d="M267.91,79.76l-3.53,1.47-7.15-17.18,3.48-1.45,11.64,7.73-4.46-10.72,3.53-1.46,7.15,17.17-3.45,1.44-11.74-7.87Z"/></g></g></svg>