<svg xmlns="http://www.w3.org/2000/svg" viewBox="0 0 133.59 273.15"><defs><style>.cls-1{fill:#fff;}.cls-2,.cls-4,.cls-5{fill:none;stroke:#000100;stroke-miterlimit:10;}.cls-2{stroke-width:0.2px;}.cls-3{fill:#000100;}.cls-4{stroke-width:0.75px;}.cls-5{stroke-width:0.2px;}.cls-6{fill:#bfdcc7;opacity:0.5;}.cls-7{fill:#272525;}</style></defs><title>comingsoon2</title><g id="Layer_2" data-name="Layer 2"><g id="Layer_1-2" data-name="Layer 1"><rect class="cls-1" x="1.43" y="0.38" width="131.78" height="272.4" rx="19.42"/><circle class="cls-2" cx="67.33" cy="255.81" r="10.6"/><circle class="cls-2" cx="67.33" cy="255.81" r="9.54"/><circle class="cls-3" cx="67.33" cy="9.21" r="1.41"/><circle class="cls-3" cx="46.3" cy="18.39" r="2.12"/><rect class="cls-3" x="55.67" y="16.98" width="23.32" height="2.12" rx="0.86"/><rect class="cls-4" x="1.43" y="0.38" width="131.78" height="272.4" rx="19.42"/><polyline class="cls-4" points="1.44 45.95 0.38 45.95 0.38 35.35 1.44 35.35"/><polyline class="cls-4" points="1.44 78.45 0.38 78.45 0.38 58.67 1.44 58.67"/><polyline class="cls-4" points="1.44 103.19 0.38 103.19 0.38 83.4 1.44 83.4"/><rect class="cls-5" x="9.03" y="33.94" width="116.59" height="206.33"/><polygon class="cls-6" points="9.03 164.44 125.62 55.7 125.62 100.7 9.03 209.44 9.03 164.44"/><path class="cls-7" d="M34.59,167.6a4.9,4.9,0,0,1-1.67,3.61,4.53,4.53,0,0,1-3.61,1.34,5.49,5.49,0,0,1-3.46-1.75,4.86,4.86,0,0,1,.07-7.14,4.79,4.79,0,0,1,3.81-1.4l-.05,1.88a3.24,3.24,0,0,0-2.4.83,3,3,0,0,0,0,4.39,3.07,3.07,0,0,0,4.48.31,2.75,2.75,0,0,0,.93-2.25Z"/><path class="cls-7" d="M37.24,155.38a5.16,5.16,0,1,1-4.15,8.71,5.12,5.12,0,0,1,.25-7.36A5.06,5.06,0,0,1,37.24,155.38Zm-2.65,7.27a3.06,3.06,0,1,0,0-4.5A3.12,3.12,0,0,0,34.59,162.65Z"/><path class="cls-7" d="M47.13,157.7l-1.49,1.39-6.76-7.25,1.68-1.58,6.27,2.39-1.93-6.43,1.69-1.57,6.76,7.25-1.49,1.39-4.22-4.53,2,7-6.78-2.54Z"/><path class="cls-7" d="M56.89,148.59,55.4,150l-6.76-7.25,1.49-1.39Z"/><path class="cls-7" d="M60.44,145.29,59,146.68l-6.77-7.26,1.47-1.37,7.25,1.7-4.21-4.52,1.49-1.39,6.76,7.25-1.46,1.36-7.32-1.75Z"/><path class="cls-7" d="M70.37,128.42l.36.39a4.88,4.88,0,0,1,1.46,3.69,5.09,5.09,0,0,1-1.63,3.61,5.15,5.15,0,0,1-7-7.53,5.08,5.08,0,0,1,4.24-1.34l-.3,1.92a3,3,0,0,0-2.63.76,3.14,3.14,0,0,0,0,4.51,3.18,3.18,0,0,0,4.52.28,3,3,0,0,0,.94-2.24,2.84,2.84,0,0,0-.41-1.33l-2,1.89-1.14-1.22Z"/><path class="cls-7" d="M78.63,124.36l.09.09a1.23,1.23,0,0,0,1.78-.07,1.19,1.19,0,0,0,.24-1.66,1,1,0,0,0-.83-.31,4.3,4.3,0,0,0-1.26.42c-2.12.92-3.24.85-4.27-.26a3,3,0,0,1,.34-4.43,3.11,3.11,0,0,1,4.52-.06l-1.5,1.4a1.17,1.17,0,0,0-1.79,0,1.07,1.07,0,0,0-.18,1.59,1,1,0,0,0,1.08.27,6.43,6.43,0,0,0,1.18-.43,5.59,5.59,0,0,1,2.26-.61,2.55,2.55,0,0,1,1.89.87c1.24,1.32,1.06,3.14-.44,4.54s-3.27,1.42-4.56,0Z"/><path class="cls-7" d="M86.25,109.66a5.18,5.18,0,1,1-3.9,1.36A5.11,5.11,0,0,1,86.25,109.66Zm-2.65,7.28a3.06,3.06,0,1,0,0-4.5A3.12,3.12,0,0,0,83.6,116.94Z"/><path class="cls-7" d="M95.1,101.41a5.17,5.17,0,1,1-3.9,1.36A5.07,5.07,0,0,1,95.1,101.41Zm-2.65,7.27a3.06,3.06,0,1,0,0-4.49A3.1,3.1,0,0,0,92.45,108.68Z"/><path class="cls-7" d="M105,103.73l-1.49,1.39-6.76-7.25L98.2,96.5l7.26,1.7-4.22-4.53,1.49-1.39,6.76,7.25L108,100.89l-7.32-1.74Z"/></g></g></svg>