<?xml version="1.0" encoding="utf-8"?>
<!-- Generator: Adobe Illustrator 23.1.1, SVG Export Plug-In . SVG Version: 6.00 Build 0)  -->
<svg version="1.1" id="Layer_1" xmlns="http://www.w3.org/2000/svg" xmlns:xlink="http://www.w3.org/1999/xlink" x="0px" y="0px"
	 viewBox="0 0 523 395.7" style="enable-background:new 0 0 523 395.7;" xml:space="preserve">
<style type="text/css">
	.st0{fill:#FFFFFF;}
	.st1{fill:none;stroke:#000000;stroke-width:0.3;stroke-miterlimit:10;}
	.st2{fill:none;stroke:#000000;stroke-width:0.2;stroke-miterlimit:10;}
	.st3{fill:none;stroke:#000000;stroke-width:0.2;stroke-linejoin:round;}
	.st4{fill:none;stroke:#000000;stroke-width:0.4;stroke-linejoin:round;}
</style>
<title>desktop</title>
<g>
	<g id="Layer_2-2">
		<path class="st0" d="M513.2,0.2H9.8c-5.3,0-9.6,4.3-9.6,9.6v283c0,5.3,4.3,9.6,9.6,9.6c0,0,0,0,0,0h225.7v74.9l-72.1,1.9
			c-1.1,0-2.1,0.6-2.7,1.5l-5.1,8.1c-0.2,0.3-0.2,0.7,0.1,1l0,0c0,0,0.4,0.8,2.4,1l0,0c2,1.6,4.3,2.7,6.8,3.2v0.4
			c0,0.4,0.3,0.7,0.7,0.7l0,0h11c0.4,0,0.7-0.3,0.7-0.7l0,0l0,0c18.7,0.2,53.2,0.2,60.4,0.2H255v0.3c0,0.4,0.3,0.7,0.7,0.7l0,0h11.5
			c0.4,0,0.7-0.3,0.7-0.7c0,0,0,0,0,0v-0.3h17.4c7.3,0,41.7,0,60.4-0.2l0,0c0,0.4,0.3,0.7,0.7,0.7c0,0,0,0,0,0h11
			c0.4,0,0.7-0.3,0.7-0.7c0,0,0,0,0,0v-0.4c2.5-0.5,4.8-1.6,6.8-3.2l0,0c2-0.2,2.4-1,2.4-1l0,0c0.3-0.3,0.3-0.7,0.1-1l-5.1-8.1
			c-0.6-0.9-1.6-1.5-2.7-1.5l-72.1-1.9v-74.9h225.6c5.3,0,9.6-4.3,9.6-9.6V9.8C522.8,4.4,518.6,0.2,513.2,0.2z M270.4,317.1
			c0,4.4-4,7.9-8.9,7.9s-8.9-3.5-8.9-7.9v-14.8h17.7V317.1z"/>
		<path class="st1" d="M9.8,0.2h503.5c5.3,0,9.6,4.3,9.6,9.6v283c0,5.3-4.3,9.6-9.6,9.6H9.8c-5.3,0-9.6-4.3-9.6-9.6V9.8
			C0.2,4.4,4.4,0.2,9.8,0.2z"/>
		<path class="st2" d="M15.4,13.9h492.3c1.3,0,2.4,1.1,2.4,2.4v269.8c0,1.3-1.1,2.4-2.4,2.4H15.4c-1.3,0-2.4-1.1-2.4-2.4V16.3
			C12.9,15,14,13.9,15.4,13.9z"/>
		<path class="st2" d="M513.9,234.4h6.2c0.5,0,0.9,0.4,0.9,0.9v0.2c0,0.5-0.4,0.9-0.9,0.9h-6.2c-0.5,0-0.9-0.4-0.9-0.9v-0.2
			C513,234.8,513.4,234.4,513.9,234.4z"/>
		<path class="st2" d="M513.9,246.2h6.2c0.5,0,0.9,0.4,0.9,0.9v0.2c0,0.5-0.4,0.9-0.9,0.9h-6.2c-0.5,0-0.9-0.4-0.9-0.9v-0.2
			C513,246.6,513.4,246.2,513.9,246.2z"/>
		<path class="st2" d="M513.9,258h6.2c0.5,0,0.9,0.4,0.9,0.9v0.3c0,0.5-0.4,0.9-0.9,0.9h-6.2c-0.5,0-0.9-0.4-0.9-0.9v-0.3
			C513,258.4,513.4,258,513.9,258z"/>
		<path class="st2" d="M513.9,269.9h6.2c0.5,0,0.9,0.4,0.9,0.9v0.3c0,0.5-0.4,0.9-0.9,0.9h-6.2c-0.5,0-0.9-0.4-0.9-0.9v-0.3
			C513,270.3,513.4,269.9,513.9,269.9z"/>
		<circle class="st2" cx="516" cy="293.5" r="3.9"/>
		<rect x="235.4" y="302.4" class="st2" width="52.2" height="76.8"/>
		<path class="st2" d="M252.6,302.4v14.8c0,4.4,4,7.9,8.9,7.9s8.9-3.5,8.9-7.9v-14.8H252.6z"/>
		<path class="st2" d="M235.4,377.2l-72.1,1.9c-1.1,0-2.1,0.6-2.7,1.5l-5.1,8.1c-0.2,0.4-0.1,0.9,0.2,1.1c0.1,0.1,0.3,0.1,0.5,0.1
			h210.6c0.5,0,0.8-0.4,0.8-0.8c0-0.2,0-0.3-0.1-0.5l-5.1-8.1c-0.6-0.9-1.6-1.5-2.7-1.5l-72.1-1.9"/>
		<path class="st2" d="M155.6,389.7c0,0,0.5,1,3.2,1s63.6,0.5,78.8,0.5h47.8c15.1,0,76.1-0.5,78.8-0.5s3.2-1,3.2-1"/>
		<path class="st3" d="M158,390.7c2,1.6,4.3,2.7,6.8,3.2v0.4c0,0.4,0.3,0.7,0.7,0.7l0,0h11c0.4,0,0.7-0.3,0.7-0.7l0,0l0,0
			c18.7,0.2,53.2,0.2,60.4,0.2H255v0.3c0,0.4,0.3,0.7,0.7,0.7l0,0h11.5c0.4,0,0.7-0.3,0.7-0.7c0,0,0,0,0,0v-0.3h17.4
			c7.3,0,41.7,0,60.4-0.2l0,0c0,0.4,0.3,0.7,0.7,0.7c0,0,0,0,0,0h11c0.4,0,0.7-0.3,0.7-0.7c0,0,0,0,0,0v-0.4
			c2.5-0.5,4.8-1.6,6.8-3.2"/>
	</g>
</g>
<path class="st4" d="M513.2,0.1L513.2,0.1H9.7c-5.3,0-9.6,4.3-9.6,9.6v283c0,5.3,4.3,9.6,9.6,9.6h225.7v74.9l-72.1,1.9
	c-0.5,0-1.1,0.2-1.5,0.4c-0.5,0.3-0.9,0.6-1.2,1.1l-5.1,8.1c-0.1,0.1-0.1,0.2-0.1,0.3c0,0,0,0.1,0,0.1c0,0,0,0.1,0,0.1
	c0,0.1,0,0.1,0,0.2c0,0,0,0.1,0,0.1c0,0.1,0.1,0.1,0.1,0.2c0,0,0,0,0,0c0,0,0,0,0,0h0c0,0,0.4,0.8,2.4,1h0c2,1.6,4.3,2.7,6.8,3.2
	v0.4c0,0.4,0.3,0.7,0.7,0.7h11c0.2,0,0.4-0.1,0.5-0.2c0.1-0.1,0.2-0.3,0.2-0.5c18.7,0.2,53.1,0.2,60.4,0.2H255v0.3v0
	c0,0.4,0.3,0.7,0.7,0.7h11.5c0.4,0,0.7-0.3,0.7-0.7v0c0,0,0,0,0,0v-0.3h17.4c7.3,0,41.7,0,60.4-0.2c0,0.4,0.3,0.7,0.7,0.7
	c0,0,0,0,0,0h11c0.4,0,0.7-0.3,0.7-0.7v0c0,0,0,0,0,0v-0.4c2.5-0.5,4.8-1.6,6.8-3.2h0c0,0,0,0,0,0c1-0.1,1.6-0.3,2-0.6c0,0,0,0,0,0
	c0.1,0,0.1-0.1,0.2-0.1c0,0,0.1-0.1,0.1-0.1c0,0,0,0,0,0c0.1-0.1,0.1-0.2,0.1-0.2c0.1-0.2,0.2-0.3,0.2-0.5c0,0,0,0,0,0c0,0,0,0,0,0
	c0-0.2,0-0.3-0.1-0.4l-5.1-8.1c-0.6-0.9-1.6-1.5-2.7-1.5l-72.1-1.9v-74.9h225.6l0,0c5.3,0,9.6-4.3,9.6-9.6V9.7
	C522.8,4.4,518.6,0.1,513.2,0.1z"/>
</svg>
