<svg xmlns="http://www.w3.org/2000/svg" viewBox="0 0 523 395.69"><defs><style>.cls-1{fill:#fff;}.cls-2,.cls-3,.cls-4{fill:none;stroke:#000;}.cls-2,.cls-3{stroke-miterlimit:10;}.cls-2{stroke-width:0.3px;}.cls-3,.cls-4{stroke-width:0.2px;}.cls-4{stroke-linejoin:round;}</style></defs><title>desktop</title><g id="Layer_2" data-name="Layer 2"><g id="Layer_2-2" data-name="Layer 2"><path class="cls-1" d="M513.25.15H9.75a9.6,9.6,0,0,0-9.6,9.6v283a9.6,9.6,0,0,0,9.6,9.6H235.41v74.86l-72.07,1.88a3.31,3.31,0,0,0-2.69,1.52l-5.13,8.07a.82.82,0,0,0,.09,1h0s.43.82,2.41,1h0a15,15,0,0,0,6.8,3.19v.44a.73.73,0,0,0,.73.73h11a.73.73,0,0,0,.73-.73v0c18.69.23,53.15.23,60.42.23H255v.34a.73.73,0,0,0,.73.73h11.48a.73.73,0,0,0,.73-.73v-.34h17.42c7.27,0,41.73,0,60.42-.23v0a.73.73,0,0,0,.73.73h10.95a.73.73,0,0,0,.73-.73v-.44a15,15,0,0,0,6.8-3.19h0c2-.19,2.41-1,2.41-1h0a.82.82,0,0,0,.09-1l-5.13-8.07a3.31,3.31,0,0,0-2.69-1.52l-72.07-1.88V302.35H513.25a9.6,9.6,0,0,0,9.6-9.6V9.75A9.6,9.6,0,0,0,513.25.15Zm-242.89,317c0,4.35-4,7.87-8.86,7.87s-8.86-3.52-8.86-7.87V302.35h17.72Z"/><rect class="cls-2" x="0.15" y="0.15" width="522.7" height="302.2" rx="9.6"/><rect class="cls-3" x="12.95" y="13.93" width="497.11" height="274.64" rx="2.41"/><rect class="cls-3" x="513.01" y="234.43" width="7.87" height="1.97" rx="0.86"/><rect class="cls-3" x="513.01" y="246.24" width="7.87" height="1.97" rx="0.86"/><rect class="cls-3" x="513.01" y="258.05" width="7.87" height="1.97" rx="0.86"/><rect class="cls-3" x="513.01" y="269.87" width="7.87" height="1.97" rx="0.86"/><circle class="cls-3" cx="515.96" cy="293.49" r="3.94"/><rect class="cls-3" x="235.41" y="302.35" width="52.17" height="76.78"/><path class="cls-3" d="M252.64,302.35v14.77c0,4.35,4,7.87,8.86,7.87s8.86-3.52,8.86-7.87V302.35Z"/><path class="cls-3" d="M235.41,377.21l-72.07,1.88a3.31,3.31,0,0,0-2.69,1.52l-5.13,8.07a.83.83,0,0,0,.7,1.28H366.78a.83.83,0,0,0,.7-1.28l-5.13-8.07a3.31,3.31,0,0,0-2.69-1.52l-72.07-1.88"/><path class="cls-3" d="M155.61,389.69s.54,1.05,3.24,1.05,63.65.54,78.76.54h47.78c15.11,0,76.07-.54,78.76-.54s3.24-1.05,3.24-1.05"/><path class="cls-4" d="M158,390.7a15,15,0,0,0,6.8,3.19v.44a.73.73,0,0,0,.73.73h11a.73.73,0,0,0,.73-.73v0c18.69.23,53.15.23,60.42.23H255v.34a.73.73,0,0,0,.73.73h11.48a.73.73,0,0,0,.73-.73v-.34h17.42c7.27,0,41.73,0,60.42-.23v0a.73.73,0,0,0,.73.73h10.95a.73.73,0,0,0,.73-.73v-.44a15,15,0,0,0,6.8-3.19"/></g></g></svg>