<svg width="754" height="45" viewBox="0 0 754 45" fill="none" xmlns="http://www.w3.org/2000/svg">
<rect width="753.718" height="43.4837" transform="translate(0.0848389 0.659546)" fill="white"/>
<path opacity="0.5" d="M730.695 0.659546H665.702C652.94 0.659546 642.595 10.3937 642.595 22.4014C642.595 34.4091 652.94 44.1432 665.702 44.1432H730.695C743.457 44.1432 753.803 34.4091 753.803 22.4014C753.803 10.3937 743.457 0.659546 730.695 0.659546Z" fill="#EF4850"/>
<path d="M687.151 24.5147C686.712 25.0052 686.168 25.4033 685.555 25.6832C684.942 25.9632 684.273 26.1186 683.592 26.1394C682.911 26.1603 682.232 26.0461 681.601 25.8042C680.97 25.5624 680.4 25.1983 679.928 24.7357C679.044 23.7399 678.561 22.4831 678.563 21.1857C678.515 20.5535 678.604 19.9188 678.827 19.3206C679.05 18.7224 679.4 18.1734 679.857 17.7075C680.313 17.2416 680.867 16.8686 681.482 16.6116C682.098 16.3546 682.763 16.2189 683.437 16.213C684.333 16.205 685.216 16.4245 685.991 16.8484C686.436 17.1247 686.837 17.4597 687.18 17.8429L686.3 18.6165C685.961 18.2141 685.53 17.8886 685.04 17.6638C684.549 17.4391 684.012 17.3209 683.466 17.318C682.956 17.3364 682.455 17.4528 681.994 17.6602C681.533 17.8675 681.122 18.1614 680.787 18.5237C680.451 18.886 680.198 19.309 680.043 19.7668C679.888 20.2246 679.833 20.7075 679.884 21.1857C679.84 21.6658 679.9 22.1494 680.062 22.6066C680.224 23.0639 680.483 23.4853 680.824 23.8449C681.165 24.2045 681.58 24.4948 682.045 24.6978C682.509 24.9009 683.013 25.0125 683.525 25.0257C684.065 25.0296 684.598 24.9126 685.08 24.6845C685.563 24.4563 685.981 24.1235 686.3 23.7135L687.151 24.5147Z" fill="#231F20"/>
<path d="M689.808 19.3348V20.4675C689.929 20.1207 690.153 19.8139 690.454 19.5834C690.845 19.3127 691.32 19.1718 691.805 19.1829H692.069V20.2879H691.746C691.455 20.2958 691.17 20.3688 690.915 20.5009C690.659 20.633 690.441 20.8204 690.278 21.0476C689.961 21.5158 689.817 22.0692 689.867 22.6223V25.9789H688.619V19.3486L689.808 19.3348Z" fill="#231F20"/>
<path d="M693.918 23.0093C693.936 23.4442 694.095 23.8637 694.373 24.211C694.588 24.4949 694.872 24.726 695.202 24.8847C695.532 25.0434 695.897 25.125 696.267 25.1227C696.696 25.1232 697.117 25.0176 697.488 24.8163C697.859 24.615 698.167 24.3252 698.381 23.9762L699.409 24.3491C699.034 25.0219 698.426 25.5548 697.687 25.8608C696.948 26.1668 696.12 26.2277 695.339 26.0336C694.559 25.8395 693.871 25.4019 693.389 24.7923C692.907 24.1827 692.659 23.4372 692.685 22.6777C692.648 22.2206 692.71 21.7612 692.869 21.3276C693.027 20.8941 693.278 20.4958 693.607 20.1571C693.935 19.8185 694.334 19.5467 694.778 19.3586C695.223 19.1705 695.703 19.0701 696.191 19.0635C696.678 19.0568 697.161 19.1442 697.611 19.3202C698.061 19.4961 698.468 19.7569 698.807 20.0865C699.145 20.4161 699.409 20.8075 699.581 21.2365C699.752 21.6655 699.829 22.1231 699.805 22.581C699.805 22.6639 699.805 22.8435 699.805 23.0093H693.918ZM698.572 22.1943C698.551 21.7901 698.414 21.3988 698.176 21.0616C697.944 20.7823 697.648 20.5564 697.31 20.4008C696.971 20.2453 696.6 20.1642 696.223 20.1637C695.853 20.159 695.486 20.2396 695.156 20.3985C694.826 20.5574 694.542 20.7898 694.329 21.0754C694.113 21.4172 693.978 21.7988 693.933 22.1943H698.572Z" fill="#231F20"/>
<path d="M706.838 19.3346H707.998V25.9649H706.838V24.6941C706.578 25.1177 706.204 25.4689 705.752 25.7115C705.301 25.9542 704.789 26.0798 704.269 26.0754C703.805 26.0695 703.347 25.9735 702.924 25.7935C702.501 25.6135 702.122 25.3533 701.81 25.0292C701.499 24.7051 701.262 24.3241 701.114 23.9099C700.966 23.4958 700.911 23.0574 700.951 22.6221C700.911 22.1826 700.967 21.74 701.116 21.3217C701.265 20.9034 701.504 20.5185 701.818 20.1908C702.132 19.8631 702.514 19.5995 702.941 19.4166C703.368 19.2337 703.83 19.1353 704.298 19.1274C704.799 19.1135 705.296 19.2204 705.74 19.438C706.185 19.6556 706.563 19.9767 706.838 20.3706V19.3346ZM702.757 20.9508C702.372 21.4636 702.166 22.077 702.17 22.705C702.142 23.0078 702.178 23.3128 702.277 23.602C702.377 23.8913 702.536 24.159 702.747 24.3894C702.957 24.6197 703.215 24.8082 703.504 24.9435C703.793 25.0789 704.108 25.1585 704.431 25.1776C705.115 25.1349 705.754 24.8395 706.207 24.3556C706.661 23.8717 706.893 23.2387 706.853 22.5945C706.882 22.2836 706.841 21.9706 706.733 21.6754C706.626 21.3802 706.454 21.1095 706.228 20.8805C706.003 20.6516 705.729 20.4695 705.425 20.346C705.12 20.2225 704.792 20.1603 704.46 20.1634C704.127 20.1407 703.794 20.2016 703.495 20.34C703.196 20.4784 702.941 20.6892 702.757 20.9508Z" fill="#231F20"/>
<path d="M711.522 24.6119C711.522 24.9434 711.624 25.0125 712.065 25.0125H712.593V25.9656H711.507C710.685 25.9656 710.362 25.6617 710.362 24.9296V20.3022H709.378V19.3353H710.362V17.2357H711.522V19.3215H712.593V20.2884H711.522V24.6119Z" fill="#231F20"/>
<path d="M714.78 23.0092C714.791 23.4454 714.95 23.8668 715.235 24.211C715.448 24.4966 715.732 24.729 716.062 24.8879C716.392 25.0467 716.758 25.1273 717.129 25.1226C717.557 25.1205 717.977 25.0136 718.347 24.8126C718.718 24.6116 719.027 24.3234 719.243 23.9762L720.256 24.3491C719.966 24.893 719.519 25.3487 718.965 25.6639C718.412 25.9792 717.776 26.1411 717.129 26.131C716.648 26.143 716.169 26.0613 715.722 25.8909C715.276 25.7205 714.872 25.4651 714.536 25.1409C714.2 24.8166 713.938 24.4304 713.768 24.0065C713.598 23.5827 713.522 23.1303 713.547 22.6777C713.54 22.2387 713.625 21.8028 713.798 21.3948C713.97 20.9868 714.226 20.6148 714.551 20.2999C714.876 19.985 715.264 19.7334 715.693 19.5596C716.121 19.3857 716.582 19.293 717.048 19.2866C717.515 19.2803 717.978 19.3604 718.412 19.5226C718.845 19.6847 719.241 19.9256 719.576 20.2315C719.91 20.5374 720.178 20.9024 720.362 21.3055C720.547 21.7086 720.646 22.1421 720.652 22.581C720.652 22.6639 720.652 22.8435 720.652 23.0092H714.78ZM719.419 22.1943C719.411 21.7877 719.273 21.3929 719.023 21.0616C718.796 20.7811 718.502 20.554 718.166 20.3982C717.83 20.2424 717.46 20.1621 717.085 20.1637C716.714 20.159 716.348 20.2396 716.018 20.3985C715.688 20.5574 715.404 20.7898 715.191 21.0754C714.968 21.414 714.832 21.7972 714.795 22.1943H719.419Z" fill="#231F20"/>
<path opacity="0.5" d="M88.1849 0.659546H23.1926C10.4305 0.659546 0.0848389 10.3937 0.0848389 22.4014C0.0848389 34.4091 10.4305 44.1432 23.1926 44.1432H88.1849C100.947 44.1432 111.293 34.4091 111.293 22.4014C111.293 10.3937 100.947 0.659546 88.1849 0.659546Z" fill="#EF4850"/>
<path d="M21.5188 17.0146H24.2201C24.8819 16.9594 25.5486 17.0416 26.173 17.2556C26.7973 17.4695 27.3641 17.8098 27.8332 18.2526C28.3024 18.6953 28.6624 19.2296 28.8879 19.8177C29.1134 20.4057 29.1988 21.0332 29.1382 21.6558C29.1842 22.371 29.0651 23.0871 28.7888 23.7547C28.5126 24.4224 28.0858 25.0258 27.538 25.5235C26.5545 26.3091 25.288 26.7096 23.9999 26.6423H21.5188V17.0146ZM22.796 25.5235H23.2658C24.3993 25.6907 25.5582 25.449 26.5103 24.8466C26.9883 24.4554 27.3621 23.9643 27.6018 23.4125C27.8414 22.8608 27.9402 22.2638 27.8903 21.6696C27.9599 21.1933 27.9151 20.7083 27.7593 20.2503C27.6034 19.7924 27.3406 19.3731 26.9899 19.0233C26.6393 18.6735 26.2098 18.4021 25.733 18.229C25.2562 18.0559 24.7443 17.9855 24.2348 18.023H22.8548L22.796 25.5235Z" fill="#231F20"/>
<path d="M36.3465 19.9981H37.521V26.6284H36.3465V25.3438C36.0878 25.7654 35.7153 26.1151 35.2667 26.3577C34.8181 26.6003 34.3094 26.727 33.792 26.7251C33.3271 26.7212 32.868 26.6266 32.4439 26.4473C32.0198 26.268 31.6398 26.0078 31.328 25.6833C31.0161 25.3587 30.7793 24.9768 30.6323 24.5618C30.4853 24.1467 30.4315 23.7075 30.4741 23.2718C30.4401 22.8326 30.5018 22.3915 30.6554 21.9756C30.809 21.5596 31.0514 21.1776 31.3676 20.8529C31.6838 20.5283 32.0671 20.2678 32.4941 20.0876C32.9211 19.9073 33.3828 19.8111 33.8507 19.8047C34.3506 19.7946 34.8448 19.9048 35.2867 20.1248C35.7286 20.3448 36.1035 20.6673 36.3759 21.0617L36.3465 19.9981ZM32.2799 21.6004C31.8988 22.1153 31.694 22.7273 31.6927 23.3547C31.6646 23.6574 31.7012 23.9624 31.8003 24.2517C31.8994 24.5409 32.0589 24.8086 32.2696 25.039C32.4802 25.2694 32.7377 25.4578 33.0269 25.5932C33.3161 25.7285 33.6311 25.8081 33.9535 25.8272C34.6352 25.7811 35.2702 25.4842 35.7208 25.0007C36.1715 24.5172 36.4016 23.8861 36.3612 23.2442C36.3897 22.9345 36.3494 22.6226 36.2427 22.3283C36.1361 22.0341 35.9654 21.764 35.7416 21.5353C35.5179 21.3066 35.2459 21.1242 34.9431 20.9999C34.6403 20.8755 34.3133 20.8119 33.9829 20.8131C33.6536 20.7916 33.3239 20.8501 33.0257 20.9832C32.7274 21.1163 32.4706 21.3193 32.2799 21.5728V21.6004Z" fill="#231F20"/>
<path d="M43.085 21.78C43.085 21.1584 42.5565 20.7716 41.7491 20.7716C40.9416 20.7716 40.4718 21.1446 40.4718 21.7247C40.4718 22.3049 40.7801 22.5121 42.0574 22.8436C42.6858 22.9524 43.273 23.2144 43.7603 23.6033C44.1252 23.9484 44.3309 24.4149 44.3329 24.9017C44.3329 26.0482 43.3199 26.8218 41.8225 26.8218C40.325 26.8218 39.312 26.1173 39.1946 24.7774H40.3397C40.3484 24.9466 40.3942 25.1123 40.4741 25.264C40.5541 25.4158 40.6665 25.5504 40.8044 25.6593C40.9422 25.7682 41.1025 25.8492 41.2752 25.8971C41.4478 25.945 41.6292 25.9589 41.8078 25.9377C42.6006 25.9377 43.1291 25.551 43.1291 24.957C43.1291 24.363 42.718 24.0868 41.5142 23.8105C40.0461 23.4237 39.2973 22.816 39.2973 21.8076C39.2973 20.7993 40.2956 19.8738 41.7784 19.8738C42.0817 19.8325 42.3908 19.8526 42.6852 19.9325C42.9796 20.0124 43.2525 20.1503 43.4858 20.3372C43.7192 20.5241 43.9075 20.7555 44.0384 21.0162C44.1693 21.2769 44.2396 21.5608 44.2448 21.849L43.085 21.78Z" fill="#231F20"/>
<path d="M47.2839 20.882C47.5161 20.5538 47.8302 20.284 48.1987 20.0962C48.5671 19.9084 48.9789 19.8083 49.3979 19.8045C50.0089 19.7995 50.5982 20.0174 51.0422 20.4123C51.2519 20.6507 51.4081 20.9266 51.5014 21.2234C51.5948 21.5201 51.6233 21.8316 51.5854 22.1389V26.6006H50.4256V22.1942C50.4256 21.2963 49.9558 20.8129 49.1043 20.8129C48.8445 20.8128 48.5879 20.8659 48.3521 20.9685C48.1164 21.071 47.9071 21.2206 47.739 21.4069C47.5615 21.5924 47.4289 21.812 47.3503 22.0505C47.2717 22.289 47.2491 22.5407 47.2839 22.7882V26.6697H46.1094V17.0143H47.2839V20.882Z" fill="#231F20"/>
<path d="M55.0354 26.6006H53.8756V17.0143H55.0354V21.1582C55.2985 20.7621 55.6642 20.4352 56.0981 20.2081C56.532 19.981 57.02 19.8612 57.5165 19.8598C57.986 19.8656 58.4491 19.9627 58.8768 20.1449C59.3045 20.3271 59.6876 20.5906 60.0019 20.9188C60.3162 21.247 60.555 21.6328 60.7033 22.0519C60.8517 22.4711 60.9063 22.9145 60.8637 23.3545C60.9085 23.7883 60.857 24.2261 60.7127 24.6402C60.5683 25.0543 60.3342 25.4357 60.0251 25.7603C59.716 26.0849 59.3386 26.3456 58.9169 26.5259C58.4952 26.7062 58.0384 26.8022 57.5752 26.8078C57.0702 26.8173 56.5711 26.7041 56.1262 26.479C55.6812 26.254 55.3055 25.9248 55.0354 25.5232V26.6006ZM55.0354 23.2854C54.982 23.5992 55.0016 23.9202 55.0929 24.2262C55.1841 24.5321 55.3449 24.8158 55.564 25.0577C55.7832 25.2995 56.0555 25.4937 56.3621 25.6268C56.6688 25.76 57.0025 25.829 57.3403 25.829C57.6781 25.829 58.0118 25.76 58.3185 25.6268C58.6251 25.4937 58.8974 25.2995 59.1166 25.0577C59.3357 24.8158 59.4965 24.5321 59.5877 24.2262C59.679 23.9202 59.6986 23.5992 59.6452 23.2854C59.6986 22.9716 59.679 22.6507 59.5877 22.3447C59.4965 22.0387 59.3357 21.7551 59.1166 21.5132C58.8974 21.2714 58.6251 21.0772 58.3185 20.944C58.0118 20.8109 57.6781 20.7419 57.3403 20.7419C57.0025 20.7419 56.6688 20.8109 56.3621 20.944C56.0555 21.0772 55.7832 21.2714 55.564 21.5132C55.3449 21.7551 55.1841 22.0387 55.0929 22.3447C55.0016 22.6507 54.982 22.9716 55.0354 23.2854Z" fill="#231F20"/>
<path d="M69.2321 23.299C69.2419 23.7504 69.1556 24.199 68.9784 24.6185C68.8011 25.038 68.5364 25.4199 68.1998 25.7417C67.8633 26.0635 67.4617 26.3187 67.0188 26.4922C66.5758 26.6658 66.1004 26.7542 65.6206 26.7523C65.1384 26.7628 64.6592 26.6788 64.2133 26.5058C63.7675 26.3327 63.3647 26.0743 63.0306 25.747C62.6965 25.4197 62.4384 25.0306 62.2727 24.6044C62.107 24.1782 62.0372 23.7243 62.0679 23.2714C62.0366 22.8155 62.1075 22.3585 62.276 21.9301C62.4445 21.5017 62.7069 21.1114 63.046 20.7845C63.3851 20.4576 63.7935 20.2014 64.2446 20.0325C64.6957 19.8637 65.1795 19.7859 65.6647 19.8043C66.1482 19.7959 66.6283 19.8816 67.0749 20.0561C67.5216 20.2306 67.925 20.49 68.26 20.8182C68.595 21.1463 68.8543 21.5361 69.0216 21.963C69.1888 22.3899 69.2605 22.8448 69.2321 23.299ZM63.257 23.299C63.2262 23.6128 63.2657 23.9292 63.373 24.2277C63.4803 24.5262 63.653 24.8002 63.8799 25.0319C64.1069 25.2637 64.383 25.448 64.6904 25.5731C64.9979 25.6981 65.3298 25.761 65.6647 25.7577C65.9964 25.7551 66.324 25.6879 66.6269 25.5605C66.9298 25.4331 67.2014 25.2481 67.4247 25.0172C67.648 24.7864 67.8182 24.5146 67.9246 24.2189C68.031 23.9232 68.0713 23.61 68.043 23.299C68.0803 22.9824 68.0462 22.6619 67.943 22.3585C67.8398 22.0551 67.6697 21.7756 67.4439 21.5383C67.218 21.3009 66.9416 21.111 66.6324 20.981C66.3233 20.851 65.9886 20.7839 65.65 20.7839C65.3114 20.7839 64.9766 20.851 64.6675 20.981C64.3584 21.111 64.0819 21.3009 63.8561 21.5383C63.6303 21.7756 63.4602 22.0551 63.357 22.3585C63.2537 22.6619 63.2197 22.9824 63.257 23.299Z" fill="#231F20"/>
<path d="M76.3225 19.9976H77.4823V26.6279H76.3225V25.3433C76.0625 25.7669 75.6877 26.118 75.2363 26.3607C74.785 26.6034 74.2732 26.729 73.7533 26.7246C73.289 26.7187 72.831 26.6227 72.4079 26.4427C71.9849 26.2627 71.6058 26.0025 71.2944 25.6784C70.983 25.3543 70.746 24.9733 70.5982 24.5591C70.4504 24.1449 70.395 23.7065 70.4354 23.2713C70.3973 22.8322 70.455 22.3904 70.6049 21.973C70.7549 21.5556 70.9939 21.1715 71.3074 20.8442C71.6209 20.5169 72.0021 20.2534 72.4278 20.0698C72.8535 19.8862 73.3145 19.7864 73.7827 19.7766C74.285 19.7641 74.7822 19.8732 75.2269 20.0933C75.6716 20.3133 76.0488 20.6371 76.3225 21.0336V19.9976ZM72.2412 21.5999C71.8645 22.116 71.6647 22.7282 71.6686 23.3542C71.6426 23.6551 71.6809 23.9579 71.7811 24.2448C71.8812 24.5316 72.0414 24.7967 72.252 25.0245C72.4626 25.2523 72.7195 25.4381 73.0076 25.5712C73.2957 25.7042 73.6091 25.7817 73.9295 25.7991C74.6112 25.753 75.2462 25.456 75.6968 24.9726C76.1475 24.4891 76.3775 23.858 76.3371 23.2161C76.3657 22.9064 76.3254 22.5944 76.2187 22.3002C76.112 22.006 75.9414 21.7359 75.7176 21.5072C75.4939 21.2785 75.2219 21.0961 74.9191 20.9718C74.6163 20.8474 74.2892 20.7838 73.9588 20.785C73.6246 20.7654 73.2907 20.8276 72.9897 20.9656C72.6887 21.1036 72.4308 21.3126 72.2412 21.5723V21.5999Z" fill="#231F20"/>
<path d="M80.9766 19.9978V21.1167C81.097 20.7735 81.3215 20.4709 81.6225 20.2464C82.0112 19.9708 82.4865 19.8249 82.9732 19.832H83.2374V20.9509H82.9144C82.6224 20.9553 82.336 21.0269 82.0802 21.1593C81.8243 21.2917 81.6067 21.481 81.4463 21.7106C81.1293 22.1737 80.9848 22.7227 81.0353 23.2715V26.6419H79.8755V19.9978H80.9766Z" fill="#231F20"/>
<path d="M89.7119 17.0143H90.8717V26.6006H89.7119V25.5232C89.4449 25.9253 89.0723 26.256 88.63 26.4834C88.1878 26.7108 87.6908 26.8273 87.1868 26.8216C86.7232 26.8176 86.2655 26.7233 85.8425 26.5448C85.4194 26.3664 85.0402 26.1075 84.7286 25.7845C84.417 25.4614 84.1798 25.0813 84.0318 24.6679C83.8839 24.2544 83.8284 23.8167 83.8689 23.3821C83.8309 22.9446 83.8876 22.5043 84.0356 22.088C84.1837 21.6717 84.4199 21.2879 84.73 20.9599C85.0402 20.632 85.4178 20.3666 85.8401 20.1799C86.2624 19.9931 86.7205 19.889 87.1868 19.8736C87.677 19.8642 88.1623 19.966 88.6018 20.1704C89.0414 20.3747 89.4221 20.6757 89.7119 21.0477V17.0143ZM85.0875 23.3269C85.0508 23.6311 85.0814 23.9392 85.1772 24.2319C85.273 24.5245 85.4321 24.7953 85.6443 25.0274C85.8565 25.2596 86.1175 25.4479 86.4107 25.5808C86.7039 25.7136 87.0231 25.7881 87.3483 25.7994C87.6808 25.7893 88.0077 25.7156 88.309 25.5828C88.6103 25.45 88.8797 25.2609 89.1008 25.027C89.322 24.7931 89.4902 24.5193 89.5952 24.2222C89.7003 23.9252 89.74 23.6112 89.7119 23.2993C89.7529 22.991 89.7252 22.6782 89.6306 22.3806C89.5361 22.083 89.3767 21.8072 89.1627 21.5707C88.9486 21.3342 88.6846 21.1423 88.3874 21.007C88.0902 20.8718 87.7663 20.7963 87.4364 20.7853C87.0996 20.7927 86.7682 20.8663 86.4633 21.0011C86.1584 21.1359 85.8867 21.3291 85.6657 21.5683C85.4446 21.8074 85.279 22.0874 85.1795 22.3902C85.0799 22.693 85.0486 23.012 85.0875 23.3269Z" fill="#231F20"/>
<path opacity="0.25" d="M333.781 4.03003H193.241V40.7729H333.781V4.03003Z" fill="#2E307D"/>
<path d="M214.206 26.6006H212.958V18.0503H210.315V17.0143H216.775V18.0503H214.206V26.6006Z" fill="#231F20"/>
<path d="M218.037 23.6308C218.046 24.0716 218.206 24.498 218.493 24.8464C218.709 25.1278 218.994 25.3562 219.323 25.5124C219.653 25.6686 220.017 25.7481 220.386 25.7442C220.813 25.7448 221.233 25.6407 221.603 25.442C221.974 25.2434 222.283 24.9571 222.5 24.6116L223.513 24.9707C223.223 25.5145 222.776 25.9703 222.223 26.2855C221.67 26.6007 221.033 26.7626 220.386 26.7526C219.904 26.7667 219.425 26.6864 218.977 26.5167C218.53 26.347 218.125 26.0917 217.788 25.767C217.452 25.4423 217.19 25.0553 217.021 24.6305C216.851 24.2057 216.778 23.7523 216.804 23.2993C216.798 22.8603 216.883 22.4244 217.055 22.0164C217.227 21.6084 217.483 21.2363 217.809 20.9214C218.134 20.6066 218.522 20.355 218.95 20.1811C219.378 20.0073 219.839 19.9145 220.306 19.9082C220.772 19.9018 221.236 19.982 221.669 20.1441C222.103 20.3063 222.498 20.5472 222.833 20.8531C223.168 21.159 223.435 21.5239 223.62 21.9271C223.804 22.3302 223.903 22.7636 223.91 23.2026C223.91 23.2855 223.91 23.4789 223.91 23.6308H218.037ZM222.677 22.8297C222.669 22.4231 222.531 22.0283 222.28 21.697C222.056 21.4123 221.764 21.1814 221.427 21.023C221.091 20.8646 220.719 20.7831 220.342 20.7853C219.97 20.7797 219.602 20.8614 219.271 21.0229C218.941 21.1845 218.658 21.4209 218.449 21.7108C218.225 22.0494 218.089 22.4326 218.052 22.8297H222.677Z" fill="#231F20"/>
<path d="M226.758 19.9981V20.9098C226.951 20.5733 227.241 20.2943 227.593 20.104C227.946 19.9137 228.348 19.8196 228.754 19.8323C229.17 19.8 229.585 19.9031 229.93 20.1244C230.275 20.3457 230.528 20.6717 230.648 21.0479C230.852 20.6614 231.173 20.3401 231.569 20.1239C231.966 19.9077 232.422 19.8063 232.88 19.8323C233.216 19.8066 233.555 19.8571 233.866 19.9797C234.178 20.1023 234.454 20.2933 234.671 20.5368C235.049 21.084 235.2 21.7425 235.097 22.3878V26.6284H233.937V22.6088C233.937 21.8076 233.937 21.628 233.746 21.3518C233.605 21.17 233.419 21.0234 233.204 20.9247C232.989 20.826 232.752 20.7782 232.513 20.7854C231.5 20.7854 230.927 21.4347 230.927 22.6088V26.6008H229.767V22.6226C229.811 22.1913 229.73 21.757 229.532 21.3656C229.421 21.1759 229.253 21.0203 229.05 20.9175C228.847 20.8147 228.617 20.7688 228.387 20.7854C227.374 20.7854 226.758 21.4761 226.758 22.6226V26.6008H225.598V19.9981H226.758Z" fill="#231F20"/>
<path d="M238.429 19.9982V21.1999C238.674 20.764 239.045 20.4026 239.5 20.158C239.955 19.9133 240.475 19.7956 240.998 19.8186C241.462 19.8187 241.92 19.9097 242.344 20.086C242.768 20.2622 243.149 20.5198 243.461 20.8422C243.773 21.1646 244.01 21.5448 244.158 21.9584C244.305 22.372 244.359 22.8099 244.316 23.2443C244.365 23.6845 244.316 24.1296 244.172 24.5511C244.028 24.9726 243.793 25.3613 243.481 25.6926C243.169 26.0239 242.787 26.2904 242.36 26.4753C241.932 26.6602 241.468 26.7594 240.998 26.7666C240.487 26.761 239.984 26.6427 239.53 26.4213C239.111 26.2356 238.755 25.9438 238.502 25.5787V29.7226H237.343V19.9982H238.429ZM238.429 23.4238C238.394 23.7289 238.427 24.0375 238.528 24.3293C238.629 24.6212 238.795 24.8895 239.014 25.1167C239.233 25.3439 239.501 25.5247 239.8 25.6472C240.099 25.7697 240.422 25.8311 240.748 25.8273C241.084 25.8222 241.414 25.7505 241.717 25.6169C242.021 25.4834 242.291 25.2909 242.51 25.0523C242.729 24.8136 242.892 24.5341 242.988 24.232C243.084 23.93 243.112 23.6122 243.068 23.2995C243.116 22.6509 242.901 22.0092 242.466 21.5038C242.252 21.2874 241.993 21.1145 241.705 20.9958C241.417 20.877 241.107 20.8148 240.793 20.8132C240.452 20.8244 240.119 20.9018 239.812 21.0403C239.505 21.1789 239.232 21.3756 239.01 21.6182C238.788 21.8608 238.622 22.144 238.522 22.45C238.422 22.756 238.39 23.0782 238.429 23.3962V23.4238Z" fill="#231F20"/>
<path d="M246.064 26.6006V17.0143H247.238V26.6006H246.064Z" fill="#231F20"/>
<path d="M254.887 19.9976H256.046V26.6279H254.887V25.3433C254.627 25.7669 254.252 26.118 253.8 26.3607C253.349 26.6034 252.837 26.729 252.317 26.7246C251.853 26.7187 251.395 26.6227 250.972 26.4427C250.549 26.2627 250.17 26.0025 249.858 25.6784C249.547 25.3543 249.31 24.9733 249.162 24.5591C249.015 24.1449 248.959 23.7065 249 23.2713C248.961 22.8322 249.019 22.3904 249.169 21.973C249.319 21.5556 249.558 21.1715 249.871 20.8442C250.185 20.5169 250.566 20.2534 250.992 20.0698C251.418 19.8862 251.879 19.7864 252.347 19.7766C252.849 19.7641 253.346 19.8732 253.791 20.0933C254.236 20.3133 254.613 20.6371 254.887 21.0336V19.9976ZM250.805 21.5999C250.429 22.116 250.229 22.7282 250.233 23.3542C250.203 23.6573 250.238 23.9631 250.336 24.2531C250.434 24.5432 250.594 24.8117 250.805 25.0425C251.016 25.2732 251.274 25.4617 251.564 25.5964C251.854 25.7312 252.17 25.8095 252.494 25.8267C253.175 25.7806 253.81 25.4837 254.261 25.0002C254.712 24.5167 254.942 23.8856 254.901 23.2437C254.934 22.9375 254.899 22.6284 254.798 22.3355C254.698 22.0427 254.535 21.7724 254.318 21.5417C254.102 21.311 253.837 21.1247 253.541 20.9945C253.245 20.8643 252.923 20.7929 252.596 20.785C252.25 20.7529 251.901 20.809 251.586 20.9476C251.271 21.0861 251.001 21.3019 250.805 21.5723V21.5999Z" fill="#231F20"/>
<path d="M259.585 25.2465C259.585 25.5781 259.687 25.6471 260.113 25.6471H260.642V26.6002H259.555C258.733 26.6002 258.41 26.2963 258.41 25.5642V20.9369H257.441V19.9976H258.469V17.8842H259.643V19.9976H260.7V20.9645H259.643L259.585 25.2465Z" fill="#231F20"/>
<path d="M262.873 23.6312C262.887 24.0709 263.046 24.4956 263.328 24.8468C263.545 25.1273 263.83 25.3551 264.159 25.5112C264.489 25.6674 264.853 25.7474 265.222 25.7446C265.649 25.748 266.07 25.645 266.441 25.4461C266.812 25.2472 267.121 24.9594 267.336 24.6119L268.364 24.9711C267.988 25.6438 267.381 26.1767 266.642 26.4827C265.903 26.7887 265.075 26.8496 264.294 26.6555C263.513 26.4614 262.825 26.0238 262.343 25.4142C261.861 24.8046 261.613 24.0591 261.64 23.2997C261.602 22.8426 261.665 22.3831 261.823 21.9496C261.982 21.5161 262.233 21.1177 262.561 20.7791C262.89 20.4404 263.289 20.1687 263.733 19.9806C264.177 19.7925 264.658 19.692 265.145 19.6854C265.632 19.6788 266.116 19.7662 266.566 19.9421C267.016 20.1181 267.423 20.3789 267.761 20.7085C268.1 21.038 268.363 21.4294 268.535 21.8584C268.707 22.2875 268.783 22.7451 268.76 23.203C268.76 23.2859 268.76 23.4793 268.76 23.6312H262.873ZM267.512 22.83C267.504 22.4235 267.366 22.0287 267.116 21.6974C266.892 21.4127 266.599 21.1818 266.263 21.0234C265.926 20.8649 265.554 20.7835 265.178 20.7857C264.805 20.7801 264.437 20.8618 264.107 21.0233C263.776 21.1849 263.493 21.4212 263.284 21.7112C263.068 22.0529 262.933 22.4346 262.888 22.83H267.512Z" fill="#231F20"/>
<path d="M278.229 21.7797C278.229 21.1581 277.701 20.7714 276.893 20.7714C276.086 20.7714 275.616 21.1443 275.616 21.7245C275.616 22.3046 275.924 22.5118 277.187 22.8433C277.821 22.9492 278.413 23.2114 278.904 23.6031C279.265 23.9496 279.466 24.4164 279.462 24.9015C279.462 26.048 278.464 26.8215 276.967 26.8215C275.469 26.8215 274.456 26.1171 274.339 24.7772H275.484C275.492 24.9464 275.538 25.112 275.618 25.2638C275.698 25.4155 275.811 25.5501 275.948 25.6591C276.086 25.768 276.247 25.849 276.419 25.8969C276.592 25.9448 276.773 25.9586 276.952 25.9375C277.745 25.9375 278.258 25.5507 278.258 24.9568C278.258 24.3628 277.862 24.0865 276.658 23.8103C275.19 23.4235 274.441 22.8157 274.441 21.8074C274.441 20.799 275.44 19.8735 276.923 19.8735C277.225 19.8321 277.533 19.8521 277.827 19.9321C278.121 20.0121 278.393 20.1503 278.625 20.3374C278.857 20.5245 279.044 20.7561 279.173 21.0168C279.303 21.2775 279.371 21.5612 279.374 21.8488L278.229 21.7797Z" fill="#231F20"/>
<path d="M281.958 23.6312C281.966 24.072 282.126 24.4983 282.413 24.8468C282.629 25.1281 282.914 25.3565 283.244 25.5128C283.573 25.669 283.938 25.7485 284.307 25.7446C284.734 25.748 285.155 25.645 285.526 25.4461C285.897 25.2472 286.206 24.9594 286.421 24.6119L287.449 24.9711C287.073 25.6438 286.466 26.1767 285.727 26.4827C284.987 26.7887 284.16 26.8496 283.379 26.6555C282.598 26.4614 281.91 26.0238 281.428 25.4142C280.946 24.8046 280.698 24.0591 280.725 23.2997C280.687 22.8426 280.75 22.3831 280.908 21.9496C281.067 21.5161 281.318 21.1177 281.646 20.7791C281.975 20.4404 282.374 20.1687 282.818 19.9806C283.262 19.7925 283.743 19.692 284.23 19.6854C284.717 19.6788 285.201 19.7662 285.651 19.9421C286.101 20.1181 286.508 20.3789 286.846 20.7085C287.185 21.038 287.448 21.4294 287.62 21.8584C287.792 22.2875 287.868 22.7451 287.845 23.203C287.845 23.2859 287.845 23.4793 287.845 23.6312H281.958ZM286.597 22.83C286.589 22.4235 286.451 22.0287 286.201 21.6974C285.977 21.4127 285.684 21.1818 285.348 21.0234C285.011 20.8649 284.639 20.7835 284.263 20.7857C283.89 20.7801 283.522 20.8618 283.192 21.0233C282.861 21.1849 282.578 21.4212 282.369 21.7112C282.153 22.0529 282.018 22.4346 281.973 22.83H286.597Z" fill="#231F20"/>
<path d="M294.98 25.7722C294.639 26.0908 294.233 26.3418 293.787 26.5102C293.34 26.6787 292.863 26.7612 292.382 26.7529C291.908 26.758 291.439 26.6704 291.003 26.4959C290.568 26.3214 290.175 26.0637 289.851 25.739C289.527 25.4144 289.278 25.03 289.119 24.6101C288.961 24.1902 288.897 23.744 288.932 23.2997C288.899 22.6244 289.085 21.9556 289.464 21.3816C289.844 20.8076 290.399 20.3554 291.058 20.0846C291.716 19.8138 292.446 19.7372 293.152 19.8648C293.857 19.9924 294.505 20.3183 295.01 20.7995L294.261 21.504C293.779 21.0677 293.139 20.8207 292.47 20.8133C292.14 20.8137 291.814 20.8791 291.512 21.0053C291.211 21.1314 290.941 21.3156 290.72 21.5459C290.498 21.7762 290.331 22.0475 290.228 22.3425C290.125 22.6374 290.088 22.9493 290.121 23.2582C290.086 23.5684 290.121 23.882 290.222 24.1791C290.323 24.4762 290.488 24.7503 290.707 24.9841C290.927 25.2178 291.196 25.4061 291.496 25.537C291.797 25.668 292.124 25.7386 292.455 25.7446C292.793 25.7482 293.127 25.6863 293.438 25.5627C293.749 25.4391 294.029 25.2565 294.261 25.0263L294.98 25.7722Z" fill="#231F20"/>
<path d="M297.975 25.2465C297.975 25.5781 298.078 25.6471 298.503 25.6471H299.047V26.6002H297.96C297.138 26.6002 296.815 26.2963 296.815 25.5642V20.9369H295.832V19.9976H296.815V17.8842H297.975V19.9976H299.047V20.9645H297.975V25.2465Z" fill="#231F20"/>
<path d="M301.909 18.1194C301.909 18.2113 301.889 18.3022 301.852 18.3869C301.814 18.4716 301.758 18.5484 301.689 18.6127C301.619 18.677 301.536 18.7276 301.446 18.7615C301.355 18.7954 301.258 18.8119 301.16 18.8101C301.011 18.81 300.866 18.7683 300.743 18.6903C300.619 18.6123 300.523 18.5014 300.467 18.3719C300.411 18.2424 300.397 18.1 300.427 17.963C300.457 17.826 300.53 17.7005 300.636 17.6025C300.742 17.5046 300.877 17.4386 301.023 17.413C301.17 17.3874 301.32 17.4034 301.457 17.4588C301.594 17.5142 301.709 17.6067 301.79 17.7243C301.87 17.842 301.912 17.9795 301.909 18.1194ZM301.747 26.6007H300.588V19.998H301.747V26.6007Z" fill="#231F20"/>
<path d="M310.674 23.2993C310.684 23.7495 310.598 24.197 310.421 24.6156C310.245 25.0342 309.982 25.4154 309.647 25.737C309.312 26.0587 308.912 26.3141 308.471 26.4885C308.029 26.6629 307.556 26.7526 307.077 26.7526C306.594 26.765 306.113 26.6825 305.665 26.5103C305.217 26.3381 304.813 26.08 304.477 25.7525C304.142 25.4249 303.882 25.0352 303.716 24.608C303.549 24.1809 303.479 23.7257 303.509 23.2716C303.509 22.3778 303.887 21.5205 304.559 20.8884C305.23 20.2563 306.142 19.9012 307.092 19.9012C308.042 19.9012 308.953 20.2563 309.625 20.8884C310.296 21.5205 310.674 22.3778 310.674 23.2716V23.2993ZM304.713 23.2993C304.68 23.6123 304.718 23.9284 304.823 24.2269C304.929 24.5254 305.1 24.7996 305.326 25.0317C305.552 25.2637 305.827 25.4483 306.134 25.5734C306.441 25.6986 306.772 25.7615 307.106 25.758C307.438 25.7553 307.766 25.6882 308.069 25.5608C308.371 25.4333 308.643 25.2484 308.866 25.0175C309.09 24.7866 309.26 24.5148 309.366 24.2192C309.473 23.9235 309.513 23.6103 309.485 23.2993C309.51 22.9897 309.468 22.6784 309.36 22.3851C309.252 22.0917 309.08 21.8226 308.856 21.5945C308.632 21.3665 308.36 21.1846 308.058 21.0602C307.755 20.9357 307.429 20.8715 307.099 20.8715C306.769 20.8715 306.442 20.9357 306.14 21.0602C305.838 21.1846 305.566 21.3665 305.342 21.5945C305.118 21.8226 304.946 22.0917 304.838 22.3851C304.73 22.6784 304.688 22.9897 304.713 23.2993Z" fill="#231F20"/>
<path d="M313.61 19.9982V20.9375C313.8 20.6515 314.052 20.4072 314.351 20.2212C314.649 20.0351 314.987 19.9117 315.341 19.8593C315.694 19.8069 316.056 19.8267 316.401 19.9174C316.746 20.0081 317.066 20.1676 317.339 20.385C317.573 20.6189 317.749 20.899 317.853 21.2049C317.957 21.5108 317.987 21.8348 317.941 22.1531V26.6285H316.781V22.3741C316.832 21.9749 316.739 21.5711 316.517 21.2276C316.377 21.0853 316.206 20.9724 316.017 20.8962C315.827 20.82 315.622 20.7823 315.416 20.7856C315.163 20.7833 314.913 20.8328 314.682 20.9306C314.451 21.0284 314.246 21.1721 314.08 21.3519C313.916 21.5096 313.789 21.6982 313.708 21.9054C313.627 22.1125 313.594 22.3335 313.61 22.5537V26.6009H312.45V19.9982H313.61Z" fill="#231F20"/>
<path d="M109.839 22.4015H186.796" stroke="#231F20" stroke-width="0.75" stroke-miterlimit="10"/>
<path d="M185.181 27.5679L194.694 22.4018L185.181 17.2357V27.5679Z" fill="#231F20"/>
<path d="M333.782 22.4015H410.739" stroke="#231F20" stroke-width="0.75" stroke-miterlimit="10"/>
<path d="M409.138 27.5679L418.637 22.4018L409.138 17.2357V27.5679Z" fill="#231F20"/>
<path opacity="0.25" d="M557.739 4.03003H417.199V40.7729H557.739V4.03003Z" fill="#2E307D"/>
<path d="M450.671 26.6006H449.321V17.0143H450.495L455.942 24.2247V17.0143H457.219V26.6006H456.088L450.612 19.2658L450.671 26.6006Z" fill="#231F20"/>
<path d="M465.043 19.9977H466.202V26.628H465.043V25.3434C464.783 25.767 464.408 26.1181 463.957 26.3608C463.505 26.6035 462.993 26.7291 462.474 26.7247C462.009 26.7187 461.551 26.6228 461.128 26.4427C460.705 26.2627 460.326 26.0026 460.015 25.6785C459.703 25.3544 459.466 24.9733 459.319 24.5592C459.171 24.145 459.115 23.7066 459.156 23.2714C459.122 22.8322 459.183 22.3911 459.337 21.9752C459.491 21.5592 459.733 21.1772 460.049 20.8525C460.365 20.5279 460.749 20.2674 461.176 20.0872C461.603 19.9069 462.064 19.8107 462.532 19.8043C463.035 19.7919 463.532 19.9009 463.977 20.121C464.421 20.341 464.798 20.6648 465.072 21.0613L465.043 19.9977ZM460.961 21.6C460.58 22.1149 460.376 22.7269 460.374 23.3543C460.346 23.657 460.383 23.962 460.482 24.2513C460.581 24.5405 460.741 24.8082 460.951 25.0386C461.162 25.269 461.419 25.4574 461.708 25.5928C461.998 25.7281 462.313 25.8077 462.635 25.8268C463.319 25.7842 463.958 25.4887 464.412 25.0049C464.866 24.521 465.098 23.888 465.057 23.2438C465.086 22.9341 465.046 22.6222 464.939 22.3279C464.832 22.0337 464.662 21.7636 464.438 21.5349C464.214 21.3062 463.942 21.1238 463.639 20.9995C463.337 20.8751 463.01 20.8115 462.679 20.8127C462.348 20.7901 462.015 20.8481 461.715 20.9811C461.414 21.1142 461.154 21.3178 460.961 21.5724V21.6Z" fill="#231F20"/>
<path d="M469.697 19.9976V20.9092C469.894 20.5728 470.186 20.2941 470.541 20.104C470.896 19.9138 471.3 19.8197 471.708 19.8318C472.124 19.8021 472.537 19.9062 472.882 20.1271C473.226 20.348 473.48 20.6726 473.602 21.0474C473.804 20.6598 474.125 20.3374 474.522 20.121C474.919 19.9046 475.375 19.804 475.834 19.8318C476.168 19.8083 476.503 19.86 476.812 19.9825C477.121 20.1049 477.394 20.2948 477.61 20.5363C477.988 21.0835 478.139 21.742 478.036 22.3872V26.6279H476.876V22.6083C476.876 21.8071 476.876 21.6275 476.685 21.3513C476.551 21.166 476.369 21.0164 476.155 20.9172C475.941 20.8179 475.704 20.7724 475.467 20.7849C474.439 20.7849 473.866 21.4341 473.866 22.6083V26.6002H472.706V22.6221C472.746 22.1923 472.671 21.76 472.486 21.3651C472.372 21.1776 472.204 21.0239 472.002 20.9214C471.799 20.8189 471.571 20.7716 471.341 20.7849C470.314 20.7849 469.697 21.4756 469.697 22.6221V26.6002H468.537V19.9976H469.697Z" fill="#231F20"/>
<path d="M481.002 23.6312C481.022 24.0723 481.186 24.4968 481.472 24.8468C481.688 25.1281 481.973 25.3565 482.303 25.5128C482.632 25.669 482.997 25.7485 483.366 25.7446C483.79 25.7456 484.208 25.6414 484.577 25.4426C484.945 25.2438 485.251 24.9573 485.465 24.6119L486.493 24.9711C486.2 25.5128 485.752 25.9668 485.199 26.2817C484.647 26.5965 484.012 26.7598 483.366 26.753C482.883 26.7669 482.403 26.6866 481.955 26.5171C481.507 26.3475 481.101 26.0925 480.763 25.768C480.425 25.4435 480.162 25.0567 479.991 24.6318C479.82 24.207 479.744 23.7534 479.769 23.2997C479.731 22.8426 479.794 22.3831 479.952 21.9496C480.111 21.5161 480.362 21.1177 480.691 20.7791C481.019 20.4404 481.418 20.1687 481.862 19.9806C482.306 19.7925 482.787 19.692 483.274 19.6854C483.762 19.6788 484.245 19.7662 484.695 19.9421C485.145 20.1181 485.552 20.3789 485.89 20.7085C486.229 21.038 486.493 21.4294 486.664 21.8584C486.836 22.2875 486.913 22.7451 486.889 23.203C486.889 23.2859 486.889 23.4793 486.889 23.6312H481.002ZM485.656 22.83C485.641 22.4246 485.504 22.0316 485.26 21.6974C485.034 21.4143 484.741 21.1846 484.405 21.0263C484.069 20.8681 483.698 20.7857 483.322 20.7857C482.947 20.7803 482.577 20.8619 482.244 21.0233C481.911 21.1848 481.626 21.421 481.413 21.7112C481.202 22.0551 481.067 22.4357 481.017 22.83H485.656Z" fill="#231F20"/>
<path d="M494.435 26.6003H493.275V20.9369H492.321V19.9977H493.275V19.0998C493.275 17.8014 493.994 17.0278 495.213 17.0278H495.536V17.9948C494.699 18.0914 494.464 18.3125 494.435 19.086V19.9977H495.536V20.9646H494.435V26.6003Z" fill="#231F20"/>
<path d="M503.523 23.2989C503.532 23.7491 503.447 24.1967 503.27 24.6152C503.094 25.0338 502.83 25.4151 502.496 25.7367C502.161 26.0583 501.761 26.3138 501.319 26.4882C500.878 26.6625 500.404 26.7523 499.926 26.7522C499.438 26.7726 498.95 26.6959 498.496 26.5272C498.041 26.3586 497.629 26.1017 497.287 25.7733C496.945 25.4449 496.68 25.0523 496.51 24.6213C496.34 24.1902 496.268 23.7302 496.3 23.2713C496.271 22.8148 496.343 22.3575 496.514 21.9291C496.684 21.5007 496.948 21.1105 497.288 20.7839C497.628 20.4572 498.037 20.2013 498.489 20.0326C498.941 19.8638 499.425 19.786 499.911 19.8042C500.398 19.79 500.883 19.8714 501.335 20.0433C501.787 20.2152 502.196 20.4738 502.536 20.8025C502.875 21.1313 503.139 21.5231 503.309 21.9529C503.479 22.3827 503.551 22.8412 503.523 23.2989ZM497.548 23.2989C497.51 23.6156 497.544 23.936 497.648 24.2394C497.751 24.5428 497.921 24.8223 498.147 25.0597C498.372 25.297 498.649 25.4869 498.958 25.6169C499.267 25.7469 499.602 25.8141 499.941 25.8141C500.279 25.8141 500.614 25.7469 500.923 25.6169C501.232 25.4869 501.509 25.297 501.734 25.0597C501.96 24.8223 502.13 24.5428 502.234 24.2394C502.337 23.936 502.371 23.6156 502.333 23.2989C502.371 22.9867 502.337 22.6706 502.236 22.3714C502.134 22.0722 501.965 21.7967 501.742 21.5631C501.519 21.3294 501.245 21.143 500.94 21.016C500.634 20.8891 500.304 20.8244 499.97 20.8264C499.634 20.8212 499.3 20.8826 498.991 21.0068C498.682 21.131 498.404 21.315 498.175 21.547C497.947 21.779 497.773 22.0536 497.665 22.3531C497.556 22.6526 497.517 22.9702 497.548 23.2851V23.2989Z" fill="#231F20"/>
<path d="M505.299 26.6006V17.0143H506.458V26.6006H505.299Z" fill="#231F20"/>
<path d="M514.063 17.0143H515.222V26.6006H514.063V25.5232C513.805 25.9299 513.436 26.2647 512.995 26.4929C512.553 26.7211 512.056 26.8346 511.552 26.8216C511.089 26.8175 510.631 26.7233 510.208 26.5448C509.785 26.3664 509.406 26.1075 509.094 25.7845C508.782 25.4614 508.545 25.0813 508.397 24.6679C508.249 24.2544 508.194 23.8167 508.234 23.3821C508.196 22.9446 508.253 22.5043 508.401 22.088C508.549 21.6717 508.785 21.2879 509.096 20.9599C509.406 20.632 509.783 20.3666 510.206 20.1799C510.628 19.9931 511.086 19.889 511.552 19.8736C512.04 19.8641 512.524 19.966 512.961 20.1704C513.398 20.3749 513.776 20.6759 514.063 21.0477V17.0143ZM509.512 23.3269C509.475 23.6311 509.506 23.9392 509.601 24.2318C509.697 24.5245 509.856 24.7953 510.068 25.0274C510.281 25.2596 510.542 25.4479 510.835 25.5808C511.128 25.7136 511.447 25.7881 511.772 25.7994C512.104 25.7894 512.431 25.7157 512.731 25.5827C513.032 25.4498 513.3 25.2604 513.52 25.0263C513.74 24.7921 513.907 24.5182 514.01 24.2212C514.114 23.9242 514.152 23.6105 514.121 23.2992C514.162 22.991 514.135 22.6782 514.04 22.3806C513.946 22.083 513.786 21.8072 513.572 21.5707C513.358 21.3342 513.094 21.1423 512.797 21.007C512.5 20.8718 512.176 20.7963 511.846 20.7853C511.51 20.7946 511.181 20.8695 510.877 21.0052C510.574 21.1408 510.304 21.3343 510.085 21.5732C509.865 21.8122 509.701 22.0915 509.602 22.3934C509.504 22.6953 509.473 23.0132 509.512 23.3269Z" fill="#231F20"/>
<path d="M518.321 23.6312C518.329 24.072 518.489 24.4983 518.776 24.8468C518.992 25.1281 519.277 25.3565 519.606 25.5128C519.936 25.669 520.301 25.7485 520.67 25.7446C521.094 25.7456 521.512 25.6414 521.88 25.4426C522.249 25.2438 522.555 24.9573 522.769 24.6119L523.797 24.9711C523.505 25.5139 523.057 25.9687 522.505 26.2838C521.952 26.5988 521.316 26.7614 520.67 26.753C520.187 26.7669 519.707 26.6866 519.259 26.5171C518.811 26.3475 518.405 26.0925 518.067 25.768C517.729 25.4435 517.466 25.0567 517.295 24.6318C517.124 24.207 517.048 23.7534 517.073 23.2997C517.035 22.8426 517.098 22.3831 517.256 21.9496C517.415 21.5161 517.666 21.1177 517.995 20.7791C518.323 20.4404 518.722 20.1687 519.166 19.9806C519.61 19.7925 520.091 19.692 520.578 19.6854C521.065 19.6788 521.549 19.7662 521.999 19.9421C522.449 20.1181 522.856 20.3789 523.194 20.7085C523.533 21.038 523.796 21.4294 523.968 21.8584C524.14 22.2875 524.216 22.7451 524.193 23.203C524.193 23.2859 524.193 23.4793 524.193 23.6312H518.321ZM522.96 22.83C522.952 22.4235 522.814 22.0287 522.563 21.6974C522.339 21.4127 522.047 21.1818 521.71 21.0234C521.374 20.8649 521.002 20.7835 520.626 20.7857C520.253 20.7801 519.885 20.8618 519.554 21.0233C519.224 21.1849 518.941 21.4212 518.732 21.7112C518.508 22.0497 518.372 22.433 518.335 22.83H522.96Z" fill="#231F20"/>
<path d="M526.968 19.9982V21.117C527.083 20.7752 527.303 20.4727 527.599 20.2468C527.989 19.973 528.463 19.8274 528.95 19.8324H529.229V20.9513H528.906C528.613 20.9545 528.327 21.0255 528.071 21.158C527.814 21.2906 527.597 21.4805 527.438 21.711C527.114 22.1714 526.969 22.7226 527.027 23.2719V26.6423H525.867V19.9982H526.968Z" fill="#231F20"/>
<path d="M557.739 22.4015H634.696" stroke="#231F20" stroke-width="0.75" stroke-miterlimit="10"/>
<path d="M633.095 27.5679L642.594 22.4018L633.095 17.2357V27.5679Z" fill="#231F20"/>
</svg>
