<svg xmlns="http://www.w3.org/2000/svg" viewBox="0 0 485.08 266.5"><defs><style>.cls-1{fill:#fff;}.cls-12,.cls-13,.cls-2,.cls-3,.cls-5{fill:none;}.cls-2,.cls-3,.cls-5{stroke:#070707;}.cls-12,.cls-2,.cls-3,.cls-5{stroke-miterlimit:10;}.cls-2{stroke-width:0.2px;}.cls-3{stroke-width:0.5px;}.cls-4{fill:#070707;}.cls-5{stroke-width:0.75px;}.cls-6{fill:#0f0f59;}.cls-7{fill:#e2ac9c;}.cls-8{fill:#f07262;}.cls-9{fill:#f0f0f0;}.cls-10{fill:#fe1e15;}.cls-11{fill:#fe3429;}.cls-12{stroke:#272525;}.cls-14{fill:#e8e8e8;}</style></defs><title>journal_2</title><g id="Layer_2" data-name="Layer 2"><g id="Layer_1-2" data-name="Layer 1"><rect class="cls-1" x="178.72" y="0.25" width="128.69" height="266" rx="18.97"/><circle class="cls-2" cx="243.06" cy="249.69" r="10.35"/><circle class="cls-2" cx="243.06" cy="249.69" r="9.32"/><rect class="cls-3" x="178.72" y="0.25" width="128.69" height="266" rx="18.97"/><polyline class="cls-3" points="178.72 44.76 177.68 44.76 177.68 34.41 178.72 34.41"/><polyline class="cls-3" points="178.72 76.5 177.68 76.5 177.68 57.18 178.72 57.18"/><polyline class="cls-3" points="178.72 100.65 177.68 100.65 177.68 81.33 178.72 81.33"/><circle class="cls-4" cx="243.06" cy="8.88" r="1.38"/><circle class="cls-4" cx="222.53" cy="17.85" r="2.07"/><rect class="cls-4" x="231.67" y="16.47" width="22.77" height="2.07" rx="0.76"/><line class="cls-5" x1="186.13" y1="33.03" x2="186.13" y2="234.51"/><rect class="cls-6" x="186.13" y="33.03" width="113.85" height="201.48"/><path class="cls-6" d="M296.91,53.33a17.74,17.74,0,0,1-20.24,0,16.49,16.49,0,0,0-10-3.12h-.22a16.49,16.49,0,0,0-10,3.12,17.74,17.74,0,0,1-20.24,0,17.44,17.44,0,0,0-19.91,0,17.74,17.74,0,0,1-20.24,0,16.48,16.48,0,0,0-9.95-3.12V99.28a16.72,16.72,0,0,1,10.12,3.17,17.43,17.43,0,0,0,19.9,0,17.75,17.75,0,0,1,20.25,0,17.44,17.44,0,0,0,19.91,0,17.74,17.74,0,0,1,20.24,0,16.42,16.42,0,0,0,9.95,3.12h.23a16.42,16.42,0,0,0,9.95-3.12,26.23,26.23,0,0,1,3.25-1.81v-49A26.36,26.36,0,0,0,296.91,53.33Z"/><path class="cls-7" d="M296.91,108.69a17.74,17.74,0,0,1-20.24,0,16.49,16.49,0,0,0-10-3.12h-.22a16.49,16.49,0,0,0-10,3.12,17.74,17.74,0,0,1-20.24,0,17.44,17.44,0,0,0-19.91,0,17.74,17.74,0,0,1-20.24,0,16.48,16.48,0,0,0-9.95-3.12v48.75h0v.32h0a16.48,16.48,0,0,1,9.95,3.12,17.74,17.74,0,0,0,20.24,0,17.44,17.44,0,0,1,19.91,0,17.74,17.74,0,0,0,20.24,0,17.44,17.44,0,0,1,19.91,0,16.72,16.72,0,0,0,10.12,3.17h.23a16.72,16.72,0,0,0,10.12-3.17A26.36,26.36,0,0,1,300,156V107A26.36,26.36,0,0,0,296.91,108.69Z"/><path class="cls-8" d="M296.91,164.05a17.74,17.74,0,0,1-20.24,0,16.43,16.43,0,0,0-10-3.12h-.22a16.43,16.43,0,0,0-10,3.12,17.74,17.74,0,0,1-20.24,0,17.44,17.44,0,0,0-19.91,0,17.74,17.74,0,0,1-20.24,0,16.42,16.42,0,0,0-9.95-3.12v48.75h0V210h0a16.42,16.42,0,0,1,9.95,3.12,17.74,17.74,0,0,0,20.24,0,17.44,17.44,0,0,1,19.91,0,17.74,17.74,0,0,0,20.24,0,17.44,17.44,0,0,1,19.91,0,16.72,16.72,0,0,0,10.12,3.17h.23a16.72,16.72,0,0,0,10.12-3.17,25,25,0,0,1,3.08-1.73V162.32A26.36,26.36,0,0,0,296.91,164.05Z"/><path class="cls-9" d="M212.75,51.6c0,.16-.13.14-.46.33-.89.47-1,.94-1,4.38v4.74c0,5.06-2.71,6.88-6.35,6.88-2.45,0-4.83-1.18-4.83-3.87a1.9,1.9,0,0,1,1.83-2.12,1.32,1.32,0,0,1,1.43,1.32c0,.93-1,1.21-1,2.31a2.16,2.16,0,0,0,2.44,2c1.9,0,2.78-1.27,2.78-3.63V57.19c0-3.81-.09-4.55-1.13-5.26-.22-.15-.37-.18-.37-.32s.06-.16.18-.16c.28,0,1.87.18,3.16.18s2.87-.18,3.12-.18S212.75,51.5,212.75,51.6Z"/><path class="cls-9" d="M225,62.63c0,3.13-2.34,5.28-5.81,5.28s-5.82-2.15-5.82-5.28,2.35-5.29,5.82-5.29S225,59.49,225,62.63Zm-3.28,0c0-3.68-.91-4.92-2.53-4.94s-2.51,1.26-2.53,4.94.9,4.91,2.53,4.93S221.73,66.3,221.75,62.63Z"/><path class="cls-9" d="M239.45,67.16c0,.13-.09.17-.25.18a21.21,21.21,0,0,0-3.68.51c-.15,0-.23-.06-.27-.24a17.06,17.06,0,0,1-.21-2.69h0a3.49,3.49,0,0,1-3.74,3c-2.33,0-3.79-1-3.79-4.08V60.44c0-1.46-.16-1.79-.8-2.08-.35-.16-.47-.16-.47-.33s.06-.16.25-.16a31.82,31.82,0,0,0,4-.43c.16,0,.24.08.24.26a15.74,15.74,0,0,0-.16,2.8v3.74c0,1.9.62,2.79,1.81,2.79,1.4,0,2.43-1.48,2.51-3.88,0-4.06-.1-4.48-.72-4.75-.33-.16-.48-.18-.48-.37s.07-.16.25-.16a30.88,30.88,0,0,0,4.07-.43c.13,0,.17,0,.17.14A16.31,16.31,0,0,0,238,60.4v3.66c0,2.13.21,2.51,1.12,2.85C239.35,67,239.45,67,239.45,67.16Z"/><path class="cls-9" d="M250.58,59.11c0,1-.52,1.61-1.35,1.61-1.56,0-1.19-1.92-2.06-1.92s-1.72,2.12-1.76,4.31v2c0,1.4.3,1.75,1.53,2.12.29.1.37.16.37.28s-.05.17-.21.17-2-.14-3.22-.14-2.67.14-2.9.14-.18,0-.18-.16.11-.18.41-.31c1-.37,1.1-.85,1.1-2.34V60.64c0-1.24-.2-1.73-1.09-2-.31-.08-.49-.11-.49-.29s.09-.17.28-.17a17.51,17.51,0,0,0,4.19-.76.16.16,0,0,1,.18.18,19.39,19.39,0,0,0-.2,3.68h0c.4-2.4,1.75-3.9,3.44-3.9A1.72,1.72,0,0,1,250.58,59.11Z"/><path class="cls-9" d="M265,67.54c0,.11,0,.15-.18.15-.49,0-1.57-.14-2.57-.14s-2.17.14-2.41.14-.18,0-.18-.15.11-.19.38-.33c.56-.33.68-.62.68-2.48V60.32c0-1.66-.63-2.24-1.67-2.24-1.51,0-2.88,1.66-2.88,4.79V64.6c0,2,.1,2.4.8,2.65.28.11.39.15.39.29s-.05.15-.18.15-1.49-.14-2.54-.14-2.46.14-2.67.14-.18,0-.18-.15.11-.18.39-.31c.84-.39.89-.65.89-2.74V61.35c0-2.08-.19-2.5-1-2.79-.31-.1-.44-.12-.44-.29s.07-.16.26-.17a23.19,23.19,0,0,0,4.16-.76c.12,0,.17,0,.17.16a21.26,21.26,0,0,0-.2,3.25c.47-2.18,1.84-3.41,3.84-3.41,2.73,0,3.93,1.31,3.93,4.21v3.18c0,1.87.11,2.12.81,2.48C264.89,67.35,265,67.4,265,67.54Z"/><path class="cls-9" d="M279,66.06c0,1.09-.49,1.87-2.35,1.87s-2.61-.7-2.76-2.48a4,4,0,0,1-4,2.48c-1.93,0-3.18-.81-3.18-2.39,0-2.53,3.3-3.17,7.17-3.44V60.64c0-2.24-1-2.92-2.43-2.92-1.19,0-1.83.5-1.83,1s.47.81.47,1.44-.56,1.17-1.46,1.17a1.34,1.34,0,0,1-1.47-1.43c0-1.25,1.34-2.6,4.72-2.6,3.2,0,5.45,1.09,5.45,4.73V66c0,.72.23,1,.6,1s.64-.22.66-.9a.2.2,0,0,1,.23-.22C279,65.85,279,65.9,279,66.06Zm-5.14-2.63v-1h-.07c-1.64.18-2.75.36-3.42.94a2.14,2.14,0,0,0-.6,1.67c0,1.24.47,1.94,1.5,1.94C272.61,67,273.89,65.73,273.89,63.43Z"/><path class="cls-9" d="M280.09,67.54c0-.15.09-.2.38-.35.92-.47,1-1.12,1-4.61v-5.7c0-3-.15-3.56-1.14-4.12-.4-.21-.53-.23-.53-.4s.07-.19.3-.19a11.2,11.2,0,0,0,4.57-1c.1,0,.15,0,.15.15a20.12,20.12,0,0,0-.26,3.82v7.56c0,3.08.13,4,1.14,4.53.25.14.36.19.36.33s-.06.15-.18.15-1.75-.14-2.84-.14-2.58.14-2.79.14S280.09,67.65,280.09,67.54Z"/><path class="cls-10" d="M209.06,44.9h.1s.05,0,.07,0,.11,0,.16,0,.1,0,.13.09a.08.08,0,0,0,.09,0s.07,0,.1-.06a.12.12,0,0,1,.1,0s0,0,.06,0a.11.11,0,0,1,.08,0l.05.09s.06.07.09,0,.09,0,.15,0a.08.08,0,0,0,.08,0,.07.07,0,0,1,.06,0s.05,0,0,.09-.13.06-.19.07-.09,0-.12,0a.09.09,0,0,0-.11,0s-.08,0-.06.06.06,0,.09,0a.34.34,0,0,1,.19.09s0,0,0,0-.06.17-.12.25,0,0,0,0a.26.26,0,0,1,.11.28s0,0,0,0a.15.15,0,0,0-.18,0s0,0,0,0a.14.14,0,0,0-.16,0c-.07.08-.14,0-.22,0h0s-.06,0-.07,0,0,0,0,0,0,0,0-.05,0,0-.05,0,0,0-.07,0l-.1,0s-.06,0,0,.06.1.21,0,.31h0a.14.14,0,0,1-.07.14s0,0,0,.07,0,0,.06,0,.07,0,.06,0a.12.12,0,0,0,.06.15.11.11,0,0,1,0,.16.14.14,0,0,0,0,.15s0,0,.09,0a.08.08,0,0,0,.09-.07s0,0,0-.07a.06.06,0,0,1,0-.07s0,0,.06,0,0,0,0,.06a.11.11,0,0,0,.12.09c.06,0,.1,0,.08-.12a.58.58,0,0,1,.16-.47H210c.08,0,.08.06.12.1s0,.08,0,.1,0,0,0,0a.17.17,0,0,1,.13.1s0,0,0,0a.14.14,0,0,1,.13.09.22.22,0,0,0,.39,0s0-.07.08-.07,0,0,0,0,0,.09,0,.12,0,.08,0,.1a.12.12,0,0,1,.09.08.2.2,0,0,0,.14.1c.1,0,.11.08.18.1a.33.33,0,0,1-.33,0c-.12-.07-.16,0-.17.09v0c0,.06,0,.08-.08.08s-.07,0-.07,0-.05.12,0,.19,0,.1.11.1a.12.12,0,0,1,.12.11c0,.08,0,.17.12.19s0,0,0,0c.06.17.24.13.34.22s0,0,0,0a.14.14,0,0,1,.11,0,.15.15,0,0,0,.11,0c.07,0,.14,0,.16.1a.16.16,0,0,1-.05.19.21.21,0,0,0-.05.12.08.08,0,0,1,0,.1.14.14,0,0,0-.13.15,0,0,0,0,1-.05.05s0,0,0,0,0,0-.08,0-.05,0-.08,0,0,0-.06,0,0,0,0-.06,0-.14,0-.21,0,0-.05,0-.19.1-.15.22a.14.14,0,0,1,0,.07c0,.07,0,.14.08.13s0,0,.06,0,0,0,.05,0a.55.55,0,0,1,.28.06.07.07,0,0,1,.05.07,0,0,0,0,1,0,.05.18.18,0,0,0-.09.06,0,0,0,1,0,.07.06.28.28,0,0,1,.11-.08s0,0,.06,0,0,0,0,.06a.11.11,0,0,0,0,.08h0s-.07,0-.07,0h0s0,0,0,0,0,0,0,.07h0s0,0,0,0h0c-.1,0-.18.07-.28.08H211c-.13,0-.21.17-.35.15h0a3.65,3.65,0,0,1-.34.18.25.25,0,0,0-.2.15H210s-.07,0-.08,0-.06,0-.09,0,0-.1-.08-.09h-.05a.75.75,0,0,1-.3,0,1.5,1.5,0,0,0-.47-.08s0,0,0,0,0,0,0-.06,0-.09,0-.12l-.1,0s-.07,0-.08,0,0,.06,0,.07,0,0-.07-.05a.08.08,0,0,1,0,0s0-.06-.06,0-.08,0-.11,0,0-.08-.06-.09,0,0,0-.06,0-.08,0-.09-.1,0-.12-.05,0,0-.08,0-.06,0-.07,0a0,0,0,0,0-.06,0s0,0,0,.08,0,.14-.1.12-.17,0-.22-.11h0c0-.08-.06-.09-.11-.12s-.05,0-.08-.06,0,0,0-.05,0,0,0,0,0,0,0,0a.05.05,0,0,0,0,0,.24.24,0,0,0-.12,0c-.06,0-.1,0-.07-.09a.12.12,0,0,0,0-.14.07.07,0,0,1,0-.11,0,0,0,0,0,0-.06s0,0,0,0a.1.1,0,0,0-.06.14s-.11,0-.14,0-.13-.12-.16-.22,0-.05,0-.06v0s0,0,0,0,0,0,0,0a.6.6,0,0,0,0-.22c0-.07,0-.13,0-.2s0-.17,0-.26,0-.05,0-.05,0,0,0,0,0,0,0,0,0,0,0,0a.15.15,0,0,0,0-.07.17.17,0,0,1,.05-.15,0,0,0,0,0,0-.07c0-.05-.05-.1-.08-.14a.33.33,0,0,1,0-.32,1.26,1.26,0,0,0,.1-.38.22.22,0,0,1,.05-.08s0,0,0-.05a1.79,1.79,0,0,0,.22-.38s0,0,0,0a.08.08,0,0,1,0-.07.51.51,0,0,0,.18-.25l0,0s.05,0,.05-.07h0s0,0,0,.07-.09.15-.09.25,0,.08-.08,0,0,0,0,0,0,.07,0,.1,0,0,0,0,0,0,0,0,.11-.11.18-.16a.87.87,0,0,1,.22-.05c.05,0,.07,0,.09,0s0,.05.06,0,.09,0,.12-.07.05,0,.09,0a.09.09,0,0,0,.12,0c.12,0,.1,0,.19.06a.54.54,0,0,1,.07.13.5.5,0,0,0,.13.19s.08,0,.12,0a0,0,0,0,0,.06,0c0-.05,0-.07.05-.07s.06,0,.08,0,0,0,0,0,0,0,0,0a.53.53,0,0,0-.27-.3.08.08,0,0,1,0-.08.17.17,0,0,0-.09-.2c-.05,0-.11-.09-.08-.16a.1.1,0,0,0,0-.13.35.35,0,0,1-.13-.11s0-.06,0-.06.1,0,0-.08v0h0s0,0,0,0a.07.07,0,0,1,.06,0s0,.08.09.11a.66.66,0,0,0,.36.06.36.36,0,0,1,.25,0,.21.21,0,0,0,.28-.14v0a.2.2,0,0,0-.25-.14C209.08,45,209.07,45,209.06,44.9Zm.42.33s0,0,0,0,.14,0,.22,0,0,0,0,0,0,0,0,0a.33.33,0,0,1-.17,0C209.5,45.16,209.5,45.21,209.48,45.23Zm-2.28,3.6s.07,0,.07-.06a.08.08,0,0,0-.07-.08s0,.06,0,.1S207.17,48.82,207.2,48.83Zm4,.82s0,0,0,0,0,.07,0,.07.06,0,.06,0S211.24,49.67,211.22,49.65Z"/><path class="cls-11" d="M211.65,49.65a.11.11,0,0,1,0-.08s0,0,0-.06,0,0-.06,0a.28.28,0,0,0-.11.08,0,0,0,1,1-.07-.06.18.18,0,0,1,.09-.06,0,0,0,0,0,0-.05.07.07,0,0,0-.05-.07.55.55,0,0,0-.28-.06s0,0-.05,0,0,0-.06,0-.1-.06-.08-.13a.14.14,0,0,0,0-.07c0-.12,0-.24.15-.22s.05,0,.05,0,0,.14,0,.21,0,0,0,.06,0,0,.06,0,.06,0,.08,0,.07,0,.08,0,0,0,0,0a0,0,0,0,0,.05-.05.14.14,0,0,1,.13-.15.08.08,0,0,0,0-.1.21.21,0,0,1,.05-.12.16.16,0,0,0,.05-.19c0-.07-.09-.09-.16-.1a.15.15,0,0,1-.11,0,.14.14,0,0,0-.11,0s0,0,0,0-.28,0-.34-.22c0,0,0,0,0,0s-.11-.11-.12-.19a.12.12,0,0,0-.12-.11c-.08,0-.1,0-.11-.1s0-.12,0-.19,0,0,.07,0,.08,0,.08-.08v0c0-.13,0-.16.17-.09a.33.33,0,0,0,.33,0c-.07,0-.08-.11-.18-.1a.2.2,0,0,1-.14-.1.12.12,0,0,0-.09-.08c-.06,0-.08-.05,0-.1s0-.08,0-.12,0,0,0,0-.06,0-.08.07a.22.22,0,0,1-.39,0,.14.14,0,0,0-.13-.09s0,0,0,0a.17.17,0,0,0-.13-.1s0,0,0,0,0-.06,0-.1,0-.11-.12-.1h-.06a.58.58,0,0,0-.16.47c0,.07,0,.1-.08.12a.11.11,0,0,1-.12-.09s0-.06,0-.06-.05,0-.06,0a.06.06,0,0,0,0,.07s.07,0,0,.07a.08.08,0,0,1-.09.07s-.06.07-.09,0a.14.14,0,0,1,0-.15.11.11,0,0,0,0-.16.12.12,0,0,1-.06-.15s0-.09-.06,0-.05,0-.06,0,0-.06,0-.07a.14.14,0,0,0,.07-.14h0c.11-.1,0-.2,0-.31s0-.06,0-.06l.1,0s.05,0,.07,0,0,0,.05,0,0,0,0,.05-.05,0,0,0,0,0,.07,0h0c.08,0,.15.06.22,0a.14.14,0,0,1,.16,0s0,0,0,0a.15.15,0,0,1,.18,0s0,0,0,0a.26.26,0,0,0-.11-.28s0,0,0,0,0-.2.12-.25,0,0,0,0a.34.34,0,0,0-.19-.09s-.07,0-.09,0,0,0,.06-.06a.09.09,0,0,1,.11,0s.09,0,.12,0,.14,0,.19-.07,0-.06,0-.09a.78.78,0,0,0,.43,0,.37.37,0,0,1,.31,0,.43.43,0,0,1,.16.26.18.18,0,0,0,0,.09c.06.1.16.17.22.26a5.09,5.09,0,0,1,.34.47,4.49,4.49,0,0,1,.31.67,2.24,2.24,0,0,1,.1.37s0,.09,0,.13v.39s0,0,0,.06,0,.31,0,.46,0,.2-.05.3a1.27,1.27,0,0,1-.14.54A1.24,1.24,0,0,1,211.65,49.65Zm-.5-3.34c-.08,0-.11,0-.1-.11a.13.13,0,0,0,0-.06s0-.07,0-.08-.08,0-.08,0a.3.3,0,0,0,0,.26.07.07,0,0,1,0,.1s0,.15.07.13.09,0,.14,0,0-.12.11-.16,0,0,0-.07S211.2,46.29,211.15,46.31Z"/><path class="cls-11" d="M208.44,45.09l.56-.18h.06c0,.09,0,.1.11.08a.2.2,0,0,1,.25.14v0a.21.21,0,0,1-.28.14.36.36,0,0,0-.25,0,.66.66,0,0,1-.36-.06C208.48,45.17,208.48,45.12,208.44,45.09Z"/><path class="cls-11" d="M207.37,45.83a1.68,1.68,0,0,1,.44-.4.56.56,0,0,0,.16-.15.5.5,0,0,1,.33-.16v0c.06.07,0,.08,0,.08s-.07,0,0,.06a.35.35,0,0,0,.13.11.1.1,0,0,1,0,.13c0,.07,0,.13.08.16a.17.17,0,0,1,.09.2.08.08,0,0,0,0,.08.53.53,0,0,1,.27.3s0,.06,0,0,0,0,0,0,0,0-.08,0-.06,0-.05.07a0,0,0,0,1-.06,0s-.08,0-.12,0a.5.5,0,0,1-.13-.19.54.54,0,0,0-.07-.13c-.09-.1-.07-.11-.19-.06a.09.09,0,0,1-.12,0s-.07,0-.09,0-.08.05-.12.07,0,0-.06,0,0,0-.09,0a.87.87,0,0,0-.22.05c-.07,0-.15.07-.18.16s0,0,0,0,0,0,0,0,0-.06,0-.1,0,0,0,0,.08,0,.08,0,.07-.17.09-.25S207.42,45.84,207.37,45.83Z"/><path class="cls-11" d="M209.85,50.4a2,2,0,0,1-.94,0,1.83,1.83,0,0,1-.32-.14.25.25,0,0,0-.17,0,.1.1,0,0,1-.1,0,.37.37,0,0,0-.32-.14.45.45,0,0,1-.34-.14,2.73,2.73,0,0,1-.38-.46c-.06-.09-.16-.14-.22-.23a2.14,2.14,0,0,1-.32-.55s0,0,0,.06.11.15.16.22.1,0,.14,0a.1.1,0,0,1,.06-.14s0,0,0,0a0,0,0,0,1,0,.06.07.07,0,0,0,0,.11.12.12,0,0,1,0,.14c0,.06,0,.08.07.09a.24.24,0,0,1,.12,0,.05.05,0,0,1,0,0s0,0,0,0,0,0,0,0,0,0,0,.05.05,0,.08.06.11,0,.11.12h0c0,.07.14.08.22.11s.11,0,.1-.12,0-.06,0-.08a0,0,0,0,1,.06,0s0,0,.07,0,.06,0,.08,0,.08,0,.12.05.08,0,0,.09,0,.05,0,.06,0,.06.06.09.06.08.11,0,.05,0,.06,0a.08.08,0,0,0,0,0s0,.06.07.05,0,0,0-.07,0-.07.08,0l.1,0c.05,0,.09.06,0,.12s0,0,0,.06,0,0,0,0a1.5,1.5,0,0,1,.47.08.75.75,0,0,0,.3,0h.05C209.86,50.3,209.87,50.31,209.85,50.4Z"/><path class="cls-11" d="M211.44,49.78a1.88,1.88,0,0,1-.56.37,3.42,3.42,0,0,1-.4.17c0-.08-.07-.07-.12-.06s0,0,0,.06a.78.78,0,0,0-.22,0,.25.25,0,0,1,.2-.15,3.65,3.65,0,0,0,.34-.18h0c.14,0,.22-.13.35-.15h.13C211.26,49.85,211.34,49.79,211.44,49.78Z"/><path class="cls-11" d="M206.69,48.6a2,2,0,0,1-.1-.35,1.76,1.76,0,0,1-.06-.46,5,5,0,0,1,.1-.56,1.68,1.68,0,0,1,.09-.32.45.45,0,0,1,.06-.12,1.26,1.26,0,0,1-.1.38.33.33,0,0,0,0,.32s.05.09.08.14a0,0,0,0,1,0,.07.17.17,0,0,0-.05.15.15.15,0,0,1,0,.07s0,0,0,0,0,0,0,0,0,0,0,0,0,0,0,.05,0,.18,0,.26,0,.13,0,.2A.6.6,0,0,1,206.69,48.6Z"/><path class="cls-11" d="M210,45c.13,0,.24.09.37.11a.08.08,0,0,1-.08,0c-.06,0-.1,0-.15,0s-.07,0-.09,0Z"/><path class="cls-11" d="M209.39,44.93a1.67,1.67,0,0,1,.32,0s-.07,0-.1.06a.08.08,0,0,1-.09,0C209.49,45,209.43,45,209.39,44.93Z"/><path class="cls-11" d="M209.48,45.23s0-.07.07,0a.33.33,0,0,0,.17,0s0,0,0,0,0,0,0,0-.14.07-.22,0S209.47,45.26,209.48,45.23Z"/><path class="cls-11" d="M207.2,48.83s-.07,0,0,0,0-.09,0-.1a.08.08,0,0,1,.07.08S207.23,48.82,207.2,48.83Z"/><path class="cls-11" d="M207.11,46.18c0-.11.1-.18.18-.25A.51.51,0,0,1,207.11,46.18Z"/><path class="cls-11" d="M211.22,49.65s.07,0,.07.07,0,0-.06,0,0,0,0-.07S211.19,49.64,211.22,49.65Z"/><path class="cls-11" d="M211.54,49.7l-.06,0s0-.06,0-.07S211.53,49.69,211.54,49.7Z"/><path class="cls-11" d="M210,50.35l-.08,0C210,50.33,210,50.33,210,50.35Z"/><path class="cls-11" d="M211.65,49.65l-.07,0S211.61,49.64,211.65,49.65Z"/><path class="cls-11" d="M209.81,45h.06S209.83,45,209.81,45Z"/><path class="cls-11" d="M207.32,45.9a.18.18,0,0,1,.05-.07S207.36,45.89,207.32,45.9Z"/><path class="cls-11" d="M208.33,45.12s0,0,0,0S208.35,45.14,208.33,45.12Z"/><path class="cls-11" d="M206.83,46.71l0-.05S206.86,46.7,206.83,46.71Z"/><path class="cls-11" d="M207.08,46.28s0,0,0,0S207.1,46.27,207.08,46.28Z"/><path class="cls-11" d="M206.73,48.69l0,0S206.74,48.68,206.73,48.69Z"/><path class="cls-11" d="M211.47,49.75s0,0,0,0S211.45,49.75,211.47,49.75Z"/><path class="cls-10" d="M211.15,46.31s.09,0,.12,0,0,0,0,.07,0,.15-.11.16-.09,0-.14,0-.09-.1-.07-.13a.07.07,0,0,0,0-.1.3.3,0,0,1,0-.26s0,0,.08,0,0,0,0,.08a.13.13,0,0,1,0,.06C211,46.28,211.07,46.31,211.15,46.31Z"/><path class="cls-10" d="M210.35,50.32s0-.06,0-.06.11,0,.12.06Z"/><rect class="cls-12" x="186.16" y="33.03" width="113.85" height="201.48"/><rect class="cls-13" y="0.25" width="485.08" height="266"/><path class="cls-14" d="M262.08,145.25h1a1.75,1.75,0,0,0,.68.09c.82,0,1.64.08,2.46.14a32,32,0,0,1,4.54,1.12,4.88,4.88,0,0,0,2.52.13,2.23,2.23,0,0,1,2.77,1.5,5,5,0,0,0,1.25,1.9,19.68,19.68,0,0,1,2,2.56,24.41,24.41,0,0,1,2.42,4.68,12.41,12.41,0,0,1,.93,4.47c0,1-.2,2-.19,3a34.17,34.17,0,0,1-.3,3.78,7.81,7.81,0,0,1-4.47,6.57,6.37,6.37,0,0,0-1,.76c-2,1.58-4.08,2.94-6.75,3a.58.58,0,0,0-.14,0c-1.64.21-3.22.7-4.86.86a8.31,8.31,0,0,1-4.66-.69,3.51,3.51,0,0,0-2-.54.79.79,0,0,1-.64-.33,2.48,2.48,0,0,0-1.89-.78,2.3,2.3,0,0,1-1.86-.61,23.67,23.67,0,0,1-2.33-2.68,4.62,4.62,0,0,0-.72-.88,13.66,13.66,0,0,1-3.7-6.57,8.7,8.7,0,0,0-.57-2v-2.07c.16-.69.34-1.37.46-2.07a10.87,10.87,0,0,1,2-5.06,4,4,0,0,0,.93-1.72,3.77,3.77,0,0,1,1.25-2.18,6,6,0,0,0,.54-.58,12.15,12.15,0,0,1,2.88-2.66,2,2,0,0,0,.72-.67,2.87,2.87,0,0,1,1.89-1.14A49.32,49.32,0,0,0,262.08,145.25Z"/><path class="cls-6" d="M275.49,165a1.75,1.75,0,0,0-.8-1.1,5.35,5.35,0,0,0-2.57-4.67.38.38,0,0,0-.36,0,3.08,3.08,0,0,0-1-.63,5,5,0,0,0,1.57-.8,3.88,3.88,0,0,0,1.56-2.34,3.15,3.15,0,0,0-.84-2.71c-1.58-1.6-3.82-.76-5.25.44a3.46,3.46,0,0,0-1.32,3,3.06,3.06,0,0,0,2.14,2.35,4.17,4.17,0,0,0-2.13,2.74s0,0-.05.05l-1.29,1.57a.77.77,0,0,0-.59.06.85.85,0,0,0-.14.1,1.26,1.26,0,0,0-.38.1,4.72,4.72,0,0,1-1.7-1.82,3.93,3.93,0,0,0-1.27-2.27,4.43,4.43,0,0,0-.57-.41,3.39,3.39,0,0,0,1.94-2,3.47,3.47,0,0,0-.35-3,3.62,3.62,0,0,0-2.63-1.67,2.52,2.52,0,0,0-2.06.81,4.09,4.09,0,0,0-1.2,3.14,3.47,3.47,0,0,0,2.1,2.77,3.45,3.45,0,0,0-1.12,1.26l-.12,0a6.91,6.91,0,0,0-2.61,4.31h0a2.29,2.29,0,0,0-.76,1.43,1.32,1.32,0,0,0,.45,1,1.34,1.34,0,0,0,.91.37h.14a1.32,1.32,0,0,0,.42-2.52,1.39,1.39,0,0,0-.44-.13,6.13,6.13,0,0,1,1.36-2.94,8.14,8.14,0,0,0-.34,2.35,4.57,4.57,0,0,0,.87,2.63s0,0,0,0l-.12,3.12a1.62,1.62,0,0,0-1.25.28,4.66,4.66,0,0,0-1.51,1.73,1.23,1.23,0,0,0-.14.88,1,1,0,0,0,.83.69l.18,0a1.87,1.87,0,0,0,.72-.17,3.73,3.73,0,0,0,1.89-2,1.23,1.23,0,0,0,0-.88l.12-3.08a2.74,2.74,0,0,0,1.49.46,2.24,2.24,0,0,0,.92-.2,6.28,6.28,0,0,1,.08,2.89.33.33,0,0,0,0,.14,1.69,1.69,0,0,0,.17,1.91,1.54,1.54,0,0,0,1.18.53,1.42,1.42,0,0,0,.82-.25,1.42,1.42,0,0,0,.32-2,2.14,2.14,0,0,0-1.69-.62,6.87,6.87,0,0,0-.24-3,4.64,4.64,0,0,0,1-1.66,8.79,8.79,0,0,0,.61-2.53,6.36,6.36,0,0,0,1,.88,1.43,1.43,0,0,0-.34.81,1.53,1.53,0,0,0,1.27,1.6.75.75,0,0,0,.21,0,1.55,1.55,0,0,0,1.49-1.16,1.5,1.5,0,0,0,0-.37,4,4,0,0,0,1.53,3.16,2.25,2.25,0,0,0,.21.12.28.28,0,0,0,0,.12l-.49,2.58a1.5,1.5,0,0,0-.89.14,1.41,1.41,0,0,0-.79,1.07,1.44,1.44,0,0,0,1.1,1.54,1.43,1.43,0,0,0,.29,0,1.52,1.52,0,0,0,1.37-.89,1.58,1.58,0,0,0-.35-1.78l.48-2.55h0a3.38,3.38,0,0,0,.72.09,3.55,3.55,0,0,0,1.41-.31l.42,2.86a1.16,1.16,0,0,0-.17,1.25,1.22,1.22,0,0,0,1.07.6h0a2.82,2.82,0,0,0,1-.22,1.87,1.87,0,0,0,1.18-.86,1.15,1.15,0,0,0-1.67-1.45,3.63,3.63,0,0,0-.75.2l-.41-2.77.24-.19a4.4,4.4,0,0,0,1.07-1.43,1.58,1.58,0,0,0,.23.47,1.51,1.51,0,0,0,1.88.37A1.59,1.59,0,0,0,275.49,165Zm-20.19.27a.6.6,0,0,1,.33.37.56.56,0,0,1-.1.49.63.63,0,0,1-.42.28.65.65,0,0,1-.47-.18.63.63,0,0,1-.21-.45,1,1,0,0,1,.2-.51.47.47,0,0,0,.17,0A.56.56,0,0,1,255.3,165.26Zm1.61,5.75a3.08,3.08,0,0,1-1.43,1.42,1,1,0,0,1-.5.1.32.32,0,0,1-.24-.16.66.66,0,0,1,.1-.36,4,4,0,0,1,1.26-1.46.79.79,0,0,1,.81-.11l0,.47A.36.36,0,0,0,256.91,171Zm0-15.16a3.4,3.4,0,0,1,1-2.54,2,2,0,0,1,1.3-.61h.16a2.9,2.9,0,0,1,2.1,1.34,2.71,2.71,0,0,1,.27,2.38,2.56,2.56,0,0,1-2.26,1.75A2.65,2.65,0,0,1,256.94,155.85Zm4,14.89h0a1.62,1.62,0,0,1,1.25.35.64.64,0,0,1,.11.48.72.72,0,0,1-.27.47.83.83,0,0,1-1-.16A1,1,0,0,1,260.92,170.74Zm.21-5.68a3.74,3.74,0,0,1-.86,1.42h0a.31.31,0,0,0-.17.13,1.1,1.1,0,0,1-.14.09,1.9,1.9,0,0,1-2.16-.49,3.66,3.66,0,0,1-.86-2.37c-.05-1.44.69-4,1.92-4.62a1.2,1.2,0,0,1,.52-.12,2,2,0,0,1,1.24.56,3.15,3.15,0,0,1,.95,1.56.39.39,0,0,0,0,.26s.05.09.07.14a4.46,4.46,0,0,1,.06.54A7.18,7.18,0,0,1,261.13,165.06Zm4.21-.29a.83.83,0,0,1-.88.59.82.82,0,0,1-.65-.82.75.75,0,0,1,.25-.49.77.77,0,0,1,.5-.22h.18l.11-.11,0,0,.07-.05s.08,0,.16.15a1.71,1.71,0,0,1,.13.23A1.5,1.5,0,0,1,265.34,164.77Zm.73-.56c0,.12,0,.24,0,.35a2.33,2.33,0,0,0-.36-1.15l.43-.52A8.79,8.79,0,0,0,266.07,164.21Zm1.65,7.93a.81.81,0,0,1-.85.44.65.65,0,0,1-.14-1.23.72.72,0,0,1,.35-.08.84.84,0,0,1,.35.07.33.33,0,0,0,.22,0A.85.85,0,0,1,267.72,172.14Zm4-1.07a1.58,1.58,0,0,1,.66-.24.37.37,0,0,0,.35-.06.38.38,0,0,0,.21-.13.45.45,0,0,1,.36.05.47.47,0,0,1,.14.52,1.32,1.32,0,0,1-.77.48,2,2,0,0,1-.74.18.52.52,0,0,1-.44-.21A.54.54,0,0,1,271.77,171.07Zm-4.55-14.95a2.71,2.71,0,0,1,1.06-2.37,4.69,4.69,0,0,1,2.68-1.17,2.14,2.14,0,0,1,1.58.68,2.36,2.36,0,0,1,.63,2.06,3.17,3.17,0,0,1-1.27,1.89,3.63,3.63,0,0,1-2.78.75A2.39,2.39,0,0,1,267.22,156.12Zm5.29,7.52a4.72,4.72,0,0,1-1.43,3.11,2.63,2.63,0,0,1-3.06.37,3.63,3.63,0,0,1-1.22-2.92c0-1.88.7-4.92,2.67-5.07h.21a2.26,2.26,0,0,1,1.68.73A5,5,0,0,1,272.51,163.64Zm.26-2.94a4.64,4.64,0,0,1,1.19,3,2.88,2.88,0,0,0-.79.49c0-.15.05-.3.07-.46A6.31,6.31,0,0,0,272.77,160.7Zm1.61,5.38a.76.76,0,0,1-.93-.17.87.87,0,0,1,0-.91,1.66,1.66,0,0,1,.68-.58,1.06,1.06,0,0,1,.68.73A.89.89,0,0,1,274.38,166.08Z"/></g></g></svg>