<svg xmlns="http://www.w3.org/2000/svg" viewBox="0 0 188.25 385.8"><defs><style>.cls-1{fill:#fff;}.cls-2,.cls-3{fill:none;stroke:#000;stroke-miterlimit:10;}.cls-2{stroke-width:0.3px;}.cls-3{stroke-width:0.2px;}</style></defs><title>iphone plus</title><g id="Layer_2" data-name="Layer 2"><g id="Layer_2-2" data-name="Layer 2"><path class="cls-1" d="M160.61.15H29.09A27.49,27.49,0,0,0,1.6,27.64v22H.1v15H1.6v18H.1v28H1.6v7H.1v28H1.6V358.16a27.49,27.49,0,0,0,27.49,27.49H160.61a27.49,27.49,0,0,0,27.49-27.49V27.64A27.49,27.49,0,0,0,160.61.15Z"/><rect class="cls-2" x="1.6" y="0.15" width="186.5" height="385.5" rx="27.49"/><circle class="cls-3" cx="94.85" cy="361.65" r="15"/><circle class="cls-3" cx="94.85" cy="361.65" r="13.5"/><circle cx="94.85" cy="12.65" r="2"/><circle cx="65.1" cy="25.65" r="3"/><rect x="78.35" y="23.65" width="33" height="3" rx="1.5"/><rect class="cls-3" x="12.35" y="47.65" width="165" height="292"/><polyline class="cls-3" points="1.6 64.65 0.1 64.65 0.1 49.65 1.6 49.65"/><polyline class="cls-3" points="1.6 110.65 0.1 110.65 0.1 82.65 1.6 82.65"/><polyline class="cls-3" points="1.6 145.65 0.1 145.65 0.1 117.65 1.6 117.65"/></g></g></svg>