<?xml version="1.0" encoding="utf-8"?>
<!-- Generator: Adobe Illustrator 23.1.1, SVG Export Plug-In . SVG Version: 6.00 Build 0)  -->
<svg version="1.1" id="Layer_1" xmlns="http://www.w3.org/2000/svg" xmlns:xlink="http://www.w3.org/1999/xlink" x="0px" y="0px"
	 viewBox="0 0 550 599" style="enable-background:new 0 0 550 599;" xml:space="preserve">
<style type="text/css">
	.st0{opacity:0.5;fill:#970076;fill-opacity:0.3;enable-background:new    ;}
	.st1{opacity:0.5;fill:#FF4949;fill-opacity:0.3;enable-background:new    ;}
</style>
<path class="st0" d="M295.6-89.7c-87.7,20-173.5,65.9-225,143c-51.3,76.9-60.3,187.9-6.7,263.2c40.8,57.2,109.4,85.8,176.8,97.7
	c96.4,17.2,199.5,4.7,283.8-47.1c84.1-51.8,146.4-145.7,150.9-247.7c3.4-78.9-37.2-193.5-115.4-222.2
	C488.2-129.3,367.3-106.2,295.6-89.7z"/>
<path class="st1" d="M532.8,308.9c4-22.6,7.8-47.5-5.1-68.8c-16.4-27.8-53.3-37.9-85.2-42.1c-75.6-9.7-153.5-2.3-214.8,32.5
	s-104,99.8-98.9,171.7c6,86.8,85.9,171.5,176.9,189c73.1,14.1,160.3-17.7,191.7-78.9c10.7-20.8,9.6-45.1,12.1-68.4
	C514.6,398.4,524.7,353.7,532.8,308.9z"/>
</svg>
