<?xml version="1.0" encoding="utf-8"?>
<!-- Generator: Adobe Illustrator 23.1.1, SVG Export Plug-In . SVG Version: 6.00 Build 0)  -->
<svg version="1.1" id="Layer_1" xmlns="http://www.w3.org/2000/svg" xmlns:xlink="http://www.w3.org/1999/xlink" x="0px" y="0px"
	 viewBox="0 0 375 657" style="enable-background:new 0 0 375 657;" xml:space="preserve">
<style type="text/css">
	.st0{opacity:0.5;clip-path:url(#SVGID_2_);fill:#FF3756;fill-opacity:0.3;enable-background:new    ;}
	.st1{opacity:0.5;clip-path:url(#SVGID_2_);fill:#970076;fill-opacity:0.3;enable-background:new    ;}
</style>
<g>
	<defs>
		<rect id="SVGID_1_" x="-50" y="-22" width="566.6" height="678"/>
	</defs>
	<clipPath id="SVGID_2_">
		<use xlink:href="#SVGID_1_"  style="overflow:visible;"/>
	</clipPath>
	<path class="st0" d="M250,515.6c-0.3-74.7-45-143.8-107.7-166.5c-43-15.5-99.3-8.7-142.2,19.4v218.8
		c29.5,40.5,73.6,68.9,121.7,68.7c50.6-0.2,103.7-36.3,121.1-90.3C247.8,549.6,250.2,532.6,250,515.6z"/>
	<path class="st1" d="M375,17.7C349.4,4.3,320.6-2.1,291.8,1.8C242.5,8.5,201,42.6,170,81.6c-44.3,55.7-73,125.7-70.9,196.9
		c2.1,71.2,37.7,142.6,98.3,179.8c47,28.9,131.4,41.6,176.4,1.4c0.4-0.3,0.8-0.7,1.1-1V17.7z"/>
</g>
</svg>
