<svg xmlns="http://www.w3.org/2000/svg" viewBox="0 0 293.3 207.3"><defs><style>.cls-1{fill:#fff;}.cls-2,.cls-3{fill:none;stroke:#000;stroke-miterlimit:10;}.cls-2{stroke-width:0.3px;}.cls-3{stroke-width:0.2px;}</style></defs><title>tablet</title><g id="Layer_2" data-name="Layer 2"><g id="Layer_2-2" data-name="Layer 2"><path class="cls-1" d="M281.63.15h-270A11.52,11.52,0,0,0,.15,11.67v184a11.52,11.52,0,0,0,11.52,11.52H281A12.19,12.19,0,0,0,293.15,195V11.67A11.52,11.52,0,0,0,281.63.15Z"/><path class="cls-2" d="M11.67.15h270a11.52,11.52,0,0,1,11.52,11.52V195A12.19,12.19,0,0,1,281,207.15H11.67A11.52,11.52,0,0,1,.15,195.63v-184A11.52,11.52,0,0,1,11.67.15Z"/><rect class="cls-3" x="2.15" y="2.15" width="289" height="203" rx="10.53"/><circle cx="279.65" cy="103.65" r="1.5"/><circle class="cls-3" cx="12.65" cy="103.65" r="6.5"/><circle class="cls-3" cx="12.65" cy="103.65" r="5.5"/><rect class="cls-3" x="26.15" y="13.15" width="241" height="181"/></g></g></svg>