<?xml version="1.0" encoding="utf-8"?>
<!-- Generator: Adobe Illustrator 23.1.1, SVG Export Plug-In . SVG Version: 6.00 Build 0)  -->
<svg version="1.1" id="Layer_1" xmlns="http://www.w3.org/2000/svg" xmlns:xlink="http://www.w3.org/1999/xlink" x="0px" y="0px"
	 viewBox="0 0 293.3 207.3" style="enable-background:new 0 0 293.3 207.3;" xml:space="preserve">
<style type="text/css">
	.st0{fill:#FFFFFF;}
	.st1{fill:none;stroke:#000000;stroke-width:0.3;stroke-miterlimit:10;}
	.st2{fill:none;stroke:#000000;stroke-width:0.2;stroke-miterlimit:10;}
</style>
<title>tablet</title>
<g>
	<g id="Layer_2-2">
		<path class="st0" d="M281.6,0.2h-270C5.3,0.2,0.1,5.3,0.2,11.7v184c0,6.4,5.2,11.5,11.5,11.5c0,0,0,0,0,0H281
			c6.7,0,12.2-5.5,12.1-12.2V11.7C293.1,5.3,288,0.2,281.6,0.2z"/>
		<path class="st1" d="M11.7,0.2h270c6.4,0,11.5,5.2,11.5,11.5V195c0,6.7-5.5,12.2-12.2,12.1H11.7c-6.4,0-11.5-5.2-11.5-11.5v-184
			C0.2,5.3,5.3,0.1,11.7,0.2z"/>
		<path class="st2" d="M12.7,2.2h267.9c5.8,0,10.5,4.7,10.5,10.5v181.9c0,5.8-4.7,10.5-10.5,10.5H12.7c-5.8,0-10.5-4.7-10.5-10.5
			V12.7C2.2,6.9,6.9,2.2,12.7,2.2z"/>
		<circle cx="279.6" cy="103.7" r="1.5"/>
		<circle class="st2" cx="12.6" cy="103.7" r="6.5"/>
		<circle class="st2" cx="12.6" cy="103.7" r="5.5"/>
		<rect x="26.1" y="13.1" class="st2" width="241" height="181"/>
	</g>
</g>
</svg>
