<svg xmlns="http://www.w3.org/2000/svg" viewBox="0 0 306.48 608.99"><defs><style>.cls-1{fill:#6ba332;}.cls-1,.cls-5{opacity:0.5;}.cls-2{fill:blue;}.cls-3{fill:#221f20;}.cls-4,.cls-5{fill:#f3524d;}.cls-6{fill:#fff;}</style></defs><title>flow2mobile</title><g id="Layer_2" data-name="Layer 2"><g id="Layer_1-2" data-name="Layer 1"><rect class="cls-1" x="92.49" width="75.75" height="31.48" rx="15.74"/><path class="cls-2" d="M120.55,498.25H54.35V451.9h66.2Zm-65.2-1h64.2V452.9H55.35Z"/><path class="cls-2" d="M203.46,498.25h-66.2V451.9h66.2Zm-65.2-1h64.2V452.9h-64.2Z"/><path class="cls-2" d="M160.1,346.32H102.41V317H160.1Zm-56.69-1H159.1V318H103.41Z"/><path class="cls-3" d="M112.71,330.78h2.7v.75h-2.7v3.12h-.88v-6.94h3.58v.75h-2.7Z"/><path class="cls-3" d="M121,332.26a2.45,2.45,0,0,1-2.45,2.5,2.51,2.51,0,1,1,2.45-2.5Zm-4.07,0A1.62,1.62,0,0,0,118.6,334a1.64,1.64,0,0,0,1.62-1.78,1.64,1.64,0,1,0-3.26,0Z"/><path class="cls-3" d="M123,329.85v.81a1.27,1.27,0,0,1,.44-.63,1.48,1.48,0,0,1,.91-.29h.19v.8h-.22a1.21,1.21,0,0,0-1,.55,1.74,1.74,0,0,0-.28,1.13v2.44h-.79v-4.8Z"/><path class="cls-3" d="M129.54,334.65h-.79v-4.1h-.65v-.7h.65v-.65c0-.94.49-1.5,1.32-1.5h.22v.7c-.57.07-.73.23-.75.79v.65h.75v.7h-.75Z"/><path class="cls-3" d="M132.2,328.51a.5.5,0,0,1-.51.5.51.51,0,0,1,0-1A.51.51,0,0,1,132.2,328.51Zm-.12,6.14h-.79v-4.8h.79Z"/><path class="cls-3" d="M134.47,329.85v.81a1.33,1.33,0,0,1,.43-.63,1.51,1.51,0,0,1,.92-.29H136v.8h-.22a1.21,1.21,0,0,0-1,.55,1.74,1.74,0,0,0-.28,1.13v2.44h-.79v-4.8Z"/><path class="cls-3" d="M137.69,329.85v.67a1.49,1.49,0,0,1,1.37-.78,1.24,1.24,0,0,1,1.29.87,1.57,1.57,0,0,1,1.52-.87,1.43,1.43,0,0,1,1.21.5,1.93,1.93,0,0,1,.29,1.34v3.07h-.79v-2.89c0-.58,0-.71-.13-.91a.94.94,0,0,0-.83-.41c-.7,0-1.09.47-1.09,1.32v2.89h-.79v-2.87a1.88,1.88,0,0,0-.15-.92.84.84,0,0,0-.78-.42c-.7,0-1.12.5-1.12,1.34v2.87h-.79v-4.8Z"/><path class="cls-3" d="M147.15,331.16v-.05c0-.45-.36-.73-.91-.73s-.87.27-.87.69.21.57,1.07.81a2.48,2.48,0,0,1,1.17.55,1.34,1.34,0,0,1,.39.94c0,.83-.69,1.39-1.71,1.39s-1.71-.51-1.79-1.48h.78a.88.88,0,0,0,1,.84c.54,0,.89-.28.89-.71s-.27-.63-1.09-.83c-1-.28-1.51-.72-1.51-1.45s.68-1.39,1.69-1.39a1.46,1.46,0,0,1,1.67,1.42Z"/><path class="cls-2" d="M284.74,166.22H227.05V136.87h57.69Zm-56.69-1h55.69V137.87H228.05Z"/><path class="cls-3" d="M244.27,152.72a1.13,1.13,0,0,0,1.23,1.21,1.21,1.21,0,0,0,1.33-1.18c0-.6-.32-.88-1.41-1.25a3.47,3.47,0,0,1-1.4-.69,1.72,1.72,0,0,1-.54-1.32,2.07,2.07,0,0,1,4.13,0h-.88a1.35,1.35,0,0,0-.16-.72,1.2,1.2,0,0,0-1-.49,1.11,1.11,0,0,0-1.18,1.13,1,1,0,0,0,.4.8,3.75,3.75,0,0,0,1.11.49,3.12,3.12,0,0,1,1.37.75,1.79,1.79,0,0,1,.47,1.23,2,2,0,0,1-2.18,2,2,2,0,0,1-1.86-.94,1.76,1.76,0,0,1-.24-.9v-.15Z"/><path class="cls-3" d="M249.74,150.45a1.78,1.78,0,0,1,1.45-.78,1.61,1.61,0,0,1,1.11.44,1.64,1.64,0,0,1,.38,1.25v3.22h-.8V151.4c0-.66-.32-1-.89-1a1.21,1.21,0,0,0-.94.43,1.24,1.24,0,0,0-.31,1v2.81H249v-6.94h.79Z"/><path class="cls-3" d="M258.73,152.2a2.45,2.45,0,0,1-2.45,2.5,2.52,2.52,0,1,1,2.45-2.5Zm-4.07,0a1.64,1.64,0,1,0,1.65-1.79A1.63,1.63,0,0,0,254.66,152.19Z"/><path class="cls-3" d="M260.73,149.79v.87a1.86,1.86,0,0,1,1.75-1,2.27,2.27,0,0,1,2.26,2.48,2.31,2.31,0,0,1-2.26,2.55,2.35,2.35,0,0,1-1.05-.25,1.74,1.74,0,0,1-.7-.62v3h-.79v-7Zm0,2.47a1.58,1.58,0,0,0,1.58,1.75,1.63,1.63,0,0,0,1.58-1.83,1.86,1.86,0,0,0-.41-1.3,1.57,1.57,0,0,0-1.14-.5A1.68,1.68,0,0,0,260.73,152.26Z"/><path class="cls-2" d="M57.69,346.32H0V317H57.69ZM1,345.32H56.69V318H1Z"/><path class="cls-3" d="M18.27,333.63a3,3,0,0,1-2.54,1.18,3.06,3.06,0,0,1-2.38-1,3.89,3.89,0,0,1-.93-2.57,3.36,3.36,0,0,1,3.32-3.6,3.43,3.43,0,0,1,1.74.47,3.31,3.31,0,0,1,.81.72l-.6.56a2.46,2.46,0,0,0-1.93-.95,2.82,2.82,0,0,0,0,5.59,2.32,2.32,0,0,0,1.89-1Z"/><path class="cls-3" d="M23.78,332.3a2.45,2.45,0,0,1-2.45,2.5,2.52,2.52,0,1,1,2.45-2.5Zm-4.07,0a1.64,1.64,0,1,0,1.65-1.79A1.63,1.63,0,0,0,19.71,332.29Z"/><path class="cls-3" d="M25.78,329.89v.67a1.65,1.65,0,0,1,1.43-.79,1.67,1.67,0,0,1,1.11.4,1.56,1.56,0,0,1,.41,1.28v3.24h-.79v-3.06a1.37,1.37,0,0,0-.18-.83,1,1,0,0,0-.75-.32,1.22,1.22,0,0,0-.92.41,1.16,1.16,0,0,0-.31.87v2.93H25v-4.8Z"/><path class="cls-3" d="M31.13,333.71c0,.24.07.29.37.29h.36v.69h-.74c-.56,0-.78-.22-.78-.75v-3.36h-.67v-.69h.67v-1.51h.79v1.51h.73v.69h-.73Z"/><path class="cls-3" d="M36.51,329.89h.79v4.8h-.79v-.93a2,2,0,0,1-1.75,1,2.29,2.29,0,0,1-2.25-2.5,2.33,2.33,0,0,1,2.27-2.53,2,2,0,0,1,1.73.91Zm-2.78,1.16a2.22,2.22,0,0,0-.39,1.27,1.64,1.64,0,0,0,1.54,1.79,1.77,1.77,0,0,0,1.64-1.87,1.62,1.62,0,0,0-1.62-1.76A1.32,1.32,0,0,0,33.73,331.05Z"/><path class="cls-3" d="M42.63,334.09a2.45,2.45,0,0,1-1.77.71,2.52,2.52,0,0,1,0-5,2.37,2.37,0,0,1,1.75.72l-.51.51a1.77,1.77,0,0,0-1.22-.5,1.8,1.8,0,0,0,0,3.57,1.69,1.69,0,0,0,1.23-.52Z"/><path class="cls-3" d="M44.67,333.71c0,.24.07.29.37.29h.36v.69h-.74c-.56,0-.78-.22-.78-.75v-3.36h-.67v-.69h.67v-1.51h.79v1.51h.73v.69h-.73Z"/><path class="cls-2" d="M160.1,166.22H102.41V136.87H160.1Zm-56.69-1H159.1V137.87H103.41Z"/><path class="cls-3" d="M114.66,152.72a1.13,1.13,0,0,0,1.23,1.21,1.21,1.21,0,0,0,1.33-1.18c0-.6-.31-.88-1.4-1.25a3.46,3.46,0,0,1-1.41-.69,1.75,1.75,0,0,1-.54-1.32,2.07,2.07,0,0,1,4.13,0h-.87a1.25,1.25,0,0,0-.17-.72,1.19,1.19,0,0,0-1-.49,1.11,1.11,0,0,0-1.18,1.13,1,1,0,0,0,.4.8,4,4,0,0,0,1.11.49,3.17,3.17,0,0,1,1.38.75,1.79,1.79,0,0,1,.47,1.23,2,2,0,0,1-2.19,2,1.94,1.94,0,0,1-1.85-.94,1.67,1.67,0,0,1-.24-.9v-.15Z"/><path class="cls-3" d="M119.81,152.44a1.51,1.51,0,0,0,.31.87,1.58,1.58,0,0,0,1.3.66,1.65,1.65,0,0,0,1.43-.82l.7.26a2.36,2.36,0,0,1-2.13,1.29,2.52,2.52,0,1,1,2.4-2.57c0,.06,0,.2,0,.31Zm3.17-.58a1.54,1.54,0,0,0-.27-.83,1.67,1.67,0,0,0-1.33-.65,1.55,1.55,0,0,0-1.29.67,2,2,0,0,0-.27.81Z"/><path class="cls-3" d="M125.75,149.79v.81a1.38,1.38,0,0,1,.44-.64,1.55,1.55,0,0,1,.92-.29h.18v.8h-.21a1.23,1.23,0,0,0-1,.55,1.78,1.78,0,0,0-.29,1.14v2.43H125v-4.79Z"/><path class="cls-3" d="M132.21,149.79l-1.81,4.79h-.84l-1.75-4.79h.83l1.35,3.66,1.4-3.66Z"/><path class="cls-3" d="M134,148.44a.5.5,0,0,1-.51.5.51.51,0,0,1,0-1A.51.51,0,0,1,134,148.44Zm-.12,6.14H133v-4.79h.79Z"/><path class="cls-3" d="M139.16,154a2.45,2.45,0,0,1-1.77.71,2.52,2.52,0,0,1,0-5,2.37,2.37,0,0,1,1.75.72l-.51.51a1.77,1.77,0,0,0-1.22-.5,1.8,1.8,0,0,0,0,3.57,1.7,1.7,0,0,0,1.23-.52Z"/><path class="cls-3" d="M140.46,152.44a1.45,1.45,0,0,0,.31.87,1.55,1.55,0,0,0,1.29.66,1.65,1.65,0,0,0,1.44-.82l.7.26a2.47,2.47,0,1,1-2.17-3.74,2.39,2.39,0,0,1,2.44,2.46c0,.06,0,.2,0,.31Zm3.16-.58a1.46,1.46,0,0,0-.27-.83,1.65,1.65,0,0,0-1.32-.65,1.53,1.53,0,0,0-1.29.67,1.75,1.75,0,0,0-.27.81Z"/><path class="cls-3" d="M147.81,151.1v0c0-.45-.37-.73-.92-.73s-.86.27-.86.68.21.58,1.07.81a2.53,2.53,0,0,1,1.17.56,1.37,1.37,0,0,1,.38.93c0,.84-.69,1.4-1.71,1.4a1.56,1.56,0,0,1-1.79-1.48h.78a.89.89,0,0,0,1,.83c.54,0,.9-.28.9-.7s-.27-.63-1.09-.84c-1-.28-1.51-.72-1.51-1.44s.67-1.4,1.68-1.4a1.47,1.47,0,0,1,1.68,1.43Z"/><path class="cls-3" d="M61.18,470.58a1.13,1.13,0,0,0,1.23,1.21,1.2,1.2,0,0,0,1.33-1.17c0-.61-.31-.89-1.41-1.25a3.59,3.59,0,0,1-1.4-.7,1.73,1.73,0,0,1-.54-1.31,2.07,2.07,0,0,1,4.13,0h-.87a1.36,1.36,0,0,0-.17-.72,1.21,1.21,0,0,0-1-.49,1.11,1.11,0,0,0-1.18,1.13,1,1,0,0,0,.4.81,4.4,4.4,0,0,0,1.11.49,3.24,3.24,0,0,1,1.38.74,1.8,1.8,0,0,1,.46,1.23,2,2,0,0,1-2.18,2,1.93,1.93,0,0,1-1.85-.94,1.67,1.67,0,0,1-.24-.9v-.15Z"/><path class="cls-3" d="M69.43,467.65v3.07a1.57,1.57,0,0,1-.48,1.34,2.14,2.14,0,0,1-2.76,0,1.72,1.72,0,0,1-.48-1.33v-3.07h.79v3.05a1.06,1.06,0,0,0,1.07,1.15,1.12,1.12,0,0,0,.85-.36,1.06,1.06,0,0,0,.21-.77v-3.07Z"/><path class="cls-3" d="M71.68,472.45h-.79V465.5h.79v3a2,2,0,0,1,1.69-.94,2.32,2.32,0,0,1,2.28,2.53,2.28,2.28,0,0,1-2.24,2.5,2,2,0,0,1-1.73-.94Zm0-2.4a1.59,1.59,0,1,0,3.14,0,1.59,1.59,0,1,0-3.14,0Z"/><path class="cls-3" d="M77.64,467.65v.66a1.51,1.51,0,0,1,1.37-.78,1.25,1.25,0,0,1,1.29.88,1.56,1.56,0,0,1,1.52-.88A1.44,1.44,0,0,1,83,468a1.93,1.93,0,0,1,.3,1.34v3.07h-.8v-2.89c0-.58,0-.71-.13-.91a.94.94,0,0,0-.83-.41c-.7,0-1.09.47-1.09,1.32v2.89h-.79v-2.88a1.86,1.86,0,0,0-.15-.91.84.84,0,0,0-.78-.42c-.7,0-1.12.5-1.12,1.33v2.88h-.79v-4.8Z"/><path class="cls-3" d="M85.79,466.31a.5.5,0,0,1-.51.5.51.51,0,1,1,.51-.5Zm-.11,6.14h-.79v-4.8h.79Z"/><path class="cls-3" d="M88.11,471.47c0,.24.08.29.37.29h.36v.69H88.1c-.56,0-.78-.22-.78-.75v-3.35h-.66v-.7h.66v-1.51h.79v1.51h.73v.7h-.73Z"/><path class="cls-3" d="M94,472.45h-.79v-4.1h-.66v-.7h.66V467c0-.94.49-1.51,1.32-1.51h.22v.71c-.57.07-.73.23-.75.79v.65h.75v.7H94Z"/><path class="cls-3" d="M100.15,470.06a2.45,2.45,0,0,1-2.45,2.5,2.52,2.52,0,1,1,2.45-2.5Zm-4.07,0a1.64,1.64,0,1,0,1.65-1.79A1.63,1.63,0,0,0,96.08,470.05Z"/><path class="cls-3" d="M102.15,467.65v.81a1.34,1.34,0,0,1,.44-.63,1.48,1.48,0,0,1,.91-.3h.19v.81h-.22a1.22,1.22,0,0,0-1,.55,1.74,1.74,0,0,0-.28,1.13v2.44h-.79v-4.8Z"/><path class="cls-3" d="M105.38,467.65v.66a1.49,1.49,0,0,1,1.36-.78,1.24,1.24,0,0,1,1.29.88,1.56,1.56,0,0,1,1.52-.88,1.46,1.46,0,0,1,1.22.51,1.93,1.93,0,0,1,.29,1.34v3.07h-.79v-2.89c0-.58,0-.71-.14-.91a.93.93,0,0,0-.83-.41c-.7,0-1.08.47-1.08,1.32v2.89h-.79v-2.88a1.74,1.74,0,0,0-.16-.91.83.83,0,0,0-.78-.42c-.7,0-1.11.5-1.11,1.33v2.88h-.79v-4.8Z"/><path class="cls-3" d="M67.09,480.14l-1.71,4.79h-.71l-1.11-3.64-1.15,3.64h-.75L60,480.14h.82l1.22,3.52,1.11-3.52h.78L65,483.66l1.26-3.52Z"/><path class="cls-3" d="M67.38,487.18h-.67L70.19,478h.68Z"/><path class="cls-3" d="M75.18,484.93V478H76v6.94Z"/><path class="cls-3" d="M82.06,482.55a2.45,2.45,0,0,1-2.46,2.5,2.52,2.52,0,1,1,2.46-2.5Zm-4.07,0a1.62,1.62,0,0,0,1.63,1.78,1.64,1.64,0,0,0,1.62-1.78,1.63,1.63,0,1,0-3.25,0Z"/><path class="cls-3" d="M86.83,480.14h.79V485a2.23,2.23,0,0,1-.63,1.75,2.46,2.46,0,0,1-1.77.64,2.71,2.71,0,0,1-2.12-.87l.54-.55a3,3,0,0,0,.45.42,2.33,2.33,0,0,0,1.13.28,1.75,1.75,0,0,0,1.25-.47,1.62,1.62,0,0,0,.36-1.14v-1a2,2,0,0,1-1.77,1,2.31,2.31,0,0,1-2.21-2.5,2.76,2.76,0,0,1,.76-2,2.11,2.11,0,0,1,1.52-.56,1.93,1.93,0,0,1,1.7.94Zm-3.15,2.38a1.58,1.58,0,0,0,2.79,1.22,1.94,1.94,0,0,0,.34-1.19,1.68,1.68,0,0,0-.37-1.27,1.64,1.64,0,0,0-1.17-.53A1.61,1.61,0,0,0,83.68,482.52Z"/><path class="cls-3" d="M93.67,482.55a2.45,2.45,0,0,1-2.46,2.5,2.52,2.52,0,1,1,2.46-2.5Zm-4.07,0a1.63,1.63,0,0,0,1.64,1.78,1.64,1.64,0,0,0,1.62-1.78,1.64,1.64,0,1,0-3.26,0Z"/><path class="cls-3" d="M149.17,470.58a1.13,1.13,0,0,0,1.23,1.21,1.21,1.21,0,0,0,1.34-1.17c0-.61-.32-.89-1.41-1.25a3.74,3.74,0,0,1-1.41-.7,1.73,1.73,0,0,1-.54-1.31,2.07,2.07,0,0,1,4.13,0h-.87a1.27,1.27,0,0,0-.17-.72,1.2,1.2,0,0,0-1-.49,1.11,1.11,0,0,0-1.17,1.13,1,1,0,0,0,.39.81,4.35,4.35,0,0,0,1.12.49,3.13,3.13,0,0,1,1.37.74,1.81,1.81,0,0,1,.47,1.23,2,2,0,0,1-2.19,2,2,2,0,0,1-1.85-.94,1.76,1.76,0,0,1-.24-.9v-.15Z"/><path class="cls-3" d="M154.33,470.3a1.48,1.48,0,0,0,.31.88,1.57,1.57,0,0,0,1.29.65,1.65,1.65,0,0,0,1.43-.82l.7.26a2.35,2.35,0,0,1-2.13,1.29,2.52,2.52,0,1,1,2.4-2.57c0,.06,0,.2,0,.31Zm3.16-.58a1.43,1.43,0,0,0-.27-.82,1.63,1.63,0,0,0-1.32-.66,1.53,1.53,0,0,0-1.29.67,1.79,1.79,0,0,0-.27.81Z"/><path class="cls-3" d="M160.27,467.65v.68a1.62,1.62,0,0,1,1.42-.8,1.68,1.68,0,0,1,1.12.4,1.56,1.56,0,0,1,.4,1.28v3.24h-.79v-3.06a1.39,1.39,0,0,0-.17-.83,1,1,0,0,0-.75-.32,1.2,1.2,0,0,0-.92.41,1.13,1.13,0,0,0-.31.87v2.93h-.79v-4.8Z"/><path class="cls-3" d="M168.36,465.5h.8v6.95h-.8v-.83a1.93,1.93,0,0,1-1.71.94,2.29,2.29,0,0,1-2.26-2.49,2.35,2.35,0,0,1,2.26-2.54,2,2,0,0,1,1.71.85Zm-3.14,4.58a1.61,1.61,0,0,0,1.54,1.79,1.66,1.66,0,0,0,1.6-1.81,1.62,1.62,0,0,0-1.55-1.82A1.65,1.65,0,0,0,165.22,470.08Z"/><path class="cls-3" d="M173.87,472.45V465.5h.79v6.95Z"/><path class="cls-3" d="M180.75,470.06a2.45,2.45,0,0,1-2.46,2.5,2.52,2.52,0,1,1,2.46-2.5Zm-4.07,0a1.62,1.62,0,0,0,1.63,1.78,1.65,1.65,0,0,0,1.63-1.78,1.64,1.64,0,1,0-3.26,0Z"/><path class="cls-3" d="M185.53,467.65h.79v4.83a2.24,2.24,0,0,1-.64,1.76,2.5,2.5,0,0,1-1.77.63,2.71,2.71,0,0,1-2.12-.87l.54-.54a2.81,2.81,0,0,0,.46.41,2.29,2.29,0,0,0,1.12.28,1.71,1.71,0,0,0,1.25-.47,1.63,1.63,0,0,0,.37-1.14v-1a2,2,0,0,1-1.77,1,2.31,2.31,0,0,1-2.22-2.5,2.72,2.72,0,0,1,.76-2,2.08,2.08,0,0,1,1.52-.57,1.93,1.93,0,0,1,1.71.94ZM182.37,470a1.65,1.65,0,0,0,1.57,1.8,1.63,1.63,0,0,0,1.22-.58,1.94,1.94,0,0,0,.34-1.19,1.7,1.7,0,0,0-.37-1.27,1.64,1.64,0,0,0-1.17-.53A1.62,1.62,0,0,0,182.37,470Z"/><path class="cls-3" d="M192.36,470.06a2.45,2.45,0,0,1-2.45,2.5,2.52,2.52,0,1,1,2.45-2.5Zm-4.07,0a1.64,1.64,0,1,0,1.65-1.79A1.63,1.63,0,0,0,188.29,470.05Z"/><path class="cls-3" d="M152.41,480.14l-1.81,4.79h-.83L148,480.14h.83l1.35,3.66,1.4-3.66Z"/><path class="cls-3" d="M154.15,478.79a.5.5,0,0,1-.51.5.49.49,0,0,1-.5-.51.5.5,0,0,1,.51-.51A.51.51,0,0,1,154.15,478.79Zm-.12,6.14h-.79v-4.79H154Z"/><path class="cls-3" d="M159.25,480.14H160v4.79h-.79V484a2,2,0,0,1-1.75,1,2.3,2.3,0,0,1-2.26-2.5,2.33,2.33,0,0,1,2.28-2.53,2,2,0,0,1,1.73.91Zm-2.78,1.16a2.2,2.2,0,0,0-.39,1.27,1.64,1.64,0,0,0,1.53,1.79,1.77,1.77,0,0,0,1.65-1.87,1.62,1.62,0,0,0-1.62-1.76A1.32,1.32,0,0,0,156.47,481.3Z"/><path class="cls-3" d="M165.21,482.79a1.49,1.49,0,0,0,.31.87,1.55,1.55,0,0,0,1.29.66,1.65,1.65,0,0,0,1.44-.82l.7.26a2.47,2.47,0,1,1-2.17-3.74,2.39,2.39,0,0,1,2.44,2.46c0,.06,0,.2,0,.31Zm3.16-.58a1.41,1.41,0,0,0-.27-.82,1.63,1.63,0,0,0-1.32-.66,1.53,1.53,0,0,0-1.29.67,1.87,1.87,0,0,0-.27.81Z"/><path class="cls-3" d="M171.15,480.14v.66a1.51,1.51,0,0,1,1.37-.78,1.24,1.24,0,0,1,1.29.88,1.56,1.56,0,0,1,1.52-.88,1.44,1.44,0,0,1,1.21.51,1.9,1.9,0,0,1,.29,1.33v3.07H176v-2.88c0-.58,0-.72-.13-.91a.94.94,0,0,0-.83-.41c-.7,0-1.08.47-1.08,1.32v2.88h-.8v-2.87a1.81,1.81,0,0,0-.15-.91.84.84,0,0,0-.78-.42c-.7,0-1.12.5-1.12,1.33v2.87h-.79v-4.79Z"/><path class="cls-3" d="M182,480.14h.79v4.79H182V484a2,2,0,0,1-1.75,1,2.3,2.3,0,0,1-2.26-2.5,2.33,2.33,0,0,1,2.28-2.53,2,2,0,0,1,1.73.91Zm-2.78,1.16a2.2,2.2,0,0,0-.4,1.27,1.65,1.65,0,0,0,1.54,1.79,1.77,1.77,0,0,0,1.65-1.87,1.62,1.62,0,0,0-1.62-1.76A1.32,1.32,0,0,0,179.24,481.3Z"/><path class="cls-3" d="M185.31,478.79a.5.5,0,0,1-.51.5.49.49,0,0,1-.5-.51.5.5,0,0,1,.51-.51A.51.51,0,0,1,185.31,478.79Zm-.12,6.14h-.79v-4.79h.79Z"/><path class="cls-3" d="M186.78,484.93V478h.8v6.94Z"/><rect class="cls-1" x="90.2" y="577.51" width="75.75" height="31.48" rx="15.74"/><path class="cls-3" d="M106.82,591.48v.88a1.86,1.86,0,0,1,1.75-1,2.27,2.27,0,0,1,2.26,2.48,2.31,2.31,0,0,1-2.26,2.55,2.35,2.35,0,0,1-1-.25,1.68,1.68,0,0,1-.7-.62v3H106v-7Zm0,2.48a1.58,1.58,0,0,0,1.58,1.75,1.63,1.63,0,0,0,1.58-1.83,1.86,1.86,0,0,0-.41-1.3,1.53,1.53,0,0,0-1.14-.5A1.67,1.67,0,0,0,106.82,594Z"/><path class="cls-3" d="M116.52,593.9a2.45,2.45,0,0,1-2.46,2.5,2.52,2.52,0,1,1,2.46-2.5Zm-4.07,0a1.62,1.62,0,0,0,1.63,1.78,1.65,1.65,0,0,0,1.63-1.78,1.64,1.64,0,1,0-3.26,0Z"/><path class="cls-3" d="M121.32,591.48v3.07a1.62,1.62,0,0,1-.48,1.35,2.08,2.08,0,0,1-1.39.5,2,2,0,0,1-1.38-.51,1.79,1.79,0,0,1-.48-1.34v-3.07h.79v3a1.07,1.07,0,0,0,1.07,1.16,1.14,1.14,0,0,0,.86-.37,1.08,1.08,0,0,0,.2-.77v-3.07Z"/><path class="cls-3" d="M123.56,591.48v.82a1.38,1.38,0,0,1,.44-.64,1.49,1.49,0,0,1,.92-.29h.18v.8h-.22a1.25,1.25,0,0,0-1,.55,1.83,1.83,0,0,0-.28,1.14v2.43h-.79v-4.8Z"/><path class="cls-3" d="M129.63,595.69a2.45,2.45,0,0,1-1.77.71,2.52,2.52,0,0,1,0-5,2.37,2.37,0,0,1,1.75.72l-.51.51a1.73,1.73,0,0,0-1.22-.5,1.8,1.8,0,0,0,0,3.57,1.69,1.69,0,0,0,1.23-.52Z"/><path class="cls-3" d="M131.33,592.15a1.75,1.75,0,0,1,1.44-.78,1.61,1.61,0,0,1,1.12.44,1.64,1.64,0,0,1,.37,1.25v3.22h-.79V593.1c0-.66-.32-1-.89-1a1.22,1.22,0,0,0-.94.42,1.25,1.25,0,0,0-.31,1v2.81h-.79v-6.94h.79Z"/><path class="cls-3" d="M139.44,591.48h.8v4.8h-.8v-.92a2,2,0,0,1-1.74,1,2.3,2.3,0,0,1-2.26-2.5,2.33,2.33,0,0,1,2.28-2.53,2,2,0,0,1,1.72.9Zm-2.77,1.17a2.18,2.18,0,0,0-.4,1.27,1.65,1.65,0,0,0,1.54,1.79,1.77,1.77,0,0,0,1.65-1.87,1.62,1.62,0,0,0-1.63-1.76A1.28,1.28,0,0,0,136.67,592.65Z"/><path class="cls-3" d="M144,592.8v-.06c0-.44-.36-.73-.91-.73s-.87.28-.87.69.21.57,1.08.81a2.59,2.59,0,0,1,1.16.55,1.36,1.36,0,0,1,.39.94c0,.83-.69,1.4-1.71,1.4s-1.71-.51-1.79-1.48h.78a.89.89,0,0,0,1,.83c.54,0,.9-.28.9-.71s-.28-.62-1.1-.83c-1-.28-1.51-.72-1.51-1.45s.68-1.39,1.69-1.39a1.47,1.47,0,0,1,1.68,1.43Z"/><path class="cls-3" d="M146.55,594.14a1.54,1.54,0,0,0,.31.87,1.57,1.57,0,0,0,1.3.66,1.65,1.65,0,0,0,1.43-.82l.7.26a2.36,2.36,0,0,1-2.13,1.29,2.52,2.52,0,1,1,2.4-2.57c0,.06,0,.19,0,.31Zm3.17-.58a1.63,1.63,0,0,0-.27-.83,1.69,1.69,0,0,0-1.33-.65,1.55,1.55,0,0,0-1.29.66,2,2,0,0,0-.27.82Z"/><rect class="cls-3" x="129.99" y="31.48" width="0.75" height="32.42"/><polygon class="cls-3" points="126.62 62.81 130.36 69.28 134.1 62.81 126.62 62.81"/><rect class="cls-3" x="114.81" y="360.35" width="29.81" height="0.75" transform="translate(-231.52 489.03) rotate(-89.78)"/><polygon class="cls-3" points="125.92 374.52 129.63 381.01 133.4 374.55 125.92 374.52"/><rect class="cls-3" x="129.7" y="165.72" width="0.75" height="146.15"/><polygon class="cls-3" points="126.33 310.78 130.07 317.25 133.81 310.78 126.33 310.78"/><rect class="cls-3" x="254.63" y="165.72" width="0.75" height="32.06"/><polygon class="cls-3" points="251.26 196.69 255 203.16 258.74 196.69 251.26 196.69"/><path class="cls-3" d="M104.83,18.78H104V11.84h.87V15h3.38V11.84h.88v6.94h-.88V15.71h-3.38Z"/><path class="cls-3" d="M115.24,16.39a2.45,2.45,0,0,1-2.46,2.5,2.37,2.37,0,0,1-2.42-2.52,2.36,2.36,0,0,1,2.45-2.51A2.39,2.39,0,0,1,115.24,16.39Zm-4.07,0a1.62,1.62,0,0,0,1.63,1.78,1.65,1.65,0,0,0,1.63-1.78,1.64,1.64,0,1,0-3.26,0Z"/><path class="cls-3" d="M117.24,14v.66a1.49,1.49,0,0,1,1.36-.78,1.24,1.24,0,0,1,1.29.88,1.56,1.56,0,0,1,1.52-.88,1.46,1.46,0,0,1,1.22.51,1.93,1.93,0,0,1,.29,1.34v3.07h-.79V15.89c0-.58,0-.71-.14-.91a.93.93,0,0,0-.83-.41c-.7,0-1.08.47-1.08,1.32v2.89h-.79V15.9a1.74,1.74,0,0,0-.16-.91.83.83,0,0,0-.78-.42c-.7,0-1.11.5-1.11,1.33v2.88h-.79V14Z"/><path class="cls-3" d="M124.94,16.63a1.48,1.48,0,0,0,.31.88,1.57,1.57,0,0,0,1.29.65,1.68,1.68,0,0,0,1.44-.82l.69.26a2.34,2.34,0,0,1-2.13,1.29,2.38,2.38,0,0,1-2.45-2.5,2.43,2.43,0,1,1,4.85-.07c0,.06,0,.2,0,.31Zm3.16-.58a1.46,1.46,0,0,0-.27-.82,1.63,1.63,0,0,0-1.32-.66,1.53,1.53,0,0,0-1.29.67,1.79,1.79,0,0,0-.27.81Z"/><path class="cls-3" d="M134,14v.87a1.86,1.86,0,0,1,1.75-1A2.27,2.27,0,0,1,138,16.34a2.31,2.31,0,0,1-2.26,2.55,2.26,2.26,0,0,1-1.05-.25A1.7,1.7,0,0,1,134,18v3h-.79V14Zm0,2.48a1.57,1.57,0,0,0,1.58,1.74,1.63,1.63,0,0,0,1.59-1.83,1.86,1.86,0,0,0-.42-1.3,1.57,1.57,0,0,0-1.14-.5A1.68,1.68,0,0,0,134,16.46Z"/><path class="cls-3" d="M142.83,14h.79v4.8h-.79v-.93a2,2,0,0,1-1.75,1,2.3,2.3,0,0,1-2.26-2.5,2.34,2.34,0,0,1,2.28-2.53,2,2,0,0,1,1.73.91Zm-2.78,1.16a2.23,2.23,0,0,0-.4,1.27,1.65,1.65,0,0,0,1.54,1.79,1.77,1.77,0,0,0,1.65-1.87,1.62,1.62,0,0,0-1.63-1.76A1.31,1.31,0,0,0,140.05,15.14Z"/><path class="cls-3" d="M148.75,14h.79v4.83a2.24,2.24,0,0,1-.64,1.76,2.48,2.48,0,0,1-1.76.63,2.72,2.72,0,0,1-2.13-.87l.54-.54a3.29,3.29,0,0,0,.46.41,2.3,2.3,0,0,0,1.13.28,1.7,1.7,0,0,0,1.24-.47,1.63,1.63,0,0,0,.37-1.14v-1a2,2,0,0,1-1.77,1,2.31,2.31,0,0,1-2.22-2.5,2.72,2.72,0,0,1,.76-2,2.11,2.11,0,0,1,1.52-.57,2,2,0,0,1,1.71.94Zm-3.16,2.38a1.66,1.66,0,0,0,1.58,1.8,1.63,1.63,0,0,0,1.21-.58,1.94,1.94,0,0,0,.35-1.19,1.7,1.7,0,0,0-.38-1.27,1.59,1.59,0,0,0-2.76,1.24Z"/><path class="cls-3" d="M151.55,16.63a1.48,1.48,0,0,0,.31.88,1.57,1.57,0,0,0,1.29.65,1.67,1.67,0,0,0,1.44-.82l.69.26a2.34,2.34,0,0,1-2.13,1.29,2.38,2.38,0,0,1-2.45-2.5,2.43,2.43,0,1,1,4.85-.07c0,.06,0,.2,0,.31Zm3.16-.58a1.46,1.46,0,0,0-.27-.82,1.63,1.63,0,0,0-1.32-.66,1.53,1.53,0,0,0-1.29.67,1.79,1.79,0,0,0-.27.81Z"/><polygon class="cls-3" points="257.89 131.99 257.14 131.99 257.14 89.86 150.1 89.86 150.1 89.11 257.89 89.11 257.89 131.99"/><polygon class="cls-3" points="253.77 130.9 257.51 137.37 261.25 130.9 253.77 130.9"/><rect class="cls-3" x="129.99" y="109.23" width="0.75" height="22.76"/><polygon class="cls-3" points="126.62 130.9 130.36 137.37 134.1 130.9 126.62 130.9"/><rect class="cls-4" x="116.4" y="75.53" width="27.92" height="27.92" transform="translate(101.46 -65.97) rotate(45)"/><rect class="cls-5" x="116.4" y="75.53" width="27.92" height="27.92" transform="translate(101.46 -65.97) rotate(45)"/><path class="cls-3" d="M122.22,91.66a3.44,3.44,0,0,1-1.43.26,2.52,2.52,0,0,1-2.66-2.73,2.68,2.68,0,0,1,2.81-2.83,2.79,2.79,0,0,1,1.28.24l-.16.57a2.52,2.52,0,0,0-1.09-.23,2,2,0,0,0-2.1,2.22,2,2,0,0,0,2.07,2.17,2.88,2.88,0,0,0,1.13-.22Z"/><path class="cls-3" d="M123.07,86.16h.7v2.41h0a1.24,1.24,0,0,1,.5-.49,1.44,1.44,0,0,1,.72-.2c.52,0,1.35.32,1.35,1.65v2.31h-.7V89.61c0-.62-.24-1.15-.9-1.15a1,1,0,0,0-.94.7.87.87,0,0,0,0,.34v2.34h-.7Z"/><path class="cls-3" d="M131,89.87a1.89,1.89,0,0,1-1.93,2,1.83,1.83,0,0,1-1.85-2,1.88,1.88,0,0,1,1.91-2.05A1.83,1.83,0,0,1,131,89.87Zm-3.07,0c0,.85.48,1.49,1.17,1.49s1.18-.64,1.18-1.51c0-.65-.33-1.48-1.16-1.48S127.94,89.17,127.94,89.91Z"/><path class="cls-3" d="M135.4,89.87a1.89,1.89,0,0,1-1.93,2,1.83,1.83,0,0,1-1.85-2,1.88,1.88,0,0,1,1.92-2.05A1.83,1.83,0,0,1,135.4,89.87Zm-3.07,0c0,.85.49,1.49,1.17,1.49s1.18-.64,1.18-1.51c0-.65-.33-1.48-1.16-1.48S132.33,89.17,132.33,89.91Z"/><path class="cls-3" d="M136.19,91.12a1.93,1.93,0,0,0,.93.28c.51,0,.75-.26.75-.58s-.2-.52-.72-.71c-.69-.25-1-.63-1-1.1a1.19,1.19,0,0,1,1.33-1.13,1.93,1.93,0,0,1,1,.24l-.18.51a1.46,1.46,0,0,0-.79-.22c-.42,0-.65.23-.65.52s.23.47.74.66c.67.25,1,.59,1,1.17s-.53,1.16-1.44,1.16a2.19,2.19,0,0,1-1.09-.27Z"/><path class="cls-3" d="M139.85,90a1.24,1.24,0,0,0,1.33,1.34,2.6,2.6,0,0,0,1.07-.2l.12.51a3.17,3.17,0,0,1-1.29.24,1.8,1.8,0,0,1-1.9-2A1.88,1.88,0,0,1,141,87.88a1.63,1.63,0,0,1,1.6,1.82,2.5,2.5,0,0,1,0,.33Zm2.06-.51a1,1,0,0,0-1-1.14,1.17,1.17,0,0,0-1.08,1.14Z"/><rect class="cls-4" x="115.68" y="386.79" width="27.92" height="27.92" transform="translate(-245.4 209.04) rotate(-45)"/><rect class="cls-5" x="115.68" y="386.79" width="27.92" height="27.92" transform="translate(-245.4 209.04) rotate(-45)"/><path class="cls-3" d="M121.49,402.92a3.42,3.42,0,0,1-1.42.26,2.52,2.52,0,0,1-2.67-2.73,2.68,2.68,0,0,1,2.82-2.83,3,3,0,0,1,1.28.24l-.17.57a2.5,2.5,0,0,0-1.09-.22,2,2,0,0,0-2.1,2.22,2,2,0,0,0,2.07,2.17,2.67,2.67,0,0,0,1.13-.23Z"/><path class="cls-3" d="M122.34,397.42h.7v2.42h0a1.33,1.33,0,0,1,.5-.5,1.47,1.47,0,0,1,.72-.2c.52,0,1.35.32,1.35,1.66v2.3h-.7v-2.22c0-.63-.23-1.16-.9-1.16a1,1,0,0,0-.94.71.82.82,0,0,0,0,.33v2.34h-.7Z"/><path class="cls-3" d="M130.28,401.13a1.9,1.9,0,0,1-1.93,2.06,1.84,1.84,0,0,1-1.85-2,1.89,1.89,0,0,1,1.92-2.06A1.83,1.83,0,0,1,130.28,401.13Zm-3.07,0c0,.85.49,1.49,1.18,1.49s1.17-.63,1.17-1.5c0-.66-.33-1.49-1.16-1.49S127.21,400.44,127.21,401.17Z"/><path class="cls-3" d="M134.67,401.13a1.89,1.89,0,0,1-1.92,2.06,1.84,1.84,0,0,1-1.86-2,1.89,1.89,0,0,1,1.92-2.06A1.83,1.83,0,0,1,134.67,401.13Zm-3.07,0c0,.85.49,1.49,1.18,1.49s1.17-.63,1.17-1.5c0-.66-.33-1.49-1.16-1.49S131.6,400.44,131.6,401.17Z"/><path class="cls-3" d="M135.47,402.38a1.85,1.85,0,0,0,.92.28c.52,0,.76-.26.76-.58s-.2-.52-.72-.71c-.7-.25-1-.63-1-1.09a1.2,1.2,0,0,1,1.34-1.14,1.92,1.92,0,0,1,.95.24l-.18.51a1.55,1.55,0,0,0-.79-.22c-.41,0-.64.24-.64.53s.23.46.73.65c.67.26,1,.59,1,1.17s-.53,1.16-1.45,1.16a2.22,2.22,0,0,1-1.09-.27Z"/><path class="cls-3" d="M139.12,401.29a1.25,1.25,0,0,0,1.33,1.35,2.4,2.4,0,0,0,1.07-.21l.12.51a3.17,3.17,0,0,1-1.29.24,1.8,1.8,0,0,1-1.9-1.95,1.88,1.88,0,0,1,1.82-2.09,1.64,1.64,0,0,1,1.6,1.82,2.06,2.06,0,0,1,0,.33Zm2.07-.5a1,1,0,0,0-1-1.15,1.18,1.18,0,0,0-1.08,1.15Z"/><path class="cls-4" d="M255,306l-51.47-51.47L255,203.07l51.48,51.47ZM205,254.54,255,304.6l50.06-50.06L255,204.48Z"/><path class="cls-5" d="M255,306l-51.47-51.47L255,203.07l51.48,51.47ZM205,254.54,255,304.6l50.06-50.06L255,204.48Z"/><path class="cls-3" d="M230.77,239.79a12.46,12.46,0,0,1,1.85-.14,3.86,3.86,0,0,1,2.73.84,3.1,3.1,0,0,1,1,2.42,3.56,3.56,0,0,1-1,2.62,4.15,4.15,0,0,1-3,1,14,14,0,0,1-1.58-.08Zm.87,6a5.49,5.49,0,0,0,.88.05,2.59,2.59,0,0,0,2.87-2.86,2.4,2.4,0,0,0-2.73-2.6,4.94,4.94,0,0,0-1,.09Z"/><path class="cls-3" d="M241.82,244a2.37,2.37,0,0,1-2.41,2.57,2.3,2.3,0,0,1-2.32-2.49,2.36,2.36,0,0,1,2.4-2.57A2.29,2.29,0,0,1,241.82,244ZM238,244c0,1.06.61,1.86,1.47,1.86s1.47-.79,1.47-1.88c0-.82-.41-1.86-1.45-1.86S238,243.11,238,244Z"/><path class="cls-3" d="M245.37,241.6l1,2.86c.12.32.24.7.32,1h0c.09-.29.2-.66.32-1l1-2.84H249l-1.31,3.45a7.49,7.49,0,0,1-1.66,3,2.38,2.38,0,0,1-1.08.57l-.22-.74a2.33,2.33,0,0,0,.77-.43,2.67,2.67,0,0,0,.74-1,.57.57,0,0,0,.06-.21.67.67,0,0,0-.05-.23l-1.79-4.46Z"/><path class="cls-3" d="M254,244a2.37,2.37,0,0,1-2.41,2.57,2.3,2.3,0,0,1-2.31-2.49,2.36,2.36,0,0,1,2.39-2.57A2.29,2.29,0,0,1,254,244Zm-3.84.05c0,1.06.61,1.86,1.47,1.86s1.47-.79,1.47-1.88c0-.82-.41-1.86-1.45-1.86S250.19,243.11,250.19,244Z"/><path class="cls-3" d="M259.19,245.12c0,.5,0,.94,0,1.32h-.78l-.05-.79h0a1.82,1.82,0,0,1-1.6.9c-.76,0-1.67-.42-1.67-2.12V241.6H256v2.68c0,.92.28,1.54,1.08,1.54a1.27,1.27,0,0,0,1.16-.8,1.29,1.29,0,0,0,.08-.45v-3h.88Z"/><path class="cls-3" d="M263.12,241.6l.64,2.46c.14.54.27,1,.36,1.54h0c.11-.49.27-1,.43-1.53l.79-2.47h.74l.75,2.42c.18.58.32,1.09.43,1.58h0a14.55,14.55,0,0,1,.37-1.57l.69-2.43h.87l-1.56,4.84h-.8l-.74-2.31a16.13,16.13,0,0,1-.43-1.59h0a14.32,14.32,0,0,1-.44,1.6l-.78,2.3h-.8l-1.46-4.84Z"/><path class="cls-3" d="M270.13,242.91c0-.5,0-.91,0-1.31h.78l.05.8h0a1.78,1.78,0,0,1,1.6-.91c.66,0,1.71.4,1.71,2.06v2.89h-.89v-2.79c0-.78-.28-1.43-1.11-1.43a1.25,1.25,0,0,0-1.18.9,1.27,1.27,0,0,0-.06.41v2.91h-.88Z"/><path class="cls-3" d="M278.35,246.44l-.07-.61h0a1.8,1.8,0,0,1-1.48.72,1.38,1.38,0,0,1-1.48-1.39c0-1.17,1-1.81,2.91-1.8v-.1a1,1,0,0,0-1.1-1.12,2.41,2.41,0,0,0-1.26.36l-.2-.58a3,3,0,0,1,1.59-.43c1.48,0,1.84,1,1.84,2v1.81a6.81,6.81,0,0,0,.08,1.16Zm-.13-2.47c-1,0-2.05.15-2.05,1.09a.78.78,0,0,0,.83.84,1.2,1.2,0,0,0,1.17-.81.92.92,0,0,0,.05-.28Z"/><path class="cls-3" d="M281.51,240.21v1.39h1.26v.67h-1.26v2.61c0,.6.17.94.66.94a2,2,0,0,0,.51-.06l0,.66a2.15,2.15,0,0,1-.78.12,1.22,1.22,0,0,1-.95-.37,1.79,1.79,0,0,1-.34-1.26v-2.64h-.75v-.67h.75v-1.16Z"/><path class="cls-3" d="M231.06,253.6l1.06,2.85c.11.32.23.7.31,1h0c.09-.29.19-.66.31-1l1-2.83h.93L233.33,257a7.37,7.37,0,0,1-1.66,3,2.38,2.38,0,0,1-1.08.57l-.22-.74a2.33,2.33,0,0,0,.77-.43,2.67,2.67,0,0,0,.74-1,.63.63,0,0,0,.07-.21.77.77,0,0,0-.06-.23l-1.79-4.45Z"/><path class="cls-3" d="M239.73,256a2.37,2.37,0,0,1-2.41,2.57,2.3,2.3,0,0,1-2.32-2.49,2.36,2.36,0,0,1,2.4-2.56A2.28,2.28,0,0,1,239.73,256Zm-3.84,0c0,1.06.61,1.86,1.47,1.86s1.47-.79,1.47-1.88c0-.82-.41-1.85-1.45-1.85S235.89,255.1,235.89,256Z"/><path class="cls-3" d="M244.89,257.11c0,.5,0,.94,0,1.32h-.78l-.05-.79h0a1.82,1.82,0,0,1-1.6.9c-.76,0-1.67-.42-1.67-2.12V253.6h.88v2.67c0,.92.28,1.54,1.08,1.54a1.27,1.27,0,0,0,1.16-.8,1.29,1.29,0,0,0,.08-.45v-3h.88Z"/><path class="cls-3" d="M246.35,255.1c0-.57,0-1,0-1.5h.77l0,1h0a1.45,1.45,0,0,1,1.34-1.06,1,1,0,0,1,.25,0v.83a1.35,1.35,0,0,0-.31,0,1.24,1.24,0,0,0-1.18,1.12c0,.12,0,.26,0,.41v2.58h-.87Z"/><path class="cls-3" d="M251.73,251.34h.88v7.09h-.88Z"/><path class="cls-3" d="M258.47,256a2.37,2.37,0,0,1-2.41,2.57,2.3,2.3,0,0,1-2.32-2.49,2.36,2.36,0,0,1,2.4-2.56A2.28,2.28,0,0,1,258.47,256Zm-3.84,0c0,1.06.61,1.86,1.47,1.86s1.47-.79,1.47-1.88c0-.82-.41-1.85-1.45-1.85S254.63,255.1,254.63,256Z"/><path class="cls-3" d="M263.75,253.6c0,.35,0,.74,0,1.32v2.81a2.78,2.78,0,0,1-.69,2.21,2.57,2.57,0,0,1-1.76.58,3.12,3.12,0,0,1-1.61-.4l.22-.67a2.73,2.73,0,0,0,1.42.38c.9,0,1.56-.47,1.56-1.69v-.54h0a1.73,1.73,0,0,1-1.54.81,2.16,2.16,0,0,1-2.06-2.36,2.32,2.32,0,0,1,2.18-2.56,1.61,1.61,0,0,1,1.51.84h0l0-.73Zm-.91,1.9a1.25,1.25,0,0,0,0-.4,1.27,1.27,0,0,0-1.23-.92c-.84,0-1.44.71-1.44,1.82,0,.95.48,1.74,1.43,1.74a1.29,1.29,0,0,0,1.22-.9,1.53,1.53,0,0,0,.07-.47Z"/><path class="cls-3" d="M269.55,256a2.37,2.37,0,0,1-2.41,2.57,2.3,2.3,0,0,1-2.32-2.49,2.36,2.36,0,0,1,2.4-2.56A2.28,2.28,0,0,1,269.55,256Zm-3.84,0c0,1.06.61,1.86,1.47,1.86s1.47-.79,1.47-1.88c0-.82-.41-1.85-1.45-1.85S265.71,255.1,265.71,256Z"/><path class="cls-3" d="M277.15,256a2.36,2.36,0,0,1-2.4,2.57,2.3,2.3,0,0,1-2.32-2.49,2.36,2.36,0,0,1,2.4-2.56A2.28,2.28,0,0,1,277.15,256Zm-3.83,0c0,1.06.6,1.86,1.46,1.86s1.47-.79,1.47-1.88c0-.82-.41-1.85-1.44-1.85S273.32,255.1,273.32,256Z"/><path class="cls-3" d="M278.26,254.91c0-.5,0-.91,0-1.31H279l.05.8h0a1.78,1.78,0,0,1,1.6-.91c.67,0,1.71.4,1.71,2v2.89h-.88v-2.79c0-.77-.29-1.42-1.12-1.42a1.24,1.24,0,0,0-1.18.89,1.27,1.27,0,0,0-.06.41v2.91h-.88Z"/><path class="cls-3" d="M231.8,264.2v1.39h1.26v.67H231.8v2.61c0,.6.17.94.66.94a2,2,0,0,0,.51-.06l0,.66a2.15,2.15,0,0,1-.78.12,1.22,1.22,0,0,1-.95-.37,1.79,1.79,0,0,1-.34-1.26v-2.64h-.75v-.67h.75v-1.16Z"/><path class="cls-3" d="M234.05,263.33h.88v3h0a1.63,1.63,0,0,1,.63-.62,1.81,1.81,0,0,1,.9-.25c.65,0,1.69.4,1.69,2.07v2.88h-.88v-2.78c0-.78-.29-1.44-1.12-1.44a1.26,1.26,0,0,0-1.18.88,1.07,1.07,0,0,0-.06.42v2.92h-.88Z"/><path class="cls-3" d="M240.09,268.17a1.55,1.55,0,0,0,1.66,1.68,3.18,3.18,0,0,0,1.34-.25l.15.63a3.92,3.92,0,0,1-1.61.3,2.25,2.25,0,0,1-2.38-2.44,2.35,2.35,0,0,1,2.27-2.61,2.05,2.05,0,0,1,2,2.28,3.32,3.32,0,0,1,0,.41Zm2.58-.63a1.25,1.25,0,0,0-1.22-1.43,1.46,1.46,0,0,0-1.35,1.43Z"/><path class="cls-3" d="M246.73,267.17c0-.62,0-1.12,0-1.58h.8l0,.83h0a1.91,1.91,0,0,1,1.72-.94,2.19,2.19,0,0,1,2.05,2.46c0,1.74-1.06,2.6-2.2,2.6a1.71,1.71,0,0,1-1.49-.76h0v2.63h-.86Zm.86,1.29a2,2,0,0,0,0,.36,1.37,1.37,0,0,0,1.32,1c.93,0,1.47-.76,1.47-1.87s-.51-1.8-1.44-1.8a1.39,1.39,0,0,0-1.32,1.09,1.1,1.1,0,0,0-.07.36Z"/><path class="cls-3" d="M252.41,267.1c0-.57,0-1.06,0-1.51h.77l0,1h0a1.45,1.45,0,0,1,1.34-1.06,1,1,0,0,1,.25,0v.83a1.32,1.32,0,0,0-.3,0,1.23,1.23,0,0,0-1.18,1.13,2.48,2.48,0,0,0,0,.41v2.58h-.87Z"/><path class="cls-3" d="M260,268a2.37,2.37,0,0,1-2.41,2.57,2.3,2.3,0,0,1-2.32-2.49,2.36,2.36,0,0,1,2.4-2.57A2.29,2.29,0,0,1,260,268Zm-3.84,0c0,1.06.61,1.86,1.47,1.86s1.47-.79,1.47-1.88c0-.82-.41-1.86-1.45-1.86S256.12,267.1,256.12,268Z"/><path class="cls-3" d="M265.25,263.33v5.85c0,.43,0,.92,0,1.25h-.79l0-.84h0a1.79,1.79,0,0,1-1.65,1,2.21,2.21,0,0,1-2.07-2.46,2.32,2.32,0,0,1,2.17-2.6,1.62,1.62,0,0,1,1.46.74h0v-2.89Zm-.88,4.23a1.55,1.55,0,0,0,0-.37,1.29,1.29,0,0,0-1.27-1c-.91,0-1.45.8-1.45,1.87s.48,1.79,1.43,1.79a1.32,1.32,0,0,0,1.29-1.05,1.53,1.53,0,0,0,0-.38Z"/><path class="cls-3" d="M270.76,269.11c0,.5,0,.94,0,1.32H270l0-.79h0a1.82,1.82,0,0,1-1.6.9c-.76,0-1.67-.42-1.67-2.12v-2.83h.88v2.68c0,.92.28,1.54,1.08,1.54a1.27,1.27,0,0,0,1.16-.8,1.29,1.29,0,0,0,.08-.45v-3h.88Z"/><path class="cls-3" d="M275.67,270.25a3.33,3.33,0,0,1-1.4.28,2.3,2.3,0,0,1-2.4-2.47,2.46,2.46,0,0,1,2.6-2.57,2.89,2.89,0,0,1,1.21.25l-.19.68a2.1,2.1,0,0,0-1-.23,1.67,1.67,0,0,0-1.71,1.83,1.66,1.66,0,0,0,1.67,1.81,2.5,2.5,0,0,0,1.08-.24Z"/><path class="cls-3" d="M277.88,264.2v1.39h1.26v.67h-1.26v2.61c0,.6.17.94.66.94a2,2,0,0,0,.51-.06l0,.66a2.15,2.15,0,0,1-.78.12,1.22,1.22,0,0,1-.95-.37,1.79,1.79,0,0,1-.34-1.26v-2.64h-.75v-.67H277v-1.16Z"/><path class="cls-3" d="M280.81,268.52l0-.26a2.3,2.3,0,0,1,.62-1.73,2.2,2.2,0,0,0,.7-1.37c0-.51-.32-.85-.95-.86a1.78,1.78,0,0,0-1,.31l-.24-.63a2.62,2.62,0,0,1,1.43-.4,1.48,1.48,0,0,1,1.67,1.47,2.71,2.71,0,0,1-.86,1.74,2,2,0,0,0-.57,1.47v.26Zm-.22,1.4a.59.59,0,0,1,.6-.63.63.63,0,1,1-.6.63Z"/><polygon class="cls-3" points="29.22 311.87 28.47 311.87 28.47 89.11 110.62 89.11 110.62 89.86 29.22 89.86 29.22 311.87"/><polygon class="cls-3" points="32.59 310.78 28.85 317.25 25.11 310.78 32.59 310.78"/><polygon class="cls-3" points="130.5 530.73 27.92 530.73 27.92 345.82 28.67 345.82 28.67 529.98 130.5 529.98 130.5 530.73"/><rect class="cls-3" x="135.46" y="254.17" width="68.68" height="0.75"/><polygon class="cls-3" points="136.55 250.8 130.07 254.54 136.55 258.28 136.55 250.8"/><rect class="cls-6" x="147.64" y="240.37" width="42.52" height="28.35"/><path class="cls-2" d="M190.66,269.21H147.14V239.87h43.52Zm-42.52-1h41.52V240.87H148.14Z"/><path class="cls-3" d="M165.39,252.78h.87l-2.86,7.11h-.87l1-2.46-1.7-4.65h.84l1.29,3.56Z"/><path class="cls-3" d="M167.41,255.43A1.62,1.62,0,0,0,169,257a1.65,1.65,0,0,0,1.43-.82l.7.26a2.43,2.43,0,0,1-4.58-1.2,2.43,2.43,0,1,1,4.85-.08c0,.06,0,.2,0,.31Zm3.17-.58a1.54,1.54,0,0,0-.27-.82,1.65,1.65,0,0,0-1.32-.66,1.55,1.55,0,0,0-1.3.67,2.13,2.13,0,0,0-.27.81Z"/><path class="cls-3" d="M174.76,254.09V254c0-.45-.36-.73-.92-.73s-.86.27-.86.69.21.57,1.07.81a2.48,2.48,0,0,1,1.17.55,1.33,1.33,0,0,1,.38.94c0,.83-.68,1.39-1.7,1.39s-1.71-.51-1.79-1.47h.78a.88.88,0,0,0,1,.83c.54,0,.89-.28.89-.71s-.27-.62-1.09-.83c-1-.28-1.51-.72-1.51-1.45s.68-1.39,1.69-1.39a1.46,1.46,0,0,1,1.67,1.42Z"/><polygon class="cls-3" points="128.45 571.29 127.7 571.29 127.7 529.98 254.63 529.98 254.63 364.77 255.38 364.77 255.38 530.73 128.45 530.73 128.45 571.29"/><polygon class="cls-3" points="124.33 570.2 128.07 576.67 131.81 570.2 124.33 570.2"/><rect class="cls-3" x="254.63" y="305.31" width="0.75" height="24.91"/><polygon class="cls-3" points="251.26 329.12 255 335.6 258.74 329.12 251.26 329.12"/><rect class="cls-6" x="233.74" y="335.6" width="42.52" height="28.35"/><path class="cls-2" d="M276.76,364.44H233.25V335.1h43.51Zm-42.51-1h41.51V336.1H234.25Z"/><path class="cls-3" d="M251.09,348v.67a1.63,1.63,0,0,1,1.42-.79,1.7,1.7,0,0,1,1.12.4,1.56,1.56,0,0,1,.4,1.28v3.24h-.79v-3.06a1.3,1.3,0,0,0-.18-.83.93.93,0,0,0-.75-.32,1.19,1.19,0,0,0-.91.41,1.13,1.13,0,0,0-.31.87v2.93h-.79V348Z"/><path class="cls-3" d="M260.09,350.42a2.45,2.45,0,0,1-2.46,2.5,2.52,2.52,0,1,1,2.46-2.5Zm-4.07,0a1.62,1.62,0,0,0,1.63,1.78,1.65,1.65,0,0,0,1.63-1.78,1.64,1.64,0,1,0-3.26,0Z"/><rect class="cls-3" x="62.58" y="331.27" width="40.46" height="0.75"/><polygon class="cls-3" points="63.67 327.91 57.19 331.65 63.67 335.39 63.67 327.91"/><polygon class="cls-3" points="170.74 447.02 169.99 447.02 169.99 438.87 87.83 438.87 87.83 447.02 87.08 447.02 87.08 438.12 170.74 438.12 170.74 447.02"/><polygon class="cls-3" points="91.19 445.92 87.45 452.4 83.71 445.92 91.19 445.92"/><polygon class="cls-3" points="166.62 445.92 170.36 452.4 174.1 445.92 166.62 445.92"/><rect class="cls-3" x="129.26" y="420.49" width="0.75" height="18"/><rect class="cls-3" x="169.99" y="497.75" width="0.75" height="32.6" transform="translate(-5.01 1.69) rotate(-0.56)"/><rect class="cls-3" x="84.74" y="497.75" width="0.75" height="32.6"/></g></g></svg>