<svg xmlns="http://www.w3.org/2000/svg" viewBox="0 0 605.24 105.93"><defs><style>.cls-1{fill:#6ba332;}.cls-1,.cls-5{opacity:0.5;}.cls-2{fill:#221f20;}.cls-3{fill:blue;}.cls-4,.cls-5{fill:#f3524d;}</style></defs><title>flowwholesale1</title><g id="Layer_2" data-name="Layer 2"><g id="Layer_1-2" data-name="Layer 1"><rect class="cls-1" y="4" width="75.75" height="31.48" rx="15.74"/><rect class="cls-1" x="529.49" y="4" width="75.75" height="31.48" rx="15.74"/><path class="cls-2" d="M379.74,15.38h.91l-2.12,6.94h-.77l-1.53-5.45-1.54,5.45h-.77l-2.13-6.94h.93l1.58,5.32,1.54-5.32h.82l1.49,5.34Z"/><path class="cls-2" d="M382.28,18.19a1.78,1.78,0,0,1,1.45-.78,1.59,1.59,0,0,1,1.11.44,1.64,1.64,0,0,1,.38,1.25v3.22h-.79V19.14c0-.66-.33-1-.9-1a1.21,1.21,0,0,0-.93.42,1.27,1.27,0,0,0-.32,1v2.81h-.79V15.38h.79Z"/><path class="cls-2" d="M391.27,19.94a2.45,2.45,0,0,1-2.45,2.5,2.37,2.37,0,0,1-2.43-2.52,2.44,2.44,0,1,1,4.88,0Zm-4.06,0a1.62,1.62,0,0,0,1.63,1.78,1.64,1.64,0,0,0,1.62-1.78,1.63,1.63,0,1,0-3.25,0Z"/><path class="cls-2" d="M392.48,22.32V15.38h.79v6.94Z"/><path class="cls-2" d="M395.32,20.18a1.48,1.48,0,0,0,.32.87,1.55,1.55,0,0,0,1.29.66,1.65,1.65,0,0,0,1.43-.82l.7.26a2.36,2.36,0,0,1-2.13,1.29,2.38,2.38,0,0,1-2.45-2.5,2.43,2.43,0,1,1,4.85-.07c0,.06,0,.19,0,.31Zm3.17-.58a1.54,1.54,0,0,0-.27-.83,1.67,1.67,0,0,0-1.33-.65,1.56,1.56,0,0,0-1.29.66,2.13,2.13,0,0,0-.27.82Z"/><path class="cls-2" d="M402.67,18.84v-.06c0-.44-.36-.72-.91-.72s-.87.27-.87.68.21.57,1.07.81a2.48,2.48,0,0,1,1.17.56,1.31,1.31,0,0,1,.38.93c0,.83-.68,1.4-1.7,1.4S400.1,21.93,400,21h.78a.88.88,0,0,0,1,.83c.54,0,.89-.28.89-.71s-.27-.62-1.09-.83c-1-.28-1.51-.72-1.51-1.45s.68-1.39,1.69-1.39a1.46,1.46,0,0,1,1.67,1.43Z"/><path class="cls-2" d="M408.3,17.52h.79v4.8h-.79V21.4a2,2,0,0,1-1.75,1,2.3,2.3,0,0,1-2.26-2.5,2.33,2.33,0,0,1,2.28-2.53,2,2,0,0,1,1.73.91Zm-2.78,1.17a2.17,2.17,0,0,0-.39,1.27,1.64,1.64,0,0,0,1.54,1.79,1.77,1.77,0,0,0,1.64-1.87,1.62,1.62,0,0,0-1.62-1.76A1.3,1.3,0,0,0,405.52,18.69Z"/><path class="cls-2" d="M410.68,22.32V15.38h.79v6.94Z"/><path class="cls-2" d="M413.53,20.18a1.47,1.47,0,0,0,.31.87,1.55,1.55,0,0,0,1.29.66,1.65,1.65,0,0,0,1.43-.82l.7.26a2.35,2.35,0,0,1-2.13,1.29,2.38,2.38,0,0,1-2.45-2.5,2.43,2.43,0,1,1,4.85-.07c0,.06,0,.19,0,.31Zm3.16-.58a1.46,1.46,0,0,0-.27-.83,1.65,1.65,0,0,0-1.32-.65,1.55,1.55,0,0,0-1.29.66,1.84,1.84,0,0,0-.27.82Z"/><path class="cls-3" d="M438.18,34.41H351.45V5.07h86.73Zm-85.73-1h84.73V6.07H352.45Z"/><path class="cls-3" d="M276.88,105.93H200.15V76.58h76.73Zm-75.73-1h74.73V77.58H201.15Z"/><path class="cls-2" d="M227.94,93.24a3,3,0,0,1-2.54,1.18,3.1,3.1,0,0,1-2.39-1,3.94,3.94,0,0,1-.92-2.57,3.36,3.36,0,0,1,5.06-3.13,3.67,3.67,0,0,1,.81.71l-.61.57a2.43,2.43,0,0,0-1.92-1,2.82,2.82,0,0,0,0,5.59,2.29,2.29,0,0,0,1.88-1Z"/><path class="cls-2" d="M233.45,91.91a2.45,2.45,0,0,1-2.45,2.5,2.52,2.52,0,1,1,2.45-2.5Zm-4.07,0A1.63,1.63,0,0,0,231,93.68a1.64,1.64,0,0,0,1.62-1.78A1.61,1.61,0,0,0,231,90.11,1.63,1.63,0,0,0,229.38,91.9Z"/><path class="cls-2" d="M235.45,89.5v.67a1.65,1.65,0,0,1,1.43-.79,1.67,1.67,0,0,1,1.11.4,1.56,1.56,0,0,1,.4,1.28v3.23h-.79V91.23a1.37,1.37,0,0,0-.17-.82.93.93,0,0,0-.75-.32,1.19,1.19,0,0,0-.92.4,1.14,1.14,0,0,0-.31.88v2.92h-.79V89.5Z"/><path class="cls-2" d="M240.8,93.32c0,.23.07.29.36.29h.37v.68h-.74c-.56,0-.78-.22-.78-.75V90.19h-.67V89.5H240V88h.79V89.5h.73v.69h-.73Z"/><path class="cls-2" d="M246.18,89.5H247v4.79h-.79v-.92a2,2,0,0,1-1.75,1,2.3,2.3,0,0,1-2.26-2.5,2.33,2.33,0,0,1,2.28-2.53,2,2,0,0,1,1.73.91Zm-2.78,1.16a2.2,2.2,0,0,0-.39,1.27,1.64,1.64,0,0,0,1.54,1.79,1.77,1.77,0,0,0,1.64-1.87,1.62,1.62,0,0,0-1.62-1.76A1.32,1.32,0,0,0,243.4,90.66Z"/><path class="cls-2" d="M252.3,93.7a2.45,2.45,0,0,1-1.77.71,2.52,2.52,0,0,1,0-5,2.37,2.37,0,0,1,1.75.72l-.51.51a1.77,1.77,0,0,0-1.22-.5,1.8,1.8,0,0,0,0,3.57,1.7,1.7,0,0,0,1.23-.52Z"/><path class="cls-2" d="M254.34,93.32c0,.23.07.29.36.29h.37v.68h-.74c-.56,0-.78-.22-.78-.75V90.19h-.67V89.5h.67V88h.79V89.5h.73v.69h-.73Z"/><path class="cls-3" d="M278.27,34.41H201.54V5.07h76.73Zm-75.73-1h74.73V6.07H202.54Z"/><path class="cls-2" d="M223.31,20.92a1.13,1.13,0,0,0,1.23,1.2A1.2,1.2,0,0,0,225.87,21c0-.61-.31-.89-1.4-1.25a3.59,3.59,0,0,1-1.41-.7,1.73,1.73,0,0,1-.54-1.31,2.07,2.07,0,0,1,4.13,0h-.87a1.27,1.27,0,0,0-.17-.72,1.2,1.2,0,0,0-1-.49,1.11,1.11,0,0,0-1.17,1.14,1,1,0,0,0,.39.8,4.35,4.35,0,0,0,1.12.49,3,3,0,0,1,1.37.75,1.79,1.79,0,0,1,.47,1.22,2,2,0,0,1-2.19,2,2,2,0,0,1-1.85-.93,1.82,1.82,0,0,1-.24-.91v-.14Z"/><path class="cls-2" d="M228.47,20.63a1.48,1.48,0,0,0,.31.88,1.57,1.57,0,0,0,1.29.65,1.65,1.65,0,0,0,1.43-.82l.7.26a2.35,2.35,0,0,1-2.13,1.29,2.38,2.38,0,0,1-2.45-2.5,2.43,2.43,0,1,1,4.85-.07c0,.06,0,.2,0,.31Zm3.16-.58a1.46,1.46,0,0,0-.27-.82,1.63,1.63,0,0,0-1.32-.66,1.53,1.53,0,0,0-1.29.67,1.84,1.84,0,0,0-.27.81Z"/><path class="cls-2" d="M234.41,18v.81a1.33,1.33,0,0,1,.43-.63,1.51,1.51,0,0,1,.92-.29H236v.8h-.22a1.21,1.21,0,0,0-1,.55,1.74,1.74,0,0,0-.28,1.13v2.44h-.79V18Z"/><path class="cls-2" d="M240.86,18l-1.81,4.8h-.83L236.46,18h.83l1.35,3.66L240,18Z"/><path class="cls-2" d="M242.6,16.64a.5.5,0,0,1-.51.5.51.51,0,0,1,0-1A.51.51,0,0,1,242.6,16.64Zm-.12,6.14h-.79V18h.79Z"/><path class="cls-2" d="M247.81,22.18a2.45,2.45,0,0,1-1.77.71,2.34,2.34,0,0,1-2.35-2.5,2.43,2.43,0,0,1,4.14-1.81l-.51.51a1.77,1.77,0,0,0-1.22-.5,1.62,1.62,0,0,0-1.6,1.77,1.63,1.63,0,0,0,1.59,1.8,1.65,1.65,0,0,0,1.23-.52Z"/><path class="cls-2" d="M249.11,20.63a1.54,1.54,0,0,0,.31.88,1.59,1.59,0,0,0,1.3.65,1.65,1.65,0,0,0,1.43-.82l.7.26a2.36,2.36,0,0,1-2.13,1.29,2.38,2.38,0,0,1-2.45-2.5,2.43,2.43,0,1,1,4.85-.07c0,.06,0,.2,0,.31Zm3.17-.58a1.63,1.63,0,0,0-.27-.82,1.67,1.67,0,0,0-1.33-.66,1.53,1.53,0,0,0-1.29.67,2,2,0,0,0-.27.81Z"/><path class="cls-2" d="M256.46,19.29v-.05c0-.45-.36-.73-.92-.73s-.86.27-.86.69.21.57,1.07.81a2.48,2.48,0,0,1,1.17.55,1.33,1.33,0,0,1,.38.94c0,.83-.68,1.39-1.7,1.39s-1.71-.51-1.79-1.48h.78a.88.88,0,0,0,1,.84c.54,0,.89-.28.89-.71s-.27-.62-1.09-.83c-1-.28-1.51-.72-1.51-1.45s.68-1.39,1.69-1.39a1.46,1.46,0,0,1,1.67,1.42Z"/><path class="cls-2" d="M556.79,21.27a3.08,3.08,0,0,1-2.54,1.18,3.13,3.13,0,0,1-2.39-1,4,4,0,0,1-.92-2.57,3.36,3.36,0,0,1,3.32-3.6,3.43,3.43,0,0,1,1.74.46,4.06,4.06,0,0,1,.81.72l-.61.56a2.45,2.45,0,0,0-1.92-.94,2.55,2.55,0,0,0-2.45,2.8,2.58,2.58,0,0,0,2.49,2.79,2.31,2.31,0,0,0,1.88-1Z"/><path class="cls-2" d="M562.3,19.94a2.45,2.45,0,0,1-2.45,2.5,2.37,2.37,0,0,1-2.43-2.52,2.44,2.44,0,1,1,4.88,0Zm-4.07,0a1.63,1.63,0,0,0,1.64,1.78,1.64,1.64,0,0,0,1.62-1.78,1.61,1.61,0,0,0-1.61-1.79A1.63,1.63,0,0,0,558.23,19.93Z"/><path class="cls-2" d="M564.3,17.52v.68a1.65,1.65,0,0,1,1.43-.79,1.67,1.67,0,0,1,1.11.4,1.56,1.56,0,0,1,.41,1.28v3.23h-.79V19.26a1.36,1.36,0,0,0-.18-.82.93.93,0,0,0-.75-.32,1.21,1.21,0,0,0-.92.4,1.14,1.14,0,0,0-.31.88v2.92h-.79v-4.8Z"/><path class="cls-2" d="M569.65,21.34c0,.24.07.3.36.3h.37v.68h-.74c-.56,0-.78-.22-.78-.75V18.22h-.67v-.7h.67V16h.79v1.5h.73v.7h-.73Z"/><path class="cls-2" d="M575,17.52h.79v4.8H575V21.4a2,2,0,0,1-1.75,1,2.3,2.3,0,0,1-2.26-2.5,2.33,2.33,0,0,1,2.28-2.53,2,2,0,0,1,1.73.91Zm-2.78,1.17a2.17,2.17,0,0,0-.39,1.27,1.64,1.64,0,0,0,1.54,1.79A1.77,1.77,0,0,0,575,19.88a1.62,1.62,0,0,0-1.62-1.76A1.3,1.3,0,0,0,572.25,18.69Z"/><path class="cls-2" d="M581.15,21.73a2.45,2.45,0,0,1-1.77.71,2.34,2.34,0,0,1-2.35-2.5,2.42,2.42,0,0,1,4.14-1.81l-.51.51a1.77,1.77,0,0,0-1.22-.5,1.62,1.62,0,0,0-1.6,1.77,1.63,1.63,0,0,0,1.59,1.8,1.7,1.7,0,0,0,1.23-.52Z"/><path class="cls-2" d="M583.19,21.34c0,.24.07.3.36.3h.37v.68h-.74c-.56,0-.78-.22-.78-.75V18.22h-.67v-.7h.67V16h.79v1.5h.73v.7h-.73Z"/><rect class="cls-2" x="74.76" y="19.37" width="52.42" height="0.75"/><polygon class="cls-2" points="126.08 23.48 132.56 19.74 126.08 16 126.08 23.48"/><rect class="cls-2" x="437.68" y="19.23" width="86.05" height="0.75"/><polygon class="cls-2" points="522.64 23.35 529.11 19.61 522.64 15.87 522.64 23.35"/><rect class="cls-2" x="277.77" y="19.23" width="66.15" height="0.75"/><polygon class="cls-2" points="342.83 23.35 349.3 19.61 342.83 15.87 342.83 23.35"/><path class="cls-2" d="M12.34,22.78h-.87V15.84h.87V19h3.38V15.84h.88v6.94h-.88V19.71H12.34Z"/><path class="cls-2" d="M22.75,20.39a2.45,2.45,0,0,1-2.46,2.5,2.37,2.37,0,0,1-2.42-2.52,2.44,2.44,0,1,1,4.88,0Zm-4.07,0a1.62,1.62,0,0,0,1.63,1.78,1.65,1.65,0,0,0,1.63-1.78,1.64,1.64,0,1,0-3.26,0Z"/><path class="cls-2" d="M24.75,18v.67a1.48,1.48,0,0,1,1.36-.78,1.24,1.24,0,0,1,1.29.87,1.57,1.57,0,0,1,1.52-.87,1.43,1.43,0,0,1,1.22.51c.23.3.29.57.29,1.33v3.07h-.79V19.89c0-.58,0-.71-.14-.91a.92.92,0,0,0-.83-.41c-.7,0-1.08.47-1.08,1.32v2.89H26.8V19.91a1.75,1.75,0,0,0-.16-.92.83.83,0,0,0-.78-.42c-.7,0-1.11.5-1.11,1.34v2.87H24V18Z"/><path class="cls-2" d="M32.45,20.63a1.48,1.48,0,0,0,.31.88,1.57,1.57,0,0,0,1.29.65,1.67,1.67,0,0,0,1.44-.82l.69.26a2.34,2.34,0,0,1-2.13,1.29,2.39,2.39,0,0,1-2.45-2.5,2.43,2.43,0,1,1,4.85-.07c0,.06,0,.2,0,.31Zm3.16-.58a1.46,1.46,0,0,0-.27-.82A1.63,1.63,0,0,0,34,18.57a1.53,1.53,0,0,0-1.29.67,1.84,1.84,0,0,0-.27.81Z"/><path class="cls-2" d="M41.51,18v.87a1.87,1.87,0,0,1,1.75-1,2.27,2.27,0,0,1,2.26,2.47,2.31,2.31,0,0,1-2.26,2.55,2.26,2.26,0,0,1-1-.25,1.7,1.7,0,0,1-.7-.61v3h-.79V18Zm0,2.48a1.58,1.58,0,0,0,1.58,1.75,1.64,1.64,0,0,0,1.59-1.84,1.86,1.86,0,0,0-.42-1.3,1.56,1.56,0,0,0-1.13-.5A1.68,1.68,0,0,0,41.51,20.46Z"/><path class="cls-2" d="M50.34,18h.79v4.8h-.79v-.93a2,2,0,0,1-1.75,1,2.3,2.3,0,0,1-2.26-2.5,2.33,2.33,0,0,1,2.28-2.52,2,2,0,0,1,1.73.9Zm-2.78,1.17a2.18,2.18,0,0,0-.4,1.27,1.65,1.65,0,0,0,1.54,1.79,1.78,1.78,0,0,0,1.65-1.88,1.62,1.62,0,0,0-1.63-1.76A1.29,1.29,0,0,0,47.56,19.15Z"/><path class="cls-2" d="M56.26,18h.79v4.83a2.27,2.27,0,0,1-.63,1.76,2.52,2.52,0,0,1-1.77.63,2.72,2.72,0,0,1-2.13-.87l.54-.54a2.74,2.74,0,0,0,.46.41,2.3,2.3,0,0,0,1.13.28A1.72,1.72,0,0,0,55.89,24a1.65,1.65,0,0,0,.37-1.15v-1a2,2,0,0,1-1.77,1,2.31,2.31,0,0,1-2.22-2.5,2.73,2.73,0,0,1,.76-2,2.1,2.1,0,0,1,1.52-.56,2,2,0,0,1,1.71.93Zm-3.15,2.38a1.65,1.65,0,0,0,1.57,1.8,1.61,1.61,0,0,0,1.21-.58,1.94,1.94,0,0,0,.35-1.19,1.7,1.7,0,0,0-.38-1.27,1.64,1.64,0,0,0-1.16-.53A1.61,1.61,0,0,0,53.11,20.36Z"/><path class="cls-2" d="M59.06,20.63a1.48,1.48,0,0,0,.31.88,1.57,1.57,0,0,0,1.29.65,1.67,1.67,0,0,0,1.44-.82l.69.26a2.34,2.34,0,0,1-2.13,1.29,2.38,2.38,0,0,1-2.44-2.5,2.42,2.42,0,1,1,4.84-.07c0,.06,0,.2,0,.31Zm3.16-.58a1.46,1.46,0,0,0-.27-.82,1.63,1.63,0,0,0-1.32-.66,1.53,1.53,0,0,0-1.29.67,1.84,1.84,0,0,0-.27.81Z"/><rect class="cls-2" x="172.51" y="19.37" width="22.76" height="0.75"/><polygon class="cls-2" points="194.18 23.48 200.65 19.74 194.18 16 194.18 23.48"/><rect class="cls-4" x="138.81" y="5.78" width="27.92" height="27.92" transform="translate(30.78 113.8) rotate(-45)"/><rect class="cls-5" x="138.81" y="5.78" width="27.92" height="27.92" transform="translate(30.78 113.8) rotate(-45)"/><path class="cls-2" d="M144.62,21.91a3.42,3.42,0,0,1-1.42.26,2.52,2.52,0,0,1-2.67-2.73,2.69,2.69,0,0,1,2.82-2.83,3,3,0,0,1,1.28.24l-.17.57a2.5,2.5,0,0,0-1.09-.22,2,2,0,0,0-2.1,2.22,2,2,0,0,0,2.07,2.17,2.67,2.67,0,0,0,1.13-.23Z"/><path class="cls-2" d="M145.47,16.41h.7v2.42h0a1.33,1.33,0,0,1,.5-.5,1.47,1.47,0,0,1,.72-.2c.52,0,1.35.32,1.35,1.66v2.3h-.7V19.87c0-.63-.23-1.16-.9-1.16a1,1,0,0,0-.94.71.82.82,0,0,0-.05.33v2.34h-.7Z"/><path class="cls-2" d="M153.41,20.12a1.9,1.9,0,0,1-1.93,2.06,1.84,1.84,0,0,1-1.85-2,1.89,1.89,0,0,1,1.92-2.06A1.83,1.83,0,0,1,153.41,20.12Zm-3.07,0c0,.85.49,1.49,1.18,1.49s1.17-.63,1.17-1.5c0-.66-.33-1.49-1.16-1.49S150.34,19.43,150.34,20.16Z"/><path class="cls-2" d="M157.8,20.12a1.89,1.89,0,0,1-1.92,2.06,1.84,1.84,0,0,1-1.86-2,1.89,1.89,0,0,1,1.92-2.06A1.83,1.83,0,0,1,157.8,20.12Zm-3.07,0c0,.85.49,1.49,1.18,1.49s1.17-.63,1.17-1.5c0-.66-.32-1.49-1.16-1.49S154.73,19.43,154.73,20.16Z"/><path class="cls-2" d="M158.6,21.37a1.79,1.79,0,0,0,.92.28c.52,0,.76-.26.76-.58s-.2-.52-.72-.71c-.7-.25-1-.63-1-1.09a1.2,1.2,0,0,1,1.34-1.14,1.92,1.92,0,0,1,.95.24l-.18.51a1.55,1.55,0,0,0-.79-.22c-.41,0-.64.24-.64.53s.23.46.73.65c.67.26,1,.59,1,1.17s-.53,1.16-1.45,1.16a2.12,2.12,0,0,1-1.09-.27Z"/><path class="cls-2" d="M162.25,20.28a1.25,1.25,0,0,0,1.33,1.35,2.57,2.57,0,0,0,1.07-.2l.12.5a3.17,3.17,0,0,1-1.29.24,1.79,1.79,0,0,1-1.9-2,1.88,1.88,0,0,1,1.82-2.09A1.64,1.64,0,0,1,165,20a2.06,2.06,0,0,1,0,.33Zm2.07-.5a1,1,0,0,0-1-1.15,1.18,1.18,0,0,0-1.08,1.15Z"/><polygon class="cls-2" points="195.27 91.63 152.39 91.63 152.39 39.48 153.14 39.48 153.14 90.88 195.27 90.88 195.27 91.63"/><polygon class="cls-2" points="194.18 87.52 200.65 91.26 194.18 95 194.18 87.52"/><path class="cls-2" d="M381.25,91.8c-69.79,0-105.17-.14-105.47-.44l-.11-.11v-.16H276l.1-.36c1.91.33,102.7.38,201.4.26V19.74h.75v72h-.38Q421.87,91.8,381.25,91.8Z"/></g></g></svg>