<svg xmlns="http://www.w3.org/2000/svg" viewBox="0 0 183.11 381.45"><defs><style>.cls-1{fill:#6ba332;}.cls-1,.cls-5{opacity:0.5;}.cls-2{fill:#221f20;}.cls-3{fill:blue;}.cls-4,.cls-5{fill:#f3524d;}</style></defs><title>flow3mobile</title><g id="Layer_2" data-name="Layer 2"><g id="Layer_1-2" data-name="Layer 1"><rect class="cls-1" x="102.01" width="75.75" height="31.48" rx="15.74"/><rect class="cls-1" x="101.88" y="349.96" width="75.75" height="31.48" rx="15.74"/><path class="cls-2" d="M124.68,240.3h.91l-2.13,6.95h-.77l-1.53-5.46-1.54,5.46h-.77l-2.12-6.95h.93l1.58,5.32,1.54-5.32h.82l1.49,5.34Z"/><path class="cls-2" d="M127.22,243.11a1.76,1.76,0,0,1,1.45-.78,1.61,1.61,0,0,1,1.11.44,1.66,1.66,0,0,1,.38,1.25v3.23h-.8v-3.19c0-.65-.32-1-.89-1a1.23,1.23,0,0,0-.94.43,1.25,1.25,0,0,0-.31,1v2.81h-.79V240.3h.79Z"/><path class="cls-2" d="M136.21,244.86a2.45,2.45,0,0,1-2.45,2.5,2.52,2.52,0,1,1,2.45-2.5Zm-4.07,0a1.63,1.63,0,0,0,1.64,1.78,1.64,1.64,0,0,0,1.62-1.78,1.64,1.64,0,1,0-3.26,0Z"/><path class="cls-2" d="M137.42,247.25V240.3h.79v6.95Z"/><path class="cls-2" d="M140.26,245.1a1.48,1.48,0,0,0,.31.88,1.57,1.57,0,0,0,1.29.65,1.65,1.65,0,0,0,1.44-.82l.7.26a2.43,2.43,0,0,1-4.58-1.21,2.43,2.43,0,1,1,4.85-.07c0,.06,0,.2,0,.31Zm3.16-.58a1.43,1.43,0,0,0-.27-.82,1.63,1.63,0,0,0-1.32-.66,1.53,1.53,0,0,0-1.29.67,1.92,1.92,0,0,0-.27.81Z"/><path class="cls-2" d="M147.61,243.76v0c0-.45-.37-.73-.92-.73s-.86.27-.86.69.21.57,1.07.81a2.44,2.44,0,0,1,1.17.55,1.33,1.33,0,0,1,.38.94c0,.83-.69,1.39-1.71,1.39a1.56,1.56,0,0,1-1.79-1.48h.79a.88.88,0,0,0,1,.84c.54,0,.9-.29.9-.71s-.27-.63-1.09-.84c-1.05-.28-1.51-.71-1.51-1.44s.67-1.4,1.68-1.4a1.47,1.47,0,0,1,1.68,1.43Z"/><path class="cls-2" d="M153.24,242.45H154v4.8h-.79v-.93a2,2,0,0,1-1.75,1,2.3,2.3,0,0,1-2.26-2.5,2.34,2.34,0,0,1,2.28-2.53,2,2,0,0,1,1.73.91Zm-2.78,1.16a2.23,2.23,0,0,0-.4,1.27,1.65,1.65,0,0,0,1.54,1.79,1.77,1.77,0,0,0,1.65-1.87,1.62,1.62,0,0,0-1.63-1.76A1.31,1.31,0,0,0,150.46,243.61Z"/><path class="cls-2" d="M155.62,247.25V240.3h.79v6.95Z"/><path class="cls-2" d="M158.46,245.1a1.54,1.54,0,0,0,.31.88,1.59,1.59,0,0,0,1.3.65,1.65,1.65,0,0,0,1.43-.82l.7.26a2.36,2.36,0,0,1-2.13,1.29,2.52,2.52,0,1,1,2.4-2.57c0,.06,0,.2,0,.31Zm3.17-.58a1.51,1.51,0,0,0-.28-.82A1.63,1.63,0,0,0,160,243a1.53,1.53,0,0,0-1.29.67,1.92,1.92,0,0,0-.27.81Z"/><path class="cls-3" d="M183.11,259.34H96.39V230h86.72Zm-85.72-1h84.72V231H97.39Z"/><path class="cls-3" d="M76.73,187.36H0V158H76.73ZM1,186.36H75.73V159H1Z"/><path class="cls-2" d="M27.79,174.68a3.07,3.07,0,0,1-2.54,1.17,3.1,3.1,0,0,1-2.39-1,3.92,3.92,0,0,1-.92-2.57,3.36,3.36,0,0,1,3.32-3.6,3.43,3.43,0,0,1,1.74.47,3.76,3.76,0,0,1,.81.72l-.61.56a2.43,2.43,0,0,0-1.92-.95,2.82,2.82,0,0,0,0,5.59,2.29,2.29,0,0,0,1.88-1Z"/><path class="cls-2" d="M33.3,173.34a2.45,2.45,0,0,1-2.46,2.5,2.52,2.52,0,1,1,2.46-2.5Zm-4.07,0a1.63,1.63,0,0,0,1.64,1.78,1.64,1.64,0,0,0,1.62-1.78,1.64,1.64,0,1,0-3.26,0Z"/><path class="cls-2" d="M35.3,170.93v.68a1.63,1.63,0,0,1,1.43-.8,1.67,1.67,0,0,1,1.11.4,1.56,1.56,0,0,1,.4,1.28v3.24h-.79v-3.06a1.39,1.39,0,0,0-.17-.83,1,1,0,0,0-.75-.32,1.2,1.2,0,0,0-.92.41,1.13,1.13,0,0,0-.31.87v2.93h-.79v-4.8Z"/><path class="cls-2" d="M40.65,174.75c0,.24.07.29.36.29h.37v.69h-.74c-.56,0-.78-.22-.78-.75v-3.35h-.67v-.7h.67v-1.51h.79v1.51h.73v.7h-.73Z"/><path class="cls-2" d="M46,170.93h.79v4.8H46v-.93a2,2,0,0,1-1.75,1,2.3,2.3,0,0,1-2.26-2.5,2.34,2.34,0,0,1,2.28-2.53,2,2,0,0,1,1.73.91Zm-2.78,1.16a2.23,2.23,0,0,0-.4,1.27,1.65,1.65,0,0,0,1.55,1.79A1.77,1.77,0,0,0,46,173.28a1.62,1.62,0,0,0-1.62-1.76A1.32,1.32,0,0,0,43.25,172.09Z"/><path class="cls-2" d="M52.15,175.13a2.45,2.45,0,0,1-1.77.71,2.33,2.33,0,0,1-2.35-2.5,2.42,2.42,0,0,1,4.14-1.81l-.51.51a1.79,1.79,0,0,0-1.22-.5,1.8,1.8,0,0,0,0,3.57,1.67,1.67,0,0,0,1.23-.52Z"/><path class="cls-2" d="M54.19,174.75c0,.24.07.29.36.29h.37v.69h-.74c-.56,0-.78-.22-.78-.75v-3.35h-.67v-.7h.67v-1.51h.79v1.51h.73v.7h-.73Z"/><path class="cls-3" d="M178.24,187.36H101.52V158h76.72Zm-75.72-1h74.72V159H102.52Z"/><path class="cls-2" d="M123.29,173.87a1.11,1.11,0,0,0,1.22,1.2,1.21,1.21,0,0,0,1.34-1.17c0-.61-.32-.89-1.41-1.25a3.46,3.46,0,0,1-1.4-.7,1.7,1.7,0,0,1-.54-1.31,2.07,2.07,0,0,1,4.13,0h-.88a1.37,1.37,0,0,0-.16-.72,1.23,1.23,0,0,0-1-.49,1.11,1.11,0,0,0-1.18,1.14,1,1,0,0,0,.4.8,4,4,0,0,0,1.11.49,3,3,0,0,1,1.37.75,1.79,1.79,0,0,1,.47,1.22,2.24,2.24,0,0,1-4,1.08,1.82,1.82,0,0,1-.24-.91v-.14Z"/><path class="cls-2" d="M128.44,173.58a1.48,1.48,0,0,0,.31.88,1.57,1.57,0,0,0,1.29.65,1.67,1.67,0,0,0,1.44-.82l.69.26a2.34,2.34,0,0,1-2.13,1.29,2.51,2.51,0,1,1,2.4-2.57c0,.06,0,.2,0,.31Zm3.16-.58a1.46,1.46,0,0,0-.27-.82,1.63,1.63,0,0,0-1.32-.66,1.53,1.53,0,0,0-1.29.67,1.84,1.84,0,0,0-.27.81Z"/><path class="cls-2" d="M134.38,170.93v.81a1.34,1.34,0,0,1,.44-.63,1.48,1.48,0,0,1,.91-.29h.19v.8h-.22a1.21,1.21,0,0,0-1,.55,1.74,1.74,0,0,0-.28,1.13v2.44h-.79v-4.8Z"/><path class="cls-2" d="M140.83,170.93l-1.81,4.8h-.83l-1.76-4.8h.83l1.36,3.66,1.39-3.66Z"/><path class="cls-2" d="M142.57,169.59a.5.5,0,0,1-.51.5.51.51,0,0,1,0-1A.51.51,0,0,1,142.57,169.59Zm-.11,6.14h-.79v-4.8h.79Z"/><path class="cls-2" d="M147.78,175.13a2.45,2.45,0,0,1-1.77.71,2.51,2.51,0,1,1,1.79-4.31l-.51.51a1.76,1.76,0,0,0-1.21-.5,1.79,1.79,0,1,0,1.21,3.05Z"/><path class="cls-2" d="M149.08,173.58a1.55,1.55,0,0,0,.32.88,1.57,1.57,0,0,0,1.29.65,1.65,1.65,0,0,0,1.43-.82l.7.26a2.36,2.36,0,0,1-2.13,1.29,2.51,2.51,0,1,1,2.4-2.57c0,.06,0,.2,0,.31Zm3.17-.58a1.54,1.54,0,0,0-.27-.82,1.63,1.63,0,0,0-1.32-.66,1.52,1.52,0,0,0-1.29.67,2,2,0,0,0-.28.81Z"/><path class="cls-2" d="M156.43,172.24v-.05c0-.45-.36-.73-.91-.73s-.87.27-.87.69.21.57,1.07.81a2.48,2.48,0,0,1,1.17.55,1.34,1.34,0,0,1,.39.94c0,.83-.69,1.39-1.71,1.39s-1.71-.51-1.79-1.48h.78a.88.88,0,0,0,1,.84c.54,0,.89-.28.89-.71s-.27-.62-1.09-.83c-1-.28-1.51-.72-1.51-1.45s.68-1.39,1.69-1.39a1.46,1.46,0,0,1,1.67,1.42Z"/><path class="cls-2" d="M129.17,367.24a3.32,3.32,0,0,1-4.92.15,3.93,3.93,0,0,1-.93-2.57,3.37,3.37,0,0,1,3.32-3.6,3.41,3.41,0,0,1,1.74.47,3.54,3.54,0,0,1,.81.72l-.6.56a2.46,2.46,0,0,0-1.93-1,2.82,2.82,0,0,0,0,5.59,2.3,2.3,0,0,0,1.89-1Z"/><path class="cls-2" d="M134.69,365.9a2.45,2.45,0,0,1-2.46,2.5,2.52,2.52,0,0,1,0-5A2.39,2.39,0,0,1,134.69,365.9Zm-4.07,0a1.62,1.62,0,0,0,1.63,1.78,1.64,1.64,0,0,0,1.62-1.78,1.63,1.63,0,1,0-3.25,0Z"/><path class="cls-2" d="M136.68,363.49v.67a1.71,1.71,0,0,1,2.54-.39,1.52,1.52,0,0,1,.41,1.28v3.24h-.79v-3.06a1.3,1.3,0,0,0-.18-.83.93.93,0,0,0-.75-.32,1.19,1.19,0,0,0-.91.41,1.13,1.13,0,0,0-.32.87v2.93h-.79v-4.8Z"/><path class="cls-2" d="M142,367.31c0,.24.08.29.37.29h.36v.69H142c-.56,0-.78-.22-.78-.75v-3.35h-.66v-.7h.66V362H142v1.51h.73v.7H142Z"/><path class="cls-2" d="M147.41,363.49h.8v4.8h-.8v-.93a2,2,0,0,1-1.74,1,2.29,2.29,0,0,1-2.26-2.5,2.34,2.34,0,0,1,2.28-2.53,2,2,0,0,1,1.72.91Zm-2.77,1.16a2.23,2.23,0,0,0-.4,1.27,1.65,1.65,0,0,0,1.54,1.79,1.77,1.77,0,0,0,1.64-1.87,1.62,1.62,0,0,0-1.62-1.76A1.31,1.31,0,0,0,144.64,364.65Z"/><path class="cls-2" d="M153.53,367.69a2.45,2.45,0,0,1-1.77.71,2.34,2.34,0,0,1-2.35-2.5,2.42,2.42,0,0,1,4.14-1.81l-.51.51a1.76,1.76,0,0,0-1.21-.5,1.8,1.8,0,0,0,0,3.57,1.64,1.64,0,0,0,1.22-.52Z"/><path class="cls-2" d="M155.57,367.31c0,.24.08.29.37.29h.36v.69h-.74c-.56,0-.78-.22-.78-.75v-3.35h-.66v-.7h.66V362h.79v1.51h.73v.7h-.73Z"/><rect class="cls-2" x="139.5" y="32.62" width="0.75" height="52.42"/><polygon class="cls-2" points="136.14 83.95 139.88 90.43 143.62 83.95 136.14 83.95"/><rect class="cls-2" x="139.51" y="258.53" width="0.75" height="86.05"/><polygon class="cls-2" points="136.14 343.49 139.88 349.96 143.62 343.49 136.14 343.49"/><rect class="cls-2" x="139.51" y="187.62" width="0.75" height="36.15"/><polygon class="cls-2" points="136.14 222.68 139.88 229.16 143.62 222.68 136.14 222.68"/><path class="cls-2" d="M114.35,18.78h-.88V11.84h.88V15h3.38V11.84h.87v6.94h-.87V15.71h-3.38Z"/><path class="cls-2" d="M124.76,16.39a2.45,2.45,0,0,1-2.46,2.5,2.36,2.36,0,0,1-2.42-2.52,2.35,2.35,0,0,1,2.45-2.5A2.38,2.38,0,0,1,124.76,16.39Zm-4.07,0a1.62,1.62,0,0,0,1.63,1.78,1.64,1.64,0,0,0,1.62-1.78,1.63,1.63,0,1,0-3.25,0Z"/><path class="cls-2" d="M126.75,14v.67a1.49,1.49,0,0,1,1.37-.78,1.24,1.24,0,0,1,1.29.87,1.55,1.55,0,0,1,1.52-.87,1.43,1.43,0,0,1,1.21.5,1.93,1.93,0,0,1,.3,1.34v3.07h-.8V15.89c0-.58,0-.71-.13-.91a.94.94,0,0,0-.83-.41c-.7,0-1.09.47-1.09,1.32v2.89h-.79V15.9a1.86,1.86,0,0,0-.15-.91.84.84,0,0,0-.78-.42c-.7,0-1.12.5-1.12,1.33v2.88H126V14Z"/><path class="cls-2" d="M134.45,16.63a1.55,1.55,0,0,0,.32.88,1.57,1.57,0,0,0,1.29.65,1.65,1.65,0,0,0,1.43-.82l.7.26a2.36,2.36,0,0,1-2.13,1.29,2.38,2.38,0,0,1-2.45-2.5,2.43,2.43,0,1,1,4.85-.07c0,.06,0,.2,0,.31Zm3.17-.58a1.54,1.54,0,0,0-.27-.82,1.63,1.63,0,0,0-1.32-.66,1.53,1.53,0,0,0-1.29.67,2,2,0,0,0-.28.81Z"/><path class="cls-2" d="M143.52,14v.87a1.87,1.87,0,0,1,1.75-1,2.27,2.27,0,0,1,2.26,2.47,2.31,2.31,0,0,1-2.26,2.55,2.23,2.23,0,0,1-1.05-.25,1.65,1.65,0,0,1-.7-.61v3h-.79V14Zm0,2.48a1.57,1.57,0,0,0,1.58,1.74,1.62,1.62,0,0,0,1.58-1.83,1.86,1.86,0,0,0-.41-1.3,1.57,1.57,0,0,0-1.14-.5A1.67,1.67,0,0,0,143.52,16.46Z"/><path class="cls-2" d="M152.34,14h.79v4.8h-.79v-.93a2,2,0,0,1-1.74,1,2.29,2.29,0,0,1-2.26-2.5,2.32,2.32,0,0,1,2.28-2.52,2,2,0,0,1,1.72.9Zm-2.77,1.16a2.23,2.23,0,0,0-.4,1.27,1.65,1.65,0,0,0,1.54,1.79,1.77,1.77,0,0,0,1.64-1.87,1.62,1.62,0,0,0-1.62-1.76A1.31,1.31,0,0,0,149.57,15.14Z"/><path class="cls-2" d="M158.27,14h.79v4.83a2.24,2.24,0,0,1-.64,1.76,2.48,2.48,0,0,1-1.77.63,2.71,2.71,0,0,1-2.12-.87l.54-.54a2.39,2.39,0,0,0,.46.41,2.29,2.29,0,0,0,1.12.28A1.74,1.74,0,0,0,157.9,20a1.67,1.67,0,0,0,.37-1.15v-1a2,2,0,0,1-1.77,1,2.31,2.31,0,0,1-2.22-2.5,2.72,2.72,0,0,1,.76-2,2.08,2.08,0,0,1,1.52-.56,2,2,0,0,1,1.71.93Zm-3.16,2.38a1.65,1.65,0,0,0,1.57,1.8,1.63,1.63,0,0,0,1.22-.58,1.94,1.94,0,0,0,.35-1.19,1.7,1.7,0,0,0-.38-1.27,1.64,1.64,0,0,0-1.17-.53A1.62,1.62,0,0,0,155.11,16.36Z"/><path class="cls-2" d="M161.06,16.63a1.55,1.55,0,0,0,.32.88,1.57,1.57,0,0,0,1.29.65,1.65,1.65,0,0,0,1.43-.82l.7.26a2.35,2.35,0,0,1-2.13,1.29,2.38,2.38,0,0,1-2.45-2.5,2.43,2.43,0,1,1,4.85-.07c0,.06,0,.2,0,.31Zm3.17-.58a1.54,1.54,0,0,0-.27-.82,1.63,1.63,0,0,0-1.32-.66,1.53,1.53,0,0,0-1.29.67,1.84,1.84,0,0,0-.27.81Z"/><rect class="cls-2" x="139.5" y="130.37" width="0.75" height="22.76"/><polygon class="cls-2" points="136.14 152.04 139.88 158.52 143.62 152.04 136.14 152.04"/><rect class="cls-4" x="125.92" y="96.67" width="27.92" height="27.92" transform="translate(-37.26 131.31) rotate(-45)"/><rect class="cls-5" x="125.92" y="96.67" width="27.92" height="27.92" transform="translate(-37.26 131.31) rotate(-45)"/><path class="cls-2" d="M131.73,112.8a3.35,3.35,0,0,1-1.42.26,2.52,2.52,0,0,1-2.66-2.73,2.68,2.68,0,0,1,2.81-2.83,3,3,0,0,1,1.28.24l-.17.57a2.48,2.48,0,0,0-1.08-.22,2,2,0,0,0-2.11,2.22,2,2,0,0,0,2.08,2.16,2.71,2.71,0,0,0,1.13-.22Z"/><path class="cls-2" d="M132.58,107.3h.71v2.42h0a1.36,1.36,0,0,1,.51-.5,1.41,1.41,0,0,1,.72-.2c.52,0,1.35.32,1.35,1.66V113h-.71v-2.22c0-.63-.23-1.16-.89-1.16a1,1,0,0,0-.95.71.83.83,0,0,0,0,.33V113h-.71Z"/><path class="cls-2" d="M140.53,111a1.9,1.9,0,0,1-1.93,2.06,1.84,1.84,0,0,1-1.86-2,1.89,1.89,0,0,1,1.92-2.06A1.84,1.84,0,0,1,140.53,111Zm-3.07,0c0,.85.48,1.49,1.17,1.49s1.18-.63,1.18-1.5c0-.66-.33-1.49-1.16-1.49S137.46,110.32,137.46,111.05Z"/><path class="cls-2" d="M144.92,111a1.9,1.9,0,0,1-1.93,2.06,1.84,1.84,0,0,1-1.85-2,1.89,1.89,0,0,1,1.91-2.06A1.83,1.83,0,0,1,144.92,111Zm-3.07,0c0,.85.48,1.49,1.17,1.49s1.18-.63,1.18-1.5c0-.66-.33-1.49-1.16-1.49S141.85,110.32,141.85,111.05Z"/><path class="cls-2" d="M145.71,112.26a1.93,1.93,0,0,0,.93.28c.51,0,.75-.26.75-.58s-.2-.52-.72-.71c-.69-.25-1-.63-1-1.09A1.19,1.19,0,0,1,147,109a1.93,1.93,0,0,1,1,.24l-.18.51a1.55,1.55,0,0,0-.79-.22c-.42,0-.65.24-.65.53s.23.46.74.65c.67.26,1,.59,1,1.17s-.53,1.16-1.45,1.16a2.18,2.18,0,0,1-1.08-.27Z"/><path class="cls-2" d="M149.37,111.17a1.23,1.23,0,0,0,1.33,1.34,2.45,2.45,0,0,0,1.07-.2l.12.51a3.21,3.21,0,0,1-1.29.24,1.8,1.8,0,0,1-1.9-2,1.87,1.87,0,0,1,1.81-2.09,1.64,1.64,0,0,1,1.6,1.82c0,.15,0,.26,0,.33Zm2.06-.5a1,1,0,0,0-1-1.15,1.16,1.16,0,0,0-1.08,1.15Z"/><polygon class="cls-2" points="38.74 153.13 37.99 153.13 37.99 110.26 120.14 110.26 120.14 111.01 38.74 111.01 38.74 153.13"/><polygon class="cls-2" points="42.1 152.04 38.36 158.52 34.62 152.04 42.1 152.04"/><path class="cls-2" d="M139.75,299.14h-102v-.38c-.12-104-.06-111.69.37-112.13l.11-.11h.17v.38l.33.14c-.34,1.32-.32,35.1-.23,111.35H139.75Z"/></g></g></svg>