<svg xmlns="http://www.w3.org/2000/svg" viewBox="0 0 1356.09 120.16"><defs><style>.cls-1{fill:#6ba332;}.cls-1,.cls-5{opacity:0.5;}.cls-2{fill:blue;}.cls-3{fill:#221f20;}.cls-4,.cls-5{fill:#f3524d;}</style></defs><title>flowwholesale2</title><g id="Layer_2" data-name="Layer 2"><g id="Layer_1-2" data-name="Layer 1"><rect class="cls-1" x="1249.41" y="45.06" width="106.68" height="31.48" rx="15.74"/><rect class="cls-1" y="43.9" width="75.75" height="31.48" rx="15.74"/><path class="cls-2" d="M498.19,29.35h-132V0h132Zm-131-1h130V1h-130Z"/><path class="cls-3" d="M390,15.85a1.12,1.12,0,0,0,1.23,1.2,1.2,1.2,0,0,0,1.33-1.17c0-.61-.31-.89-1.41-1.25a3.46,3.46,0,0,1-1.4-.7,1.7,1.7,0,0,1-.54-1.31,2.07,2.07,0,0,1,4.13,0h-.87a1.49,1.49,0,0,0-.17-.72,1.21,1.21,0,0,0-1-.49,1.11,1.11,0,0,0-1.18,1.14,1,1,0,0,0,.4.8,3.89,3.89,0,0,0,1.11.49,3.23,3.23,0,0,1,1.38.75,1.79,1.79,0,0,1,.46,1.23,2,2,0,0,1-2.18,2,2,2,0,0,1-1.85-.93,1.68,1.68,0,0,1-.24-.91v-.14Z"/><path class="cls-3" d="M395.51,13.58A1.78,1.78,0,0,1,397,12.8a1.58,1.58,0,0,1,1.11.43,1.66,1.66,0,0,1,.38,1.25v3.23h-.79V14.52c0-.65-.33-1-.9-1a1.23,1.23,0,0,0-.94.42,1.29,1.29,0,0,0-.31,1v2.81h-.79V10.77h.79Z"/><path class="cls-3" d="M404.5,15.33a2.44,2.44,0,0,1-2.45,2.49,2.37,2.37,0,0,1-2.43-2.51,2.44,2.44,0,1,1,4.88,0Zm-4.06,0a1.62,1.62,0,0,0,1.63,1.78,1.64,1.64,0,0,0,1.62-1.78,1.63,1.63,0,1,0-3.25,0Z"/><path class="cls-3" d="M406.5,12.91v.88a1.86,1.86,0,0,1,1.75-1,2.27,2.27,0,0,1,2.26,2.47,2.31,2.31,0,0,1-2.26,2.55,2.26,2.26,0,0,1-1.05-.25,1.7,1.7,0,0,1-.7-.61v3h-.79v-7Zm0,2.48a1.58,1.58,0,0,0,1.58,1.75,1.63,1.63,0,0,0,1.59-1.83,1.89,1.89,0,0,0-.42-1.31,1.56,1.56,0,0,0-1.14-.49A1.68,1.68,0,0,0,406.5,15.39Z"/><path class="cls-3" d="M419.32,15.33a2.44,2.44,0,0,1-2.45,2.49,2.37,2.37,0,0,1-2.43-2.51,2.44,2.44,0,1,1,4.88,0Zm-4.06,0a1.62,1.62,0,0,0,1.63,1.78,1.64,1.64,0,0,0,1.62-1.78,1.63,1.63,0,1,0-3.25,0Z"/><path class="cls-3" d="M421.32,12.91v.68a1.65,1.65,0,0,1,1.43-.79,1.67,1.67,0,0,1,1.11.39,1.57,1.57,0,0,1,.41,1.28v3.24h-.79V14.65a1.32,1.32,0,0,0-.18-.82.93.93,0,0,0-.75-.32,1.21,1.21,0,0,0-.92.4,1.14,1.14,0,0,0-.31.88v2.92h-.79v-4.8Z"/><path class="cls-3" d="M432.54,10.77h.79v6.94h-.79v-.82a2,2,0,0,1-1.72.93,2.29,2.29,0,0,1-2.26-2.48,2.35,2.35,0,0,1,2.26-2.54,2.07,2.07,0,0,1,1.72.84Zm-3.14,4.58a1.61,1.61,0,0,0,1.54,1.79,1.67,1.67,0,0,0,1.6-1.81A1.62,1.62,0,0,0,431,13.51,1.64,1.64,0,0,0,429.4,15.35Z"/><path class="cls-3" d="M438.5,12.91h.79v4.8h-.79v-.93a2,2,0,0,1-1.74,1,2.29,2.29,0,0,1-2.26-2.49,2.33,2.33,0,0,1,2.28-2.53,2,2,0,0,1,1.72.9Zm-2.77,1.17a2.18,2.18,0,0,0-.4,1.27,1.65,1.65,0,0,0,1.54,1.79,1.78,1.78,0,0,0,1.64-1.88,1.61,1.61,0,0,0-1.62-1.75A1.28,1.28,0,0,0,435.73,14.08Z"/><path class="cls-3" d="M443.09,14.22v-.05c0-.45-.36-.73-.91-.73s-.87.27-.87.69.21.57,1.08.81a2.49,2.49,0,0,1,1.16.55,1.36,1.36,0,0,1,.39.94c0,.83-.69,1.39-1.71,1.39s-1.71-.51-1.79-1.47h.78a.89.89,0,0,0,1,.83c.54,0,.89-.28.89-.71s-.27-.62-1.09-.83c-1-.28-1.51-.72-1.51-1.45s.68-1.39,1.69-1.39a1.46,1.46,0,0,1,1.67,1.42Z"/><path class="cls-3" d="M445.94,13.58a1.78,1.78,0,0,1,1.45-.78,1.58,1.58,0,0,1,1.11.43,1.62,1.62,0,0,1,.38,1.25v3.23h-.79V14.52c0-.65-.32-1-.9-1a1.21,1.21,0,0,0-.93.42,1.26,1.26,0,0,0-.32,1v2.81h-.79V10.77h.79Z"/><path class="cls-3" d="M451.23,17.71h-.79V10.77h.79v3a2,2,0,0,1,1.69-.93,2.31,2.31,0,0,1,2.28,2.53A2.28,2.28,0,0,1,453,17.82a2,2,0,0,1-1.73-.93Zm0-2.39a1.59,1.59,0,1,0,3.14,0,1.64,1.64,0,0,0-1.55-1.84A1.66,1.66,0,0,0,451.22,15.32Z"/><path class="cls-3" d="M460.9,15.33a2.45,2.45,0,0,1-2.46,2.49A2.37,2.37,0,0,1,456,15.31a2.44,2.44,0,1,1,4.88,0Zm-4.07,0a1.62,1.62,0,0,0,1.63,1.78,1.65,1.65,0,0,0,1.63-1.78,1.64,1.64,0,1,0-3.26,0Z"/><path class="cls-3" d="M465.73,12.91h.79v4.8h-.79v-.93a2,2,0,0,1-1.75,1,2.29,2.29,0,0,1-2.26-2.49A2.33,2.33,0,0,1,464,12.8a2,2,0,0,1,1.73.9ZM463,14.08a2.18,2.18,0,0,0-.4,1.27,1.65,1.65,0,0,0,1.54,1.79,1.78,1.78,0,0,0,1.65-1.88,1.61,1.61,0,0,0-1.62-1.75A1.3,1.3,0,0,0,463,14.08Z"/><path class="cls-3" d="M468.9,12.91v.81a1.34,1.34,0,0,1,.44-.63,1.49,1.49,0,0,1,.92-.29h.18v.8h-.22a1.25,1.25,0,0,0-1,.55,1.8,1.8,0,0,0-.28,1.13v2.44h-.79v-4.8Z"/><path class="cls-3" d="M474.84,10.77h.8v6.94h-.8v-.82a2,2,0,0,1-1.71.93,2.29,2.29,0,0,1-2.26-2.48,2.35,2.35,0,0,1,2.26-2.54,2,2,0,0,1,1.71.84Zm-3.14,4.58a1.61,1.61,0,0,0,1.54,1.79,1.66,1.66,0,0,0,1.6-1.81,1.61,1.61,0,0,0-1.55-1.82A1.64,1.64,0,0,0,471.7,15.35Z"/><path class="cls-2" d="M442.94,120.16H366.21V90.81h76.73Zm-75.73-1h74.73V91.81H367.21Z"/><path class="cls-3" d="M390.9,106.66a1.12,1.12,0,0,0,1.23,1.2,1.2,1.2,0,0,0,1.33-1.17c0-.61-.31-.89-1.41-1.25a3.46,3.46,0,0,1-1.4-.7,1.7,1.7,0,0,1-.54-1.31,2.07,2.07,0,0,1,4.13,0h-.88a1.4,1.4,0,0,0-.16-.72,1.21,1.21,0,0,0-1-.49,1.11,1.11,0,0,0-1.18,1.14,1,1,0,0,0,.4.8,3.89,3.89,0,0,0,1.11.49,3.12,3.12,0,0,1,1.37.75,1.75,1.75,0,0,1,.47,1.23,2,2,0,0,1-2.18,2,2,2,0,0,1-1.85-.93,1.68,1.68,0,0,1-.24-.91v-.14Z"/><path class="cls-3" d="M396.05,106.38a1.47,1.47,0,0,0,.31.87,1.55,1.55,0,0,0,1.29.66,1.66,1.66,0,0,0,1.44-.83l.7.26a2.58,2.58,0,1,1,.27-1.28c0,.07,0,.2,0,.32Zm3.16-.59a1.46,1.46,0,0,0-.27-.82,1.65,1.65,0,0,0-1.32-.65,1.55,1.55,0,0,0-1.29.66,1.84,1.84,0,0,0-.27.81Z"/><path class="cls-3" d="M404.84,103.72h.79v4.8h-.79v-.93a2,2,0,0,1-1.74,1,2.29,2.29,0,0,1-2.26-2.49,2.33,2.33,0,0,1,2.28-2.53,2,2,0,0,1,1.72.9Zm-2.78,1.17a2.17,2.17,0,0,0-.39,1.27,1.65,1.65,0,0,0,1.54,1.79,1.78,1.78,0,0,0,1.64-1.88,1.61,1.61,0,0,0-1.62-1.75A1.31,1.31,0,0,0,402.06,104.89Z"/><path class="cls-3" d="M408,103.72v.81a1.33,1.33,0,0,1,.43-.63,1.51,1.51,0,0,1,.92-.29h.19v.8h-.22a1.23,1.23,0,0,0-1,.55,1.74,1.74,0,0,0-.28,1.13v2.44h-.79v-4.8Z"/><path class="cls-3" d="M414.08,107.93a2.44,2.44,0,0,1-1.76.7,2.34,2.34,0,0,1-2.36-2.49,2.43,2.43,0,0,1,4.15-1.81l-.51.51a1.74,1.74,0,0,0-1.22-.5,1.61,1.61,0,0,0-1.6,1.77,1.63,1.63,0,0,0,1.59,1.8,1.68,1.68,0,0,0,1.23-.53Z"/><path class="cls-3" d="M415.78,104.39a1.78,1.78,0,0,1,1.45-.78,1.6,1.6,0,0,1,1.11.43,1.66,1.66,0,0,1,.38,1.25v3.23h-.79v-3.19c0-.65-.33-1-.9-1a1.23,1.23,0,0,0-.94.42,1.25,1.25,0,0,0-.31,1v2.81H415v-6.94h.79Z"/><path class="cls-2" d="M160.48,74.18H98.69V44.84h61.79Zm-60.79-1h59.79V45.84H99.69Z"/><path class="cls-3" d="M120.4,61.76v.79h-3.32V55.61H118v6.15Z"/><path class="cls-3" d="M125.79,60.16a2.45,2.45,0,0,1-2.46,2.5,2.52,2.52,0,0,1,0-5A2.39,2.39,0,0,1,125.79,60.16Zm-4.07,0a1.62,1.62,0,0,0,1.63,1.78A1.64,1.64,0,0,0,125,60.15a1.63,1.63,0,1,0-3.25,0Z"/><path class="cls-3" d="M130.56,57.75h.79v4.83a2.24,2.24,0,0,1-.63,1.76A2.5,2.5,0,0,1,129,65a2.71,2.71,0,0,1-2.12-.87l.54-.54a2.39,2.39,0,0,0,.46.41,2.26,2.26,0,0,0,1.12.28,1.74,1.74,0,0,0,1.25-.46,1.65,1.65,0,0,0,.36-1.15v-1a2,2,0,0,1-1.77,1,2.31,2.31,0,0,1-2.21-2.5,2.73,2.73,0,0,1,.76-2,2.08,2.08,0,0,1,1.52-.57,1.94,1.94,0,0,1,1.7.94Zm-3.15,2.38a1.65,1.65,0,0,0,1.57,1.8,1.63,1.63,0,0,0,1.22-.58,1.94,1.94,0,0,0,.34-1.19,1.7,1.7,0,0,0-.37-1.27,1.64,1.64,0,0,0-1.17-.53A1.62,1.62,0,0,0,127.41,60.13Z"/><path class="cls-3" d="M137,56.41a.51.51,0,1,1-.5-.52A.5.5,0,0,1,137,56.41Zm-.11,6.14h-.79v-4.8h.79Z"/><path class="cls-3" d="M139.24,57.75v.68a1.63,1.63,0,0,1,1.43-.8,1.67,1.67,0,0,1,1.11.4,1.57,1.57,0,0,1,.41,1.28v3.24h-.79V59.49a1.32,1.32,0,0,0-.18-.82.93.93,0,0,0-.75-.33,1.22,1.22,0,0,0-.92.41,1.16,1.16,0,0,0-.31.87v2.93h-.79v-4.8Z"/><path class="cls-2" d="M467.52,74.18H366.21V44.84H467.52Zm-100.31-1h99.31V45.84H367.21Z"/><path class="cls-3" d="M384.11,60.68a1.13,1.13,0,0,0,1.23,1.21,1.21,1.21,0,0,0,1.33-1.18c0-.6-.31-.88-1.41-1.24a3.46,3.46,0,0,1-1.4-.7,1.73,1.73,0,0,1-.54-1.31,2.07,2.07,0,0,1,4.13,0h-.87a1.46,1.46,0,0,0-.17-.72,1.21,1.21,0,0,0-1-.49,1.11,1.11,0,0,0-1.18,1.14,1,1,0,0,0,.4.8,4.22,4.22,0,0,0,1.11.49,3.13,3.13,0,0,1,1.38.75,1.78,1.78,0,0,1,.46,1.22,2,2,0,0,1-2.18,2,2,2,0,0,1-1.85-.93,1.72,1.72,0,0,1-.24-.91v-.15Z"/><path class="cls-3" d="M389.26,60.4a1.54,1.54,0,0,0,.31.88,1.58,1.58,0,0,0,1.29.65,1.65,1.65,0,0,0,1.44-.82l.7.26a2.43,2.43,0,0,1-4.58-1.21,2.43,2.43,0,1,1,4.85-.07c0,.06,0,.2,0,.31Zm3.16-.58a1.46,1.46,0,0,0-.27-.82,1.63,1.63,0,0,0-1.32-.66,1.53,1.53,0,0,0-1.29.67,2,2,0,0,0-.27.81Z"/><path class="cls-3" d="M394.35,62.55V55.61h.79v6.94Z"/><path class="cls-3" d="M397.19,60.4a1.54,1.54,0,0,0,.31.88,1.57,1.57,0,0,0,1.29.65,1.65,1.65,0,0,0,1.44-.82l.7.26a2.43,2.43,0,0,1-4.58-1.21,2.43,2.43,0,1,1,4.85-.07c0,.06,0,.2,0,.31Zm3.16-.58a1.46,1.46,0,0,0-.27-.82,1.63,1.63,0,0,0-1.32-.66,1.53,1.53,0,0,0-1.29.67,2,2,0,0,0-.27.81Z"/><path class="cls-3" d="M406.08,62a2.45,2.45,0,0,1-1.77.71,2.33,2.33,0,0,1-2.35-2.5,2.42,2.42,0,0,1,4.14-1.81l-.51.51a1.77,1.77,0,0,0-1.22-.5,1.8,1.8,0,0,0,0,3.57,1.67,1.67,0,0,0,1.23-.52Z"/><path class="cls-3" d="M408.12,61.57c0,.24.07.29.36.29h.37v.69h-.74c-.56,0-.78-.22-.78-.75V58.45h-.67v-.7h.67V56.24h.79v1.51h.73v.7h-.73Z"/><path class="cls-3" d="M416.83,62a2.45,2.45,0,0,1-1.77.71,2.33,2.33,0,0,1-2.35-2.5,2.42,2.42,0,0,1,4.14-1.81l-.51.51a1.77,1.77,0,0,0-1.22-.5,1.8,1.8,0,0,0,0,3.57,1.67,1.67,0,0,0,1.23-.52Z"/><path class="cls-3" d="M421.31,57.75h.79v4.8h-.79v-.93a2,2,0,0,1-1.75,1,2.29,2.29,0,0,1-2.25-2.5,2.33,2.33,0,0,1,2.28-2.53,2,2,0,0,1,1.72.91Zm-2.78,1.17a2.16,2.16,0,0,0-.39,1.26A1.65,1.65,0,0,0,419.68,62a1.77,1.77,0,0,0,1.64-1.87,1.62,1.62,0,0,0-1.62-1.76A1.32,1.32,0,0,0,418.53,58.92Z"/><path class="cls-3" d="M424.51,61.57c0,.24.07.29.36.29h.37v.69h-.74c-.56,0-.78-.22-.78-.75V58.45h-.67v-.7h.67V56.24h.79v1.51h.73v.7h-.73Z"/><path class="cls-3" d="M426.73,60.4a1.48,1.48,0,0,0,.31.88,1.57,1.57,0,0,0,1.29.65,1.65,1.65,0,0,0,1.43-.82l.7.26a2.36,2.36,0,0,1-2.13,1.29,2.52,2.52,0,1,1,2.4-2.57c0,.06,0,.2,0,.31Zm3.16-.58a1.54,1.54,0,0,0-.27-.82,1.63,1.63,0,0,0-1.32-.66A1.53,1.53,0,0,0,427,59a2,2,0,0,0-.28.81Z"/><path class="cls-3" d="M435.47,57.75h.79v4.83a2.24,2.24,0,0,1-.64,1.76,2.48,2.48,0,0,1-1.77.63,2.71,2.71,0,0,1-2.12-.87l.54-.54a2.74,2.74,0,0,0,.46.41,2.29,2.29,0,0,0,1.12.28,1.74,1.74,0,0,0,1.25-.46,1.65,1.65,0,0,0,.37-1.15v-1a2,2,0,0,1-1.77,1,2.31,2.31,0,0,1-2.22-2.5,2.73,2.73,0,0,1,.76-2,2.11,2.11,0,0,1,1.52-.57,2,2,0,0,1,1.71.94Zm-3.16,2.38a1.66,1.66,0,0,0,1.58,1.8,1.63,1.63,0,0,0,1.21-.58,1.94,1.94,0,0,0,.35-1.19,1.7,1.7,0,0,0-.38-1.27,1.59,1.59,0,0,0-2.76,1.24Z"/><path class="cls-3" d="M442.3,60.16a2.45,2.45,0,0,1-2.45,2.5,2.52,2.52,0,1,1,2.45-2.5Zm-4.07,0a1.64,1.64,0,1,0,1.65-1.79A1.63,1.63,0,0,0,438.23,60.15Z"/><path class="cls-3" d="M444.3,57.75v.81a1.34,1.34,0,0,1,.44-.63,1.48,1.48,0,0,1,.91-.3h.19v.81h-.22a1.22,1.22,0,0,0-1,.55,1.74,1.74,0,0,0-.28,1.13v2.44h-.79v-4.8Z"/><path class="cls-3" d="M449.92,57.75h.87l-2.87,7.11h-.86l1-2.46-1.71-4.65h.84l1.29,3.56Z"/><path class="cls-2" d="M652.88,74.18H551.58V44.84h101.3Zm-100.3-1h99.3V45.84h-99.3Z"/><path class="cls-3" d="M573.05,60.94l-.64,1.61h-.9l2.61-6.94h1l2.55,6.94h-1l-.57-1.61Zm1.57-4.23-1.31,3.49h2.58Z"/><path class="cls-3" d="M582.11,55.61h.79v6.94h-.79v-.83a2,2,0,0,1-1.72.94,2.28,2.28,0,0,1-2.25-2.49,2.34,2.34,0,0,1,2.25-2.54,2.08,2.08,0,0,1,1.72.85ZM579,60.18A1.6,1.6,0,0,0,580.51,62a1.67,1.67,0,0,0,1.6-1.81,1.62,1.62,0,0,0-1.55-1.82A1.64,1.64,0,0,0,579,60.18Z"/><path class="cls-3" d="M588.08,55.61h.79v6.94h-.79v-.83a2,2,0,0,1-1.71.94,2.29,2.29,0,0,1-2.26-2.49,2.35,2.35,0,0,1,2.26-2.54,2.06,2.06,0,0,1,1.71.85Zm-3.14,4.57A1.61,1.61,0,0,0,586.48,62a1.66,1.66,0,0,0,1.6-1.81,1.62,1.62,0,0,0-1.55-1.82A1.65,1.65,0,0,0,584.94,60.18Z"/><path class="cls-3" d="M594.43,61.57c0,.24.08.29.37.29h.36v.69h-.74c-.56,0-.78-.22-.78-.75V58.45H593v-.7h.66V56.24h.79v1.51h.73v.7h-.73Z"/><path class="cls-3" d="M600.69,60.16a2.45,2.45,0,0,1-2.46,2.5,2.52,2.52,0,1,1,2.46-2.5Zm-4.07,0a1.62,1.62,0,0,0,1.63,1.78,1.64,1.64,0,0,0,1.62-1.78,1.63,1.63,0,1,0-3.25,0Z"/><path class="cls-3" d="M605.81,62.55H605V55.61h.79v3a2,2,0,0,1,1.68-.94,2.31,2.31,0,0,1,2.28,2.53,2.28,2.28,0,0,1-2.24,2.5,1.94,1.94,0,0,1-1.72-.94Zm0-2.4a1.59,1.59,0,1,0,3.14,0,1.59,1.59,0,1,0-3.14,0Z"/><path class="cls-3" d="M614.6,57.75h.79v4.8h-.79v-.93a2,2,0,0,1-1.75,1,2.3,2.3,0,0,1-2.26-2.5,2.34,2.34,0,0,1,2.28-2.53,2,2,0,0,1,1.73.91Zm-2.78,1.17a2.16,2.16,0,0,0-.39,1.26A1.64,1.64,0,0,0,613,62a1.77,1.77,0,0,0,1.64-1.87A1.62,1.62,0,0,0,613,58.34,1.31,1.31,0,0,0,611.82,58.92Z"/><path class="cls-3" d="M619.19,59.06V59c0-.45-.36-.73-.92-.73s-.86.27-.86.69.21.57,1.07.81a2.48,2.48,0,0,1,1.17.55,1.33,1.33,0,0,1,.38.94c0,.83-.68,1.39-1.7,1.39s-1.71-.51-1.79-1.48h.78a.89.89,0,0,0,1,.84c.54,0,.89-.28.89-.71s-.27-.63-1.09-.83c-1-.28-1.51-.72-1.51-1.45s.68-1.4,1.69-1.4A1.47,1.47,0,0,1,620,59.06Z"/><path class="cls-3" d="M622,62.55h-.79V55.61H622v4.24l1.91-2.1h1l-2.14,2.34,2.13,2.46h-1L622,60.4Z"/><path class="cls-3" d="M626,60.4a1.48,1.48,0,0,0,.31.88,1.57,1.57,0,0,0,1.29.65,1.67,1.67,0,0,0,1.44-.82l.69.26a2.34,2.34,0,0,1-2.13,1.29,2.52,2.52,0,1,1,2.4-2.57c0,.06,0,.2,0,.31Zm3.16-.58a1.46,1.46,0,0,0-.27-.82,1.63,1.63,0,0,0-1.32-.66,1.53,1.53,0,0,0-1.29.67,1.84,1.84,0,0,0-.27.81Z"/><path class="cls-3" d="M631.94,61.57c0,.24.07.29.36.29h.37v.69h-.74c-.56,0-.78-.22-.78-.75V58.45h-.67v-.7h.67V56.24h.79v1.51h.73v.7h-.73Z"/><path class="cls-2" d="M780.63,74.18H679.33V44.84h101.3Zm-100.3-1h99.3V45.84h-99.3Z"/><path class="cls-3" d="M703,62.55h-.88V55.61H704c1.47,0,2.37.76,2.37,2a1.88,1.88,0,0,1-1,1.75,2.81,2.81,0,0,1-1.28.29l2.69,2.89h-1.11L703,59.63Zm.87-3.51c1,0,1.62-.48,1.62-1.35s-.52-1.33-1.47-1.33h-1V59Z"/><path class="cls-3" d="M708.05,60.4a1.48,1.48,0,0,0,.31.88,1.57,1.57,0,0,0,1.29.65,1.65,1.65,0,0,0,1.43-.82l.7.26a2.35,2.35,0,0,1-2.13,1.29,2.52,2.52,0,1,1,2.4-2.57c0,.06,0,.2,0,.31Zm3.16-.58a1.54,1.54,0,0,0-.27-.82,1.63,1.63,0,0,0-1.32-.66,1.53,1.53,0,0,0-1.29.67,1.84,1.84,0,0,0-.27.81Z"/><path class="cls-3" d="M716.76,57.75l-1.82,4.8h-.83l-1.76-4.8h.84l1.35,3.66,1.39-3.66Z"/><path class="cls-3" d="M718.49,56.41a.51.51,0,1,1-.5-.52A.51.51,0,0,1,718.49,56.41Zm-.11,6.14h-.79v-4.8h.79Z"/><path class="cls-3" d="M720.43,60.4a1.48,1.48,0,0,0,.31.88,1.57,1.57,0,0,0,1.29.65,1.67,1.67,0,0,0,1.44-.82l.69.26A2.34,2.34,0,0,1,722,62.66a2.52,2.52,0,1,1,2.4-2.57v.31Zm3.16-.58a1.46,1.46,0,0,0-.27-.82,1.63,1.63,0,0,0-1.32-.66,1.53,1.53,0,0,0-1.29.67,1.84,1.84,0,0,0-.27.81Z"/><path class="cls-3" d="M731.83,57.75l-1.7,4.8h-.72l-1.1-3.65-1.16,3.65h-.75l-1.64-4.8h.81l1.23,3.53,1.1-3.53h.78l1.08,3.53L731,57.75Z"/><path class="cls-3" d="M740.31,60.16a2.45,2.45,0,0,1-2.46,2.5,2.52,2.52,0,1,1,2.46-2.5Zm-4.07,0a1.62,1.62,0,0,0,1.63,1.78,1.64,1.64,0,0,0,1.62-1.78,1.63,1.63,0,1,0-3.25,0Z"/><path class="cls-3" d="M742.3,57.75v.81a1.34,1.34,0,0,1,.44-.63,1.49,1.49,0,0,1,.92-.3h.18v.81h-.21a1.23,1.23,0,0,0-1,.55,1.8,1.8,0,0,0-.28,1.13v2.44h-.79v-4.8Z"/><path class="cls-3" d="M748.25,55.61H749v6.94h-.79v-.83a2,2,0,0,1-1.72.94,2.29,2.29,0,0,1-2.26-2.49,2.35,2.35,0,0,1,2.26-2.54,2.08,2.08,0,0,1,1.72.85Zm-3.15,4.57A1.61,1.61,0,0,0,746.64,62a1.67,1.67,0,0,0,1.61-1.81,1.62,1.62,0,0,0-1.55-1.82A1.65,1.65,0,0,0,745.1,60.18Z"/><path class="cls-3" d="M751.09,60.4a1.48,1.48,0,0,0,.31.88,1.57,1.57,0,0,0,1.29.65,1.67,1.67,0,0,0,1.44-.82l.69.26a2.34,2.34,0,0,1-2.13,1.29,2.52,2.52,0,1,1,2.4-2.57c0,.06,0,.2,0,.31Zm3.16-.58A1.46,1.46,0,0,0,754,59a1.63,1.63,0,0,0-1.32-.66,1.53,1.53,0,0,0-1.29.67,1.84,1.84,0,0,0-.27.81Z"/><path class="cls-3" d="M757,57.75v.81a1.34,1.34,0,0,1,.44-.63,1.48,1.48,0,0,1,.91-.3h.19v.81h-.22a1.22,1.22,0,0,0-1,.55,1.74,1.74,0,0,0-.28,1.13v2.44h-.79v-4.8Z"/><path class="cls-3" d="M1151.32,62.55h-.88V55.61h1.85c1.65,0,2.55.75,2.55,2.12a2.13,2.13,0,0,1-.74,1.68,2.57,2.57,0,0,1-1.71.48h-1.07Zm.9-3.41a2.28,2.28,0,0,0,.86-.12,1.31,1.31,0,0,0,.88-1.27,1.28,1.28,0,0,0-.89-1.26,2.89,2.89,0,0,0-1-.13h-.79v2.78Z"/><path class="cls-3" d="M1155.8,62.55V55.61h.79v6.94Z"/><path class="cls-3" d="M1161.81,57.75h.79v4.8h-.79v-.93a2,2,0,0,1-1.75,1,2.3,2.3,0,0,1-2.26-2.5,2.34,2.34,0,0,1,2.28-2.53,2,2,0,0,1,1.73.91ZM1159,58.92a2.17,2.17,0,0,0-.4,1.26,1.65,1.65,0,0,0,1.54,1.79,1.77,1.77,0,0,0,1.65-1.87,1.62,1.62,0,0,0-1.63-1.76A1.29,1.29,0,0,0,1159,58.92Z"/><path class="cls-3" d="M1167.92,62a2.45,2.45,0,0,1-1.76.71,2.34,2.34,0,0,1-2.36-2.5,2.43,2.43,0,0,1,4.15-1.81l-.51.51a1.79,1.79,0,0,0-1.22-.5,1.8,1.8,0,0,0,0,3.57,1.67,1.67,0,0,0,1.23-.52Z"/><path class="cls-3" d="M1169.23,60.4a1.48,1.48,0,0,0,.31.88,1.57,1.57,0,0,0,1.29.65,1.65,1.65,0,0,0,1.43-.82l.7.26a2.35,2.35,0,0,1-2.13,1.29,2.52,2.52,0,1,1,2.4-2.57c0,.06,0,.2,0,.31Zm3.16-.58a1.46,1.46,0,0,0-.27-.82,1.63,1.63,0,0,0-1.32-.66,1.53,1.53,0,0,0-1.29.67,1.84,1.84,0,0,0-.27.81Z"/><path class="cls-3" d="M1182,60.16a2.45,2.45,0,0,1-2.45,2.5,2.52,2.52,0,1,1,2.45-2.5Zm-4.06,0a1.62,1.62,0,0,0,1.63,1.78,1.64,1.64,0,0,0,1.62-1.78,1.63,1.63,0,1,0-3.25,0Z"/><path class="cls-3" d="M1184,57.75v.81a1.34,1.34,0,0,1,.44-.63,1.49,1.49,0,0,1,.92-.3h.18v.81h-.22a1.22,1.22,0,0,0-1,.55,1.8,1.8,0,0,0-.28,1.13v2.44h-.79v-4.8Z"/><path class="cls-3" d="M1189.93,55.61h.8v6.94h-.8v-.83a1.93,1.93,0,0,1-1.71.94,2.29,2.29,0,0,1-2.26-2.49,2.35,2.35,0,0,1,2.26-2.54,2,2,0,0,1,1.71.85Zm-3.14,4.57a1.61,1.61,0,0,0,1.54,1.79,1.66,1.66,0,0,0,1.6-1.81,1.62,1.62,0,0,0-1.55-1.82A1.65,1.65,0,0,0,1186.79,60.18Z"/><path class="cls-3" d="M1192.78,60.4a1.48,1.48,0,0,0,.31.88,1.57,1.57,0,0,0,1.29.65,1.65,1.65,0,0,0,1.43-.82l.7.26a2.34,2.34,0,0,1-2.13,1.29,2.52,2.52,0,1,1,2.4-2.57c0,.06,0,.2,0,.31Zm3.16-.58a1.46,1.46,0,0,0-.27-.82,1.63,1.63,0,0,0-1.32-.66,1.53,1.53,0,0,0-1.29.67,1.84,1.84,0,0,0-.27.81Z"/><path class="cls-3" d="M1198.72,57.75v.81a1.27,1.27,0,0,1,.44-.63,1.46,1.46,0,0,1,.91-.3h.19v.81H1200a1.21,1.21,0,0,0-1,.55,1.74,1.74,0,0,0-.28,1.13v2.44h-.79v-4.8Z"/><path class="cls-2" d="M1213.39,74.18h-76.26V44.84h76.26Zm-75.26-1h74.26V45.84h-74.26Z"/><path class="cls-3" d="M1263.7,62.1a3,3,0,0,1-2.53,1.17,3.1,3.1,0,0,1-2.39-1,3.92,3.92,0,0,1-.92-2.57,3.36,3.36,0,0,1,3.32-3.6,3.4,3.4,0,0,1,1.73.47,4.07,4.07,0,0,1,.82.72l-.61.56a2.46,2.46,0,0,0-1.92-.95,2.82,2.82,0,0,0,0,5.59,2.3,2.3,0,0,0,1.88-.95Z"/><path class="cls-3" d="M1269.22,60.77a2.45,2.45,0,0,1-2.46,2.49,2.51,2.51,0,1,1,2.46-2.49Zm-4.07,0a1.62,1.62,0,0,0,1.63,1.78,1.65,1.65,0,0,0,1.63-1.78,1.64,1.64,0,1,0-3.26,0Z"/><path class="cls-3" d="M1271.22,58.35V59a1.63,1.63,0,0,1,1.42-.79,1.68,1.68,0,0,1,1.12.39,1.57,1.57,0,0,1,.4,1.28v3.24h-.79V60.09a1.25,1.25,0,0,0-.18-.82.89.89,0,0,0-.74-.32,1.19,1.19,0,0,0-.92.4,1.14,1.14,0,0,0-.31.88v2.92h-.79v-4.8Z"/><path class="cls-3" d="M1276.6,63.15h-.79v-4.1h-.66v-.7h.66v-.64c0-1,.49-1.51,1.32-1.51h.22v.71c-.58.06-.73.22-.75.79v.64h.75v.7h-.75Z"/><path class="cls-3" d="M1279.25,57a.5.5,0,0,1-.51.5.51.51,0,0,1,0-1A.51.51,0,0,1,1279.25,57Zm-.11,6.14h-.79v-4.8h.79Z"/><path class="cls-3" d="M1281.52,58.35v.81a1.34,1.34,0,0,1,.44-.63,1.48,1.48,0,0,1,.91-.29h.19V59h-.22a1.25,1.25,0,0,0-1,.55,1.74,1.74,0,0,0-.28,1.13v2.44h-.79v-4.8Z"/><path class="cls-3" d="M1284.75,58.35V59a1.49,1.49,0,0,1,1.36-.78,1.24,1.24,0,0,1,1.29.87,1.57,1.57,0,0,1,1.52-.87,1.43,1.43,0,0,1,1.22.51c.23.3.29.57.29,1.33v3.07h-.79V60.27c0-.59,0-.72-.14-.92a.92.92,0,0,0-.83-.4c-.7,0-1.08.46-1.08,1.32v2.88h-.79V60.28a1.75,1.75,0,0,0-.16-.92.82.82,0,0,0-.78-.41c-.7,0-1.11.49-1.11,1.33v2.87H1284v-4.8Z"/><path class="cls-3" d="M1295.61,58.35h.79v4.8h-.79v-.93a2,2,0,0,1-1.75,1,2.29,2.29,0,0,1-2.25-2.49,2.33,2.33,0,0,1,2.27-2.53,2,2,0,0,1,1.73.9Zm-2.78,1.17a2.17,2.17,0,0,0-.39,1.27,1.64,1.64,0,0,0,1.54,1.79,1.78,1.78,0,0,0,1.64-1.88A1.61,1.61,0,0,0,1294,59,1.3,1.3,0,0,0,1292.83,59.52Z"/><path class="cls-3" d="M1298.81,62.17c0,.24.07.29.36.29h.37v.69h-.74c-.57,0-.78-.22-.78-.75V59.05h-.67v-.7h.67V56.84h.79v1.51h.73v.7h-.73Z"/><path class="cls-3" d="M1301.49,57a.5.5,0,0,1-.51.5.51.51,0,0,1,0-1A.51.51,0,0,1,1301.49,57Zm-.11,6.14h-.79v-4.8h.79Z"/><path class="cls-3" d="M1307.46,60.77a2.44,2.44,0,0,1-2.45,2.49,2.51,2.51,0,1,1,2.45-2.49Zm-4.06,0a1.62,1.62,0,0,0,1.63,1.78,1.64,1.64,0,0,0,1.62-1.78,1.63,1.63,0,1,0-3.25,0Z"/><path class="cls-3" d="M1309.46,58.35V59a1.72,1.72,0,0,1,2.54-.4,1.57,1.57,0,0,1,.41,1.28v3.24h-.79V60.09a1.32,1.32,0,0,0-.18-.82.93.93,0,0,0-.75-.32,1.22,1.22,0,0,0-.92.4,1.17,1.17,0,0,0-.31.88v2.92h-.79v-4.8Z"/><path class="cls-3" d="M1319.31,59.66v0c0-.45-.37-.73-.92-.73s-.86.27-.86.69.21.57,1.07.81a2.54,2.54,0,0,1,1.17.55,1.35,1.35,0,0,1,.38.94c0,.83-.69,1.39-1.71,1.39a1.55,1.55,0,0,1-1.79-1.47h.78a.89.89,0,0,0,1,.83c.54,0,.9-.28.9-.71s-.27-.62-1.09-.83c-1-.28-1.51-.72-1.51-1.45s.67-1.39,1.68-1.39,1.64.52,1.68,1.42Z"/><path class="cls-3" d="M1325.1,62.56a2.48,2.48,0,0,1-1.76.7,2.34,2.34,0,0,1-2.36-2.49,2.43,2.43,0,0,1,4.15-1.81l-.51.51a1.74,1.74,0,0,0-1.22-.5,1.61,1.61,0,0,0-1.6,1.77,1.63,1.63,0,0,0,1.59,1.8,1.68,1.68,0,0,0,1.23-.53Z"/><path class="cls-3" d="M1326.92,58.35v.81a1.33,1.33,0,0,1,.43-.63,1.49,1.49,0,0,1,.92-.29h.19V59h-.22a1.23,1.23,0,0,0-1,.55,1.74,1.74,0,0,0-.28,1.13v2.44h-.8v-4.8Z"/><path class="cls-3" d="M1329.72,61a1.47,1.47,0,0,0,.31.87,1.55,1.55,0,0,0,1.29.66,1.66,1.66,0,0,0,1.43-.83l.7.26a2.35,2.35,0,0,1-2.13,1.29,2.51,2.51,0,1,1,2.4-2.57c0,.07,0,.2,0,.32Zm3.16-.59a1.54,1.54,0,0,0-.27-.82,1.65,1.65,0,0,0-1.32-.65,1.55,1.55,0,0,0-1.29.66,1.84,1.84,0,0,0-.27.81Z"/><path class="cls-3" d="M1335.32,61a1.64,1.64,0,0,0,1.61,1.53,1.66,1.66,0,0,0,1.43-.83l.7.26a2.43,2.43,0,0,1-4.58-1.2,2.43,2.43,0,1,1,4.85-.08c0,.07,0,.2,0,.32Zm3.17-.59a1.54,1.54,0,0,0-.27-.82,1.65,1.65,0,0,0-1.32-.65,1.57,1.57,0,0,0-1.3.66,2.13,2.13,0,0,0-.27.81Z"/><path class="cls-3" d="M1341.27,58.35V59a1.63,1.63,0,0,1,1.42-.79,1.69,1.69,0,0,1,1.12.39,1.57,1.57,0,0,1,.4,1.28v3.24h-.79V60.09a1.25,1.25,0,0,0-.18-.82.9.9,0,0,0-.75-.32,1.18,1.18,0,0,0-.91.4,1.14,1.14,0,0,0-.31.88v2.92h-.79v-4.8Z"/><path class="cls-2" d="M1103.84,87.88h-72.61V36.1h72.61Zm-71.61-1h70.61V37.1h-70.61Z"/><path class="cls-3" d="M1049.63,52.54h-.88V45.6h1.9c1.48,0,2.37.76,2.37,2a1.89,1.89,0,0,1-1,1.75,2.91,2.91,0,0,1-1.28.29l2.7,2.88h-1.12l-2.69-2.92Zm.87-3.51c1,0,1.63-.48,1.63-1.35s-.52-1.33-1.48-1.33h-1V49Z"/><path class="cls-3" d="M1054.73,50.4a1.47,1.47,0,0,0,.31.87,1.54,1.54,0,0,0,1.29.65,1.67,1.67,0,0,0,1.44-.82l.69.26a2.34,2.34,0,0,1-2.13,1.29,2.51,2.51,0,1,1,2.4-2.57v.32Zm3.16-.59a1.46,1.46,0,0,0-.27-.82,1.63,1.63,0,0,0-1.32-.66A1.53,1.53,0,0,0,1055,49a1.84,1.84,0,0,0-.27.81Z"/><path class="cls-3" d="M1063.44,47.74l-1.81,4.8h-.83l-1.76-4.8h.83l1.35,3.66,1.4-3.66Z"/><path class="cls-3" d="M1065.18,46.4a.5.5,0,0,1-.51.5.51.51,0,0,1,0-1A.51.51,0,0,1,1065.18,46.4Zm-.12,6.14h-.79v-4.8h.79Z"/><path class="cls-3" d="M1067.11,50.4a1.54,1.54,0,0,0,.31.87,1.56,1.56,0,0,0,1.3.65,1.65,1.65,0,0,0,1.43-.82l.7.26a2.43,2.43,0,0,1-4.58-1.2,2.43,2.43,0,1,1,4.85-.08c0,.07,0,.2,0,.32Zm3.17-.59A1.63,1.63,0,0,0,1070,49a1.67,1.67,0,0,0-1.33-.66,1.53,1.53,0,0,0-1.29.67,2,2,0,0,0-.27.81Z"/><path class="cls-3" d="M1078.52,47.74l-1.71,4.8h-.72L1075,48.9l-1.15,3.64h-.75l-1.65-4.8h.81l1.23,3.53,1.1-3.53h.78l1.09,3.53,1.26-3.53Z"/><path class="cls-3" d="M1052.42,64.43a2.45,2.45,0,0,1-1.77.71,2.33,2.33,0,0,1-2.35-2.5,2.43,2.43,0,0,1,4.14-1.81l-.51.51a1.79,1.79,0,0,0-1.22-.5,1.8,1.8,0,0,0,0,3.57,1.67,1.67,0,0,0,1.23-.52Z"/><path class="cls-3" d="M1057.76,62.64a2.45,2.45,0,0,1-2.46,2.5,2.51,2.51,0,1,1,2.46-2.5Zm-4.07,0a1.61,1.61,0,0,0,1.63,1.78,1.64,1.64,0,0,0,1.62-1.78,1.63,1.63,0,1,0-3.25,0Z"/><path class="cls-3" d="M1059.76,60.23v.67a1.47,1.47,0,0,1,1.36-.78,1.24,1.24,0,0,1,1.29.87,1.57,1.57,0,0,1,1.52-.87,1.45,1.45,0,0,1,1.22.5,2,2,0,0,1,.29,1.34V65h-.79V62.14c0-.58,0-.71-.14-.91a.94.94,0,0,0-.83-.41c-.7,0-1.08.47-1.08,1.32V65h-.79V62.16a1.86,1.86,0,0,0-.16-.92.84.84,0,0,0-.78-.42c-.7,0-1.11.5-1.11,1.34V65h-.8v-4.8Z"/><path class="cls-3" d="M1067.71,60.23v.87a1.85,1.85,0,0,1,1.74-1,2.27,2.27,0,0,1,2.26,2.47,2.29,2.29,0,0,1-3.31,2.3,1.68,1.68,0,0,1-.69-.61v3h-.8V60.23Zm0,2.48a1.58,1.58,0,0,0,1.58,1.75,1.64,1.64,0,0,0,1.58-1.84,1.86,1.86,0,0,0-.42-1.3,1.56,1.56,0,0,0-1.13-.5A1.67,1.67,0,0,0,1067.71,62.71Z"/><path class="cls-3" d="M1076.53,60.23h.79V65h-.79V64.1a2,2,0,0,1-1.75,1,2.3,2.3,0,0,1-2.26-2.5,2.33,2.33,0,0,1,2.28-2.52,2,2,0,0,1,1.73.9Zm-2.78,1.17a2.17,2.17,0,0,0-.39,1.27,1.65,1.65,0,0,0,1.54,1.79,1.78,1.78,0,0,0,1.64-1.88,1.62,1.62,0,0,0-1.62-1.76A1.31,1.31,0,0,0,1073.75,61.4Z"/><path class="cls-3" d="M1079.71,60.23v.68a1.61,1.61,0,0,1,1.42-.79,1.65,1.65,0,0,1,1.11.39,1.54,1.54,0,0,1,.41,1.28V65h-.79V62a1.25,1.25,0,0,0-.18-.82.91.91,0,0,0-.75-.33,1.19,1.19,0,0,0-.91.41,1.13,1.13,0,0,0-.31.87V65h-.8v-4.8Z"/><path class="cls-3" d="M1086.92,60.23h.86l-2.86,7.11h-.86l1-2.46-1.7-4.65h.84l1.29,3.56Z"/><path class="cls-3" d="M1052.3,72.72h.79v4.8h-.79v-.93a2,2,0,0,1-1.74,1,2.29,2.29,0,0,1-2.26-2.5,2.33,2.33,0,0,1,2.28-2.53,2,2,0,0,1,1.72.91Zm-2.78,1.16a2.22,2.22,0,0,0-.39,1.27,1.65,1.65,0,0,0,1.54,1.79,1.77,1.77,0,0,0,1.64-1.87,1.62,1.62,0,0,0-1.62-1.76A1.34,1.34,0,0,0,1049.52,73.88Z"/><path class="cls-3" d="M1058.28,70.57h.79v7h-.79v-.83a2,2,0,0,1-1.72.94,2.29,2.29,0,0,1-2.26-2.49,2.35,2.35,0,0,1,2.26-2.54,2,2,0,0,1,1.72.85Zm-3.15,4.58a1.61,1.61,0,0,0,1.54,1.79,1.67,1.67,0,0,0,1.61-1.81,1.62,1.62,0,0,0-1.55-1.82A1.65,1.65,0,0,0,1055.13,75.15Z"/><path class="cls-3" d="M1064.25,70.57h.79v7h-.79v-.83a2,2,0,0,1-1.72.94,2.28,2.28,0,0,1-2.25-2.49,2.34,2.34,0,0,1,2.25-2.54,2,2,0,0,1,1.72.85Zm-3.14,4.58a1.61,1.61,0,0,0,1.54,1.79,1.67,1.67,0,0,0,1.6-1.81,1.62,1.62,0,0,0-1.55-1.82A1.64,1.64,0,0,0,1061.11,75.15Z"/><path class="cls-3" d="M1067.43,72.72v.81a1.27,1.27,0,0,1,.43-.63,1.49,1.49,0,0,1,.92-.3h.19v.81a1,1,0,0,0-.22,0,1.22,1.22,0,0,0-1,.56,1.74,1.74,0,0,0-.28,1.13v2.44h-.8v-4.8Z"/><path class="cls-3" d="M1070.22,75.37a1.55,1.55,0,0,0,.32.88,1.57,1.57,0,0,0,1.29.65,1.65,1.65,0,0,0,1.43-.82l.7.26a2.36,2.36,0,0,1-2.13,1.29,2.52,2.52,0,1,1,2.4-2.57c0,.06,0,.2,0,.31Zm3.17-.58a1.51,1.51,0,0,0-.27-.82,1.65,1.65,0,0,0-1.32-.66,1.55,1.55,0,0,0-1.3.67,2.07,2.07,0,0,0-.27.81Z"/><path class="cls-3" d="M1077.57,74v0c0-.45-.36-.73-.91-.73s-.87.27-.87.69.21.57,1.07.81a2.39,2.39,0,0,1,1.17.55,1.33,1.33,0,0,1,.38.94c0,.83-.68,1.39-1.7,1.39s-1.71-.51-1.79-1.48h.78a.89.89,0,0,0,1,.84c.54,0,.89-.29.89-.71s-.27-.63-1.09-.84c-1-.28-1.51-.71-1.51-1.44s.68-1.4,1.69-1.4a1.46,1.46,0,0,1,1.67,1.43Z"/><path class="cls-3" d="M1081.85,74v0c0-.45-.37-.73-.92-.73s-.86.27-.86.69.21.57,1.07.81a2.39,2.39,0,0,1,1.17.55,1.33,1.33,0,0,1,.38.94c0,.83-.69,1.39-1.71,1.39a1.56,1.56,0,0,1-1.79-1.48h.79a.88.88,0,0,0,1,.84c.55,0,.9-.29.9-.71s-.27-.63-1.09-.84c-1-.28-1.51-.71-1.51-1.44s.67-1.4,1.68-1.4a1.47,1.47,0,0,1,1.68,1.43Z"/><path class="cls-2" d="M976.57,100.81H875.27V71.46h101.3Zm-100.3-1h99.3V72.46h-99.3Z"/><path class="cls-3" d="M893.67,89.17h-.87V82.23h.87Z"/><path class="cls-3" d="M896.12,84.37v.68a1.63,1.63,0,0,1,1.42-.79,1.68,1.68,0,0,1,1.12.39,1.58,1.58,0,0,1,.4,1.28v3.24h-.79V86.11a1.35,1.35,0,0,0-.17-.82.93.93,0,0,0-.75-.32,1.19,1.19,0,0,0-.92.4,1.14,1.14,0,0,0-.31.88v2.92h-.79v-4.8Z"/><path class="cls-3" d="M904.16,84.37l-1.81,4.8h-.83l-1.76-4.8h.83L902,88l1.39-3.67Z"/><path class="cls-3" d="M909.39,86.79a2.45,2.45,0,0,1-2.46,2.49,2.51,2.51,0,1,1,2.46-2.49Zm-4.07,0A1.62,1.62,0,0,0,907,88.56a1.65,1.65,0,0,0,1.63-1.78,1.64,1.64,0,1,0-3.26,0Z"/><path class="cls-3" d="M911.5,83a.5.5,0,0,1-.51.5.51.51,0,0,1,0-1A.51.51,0,0,1,911.5,83Zm-.11,6.14h-.79v-4.8h.79Z"/><path class="cls-3" d="M916.71,88.58a2.44,2.44,0,0,1-1.77.7,2.33,2.33,0,0,1-2.35-2.49A2.42,2.42,0,0,1,916.73,85l-.5.51A1.76,1.76,0,0,0,915,85a1.8,1.8,0,0,0,0,3.57,1.7,1.7,0,0,0,1.23-.52Z"/><path class="cls-3" d="M918,87a1.47,1.47,0,0,0,.31.87,1.55,1.55,0,0,0,1.29.66,1.66,1.66,0,0,0,1.43-.83l.7.26a2.34,2.34,0,0,1-2.13,1.29,2.51,2.51,0,1,1,2.4-2.57c0,.07,0,.2,0,.32Zm3.16-.59a1.54,1.54,0,0,0-.27-.82,1.65,1.65,0,0,0-1.32-.65,1.55,1.55,0,0,0-1.29.66,2,2,0,0,0-.28.81Z"/><path class="cls-2" d="M976.57,50.14H875.27V20.8h101.3Zm-100.3-1h99.3V21.8h-99.3Z"/><path class="cls-3" d="M893.67,38.51h-.87V31.56h1.85c1.65,0,2.55.75,2.55,2.13a2.14,2.14,0,0,1-.74,1.68,2.58,2.58,0,0,1-1.72.48h-1.07Zm.91-3.41a2.34,2.34,0,0,0,.86-.12,1.32,1.32,0,0,0,.88-1.27,1.29,1.29,0,0,0-.89-1.26,2.89,2.89,0,0,0-1-.14h-.79V35.1Z"/><path class="cls-3" d="M899,33.71v.81a1.34,1.34,0,0,1,.44-.63,1.49,1.49,0,0,1,.92-.3h.18v.81h-.22a1.22,1.22,0,0,0-1,.55,1.8,1.8,0,0,0-.28,1.13v2.44h-.79v-4.8Z"/><path class="cls-3" d="M905.88,36.12a2.45,2.45,0,0,1-2.46,2.5,2.52,2.52,0,1,1,2.46-2.5Zm-4.07,0a1.62,1.62,0,0,0,1.63,1.78,1.65,1.65,0,0,0,1.63-1.78,1.64,1.64,0,1,0-3.26,0Z"/><path class="cls-3" d="M908,38.51h-.79v-4.1h-.65v-.7h.65v-.65c0-.94.49-1.5,1.32-1.5h.22v.71c-.57.07-.73.23-.75.79v.65h.75v.7H908Z"/><path class="cls-3" d="M914.15,36.12a2.45,2.45,0,0,1-2.45,2.5,2.52,2.52,0,1,1,2.45-2.5Zm-4.07,0a1.64,1.64,0,1,0,1.65-1.79A1.63,1.63,0,0,0,910.08,36.11Z"/><path class="cls-3" d="M916.15,33.71v.81a1.34,1.34,0,0,1,.44-.63,1.48,1.48,0,0,1,.91-.3h.19v.81h-.22a1.22,1.22,0,0,0-1,.55,1.74,1.74,0,0,0-.28,1.13v2.44h-.79v-4.8Z"/><path class="cls-3" d="M919.38,33.71v.66a1.49,1.49,0,0,1,1.36-.78,1.24,1.24,0,0,1,1.29.88,1.57,1.57,0,0,1,1.52-.88,1.46,1.46,0,0,1,1.22.51,1.93,1.93,0,0,1,.29,1.34v3.07h-.79V35.62c0-.58,0-.71-.14-.91a.92.92,0,0,0-.83-.41c-.7,0-1.08.47-1.08,1.32v2.89h-.79V35.63a1.74,1.74,0,0,0-.16-.91.82.82,0,0,0-.78-.42c-.7,0-1.11.5-1.11,1.33v2.88h-.79v-4.8Z"/><path class="cls-3" d="M930.24,33.71H931v4.8h-.79v-.93a2,2,0,0,1-1.75,1,2.29,2.29,0,0,1-2.25-2.5,2.33,2.33,0,0,1,2.28-2.53,2,2,0,0,1,1.72.91Zm-2.78,1.16a2.22,2.22,0,0,0-.39,1.27,1.64,1.64,0,0,0,1.54,1.79,1.77,1.77,0,0,0,1.64-1.87,1.62,1.62,0,0,0-1.62-1.76A1.34,1.34,0,0,0,927.46,34.87Z"/><path class="cls-3" d="M936.65,32.37a.5.5,0,0,1-.51.5.51.51,0,1,1,.51-.5Zm-.11,6.14h-.79v-4.8h.79Z"/><path class="cls-3" d="M938.92,33.71v.68a1.63,1.63,0,0,1,1.43-.8,1.67,1.67,0,0,1,1.11.4,1.56,1.56,0,0,1,.41,1.28v3.24h-.79V35.45a1.37,1.37,0,0,0-.18-.83,1,1,0,0,0-.75-.32,1.22,1.22,0,0,0-.92.41,1.16,1.16,0,0,0-.31.87v2.93h-.79v-4.8Z"/><path class="cls-3" d="M947,33.71l-1.82,4.8h-.83l-1.76-4.8h.84l1.35,3.66,1.39-3.66Z"/><path class="cls-3" d="M952.19,36.12a2.45,2.45,0,0,1-2.46,2.5,2.52,2.52,0,1,1,2.46-2.5Zm-4.07,0a1.63,1.63,0,0,0,1.64,1.78,1.64,1.64,0,0,0,1.62-1.78,1.64,1.64,0,1,0-3.26,0Z"/><path class="cls-3" d="M954.3,32.37a.5.5,0,0,1-.51.5.51.51,0,1,1,.51-.5Zm-.11,6.14h-.79v-4.8h.79Z"/><path class="cls-3" d="M959.52,37.91a2.47,2.47,0,0,1-1.77.71,2.33,2.33,0,0,1-2.35-2.5,2.42,2.42,0,0,1,4.14-1.81l-.51.51a1.79,1.79,0,0,0-1.22-.5,1.8,1.8,0,0,0,0,3.57,1.67,1.67,0,0,0,1.23-.52Z"/><path class="cls-3" d="M960.82,36.36a1.48,1.48,0,0,0,.31.88,1.57,1.57,0,0,0,1.29.65,1.67,1.67,0,0,0,1.44-.82l.69.26a2.34,2.34,0,0,1-2.13,1.29,2.52,2.52,0,1,1,2.4-2.57c0,.06,0,.2,0,.31Zm3.16-.58a1.43,1.43,0,0,0-.27-.82,1.63,1.63,0,0,0-1.32-.66,1.53,1.53,0,0,0-1.29.67,1.84,1.84,0,0,0-.27.81Z"/><rect class="cls-3" x="75.75" y="59.14" width="17.14" height="0.75"/><polygon class="cls-3" points="91.79 63.25 98.27 59.51 91.79 55.77 91.79 63.25"/><rect class="cls-3" x="160.9" y="59.14" width="17.14" height="0.75"/><polygon class="cls-3" points="176.94 63.25 183.42 59.51 176.94 55.77 176.94 63.25"/><rect class="cls-3" x="264.04" y="59.14" width="17.14" height="0.75"/><polygon class="cls-3" points="280.08 63.25 286.56 59.51 280.08 55.77 280.08 63.25"/><rect class="cls-3" x="652.38" y="59.14" width="22.07" height="0.75"/><polygon class="cls-3" points="673.36 63.25 679.83 59.51 673.36 55.77 673.36 63.25"/><path class="cls-2" d="M264.54,74.18H182.92V44.84h81.62Zm-80.62-1h79.62V45.84H183.92Z"/><path class="cls-3" d="M201.31,55.61h1.84A3.09,3.09,0,0,1,206.5,59a3.63,3.63,0,0,1-1.09,2.78,3.5,3.5,0,0,1-2.42.8h-1.68Zm.87,6.19h.31a3.11,3.11,0,0,0,2.18-.52,2.79,2.79,0,0,0,.94-2.3,2.33,2.33,0,0,0-2.49-2.64h-.94Z"/><path class="cls-3" d="M211.41,57.75h.79v4.8h-.79v-.93a2,2,0,0,1-1.75,1,2.29,2.29,0,0,1-2.25-2.5,2.33,2.33,0,0,1,2.27-2.53,2,2,0,0,1,1.73.91Zm-2.78,1.17a2.16,2.16,0,0,0-.39,1.26A1.64,1.64,0,0,0,209.78,62a1.77,1.77,0,0,0,1.64-1.87,1.62,1.62,0,0,0-1.62-1.76A1.32,1.32,0,0,0,208.63,58.92Z"/><path class="cls-3" d="M216,59.06V59c0-.45-.36-.73-.91-.73s-.87.27-.87.69.21.57,1.07.81a2.48,2.48,0,0,1,1.17.55,1.34,1.34,0,0,1,.39.94c0,.83-.69,1.39-1.71,1.39s-1.71-.51-1.79-1.48h.78a.89.89,0,0,0,1,.84c.54,0,.89-.28.89-.71s-.27-.63-1.09-.83c-1-.28-1.51-.72-1.51-1.45s.68-1.4,1.69-1.4a1.47,1.47,0,0,1,1.67,1.43Z"/><path class="cls-3" d="M218.85,58.42a1.76,1.76,0,0,1,1.45-.79,1.59,1.59,0,0,1,1.11.44,1.66,1.66,0,0,1,.38,1.25v3.23H221V59.36c0-.65-.32-1-.9-1a1.22,1.22,0,0,0-.93.43,1.26,1.26,0,0,0-.32,1v2.81h-.79V55.61h.79Z"/><path class="cls-3" d="M224.14,62.55h-.79V55.61h.79v3a2,2,0,0,1,1.69-.94,2.32,2.32,0,0,1,2.28,2.53,2.28,2.28,0,0,1-2.24,2.5,2,2,0,0,1-1.73-.94Zm0-2.4a1.59,1.59,0,1,0,3.14,0,1.59,1.59,0,1,0-3.14,0Z"/><path class="cls-3" d="M233.81,60.16a2.45,2.45,0,0,1-2.46,2.5,2.52,2.52,0,1,1,2.46-2.5Zm-4.07,0a1.62,1.62,0,0,0,1.63,1.78A1.65,1.65,0,0,0,233,60.15a1.64,1.64,0,1,0-3.26,0Z"/><path class="cls-3" d="M238.64,57.75h.79v4.8h-.79v-.93a2,2,0,0,1-1.75,1,2.3,2.3,0,0,1-2.26-2.5,2.34,2.34,0,0,1,2.28-2.53,2,2,0,0,1,1.73.91Zm-2.78,1.17a2.17,2.17,0,0,0-.4,1.26A1.65,1.65,0,0,0,237,62a1.77,1.77,0,0,0,1.65-1.87A1.62,1.62,0,0,0,237,58.34,1.29,1.29,0,0,0,235.86,58.92Z"/><path class="cls-3" d="M241.81,57.75v.81a1.34,1.34,0,0,1,.44-.63,1.48,1.48,0,0,1,.91-.3h.19v.81h-.22a1.22,1.22,0,0,0-1,.55,1.74,1.74,0,0,0-.28,1.13v2.44H241v-4.8Z"/><path class="cls-3" d="M247.75,55.61h.79v6.94h-.79v-.83a2,2,0,0,1-1.71.94,2.29,2.29,0,0,1-2.26-2.49A2.35,2.35,0,0,1,246,57.63a2.06,2.06,0,0,1,1.71.85Zm-3.14,4.57A1.61,1.61,0,0,0,246.15,62a1.66,1.66,0,0,0,1.6-1.81,1.62,1.62,0,0,0-1.55-1.82A1.65,1.65,0,0,0,244.61,60.18Z"/><path class="cls-3" d="M12.34,62.68h-.87V55.74h.87v3.12h3.38V55.74h.88v6.94h-.88V59.61H12.34Z"/><path class="cls-3" d="M22.75,60.3a2.45,2.45,0,0,1-2.46,2.49,2.51,2.51,0,1,1,2.46-2.49Zm-4.07,0a1.62,1.62,0,0,0,1.63,1.78,1.65,1.65,0,0,0,1.63-1.78,1.64,1.64,0,1,0-3.26,0Z"/><path class="cls-3" d="M24.75,57.88v.67a1.49,1.49,0,0,1,1.36-.78,1.24,1.24,0,0,1,1.29.87,1.57,1.57,0,0,1,1.52-.87,1.43,1.43,0,0,1,1.22.51c.23.3.29.57.29,1.33v3.07h-.79V59.8c0-.59,0-.72-.14-.92a.92.92,0,0,0-.83-.4c-.7,0-1.08.46-1.08,1.32v2.88H26.8V59.81a1.75,1.75,0,0,0-.16-.92.82.82,0,0,0-.78-.41c-.7,0-1.11.5-1.11,1.33v2.87H24v-4.8Z"/><path class="cls-3" d="M32.45,60.54a1.47,1.47,0,0,0,.31.87,1.55,1.55,0,0,0,1.29.66,1.68,1.68,0,0,0,1.44-.83l.69.26a2.32,2.32,0,0,1-2.13,1.29,2.51,2.51,0,1,1,2.4-2.57c0,.07,0,.2,0,.32ZM35.61,60a1.46,1.46,0,0,0-.27-.82A1.65,1.65,0,0,0,34,58.48a1.55,1.55,0,0,0-1.29.66,1.84,1.84,0,0,0-.27.81Z"/><path class="cls-3" d="M41.51,57.88v.88a1.86,1.86,0,0,1,1.75-1,2.27,2.27,0,0,1,2.26,2.47,2.31,2.31,0,0,1-2.26,2.55,2.26,2.26,0,0,1-1-.25,1.7,1.7,0,0,1-.7-.61v3h-.79V57.88Zm0,2.48a1.58,1.58,0,0,0,1.58,1.75,1.63,1.63,0,0,0,1.59-1.83,1.85,1.85,0,0,0-.42-1.3,1.52,1.52,0,0,0-1.13-.5A1.68,1.68,0,0,0,41.51,60.36Z"/><path class="cls-3" d="M50.34,57.88h.79v4.8h-.79v-.93a2,2,0,0,1-1.75,1,2.29,2.29,0,0,1-2.26-2.49,2.33,2.33,0,0,1,2.28-2.53,2,2,0,0,1,1.73.9Zm-2.78,1.17a2.18,2.18,0,0,0-.4,1.27,1.65,1.65,0,0,0,1.54,1.79,1.78,1.78,0,0,0,1.65-1.88,1.61,1.61,0,0,0-1.63-1.75A1.28,1.28,0,0,0,47.56,59.05Z"/><path class="cls-3" d="M56.26,57.88h.79v4.83a2.27,2.27,0,0,1-.63,1.76,2.47,2.47,0,0,1-1.77.63,2.72,2.72,0,0,1-2.13-.87l.54-.54a3.54,3.54,0,0,0,.46.42,2.42,2.42,0,0,0,1.13.28,1.72,1.72,0,0,0,1.24-.47,1.65,1.65,0,0,0,.37-1.15v-1a2,2,0,0,1-1.77,1,2.31,2.31,0,0,1-2.22-2.49,2.76,2.76,0,0,1,.76-2,2.14,2.14,0,0,1,1.52-.56,2,2,0,0,1,1.71.93Zm-3.15,2.39a1.65,1.65,0,0,0,1.57,1.8,1.59,1.59,0,0,0,1.21-.59,1.9,1.9,0,0,0,.35-1.18A1.67,1.67,0,0,0,55.86,59a1.58,1.58,0,0,0-2.75,1.24Z"/><path class="cls-3" d="M59.06,60.54a1.47,1.47,0,0,0,.31.87,1.55,1.55,0,0,0,1.29.66,1.68,1.68,0,0,0,1.44-.83l.69.26a2.32,2.32,0,0,1-2.13,1.29,2.51,2.51,0,1,1,2.4-2.57c0,.07,0,.2,0,.32ZM62.22,60a1.46,1.46,0,0,0-.27-.82,1.65,1.65,0,0,0-1.32-.65,1.55,1.55,0,0,0-1.29.66,1.84,1.84,0,0,0-.27.81Z"/><rect class="cls-3" x="327.91" y="59.27" width="33.42" height="0.75"/><polygon class="cls-3" points="360.24 63.38 366.71 59.64 360.24 55.9 360.24 63.38"/><rect class="cls-4" x="294.21" y="45.68" width="27.92" height="27.92" transform="translate(48.09 235.38) rotate(-45)"/><rect class="cls-5" x="294.21" y="45.68" width="27.92" height="27.92" transform="translate(48.09 235.38) rotate(-45)"/><path class="cls-3" d="M300,61.82a3.65,3.65,0,0,1-1.43.25,2.52,2.52,0,0,1-2.66-2.73,2.68,2.68,0,0,1,2.82-2.83,2.92,2.92,0,0,1,1.27.24l-.16.57a2.53,2.53,0,0,0-1.09-.22,2,2,0,0,0-2.1,2.22,2,2,0,0,0,2.07,2.17,2.7,2.7,0,0,0,1.13-.23Z"/><path class="cls-3" d="M300.88,56.31h.7v2.42h0a1.27,1.27,0,0,1,.5-.5,1.47,1.47,0,0,1,.72-.2c.52,0,1.35.32,1.35,1.66V62h-.7V59.77c0-.62-.24-1.15-.9-1.15a1,1,0,0,0-.94.7.87.87,0,0,0-.05.34V62h-.7Z"/><path class="cls-3" d="M308.82,60a1.89,1.89,0,0,1-1.93,2.06,1.84,1.84,0,0,1-1.85-2A1.89,1.89,0,0,1,307,58,1.83,1.83,0,0,1,308.82,60Zm-3.07,0c0,.85.49,1.49,1.17,1.49s1.18-.63,1.18-1.5c0-.66-.33-1.49-1.16-1.49S305.75,59.33,305.75,60.06Z"/><path class="cls-3" d="M313.21,60a1.89,1.89,0,0,1-1.93,2.06,1.84,1.84,0,0,1-1.85-2A1.89,1.89,0,0,1,311.35,58,1.83,1.83,0,0,1,313.21,60Zm-3.07,0c0,.85.49,1.49,1.17,1.49s1.18-.63,1.18-1.5c0-.66-.33-1.49-1.16-1.49S310.14,59.33,310.14,60.06Z"/><path class="cls-3" d="M314,61.27a1.83,1.83,0,0,0,.93.28c.51,0,.75-.25.75-.57s-.2-.52-.72-.72c-.69-.24-1-.63-1-1.09A1.19,1.19,0,0,1,315.28,58a2,2,0,0,1,1,.24l-.18.52a1.45,1.45,0,0,0-.79-.23c-.42,0-.65.24-.65.53s.23.46.74.65c.67.26,1,.6,1,1.17s-.52,1.16-1.44,1.16a2.19,2.19,0,0,1-1.09-.26Z"/><path class="cls-3" d="M317.66,60.18A1.24,1.24,0,0,0,319,61.53a2.57,2.57,0,0,0,1.07-.2l.12.5a3.17,3.17,0,0,1-1.29.24,1.79,1.79,0,0,1-1.9-2A1.88,1.88,0,0,1,318.8,58a1.64,1.64,0,0,1,1.6,1.83,2.33,2.33,0,0,1,0,.32Zm2.06-.5a1,1,0,0,0-1-1.14,1.16,1.16,0,0,0-1.08,1.14Z"/><rect class="cls-3" x="780.13" y="60.29" width="17.87" height="0.75"/><polygon class="cls-3" points="796.91 64.41 803.39 60.67 796.91 56.93 796.91 64.41"/><rect class="cls-3" x="1102.85" y="60.29" width="29.4" height="0.75"/><polygon class="cls-3" points="1131.15 64.41 1137.63 60.67 1131.15 56.93 1131.15 64.41"/><rect class="cls-3" x="1212.89" y="60.29" width="29.4" height="0.75"/><polygon class="cls-3" points="1241.19 64.41 1247.67 60.67 1241.19 56.93 1241.19 64.41"/><rect class="cls-4" x="809.17" y="46.84" width="27.92" height="27.92" transform="translate(198.1 599.85) rotate(-45)"/><rect class="cls-5" x="809.17" y="46.84" width="27.92" height="27.92" transform="translate(198.1 599.85) rotate(-45)"/><path class="cls-3" d="M815,63a3.39,3.39,0,0,1-1.42.26,2.52,2.52,0,0,1-2.66-2.73,2.68,2.68,0,0,1,2.81-2.83,3,3,0,0,1,1.28.24l-.17.57a2.5,2.5,0,0,0-1.09-.22,2,2,0,0,0-2.1,2.22,2,2,0,0,0,2.07,2.17,2.72,2.72,0,0,0,1.14-.23Z"/><path class="cls-3" d="M815.83,57.47h.7v2.42h0a1.33,1.33,0,0,1,.5-.5,1.47,1.47,0,0,1,.72-.2c.52,0,1.36.32,1.36,1.66v2.3h-.71V60.93c0-.63-.23-1.15-.89-1.15a1,1,0,0,0-.95.7.87.87,0,0,0-.05.34v2.33h-.7Z"/><path class="cls-3" d="M823.77,61.18a1.89,1.89,0,0,1-1.92,2.06,1.84,1.84,0,0,1-1.86-2,1.89,1.89,0,0,1,1.92-2.06A1.83,1.83,0,0,1,823.77,61.18Zm-3.07,0c0,.85.49,1.49,1.18,1.49s1.17-.63,1.17-1.5c0-.66-.32-1.49-1.16-1.49S820.7,60.49,820.7,61.22Z"/><path class="cls-3" d="M828.17,61.18a1.9,1.9,0,0,1-1.93,2.06,1.84,1.84,0,0,1-1.86-2,1.89,1.89,0,0,1,1.92-2.06A1.84,1.84,0,0,1,828.17,61.18Zm-3.07,0c0,.85.48,1.49,1.17,1.49s1.18-.63,1.18-1.5c0-.66-.33-1.49-1.16-1.49S825.1,60.49,825.1,61.22Z"/><path class="cls-3" d="M829,62.43a1.83,1.83,0,0,0,.93.28c.51,0,.75-.26.75-.58s-.2-.52-.72-.71c-.7-.25-1-.63-1-1.09a1.19,1.19,0,0,1,1.33-1.14,1.89,1.89,0,0,1,.95.24l-.17.51a1.62,1.62,0,0,0-.79-.22c-.42,0-.65.24-.65.53s.23.46.73.65c.68.26,1,.59,1,1.17s-.53,1.16-1.45,1.16a2.25,2.25,0,0,1-1.09-.26Z"/><path class="cls-3" d="M832.62,61.34a1.24,1.24,0,0,0,1.32,1.35,2.53,2.53,0,0,0,1.07-.2l.12.5a3.12,3.12,0,0,1-1.28.24,1.8,1.8,0,0,1-1.91-1.95,1.88,1.88,0,0,1,1.82-2.09,1.64,1.64,0,0,1,1.6,1.83,2,2,0,0,1,0,.32Zm2.06-.5a1,1,0,0,0-1-1.14,1.17,1.17,0,0,0-1.08,1.14Z"/><polygon class="cls-3" points="361.33 105.86 335.68 105.86 335.68 14.3 361.33 14.3 361.33 15.05 336.43 15.05 336.43 105.11 361.33 105.11 361.33 105.86"/><polygon class="cls-3" points="360.24 10.93 366.71 14.67 360.24 18.41 360.24 10.93"/><polygon class="cls-3" points="360.24 109.22 366.71 105.48 360.24 101.74 360.24 109.22"/><polygon class="cls-3" points="870.39 86.51 850.9 86.51 850.9 35.09 870.39 35.09 870.39 35.84 851.65 35.84 851.65 85.76 870.39 85.76 870.39 86.51"/><polygon class="cls-3" points="869.29 31.73 875.77 35.47 869.29 39.21 869.29 31.73"/><polygon class="cls-3" points="869.29 89.87 875.77 86.13 869.29 82.39 869.29 89.87"/><polygon class="cls-3" points="1000.93 86.51 976.06 86.51 976.06 85.76 1000.18 85.76 1000.18 35.84 976.06 35.84 976.06 35.09 1000.93 35.09 1000.93 86.51"/><polygon class="cls-3" points="514.85 105.86 442.44 105.86 442.44 105.11 514.1 105.11 514.1 15.05 497.69 15.05 497.69 14.3 514.85 14.3 514.85 105.86"/><rect class="cls-3" x="467.02" y="59.7" width="47.46" height="0.75"/><rect class="cls-3" x="514.71" y="59.7" width="31.98" height="0.75"/><polygon class="cls-3" points="545.6 56.34 552.08 60.08 545.6 63.82 545.6 56.34"/><circle class="cls-3" cx="514.85" cy="60.08" r="2.82"/><rect class="cls-3" x="842.87" y="60.43" width="8.4" height="0.75"/><rect class="cls-3" x="1001.24" y="61.59" width="25.1" height="0.75"/><circle class="cls-3" cx="1001.38" cy="61.96" r="2.82"/><polygon class="cls-3" points="1025.25 65.7 1031.72 61.96 1025.25 58.22 1025.25 65.7"/></g></g></svg>