<svg xmlns="http://www.w3.org/2000/svg" viewBox="0 0 896.7 262.3"><defs><style>.cls-1{fill:#6ba332;}.cls-1,.cls-5{opacity:0.5;}.cls-2{fill:blue;}.cls-3{fill:#221f20;}.cls-4,.cls-5{fill:#f3524d;}.cls-6{fill:#fff;}</style></defs><title>flowhr</title><g id="Layer_2" data-name="Layer 2"><g id="Layer_1-2" data-name="Layer 1"><rect class="cls-1" y="140.37" width="75.75" height="31.48" rx="15.74"/><path class="cls-2" d="M738.33,150.79H624.75V121.44H738.33Zm-112.58-1H737.33V122.44H625.75Z"/><path class="cls-2" d="M519.18,170.79H432.45V141.44h86.73Zm-85.73-1h84.73V142.44H433.45Z"/><path class="cls-3" d="M457.26,155.24H460V156h-2.71v3.12h-.87v-6.94H460v.75h-2.71Z"/><path class="cls-3" d="M465.59,156.73a2.45,2.45,0,0,1-2.46,2.5,2.52,2.52,0,1,1,2.46-2.5Zm-4.07,0a1.62,1.62,0,0,0,1.63,1.78,1.65,1.65,0,0,0,1.63-1.78,1.64,1.64,0,1,0-3.26,0Z"/><path class="cls-3" d="M467.59,154.32v.81a1.37,1.37,0,0,1,.43-.64,1.57,1.57,0,0,1,.92-.29h.19v.8h-.22a1.23,1.23,0,0,0-1,.55,1.78,1.78,0,0,0-.28,1.14v2.43h-.79v-4.79Z"/><path class="cls-3" d="M474.1,159.11h-.79V155h-.65v-.69h.65v-.65c0-.95.49-1.51,1.32-1.51h.22v.71c-.57.06-.73.23-.75.79v.65h.75V155h-.75Z"/><path class="cls-3" d="M476.75,153a.5.5,0,1,1-.5-.52A.5.5,0,0,1,476.75,153Zm-.11,6.14h-.79v-4.79h.79Z"/><path class="cls-3" d="M479,154.32v.81a1.38,1.38,0,0,1,.44-.64,1.55,1.55,0,0,1,.92-.29h.18v.8h-.21a1.26,1.26,0,0,0-1.05.55,1.85,1.85,0,0,0-.28,1.14v2.43h-.79v-4.79Z"/><path class="cls-3" d="M482.25,154.32V155a1.49,1.49,0,0,1,1.36-.78,1.23,1.23,0,0,1,1.29.88,1.58,1.58,0,0,1,1.52-.88,1.46,1.46,0,0,1,1.22.51c.23.3.29.57.29,1.33v3.07h-.79v-2.88c0-.58,0-.72-.13-.92a1,1,0,0,0-.84-.4c-.69,0-1.08.47-1.08,1.32v2.88h-.79v-2.87a1.69,1.69,0,0,0-.16-.91.82.82,0,0,0-.78-.42c-.69,0-1.11.5-1.11,1.33v2.87h-.79v-4.79Z"/><path class="cls-3" d="M491.71,155.63v0c0-.45-.36-.73-.92-.73s-.86.27-.86.68.21.58,1.07.82a2.39,2.39,0,0,1,1.17.55,1.32,1.32,0,0,1,.38.93c0,.84-.68,1.4-1.7,1.4s-1.71-.51-1.79-1.48h.78a.88.88,0,0,0,1,.83c.54,0,.89-.28.89-.7s-.27-.63-1.09-.84c-1-.28-1.51-.72-1.51-1.44s.68-1.4,1.69-1.4a1.46,1.46,0,0,1,1.67,1.43Z"/><path class="cls-2" d="M277.88,66.15H201.15V36.8h76.73Zm-75.73-1h74.73V37.8H202.15Z"/><path class="cls-3" d="M227.88,52.65a1.13,1.13,0,0,0,1.23,1.2,1.21,1.21,0,0,0,1.34-1.17c0-.61-.32-.89-1.41-1.25a3.46,3.46,0,0,1-1.4-.7,1.7,1.7,0,0,1-.55-1.31,2.07,2.07,0,0,1,4.14,0h-.88a1.3,1.3,0,0,0-.17-.72,1.19,1.19,0,0,0-1-.49A1.11,1.11,0,0,0,228,49.36a1,1,0,0,0,.39.8,4,4,0,0,0,1.12.49,3.12,3.12,0,0,1,1.37.75,1.79,1.79,0,0,1,.47,1.22,2,2,0,0,1-2.19,2,2,2,0,0,1-1.85-.93,1.79,1.79,0,0,1-.24-.91v-.14Z"/><path class="cls-3" d="M233.36,50.38a1.76,1.76,0,0,1,1.45-.78,1.6,1.6,0,0,1,1.11.43,1.66,1.66,0,0,1,.37,1.25v3.23h-.79V51.32c0-.65-.32-1-.89-1a1.23,1.23,0,0,0-.94.43,1.25,1.25,0,0,0-.31,1v2.81h-.79V47.57h.79Z"/><path class="cls-3" d="M242.35,52.13a2.44,2.44,0,0,1-2.45,2.49,2.51,2.51,0,1,1,2.45-2.49Zm-4.07,0a1.62,1.62,0,0,0,1.64,1.77,1.64,1.64,0,0,0,1.62-1.77,1.64,1.64,0,1,0-3.26,0Z"/><path class="cls-3" d="M244.35,49.71v.88a1.86,1.86,0,0,1,1.75-1,2.26,2.26,0,0,1,2.25,2.47,2.3,2.3,0,0,1-2.25,2.55,2.23,2.23,0,0,1-1-.25,1.65,1.65,0,0,1-.7-.61v3h-.79v-7Zm0,2.48a1.58,1.58,0,0,0,1.58,1.75,1.63,1.63,0,0,0,1.58-1.84,1.88,1.88,0,0,0-.41-1.3,1.58,1.58,0,0,0-1.14-.5A1.67,1.67,0,0,0,244.35,52.19Z"/><path class="cls-2" d="M513.88,262.3H437.15V233h76.73Zm-75.73-1h74.73V234H438.15Z"/><path class="cls-3" d="M464.94,249.62a3.07,3.07,0,0,1-2.54,1.17,3.1,3.1,0,0,1-2.39-1,3.92,3.92,0,0,1-.92-2.57,3.36,3.36,0,0,1,3.32-3.6,3.43,3.43,0,0,1,1.74.47,3.76,3.76,0,0,1,.81.72l-.61.56a2.43,2.43,0,0,0-1.92-.95,2.82,2.82,0,0,0,0,5.59,2.29,2.29,0,0,0,1.88-1Z"/><path class="cls-3" d="M470.45,248.28a2.45,2.45,0,0,1-2.45,2.5,2.52,2.52,0,1,1,2.45-2.5Zm-4.07,0a1.63,1.63,0,0,0,1.64,1.78,1.64,1.64,0,0,0,1.62-1.78,1.61,1.61,0,0,0-1.61-1.79A1.63,1.63,0,0,0,466.38,248.27Z"/><path class="cls-3" d="M472.45,245.87v.68a1.63,1.63,0,0,1,1.43-.8,1.67,1.67,0,0,1,1.11.4,1.57,1.57,0,0,1,.4,1.28v3.24h-.79v-3.06a1.33,1.33,0,0,0-.17-.82.93.93,0,0,0-.75-.33,1.2,1.2,0,0,0-.92.41,1.13,1.13,0,0,0-.31.87v2.93h-.79v-4.8Z"/><path class="cls-3" d="M477.8,249.69c0,.24.07.29.36.29h.37v.69h-.74c-.56,0-.78-.22-.78-.75v-3.35h-.67v-.7H477v-1.51h.79v1.51h.73v.7h-.73Z"/><path class="cls-3" d="M483.18,245.87H484v4.8h-.79v-.93a2,2,0,0,1-1.75,1,2.3,2.3,0,0,1-2.26-2.5,2.34,2.34,0,0,1,2.28-2.53,2,2,0,0,1,1.73.91ZM480.4,247a2.16,2.16,0,0,0-.39,1.26,1.64,1.64,0,0,0,1.54,1.79,1.77,1.77,0,0,0,1.64-1.87,1.62,1.62,0,0,0-1.62-1.76A1.31,1.31,0,0,0,480.4,247Z"/><path class="cls-3" d="M489.3,250.07a2.45,2.45,0,0,1-1.77.71,2.34,2.34,0,0,1-2.35-2.5,2.42,2.42,0,0,1,4.14-1.81l-.51.51a1.77,1.77,0,0,0-1.22-.5,1.8,1.8,0,0,0,0,3.57,1.67,1.67,0,0,0,1.23-.52Z"/><path class="cls-3" d="M491.34,249.69c0,.24.07.29.36.29h.37v.69h-.74c-.56,0-.78-.22-.78-.75v-3.35h-.67v-.7h.67v-1.51h.79v1.51h.73v.7h-.73Z"/><path class="cls-2" d="M279.27,170.79H202.54V141.44h76.73Zm-75.73-1h74.73V142.44H203.54Z"/><path class="cls-3" d="M224.31,157.29a1.13,1.13,0,0,0,1.23,1.21,1.21,1.21,0,0,0,1.33-1.18c0-.6-.31-.88-1.4-1.25a3.59,3.59,0,0,1-1.41-.7,1.73,1.73,0,0,1-.54-1.31,2.07,2.07,0,0,1,4.13,0h-.87a1.3,1.3,0,0,0-.17-.72,1.19,1.19,0,0,0-1-.48,1.1,1.1,0,0,0-1.17,1.13,1,1,0,0,0,.39.8,4,4,0,0,0,1.12.49,3.12,3.12,0,0,1,1.37.75,1.79,1.79,0,0,1,.47,1.23,2,2,0,0,1-2.19,2,2,2,0,0,1-1.85-.94,1.68,1.68,0,0,1-.24-.91v-.14Z"/><path class="cls-3" d="M229.47,157a1.47,1.47,0,0,0,.31.87,1.55,1.55,0,0,0,1.29.66,1.66,1.66,0,0,0,1.43-.83l.7.27a2.35,2.35,0,0,1-2.13,1.29,2.52,2.52,0,1,1,2.4-2.58c0,.07,0,.2,0,.32Zm3.16-.59a1.46,1.46,0,0,0-.27-.82A1.65,1.65,0,0,0,231,155a1.55,1.55,0,0,0-1.29.66,1.84,1.84,0,0,0-.27.81Z"/><path class="cls-3" d="M235.41,154.35v.82a1.37,1.37,0,0,1,.43-.64,1.51,1.51,0,0,1,.92-.29H237v.8h-.22a1.23,1.23,0,0,0-1,.55,1.75,1.75,0,0,0-.28,1.14v2.43h-.79v-4.8Z"/><path class="cls-3" d="M241.86,154.35l-1.81,4.8h-.83l-1.76-4.8h.83l1.35,3.67,1.4-3.67Z"/><path class="cls-3" d="M243.6,153a.5.5,0,0,1-.51.5.51.51,0,0,1,0-1A.51.51,0,0,1,243.6,153Zm-.12,6.14h-.79v-4.8h.79Z"/><path class="cls-3" d="M248.81,158.56a2.45,2.45,0,0,1-1.77.71,2.52,2.52,0,0,1,0-5,2.37,2.37,0,0,1,1.75.72l-.51.51a1.73,1.73,0,0,0-1.22-.5,1.8,1.8,0,0,0,0,3.57,1.69,1.69,0,0,0,1.23-.52Z"/><path class="cls-3" d="M250.11,157a1.54,1.54,0,0,0,.31.87,1.57,1.57,0,0,0,1.29.66,1.66,1.66,0,0,0,1.44-.83l.7.27a2.59,2.59,0,1,1,.27-1.29c0,.07,0,.2,0,.32Zm3.17-.59a1.54,1.54,0,0,0-.28-.82,1.65,1.65,0,0,0-1.32-.65,1.55,1.55,0,0,0-1.29.66,2,2,0,0,0-.27.81Z"/><path class="cls-3" d="M257.46,155.66v0c0-.44-.36-.73-.92-.73s-.86.27-.86.69.21.57,1.07.81a2.58,2.58,0,0,1,1.17.55,1.35,1.35,0,0,1,.38.94c0,.83-.68,1.4-1.7,1.4s-1.71-.51-1.79-1.48h.78a.88.88,0,0,0,1,.83c.54,0,.89-.28.89-.71s-.27-.62-1.09-.83c-1-.28-1.51-.72-1.51-1.45s.68-1.39,1.69-1.39a1.46,1.46,0,0,1,1.67,1.42Z"/><path class="cls-3" d="M638.2,136.83a1.13,1.13,0,0,0,1.23,1.21,1.21,1.21,0,0,0,1.33-1.18c0-.6-.31-.88-1.4-1.24a3.65,3.65,0,0,1-1.41-.7,1.73,1.73,0,0,1-.54-1.31,2.07,2.07,0,0,1,4.13,0h-.87a1.27,1.27,0,0,0-.17-.72,1.2,1.2,0,0,0-1-.49,1.11,1.11,0,0,0-1.17,1.13,1,1,0,0,0,.39.81,4.35,4.35,0,0,0,1.12.49,3.19,3.19,0,0,1,1.37.74,1.81,1.81,0,0,1,.47,1.23,2,2,0,0,1-2.19,2,1.94,1.94,0,0,1-1.85-.94,1.67,1.67,0,0,1-.24-.9v-.15Z"/><path class="cls-3" d="M643.35,136.55a1.55,1.55,0,0,0,.32.88,1.57,1.57,0,0,0,1.29.65,1.65,1.65,0,0,0,1.43-.82l.7.26a2.36,2.36,0,0,1-2.13,1.29,2.52,2.52,0,1,1,2.4-2.57c0,.06,0,.2,0,.31Zm3.17-.58a1.43,1.43,0,0,0-.27-.82,1.63,1.63,0,0,0-1.32-.66,1.53,1.53,0,0,0-1.29.67,1.92,1.92,0,0,0-.28.81Z"/><path class="cls-3" d="M649.3,133.9v.67a1.63,1.63,0,0,1,1.42-.79,1.7,1.7,0,0,1,1.12.4,1.56,1.56,0,0,1,.4,1.28v3.24h-.79v-3.06a1.3,1.3,0,0,0-.18-.83.93.93,0,0,0-.75-.32,1.19,1.19,0,0,0-.91.41,1.13,1.13,0,0,0-.31.87v2.93h-.8v-4.8Z"/><path class="cls-3" d="M657.39,131.75h.79v6.95h-.79v-.83a1.93,1.93,0,0,1-1.71.94,2.28,2.28,0,0,1-2.26-2.49,2.35,2.35,0,0,1,2.26-2.54,2,2,0,0,1,1.71.85Zm-3.14,4.58a1.61,1.61,0,0,0,1.54,1.79,1.66,1.66,0,0,0,1.6-1.81,1.62,1.62,0,0,0-1.55-1.82A1.65,1.65,0,0,0,654.25,136.33Z"/><path class="cls-3" d="M662.9,138.7v-6.95h.79v6.95Z"/><path class="cls-3" d="M669.78,136.31a2.45,2.45,0,0,1-2.46,2.5,2.52,2.52,0,1,1,2.46-2.5Zm-4.07,0a1.62,1.62,0,0,0,1.63,1.78A1.65,1.65,0,0,0,669,136.3a1.64,1.64,0,1,0-3.26,0Z"/><path class="cls-3" d="M674.55,133.9h.79v4.83a2.24,2.24,0,0,1-.63,1.76,2.5,2.5,0,0,1-1.77.63,2.71,2.71,0,0,1-2.12-.87l.54-.54a2.81,2.81,0,0,0,.46.41,2.26,2.26,0,0,0,1.12.28,1.71,1.71,0,0,0,1.25-.47,1.62,1.62,0,0,0,.36-1.14v-1a2,2,0,0,1-1.77,1,2.31,2.31,0,0,1-2.21-2.5,2.72,2.72,0,0,1,.76-2,2.08,2.08,0,0,1,1.52-.57,1.91,1.91,0,0,1,1.7.94Zm-3.15,2.38a1.65,1.65,0,0,0,1.57,1.8,1.63,1.63,0,0,0,1.22-.58,1.94,1.94,0,0,0,.34-1.19,1.68,1.68,0,0,0-.37-1.27,1.64,1.64,0,0,0-1.17-.53A1.62,1.62,0,0,0,671.4,136.28Z"/><path class="cls-3" d="M681.39,136.31a2.45,2.45,0,0,1-2.45,2.5,2.52,2.52,0,1,1,2.45-2.5Zm-4.07,0a1.63,1.63,0,0,0,1.64,1.78,1.64,1.64,0,0,0,1.62-1.78,1.64,1.64,0,1,0-3.26,0Z"/><path class="cls-3" d="M689.39,133.9l-1.81,4.8h-.83L685,133.9h.83l1.36,3.66,1.39-3.66Z"/><path class="cls-3" d="M691.13,132.56a.5.5,0,0,1-.51.5.51.51,0,1,1,.51-.5ZM691,138.7h-.79v-4.8H691Z"/><path class="cls-3" d="M696.23,133.9H697v4.8h-.79v-.93a2,2,0,0,1-1.75,1,2.29,2.29,0,0,1-2.25-2.5,2.33,2.33,0,0,1,2.27-2.53,2,2,0,0,1,1.73.91Zm-2.78,1.16a2.2,2.2,0,0,0-.39,1.27,1.64,1.64,0,0,0,1.54,1.79,1.77,1.77,0,0,0,1.64-1.87,1.62,1.62,0,0,0-1.62-1.76A1.32,1.32,0,0,0,693.45,135.06Z"/><path class="cls-3" d="M702.19,136.55a1.55,1.55,0,0,0,.32.88,1.57,1.57,0,0,0,1.29.65,1.65,1.65,0,0,0,1.43-.82l.7.26a2.36,2.36,0,0,1-2.13,1.29,2.52,2.52,0,1,1,2.4-2.57c0,.06,0,.2,0,.31Zm3.17-.58a1.51,1.51,0,0,0-.27-.82,1.63,1.63,0,0,0-1.32-.66,1.53,1.53,0,0,0-1.29.67,1.92,1.92,0,0,0-.28.81Z"/><path class="cls-3" d="M708.14,133.9v.66a1.49,1.49,0,0,1,1.36-.78,1.23,1.23,0,0,1,1.29.88,1.56,1.56,0,0,1,1.52-.88,1.46,1.46,0,0,1,1.22.51,1.93,1.93,0,0,1,.29,1.34v3.07H713v-2.89c0-.58,0-.71-.14-.91a.93.93,0,0,0-.83-.41c-.7,0-1.08.47-1.08,1.32v2.89h-.79v-2.88a1.71,1.71,0,0,0-.16-.91.83.83,0,0,0-.78-.42c-.7,0-1.11.5-1.11,1.33v2.88h-.79v-4.8Z"/><path class="cls-3" d="M719,133.9h.79v4.8H719v-.93a2,2,0,0,1-1.75,1,2.29,2.29,0,0,1-2.25-2.5,2.33,2.33,0,0,1,2.27-2.53,2,2,0,0,1,1.73.91Zm-2.78,1.16a2.2,2.2,0,0,0-.39,1.27,1.64,1.64,0,0,0,1.54,1.79,1.77,1.77,0,0,0,1.64-1.87,1.62,1.62,0,0,0-1.62-1.76A1.32,1.32,0,0,0,716.22,135.06Z"/><path class="cls-3" d="M722.29,132.56a.5.5,0,0,1-.51.5.51.51,0,1,1,.51-.5Zm-.12,6.14h-.79v-4.8h.79Z"/><path class="cls-3" d="M723.77,138.7v-6.95h.79v6.95Z"/><path class="cls-2" d="M738.33,192.24H624.75V162.9H738.33Zm-112.58-1H737.33V163.9H625.75Z"/><path class="cls-3" d="M638.2,178.29a1.13,1.13,0,0,0,1.23,1.21,1.21,1.21,0,0,0,1.33-1.18c0-.6-.31-.88-1.4-1.25a3.52,3.52,0,0,1-1.41-.7,1.73,1.73,0,0,1-.54-1.31,2.07,2.07,0,0,1,4.13,0h-.87a1.3,1.3,0,0,0-.17-.72,1.21,1.21,0,0,0-1-.48A1.1,1.1,0,0,0,638.3,175a1,1,0,0,0,.39.8,4,4,0,0,0,1.11.49,3.17,3.17,0,0,1,1.38.75,1.79,1.79,0,0,1,.47,1.23,2,2,0,0,1-2.19,2,2,2,0,0,1-1.85-.94,1.68,1.68,0,0,1-.24-.91v-.14Z"/><path class="cls-3" d="M646.46,175.35v3.07a1.62,1.62,0,0,1-.48,1.35,2.08,2.08,0,0,1-1.39.5,2,2,0,0,1-1.38-.51,1.79,1.79,0,0,1-.48-1.34v-3.07h.79v3.05a1.07,1.07,0,0,0,1.07,1.16,1.14,1.14,0,0,0,.86-.37,1.08,1.08,0,0,0,.2-.77v-3.07Z"/><path class="cls-3" d="M648.7,180.15h-.79v-6.94h.79v3a2,2,0,0,1,1.69-.94,2.31,2.31,0,0,1,2.28,2.53,2.28,2.28,0,0,1-2.24,2.5,2,2,0,0,1-1.73-.94Zm0-2.39a1.59,1.59,0,1,0,3.15,0,1.59,1.59,0,1,0-3.15,0Z"/><path class="cls-3" d="M654.67,175.35V176a1.49,1.49,0,0,1,1.36-.78,1.24,1.24,0,0,1,1.29.87,1.57,1.57,0,0,1,1.52-.87,1.46,1.46,0,0,1,1.22.51c.23.3.29.57.29,1.33v3.07h-.79v-2.88c0-.58,0-.72-.14-.92a.93.93,0,0,0-.83-.4c-.7,0-1.08.47-1.08,1.32v2.88h-.79v-2.87a1.86,1.86,0,0,0-.16-.92.83.83,0,0,0-.78-.41c-.7,0-1.11.5-1.11,1.33v2.87h-.79v-4.8Z"/><path class="cls-3" d="M662.81,174a.51.51,0,1,1-.5-.52A.5.5,0,0,1,662.81,174Zm-.11,6.14h-.79v-4.8h.79Z"/><path class="cls-3" d="M665.14,179.17c0,.24.07.29.36.29h.36v.69h-.73c-.57,0-.79-.22-.79-.75v-3.35h-.66v-.7h.66v-1.51h.8v1.51h.72v.7h-.72Z"/><path class="cls-3" d="M671,180.15h-.79v-4.1h-.65v-.7h.65v-.64c0-1,.49-1.51,1.32-1.51h.22v.71c-.57.06-.73.23-.75.79v.64h.75v.7H671Z"/><path class="cls-3" d="M677.18,177.77a2.46,2.46,0,0,1-2.46,2.5,2.52,2.52,0,1,1,2.46-2.5Zm-4.07,0a1.62,1.62,0,0,0,1.63,1.78,1.64,1.64,0,0,0,1.62-1.78,1.63,1.63,0,1,0-3.25,0Z"/><path class="cls-3" d="M679.17,175.35v.82a1.38,1.38,0,0,1,.44-.64,1.49,1.49,0,0,1,.92-.29h.18v.8h-.21a1.25,1.25,0,0,0-1,.55,1.83,1.83,0,0,0-.28,1.14v2.43h-.79v-4.8Z"/><path class="cls-3" d="M682.4,175.35V176a1.49,1.49,0,0,1,1.36-.78,1.23,1.23,0,0,1,1.29.87,1.59,1.59,0,0,1,1.52-.87,1.44,1.44,0,0,1,1.22.51c.23.3.29.57.29,1.33v3.07h-.79v-2.88c0-.58,0-.72-.13-.92a.94.94,0,0,0-.84-.4c-.69,0-1.08.47-1.08,1.32v2.88h-.79v-2.87a1.75,1.75,0,0,0-.16-.92.81.81,0,0,0-.78-.41c-.69,0-1.11.5-1.11,1.33v2.87h-.79v-4.8Z"/><path class="cls-3" d="M699.11,175.35l-1.7,4.8h-.72l-1.1-3.64-1.16,3.64h-.75l-1.64-4.8h.81l1.23,3.53,1.1-3.53H696l1.08,3.53,1.26-3.53Z"/><path class="cls-3" d="M699.4,182.4h-.67l3.48-9.19h.68Z"/><path class="cls-3" d="M707.2,180.15v-6.94H708v6.94Z"/><path class="cls-3" d="M714.08,177.77a2.45,2.45,0,0,1-2.46,2.5,2.52,2.52,0,1,1,2.46-2.5Zm-4.07,0a1.62,1.62,0,0,0,1.63,1.78,1.65,1.65,0,0,0,1.63-1.78,1.64,1.64,0,1,0-3.26,0Z"/><path class="cls-3" d="M718.86,175.35h.79v4.83a2.23,2.23,0,0,1-.64,1.76,2.45,2.45,0,0,1-1.77.64,2.68,2.68,0,0,1-2.12-.88l.54-.54a3,3,0,0,0,.46.42,2.41,2.41,0,0,0,1.12.28,1.75,1.75,0,0,0,1.25-.47,1.64,1.64,0,0,0,.37-1.14v-1a2,2,0,0,1-1.77,1,2.32,2.32,0,0,1-2.22-2.5,2.76,2.76,0,0,1,.76-2,2.11,2.11,0,0,1,1.52-.56,1.93,1.93,0,0,1,1.71.94Zm-3.16,2.39a1.65,1.65,0,0,0,1.57,1.8,1.63,1.63,0,0,0,1.22-.58,2,2,0,0,0,.34-1.19,1.67,1.67,0,0,0-.37-1.27,1.64,1.64,0,0,0-1.17-.53A1.62,1.62,0,0,0,715.7,177.74Z"/><path class="cls-3" d="M725.69,177.77a2.45,2.45,0,0,1-2.45,2.5,2.52,2.52,0,1,1,2.45-2.5Zm-4.07,0a1.64,1.64,0,1,0,1.65-1.79A1.63,1.63,0,0,0,721.62,177.76Z"/><rect class="cls-1" x="820.95" y="142.66" width="75.75" height="31.48" rx="15.74"/><path class="cls-3" d="M837.57,156.64v.88a1.86,1.86,0,0,1,1.75-1,2.27,2.27,0,0,1,2.26,2.47,2.31,2.31,0,0,1-2.26,2.55,2.23,2.23,0,0,1-1.05-.25,1.65,1.65,0,0,1-.7-.61v3h-.79v-7.05Zm0,2.48a1.58,1.58,0,0,0,1.58,1.75,1.63,1.63,0,0,0,1.58-1.84,1.88,1.88,0,0,0-.41-1.3,1.57,1.57,0,0,0-1.14-.5A1.67,1.67,0,0,0,837.57,159.12Z"/><path class="cls-3" d="M847.27,159.06a2.45,2.45,0,0,1-2.46,2.49,2.51,2.51,0,1,1,2.46-2.49Zm-4.07,0a1.61,1.61,0,0,0,1.63,1.78,1.64,1.64,0,0,0,1.63-1.78,1.64,1.64,0,1,0-3.26,0Z"/><path class="cls-3" d="M852.07,156.64v3.07a1.59,1.59,0,0,1-.48,1.34,2,2,0,0,1-1.39.5,2,2,0,0,1-1.38-.51,1.76,1.76,0,0,1-.48-1.33v-3.07h.79v3.05a1.07,1.07,0,0,0,1.07,1.16,1.14,1.14,0,0,0,.86-.37,1.09,1.09,0,0,0,.2-.77v-3.07Z"/><path class="cls-3" d="M854.31,156.64v.81a1.34,1.34,0,0,1,.44-.63,1.49,1.49,0,0,1,.92-.29h.18v.8h-.22a1.25,1.25,0,0,0-1,.55,1.8,1.8,0,0,0-.28,1.13v2.44h-.79v-4.8Z"/><path class="cls-3" d="M860.38,160.85a2.48,2.48,0,0,1-1.77.7,2.33,2.33,0,0,1-2.35-2.49,2.42,2.42,0,0,1,4.14-1.81l-.51.5a1.77,1.77,0,0,0-1.22-.5,1.8,1.8,0,0,0,0,3.57,1.65,1.65,0,0,0,1.23-.52Z"/><path class="cls-3" d="M862.08,157.31a1.75,1.75,0,0,1,1.44-.78,1.61,1.61,0,0,1,1.12.43,1.66,1.66,0,0,1,.37,1.25v3.23h-.79v-3.19c0-.65-.32-1-.89-1a1.23,1.23,0,0,0-.94.43,1.25,1.25,0,0,0-.31,1v2.81h-.79V154.5h.79Z"/><path class="cls-3" d="M870.19,156.64h.8v4.8h-.8v-.93a2,2,0,0,1-1.74,1,2.29,2.29,0,0,1-2.26-2.49,2.33,2.33,0,0,1,2.28-2.53,2,2,0,0,1,1.72.9Zm-2.77,1.17a2.18,2.18,0,0,0-.4,1.27,1.65,1.65,0,0,0,1.54,1.79,1.78,1.78,0,0,0,1.65-1.88,1.62,1.62,0,0,0-1.63-1.76A1.29,1.29,0,0,0,867.42,157.81Z"/><path class="cls-3" d="M874.78,158v0c0-.45-.36-.73-.91-.73s-.87.27-.87.69.21.57,1.08.81a2.49,2.49,0,0,1,1.16.55,1.34,1.34,0,0,1,.39.94c0,.83-.69,1.39-1.71,1.39s-1.71-.51-1.79-1.47h.78a.89.89,0,0,0,1,.83c.54,0,.9-.28.9-.71s-.27-.62-1.1-.83c-1-.28-1.51-.72-1.51-1.45s.68-1.39,1.69-1.39a1.47,1.47,0,0,1,1.68,1.42Z"/><path class="cls-3" d="M877.3,159.29a1.54,1.54,0,0,0,.31.88,1.56,1.56,0,0,0,1.3.65,1.65,1.65,0,0,0,1.43-.82l.7.26a2.43,2.43,0,0,1-4.58-1.2,2.43,2.43,0,1,1,4.85-.08c0,.06,0,.2,0,.31Zm3.17-.58a1.63,1.63,0,0,0-.27-.82,1.67,1.67,0,0,0-1.33-.66,1.53,1.53,0,0,0-1.29.67,2.13,2.13,0,0,0-.27.81Z"/><rect class="cls-3" x="75.76" y="155.74" width="52.42" height="0.75"/><polygon class="cls-3" points="127.08 159.85 133.56 156.11 127.08 152.38 127.08 159.85"/><polygon class="cls-3" points="548.48 156.47 518.68 156.36 518.68 155.61 548.48 155.72 548.48 156.47"/><polygon class="cls-3" points="547.38 159.83 553.87 156.11 547.4 152.35 547.38 159.83"/><rect class="cls-3" x="278.77" y="155.61" width="146.15" height="0.75"/><polygon class="cls-3" points="423.83 159.72 430.3 155.98 423.83 152.24 423.83 159.72"/><rect class="cls-3" x="278.77" y="51.1" width="32.06" height="0.75"/><polygon class="cls-3" points="309.74 55.21 316.21 51.47 309.74 47.73 309.74 55.21"/><path class="cls-3" d="M12.34,159.15h-.87v-6.94h.87v3.12h3.38v-3.12h.88v6.94h-.88v-3.07H12.34Z"/><path class="cls-3" d="M22.75,156.77a2.45,2.45,0,0,1-2.46,2.5,2.52,2.52,0,1,1,2.46-2.5Zm-4.07,0a1.62,1.62,0,0,0,1.63,1.78,1.65,1.65,0,0,0,1.63-1.78,1.64,1.64,0,1,0-3.26,0Z"/><path class="cls-3" d="M24.75,154.35V155a1.49,1.49,0,0,1,1.36-.78,1.24,1.24,0,0,1,1.29.87,1.57,1.57,0,0,1,1.52-.87,1.46,1.46,0,0,1,1.22.51c.23.3.29.57.29,1.33v3.07h-.79v-2.88c0-.58,0-.72-.14-.92a.92.92,0,0,0-.83-.4c-.7,0-1.08.47-1.08,1.32v2.88H26.8v-2.87a1.86,1.86,0,0,0-.16-.92.83.83,0,0,0-.78-.41c-.7,0-1.11.5-1.11,1.33v2.87H24v-4.8Z"/><path class="cls-3" d="M32.45,157a1.47,1.47,0,0,0,.31.87,1.55,1.55,0,0,0,1.29.66,1.68,1.68,0,0,0,1.44-.83l.69.27a2.34,2.34,0,0,1-2.13,1.29,2.52,2.52,0,1,1,2.4-2.58c0,.07,0,.2,0,.32Zm3.16-.59a1.46,1.46,0,0,0-.27-.82A1.65,1.65,0,0,0,34,155a1.55,1.55,0,0,0-1.29.66,1.84,1.84,0,0,0-.27.81Z"/><path class="cls-3" d="M41.51,154.35v.88a1.86,1.86,0,0,1,1.75-1,2.27,2.27,0,0,1,2.26,2.48,2.31,2.31,0,0,1-2.26,2.55,2.39,2.39,0,0,1-1-.25,1.74,1.74,0,0,1-.7-.62v3h-.79v-7.05Zm0,2.48a1.58,1.58,0,0,0,1.58,1.75,1.63,1.63,0,0,0,1.59-1.83,1.86,1.86,0,0,0-.42-1.3,1.52,1.52,0,0,0-1.13-.5A1.68,1.68,0,0,0,41.51,156.83Z"/><path class="cls-3" d="M50.34,154.35h.79v4.8h-.79v-.93a2,2,0,0,1-1.75,1.05,2.3,2.3,0,0,1-2.26-2.5,2.33,2.33,0,0,1,2.28-2.53,2,2,0,0,1,1.73.9Zm-2.78,1.17a2.18,2.18,0,0,0-.4,1.27,1.65,1.65,0,0,0,1.54,1.79,1.77,1.77,0,0,0,1.65-1.87A1.62,1.62,0,0,0,48.72,155,1.28,1.28,0,0,0,47.56,155.52Z"/><path class="cls-3" d="M56.26,154.35h.79v4.83a2.27,2.27,0,0,1-.63,1.76,2.48,2.48,0,0,1-1.77.64,2.72,2.72,0,0,1-2.13-.88l.54-.54a3.54,3.54,0,0,0,.46.42,2.42,2.42,0,0,0,1.13.28,1.72,1.72,0,0,0,1.24-.47,1.65,1.65,0,0,0,.37-1.15v-1a2,2,0,0,1-1.77,1,2.32,2.32,0,0,1-2.22-2.5,2.76,2.76,0,0,1,.76-2,2.14,2.14,0,0,1,1.52-.56,1.93,1.93,0,0,1,1.71.94Zm-3.15,2.39a1.65,1.65,0,0,0,1.57,1.8,1.59,1.59,0,0,0,1.21-.59,1.9,1.9,0,0,0,.35-1.18,1.67,1.67,0,0,0-.38-1.27A1.64,1.64,0,0,0,54.7,155,1.61,1.61,0,0,0,53.11,156.74Z"/><path class="cls-3" d="M59.06,157a1.47,1.47,0,0,0,.31.87,1.55,1.55,0,0,0,1.29.66,1.68,1.68,0,0,0,1.44-.83l.69.27a2.34,2.34,0,0,1-2.13,1.29,2.52,2.52,0,1,1,2.41-2.58,2,2,0,0,1,0,.32Zm3.16-.59a1.46,1.46,0,0,0-.27-.82,1.65,1.65,0,0,0-1.32-.65,1.55,1.55,0,0,0-1.29.66,1.84,1.84,0,0,0-.27.81Z"/><polygon class="cls-3" points="154.14 136.37 153.39 136.37 153.39 48.59 196.27 48.59 196.27 49.34 154.14 49.34 154.14 136.37"/><polygon class="cls-3" points="195.18 52.7 201.65 48.97 195.18 45.23 195.18 52.7"/><rect class="cls-3" x="173.51" y="155.74" width="22.76" height="0.75"/><polygon class="cls-3" points="195.18 159.85 201.65 156.11 195.18 152.38 195.18 159.85"/><rect class="cls-4" x="139.81" y="142.16" width="27.92" height="27.92" transform="translate(-65.35 154.45) rotate(-45)"/><rect class="cls-5" x="139.81" y="142.16" width="27.92" height="27.92" transform="translate(-65.35 154.45) rotate(-45)"/><rect class="cls-4" x="559.65" y="142.16" width="27.92" height="27.92" transform="translate(57.62 451.33) rotate(-45)"/><rect class="cls-5" x="559.65" y="142.16" width="27.92" height="27.92" transform="translate(57.62 451.33) rotate(-45)"/><path class="cls-3" d="M565.46,158.29a3.63,3.63,0,0,1-1.42.25,2.52,2.52,0,0,1-2.67-2.72,2.68,2.68,0,0,1,2.82-2.83,2.86,2.86,0,0,1,1.28.24l-.17.56a2.65,2.65,0,0,0-1.09-.22,2,2,0,0,0-2.1,2.22,2,2,0,0,0,2.07,2.17,2.75,2.75,0,0,0,1.14-.23Z"/><path class="cls-3" d="M566.31,152.79h.7v2.41h0a1.33,1.33,0,0,1,.5-.5,1.47,1.47,0,0,1,.72-.2c.52,0,1.35.32,1.35,1.66v2.3h-.7v-2.22c0-.62-.23-1.15-.9-1.15a1,1,0,0,0-.94.7.87.87,0,0,0,0,.34v2.33h-.7Z"/><path class="cls-3" d="M574.25,156.5a1.89,1.89,0,0,1-1.92,2.05,1.84,1.84,0,0,1-1.86-2,1.89,1.89,0,0,1,1.92-2.06A1.84,1.84,0,0,1,574.25,156.5Zm-3.07,0c0,.84.49,1.48,1.18,1.48s1.17-.63,1.17-1.5c0-.66-.33-1.49-1.16-1.49S571.18,155.8,571.18,156.54Z"/><path class="cls-3" d="M578.64,156.5a1.89,1.89,0,0,1-1.92,2.05,1.84,1.84,0,0,1-1.86-2,1.89,1.89,0,0,1,1.92-2.06A1.84,1.84,0,0,1,578.64,156.5Zm-3.07,0c0,.84.49,1.48,1.18,1.48s1.17-.63,1.17-1.5c0-.66-.32-1.49-1.16-1.49S575.57,155.8,575.57,156.54Z"/><path class="cls-3" d="M579.44,157.74a1.8,1.8,0,0,0,.93.28c.51,0,.75-.25.75-.57s-.2-.52-.72-.71c-.7-.25-1-.64-1-1.1a1.2,1.2,0,0,1,1.34-1.14,2,2,0,0,1,.95.24l-.18.52a1.45,1.45,0,0,0-.79-.23c-.41,0-.64.24-.64.53s.23.46.73.66c.67.25,1,.59,1,1.16s-.53,1.16-1.45,1.16a2.22,2.22,0,0,1-1.09-.26Z"/><path class="cls-3" d="M583.09,156.66a1.24,1.24,0,0,0,1.33,1.34,2.57,2.57,0,0,0,1.07-.2l.12.5a3.16,3.16,0,0,1-1.28.24,1.8,1.8,0,0,1-1.91-1.95,1.88,1.88,0,0,1,1.82-2.09,1.65,1.65,0,0,1,1.6,1.83,2.34,2.34,0,0,1,0,.33Zm2.07-.51a1,1,0,0,0-1-1.14,1.17,1.17,0,0,0-1.08,1.14Z"/><path class="cls-4" d="M367.59,103,316.12,51.47,367.59,0l51.48,51.47ZM317.53,51.47l50.06,50.06,50.06-50.06L367.59,1.41Z"/><path class="cls-5" d="M367.59,103,316.12,51.47,367.59,0l51.48,51.47ZM317.53,51.47l50.06,50.06,50.06-50.06L367.59,1.41Z"/><path class="cls-3" d="M343.36,36.72a12.46,12.46,0,0,1,1.85-.14,3.86,3.86,0,0,1,2.73.84,3.1,3.1,0,0,1,.95,2.42,3.56,3.56,0,0,1-1,2.62,4.15,4.15,0,0,1-3,1,14,14,0,0,1-1.58-.08Zm.87,6a5.49,5.49,0,0,0,.88,0A2.59,2.59,0,0,0,348,39.87a2.4,2.4,0,0,0-2.73-2.6,4.94,4.94,0,0,0-1,.09Z"/><path class="cls-3" d="M354.41,40.91A2.37,2.37,0,0,1,352,43.48,2.3,2.3,0,0,1,349.68,41a2.36,2.36,0,0,1,2.4-2.57A2.29,2.29,0,0,1,354.41,40.91Zm-3.84.05c0,1.06.61,1.86,1.47,1.86s1.46-.79,1.46-1.88c0-.82-.41-1.86-1.44-1.86S350.57,40,350.57,41Z"/><path class="cls-3" d="M358,38.53,359,41.39c.11.32.23.7.31,1h0c.09-.29.19-.66.31-1l1-2.84h.93L360.22,42a7.37,7.37,0,0,1-1.66,3,2.41,2.41,0,0,1-1.07.57l-.23-.74a2.23,2.23,0,0,0,.77-.43,2.67,2.67,0,0,0,.74-1,.63.63,0,0,0,.07-.21.77.77,0,0,0-.06-.23L357,38.53Z"/><path class="cls-3" d="M366.62,40.91a2.37,2.37,0,0,1-2.41,2.57A2.3,2.3,0,0,1,361.89,41a2.36,2.36,0,0,1,2.4-2.57A2.29,2.29,0,0,1,366.62,40.91Zm-3.84.05c0,1.06.61,1.86,1.47,1.86s1.47-.79,1.47-1.88c0-.82-.41-1.86-1.45-1.86S362.78,40,362.78,41Z"/><path class="cls-3" d="M371.78,42.05c0,.5,0,.94,0,1.32H371l-.05-.79h0a1.82,1.82,0,0,1-1.6.9c-.76,0-1.67-.42-1.67-2.12V38.53h.88v2.68c0,.92.28,1.54,1.08,1.54a1.27,1.27,0,0,0,1.16-.8,1.29,1.29,0,0,0,.08-.45v-3h.88Z"/><path class="cls-3" d="M375.71,38.53l.64,2.46c.14.54.27,1,.36,1.54h0c.11-.49.27-1,.43-1.53l.79-2.47h.73l.75,2.42c.18.58.32,1.09.43,1.58h0a14.37,14.37,0,0,1,.36-1.57l.69-2.43h.87l-1.56,4.84h-.79l-.74-2.31a13.77,13.77,0,0,1-.43-1.59h0a14.31,14.31,0,0,1-.45,1.6l-.77,2.3h-.8l-1.46-4.84Z"/><path class="cls-3" d="M382.71,39.84c0-.5,0-.91,0-1.31h.78l.05.8h0a1.78,1.78,0,0,1,1.6-.91c.67,0,1.71.4,1.71,2.06v2.89H386V40.58c0-.78-.29-1.43-1.12-1.43a1.25,1.25,0,0,0-1.18.9,1.27,1.27,0,0,0-.06.41v2.91h-.88Z"/><path class="cls-3" d="M390.94,43.37l-.07-.61h0a1.8,1.8,0,0,1-1.48.72,1.38,1.38,0,0,1-1.48-1.39c0-1.17,1-1.81,2.91-1.8v-.1a1,1,0,0,0-1.1-1.12,2.41,2.41,0,0,0-1.26.36l-.2-.58a3,3,0,0,1,1.59-.43c1.48,0,1.84,1,1.84,2v1.81a6.81,6.81,0,0,0,.08,1.16Zm-.13-2.47c-1,0-2.05.15-2.05,1.09a.78.78,0,0,0,.83.84,1.2,1.2,0,0,0,1.17-.81.92.92,0,0,0,.05-.28Z"/><path class="cls-3" d="M394.1,37.14v1.39h1.26v.67H394.1v2.61c0,.6.17.94.66.94a2,2,0,0,0,.51-.06l0,.66a2.15,2.15,0,0,1-.78.12,1.22,1.22,0,0,1-.95-.37,1.79,1.79,0,0,1-.34-1.26V39.2h-.75v-.67h.75V37.37Z"/><path class="cls-3" d="M343.65,50.53l1.06,2.86c.11.32.23.7.31,1h0c.09-.29.19-.66.31-1l1-2.84h.93L345.92,54a7.38,7.38,0,0,1-1.66,3,2.38,2.38,0,0,1-1.08.57l-.22-.74a2.33,2.33,0,0,0,.77-.43,2.67,2.67,0,0,0,.74-1,.63.63,0,0,0,.07-.21.85.85,0,0,0-.06-.23l-1.79-4.45Z"/><path class="cls-3" d="M352.32,52.91a2.36,2.36,0,0,1-2.41,2.56A2.29,2.29,0,0,1,347.59,53a2.36,2.36,0,0,1,2.4-2.57A2.29,2.29,0,0,1,352.32,52.91Zm-3.84.05c0,1.06.61,1.85,1.47,1.85s1.47-.78,1.47-1.87c0-.82-.41-1.86-1.45-1.86S348.48,52,348.48,53Z"/><path class="cls-3" d="M357.47,54.05c0,.5,0,.93,0,1.31h-.77l-.06-.78h0a1.86,1.86,0,0,1-1.6.89c-.76,0-1.67-.42-1.67-2.11V50.53h.88v2.68c0,.92.28,1.54,1.07,1.54a1.27,1.27,0,0,0,1.16-.8,1.09,1.09,0,0,0,.08-.45v-3h.88Z"/><path class="cls-3" d="M358.93,52c0-.57,0-1.06,0-1.51h.77l0,.95h0a1.45,1.45,0,0,1,1.34-1.06,1,1,0,0,1,.25,0v.83a1.32,1.32,0,0,0-.3,0,1.23,1.23,0,0,0-1.18,1.13,2.48,2.48,0,0,0,0,.41v2.57h-.87Z"/><path class="cls-3" d="M364.32,48.27h.88v7.09h-.88Z"/><path class="cls-3" d="M371.06,52.91a2.36,2.36,0,0,1-2.41,2.56A2.29,2.29,0,0,1,366.33,53a2.36,2.36,0,0,1,2.4-2.57A2.29,2.29,0,0,1,371.06,52.91Zm-3.84.05c0,1.06.61,1.85,1.47,1.85s1.47-.78,1.47-1.87c0-.82-.41-1.86-1.45-1.86S367.22,52,367.22,53Z"/><path class="cls-3" d="M376.34,50.53c0,.35,0,.74,0,1.33v2.81a2.77,2.77,0,0,1-.69,2.2,2.57,2.57,0,0,1-1.76.58,3.12,3.12,0,0,1-1.61-.4l.22-.67a2.73,2.73,0,0,0,1.42.38c.9,0,1.56-.47,1.56-1.69v-.53h0a1.74,1.74,0,0,1-1.54.8A2.15,2.15,0,0,1,371.82,53,2.32,2.32,0,0,1,374,50.42a1.61,1.61,0,0,1,1.51.84h0l0-.73Zm-.91,1.91a1.25,1.25,0,0,0-.05-.4,1.27,1.27,0,0,0-1.23-.93c-.84,0-1.44.71-1.44,1.83,0,1,.48,1.74,1.43,1.74a1.29,1.29,0,0,0,1.22-.9,1.53,1.53,0,0,0,.07-.47Z"/><path class="cls-3" d="M382.13,52.91a2.35,2.35,0,0,1-2.4,2.56A2.29,2.29,0,0,1,377.41,53a2.36,2.36,0,0,1,2.4-2.57A2.29,2.29,0,0,1,382.13,52.91ZM378.3,53c0,1.06.61,1.85,1.46,1.85s1.48-.78,1.48-1.87c0-.82-.41-1.86-1.45-1.86S378.3,52,378.3,53Z"/><path class="cls-3" d="M389.74,52.91a2.36,2.36,0,0,1-2.41,2.56A2.29,2.29,0,0,1,385,53a2.36,2.36,0,0,1,2.4-2.57A2.29,2.29,0,0,1,389.74,52.91ZM385.9,53c0,1.06.61,1.85,1.47,1.85s1.47-.78,1.47-1.87c0-.82-.41-1.86-1.45-1.86S385.9,52,385.9,53Z"/><path class="cls-3" d="M390.85,51.84c0-.5,0-.91,0-1.31h.78l.05.8h0a1.78,1.78,0,0,1,1.6-.91c.67,0,1.71.4,1.71,2.06v2.88h-.88V52.58c0-.78-.29-1.43-1.12-1.43a1.25,1.25,0,0,0-1.18.9,1.27,1.27,0,0,0-.06.41v2.9h-.88Z"/><path class="cls-3" d="M344.39,61.13v1.39h1.26v.67h-1.26V65.8c0,.6.17.94.66.94a2,2,0,0,0,.51-.06l0,.66a2.15,2.15,0,0,1-.78.12,1.22,1.22,0,0,1-.95-.37,1.79,1.79,0,0,1-.34-1.26V63.19h-.75v-.67h.75V61.36Z"/><path class="cls-3" d="M346.64,60.26h.88v3h0a1.63,1.63,0,0,1,.63-.62,1.81,1.81,0,0,1,.9-.25c.65,0,1.69.4,1.69,2.07v2.88h-.88V64.58c0-.78-.29-1.44-1.12-1.44a1.26,1.26,0,0,0-1.18.88,1.07,1.07,0,0,0-.06.42v2.92h-.88Z"/><path class="cls-3" d="M352.68,65.1a1.55,1.55,0,0,0,1.66,1.68,3.16,3.16,0,0,0,1.33-.25l.15.63a3.86,3.86,0,0,1-1.6.3A2.25,2.25,0,0,1,351.84,65a2.35,2.35,0,0,1,2.26-2.61,2.05,2.05,0,0,1,2,2.28,2.07,2.07,0,0,1,0,.41Zm2.57-.63A1.25,1.25,0,0,0,354,63a1.45,1.45,0,0,0-1.34,1.43Z"/><path class="cls-3" d="M359.31,64.1c0-.62,0-1.12,0-1.58h.79l0,.83h0a1.9,1.9,0,0,1,1.72-.94,2.19,2.19,0,0,1,2.05,2.46c0,1.74-1.06,2.6-2.2,2.6a1.7,1.7,0,0,1-1.49-.76h0v2.63h-.87Zm.87,1.29a2,2,0,0,0,0,.36,1.36,1.36,0,0,0,1.32,1c.93,0,1.47-.76,1.47-1.87s-.51-1.8-1.44-1.8a1.4,1.4,0,0,0-1.33,1.09,1.43,1.43,0,0,0-.06.36Z"/><path class="cls-3" d="M365,64c0-.57,0-1.06,0-1.51h.77l0,.95h0a1.45,1.45,0,0,1,1.34-1.06,1,1,0,0,1,.25,0v.83a1.32,1.32,0,0,0-.3,0,1.23,1.23,0,0,0-1.18,1.13,2.48,2.48,0,0,0,0,.41v2.58H365Z"/><path class="cls-3" d="M372.55,64.9a2.37,2.37,0,0,1-2.41,2.57A2.3,2.3,0,0,1,367.82,65a2.36,2.36,0,0,1,2.4-2.57A2.29,2.29,0,0,1,372.55,64.9Zm-3.84,0c0,1.06.61,1.86,1.47,1.86s1.47-.79,1.47-1.88c0-.82-.41-1.86-1.45-1.86S368.71,64,368.71,65Z"/><path class="cls-3" d="M377.84,60.26v5.85a12,12,0,0,0,0,1.25h-.79l0-.84h0a1.79,1.79,0,0,1-1.65,1A2.21,2.21,0,0,1,373.31,65a2.32,2.32,0,0,1,2.17-2.6,1.62,1.62,0,0,1,1.46.74h0V60.26ZM377,64.49a1.55,1.55,0,0,0,0-.37,1.29,1.29,0,0,0-1.27-1c-.91,0-1.45.8-1.45,1.87s.48,1.79,1.43,1.79a1.32,1.32,0,0,0,1.29-1.05,1.53,1.53,0,0,0,0-.38Z"/><path class="cls-3" d="M383.34,66c0,.5,0,.94,0,1.32h-.78l0-.79h0a1.79,1.79,0,0,1-1.59.9c-.76,0-1.67-.42-1.67-2.12V62.52h.88V65.2c0,.92.28,1.54,1.08,1.54a1.27,1.27,0,0,0,1.16-.8,1.57,1.57,0,0,0,.07-.45v-3h.88Z"/><path class="cls-3" d="M388.25,67.18a3.24,3.24,0,0,1-1.39.28A2.3,2.3,0,0,1,384.45,65a2.46,2.46,0,0,1,2.6-2.57,2.94,2.94,0,0,1,1.22.25l-.2.68a2,2,0,0,0-1-.23,1.82,1.82,0,0,0,0,3.64,2.5,2.5,0,0,0,1.08-.24Z"/><path class="cls-3" d="M390.47,61.13v1.39h1.26v.67h-1.26V65.8c0,.6.17.94.66.94a2,2,0,0,0,.51-.06l0,.66a2.15,2.15,0,0,1-.78.12,1.22,1.22,0,0,1-.95-.37,1.79,1.79,0,0,1-.34-1.26V63.19h-.75v-.67h.75V61.36Z"/><path class="cls-3" d="M393.4,65.45l0-.26a2.3,2.3,0,0,1,.62-1.73,2.2,2.2,0,0,0,.7-1.37c0-.51-.32-.85-.95-.86a1.78,1.78,0,0,0-1,.31l-.24-.63a2.62,2.62,0,0,1,1.43-.4A1.48,1.48,0,0,1,395.6,62a2.71,2.71,0,0,1-.86,1.74,2,2,0,0,0-.57,1.47v.26Zm-.22,1.4a.59.59,0,0,1,.6-.63.63.63,0,1,1-.6.63Z"/><polygon class="cls-3" points="432.27 248.01 153.39 248.01 153.39 175.85 154.14 175.85 154.14 247.26 432.27 247.26 432.27 248.01"/><polygon class="cls-3" points="431.18 243.89 437.65 247.63 431.18 251.37 431.18 243.89"/><path class="cls-3" d="M613.37,248.17H571.93c-20.34,0-34.85,0-44.35-.1-14.91-.08-14.91-.08-14.91-.59H513l.11-.36c1.82.36,78.6.35,241.11.25V156H755v92.13h-.37C694.85,248.15,648.84,248.17,613.37,248.17Z"/><rect class="cls-3" x="367.22" y="101.78" width="0.75" height="54.33"/><rect class="cls-6" x="340.6" y="115.72" width="53.98" height="28.35"/><path class="cls-2" d="M395.08,144.56h-55V115.22h55Zm-54-1h53V116.22h-53Z"/><path class="cls-3" d="M364.09,128.13H365l-2.86,7.1h-.86l1-2.45-1.71-4.65h.84l1.29,3.56Z"/><path class="cls-3" d="M366.11,130.78a1.48,1.48,0,0,0,.31.88,1.57,1.57,0,0,0,1.29.65,1.65,1.65,0,0,0,1.44-.82l.7.26a2.47,2.47,0,1,1-2.17-3.74,2.39,2.39,0,0,1,2.44,2.46c0,.06,0,.2,0,.31Zm3.16-.58a1.43,1.43,0,0,0-.27-.82,1.63,1.63,0,0,0-1.32-.66,1.53,1.53,0,0,0-1.29.67,1.92,1.92,0,0,0-.27.81Z"/><path class="cls-3" d="M373.46,129.44v-.05c0-.45-.37-.73-.92-.73s-.86.27-.86.69.21.57,1.07.81a2.44,2.44,0,0,1,1.17.55,1.38,1.38,0,0,1,.38.94c0,.83-.69,1.39-1.71,1.39a1.56,1.56,0,0,1-1.79-1.48h.78a.89.89,0,0,0,1,.83c.54,0,.9-.28.9-.7s-.27-.63-1.09-.84c-1-.28-1.51-.71-1.51-1.44s.67-1.4,1.68-1.4a1.47,1.47,0,0,1,1.68,1.43Z"/><rect class="cls-3" x="448.65" y="49.53" width="54.33" height="0.75"/><polygon class="cls-3" points="815.57 158.78 754.26 158.78 754.26 51.85 448.65 51.85 448.65 51.1 755.01 51.1 755.01 158.03 815.57 158.03 815.57 158.78"/><polygon class="cls-3" points="814.48 162.14 820.95 158.4 814.48 154.66 814.48 162.14"/><rect class="cls-3" x="418.36" y="51.1" width="24.91" height="0.75"/><polygon class="cls-3" points="442.17 55.21 448.65 51.47 442.17 47.73 442.17 55.21"/><rect class="cls-6" x="448.83" y="35.73" width="53.98" height="28.35"/><path class="cls-2" d="M503.3,64.58h-55V35.23h55Zm-54-1h53V36.23h-53Z"/><path class="cls-3" d="M471.89,48.14v.68a1.72,1.72,0,0,1,2.54-.4,1.55,1.55,0,0,1,.41,1.28v3.24h-.79V49.88a1.27,1.27,0,0,0-.18-.82.9.9,0,0,0-.75-.32,1.18,1.18,0,0,0-.91.4,1.14,1.14,0,0,0-.32.88v2.92h-.79v-4.8Z"/><path class="cls-3" d="M480.9,50.56a2.46,2.46,0,0,1-2.46,2.5,2.52,2.52,0,1,1,2.46-2.5Zm-4.07,0a1.62,1.62,0,0,0,1.63,1.78,1.64,1.64,0,0,0,1.62-1.78,1.63,1.63,0,1,0-3.25,0Z"/><rect class="cls-3" x="475.14" y="170.29" width="0.75" height="57.79"/><polygon class="cls-3" points="471.77 226.98 475.51 233.46 479.25 226.98 471.77 226.98"/><polygon class="cls-3" points="619.87 177.94 610.98 177.94 610.98 135.74 619.87 135.74 619.87 136.49 611.73 136.49 611.73 177.19 619.87 177.19 619.87 177.94"/><polygon class="cls-3" points="618.78 173.83 625.25 177.57 618.78 181.31 618.78 173.83"/><polygon class="cls-3" points="618.78 139.85 625.25 136.11 618.78 132.38 618.78 139.85"/><rect class="cls-3" x="593.35" y="155.74" width="18" height="0.75"/><rect class="cls-3" x="737.83" y="135.74" width="16.8" height="0.75"/><rect class="cls-3" x="737.83" y="177.19" width="16.8" height="0.75"/></g></g></svg>