<svg xmlns="http://www.w3.org/2000/svg" viewBox="0 0 1540.66 120.16"><defs><style>.cls-1{fill:#6ba332;}.cls-1,.cls-5{opacity:0.5;}.cls-2{fill:blue;}.cls-3{fill:#221f20;}.cls-4,.cls-5{fill:#f3524d;}</style></defs><title>flowecommerce</title><g id="Layer_2" data-name="Layer 2"><g id="Layer_1-2" data-name="Layer 1"><rect class="cls-1" x="1476.52" y="43.98" width="64.15" height="31.48" rx="15.74"/><path class="cls-2" d="M364.13,29.35h-102V0h102Zm-101-1h100V1h-100Z"/><path class="cls-3" d="M300.19,10.77c1.41,0,2.21.66,2.21,1.84a1.65,1.65,0,0,1-.39,1.13,1.45,1.45,0,0,1-.71.45,1.81,1.81,0,0,1,.79.32,1.65,1.65,0,0,1,.57,1.34,1.77,1.77,0,0,1-.75,1.51,2.93,2.93,0,0,1-1.72.35h-2V10.77Zm-1.09,3.12H300a1.71,1.71,0,0,0,1.13-.27,1.23,1.23,0,0,0,.43-1,1.09,1.09,0,0,0-.55-1,2.64,2.64,0,0,0-1.18-.16h-.72Zm0,3.11H300a2.28,2.28,0,0,0,1.31-.23,1,1,0,0,0,.5-1c0-.83-.49-1.19-1.59-1.19h-1.1Z"/><path class="cls-3" d="M304.68,12.91v.81a1.34,1.34,0,0,1,.44-.63,1.49,1.49,0,0,1,.92-.29h.18v.8H306a1.25,1.25,0,0,0-1,.55,1.8,1.8,0,0,0-.28,1.13v2.44h-.79v-4.8Z"/><path class="cls-3" d="M311.52,15.33a2.45,2.45,0,0,1-2.46,2.49,2.37,2.37,0,0,1-2.42-2.52,2.36,2.36,0,0,1,2.45-2.5A2.39,2.39,0,0,1,311.52,15.33Zm-4.07,0a1.62,1.62,0,0,0,1.63,1.77,1.64,1.64,0,0,0,1.63-1.77,1.64,1.64,0,1,0-3.26,0Z"/><path class="cls-3" d="M319,12.91l-1.7,4.8h-.72l-1.11-3.64-1.15,3.64h-.75l-1.64-4.8h.81L314,16.44l1.1-3.53h.78l1.08,3.53,1.26-3.53Z"/><path class="cls-3" d="M322,14.22v-.05c0-.45-.36-.73-.91-.73s-.87.27-.87.69.21.57,1.07.81a2.48,2.48,0,0,1,1.17.55,1.35,1.35,0,0,1,.38.94c0,.83-.68,1.39-1.7,1.39s-1.71-.51-1.79-1.47h.78a.88.88,0,0,0,1,.83c.54,0,.89-.28.89-.71s-.27-.62-1.09-.83c-1-.28-1.51-.72-1.51-1.45s.68-1.39,1.69-1.39a1.46,1.46,0,0,1,1.67,1.42Z"/><path class="cls-3" d="M324.56,15.57a1.47,1.47,0,0,0,.31.87,1.54,1.54,0,0,0,1.29.65,1.65,1.65,0,0,0,1.44-.82l.7.26a2.43,2.43,0,0,1-4.58-1.2,2.43,2.43,0,1,1,4.85-.08c0,.07,0,.2,0,.32Zm3.16-.59a1.46,1.46,0,0,0-.27-.82,1.63,1.63,0,0,0-1.32-.66,1.53,1.53,0,0,0-1.29.67,1.84,1.84,0,0,0-.27.81Z"/><path class="cls-2" d="M363.51,120.16H262.78V90.81H363.51Zm-99.73-1h98.73V91.81H263.78Z"/><path class="cls-3" d="M299.46,106.66a1.13,1.13,0,0,0,1.23,1.2,1.2,1.2,0,0,0,1.33-1.17c0-.61-.31-.89-1.4-1.25a3.59,3.59,0,0,1-1.41-.7,1.73,1.73,0,0,1-.54-1.31,2.07,2.07,0,0,1,4.13,0h-.87a1.3,1.3,0,0,0-.17-.72,1.2,1.2,0,0,0-1-.49,1.11,1.11,0,0,0-1.17,1.14,1,1,0,0,0,.39.8,4,4,0,0,0,1.12.49,3.12,3.12,0,0,1,1.37.75,1.79,1.79,0,0,1,.47,1.23,2,2,0,0,1-2.19,2,2,2,0,0,1-1.85-.93,1.68,1.68,0,0,1-.24-.91v-.14Z"/><path class="cls-3" d="M304.62,106.38a1.47,1.47,0,0,0,.31.87,1.55,1.55,0,0,0,1.29.66,1.66,1.66,0,0,0,1.43-.83l.7.26a2.35,2.35,0,0,1-2.13,1.29,2.51,2.51,0,1,1,2.4-2.57c0,.07,0,.2,0,.32Zm3.16-.59a1.46,1.46,0,0,0-.27-.82,1.65,1.65,0,0,0-1.32-.65,1.55,1.55,0,0,0-1.29.66,1.84,1.84,0,0,0-.27.81Z"/><path class="cls-3" d="M313.41,103.72h.79v4.8h-.79v-.93a2,2,0,0,1-1.75,1,2.29,2.29,0,0,1-2.26-2.49,2.33,2.33,0,0,1,2.28-2.53,2,2,0,0,1,1.73.9Zm-2.78,1.17a2.18,2.18,0,0,0-.4,1.27,1.65,1.65,0,0,0,1.54,1.79,1.78,1.78,0,0,0,1.65-1.88,1.61,1.61,0,0,0-1.62-1.75A1.3,1.3,0,0,0,310.63,104.89Z"/><path class="cls-3" d="M316.58,103.72v.81a1.34,1.34,0,0,1,.44-.63,1.49,1.49,0,0,1,.92-.29h.18v.8h-.22a1.25,1.25,0,0,0-1,.55,1.8,1.8,0,0,0-.28,1.13v2.44h-.79v-4.8Z"/><path class="cls-3" d="M322.65,107.93a2.44,2.44,0,0,1-1.77.7,2.33,2.33,0,0,1-2.35-2.49,2.42,2.42,0,0,1,4.14-1.81l-.51.51a1.73,1.73,0,0,0-1.22-.5,1.61,1.61,0,0,0-1.6,1.77,1.63,1.63,0,0,0,1.59,1.8,1.66,1.66,0,0,0,1.23-.53Z"/><path class="cls-3" d="M324.35,104.39a1.75,1.75,0,0,1,1.44-.78,1.61,1.61,0,0,1,1.12.43,1.66,1.66,0,0,1,.37,1.25v3.23h-.79v-3.19c0-.65-.32-1-.89-1a1.22,1.22,0,0,0-.94.42,1.25,1.25,0,0,0-.31,1v2.81h-.79v-6.94h.79Z"/><path class="cls-2" d="M363.79,74.18H262.49V44.84h101.3Zm-100.3-1h99.3V45.84h-99.3Z"/><path class="cls-3" d="M280.39,60.68a1.13,1.13,0,0,0,1.23,1.21A1.21,1.21,0,0,0,283,60.71c0-.6-.31-.88-1.41-1.24a3.46,3.46,0,0,1-1.4-.7,1.7,1.7,0,0,1-.54-1.31,2.07,2.07,0,0,1,4.13,0h-.88a1.37,1.37,0,0,0-.16-.72,1.23,1.23,0,0,0-1-.49,1.11,1.11,0,0,0-1.18,1.14,1,1,0,0,0,.4.8,4.22,4.22,0,0,0,1.11.49,3,3,0,0,1,1.37.75,1.74,1.74,0,0,1,.47,1.22,2.24,2.24,0,0,1-4,1.08,1.81,1.81,0,0,1-.23-.91v-.15Z"/><path class="cls-3" d="M285.54,60.4a1.48,1.48,0,0,0,.31.88,1.57,1.57,0,0,0,1.29.65,1.67,1.67,0,0,0,1.44-.82l.69.26a2.34,2.34,0,0,1-2.13,1.29,2.52,2.52,0,1,1,2.41-2.57c0,.06,0,.2,0,.31Zm3.16-.58a1.46,1.46,0,0,0-.27-.82,1.63,1.63,0,0,0-1.32-.66,1.53,1.53,0,0,0-1.29.67,1.84,1.84,0,0,0-.27.81Z"/><path class="cls-3" d="M290.63,62.55V55.61h.79v6.94Z"/><path class="cls-3" d="M293.47,60.4a1.48,1.48,0,0,0,.31.88,1.57,1.57,0,0,0,1.29.65,1.67,1.67,0,0,0,1.44-.82l.69.26a2.34,2.34,0,0,1-2.13,1.29,2.52,2.52,0,1,1,2.41-2.57c0,.06,0,.2,0,.31Zm3.16-.58a1.46,1.46,0,0,0-.27-.82,1.63,1.63,0,0,0-1.32-.66,1.53,1.53,0,0,0-1.29.67,1.84,1.84,0,0,0-.27.81Z"/><path class="cls-3" d="M302.36,62a2.49,2.49,0,0,1-1.77.71,2.33,2.33,0,0,1-2.35-2.5,2.42,2.42,0,0,1,4.14-1.81l-.51.51a1.79,1.79,0,0,0-1.22-.5,1.8,1.8,0,0,0,0,3.57,1.67,1.67,0,0,0,1.23-.52Z"/><path class="cls-3" d="M304.4,61.57c0,.24.07.29.36.29h.36v.69h-.73c-.57,0-.79-.22-.79-.75V58.45h-.66v-.7h.66V56.24h.8v1.51h.72v.7h-.72Z"/><path class="cls-3" d="M313.11,62a2.49,2.49,0,0,1-1.77.71,2.33,2.33,0,0,1-2.35-2.5,2.42,2.42,0,0,1,4.14-1.81l-.51.51a1.79,1.79,0,0,0-1.22-.5,1.8,1.8,0,0,0,0,3.57,1.67,1.67,0,0,0,1.23-.52Z"/><path class="cls-3" d="M317.59,57.75h.79v4.8h-.79v-.93a2,2,0,0,1-1.75,1,2.29,2.29,0,0,1-2.25-2.5,2.33,2.33,0,0,1,2.27-2.53,2,2,0,0,1,1.73.91Zm-2.78,1.17a2.16,2.16,0,0,0-.39,1.26A1.64,1.64,0,0,0,316,62a1.77,1.77,0,0,0,1.64-1.87A1.62,1.62,0,0,0,316,58.34,1.31,1.31,0,0,0,314.81,58.92Z"/><path class="cls-3" d="M320.79,61.57c0,.24.07.29.36.29h.37v.69h-.74c-.57,0-.78-.22-.78-.75V58.45h-.67v-.7H320V56.24h.79v1.51h.73v.7h-.73Z"/><path class="cls-3" d="M323,60.4a1.54,1.54,0,0,0,.31.88,1.6,1.6,0,0,0,1.3.65,1.65,1.65,0,0,0,1.43-.82l.7.26a2.36,2.36,0,0,1-2.13,1.29,2.52,2.52,0,1,1,2.4-2.57c0,.06,0,.2,0,.31Zm3.17-.58a1.54,1.54,0,0,0-.27-.82,1.67,1.67,0,0,0-1.33-.66,1.53,1.53,0,0,0-1.29.67,2.13,2.13,0,0,0-.27.81Z"/><path class="cls-3" d="M331.75,57.75h.79v4.83a2.24,2.24,0,0,1-.64,1.76,2.48,2.48,0,0,1-1.77.63A2.71,2.71,0,0,1,328,64.1l.54-.54A2.39,2.39,0,0,0,329,64a2.29,2.29,0,0,0,1.12.28,1.74,1.74,0,0,0,1.25-.46,1.65,1.65,0,0,0,.37-1.15v-1a2,2,0,0,1-1.77,1,2.31,2.31,0,0,1-2.22-2.5,2.73,2.73,0,0,1,.76-2,2.08,2.08,0,0,1,1.52-.57,2,2,0,0,1,1.71.94Zm-3.16,2.38a1.65,1.65,0,0,0,1.57,1.8,1.63,1.63,0,0,0,1.22-.58,1.94,1.94,0,0,0,.34-1.19,1.7,1.7,0,0,0-.37-1.27,1.64,1.64,0,0,0-1.17-.53A1.62,1.62,0,0,0,328.59,60.13Z"/><path class="cls-3" d="M338.58,60.16a2.45,2.45,0,0,1-2.45,2.5,2.52,2.52,0,1,1,2.45-2.5Zm-4.07,0a1.63,1.63,0,0,0,1.64,1.78,1.64,1.64,0,0,0,1.62-1.78,1.64,1.64,0,1,0-3.26,0Z"/><path class="cls-3" d="M340.58,57.75v.81a1.34,1.34,0,0,1,.44-.63,1.48,1.48,0,0,1,.91-.3h.19v.81h-.22a1.22,1.22,0,0,0-1,.55,1.74,1.74,0,0,0-.28,1.13v2.44h-.79v-4.8Z"/><path class="cls-3" d="M346.2,57.75h.86l-2.86,7.11h-.86l1-2.46-1.71-4.65h.84l1.29,3.56Z"/><path class="cls-2" d="M539.81,74.88H438.51V45.54h101.3Zm-100.3-1h99.3V46.54h-99.3Z"/><path class="cls-3" d="M466,61.64l-.63,1.61h-.91L467,56.31h1l2.55,6.94h-1l-.58-1.61Zm1.57-4.23-1.31,3.49h2.58Z"/><path class="cls-3" d="M475,56.31h.79v6.94H475v-.83a2,2,0,0,1-1.72.94A2.29,2.29,0,0,1,471,60.87a2.35,2.35,0,0,1,2.26-2.54,2.08,2.08,0,0,1,1.72.85Zm-3.15,4.57a1.61,1.61,0,0,0,1.54,1.79A1.67,1.67,0,0,0,475,60.86,1.62,1.62,0,0,0,473.47,59,1.65,1.65,0,0,0,471.87,60.88Z"/><path class="cls-3" d="M481,56.31h.79v6.94H481v-.83a2,2,0,0,1-1.72.94A2.28,2.28,0,0,1,477,60.87a2.34,2.34,0,0,1,2.25-2.54,2.08,2.08,0,0,1,1.72.85Zm-3.14,4.57a1.6,1.6,0,0,0,1.54,1.79,1.67,1.67,0,0,0,1.6-1.81A1.62,1.62,0,0,0,479.44,59,1.64,1.64,0,0,0,477.85,60.88Z"/><path class="cls-3" d="M487.34,62.27c0,.24.07.29.36.29h.37v.69h-.74c-.56,0-.78-.22-.78-.75V59.15h-.67v-.7h.67V56.94h.79v1.51h.73v.7h-.73Z"/><path class="cls-3" d="M493.59,60.86a2.45,2.45,0,0,1-2.45,2.5,2.52,2.52,0,1,1,2.45-2.5Zm-4.07,0a1.62,1.62,0,0,0,1.64,1.78,1.64,1.64,0,0,0,1.62-1.78,1.61,1.61,0,0,0-1.61-1.79A1.63,1.63,0,0,0,489.52,60.85Z"/><path class="cls-3" d="M501.66,62.65a2.45,2.45,0,0,1-1.77.71,2.34,2.34,0,0,1-2.35-2.5,2.42,2.42,0,0,1,4.14-1.81l-.51.51a1.77,1.77,0,0,0-1.22-.5,1.8,1.8,0,0,0,0,3.57,1.67,1.67,0,0,0,1.23-.52Z"/><path class="cls-3" d="M506.14,58.45h.79v4.8h-.79v-.93a2,2,0,0,1-1.75,1,2.29,2.29,0,0,1-2.25-2.5,2.33,2.33,0,0,1,2.28-2.53,2,2,0,0,1,1.72.91Zm-2.78,1.17a2.16,2.16,0,0,0-.39,1.26,1.65,1.65,0,0,0,1.54,1.79,1.77,1.77,0,0,0,1.64-1.87A1.62,1.62,0,0,0,504.53,59,1.32,1.32,0,0,0,503.36,59.62Z"/><path class="cls-3" d="M509.32,58.45v.81a1.33,1.33,0,0,1,.43-.63,1.51,1.51,0,0,1,.92-.3h.19v.81h-.22a1.21,1.21,0,0,0-1,.55,1.74,1.74,0,0,0-.28,1.13v2.44h-.79v-4.8Z"/><path class="cls-3" d="M512.9,62.27c0,.24.07.29.36.29h.37v.69h-.74c-.57,0-.78-.22-.78-.75V59.15h-.67v-.7h.67V56.94h.79v1.51h.73v.7h-.73Z"/><path class="cls-2" d="M657.57,74.88H556.26V45.54H657.57Zm-100.31-1h99.31V46.54H557.26Z"/><path class="cls-3" d="M585.89,62.2a3,3,0,0,1-2.54,1.17,3.08,3.08,0,0,1-2.38-1,3.93,3.93,0,0,1-.93-2.57,3.37,3.37,0,0,1,3.32-3.6,3.41,3.41,0,0,1,1.74.47,3.54,3.54,0,0,1,.81.72l-.6.56a2.46,2.46,0,0,0-1.92-1,2.82,2.82,0,0,0,0,5.59,2.29,2.29,0,0,0,1.88-1Z"/><path class="cls-3" d="M586.93,63.25V56.31h.8v6.94Z"/><path class="cls-3" d="M590.22,57.11a.5.5,0,0,1-.51.5.51.51,0,0,1,0-1A.51.51,0,0,1,590.22,57.11Zm-.11,6.14h-.79v-4.8h.79Z"/><path class="cls-3" d="M595.43,62.65a2.45,2.45,0,0,1-1.76.71,2.34,2.34,0,0,1-2.36-2.5,2.43,2.43,0,0,1,4.15-1.81l-.51.51a1.79,1.79,0,0,0-1.22-.5,1.8,1.8,0,0,0,0,3.57,1.67,1.67,0,0,0,1.23-.52Z"/><path class="cls-3" d="M597.13,63.25h-.79V56.31h.79v4.24l1.92-2.1h1l-2.15,2.34L600,63.25h-1l-1.92-2.15Z"/><path class="cls-3" d="M608.58,60.86a2.45,2.45,0,0,1-2.46,2.5,2.52,2.52,0,1,1,2.46-2.5Zm-4.07,0a1.62,1.62,0,0,0,1.63,1.78,1.65,1.65,0,0,0,1.63-1.78,1.64,1.64,0,1,0-3.26,0Z"/><path class="cls-3" d="M610.58,58.45v.68a1.62,1.62,0,0,1,1.42-.8,1.68,1.68,0,0,1,1.12.4,1.57,1.57,0,0,1,.4,1.28v3.24h-.79V60.19a1.25,1.25,0,0,0-.18-.82.9.9,0,0,0-.74-.33,1.2,1.2,0,0,0-.92.41,1.13,1.13,0,0,0-.31.87v2.93h-.79v-4.8Z"/><path class="cls-3" d="M621.94,62.65a2.45,2.45,0,0,1-1.77.71,2.34,2.34,0,0,1-2.35-2.5A2.42,2.42,0,0,1,622,59.05l-.51.51a1.77,1.77,0,0,0-1.22-.5,1.8,1.8,0,0,0,0,3.57,1.65,1.65,0,0,0,1.23-.52Z"/><path class="cls-3" d="M626.43,58.45h.79v4.8h-.79v-.93a2,2,0,0,1-1.75,1,2.3,2.3,0,0,1-2.26-2.5,2.34,2.34,0,0,1,2.28-2.53,2,2,0,0,1,1.73.91Zm-2.78,1.17a2.17,2.17,0,0,0-.4,1.26,1.65,1.65,0,0,0,1.54,1.79,1.77,1.77,0,0,0,1.65-1.87A1.62,1.62,0,0,0,624.81,59,1.29,1.29,0,0,0,623.65,59.62Z"/><path class="cls-3" d="M629.6,58.45v.81a1.34,1.34,0,0,1,.44-.63,1.48,1.48,0,0,1,.91-.3h.19v.81h-.22a1.22,1.22,0,0,0-1,.55,1.74,1.74,0,0,0-.28,1.13v2.44h-.79v-4.8Z"/><path class="cls-3" d="M633.18,62.27c0,.24.07.29.37.29h.36v.69h-.74c-.56,0-.78-.22-.78-.75V59.15h-.67v-.7h.67V56.94h.79v1.51h.73v.7h-.73Z"/><path class="cls-2" d="M853.5,90.22H752.2V60.87H853.5Zm-100.3-1h99.3V61.87H753.2Z"/><path class="cls-3" d="M773.82,78.58h-.88V71.64h1.9c1.47,0,2.37.76,2.37,2a1.9,1.9,0,0,1-1,1.75,2.94,2.94,0,0,1-1.28.29l2.7,2.88h-1.12l-2.69-2.91Zm.87-3.51c1,0,1.62-.48,1.62-1.35s-.52-1.33-1.47-1.33h-1v2.68Z"/><path class="cls-3" d="M778.92,76.44a1.47,1.47,0,0,0,.31.87,1.54,1.54,0,0,0,1.29.65,1.65,1.65,0,0,0,1.43-.82l.7.26a2.35,2.35,0,0,1-2.13,1.29,2.51,2.51,0,1,1,2.4-2.57c0,.07,0,.2,0,.32Zm3.16-.59a1.46,1.46,0,0,0-.27-.82,1.63,1.63,0,0,0-1.32-.65,1.53,1.53,0,0,0-1.29.66,1.84,1.84,0,0,0-.27.81Z"/><path class="cls-3" d="M787.63,73.78l-1.81,4.8H785l-1.75-4.8h.83l1.35,3.66,1.4-3.66Z"/><path class="cls-3" d="M789.36,72.44a.51.51,0,1,1-.5-.52A.5.5,0,0,1,789.36,72.44Zm-.11,6.14h-.79v-4.8h.79Z"/><path class="cls-3" d="M791.3,76.44a1.47,1.47,0,0,0,.31.87,1.54,1.54,0,0,0,1.29.65,1.65,1.65,0,0,0,1.44-.82l.7.26a2.58,2.58,0,1,1,.27-1.28c0,.07,0,.2,0,.32Zm3.16-.59a1.46,1.46,0,0,0-.27-.82,1.63,1.63,0,0,0-1.32-.65,1.53,1.53,0,0,0-1.29.66,1.84,1.84,0,0,0-.27.81Z"/><path class="cls-3" d="M802.71,73.78,801,78.58h-.72l-1.1-3.64L798,78.58h-.75l-1.64-4.8h.81l1.23,3.53,1.1-3.53h.78l1.09,3.53,1.25-3.53Z"/><path class="cls-3" d="M810.42,78a2.48,2.48,0,0,1-1.77.7,2.33,2.33,0,0,1-2.35-2.49,2.42,2.42,0,0,1,4.14-1.81l-.51.51a1.74,1.74,0,0,0-1.22-.5,1.79,1.79,0,0,0,0,3.56,1.67,1.67,0,0,0,1.23-.52Z"/><path class="cls-3" d="M814.9,73.78h.79v4.8h-.79v-.93a2,2,0,0,1-1.75,1,2.29,2.29,0,0,1-2.25-2.49,2.33,2.33,0,0,1,2.28-2.53,2,2,0,0,1,1.72.9ZM812.12,75a2.17,2.17,0,0,0-.39,1.27A1.64,1.64,0,0,0,813.27,78a1.78,1.78,0,0,0,1.64-1.88,1.61,1.61,0,0,0-1.62-1.75A1.31,1.31,0,0,0,812.12,75Z"/><path class="cls-3" d="M818.08,73.78v.81a1.33,1.33,0,0,1,.43-.63,1.51,1.51,0,0,1,.92-.29h.19v.8h-.22a1.23,1.23,0,0,0-1,.55,1.74,1.74,0,0,0-.28,1.13v2.44h-.79v-4.8Z"/><path class="cls-3" d="M821.66,77.6c0,.24.07.29.36.29h.37v.69h-.74c-.57,0-.78-.22-.78-.75V74.48h-.67v-.7h.67V72.27h.79v1.51h.73v.7h-.73Z"/><polygon class="cls-2" points="976.12 74.4 973.62 74.4 973.62 73.4 975.12 73.4 975.12 71.9 976.12 71.9 976.12 74.4"/><path class="cls-2" d="M972.66,74.4h0v-1Zm-3.89,0h-1v-1h1Z"/><path class="cls-2" d="M967.8,74.4h-3.89v-1h3.89Zm-4.85,0h0v-1Zm-3.89,0H954.2v-1h4.86Zm-5.82,0h0v-1Zm-3.9,0h-4.85v-1h4.85Zm-5.81,0h0v-1Zm-3.9,0h-4.85v-1h4.85Zm-5.82,0h0v0Zm-3.89,0h-4.86v-1h4.86Zm-5.82,0h0v-1Zm-3.89,0h-4.86v-1h4.86Zm-5.82,0h0v-1Zm-3.89,0h-4.86v-1h4.86Zm-5.82,0h0v-1Zm-3.89,0h-1v-1h1Z"/><polygon class="cls-2" points="899.82 74.4 897.32 74.4 897.32 71.9 898.32 71.9 898.32 73.4 899.82 73.4 899.82 74.4"/><path class="cls-2" d="M897.31,71v0h1Zm1-3.75h-1v-.94h1Z"/><path class="cls-2" d="M898.31,66.28h-1V62.53h1Zm-1-4.67v0h1Zm1-3.76h-1V53.17h1Zm-1-5.61v0h1Zm1-3.75h-1v-.94h1Z"/><polygon class="cls-2" points="898.32 47.55 897.32 47.55 897.32 45.05 899.82 45.05 899.82 46.05 898.32 46.05 898.32 47.55"/><path class="cls-2" d="M905.64,46.05h-1v-1h1Zm-4.84,0,0-1h0Z"/><path class="cls-2" d="M973.62,46.05h-1v-1h1Zm-4.84,0,0-1h0Zm-1,0h-3.88v-1h3.88Zm-3.88,0h-1v-1h1Zm-4.85,0,0-1h0Zm-1,0H954.2v-1h3.88Zm-3.88,0h-1v-1h1Zm-4.85,0,0-1h0Zm-1,0h-3.88v-1h3.88Zm-3.88,0h-1v-1h1Zm-4.85,0,0-1h0Zm-1,0h-3.88v-1h3.88Zm-3.88,0h-1v-1h1Zm-4.85,0,0-1h0Zm-1,0h-3.89v-1H929Zm-3.89,0h-1v-1h1Zm-4.84,0,0-1h0Zm-1,0h-3.89v-1h3.89Zm-3.89,0h-1v-1h1Zm-4.84,0,0-1h0Zm-1,0h-3.89v-1h3.89Z"/><polygon class="cls-2" points="976.12 47.55 975.12 47.55 975.12 46.05 973.62 46.05 973.62 45.05 976.12 45.05 976.12 47.55"/><path class="cls-2" d="M976.12,53.17h-1v-.94h1Zm0-4.67h-1l1,0Z"/><path class="cls-2" d="M976.12,71.9h-1V71h1Zm0-4.68h0Zm0-.94h-1V62.53h1Zm0-3.75h-1V61.6h1Zm0-4.67h-1l1,0Zm0-.94h-1V53.17h1Z"/><path class="cls-3" d="M914.27,61.16l-.64,1.6h-.9l2.61-6.94h1l2.55,6.94h-1l-.57-1.6Zm1.57-4.24-1.31,3.49h2.58Z"/><path class="cls-3" d="M923.33,55.82h.79v6.94h-.79v-.82a2,2,0,0,1-1.72.94,2.29,2.29,0,0,1-2.26-2.49,2.35,2.35,0,0,1,2.26-2.54,2.07,2.07,0,0,1,1.72.84Zm-3.14,4.58a1.61,1.61,0,0,0,1.54,1.79,1.67,1.67,0,0,0,1.6-1.81,1.62,1.62,0,0,0-1.55-1.82A1.64,1.64,0,0,0,920.19,60.4Z"/><path class="cls-3" d="M929.3,55.82h.79v6.94h-.79v-.82a2,2,0,0,1-1.71.94,2.29,2.29,0,0,1-2.26-2.49,2.35,2.35,0,0,1,2.26-2.54,2,2,0,0,1,1.71.84Zm-3.14,4.58a1.61,1.61,0,0,0,1.54,1.79,1.66,1.66,0,0,0,1.6-1.81,1.61,1.61,0,0,0-1.55-1.82A1.65,1.65,0,0,0,926.16,60.4Z"/><path class="cls-3" d="M938.54,62.17a2.45,2.45,0,0,1-1.76.71,2.52,2.52,0,0,1,0-5,2.39,2.39,0,0,1,1.75.72l-.51.51a1.74,1.74,0,0,0-1.22-.5,1.8,1.8,0,0,0,0,3.57,1.7,1.7,0,0,0,1.23-.52Z"/><path class="cls-3" d="M943.1,58V61a1.59,1.59,0,0,1-.48,1.35,2.14,2.14,0,0,1-2.76,0,1.75,1.75,0,0,1-.48-1.34V58h.79v3a1.07,1.07,0,0,0,1.07,1.16,1.12,1.12,0,0,0,.85-.37,1,1,0,0,0,.21-.77V58Z"/><path class="cls-3" d="M945.35,58v.88a1.86,1.86,0,0,1,1.75-1,2.27,2.27,0,0,1,2.26,2.48,2.31,2.31,0,0,1-2.26,2.55,2.24,2.24,0,0,1-1.05-.26,1.7,1.7,0,0,1-.7-.61v3h-.79V58Zm0,2.48a1.58,1.58,0,0,0,1.58,1.75,1.63,1.63,0,0,0,1.58-1.83,1.85,1.85,0,0,0-.41-1.3,1.53,1.53,0,0,0-1.14-.5A1.68,1.68,0,0,0,945.35,60.44Z"/><path class="cls-3" d="M955.05,60.38a2.45,2.45,0,0,1-2.46,2.5,2.52,2.52,0,1,1,2.46-2.5Zm-4.07,0a1.62,1.62,0,0,0,1.63,1.78,1.65,1.65,0,0,0,1.63-1.78,1.64,1.64,0,1,0-3.26,0Z"/><path class="cls-3" d="M957.05,58v.68a1.63,1.63,0,0,1,1.42-.79,1.68,1.68,0,0,1,1.12.39,1.58,1.58,0,0,1,.4,1.28v3.24h-.79V59.7a1.27,1.27,0,0,0-.18-.82.89.89,0,0,0-.74-.32,1.19,1.19,0,0,0-.92.4,1.14,1.14,0,0,0-.31.88v2.92h-.79V58Z"/><path class="cls-2" d="M1303.44,74.4h-129V45.05h129Zm-128-1h127V46.05h-127Z"/><path class="cls-3" d="M1193.52,59.27v-.05c0-.45-.36-.73-.91-.73s-.87.27-.87.69.21.57,1.08.81a2.49,2.49,0,0,1,1.16.55,1.36,1.36,0,0,1,.39.94c0,.83-.69,1.39-1.71,1.39s-1.71-.51-1.79-1.47h.78a.89.89,0,0,0,1,.83c.54,0,.9-.28.9-.71s-.27-.62-1.1-.83c-1-.28-1.51-.72-1.51-1.45s.68-1.39,1.69-1.39a1.47,1.47,0,0,1,1.68,1.42Z"/><path class="cls-3" d="M1196,60.62a1.54,1.54,0,0,0,.31.87,1.58,1.58,0,0,0,1.3.66,1.66,1.66,0,0,0,1.43-.83l.7.26a2.43,2.43,0,0,1-4.58-1.2,2.43,2.43,0,1,1,4.85-.08c0,.07,0,.2,0,.32Zm3.17-.59a1.54,1.54,0,0,0-.27-.82,1.69,1.69,0,0,0-1.33-.65,1.55,1.55,0,0,0-1.29.66,2.13,2.13,0,0,0-.27.81Z"/><path class="cls-3" d="M1201.13,62.76V55.82h.79v6.94Z"/><path class="cls-3" d="M1204,60.62a1.54,1.54,0,0,0,.31.87,1.58,1.58,0,0,0,1.3.66,1.66,1.66,0,0,0,1.43-.83l.7.26a2.43,2.43,0,0,1-4.58-1.2,2.43,2.43,0,1,1,4.85-.08c0,.07,0,.2,0,.32Zm3.17-.59a1.63,1.63,0,0,0-.27-.82,1.69,1.69,0,0,0-1.33-.65,1.55,1.55,0,0,0-1.29.66,2.13,2.13,0,0,0-.27.81Z"/><path class="cls-3" d="M1212.86,62.17a2.44,2.44,0,0,1-1.77.7,2.33,2.33,0,0,1-2.35-2.49,2.42,2.42,0,0,1,4.14-1.81l-.51.51a1.73,1.73,0,0,0-1.22-.5,1.61,1.61,0,0,0-1.6,1.77,1.63,1.63,0,0,0,1.59,1.8,1.66,1.66,0,0,0,1.23-.53Z"/><path class="cls-3" d="M1214.9,61.78c0,.24.07.29.36.29h.37v.69h-.74c-.56,0-.78-.22-.78-.75V58.66h-.67V58h.67V56.45h.79V58h.73v.7h-.73Z"/><path class="cls-3" d="M1222.09,59.27v-.05c0-.45-.36-.73-.91-.73s-.87.27-.87.69.21.57,1.07.81a2.48,2.48,0,0,1,1.17.55,1.35,1.35,0,0,1,.38.94c0,.83-.68,1.39-1.7,1.39s-1.71-.51-1.79-1.47h.78a.88.88,0,0,0,1,.83c.54,0,.89-.28.89-.71s-.27-.62-1.09-.83c-1-.28-1.51-.72-1.51-1.45s.68-1.39,1.69-1.39a1.46,1.46,0,0,1,1.67,1.42Z"/><path class="cls-3" d="M1224.94,58.63a1.78,1.78,0,0,1,1.45-.78,1.55,1.55,0,0,1,1.11.44,1.61,1.61,0,0,1,.38,1.24v3.23h-.79V59.58c0-.66-.33-1-.9-1a1.23,1.23,0,0,0-.94.42,1.29,1.29,0,0,0-.31,1v2.81h-.79V55.82h.79Z"/><path class="cls-3" d="M1230.34,56.62a.51.51,0,1,1-.5-.52A.5.5,0,0,1,1230.34,56.62Zm-.11,6.14h-.79V58h.79Z"/><path class="cls-3" d="M1232.61,58v.88a1.86,1.86,0,0,1,1.75-1,2.27,2.27,0,0,1,2.26,2.47,2.31,2.31,0,0,1-2.26,2.55,2.26,2.26,0,0,1-1-.25,1.7,1.7,0,0,1-.7-.61v3h-.79V58Zm0,2.48a1.58,1.58,0,0,0,1.58,1.75,1.63,1.63,0,0,0,1.59-1.83,1.89,1.89,0,0,0-.42-1.31,1.55,1.55,0,0,0-1.13-.49A1.68,1.68,0,0,0,1232.61,60.44Z"/><path class="cls-3" d="M1238.61,58v.88a1.84,1.84,0,0,1,1.74-1,2.27,2.27,0,0,1,2.26,2.47,2.29,2.29,0,0,1-3.31,2.3,1.68,1.68,0,0,1-.69-.61v3h-.79V58Zm0,2.48a1.58,1.58,0,0,0,1.58,1.75,1.63,1.63,0,0,0,1.58-1.83,1.84,1.84,0,0,0-.42-1.31,1.53,1.53,0,0,0-1.13-.49A1.67,1.67,0,0,0,1238.61,60.44Z"/><path class="cls-3" d="M1244.72,56.62a.5.5,0,0,1-.51.5.51.51,0,0,1,0-1A.51.51,0,0,1,1244.72,56.62Zm-.12,6.14h-.79V58h.79Z"/><path class="cls-3" d="M1247,58v.68a1.72,1.72,0,0,1,2.54-.4,1.55,1.55,0,0,1,.41,1.28v3.24h-.79V59.7a1.25,1.25,0,0,0-.18-.82.9.9,0,0,0-.75-.32,1.18,1.18,0,0,0-.91.4,1.14,1.14,0,0,0-.32.88v2.92h-.79V58Z"/><path class="cls-3" d="M1255,58h.79v4.83a2.24,2.24,0,0,1-.64,1.76,2.44,2.44,0,0,1-1.77.63,2.71,2.71,0,0,1-2.12-.87l.54-.54a3.54,3.54,0,0,0,.46.42,2.41,2.41,0,0,0,1.12.28,1.75,1.75,0,0,0,1.25-.47,1.65,1.65,0,0,0,.37-1.15v-1a2,2,0,0,1-1.77,1,2.31,2.31,0,0,1-2.22-2.49,2.76,2.76,0,0,1,.76-2,2.14,2.14,0,0,1,1.52-.56,2,2,0,0,1,1.71.93Zm-3.16,2.39a1.66,1.66,0,0,0,1.58,1.8,1.61,1.61,0,0,0,1.21-.59,1.9,1.9,0,0,0,.35-1.18,1.67,1.67,0,0,0-.38-1.27,1.6,1.6,0,0,0-1.16-.53A1.61,1.61,0,0,0,1251.86,60.35Z"/><path class="cls-3" d="M1261.31,58v.67a1.51,1.51,0,0,1,1.37-.78,1.24,1.24,0,0,1,1.29.87,1.57,1.57,0,0,1,1.52-.87,1.43,1.43,0,0,1,1.22.51,1.94,1.94,0,0,1,.29,1.33v3.07h-.79V59.88c0-.59,0-.72-.14-.92a.94.94,0,0,0-.83-.4c-.7,0-1.08.46-1.08,1.32v2.88h-.8V59.89a1.88,1.88,0,0,0-.15-.92.83.83,0,0,0-.78-.41c-.7,0-1.12.49-1.12,1.33v2.87h-.79V58Z"/><path class="cls-3" d="M1269,60.62a1.47,1.47,0,0,0,.31.87,1.55,1.55,0,0,0,1.29.66,1.66,1.66,0,0,0,1.43-.83l.7.26a2.35,2.35,0,0,1-2.13,1.29,2.51,2.51,0,1,1,2.4-2.57c0,.07,0,.2,0,.32Zm3.16-.59a1.46,1.46,0,0,0-.27-.82,1.65,1.65,0,0,0-1.32-.65,1.55,1.55,0,0,0-1.29.66,1.84,1.84,0,0,0-.27.81Z"/><path class="cls-3" d="M1274.93,61.78c0,.24.07.29.36.29h.36v.69h-.73c-.57,0-.78-.22-.78-.75V58.66h-.67V58h.67V56.45h.79V58h.72v.7h-.72Z"/><path class="cls-3" d="M1277.54,58.63a1.76,1.76,0,0,1,1.44-.78,1.57,1.57,0,0,1,1.12.44,1.62,1.62,0,0,1,.37,1.24v3.23h-.79V59.58c0-.66-.32-1-.89-1a1.22,1.22,0,0,0-.94.42,1.25,1.25,0,0,0-.31,1v2.81h-.79V55.82h.79Z"/><path class="cls-3" d="M1286.53,60.38a2.45,2.45,0,0,1-2.46,2.49,2.51,2.51,0,1,1,2.46-2.49Zm-4.07,0a1.63,1.63,0,0,0,1.64,1.78,1.64,1.64,0,0,0,1.62-1.78,1.64,1.64,0,1,0-3.26,0Z"/><path class="cls-3" d="M1291.33,55.82h.79v6.94h-.79v-.82a2,2,0,0,1-1.72.93,2.29,2.29,0,0,1-2.26-2.48,2.35,2.35,0,0,1,2.26-2.54,2.07,2.07,0,0,1,1.72.84Zm-3.15,4.58a1.61,1.61,0,0,0,1.55,1.79,1.67,1.67,0,0,0,1.6-1.81,1.62,1.62,0,0,0-1.55-1.82A1.64,1.64,0,0,0,1288.18,60.4Z"/><path class="cls-2" d="M1454.5,74.4h-129V45.05h129Zm-128-1h127V46.05h-127Z"/><path class="cls-3" d="M1344.58,59.27v-.05c0-.45-.37-.73-.92-.73s-.86.27-.86.69.21.57,1.07.81a2.54,2.54,0,0,1,1.17.55,1.35,1.35,0,0,1,.38.94c0,.83-.69,1.39-1.71,1.39a1.55,1.55,0,0,1-1.79-1.47h.79a.88.88,0,0,0,1,.83c.55,0,.9-.28.9-.71s-.27-.62-1.09-.83c-1-.28-1.51-.72-1.51-1.45s.67-1.39,1.68-1.39,1.64.52,1.68,1.42Z"/><path class="cls-3" d="M1347.1,60.62a1.47,1.47,0,0,0,.31.87,1.55,1.55,0,0,0,1.29.66,1.69,1.69,0,0,0,1.44-.83l.69.26a2.34,2.34,0,0,1-2.13,1.29,2.51,2.51,0,1,1,2.4-2.57c0,.07,0,.2,0,.32Zm3.16-.59a1.46,1.46,0,0,0-.27-.82,1.65,1.65,0,0,0-1.32-.65,1.55,1.55,0,0,0-1.29.66,1.84,1.84,0,0,0-.27.81Z"/><path class="cls-3" d="M1352.19,62.76V55.82h.79v6.94Z"/><path class="cls-3" d="M1355,60.62a1.47,1.47,0,0,0,.31.87,1.55,1.55,0,0,0,1.29.66,1.66,1.66,0,0,0,1.43-.83l.7.26a2.34,2.34,0,0,1-2.13,1.29,2.51,2.51,0,1,1,2.4-2.57c0,.07,0,.2,0,.32Zm3.16-.59a1.46,1.46,0,0,0-.27-.82,1.65,1.65,0,0,0-1.32-.65,1.55,1.55,0,0,0-1.29.66,1.84,1.84,0,0,0-.27.81Z"/><path class="cls-3" d="M1363.91,62.17a2.44,2.44,0,0,1-1.77.7,2.33,2.33,0,0,1-2.35-2.49,2.42,2.42,0,0,1,4.14-1.81l-.5.51a1.76,1.76,0,0,0-1.22-.5,1.62,1.62,0,0,0-1.61,1.77,1.64,1.64,0,0,0,1.6,1.8,1.68,1.68,0,0,0,1.23-.53Z"/><path class="cls-3" d="M1366,61.78c0,.24.08.29.37.29h.36v.69h-.74c-.56,0-.78-.22-.78-.75V58.66h-.66V58h.66V56.45h.79V58h.73v.7H1366Z"/><path class="cls-3" d="M1371.72,58v.88a1.86,1.86,0,0,1,1.75-1,2.27,2.27,0,0,1,2.26,2.47,2.31,2.31,0,0,1-2.26,2.55,2.23,2.23,0,0,1-1-.25,1.65,1.65,0,0,1-.7-.61v3h-.79V58Zm0,2.48a1.58,1.58,0,0,0,1.58,1.75,1.63,1.63,0,0,0,1.58-1.83,1.89,1.89,0,0,0-.41-1.31,1.57,1.57,0,0,0-1.14-.49A1.67,1.67,0,0,0,1371.72,60.44Z"/><path class="cls-3" d="M1380.54,58h.79v4.8h-.79v-.93a2,2,0,0,1-1.74,1,2.29,2.29,0,0,1-2.26-2.49,2.33,2.33,0,0,1,2.28-2.53,2,2,0,0,1,1.72.9Zm-2.77,1.17a2.18,2.18,0,0,0-.4,1.27,1.65,1.65,0,0,0,1.54,1.79,1.78,1.78,0,0,0,1.64-1.88,1.61,1.61,0,0,0-1.62-1.75A1.28,1.28,0,0,0,1377.77,59.13Z"/><path class="cls-3" d="M1385.72,58h.86l-2.86,7.11h-.87l1-2.46-1.7-4.65h.84l1.29,3.56Z"/><path class="cls-3" d="M1388.23,58v.67a1.48,1.48,0,0,1,1.36-.78,1.24,1.24,0,0,1,1.29.87,1.57,1.57,0,0,1,1.52-.87,1.43,1.43,0,0,1,1.22.51,1.94,1.94,0,0,1,.29,1.33v3.07h-.79V59.88c0-.59,0-.72-.14-.92a.94.94,0,0,0-.83-.4c-.7,0-1.08.46-1.08,1.32v2.88h-.8V59.89a1.88,1.88,0,0,0-.15-.92.83.83,0,0,0-.78-.41c-.7,0-1.11.49-1.11,1.33v2.87h-.8V58Z"/><path class="cls-3" d="M1395.93,60.62a1.47,1.47,0,0,0,.31.87,1.55,1.55,0,0,0,1.29.66,1.66,1.66,0,0,0,1.43-.83l.7.26a2.35,2.35,0,0,1-2.13,1.29,2.51,2.51,0,1,1,2.4-2.57c0,.07,0,.2,0,.32Zm3.16-.59a1.54,1.54,0,0,0-.27-.82,1.65,1.65,0,0,0-1.32-.65,1.55,1.55,0,0,0-1.29.66,2,2,0,0,0-.28.81Z"/><path class="cls-3" d="M1401.87,58v.68a1.63,1.63,0,0,1,1.42-.79,1.68,1.68,0,0,1,1.12.39,1.58,1.58,0,0,1,.4,1.28v3.24H1404V59.7a1.25,1.25,0,0,0-.18-.82.89.89,0,0,0-.74-.32,1.19,1.19,0,0,0-.92.4,1.14,1.14,0,0,0-.31.88v2.92h-.79V58Z"/><path class="cls-3" d="M1407.22,61.78c0,.24.07.29.36.29h.37v.69h-.74c-.57,0-.78-.22-.78-.75V58.66h-.67V58h.67V56.45h.79V58h.73v.7h-.73Z"/><path class="cls-3" d="M1413,58v.67a1.51,1.51,0,0,1,1.37-.78,1.24,1.24,0,0,1,1.29.87,1.56,1.56,0,0,1,1.51-.87,1.42,1.42,0,0,1,1.22.51c.23.3.29.57.29,1.33v3.07h-.79V59.88c0-.59,0-.72-.13-.92a.94.94,0,0,0-.84-.4c-.69,0-1.08.46-1.08,1.32v2.88H1415V59.89a1.88,1.88,0,0,0-.15-.92.83.83,0,0,0-.78-.41c-.7,0-1.12.49-1.12,1.33v2.87h-.79V58Z"/><path class="cls-3" d="M1420.68,60.62a1.54,1.54,0,0,0,.31.87,1.58,1.58,0,0,0,1.3.66,1.66,1.66,0,0,0,1.43-.83l.7.26a2.43,2.43,0,0,1-4.58-1.2,2.43,2.43,0,1,1,4.85-.08c0,.07,0,.2,0,.32Zm3.17-.59a1.63,1.63,0,0,0-.27-.82,1.69,1.69,0,0,0-1.33-.65,1.55,1.55,0,0,0-1.29.66,2.13,2.13,0,0,0-.27.81Z"/><path class="cls-3" d="M1426.59,61.78c0,.24.08.29.37.29h.36v.69h-.74c-.56,0-.78-.22-.78-.75V58.66h-.66V58h.66V56.45h.79V58h.73v.7h-.73Z"/><path class="cls-3" d="M1429.21,58.63a1.75,1.75,0,0,1,1.44-.78,1.57,1.57,0,0,1,1.12.44,1.62,1.62,0,0,1,.37,1.24v3.23h-.79V59.58c0-.66-.32-1-.89-1a1.22,1.22,0,0,0-.94.42,1.25,1.25,0,0,0-.31,1v2.81h-.79V55.82h.79Z"/><path class="cls-3" d="M1438.2,60.38a2.45,2.45,0,0,1-2.46,2.49,2.51,2.51,0,1,1,2.46-2.49Zm-4.07,0a1.62,1.62,0,0,0,1.63,1.78,1.65,1.65,0,0,0,1.63-1.78,1.64,1.64,0,1,0-3.26,0Z"/><path class="cls-3" d="M1443,55.82h.79v6.94H1443v-.82a2,2,0,0,1-1.72.93,2.29,2.29,0,0,1-2.26-2.48,2.35,2.35,0,0,1,2.26-2.54,2.07,2.07,0,0,1,1.72.84Zm-3.15,4.58a1.61,1.61,0,0,0,1.54,1.79,1.67,1.67,0,0,0,1.61-1.81,1.62,1.62,0,0,0-1.55-1.82A1.64,1.64,0,0,0,1439.85,60.4Z"/><path class="cls-2" d="M1153,74.4H997.62V45.05H1153Zm-154.33-1H1152V46.05H998.62Z"/><path class="cls-3" d="M1013.49,58.89h2.71v.75h-2.71v3.12h-.87V55.82h3.58v.75h-2.71Z"/><path class="cls-3" d="M1018.13,56.62a.5.5,0,0,1-.51.5.51.51,0,0,1,0-1A.51.51,0,0,1,1018.13,56.62Zm-.11,6.14h-.79V58h.79Z"/><path class="cls-3" d="M1019.61,62.76V55.82h.79v6.94Z"/><path class="cls-3" d="M1022,62.76V55.82h.79v6.94Z"/><path class="cls-3" d="M1032,60.38a2.44,2.44,0,0,1-2.45,2.49,2.51,2.51,0,1,1,2.45-2.49Zm-4.06,0a1.62,1.62,0,0,0,1.63,1.78,1.64,1.64,0,0,0,1.62-1.78,1.63,1.63,0,1,0-3.25,0Z"/><path class="cls-3" d="M1036.79,58V61a1.59,1.59,0,0,1-.48,1.35,2,2,0,0,1-1.38.49,2,2,0,0,1-1.38-.51,1.71,1.71,0,0,1-.48-1.33V58h.79v3a1.07,1.07,0,0,0,1.07,1.16,1.14,1.14,0,0,0,.85-.37A1,1,0,0,0,1036,61V58Z"/><path class="cls-3" d="M1039.09,61.78c0,.24.08.29.37.29h.36v.69h-.74c-.56,0-.78-.22-.78-.75V58.66h-.66V58h.66V56.45h.79V58h.73v.7h-.73Z"/><path class="cls-3" d="M1044.86,62.76h-.79V55.82h.79v3a2,2,0,0,1,1.68-.93,2.31,2.31,0,0,1,2.28,2.53,2.28,2.28,0,0,1-2.24,2.49,2,2,0,0,1-1.72-.93Zm0-2.39a1.59,1.59,0,1,0,3.14,0,1.59,1.59,0,1,0-3.14,0Z"/><path class="cls-3" d="M1050.93,56.62a.5.5,0,1,1-.5-.52A.5.5,0,0,1,1050.93,56.62Zm-.11,6.14H1050V58h.79Z"/><path class="cls-3" d="M1052.41,62.76V55.82h.79v6.94Z"/><path class="cls-3" d="M1054.8,62.76V55.82h.79v6.94Z"/><path class="cls-3" d="M1058.08,56.62a.51.51,0,1,1-.5-.52A.5.5,0,0,1,1058.08,56.62Zm-.11,6.14h-.79V58h.79Z"/><path class="cls-3" d="M1060.35,58v.68a1.72,1.72,0,0,1,2.54-.4,1.58,1.58,0,0,1,.41,1.28v3.24h-.79V59.7a1.32,1.32,0,0,0-.18-.82.93.93,0,0,0-.75-.32,1.21,1.21,0,0,0-.92.4,1.17,1.17,0,0,0-.31.88v2.92h-.79V58Z"/><path class="cls-3" d="M1068.39,58h.79v4.83a2.24,2.24,0,0,1-.64,1.76,2.44,2.44,0,0,1-1.77.63,2.71,2.71,0,0,1-2.12-.87l.54-.54a3.54,3.54,0,0,0,.46.42,2.41,2.41,0,0,0,1.12.28A1.75,1.75,0,0,0,1068,64a1.65,1.65,0,0,0,.37-1.15v-1a2,2,0,0,1-1.77,1,2.31,2.31,0,0,1-2.22-2.49,2.76,2.76,0,0,1,.76-2,2.14,2.14,0,0,1,1.52-.56,2,2,0,0,1,1.71.93Zm-3.16,2.39a1.66,1.66,0,0,0,1.58,1.8,1.61,1.61,0,0,0,1.21-.59,1.9,1.9,0,0,0,.35-1.18,1.67,1.67,0,0,0-.38-1.27,1.6,1.6,0,0,0-1.16-.53A1.61,1.61,0,0,0,1065.23,60.35Z"/><path class="cls-3" d="M1075.46,59V57h.48v2h2.14v.46h-2.14v2h-.48v-2h-2.13V59Z"/><path class="cls-3" d="M1084.43,59.27v-.05c0-.45-.36-.73-.91-.73s-.87.27-.87.69.21.57,1.08.81a2.49,2.49,0,0,1,1.16.55,1.36,1.36,0,0,1,.39.94c0,.83-.69,1.39-1.71,1.39s-1.71-.51-1.79-1.47h.78a.89.89,0,0,0,1,.83c.54,0,.9-.28.9-.71s-.28-.62-1.1-.83c-1-.28-1.51-.72-1.51-1.45s.68-1.39,1.69-1.39a1.47,1.47,0,0,1,1.68,1.42Z"/><path class="cls-3" d="M1087.29,58.63a1.75,1.75,0,0,1,1.44-.78,1.57,1.57,0,0,1,1.12.44,1.62,1.62,0,0,1,.37,1.24v3.23h-.79V59.58c0-.66-.32-1-.9-1a1.21,1.21,0,0,0-.93.42,1.25,1.25,0,0,0-.31,1v2.81h-.8V55.82h.8Z"/><path class="cls-3" d="M1092.69,56.62a.5.5,0,0,1-.51.5.51.51,0,0,1,0-1A.51.51,0,0,1,1092.69,56.62Zm-.12,6.14h-.79V58h.79Z"/><path class="cls-3" d="M1095,58v.88a1.84,1.84,0,0,1,1.74-1,2.27,2.27,0,0,1,2.26,2.47,2.29,2.29,0,0,1-3.31,2.3A1.68,1.68,0,0,1,1095,62v3h-.8V58Zm0,2.48a1.58,1.58,0,0,0,1.58,1.75,1.63,1.63,0,0,0,1.58-1.83,1.89,1.89,0,0,0-.42-1.31,1.55,1.55,0,0,0-1.13-.49A1.67,1.67,0,0,0,1095,60.44Z"/><path class="cls-3" d="M1101,58v.88a1.86,1.86,0,0,1,1.75-1,2.27,2.27,0,0,1,2.26,2.47,2.31,2.31,0,0,1-2.26,2.55,2.23,2.23,0,0,1-1-.25,1.65,1.65,0,0,1-.7-.61v3h-.79V58Zm0,2.48a1.58,1.58,0,0,0,1.58,1.75,1.63,1.63,0,0,0,1.58-1.83,1.89,1.89,0,0,0-.41-1.31,1.56,1.56,0,0,0-1.14-.49A1.67,1.67,0,0,0,1101,60.44Z"/><path class="cls-3" d="M1107.06,56.62a.5.5,0,0,1-.51.5.51.51,0,0,1,0-1A.51.51,0,0,1,1107.06,56.62Zm-.12,6.14h-.79V58h.79Z"/><path class="cls-3" d="M1109.33,58v.68a1.63,1.63,0,0,1,1.42-.79,1.68,1.68,0,0,1,1.12.39,1.58,1.58,0,0,1,.4,1.28v3.24h-.79V59.7a1.25,1.25,0,0,0-.18-.82.89.89,0,0,0-.74-.32,1.19,1.19,0,0,0-.92.4,1.14,1.14,0,0,0-.31.88v2.92h-.79V58Z"/><path class="cls-3" d="M1117.36,58h.79v4.83a2.27,2.27,0,0,1-.63,1.76,2.46,2.46,0,0,1-1.77.63,2.69,2.69,0,0,1-2.12-.87l.54-.54a3.63,3.63,0,0,0,.45.42,2.42,2.42,0,0,0,1.13.28A1.75,1.75,0,0,0,1117,64a1.65,1.65,0,0,0,.36-1.15v-1a2,2,0,0,1-1.77,1,2.3,2.3,0,0,1-2.21-2.49,2.76,2.76,0,0,1,.76-2,2.1,2.1,0,0,1,1.51-.56,2,2,0,0,1,1.71.93Zm-3.15,2.39a1.65,1.65,0,0,0,1.57,1.8,1.63,1.63,0,0,0,1.22-.59,1.9,1.9,0,0,0,.34-1.18,1.67,1.67,0,0,0-.37-1.27,1.59,1.59,0,0,0-2.76,1.24Z"/><path class="cls-3" d="M1123.77,56.62a.5.5,0,0,1-.51.5.51.51,0,0,1,0-1A.51.51,0,0,1,1123.77,56.62Zm-.11,6.14h-.79V58h.79Z"/><path class="cls-3" d="M1126,58v.68a1.65,1.65,0,0,1,1.43-.79,1.67,1.67,0,0,1,1.11.39,1.58,1.58,0,0,1,.4,1.28v3.24h-.79V59.7a1.33,1.33,0,0,0-.17-.82.93.93,0,0,0-.75-.32,1.19,1.19,0,0,0-.92.4,1.14,1.14,0,0,0-.31.88v2.92h-.79V58Z"/><path class="cls-3" d="M1131.42,62.76h-.79v-4.1H1130V58h.66v-.64c0-1,.49-1.51,1.32-1.51h.22v.71c-.57.06-.73.22-.75.79V58h.75v.7h-.75Z"/><path class="cls-3" d="M1137.61,60.38a2.44,2.44,0,0,1-2.45,2.49,2.51,2.51,0,1,1,2.45-2.49Zm-4.07,0a1.63,1.63,0,0,0,1.64,1.78,1.64,1.64,0,0,0,1.62-1.78,1.61,1.61,0,0,0-1.61-1.79A1.63,1.63,0,0,0,1133.54,60.37Z"/><path class="cls-2" d="M853.5,57.69H752.2V28.35H853.5Zm-100.3-1h99.3V29.35H753.2Z"/><path class="cls-3" d="M778.39,45a3,3,0,0,1-2.54,1.18,3.1,3.1,0,0,1-2.39-1,3.94,3.94,0,0,1-.92-2.57,3.36,3.36,0,0,1,3.32-3.6,3.4,3.4,0,0,1,1.73.47,3.33,3.33,0,0,1,.82.72l-.61.56a2.43,2.43,0,0,0-1.92-1,2.56,2.56,0,0,0-2.45,2.8,2.57,2.57,0,0,0,2.49,2.79,2.29,2.29,0,0,0,1.88-1Z"/><path class="cls-3" d="M780.22,41.92a1.75,1.75,0,0,1,1.44-.78,1.61,1.61,0,0,1,1.12.44,1.66,1.66,0,0,1,.37,1.25v3.23h-.79V42.87c0-.65-.32-1-.89-1a1.23,1.23,0,0,0-.94.43,1.25,1.25,0,0,0-.31,1v2.81h-.79v-7h.79Z"/><path class="cls-3" d="M785.17,43.91a1.48,1.48,0,0,0,.31.88,1.57,1.57,0,0,0,1.29.65,1.65,1.65,0,0,0,1.44-.82l.7.26a2.43,2.43,0,0,1-4.58-1.21,2.43,2.43,0,1,1,4.85-.07c0,.06,0,.2,0,.31Zm3.16-.58a1.43,1.43,0,0,0-.27-.82,1.63,1.63,0,0,0-1.32-.66,1.53,1.53,0,0,0-1.29.67,1.92,1.92,0,0,0-.27.81Z"/><path class="cls-3" d="M794.06,45.46a2.45,2.45,0,0,1-1.77.71,2.33,2.33,0,0,1-2.35-2.5,2.42,2.42,0,0,1,4.14-1.81l-.51.51a1.79,1.79,0,0,0-1.22-.5,1.8,1.8,0,0,0,0,3.57,1.67,1.67,0,0,0,1.23-.52Z"/><path class="cls-3" d="M795.75,46.06H795v-7h.79v4.25l1.92-2.1h1l-2.15,2.34,2.14,2.46h-1l-1.92-2.15Z"/><path class="cls-3" d="M803.82,43.67a2.45,2.45,0,0,1-2.46,2.5,2.52,2.52,0,1,1,2.46-2.5Zm-4.07,0a1.62,1.62,0,0,0,1.63,1.78A1.65,1.65,0,0,0,803,43.66a1.64,1.64,0,1,0-3.26,0Z"/><path class="cls-3" d="M808.62,41.26v3.07a1.6,1.6,0,0,1-.48,1.34,2.06,2.06,0,0,1-1.39.5,2,2,0,0,1-1.38-.51,1.76,1.76,0,0,1-.48-1.33V41.26h.79v3.05a1.07,1.07,0,0,0,1.07,1.15,1.14,1.14,0,0,0,.86-.36,1.11,1.11,0,0,0,.21-.77V41.26Z"/><path class="cls-3" d="M810.92,45.08c0,.24.07.29.36.29h.36v.69h-.73c-.57,0-.78-.22-.78-.75V42h-.67v-.7h.67V39.75h.79v1.51h.72V42h-.72Z"/><rect class="cls-3" x="875.3" y="59.27" width="17.14" height="0.75"/><polygon class="cls-3" points="891.34 63.38 897.82 59.64 891.34 55.9 891.34 63.38"/><rect class="cls-3" x="975.6" y="59.35" width="17.14" height="0.75"/><polygon class="cls-3" points="991.64 63.46 998.12 59.72 991.64 55.98 991.64 63.46"/><rect class="cls-3" x="1152.45" y="59.35" width="17.14" height="0.75"/><polygon class="cls-3" points="1168.5 63.46 1174.97 59.72 1168.5 55.98 1168.5 63.46"/><rect class="cls-3" x="1303.48" y="59.35" width="17.14" height="0.75"/><polygon class="cls-3" points="1319.52 63.46 1326 59.72 1319.52 55.98 1319.52 63.46"/><rect class="cls-3" x="1454" y="59.35" width="17.14" height="0.75"/><polygon class="cls-3" points="1470.04 63.46 1476.52 59.72 1470.04 55.98 1470.04 63.46"/><rect class="cls-3" x="159.98" y="59.14" width="17.14" height="0.75"/><polygon class="cls-3" points="176.02 63.25 182.5 59.51 176.02 55.77 176.02 63.25"/><rect class="cls-3" x="539.31" y="59.84" width="12.07" height="0.75"/><polygon class="cls-3" points="550.29 63.95 556.76 60.21 550.29 56.47 550.29 63.95"/><path class="cls-3" d="M1490.57,62.76h-.87V55.82h1.85c1.65,0,2.55.75,2.55,2.12a2.16,2.16,0,0,1-.74,1.69,2.63,2.63,0,0,1-1.72.48h-1.07Zm.91-3.4a2.13,2.13,0,0,0,.86-.13,1.31,1.31,0,0,0,.88-1.27,1.29,1.29,0,0,0-.89-1.26,2.91,2.91,0,0,0-1-.13h-.79v2.79Z"/><path class="cls-3" d="M1498.74,58V61a1.59,1.59,0,0,1-.48,1.35,2.14,2.14,0,0,1-2.76,0A1.75,1.75,0,0,1,1495,61V58h.79v3a1.07,1.07,0,0,0,1.07,1.16,1.12,1.12,0,0,0,.85-.37,1,1,0,0,0,.21-.77V58Z"/><path class="cls-3" d="M1501,58v.81a1.39,1.39,0,0,1,.44-.63,1.48,1.48,0,0,1,.91-.29h.19v.8h-.22a1.25,1.25,0,0,0-1,.55,1.75,1.75,0,0,0-.28,1.14v2.43h-.79V58Z"/><path class="cls-3" d="M1507.06,62.17a2.45,2.45,0,0,1-1.77.71,2.52,2.52,0,0,1,0-5,2.37,2.37,0,0,1,1.75.72l-.51.51a1.74,1.74,0,0,0-1.22-.5,1.8,1.8,0,0,0,0,3.57,1.7,1.7,0,0,0,1.23-.52Z"/><path class="cls-3" d="M1508.75,58.63a1.78,1.78,0,0,1,1.45-.78,1.55,1.55,0,0,1,1.11.44,1.63,1.63,0,0,1,.38,1.24v3.23h-.79V59.58c0-.66-.33-1-.9-1a1.21,1.21,0,0,0-.93.42,1.26,1.26,0,0,0-.32,1v2.81H1508V55.82h.79Z"/><path class="cls-3" d="M1516.87,58h.79v4.8h-.79v-.93a2,2,0,0,1-1.75,1.05,2.3,2.3,0,0,1-2.26-2.5,2.33,2.33,0,0,1,2.28-2.53,2,2,0,0,1,1.73.9Zm-2.78,1.17a2.17,2.17,0,0,0-.39,1.27,1.64,1.64,0,0,0,1.54,1.79,1.78,1.78,0,0,0,1.64-1.87,1.61,1.61,0,0,0-1.62-1.76A1.3,1.3,0,0,0,1514.09,59.13Z"/><path class="cls-3" d="M1521.46,59.27v-.05c0-.45-.36-.73-.91-.73s-.87.27-.87.69.21.57,1.07.81a2.58,2.58,0,0,1,1.17.55,1.35,1.35,0,0,1,.38.94c0,.83-.68,1.4-1.7,1.4s-1.71-.51-1.79-1.48h.78a.88.88,0,0,0,1,.83c.54,0,.89-.28.89-.71s-.27-.62-1.09-.83c-1-.28-1.51-.72-1.51-1.45s.68-1.39,1.69-1.39a1.46,1.46,0,0,1,1.67,1.42Z"/><path class="cls-3" d="M1524,60.62a1.47,1.47,0,0,0,.31.87,1.55,1.55,0,0,0,1.29.66,1.66,1.66,0,0,0,1.44-.83l.7.26a2.35,2.35,0,0,1-2.14,1.3A2.52,2.52,0,1,1,1528,60.3c0,.07,0,.2,0,.32Zm3.16-.59a1.46,1.46,0,0,0-.27-.82,1.65,1.65,0,0,0-1.32-.65,1.55,1.55,0,0,0-1.29.66,2,2,0,0,0-.27.81Z"/><rect class="cls-1" y="44.47" width="75.75" height="31.48" rx="15.74"/><path class="cls-2" d="M160.48,74.75H98.69V45.41h61.79Zm-60.79-1h59.79V46.41H99.69Z"/><path class="cls-3" d="M119.76,61.25A1.13,1.13,0,0,0,121,62.46a1.21,1.21,0,0,0,1.33-1.18c0-.6-.31-.88-1.41-1.25a3.47,3.47,0,0,1-1.4-.69A1.75,1.75,0,0,1,119,58a2.07,2.07,0,0,1,4.13,0h-.87a1.36,1.36,0,0,0-.17-.72,1.21,1.21,0,0,0-1-.49A1.11,1.11,0,0,0,119.85,58a1,1,0,0,0,.4.8,3.89,3.89,0,0,0,1.11.49,3.23,3.23,0,0,1,1.38.75,1.8,1.8,0,0,1,.46,1.23,2,2,0,0,1-2.18,2,1.93,1.93,0,0,1-1.85-.94,1.67,1.67,0,0,1-.24-.9v-.15Z"/><path class="cls-3" d="M125.23,59a1.78,1.78,0,0,1,1.45-.78,1.59,1.59,0,0,1,1.11.44,1.64,1.64,0,0,1,.38,1.25v3.22h-.79V59.93c0-.66-.32-1-.9-1a1.22,1.22,0,0,0-.93.43,1.25,1.25,0,0,0-.32,1v2.81h-.79V56.17h.79Z"/><path class="cls-3" d="M134.23,60.73a2.45,2.45,0,0,1-2.46,2.5,2.52,2.52,0,1,1,2.46-2.5Zm-4.07,0a1.62,1.62,0,0,0,1.63,1.78,1.64,1.64,0,0,0,1.62-1.78,1.63,1.63,0,1,0-3.25,0Z"/><path class="cls-3" d="M136.22,58.32v.87a1.86,1.86,0,0,1,1.75-1,2.27,2.27,0,0,1,2.26,2.48A2.31,2.31,0,0,1,138,63.23a2.26,2.26,0,0,1-1.05-.25,1.78,1.78,0,0,1-.7-.61v3h-.79v-7Zm0,2.47a1.58,1.58,0,0,0,1.59,1.75,1.63,1.63,0,0,0,1.58-1.83,1.86,1.86,0,0,0-.42-1.3,1.56,1.56,0,0,0-1.13-.5A1.68,1.68,0,0,0,136.22,60.79Z"/><rect class="cls-3" x="75.75" y="59.7" width="17.14" height="0.75"/><polygon class="cls-3" points="91.79 63.82 98.27 60.08 91.79 56.34 91.79 63.82"/><path class="cls-3" d="M12.34,63.25h-.87V56.31h.87v3.12h3.38V56.31h.88v6.94h-.88V60.18H12.34Z"/><path class="cls-3" d="M22.75,60.86a2.45,2.45,0,0,1-2.46,2.5,2.51,2.51,0,1,1,2.46-2.5Zm-4.07,0a1.62,1.62,0,0,0,1.63,1.78,1.65,1.65,0,0,0,1.63-1.78,1.64,1.64,0,1,0-3.26,0Z"/><path class="cls-3" d="M24.75,58.45v.67a1.48,1.48,0,0,1,1.36-.78,1.24,1.24,0,0,1,1.29.87,1.57,1.57,0,0,1,1.52-.87,1.43,1.43,0,0,1,1.22.51c.23.3.29.57.29,1.33v3.07h-.79V60.36c0-.58,0-.71-.14-.91a.92.92,0,0,0-.83-.41c-.7,0-1.08.47-1.08,1.32v2.89H26.8V60.38a1.75,1.75,0,0,0-.16-.92.83.83,0,0,0-.78-.42c-.7,0-1.11.5-1.11,1.34v2.87H24v-4.8Z"/><path class="cls-3" d="M32.45,61.1a1.48,1.48,0,0,0,.31.88,1.57,1.57,0,0,0,1.29.65,1.67,1.67,0,0,0,1.44-.82l.69.26a2.34,2.34,0,0,1-2.13,1.29,2.51,2.51,0,1,1,2.4-2.57c0,.06,0,.2,0,.31Zm3.16-.58a1.46,1.46,0,0,0-.27-.82A1.63,1.63,0,0,0,34,59a1.53,1.53,0,0,0-1.29.67,1.84,1.84,0,0,0-.27.81Z"/><path class="cls-3" d="M41.51,58.45v.87a1.87,1.87,0,0,1,1.75-1,2.27,2.27,0,0,1,2.26,2.47,2.31,2.31,0,0,1-2.26,2.55,2.26,2.26,0,0,1-1-.25,1.7,1.7,0,0,1-.7-.61v3h-.79v-7Zm0,2.48a1.57,1.57,0,0,0,1.58,1.74,1.63,1.63,0,0,0,1.59-1.83,1.86,1.86,0,0,0-.42-1.3,1.56,1.56,0,0,0-1.13-.5A1.68,1.68,0,0,0,41.51,60.93Z"/><path class="cls-3" d="M50.34,58.45h.79v4.8h-.79v-.93a2,2,0,0,1-1.75,1,2.3,2.3,0,0,1-2.26-2.5,2.33,2.33,0,0,1,2.28-2.52,2,2,0,0,1,1.73.9Zm-2.78,1.17a2.17,2.17,0,0,0-.4,1.26,1.64,1.64,0,0,0,1.54,1.79,1.77,1.77,0,0,0,1.65-1.87A1.62,1.62,0,0,0,48.72,59,1.29,1.29,0,0,0,47.56,59.62Z"/><path class="cls-3" d="M56.26,58.45h.79v4.83A2.27,2.27,0,0,1,56.42,65a2.52,2.52,0,0,1-1.77.63,2.72,2.72,0,0,1-2.13-.87l.54-.54a2.74,2.74,0,0,0,.46.41,2.3,2.3,0,0,0,1.13.28,1.72,1.72,0,0,0,1.24-.46,1.65,1.65,0,0,0,.37-1.15v-1a2,2,0,0,1-1.77,1,2.31,2.31,0,0,1-2.22-2.5,2.73,2.73,0,0,1,.76-2,2.1,2.1,0,0,1,1.52-.56,2,2,0,0,1,1.71.93Zm-3.15,2.38a1.65,1.65,0,0,0,1.57,1.8,1.58,1.58,0,0,0,1.21-.58,1.94,1.94,0,0,0,.35-1.19,1.7,1.7,0,0,0-.38-1.27,1.64,1.64,0,0,0-1.16-.53A1.61,1.61,0,0,0,53.11,60.83Z"/><path class="cls-3" d="M59.06,61.1a1.48,1.48,0,0,0,.31.88,1.57,1.57,0,0,0,1.29.65,1.67,1.67,0,0,0,1.44-.82l.69.26a2.34,2.34,0,0,1-2.13,1.29,2.51,2.51,0,1,1,2.4-2.57c0,.06,0,.2,0,.31Zm3.16-.58A1.46,1.46,0,0,0,62,59.7,1.63,1.63,0,0,0,60.63,59a1.53,1.53,0,0,0-1.29.67,1.84,1.84,0,0,0-.27.81Z"/><rect class="cls-3" x="223.85" y="59.27" width="33.42" height="0.75"/><polygon class="cls-3" points="256.18 63.38 262.65 59.64 256.18 55.9 256.18 63.38"/><rect class="cls-4" x="190.15" y="45.68" width="27.92" height="27.92" transform="translate(17.61 161.8) rotate(-45)"/><rect class="cls-5" x="190.15" y="45.68" width="27.92" height="27.92" transform="translate(17.61 161.8) rotate(-45)"/><path class="cls-3" d="M196,61.82a3.65,3.65,0,0,1-1.43.25,2.52,2.52,0,0,1-2.66-2.73,2.68,2.68,0,0,1,2.82-2.83,3,3,0,0,1,1.28.24l-.17.57a2.53,2.53,0,0,0-1.09-.22,2,2,0,0,0-2.1,2.22,2,2,0,0,0,2.07,2.17,2.7,2.7,0,0,0,1.13-.23Z"/><path class="cls-3" d="M196.82,56.31h.7v2.42h0a1.27,1.27,0,0,1,.5-.5,1.47,1.47,0,0,1,.72-.2c.52,0,1.35.32,1.35,1.66V62h-.7V59.77c0-.63-.23-1.15-.9-1.15a1,1,0,0,0-.94.7.87.87,0,0,0,0,.34V62h-.7Z"/><path class="cls-3" d="M204.76,60a1.89,1.89,0,0,1-1.93,2.06,1.84,1.84,0,0,1-1.85-2A1.89,1.89,0,0,1,202.9,58,1.83,1.83,0,0,1,204.76,60Zm-3.07,0c0,.85.49,1.49,1.17,1.49s1.18-.63,1.18-1.5c0-.66-.33-1.49-1.16-1.49S201.69,59.33,201.69,60.06Z"/><path class="cls-3" d="M209.15,60a1.89,1.89,0,0,1-1.93,2.06,1.84,1.84,0,0,1-1.85-2A1.89,1.89,0,0,1,207.29,58,1.83,1.83,0,0,1,209.15,60Zm-3.07,0c0,.85.49,1.49,1.18,1.49s1.17-.63,1.17-1.5c0-.66-.33-1.49-1.16-1.49S206.08,59.33,206.08,60.06Z"/><path class="cls-3" d="M209.94,61.27a1.83,1.83,0,0,0,.93.28c.51,0,.75-.26.75-.57s-.2-.52-.72-.72c-.69-.24-1-.63-1-1.09A1.2,1.2,0,0,1,211.22,58a2,2,0,0,1,.95.24l-.18.52a1.45,1.45,0,0,0-.79-.23c-.42,0-.65.24-.65.53s.23.46.74.65c.67.26,1,.6,1,1.17s-.52,1.16-1.44,1.16a2.19,2.19,0,0,1-1.09-.26Z"/><path class="cls-3" d="M213.6,60.18a1.25,1.25,0,0,0,1.33,1.35,2.57,2.57,0,0,0,1.07-.2l.12.5a3.17,3.17,0,0,1-1.29.24,1.79,1.79,0,0,1-1.9-2A1.88,1.88,0,0,1,214.74,58a1.64,1.64,0,0,1,1.6,1.83,2.33,2.33,0,0,1,0,.32Zm2.06-.5a1,1,0,0,0-1-1.14,1.16,1.16,0,0,0-1.08,1.14Z"/><rect class="cls-3" x="657.07" y="59.7" width="17.87" height="0.75"/><polygon class="cls-3" points="673.84 63.82 680.32 60.08 673.84 56.34 673.84 63.82"/><rect class="cls-4" x="686.1" y="46.25" width="27.92" height="27.92" transform="translate(162.47 512.65) rotate(-45)"/><rect class="cls-5" x="686.1" y="46.25" width="27.92" height="27.92" transform="translate(162.47 512.65) rotate(-45)"/><path class="cls-3" d="M691.91,62.38a3.35,3.35,0,0,1-1.42.26,2.52,2.52,0,0,1-2.66-2.73,2.68,2.68,0,0,1,2.81-2.83,3,3,0,0,1,1.28.24l-.17.57a2.48,2.48,0,0,0-1.08-.22,2,2,0,0,0-2.11,2.22,2,2,0,0,0,2.08,2.16,2.71,2.71,0,0,0,1.13-.22Z"/><path class="cls-3" d="M692.76,56.88h.71V59.3h0a1.36,1.36,0,0,1,.51-.5,1.41,1.41,0,0,1,.72-.2c.52,0,1.35.32,1.35,1.66v2.3h-.71V60.34c0-.63-.23-1.16-.89-1.16a1,1,0,0,0-.94.71.82.82,0,0,0,0,.33v2.34h-.71Z"/><path class="cls-3" d="M700.71,60.59a1.9,1.9,0,0,1-1.93,2.06,1.84,1.84,0,0,1-1.86-2,1.89,1.89,0,0,1,1.92-2.06A1.84,1.84,0,0,1,700.71,60.59Zm-3.07,0c0,.85.48,1.49,1.17,1.49s1.18-.63,1.18-1.5c0-.66-.33-1.49-1.16-1.49S697.64,59.9,697.64,60.63Z"/><path class="cls-3" d="M705.1,60.59a1.9,1.9,0,0,1-1.93,2.06,1.84,1.84,0,0,1-1.85-2,1.89,1.89,0,0,1,1.91-2.06A1.83,1.83,0,0,1,705.1,60.59Zm-3.07,0c0,.85.49,1.49,1.17,1.49s1.18-.63,1.18-1.5c0-.66-.33-1.49-1.16-1.49S702,59.9,702,60.63Z"/><path class="cls-3" d="M705.89,61.84a1.83,1.83,0,0,0,.93.28c.51,0,.75-.26.75-.58s-.2-.52-.72-.71c-.69-.25-1-.63-1-1.09a1.19,1.19,0,0,1,1.33-1.14,1.93,1.93,0,0,1,1,.24l-.18.51a1.55,1.55,0,0,0-.79-.22c-.42,0-.65.24-.65.53s.23.46.74.65c.67.26,1,.59,1,1.17s-.53,1.16-1.45,1.16a2.18,2.18,0,0,1-1.08-.26Z"/><path class="cls-3" d="M709.55,60.75a1.23,1.23,0,0,0,1.33,1.34A2.63,2.63,0,0,0,712,61.9l.12.5a3.21,3.21,0,0,1-1.29.24,1.79,1.79,0,0,1-1.9-2,1.87,1.87,0,0,1,1.81-2.09,1.64,1.64,0,0,1,1.6,1.82c0,.15,0,.26,0,.33Zm2.06-.5a1,1,0,0,0-1-1.15,1.16,1.16,0,0,0-1.08,1.15Z"/><polygon class="cls-3" points="257.27 105.86 231.62 105.86 231.62 14.3 257.27 14.3 257.27 15.05 232.37 15.05 232.37 105.11 257.27 105.11 257.27 105.86"/><polygon class="cls-3" points="256.18 10.93 262.65 14.67 256.18 18.41 256.18 10.93"/><polygon class="cls-3" points="256.18 109.22 262.65 105.48 256.18 101.74 256.18 109.22"/><polygon class="cls-3" points="747.32 75.92 727.83 75.92 727.83 44.5 747.32 44.5 747.32 45.25 728.58 45.25 728.58 75.17 747.32 75.17 747.32 75.92"/><polygon class="cls-3" points="746.22 41.14 752.7 44.88 746.22 48.62 746.22 41.14"/><polygon class="cls-3" points="746.22 79.28 752.7 75.54 746.22 71.8 746.22 79.28"/><polygon class="cls-3" points="410.79 105.86 362.38 105.86 362.38 105.11 410.04 105.11 410.04 15.05 363.63 15.05 363.63 14.3 410.79 14.3 410.79 105.86"/><rect class="cls-3" x="362.96" y="59.7" width="47.46" height="0.75"/><rect class="cls-3" x="410.65" y="59.7" width="21.98" height="0.75"/><polygon class="cls-3" points="431.54 56.34 438.02 60.08 431.54 63.82 431.54 56.34"/><circle class="cls-3" cx="410.79" cy="60.08" r="2.82"/><rect class="cls-3" x="719.8" y="59.84" width="8.4" height="0.75"/><polygon class="cls-3" points="875.67 75.92 853 75.92 853 75.17 874.92 75.17 874.92 43.4 853 43.4 853 42.65 875.67 42.65 875.67 75.92"/></g></g></svg>