<svg xmlns="http://www.w3.org/2000/svg" viewBox="0 0 329.92 88.53"><defs><style>.cls-1{fill:blue;}.cls-2{fill:#221f20;}.cls-3{fill:#f0ede8;}.cls-4{fill:#6ba332;opacity:0.5;}</style></defs><title>flow4desktop</title><g id="Layer_2" data-name="Layer 2"><g id="Layer_1-2" data-name="Layer 1"><path class="cls-1" d="M170.38,29.35H112.69V0h57.69Zm-56.69-1h55.69V1H113.69Z"/><path class="cls-2" d="M131.94,16.6a3.07,3.07,0,0,1-2.54,1.17,3.1,3.1,0,0,1-2.39-1,3.92,3.92,0,0,1-.92-2.57,3.36,3.36,0,0,1,3.32-3.6,3.43,3.43,0,0,1,1.74.47,4.06,4.06,0,0,1,.81.72l-.61.56a2.43,2.43,0,0,0-1.92-.95,2.56,2.56,0,0,0-2.45,2.8A2.57,2.57,0,0,0,129.47,17a2.3,2.3,0,0,0,1.88-.95Z"/><path class="cls-2" d="M137.45,15.27A2.44,2.44,0,0,1,135,17.76a2.37,2.37,0,0,1-2.43-2.51,2.44,2.44,0,1,1,4.88,0Zm-4.07,0A1.63,1.63,0,0,0,135,17a1.64,1.64,0,0,0,1.62-1.78A1.61,1.61,0,0,0,135,13.47,1.63,1.63,0,0,0,133.38,15.26Z"/><path class="cls-2" d="M139.45,12.85v.68a1.65,1.65,0,0,1,1.43-.79,1.67,1.67,0,0,1,1.11.39,1.57,1.57,0,0,1,.41,1.28v3.24h-.79V14.59a1.32,1.32,0,0,0-.18-.82.93.93,0,0,0-.75-.32,1.19,1.19,0,0,0-.92.4,1.14,1.14,0,0,0-.31.88v2.92h-.79v-4.8Z"/><path class="cls-2" d="M144.8,16.67c0,.24.07.29.36.29h.37v.69h-.74c-.56,0-.78-.22-.78-.75V13.55h-.67v-.7H144V11.34h.79v1.51h.73v.7h-.73Z"/><path class="cls-2" d="M150.18,12.85H151v4.8h-.79v-.93a2,2,0,0,1-1.75,1,2.29,2.29,0,0,1-2.26-2.49,2.33,2.33,0,0,1,2.28-2.53,2,2,0,0,1,1.73.9ZM147.4,14a2.17,2.17,0,0,0-.39,1.27,1.64,1.64,0,0,0,1.54,1.79,1.78,1.78,0,0,0,1.64-1.88,1.61,1.61,0,0,0-1.62-1.75A1.3,1.3,0,0,0,147.4,14Z"/><path class="cls-2" d="M156.3,17.06a2.48,2.48,0,0,1-1.77.7,2.33,2.33,0,0,1-2.35-2.49,2.42,2.42,0,0,1,4.14-1.81l-.51.51a1.73,1.73,0,0,0-1.22-.5,1.61,1.61,0,0,0-1.6,1.77,1.63,1.63,0,0,0,1.59,1.8,1.68,1.68,0,0,0,1.23-.53Z"/><path class="cls-2" d="M158.34,16.67c0,.24.07.29.36.29h.37v.69h-.74c-.56,0-.78-.22-.78-.75V13.55h-.67v-.7h.67V11.34h.79v1.51h.73v.7h-.73Z"/><rect class="cls-3" x="113.14" y="60.18" width="103.35" height="28.35"/><path class="cls-2" d="M129.62,77.39h-.87V70.45h1.85c1.65,0,2.55.75,2.55,2.12a2.16,2.16,0,0,1-.74,1.69,2.62,2.62,0,0,1-1.71.48h-1.08Zm.91-3.4a2.32,2.32,0,0,0,.86-.13,1.32,1.32,0,0,0,.88-1.27,1.29,1.29,0,0,0-.89-1.26,2.91,2.91,0,0,0-1-.13h-.79V74Z"/><path class="cls-2" d="M135,71.25a.5.5,0,0,1-.51.5.51.51,0,0,1,0-1A.51.51,0,0,1,135,71.25Zm-.12,6.14h-.79v-4.8h.79Z"/><path class="cls-2" d="M140.23,76.8a2.48,2.48,0,0,1-1.77.7A2.33,2.33,0,0,1,136.11,75a2.42,2.42,0,0,1,4.14-1.81l-.51.51a1.73,1.73,0,0,0-1.22-.5,1.61,1.61,0,0,0-1.6,1.76,1.62,1.62,0,0,0,1.59,1.8,1.67,1.67,0,0,0,1.23-.52Z"/><path class="cls-2" d="M141.93,77.39h-.8V70.45h.8v4.24l1.91-2.1h1l-2.15,2.34,2.14,2.46h-1l-1.91-2.14Z"/><path class="cls-2" d="M152.47,72.59v3.07A1.59,1.59,0,0,1,152,77a2,2,0,0,1-1.39.5,2,2,0,0,1-1.38-.51,1.76,1.76,0,0,1-.48-1.33V72.59h.79v3a1.07,1.07,0,0,0,1.07,1.16,1.14,1.14,0,0,0,.86-.37,1.09,1.09,0,0,0,.21-.77V72.59Z"/><path class="cls-2" d="M154.72,72.59v.88a1.84,1.84,0,0,1,1.74-1A2.27,2.27,0,0,1,158.72,75a2.29,2.29,0,0,1-3.31,2.3,1.68,1.68,0,0,1-.69-.61v3h-.8v-7Zm0,2.48a1.58,1.58,0,0,0,1.58,1.75A1.64,1.64,0,0,0,157.88,75a1.88,1.88,0,0,0-.42-1.3,1.56,1.56,0,0,0-1.13-.5A1.67,1.67,0,0,0,154.72,75.07Z"/><path class="cls-2" d="M163,77.39V70.45h.79v6.94Z"/><path class="cls-2" d="M169.92,75a2.45,2.45,0,0,1-2.46,2.49A2.51,2.51,0,1,1,169.92,75Zm-4.07,0a1.62,1.62,0,0,0,1.63,1.77A1.64,1.64,0,0,0,169.11,75a1.64,1.64,0,1,0-3.26,0Z"/><path class="cls-2" d="M174.86,76.8a2.48,2.48,0,0,1-1.77.7A2.33,2.33,0,0,1,170.74,75a2.42,2.42,0,0,1,4.14-1.81l-.51.51a1.72,1.72,0,0,0-1.21-.5A1.61,1.61,0,0,0,171.55,75a1.63,1.63,0,0,0,2.82,1.28Z"/><path class="cls-2" d="M179.35,72.59h.79v4.8h-.79v-.93a2,2,0,0,1-1.75,1A2.29,2.29,0,0,1,175.34,75a2.33,2.33,0,0,1,2.28-2.53,2,2,0,0,1,1.73.9Zm-2.78,1.17a2.18,2.18,0,0,0-.4,1.27,1.65,1.65,0,0,0,1.54,1.79,1.78,1.78,0,0,0,1.65-1.88,1.62,1.62,0,0,0-1.63-1.76A1.29,1.29,0,0,0,176.57,73.76Z"/><path class="cls-2" d="M182.54,76.41c0,.24.08.29.37.29h.36v.69h-.74c-.56,0-.78-.22-.78-.75V73.29h-.66v-.7h.66V71.08h.79v1.51h.73v.7h-.73Z"/><path class="cls-2" d="M185.23,71.25a.5.5,0,0,1-.51.5.51.51,0,0,1,0-1A.51.51,0,0,1,185.23,71.25Zm-.12,6.14h-.79v-4.8h.79Z"/><path class="cls-2" d="M191.2,75a2.44,2.44,0,0,1-2.45,2.49A2.51,2.51,0,1,1,191.2,75Zm-4.07,0a1.62,1.62,0,0,0,1.64,1.77A1.64,1.64,0,0,0,190.39,75a1.64,1.64,0,1,0-3.26,0Z"/><path class="cls-2" d="M193.2,72.59v.68a1.65,1.65,0,0,1,1.43-.79,1.67,1.67,0,0,1,1.11.39,1.57,1.57,0,0,1,.4,1.28v3.24h-.79V74.33a1.33,1.33,0,0,0-.17-.82.93.93,0,0,0-.75-.33,1.2,1.2,0,0,0-.92.41,1.13,1.13,0,0,0-.31.87v2.93h-.79v-4.8Z"/><path class="cls-2" d="M199.92,73.9v-.05c0-.45-.36-.73-.91-.73s-.87.27-.87.69.21.57,1.07.81a2.48,2.48,0,0,1,1.17.55,1.34,1.34,0,0,1,.39.94c0,.83-.69,1.39-1.71,1.39S197.35,77,197.27,76h.78a.88.88,0,0,0,1,.83c.54,0,.89-.28.89-.71s-.27-.62-1.09-.83c-1-.28-1.51-.72-1.51-1.45s.68-1.39,1.69-1.39a1.46,1.46,0,0,1,1.67,1.42Z"/><rect class="cls-4" y="28.85" width="75.75" height="31.48" rx="15.74"/><path class="cls-2" d="M13.2,47.62h-.87V40.68h.87V43.8h3.39V40.68h.87v6.94h-.87V44.55H13.2Z"/><path class="cls-2" d="M23.61,45.24a2.45,2.45,0,0,1-2.46,2.5,2.52,2.52,0,1,1,2.46-2.5Zm-4.07,0A1.63,1.63,0,0,0,21.18,47a1.64,1.64,0,0,0,1.62-1.78,1.64,1.64,0,1,0-3.26,0Z"/><path class="cls-2" d="M25.61,42.83v.66A1.49,1.49,0,0,1,27,42.71a1.24,1.24,0,0,1,1.29.87,1.58,1.58,0,0,1,1.52-.87,1.46,1.46,0,0,1,1.22.51c.23.3.29.57.29,1.33v3.07H30.5V44.74c0-.58,0-.72-.14-.92a.92.92,0,0,0-.83-.4c-.7,0-1.08.47-1.08,1.32v2.88h-.79V44.75a1.75,1.75,0,0,0-.16-.92.81.81,0,0,0-.78-.41c-.7,0-1.11.5-1.11,1.33v2.87h-.79V42.83Z"/><path class="cls-2" d="M33.31,45.48a1.47,1.47,0,0,0,.31.87,1.55,1.55,0,0,0,1.29.66,1.65,1.65,0,0,0,1.44-.82l.7.26a2.47,2.47,0,1,1-2.17-3.74,2.39,2.39,0,0,1,2.44,2.46c0,.06,0,.19,0,.31Zm3.16-.58a1.46,1.46,0,0,0-.27-.83,1.65,1.65,0,0,0-1.32-.65,1.55,1.55,0,0,0-1.29.66,2,2,0,0,0-.27.82Z"/><path class="cls-2" d="M42.37,42.83v.87a1.86,1.86,0,0,1,1.75-1,2.27,2.27,0,0,1,2.26,2.48,2.31,2.31,0,0,1-2.26,2.55,2.39,2.39,0,0,1-1-.25,1.74,1.74,0,0,1-.7-.62v3h-.79v-7Zm0,2.47A1.58,1.58,0,0,0,44,47.05a1.63,1.63,0,0,0,1.58-1.83,1.86,1.86,0,0,0-.42-1.3,1.56,1.56,0,0,0-1.13-.5A1.68,1.68,0,0,0,42.37,45.3Z"/><path class="cls-2" d="M51.2,42.83H52v4.79H51.2V46.7a2,2,0,0,1-1.75,1,2.3,2.3,0,0,1-2.26-2.5,2.33,2.33,0,0,1,2.28-2.53,2,2,0,0,1,1.73.91ZM48.42,44a2.18,2.18,0,0,0-.4,1.27,1.65,1.65,0,0,0,1.54,1.79,1.77,1.77,0,0,0,1.65-1.87,1.62,1.62,0,0,0-1.62-1.76A1.32,1.32,0,0,0,48.42,44Z"/><path class="cls-2" d="M57.12,42.83h.79v4.82a2.24,2.24,0,0,1-.63,1.76,2.46,2.46,0,0,1-1.77.64,2.67,2.67,0,0,1-2.12-.88l.54-.54a3,3,0,0,0,.45.42,2.42,2.42,0,0,0,1.13.28,1.75,1.75,0,0,0,1.25-.47,1.62,1.62,0,0,0,.36-1.14v-1a2,2,0,0,1-1.77,1,2.31,2.31,0,0,1-2.21-2.5,2.76,2.76,0,0,1,.76-2,2.1,2.1,0,0,1,1.51-.56,1.93,1.93,0,0,1,1.71.94ZM54,45.21a1.58,1.58,0,0,0,2.79,1.22,1.94,1.94,0,0,0,.34-1.19A1.68,1.68,0,0,0,56.73,44a1.66,1.66,0,0,0-1.17-.53A1.61,1.61,0,0,0,54,45.21Z"/><path class="cls-2" d="M59.92,45.48a1.47,1.47,0,0,0,.31.87,1.55,1.55,0,0,0,1.29.66A1.65,1.65,0,0,0,63,46.19l.7.26a2.47,2.47,0,1,1-2.17-3.74,2.39,2.39,0,0,1,2.44,2.46c0,.06,0,.19,0,.31Zm3.16-.58a1.46,1.46,0,0,0-.27-.83,1.65,1.65,0,0,0-1.32-.65,1.55,1.55,0,0,0-1.29.66,2,2,0,0,0-.27.82Z"/><rect class="cls-4" x="254.18" y="28.85" width="75.75" height="31.48" rx="15.74"/><path class="cls-2" d="M275.89,46l-.63,1.6h-.91L277,40.68h1l2.55,6.94h-1L279,46Zm1.58-4.23-1.32,3.48h2.58Z"/><path class="cls-2" d="M285,40.68h.79v6.94H285V46.8a2,2,0,0,1-1.72.94A2.29,2.29,0,0,1,281,45.25a2.35,2.35,0,0,1,2.26-2.54,2.07,2.07,0,0,1,1.72.84Zm-3.15,4.58a1.61,1.61,0,0,0,1.55,1.79,1.67,1.67,0,0,0,1.6-1.81,1.62,1.62,0,0,0-1.55-1.82A1.65,1.65,0,0,0,281.81,45.26Z"/><path class="cls-2" d="M290.93,40.68h.79v6.94h-.79V46.8a2,2,0,0,1-1.72.94A2.28,2.28,0,0,1,287,45.25a2.34,2.34,0,0,1,2.25-2.54,2.07,2.07,0,0,1,1.72.84Zm-3.14,4.58a1.61,1.61,0,0,0,1.54,1.79,1.66,1.66,0,0,0,1.6-1.81,1.62,1.62,0,0,0-1.55-1.82A1.64,1.64,0,0,0,287.79,45.26Z"/><path class="cls-2" d="M294.11,42.83v.81a1.37,1.37,0,0,1,.43-.64,1.57,1.57,0,0,1,.92-.29h.19v.8h-.22a1.23,1.23,0,0,0-1,.55,1.78,1.78,0,0,0-.28,1.14v2.43h-.8V42.83Z"/><path class="cls-2" d="M296.9,45.48A1.64,1.64,0,0,0,298.51,47a1.65,1.65,0,0,0,1.43-.82l.7.26a2.35,2.35,0,0,1-2.13,1.29,2.52,2.52,0,1,1,2.4-2.57c0,.06,0,.19,0,.31Zm3.17-.58a1.54,1.54,0,0,0-.27-.83,1.65,1.65,0,0,0-1.32-.65,1.55,1.55,0,0,0-1.29.66,1.84,1.84,0,0,0-.27.82Z"/><path class="cls-2" d="M304.25,44.14v-.06c0-.44-.36-.72-.91-.72s-.87.27-.87.68.21.58,1.07.81a2.48,2.48,0,0,1,1.17.56,1.33,1.33,0,0,1,.39.93c0,.84-.69,1.4-1.71,1.4s-1.71-.51-1.79-1.48h.78a.88.88,0,0,0,1,.83c.54,0,.89-.28.89-.71s-.27-.62-1.09-.83c-1-.28-1.51-.72-1.51-1.44s.68-1.4,1.69-1.4A1.46,1.46,0,0,1,305,44.14Z"/><path class="cls-2" d="M308.53,44.14v-.06c0-.44-.36-.72-.92-.72s-.86.27-.86.68.21.58,1.07.81a2.48,2.48,0,0,1,1.17.56,1.32,1.32,0,0,1,.38.93c0,.84-.68,1.4-1.7,1.4s-1.71-.51-1.79-1.48h.78a.88.88,0,0,0,1,.83c.54,0,.89-.28.89-.71s-.27-.62-1.09-.83c-1-.28-1.51-.72-1.51-1.44s.68-1.4,1.69-1.4a1.46,1.46,0,0,1,1.67,1.43Z"/><rect class="cls-2" x="75.75" y="44.21" width="22.52" height="0.75"/><polygon class="cls-2" points="107.76 74.73 97.81 74.73 97.81 14.3 107.76 14.3 107.76 15.05 98.56 15.05 98.56 73.98 107.76 73.98 107.76 74.73"/><polygon class="cls-2" points="106.67 10.93 113.14 14.67 106.67 18.41 106.67 10.93"/><polygon class="cls-2" points="106.67 78.09 113.14 74.35 106.67 70.61 106.67 78.09"/><rect class="cls-2" x="232.08" y="44.06" width="16.46" height="0.75"/><polygon class="cls-2" points="247.44 40.7 253.92 44.44 247.44 48.18 247.44 40.7"/><circle class="cls-2" cx="232.22" cy="44.44" r="2.82"/><polygon class="cls-2" points="231.85 74.73 216.53 74.73 216.53 73.98 231.1 73.98 231.1 15.05 169.88 15.05 169.88 14.3 231.85 14.3 231.85 74.73"/></g></g></svg>