<svg xmlns="http://www.w3.org/2000/svg" viewBox="0 0 472.55 266.25"><defs><style>.cls-1{fill:#fff;}.cls-2,.cls-3{fill:none;stroke:#000;stroke-miterlimit:10;}.cls-2{stroke-width:0.3px;}.cls-3{stroke-width:0.2px;}</style></defs><title>laptop</title><g id="Layer_2" data-name="Layer 2"><g id="Layer_2-2" data-name="Layer 2"><path class="cls-1" d="M424.31,255.39a10,10,0,0,0,10-10V10.15a10,10,0,0,0-10-10H48.24a10,10,0,0,0-10,10V245.39a10,10,0,0,0,10,10H.1v3.91s43,6.85,114.42,6.85H358c71.39,0,114.42-6.85,114.42-6.85v-3.91Z"/><rect class="cls-2" x="38.24" y="0.15" width="396.07" height="255.24" rx="10"/><rect class="cls-3" x="56.82" y="16.77" width="358.9" height="224.93"/><rect class="cls-3" x="0.1" y="255.39" width="472.35" height="3.91"/><path class="cls-3" d="M.1,259.3s43,6.85,114.42,6.85H358c71.39,0,114.42-6.85,114.42-6.85Z"/><rect class="cls-3" x="194.22" y="255.39" width="84.1" height="3.91" rx="1.23"/></g></g></svg>