<svg xmlns="http://www.w3.org/2000/svg" xmlns:xlink="http://www.w3.org/1999/xlink" viewBox="0 0 226.31 285.83"><defs><style>.cls-1{fill:none;}.cls-2{fill:#2a2d7d;}.cls-3{fill:#580000;}.cls-4{fill:#ff3351;}.cls-5{fill:#ff6262;}.cls-6{fill:#ff4344;}.cls-10,.cls-6{opacity:0.5;isolation:isolate;}.cls-7{fill:#ffd1d1;}.cls-8{fill:#bf7fb9;}.cls-9{clip-path:url(#clip-path);}.cls-10{fill:#970076;}.cls-11{fill:#fff;}</style><clipPath id="clip-path"><rect class="cls-1" x="159.94" y="61" width="66.4" height="146.5"/></clipPath></defs><title>colorpalettemobile</title><g id="Layer_2" data-name="Layer 2"><g id="Layer_1-2" data-name="Layer 1"><path d="M62.44,10.7h-1.8l-.7,2.8h1.9v.8h-2.1L59,17.2h-.8l.7-2.9h-2.6l-.7,2.9h-.8l.7-2.9h-1.6v-.8h1.8l.7-2.7h-1.8V10h2l.7-2.8h.8l-.8,2.8h2.6l.7-2.8h.8l-.7,2.8h1.6v.7Zm-3.3,2.8.7-2.7h-2.7l-.7,2.7Zm7.7-.7a5.07,5.07,0,0,1,1.3.2,3.33,3.33,0,0,1,1,.6,3.59,3.59,0,0,1,.7,1,3,3,0,0,1,0,2.6,2.55,2.55,0,0,1-.7,1,4.13,4.13,0,0,1-1.1.7,3,3,0,0,1-1.3.2,3.08,3.08,0,0,1-1-.1,3.55,3.55,0,0,1-.9-.4,4.35,4.35,0,0,1-.7-.6,2.18,2.18,0,0,1-.5-.8l.6-.5a2.91,2.91,0,0,0,1.1,1.1,2.82,2.82,0,0,0,1.5.4,3.55,3.55,0,0,0,1-.2,2.1,2.1,0,0,0,1.3-1.3,3,3,0,0,0,.2-1,2.39,2.39,0,0,0-.2-.9,1.79,1.79,0,0,0-.5-.7,2.18,2.18,0,0,0-.8-.5,2.92,2.92,0,0,0-.9-.2,3.08,3.08,0,0,0-1.3.3,2.36,2.36,0,0,0-.9.8h-.9a.76.76,0,0,1,.1-.4c0-.2.1-.4.1-.7s.1-.6.2-.9.1-.7.2-1c.2-.8.3-1.7.5-2.6h4.8V10h-4.1l-.7,3.6a1.46,1.46,0,0,1,.9-.6A2.51,2.51,0,0,1,66.84,12.8Zm11.4,1.6a2.66,2.66,0,0,1-.3,1.2,3.24,3.24,0,0,1-.8.9,3.88,3.88,0,0,1-1.1.6,4.65,4.65,0,0,1-2.7,0,10.91,10.91,0,0,1-1.1-.6,5.5,5.5,0,0,1-.7-.9,2,2,0,0,1-.3-1.1,2.92,2.92,0,0,1,.2-.9,1.79,1.79,0,0,1,.5-.7,2.65,2.65,0,0,1,.6-.5,2.51,2.51,0,0,1,.7-.4l-.6-.3a1.21,1.21,0,0,1-.5-.5c-.1-.2-.3-.4-.4-.6a1.48,1.48,0,0,1-.1-.7,2,2,0,0,1,.3-1.1,2.7,2.7,0,0,1,.7-.8,3.13,3.13,0,0,1,1-.5,3.12,3.12,0,0,1,2.2,0,3.13,3.13,0,0,1,1,.5,2.7,2.7,0,0,1,.7.8,1,1,0,0,1,.4.9,1.7,1.7,0,0,1-.1.7,2.09,2.09,0,0,1-.4.6c-.1.2-.3.3-.5.5l-.6.3a3,3,0,0,1,.8.4c.2.2.5.3.6.6a2.51,2.51,0,0,1,.4.7A2.77,2.77,0,0,1,78.24,14.4Zm-.9-.1a2.92,2.92,0,0,0-.2-.9,1.34,1.34,0,0,0-.6-.7,2,2,0,0,0-.8-.4,2.77,2.77,0,0,0-.9-.1,2.92,2.92,0,0,0-.9.2,2,2,0,0,0-.8.4,4.35,4.35,0,0,0-.6.7,1.49,1.49,0,0,0-.2.9,2.92,2.92,0,0,0,.2.9.9.9,0,0,0,.6.6,2,2,0,0,0,.8.4,4.1,4.1,0,0,0,1.8,0,2,2,0,0,0,.8-.4,4.35,4.35,0,0,0,.6-.7A2.92,2.92,0,0,0,77.34,14.3Zm-4.7-4.5a1.45,1.45,0,0,0,.2.7,1.21,1.21,0,0,0,.5.5,4.88,4.88,0,0,0,.7.3,2.2,2.2,0,0,0,.8.1,1.7,1.7,0,0,0,.7-.1,4.88,4.88,0,0,0,.7-.3,1.21,1.21,0,0,0,.5-.5,1,1,0,0,0,.2-.7,1.45,1.45,0,0,0-.2-.7,1.21,1.21,0,0,0-.5-.5,1.49,1.49,0,0,0-.7-.3,2.2,2.2,0,0,0-.8-.1,2,2,0,0,0-.8.1,4.88,4.88,0,0,0-.7.3,1.21,1.21,0,0,0-.5.5C72.74,9.3,72.64,9.5,72.64,9.8ZM86.84,13a4.67,4.67,0,0,1-.3,1.7,4,4,0,0,1-.7,1.3,3.13,3.13,0,0,1-1.1.9,3.42,3.42,0,0,1-2.8,0,3.13,3.13,0,0,1-1.1-.9,3.29,3.29,0,0,1-.7-1.3,5,5,0,0,1,0-3.4,4,4,0,0,1,.7-1.3,3.13,3.13,0,0,1,1.1-.9,3.42,3.42,0,0,1,2.8,0,3.13,3.13,0,0,1,1.1.9,3.29,3.29,0,0,1,.7,1.3A5.08,5.08,0,0,1,86.84,13Zm-1,0a5.9,5.9,0,0,0-.2-1.4,3.7,3.7,0,0,0-.5-1.1,2.7,2.7,0,0,0-.8-.7,1.69,1.69,0,0,0-1-.3,2.28,2.28,0,0,0-1.1.3,2.7,2.7,0,0,0-.8.7,2.81,2.81,0,0,0-.5,1.1,5.9,5.9,0,0,0-.2,1.4,5.9,5.9,0,0,0,.2,1.4,3.7,3.7,0,0,0,.5,1.1,2.7,2.7,0,0,0,.8.7,2,2,0,0,0,1.1.2,3,3,0,0,0,1-.2,2.7,2.7,0,0,0,.8-.7,3.7,3.7,0,0,0,.5-1.1A3.18,3.18,0,0,0,85.84,13Zm9.6,0a4.67,4.67,0,0,1-.3,1.7,4,4,0,0,1-.7,1.3,3.13,3.13,0,0,1-1.1.9,3.42,3.42,0,0,1-2.8,0,3.13,3.13,0,0,1-1.1-.9,3.29,3.29,0,0,1-.7-1.3,5,5,0,0,1,0-3.4,4,4,0,0,1,.7-1.3,3.13,3.13,0,0,1,1.1-.9,3.42,3.42,0,0,1,2.8,0,3.13,3.13,0,0,1,1.1.9,3.29,3.29,0,0,1,.7,1.3A5.08,5.08,0,0,1,95.44,13Zm-1,0a5.9,5.9,0,0,0-.2-1.4,3.7,3.7,0,0,0-.5-1.1,2.7,2.7,0,0,0-.8-.7,1.82,1.82,0,0,0-2,0,2.7,2.7,0,0,0-.8.7,2.81,2.81,0,0,0-.5,1.1,5.9,5.9,0,0,0-.2,1.4,5.9,5.9,0,0,0,.2,1.4,3.7,3.7,0,0,0,.5,1.1,2.7,2.7,0,0,0,.8.7,1.8,1.8,0,0,0,1,.2,3,3,0,0,0,1-.2,2.7,2.7,0,0,0,.8-.7,3.7,3.7,0,0,0,.5-1.1A3.18,3.18,0,0,0,94.44,13Zm9.6,0a4.67,4.67,0,0,1-.3,1.7A4,4,0,0,1,103,16a3.13,3.13,0,0,1-1.1.9,3.42,3.42,0,0,1-2.8,0A3.13,3.13,0,0,1,98,16a3.29,3.29,0,0,1-.7-1.3,5,5,0,0,1,0-3.4A4,4,0,0,1,98,10a3.13,3.13,0,0,1,1.1-.9,3.42,3.42,0,0,1,2.8,0,3.13,3.13,0,0,1,1.1.9,3.29,3.29,0,0,1,.7,1.3A5.08,5.08,0,0,1,104,13Zm-1,0a5.9,5.9,0,0,0-.2-1.4,3.7,3.7,0,0,0-.5-1.1,2.7,2.7,0,0,0-.8-.7,1.69,1.69,0,0,0-1-.3,2.28,2.28,0,0,0-1.1.3,2.7,2.7,0,0,0-.8.7,2.81,2.81,0,0,0-.5,1.1,6.75,6.75,0,0,0-.2,1.4,5.9,5.9,0,0,0,.2,1.4,3.7,3.7,0,0,0,.5,1.1,2.7,2.7,0,0,0,.8.7,2,2,0,0,0,1.1.2,3,3,0,0,0,1-.2,2.7,2.7,0,0,0,.8-.7,3.7,3.7,0,0,0,.5-1.1A3.18,3.18,0,0,0,103,13Zm9.6,0a4.67,4.67,0,0,1-.3,1.7,4,4,0,0,1-.7,1.3,3.13,3.13,0,0,1-1.1.9,3.42,3.42,0,0,1-2.8,0,3.13,3.13,0,0,1-1.1-.9,3.29,3.29,0,0,1-.7-1.3,5,5,0,0,1,0-3.4,4,4,0,0,1,.7-1.3,3.13,3.13,0,0,1,1.1-.9,3.42,3.42,0,0,1,2.8,0,3.13,3.13,0,0,1,1.1.9,3.29,3.29,0,0,1,.7,1.3A5.08,5.08,0,0,1,112.64,13Zm-.9,0a5.9,5.9,0,0,0-.2-1.4,3.7,3.7,0,0,0-.5-1.1,2.7,2.7,0,0,0-.8-.7,1.82,1.82,0,0,0-2,0,2.7,2.7,0,0,0-.8.7,2.81,2.81,0,0,0-.5,1.1,5.9,5.9,0,0,0-.2,1.4,5.9,5.9,0,0,0,.2,1.4,3.7,3.7,0,0,0,.5,1.1,2.7,2.7,0,0,0,.8.7,1.8,1.8,0,0,0,1,.2,3,3,0,0,0,1-.2,2.7,2.7,0,0,0,.8-.7,3.7,3.7,0,0,0,.5-1.1A5.9,5.9,0,0,0,111.74,13Z"/><path d="M62.44,54.2h-1.8l-.7,2.7h1.9v.8h-2.1L59,60.6h-.8l.7-2.9h-2.6l-.7,2.9h-.8l.7-2.9h-1.6v-.8h1.8l.7-2.7h-1.8v-.7h2l.7-2.8h.8l-.7,2.8h2.5l.7-2.8h.8l-.7,2.8h1.6v.7Zm-3.3,2.7.7-2.7h-2.7l-.7,2.7Zm4.5,3.7a3.4,3.4,0,0,1,.1-1,4.18,4.18,0,0,1,.4-1,5.5,5.5,0,0,1,.7-.9,3.6,3.6,0,0,1,1.2-.8c.3-.1.5-.3.8-.4a2.18,2.18,0,0,0,.8-.5c.2-.2.5-.4.6-.6a.91.91,0,0,0,.3-.7.75.75,0,0,0-.1-.5c-.1-.2-.2-.3-.3-.5a.85.85,0,0,0-.6-.3,3.25,3.25,0,0,0-1.6,0,3.33,3.33,0,0,0-.6.3c-.2.1-.3.3-.5.4l-.3.3-.6-.7.3-.3c.2-.1.4-.3.6-.4s.6-.3.9-.4a5,5,0,0,1,1.2-.2,3.59,3.59,0,0,1,1.1.2,4.05,4.05,0,0,1,.9.5,1.79,1.79,0,0,1,.5.7,2.35,2.35,0,0,1,.2.8,1.69,1.69,0,0,1-.3,1,2.34,2.34,0,0,1-.7.7,3.51,3.51,0,0,1-.8.5,4.88,4.88,0,0,0-.7.3l-1,.5c-.3.2-.5.4-.7.5a2.09,2.09,0,0,0-.4.6c-.1.2-.1.5-.2.8h4.9v.9h-6.1Zm9.7.1a3,3,0,0,1-1-.2,2.18,2.18,0,0,1-.8-.5,1.79,1.79,0,0,1-.5-.7,2.12,2.12,0,0,1,0-1.8c.1-.3.4-.5.6-.7a3,3,0,0,1,1-.4,5.07,5.07,0,0,1,1.3-.2,4.1,4.1,0,0,1,1.1.1c.4.1.7.2,1,.3V56a1.89,1.89,0,0,0-.6-1.5,2,2,0,0,0-1.5-.6,5,5,0,0,0-1.2.2,6.72,6.72,0,0,0-1.2.6l-.3-.6a4.59,4.59,0,0,1,1.4-.7,3.18,3.18,0,0,1,1.4-.2,2.75,2.75,0,0,1,2.9,2.9v3.3c0,.3.1.4.3.4v.8h-.4a.76.76,0,0,1-.5-.2,2.19,2.19,0,0,1-.3-.5v-.6a2.68,2.68,0,0,1-1.3,1A2,2,0,0,1,73.34,60.7Zm.3-.7a2.66,2.66,0,0,0,1.2-.3,2,2,0,0,0,1-.8c.1-.1.1-.2.2-.3s.1-.2.1-.3V57.1c-.3-.1-.6-.2-1-.3a3.4,3.4,0,0,0-1-.1,3.06,3.06,0,0,0-1.7.4,1.25,1.25,0,0,0-.6,1.1,1.27,1.27,0,0,0,.1.6,2.19,2.19,0,0,0,.3.5c.2.1.4.3.6.4A.83.83,0,0,0,73.64,60Zm5.2.6a3.4,3.4,0,0,1,.1-1c.1-.3.2-.7.3-1a5.5,5.5,0,0,1,.7-.9,3.6,3.6,0,0,1,1.2-.8c.3-.1.5-.3.8-.4a2.18,2.18,0,0,0,.8-.5c.2-.2.5-.4.6-.6a.91.91,0,0,0,.3-.7.75.75,0,0,0-.1-.5,1.76,1.76,0,0,0-.4-.5.85.85,0,0,0-.6-.3,3.25,3.25,0,0,0-1.6,0,3.33,3.33,0,0,0-.6.3c-.2.1-.3.3-.5.4l-.3.3-.6-.6.3-.3c.2-.1.4-.3.6-.4s.6-.3.9-.4a5,5,0,0,1,1.2-.2,3.59,3.59,0,0,1,1.1.2,4.05,4.05,0,0,1,.9.5,1.79,1.79,0,0,1,.5.7,2.35,2.35,0,0,1,.2.8,1.69,1.69,0,0,1-.3,1,2.34,2.34,0,0,1-.7.7,3.51,3.51,0,0,1-.8.5,4.88,4.88,0,0,0-.7.3,9.74,9.74,0,0,1-1.1.5c-.3.2-.5.4-.7.5a2.09,2.09,0,0,0-.4.6c-.1.2-.1.5-.2.8h4.9v.9h-5.8Zm10.8.1a3.19,3.19,0,0,1-1.4-.3,4.44,4.44,0,0,1-1.1-.8,2.4,2.4,0,0,1-.7-1.2,3.53,3.53,0,0,1-.3-1.4,4,4,0,0,1,.3-1.5,3.46,3.46,0,0,1,.7-1.2,3.92,3.92,0,0,1,1-.8,3.08,3.08,0,0,1,1.3-.3,2.77,2.77,0,0,1,1.6.5,2.54,2.54,0,0,1,1.1,1.2V50.4h1v9c0,.3.1.4.3.4v.8H93a1.42,1.42,0,0,1-.6-.2.76.76,0,0,1-.2-.5v-.8A2.54,2.54,0,0,1,91,60.2,1.87,1.87,0,0,1,89.64,60.7Zm.1-.8a2.49,2.49,0,0,0,.8-.1,1.61,1.61,0,0,0,.7-.4l.6-.6a1.08,1.08,0,0,0,.3-.7V55.8a1.61,1.61,0,0,0-.4-.7l-.6-.6a2.51,2.51,0,0,0-.7-.4c-.3,0-.5-.1-.8-.1a2,2,0,0,0-1.1.3,2.7,2.7,0,0,0-.8.7,4.05,4.05,0,0,0-.5.9A4.25,4.25,0,0,0,87,57a3.59,3.59,0,0,0,.2,1.1,2.76,2.76,0,0,0,1.5,1.5A1.93,1.93,0,0,0,89.74,59.9Zm10.5-6.6h-5.3v-.9h6.9l-5,9.9h-1.1Zm5.8,7.4a3.19,3.19,0,0,1-1.4-.3,4.44,4.44,0,0,1-1.1-.8,2.4,2.4,0,0,1-.7-1.2,3.53,3.53,0,0,1-.3-1.4,4,4,0,0,1,.3-1.5,3.46,3.46,0,0,1,.7-1.2,3.92,3.92,0,0,1,1-.8,3.08,3.08,0,0,1,1.3-.3,2.77,2.77,0,0,1,1.6.5,2.54,2.54,0,0,1,1.1,1.2V50.4h1v9c0,.3.1.4.3.4v.8h-.4a1.42,1.42,0,0,1-.6-.2.76.76,0,0,1-.2-.5v-.8a2.54,2.54,0,0,1-1.2,1.1A1.87,1.87,0,0,1,106,60.7Zm.2-.8a2.49,2.49,0,0,0,.8-.1,1.61,1.61,0,0,0,.7-.4l.6-.6a1.08,1.08,0,0,0,.3-.7V55.8a1.61,1.61,0,0,0-.4-.7l-.6-.6a2.51,2.51,0,0,0-.7-.4,2.2,2.2,0,0,0-.8-.1,2,2,0,0,0-1.1.3,2.7,2.7,0,0,0-.8.7,4.05,4.05,0,0,0-.5.9,4.25,4.25,0,0,0-.2,1.1,3.59,3.59,0,0,0,.2,1.1,2.76,2.76,0,0,0,1.5,1.5A1.49,1.49,0,0,0,106.24,59.9Z"/><path d="M70.34,104.7a2.93,2.93,0,0,1-1.6-.4,2.89,2.89,0,0,1-1.1-1.1v1.4h-.9V94.3h1v4.5a3.45,3.45,0,0,1,1.2-1.2,3,3,0,0,1,1.6-.5,3.19,3.19,0,0,1,1.4.3,2.19,2.19,0,0,1,1,.9,7.46,7.46,0,0,1,.7,1.2,3.18,3.18,0,0,1,.2,1.4,4,4,0,0,1-.3,1.5,3.46,3.46,0,0,1-.7,1.2,4.44,4.44,0,0,1-1.1.8A3.53,3.53,0,0,1,70.34,104.7Zm-.2-.8a3.59,3.59,0,0,0,1.1-.2,5.5,5.5,0,0,0,.9-.7l.6-.9a4.25,4.25,0,0,0,.2-1.1,3.59,3.59,0,0,0-.2-1.1,1.93,1.93,0,0,0-.5-.9,2.7,2.7,0,0,0-.8-.7,1.93,1.93,0,0,0-1-.3,1.88,1.88,0,0,0-.8.2,1.61,1.61,0,0,0-.7.4l-.6.6a1.61,1.61,0,0,0-.4.7v2.3a.91.91,0,0,0,.3.7l.6.6a2.51,2.51,0,0,0,.7.4C69.64,103.8,69.84,103.9,70.14,103.9Zm5.6.7V98.9h-1v-.8h1v-1a3.28,3.28,0,0,1,.6-2.1,2.25,2.25,0,0,1,2.4-.7,4.88,4.88,0,0,1,.7.3l-.3.7a.76.76,0,0,0-.5-.2A1.27,1.27,0,0,0,78,95a1.23,1.23,0,0,0-1,.5,2.81,2.81,0,0,0-.3,1.5v1.1h2v.8h-2v5.7Zm9.4-7.3h-5.4v-.9h6.9l-5,9.9h-1.1Zm3.1,7.3V98.9h-1v-.8h1v-1a3.28,3.28,0,0,1,.6-2.1,2.25,2.25,0,0,1,2.4-.7c.2.1.5.2.7.3l-.3.7a.76.76,0,0,0-.5-.2,1.27,1.27,0,0,0-.6-.1,1.23,1.23,0,0,0-1,.5,2.81,2.81,0,0,0-.3,1.5v1.1h2v.8h-2v5.7Zm8,.1a2.93,2.93,0,0,1-1.6-.4,2.89,2.89,0,0,1-1.1-1.1v1.4h-.9V94.3h1v4.5a3.45,3.45,0,0,1,1.2-1.2,3,3,0,0,1,1.6-.5,3.19,3.19,0,0,1,1.4.3,2.19,2.19,0,0,1,1,.9,7.46,7.46,0,0,1,.7,1.2,3.18,3.18,0,0,1,.2,1.4,4,4,0,0,1-.3,1.5,3.46,3.46,0,0,1-.7,1.2,4.44,4.44,0,0,1-1.1.8A3.19,3.19,0,0,1,96.24,104.7Zm-.2-.8a3.59,3.59,0,0,0,1.1-.2,5.5,5.5,0,0,0,.9-.7l.6-.9a4.25,4.25,0,0,0,.2-1.1,3.59,3.59,0,0,0-.2-1.1,1.93,1.93,0,0,0-.5-.9,2.7,2.7,0,0,0-.8-.7,1.93,1.93,0,0,0-1-.3,1.88,1.88,0,0,0-.8.2,1.61,1.61,0,0,0-.7.4l-.6.6a1.61,1.61,0,0,0-.4.7v2.3a.91.91,0,0,0,.3.7l.6.6a2.51,2.51,0,0,0,.7.4C95.54,103.8,95.84,103.9,96,103.9Zm4.8-3.9a2.77,2.77,0,0,1,.3-1.3,4.13,4.13,0,0,1,.7-1.1,2.59,2.59,0,0,1,1.1-.7,3.42,3.42,0,0,1,2.8,0,4.44,4.44,0,0,1,1.1.8,3.29,3.29,0,0,1,.7,1.3,4.67,4.67,0,0,1,.3,1.7,9.78,9.78,0,0,1-.3,2.6,5.45,5.45,0,0,1-.8,1.9,2.89,2.89,0,0,1-1.1,1.1,3.31,3.31,0,0,1-1.5.4,3.74,3.74,0,0,1-1.8-.5,3.33,3.33,0,0,1-1.2-1.4l.6-.6a2,2,0,0,0,.9,1.1,2.3,2.3,0,0,0,1.4.4,2,2,0,0,0,1.1-.3,3.82,3.82,0,0,0,.9-.9c.2-.4.4-.8.6-1.3a9.91,9.91,0,0,0,.2-1.8,2.37,2.37,0,0,1-1.1,1.3,3.37,3.37,0,0,1-1.7.5,2.77,2.77,0,0,1-1.3-.3,4.13,4.13,0,0,1-1.1-.7,2.59,2.59,0,0,1-.7-1.1C100.94,100.9,100.84,100.5,100.84,100Zm3.5-2.6a3,3,0,0,0-1,.2,2.18,2.18,0,0,0-.8.5,5.55,5.55,0,0,0-.6.8,2.6,2.6,0,0,0,0,2,1.56,1.56,0,0,0,.6.8,5.55,5.55,0,0,0,.8.6,3.55,3.55,0,0,0,1,.2,3,3,0,0,0,1-.2,1.56,1.56,0,0,0,.8-.6,5.55,5.55,0,0,0,.6-.8,2.6,2.6,0,0,0,0-2,1.56,1.56,0,0,0-.6-.8,5.55,5.55,0,0,0-.8-.6C105,97.5,104.74,97.4,104.34,97.4Zm7.4,7.2-3-7.3h1l2.5,6.4,2.5-6.4h.9l-3,7.3Z"/><path d="M62.44,178.1h-1.8l-.7,2.7h1.9v.8h-2.1l-.7,2.9h-.8l.7-2.9h-2.6l-.7,2.9h-.8l.7-2.9h-1.6v-.8h1.8l.7-2.7h-1.8v-.7h2l.7-2.8h.8l-.7,2.8h2.5l.7-2.8h.8l-.7,2.8h1.6v.7Zm-3.3,2.8.7-2.7h-2.7l-.7,2.7Zm11-5.9a1.45,1.45,0,0,0-.7.2,1.21,1.21,0,0,0-.5.5l-.3.6a1.7,1.7,0,0,0-.1.7v1.1h2.3v.8h-2.3v5.7h-1v-5.7h-2.3v5.7h-1v-5.7h-1v-.8h1v-.6a3.08,3.08,0,0,1,.1-1,3.55,3.55,0,0,1,.4-.9,1.34,1.34,0,0,1,.7-.6,1.64,1.64,0,0,1,1-.2,2.77,2.77,0,0,1,.9.1,4.88,4.88,0,0,1,.7.3,2.34,2.34,0,0,1,.7-.7,2,2,0,0,1,1.1-.3,1.27,1.27,0,0,1,.6.1c.2,0,.3.1.4.1s.2.1.3.2.1.1.2.1l-.3.7c-.1-.1-.2-.1-.4-.2C70.64,175,70.44,175,70.14,175Zm-2.5,2.1a2,2,0,0,1,.1-.7.85.85,0,0,1,.2-.6,1.07,1.07,0,0,0-.6-.2c-.2,0-.4-.1-.6-.1a1.45,1.45,0,0,0-.7.2,1,1,0,0,0-.4.5,1.42,1.42,0,0,0-.2.6c0,.2-.1.4-.1.6v.6h2.3Zm8.5,4.1a2.75,2.75,0,0,1,1.5.8,2.52,2.52,0,0,1,.6,1.7,3.59,3.59,0,0,1-.2,1.1,1.6,1.6,0,0,1-.7.9,3.33,3.33,0,0,1-1,.6,5.07,5.07,0,0,1-1.3.2,4.06,4.06,0,0,1-1.9-.4,3.45,3.45,0,0,1-1.2-1.2l.7-.6a2.84,2.84,0,0,0,.9,1,3.31,3.31,0,0,0,1.5.4,2.86,2.86,0,0,0,1.7-.5,1.75,1.75,0,0,0,.6-1.5,1.89,1.89,0,0,0-.6-1.5,2.44,2.44,0,0,0-1.8-.6h-.3v-.8H75a2.86,2.86,0,0,0,1.7-.5,1.61,1.61,0,0,0,.6-1.3,1.45,1.45,0,0,0-.2-.7,1,1,0,0,0-.4-.5c-.2-.1-.4-.3-.6-.3a2,2,0,0,0-.8-.1,2.3,2.3,0,0,0-1.4.4,2.19,2.19,0,0,0-.9,1l-.6-.6a3,3,0,0,1,.5-.7,1.79,1.79,0,0,1,.7-.5l.9-.3a3.08,3.08,0,0,1,1-.1,5,5,0,0,1,1.2.2,1.93,1.93,0,0,1,.9.5,1.56,1.56,0,0,1,.6.8,3,3,0,0,1,.2,1,2,2,0,0,1-.1.8,1.61,1.61,0,0,1-.4.7,2.65,2.65,0,0,1-.6.5C76.74,181.1,76.44,181.2,76.14,181.2Zm7.5,0a2.75,2.75,0,0,1,1.5.8,2.52,2.52,0,0,1,.6,1.7,3.59,3.59,0,0,1-.2,1.1,1.6,1.6,0,0,1-.7.9,3.33,3.33,0,0,1-1,.6,5.07,5.07,0,0,1-1.3.2,4.06,4.06,0,0,1-1.9-.4,3.45,3.45,0,0,1-1.2-1.2l.7-.6a2.84,2.84,0,0,0,.9,1,3.31,3.31,0,0,0,1.5.4,2.86,2.86,0,0,0,1.7-.5,1.75,1.75,0,0,0,.6-1.5,1.89,1.89,0,0,0-.6-1.5,2.44,2.44,0,0,0-1.8-.6h-.5v-.8h.4a2.86,2.86,0,0,0,1.7-.5,1.61,1.61,0,0,0,.6-1.3,1.45,1.45,0,0,0-.2-.7,1,1,0,0,0-.4-.5c-.2-.1-.4-.3-.6-.3a2,2,0,0,0-.8-.1,2.3,2.3,0,0,0-1.4.4,2.19,2.19,0,0,0-.9,1l-.6-.6a3,3,0,0,1,.5-.7,1.79,1.79,0,0,1,.7-.5l.9-.3a3.08,3.08,0,0,1,1-.1,5,5,0,0,1,1.2.2,1.93,1.93,0,0,1,.9.5,1.56,1.56,0,0,1,.6.8,3,3,0,0,1,.2,1,2,2,0,0,1-.1.8,1.61,1.61,0,0,1-.4.7,2.65,2.65,0,0,1-.6.5C84.24,181.1,83.94,181.2,83.64,181.2Zm6.6-1a5.07,5.07,0,0,1,1.3.2,3.33,3.33,0,0,1,1,.6,3.59,3.59,0,0,1,.7,1,3,3,0,0,1,0,2.6,2.55,2.55,0,0,1-.7,1,4.13,4.13,0,0,1-1.1.7,3,3,0,0,1-1.3.2,3.08,3.08,0,0,1-1-.1,3.55,3.55,0,0,1-.9-.4,4.35,4.35,0,0,1-.7-.6,2.18,2.18,0,0,1-.5-.8l.6-.5a2.91,2.91,0,0,0,1.1,1.1,2.82,2.82,0,0,0,1.5.4,3.55,3.55,0,0,0,1-.2,2.1,2.1,0,0,0,1.3-1.3,3,3,0,0,0,.2-1,2.39,2.39,0,0,0-.2-.9,1.79,1.79,0,0,0-.5-.7,2.18,2.18,0,0,0-.8-.5,2.92,2.92,0,0,0-.9-.2,3.08,3.08,0,0,0-1.3.3,2.36,2.36,0,0,0-.9.8h-.9a.76.76,0,0,1,.1-.4,1.48,1.48,0,0,0,.1-.7c.1-.3.1-.6.2-.9s.1-.7.2-1c.2-.8.3-1.7.5-2.6h4.8v.9h-4.2l-.7,3.6a1.46,1.46,0,0,1,.9-.6Zm9.5,3.5v.9h-4.8v-.9h2v-6l-.4.4c-.2.1-.4.3-.6.4a4.88,4.88,0,0,1-.7.3,1.27,1.27,0,0,1-.6.1V178a2.54,2.54,0,0,0,.7-.2,4.35,4.35,0,0,0,.7-.4,2.09,2.09,0,0,1,.6-.4c.2-.1.2-.2.3-.3h1v7.1h1.8Z"/><path d="M74.34,197.5h-1.8l-.7,2.7h1.9v.8h-2.1l-.7,2.9h-.8l.8-2.9h-2.6l-.7,2.9h-.8l.7-2.9h-1.6v-.8h1.8l.7-2.7h-1.8v-.7h2l.7-2.8h.8l-.7,2.8h2.5l.7-2.8h.8l-.7,2.8h1.6Zm-3.2,2.8.7-2.7h-2.7l-.7,2.7Zm11-5.9a1.45,1.45,0,0,0-.7.2,1.21,1.21,0,0,0-.5.5l-.3.6a1.7,1.7,0,0,0-.1.7v1.1h2.3v.8h-2.3V204h-1v-5.7h-2.3V204h-1v-5.7h-1v-.8h1v-.6a3.08,3.08,0,0,1,.1-1,3.55,3.55,0,0,1,.4-.9,1.34,1.34,0,0,1,.7-.6,1.64,1.64,0,0,1,1-.2,2.77,2.77,0,0,1,.9.1,4.88,4.88,0,0,1,.7.3,2.34,2.34,0,0,1,.7-.7,2,2,0,0,1,1.1-.3,1.27,1.27,0,0,1,.6.1c.2,0,.3.1.4.1s.2.1.3.2.1.1.2.1l-.3.7c-.1-.1-.2-.1-.4-.2C82.64,194.4,82.44,194.4,82.14,194.4Zm-2.6,2.1a2,2,0,0,1,.1-.7.85.85,0,0,1,.2-.6,1.07,1.07,0,0,0-.6-.2c-.2,0-.4-.1-.6-.1a1.45,1.45,0,0,0-.7.2,1,1,0,0,0-.4.5,1.42,1.42,0,0,0-.2.6c0,.2-.1.4-.1.6v.6h2.3Zm11.6,4.1a2.77,2.77,0,0,1-.3,1.3,4.13,4.13,0,0,1-.7,1.1,2.59,2.59,0,0,1-1.1.7,3.42,3.42,0,0,1-2.8,0,4.44,4.44,0,0,1-1.1-.8,3.29,3.29,0,0,1-.7-1.3,4.84,4.84,0,0,1-.3-1.8,9.78,9.78,0,0,1,.3-2.6,6.9,6.9,0,0,1,.7-1.9,2.54,2.54,0,0,1,1.2-1.1,3.31,3.31,0,0,1,1.5-.4,3.74,3.74,0,0,1,1.8.5,3.33,3.33,0,0,1,1.2,1.4l-.6.6a2,2,0,0,0-.9-1.1,2.3,2.3,0,0,0-1.4-.4,2,2,0,0,0-1.1.3,3.82,3.82,0,0,0-.9.9,9.75,9.75,0,0,0-.6,1.4,9.91,9.91,0,0,0-.2,1.8,2.37,2.37,0,0,1,1.1-1.3,3.37,3.37,0,0,1,1.7-.5,2.77,2.77,0,0,1,1.3.3,4.13,4.13,0,0,1,1.1.7,2.59,2.59,0,0,1,.7,1.1C91,199.7,91.14,200.2,91.14,200.6Zm-3.5,2.6a3,3,0,0,0,1-.2,1.56,1.56,0,0,0,.8-.6,5.55,5.55,0,0,0,.6-.8,3.55,3.55,0,0,0,.2-1,3,3,0,0,0-.2-1,1.56,1.56,0,0,0-.6-.8,2.18,2.18,0,0,0-.8-.5,2.6,2.6,0,0,0-2,0,2.18,2.18,0,0,0-.8.5,5.55,5.55,0,0,0-.6.8,2.6,2.6,0,0,0,0,2,1.56,1.56,0,0,0,.6.8,5.55,5.55,0,0,0,.8.6A1.8,1.8,0,0,0,87.64,203.2Zm4.9.7a3.4,3.4,0,0,1,.1-1c.1-.3.2-.7.3-1a5.5,5.5,0,0,1,.7-.9,3.6,3.6,0,0,1,1.2-.8c.3-.1.5-.3.8-.4a2.18,2.18,0,0,0,.8-.5c.2-.2.5-.4.6-.6a.91.91,0,0,0,.3-.7.75.75,0,0,0-.1-.5c-.1-.2-.2-.3-.3-.5a.85.85,0,0,0-.6-.3,3.25,3.25,0,0,0-1.6,0,3.33,3.33,0,0,0-.6.3c-.2.1-.3.3-.5.4l-.3.3-.6-.7.3-.3c.2-.1.4-.3.6-.4s.6-.3.9-.4a5,5,0,0,1,1.2-.2,3.59,3.59,0,0,1,1.1.2,4.05,4.05,0,0,1,.9.5,1.79,1.79,0,0,1,.5.7,2.35,2.35,0,0,1,.2.8,1.69,1.69,0,0,1-.3,1,2.34,2.34,0,0,1-.7.7,3.51,3.51,0,0,1-.8.5,4.88,4.88,0,0,0-.7.3,9.74,9.74,0,0,1-1.1.5c-.3.2-.5.4-.7.5a2.09,2.09,0,0,0-.4.6c-.1.2-.1.5-.2.8h4.9v.9h-5.9Zm14.6-3.3a2.77,2.77,0,0,1-.3,1.3,4.13,4.13,0,0,1-.7,1.1,2.59,2.59,0,0,1-1.1.7,3.42,3.42,0,0,1-2.8,0,4.44,4.44,0,0,1-1.1-.8,3.29,3.29,0,0,1-.7-1.3,4.84,4.84,0,0,1-.3-1.8,9.78,9.78,0,0,1,.3-2.6,6.9,6.9,0,0,1,.7-1.9,2.54,2.54,0,0,1,1.2-1.1,3.31,3.31,0,0,1,1.5-.4,3.74,3.74,0,0,1,1.8.5,3.33,3.33,0,0,1,1.2,1.4l-.6.6a2,2,0,0,0-.9-1.1,2.3,2.3,0,0,0-1.4-.4,2,2,0,0,0-1.1.3,3.82,3.82,0,0,0-.9.9,9.75,9.75,0,0,0-.6,1.4,9.91,9.91,0,0,0-.2,1.8,2.68,2.68,0,0,1,1-1.3,3.37,3.37,0,0,1,1.7-.5,2.77,2.77,0,0,1,1.3.3,4.13,4.13,0,0,1,1.1.7,2.59,2.59,0,0,1,.7,1.1A3.09,3.09,0,0,1,107.14,200.6Zm-3.5,2.6a3,3,0,0,0,1-.2,1.56,1.56,0,0,0,.8-.6,5.55,5.55,0,0,0,.6-.8,3.55,3.55,0,0,0,.2-1,3,3,0,0,0-.2-1,1.56,1.56,0,0,0-.6-.8,2.18,2.18,0,0,0-.8-.5,2.6,2.6,0,0,0-2,0,2.18,2.18,0,0,0-.8.5,5.55,5.55,0,0,0-.6.8,2.6,2.6,0,0,0,0,2,1.56,1.56,0,0,0,.6.8,5.55,5.55,0,0,0,.8.6A1.64,1.64,0,0,0,103.64,203.2Zm4.8.7a3.4,3.4,0,0,1,.1-1,4.18,4.18,0,0,1,.4-1,5.5,5.5,0,0,1,.7-.9,3.6,3.6,0,0,1,1.2-.8c.3-.1.5-.3.8-.4a2.18,2.18,0,0,0,.8-.5,1.7,1.7,0,0,0,.6-.6.91.91,0,0,0,.3-.7.75.75,0,0,0-.1-.5c-.1-.2-.2-.3-.3-.5s-.3-.3-.6-.3a3.25,3.25,0,0,0-1.6,0,3.33,3.33,0,0,0-.6.3c-.2.1-.3.3-.5.4l-.3.3-.6-.7.3-.3c.2-.1.4-.3.6-.4s.6-.3.9-.4a5,5,0,0,1,1.2-.2,3.59,3.59,0,0,1,1.1.2,4.05,4.05,0,0,1,.9.5,1.79,1.79,0,0,1,.5.7,2.35,2.35,0,0,1,.2.8,1.69,1.69,0,0,1-.3,1,2.34,2.34,0,0,1-.7.7,3.51,3.51,0,0,1-.8.5,4.88,4.88,0,0,0-.7.3l-1,.5c-.3.2-.5.4-.7.5a2.09,2.09,0,0,0-.4.6c-.1.2-.1.5-.2.8h4.9v.9h-6.1Z"/><path d="M62.44,257h-1.8l-.7,2.7h1.9v.8h-2.1l-.7,2.9h-.8l.7-2.9h-2.6l-.7,2.9h-.8l.7-2.9h-1.6v-.8h1.8l.7-2.7h-1.8v-.7h2l.7-2.8h.8l-.7,2.8h2.5l.7-2.8h.8l-.7,2.8h1.6v.7Zm-3.3,2.8.7-2.7h-2.7l-.7,2.7Zm11-5.9a1.45,1.45,0,0,0-.7.2,1.21,1.21,0,0,0-.5.5l-.3.6a1.7,1.7,0,0,0-.1.7V257h2.3v.8h-2.3v5.7h-1v-5.7h-2.3v5.7h-1v-5.7h-1V257h1v-.6a3.08,3.08,0,0,1,.1-1,3.55,3.55,0,0,1,.4-.9,1.34,1.34,0,0,1,.7-.6,1.64,1.64,0,0,1,1-.2,2.77,2.77,0,0,1,.9.1,4.88,4.88,0,0,1,.7.3,2.34,2.34,0,0,1,.7-.7,2,2,0,0,1,1.1-.3,1.27,1.27,0,0,1,.6.1c.2,0,.3.1.4.1s.2.1.3.2.1.1.2.1l-.3.7c-.1-.1-.2-.1-.4-.2C70.64,253.9,70.44,253.9,70.14,253.9Zm-2.5,2.1a2,2,0,0,1,.1-.7.85.85,0,0,1,.2-.6,1.07,1.07,0,0,0-.6-.2c-.2,0-.4-.1-.6-.1a1.45,1.45,0,0,0-.7.2,1,1,0,0,0-.4.5,1.42,1.42,0,0,0-.2.6c0,.2-.1.4-.1.6v.6h2.3Zm8.7,9.2v-2.5h-4.7v-.8l5-6.4h.7v6.4h1.2v.9h-1.2v2.5h-1Zm-3.7-3.3h3.8V257Zm11.1-1.8a2.75,2.75,0,0,1,1.5.8,2.52,2.52,0,0,1,.6,1.7,3.59,3.59,0,0,1-.2,1.1,1.6,1.6,0,0,1-.7.9,3.33,3.33,0,0,1-1,.6,5.07,5.07,0,0,1-1.3.2,4.06,4.06,0,0,1-1.9-.4,3.45,3.45,0,0,1-1.2-1.2l.7-.6a2.84,2.84,0,0,0,.9,1,3.31,3.31,0,0,0,1.5.4,2.86,2.86,0,0,0,1.7-.5,1.75,1.75,0,0,0,.6-1.5,1.89,1.89,0,0,0-.6-1.5,2.44,2.44,0,0,0-1.8-.6h-.6v-.8h.4a2.86,2.86,0,0,0,1.7-.5,1.61,1.61,0,0,0,.6-1.3,1.45,1.45,0,0,0-.2-.7,1,1,0,0,0-.4-.5c-.2-.1-.4-.3-.6-.3a2,2,0,0,0-.8-.1,2.3,2.3,0,0,0-1.4.4,2.19,2.19,0,0,0-.9,1l-.6-.6a3,3,0,0,1,.5-.7,1.79,1.79,0,0,1,.7-.5l.9-.3a3.08,3.08,0,0,1,1-.1,5,5,0,0,1,1.2.2,1.93,1.93,0,0,1,.9.5,1.56,1.56,0,0,1,.6.8,3,3,0,0,1,.2,1,2,2,0,0,1-.1.8,1.61,1.61,0,0,1-.4.7,2.65,2.65,0,0,1-.6.5C84.24,260,84,260.1,83.74,260.1Zm7.7,5.1v-2.5h-4.7v-.8l5-6.4h.7v6.4h1.2v.9h-1.2v2.5h-1Zm-3.7-3.3h3.8V257Zm11.2,3.3v-2.5h-4.7v-.8l5-6.4h.7v6.4h1.2v.9h-1.2v2.5h-1Zm-3.6-3.3h3.8V257Z"/><path d="M74.34,276.4h-1.8l-.7,2.7h1.9v.8h-2.1l-.7,2.9h-.8l.7-2.9h-2.6l-.7,2.9h-.8l.7-2.9h-1.5v-.8h1.8l.7-2.7h-1.8v-.7h2l.7-2.8h.8l-.7,2.8h2.5l.7-2.8h.8l-.7,2.8h1.6Zm-3.2,2.8.7-2.7h-2.7l-.7,2.7Zm11-5.9a1.45,1.45,0,0,0-.7.2,1.21,1.21,0,0,0-.5.5l-.3.6a1.7,1.7,0,0,0-.1.7v1.1h2.3v.8h-2.3v5.7h-1v-5.7h-2.3v5.7h-1v-5.7h-1v-.8h1v-.6a3.08,3.08,0,0,1,.1-1,3.55,3.55,0,0,1,.4-.9,1.34,1.34,0,0,1,.7-.6,1.64,1.64,0,0,1,1-.2,2.77,2.77,0,0,1,.9.1,4.88,4.88,0,0,1,.7.3,2.34,2.34,0,0,1,.7-.7,2,2,0,0,1,1.1-.3,1.27,1.27,0,0,1,.6.1c.2,0,.3.1.4.1s.2.1.3.2.1.1.2.1l-.3.7c-.1-.1-.2-.1-.4-.2C82.64,273.4,82.44,273.3,82.14,273.3Zm-2.6,2.1a2,2,0,0,1,.1-.7.85.85,0,0,1,.2-.6,1.07,1.07,0,0,0-.6-.2c-.2,0-.4-.1-.6-.1a1.45,1.45,0,0,0-.7.2,1,1,0,0,0-.4.5,1.42,1.42,0,0,0-.2.6c0,.2-.1.4-.1.6v.6h2.3Zm7.8,7.6a3.19,3.19,0,0,1-1.4-.3,4.44,4.44,0,0,1-1.1-.8,2.4,2.4,0,0,1-.7-1.2,3.53,3.53,0,0,1-.3-1.4,4,4,0,0,1,.3-1.5,3.46,3.46,0,0,1,.7-1.2,3.13,3.13,0,0,1,1.1-.8,3.08,3.08,0,0,1,1.3-.3,2.77,2.77,0,0,1,1.6.5,2.54,2.54,0,0,1,1.1,1.2v-4.5h1v9c0,.3.1.4.3.4v.8h-.4a1.42,1.42,0,0,1-.6-.2.76.76,0,0,1-.2-.5v-.8a2.54,2.54,0,0,1-1.2,1.1A3,3,0,0,1,87.34,283Zm.2-.9a2.49,2.49,0,0,0,.8-.1,1.61,1.61,0,0,0,.7-.4l.6-.6a1.08,1.08,0,0,0,.3-.7V278a1.61,1.61,0,0,0-.4-.7l-.6-.6a2.51,2.51,0,0,0-.7-.4,2.2,2.2,0,0,0-.8-.1,2,2,0,0,0-1.1.3,2.7,2.7,0,0,0-.8.7,4.05,4.05,0,0,0-.5.9,4.25,4.25,0,0,0-.2,1.1,3.59,3.59,0,0,0,.2,1.1,2.76,2.76,0,0,0,1.5,1.5A1.21,1.21,0,0,0,87.54,282.1Zm10.2-.1v.9h-4.8V282h2v-6l-.4.4c-.2.1-.4.3-.6.4a4.88,4.88,0,0,1-.7.3,1.27,1.27,0,0,1-.6.1v-.9a2.54,2.54,0,0,0,.7-.2,4.35,4.35,0,0,0,.7-.4,2.09,2.09,0,0,1,.6-.4c.2-.1.2-.2.3-.3h1v7.1h1.8Zm4.3,1a3.19,3.19,0,0,1-1.4-.3,4.44,4.44,0,0,1-1.1-.8,2.4,2.4,0,0,1-.7-1.2,3.53,3.53,0,0,1-.3-1.4,4,4,0,0,1,.3-1.5,3.46,3.46,0,0,1,.7-1.2,3.92,3.92,0,0,1,1-.8,3.08,3.08,0,0,1,1.3-.3,2.77,2.77,0,0,1,1.6.5,2.54,2.54,0,0,1,1.1,1.2v-4.5h1v9c0,.3.1.4.3.4v.8h-.4a1.42,1.42,0,0,1-.6-.2.76.76,0,0,1-.2-.5v-.8a2.54,2.54,0,0,1-1.2,1.1A2.17,2.17,0,0,1,102,283Zm.2-.9a2.49,2.49,0,0,0,.8-.1,1.61,1.61,0,0,0,.7-.4l.6-.6a1.08,1.08,0,0,0,.3-.7V278a1.61,1.61,0,0,0-.4-.7l-.6-.6a2.51,2.51,0,0,0-.7-.4,2.2,2.2,0,0,0-.8-.1,2,2,0,0,0-1.1.3,2.7,2.7,0,0,0-.8.7,4.05,4.05,0,0,0-.5.9,4.25,4.25,0,0,0-.2,1.1,3.59,3.59,0,0,0,.2,1.1,2.76,2.76,0,0,0,1.5,1.5A1.21,1.21,0,0,0,102.24,282.1Zm10.2-.1v.9h-4.7V282h2v-6l-.4.4c-.2.1-.4.3-.6.4a4.88,4.88,0,0,1-.7.3,1.27,1.27,0,0,1-.6.1v-.9a2.54,2.54,0,0,0,.7-.2,4.35,4.35,0,0,0,.7-.4,2.09,2.09,0,0,1,.6-.4c.2-.1.2-.2.3-.3h1v7.1h1.7Z"/><path class="cls-2" d="M1.64,53.5a16,16,0,0,0-.2,13.7c2.1,4.2,7,7.2,11.6,6.4a14.93,14.93,0,0,0,4-1.5,15.37,15.37,0,0,0,6.2-6.9,15.05,15.05,0,0,0,1.4-9.1c-.9-5.5-5.2-11.1-10.7-12.6S3.54,49.3,1.64,53.5Z"/><path class="cls-3" d="M1.64,10.2a16,16,0,0,0-.2,13.7c2.1,4.2,7,7.2,11.6,6.4a14.93,14.93,0,0,0,4-1.5,15.37,15.37,0,0,0,6.2-6.9,15.05,15.05,0,0,0,1.4-9.1c-.9-5.4-5.2-11.1-10.7-12.6S3.54,6,1.64,10.2Z"/><path class="cls-4" d="M1.64,180.3a16,16,0,0,0-.2,13.7c2.1,4.2,7,7.2,11.6,6.4a14.93,14.93,0,0,0,4-1.5,15.37,15.37,0,0,0,6.2-6.9,15.05,15.05,0,0,0,1.4-9.1c-.8-5.4-5.2-11.1-10.6-12.6S3.54,176.1,1.64,180.3Z"/><path class="cls-5" d="M13.74,195.5a16,16,0,0,0-.2,13.7c2.1,4.2,7,7.2,11.6,6.4a13.76,13.76,0,0,0,4-1.5,15.37,15.37,0,0,0,6.2-6.9,15.05,15.05,0,0,0,1.4-9.1c-.9-5.4-5.2-11.1-10.7-12.6S15.74,191.3,13.74,195.5Z"/><path class="cls-6" d="M1.64,250.4a16,16,0,0,0-.2,13.7c2.1,4.2,7,7.2,11.6,6.4a14.93,14.93,0,0,0,4-1.5,15.37,15.37,0,0,0,6.2-6.9,15.05,15.05,0,0,0,1.4-9.1c-.8-5.4-5.2-11.1-10.6-12.6S3.54,246.2,1.64,250.4Z"/><path class="cls-7" d="M13.74,265.6a16,16,0,0,0-.2,13.7c2.1,4.2,7,7.2,11.6,6.4a13.76,13.76,0,0,0,4-1.5,15.37,15.37,0,0,0,6.2-6.9,15.05,15.05,0,0,0,1.4-9.1c-.9-5.4-5.2-11.1-10.7-12.6C20.74,254.1,15.74,261.4,13.74,265.6Z"/><path class="cls-8" d="M1.64,96.8a16,16,0,0,0-.2,13.7c2.1,4.2,7,7.2,11.6,6.4a14.93,14.93,0,0,0,4-1.5,15.37,15.37,0,0,0,6.2-6.9,16,16,0,0,0,1.4-9.1c-.8-5.4-5.2-11.1-10.7-12.6S3.54,92.5,1.64,96.8Z"/><g class="cls-9"><path class="cls-10" d="M201.34,71.5c0-5.8-6.1-10.5-13.7-10.5s-13.7,4.7-13.7,10.5a8.8,8.8,0,0,0,2.5,6.1,14.14,14.14,0,0,1-2.4,3.6.37.37,0,0,0-.1.3v.3a.22.22,0,0,0,.2.2.37.37,0,0,0,.3.1,11.47,11.47,0,0,0,5.8-1.6,16.87,16.87,0,0,0,7.3,1.6C195.14,82,201.34,77.3,201.34,71.5Z"/><path class="cls-6" d="M185,80.3c0-5.8,6.1-10.5,13.7-10.5s13.7,4.7,13.7,10.5a8.39,8.39,0,0,1-2.5,6,14.14,14.14,0,0,0,2.4,3.6.37.37,0,0,1,.1.3v.3a.22.22,0,0,1-.2.2.37.37,0,0,1-.3.1,11.47,11.47,0,0,1-5.8-1.6,15.55,15.55,0,0,1-7.3,1.6C191.14,90.9,185,86.1,185,80.3Z"/><path class="cls-5" d="M201.54,188.5c0-5.8-6.1-10.5-13.6-10.5s-13.7,4.7-13.7,10.5a9,9,0,0,0,2.5,6,14.14,14.14,0,0,1-2.4,3.6.37.37,0,0,0-.1.3v.3a.22.22,0,0,0,.2.2.37.37,0,0,0,.3.1,11.47,11.47,0,0,0,5.8-1.6,15.55,15.55,0,0,0,7.3,1.6C195.44,199,201.54,194.3,201.54,188.5Zm8,14.5a8.62,8.62,0,0,0,2.5-6.1c0-4.4-3.5-8.2-8.5-9.7a5.7,5.7,0,0,1,.1,1.3c0,7-7.1,12.6-15.8,12.6a14.77,14.77,0,0,1-2.1-.1c2.1,3.8,6.9,6.4,12.6,6.4a17,17,0,0,0,7.3-1.7,12.18,12.18,0,0,0,5.8,1.7.37.37,0,0,0,.3-.1c.1-.1.2-.1.2-.2s.1-.2,0-.3-.1-.2-.1-.3a14.15,14.15,0,0,1-2.3-3.5Z"/><path class="cls-10" d="M203,114.3c-9.2-4-20.2-4.7-29.3-.4s-15.3,14-13.6,23.4a25.33,25.33,0,0,0,3.2,8c6.7,10.9,20.9,17.3,34.2,15.4,11.5-1.7,23.7-10.5,26.9-21.4C227.64,128.2,212,118.2,203,114.3Z"/><path class="cls-6" d="M207,110.9c-8.1-3.8-17.9-4.5-25.9-.4s-13.5,13.3-12,22.3a23.24,23.24,0,0,0,2.8,7.6,29.68,29.68,0,0,0,12.9,11.9,30.44,30.44,0,0,0,17.3,2.8c10.2-1.6,21-9.9,23.8-20.4S215,114.7,207,110.9Z"/><path class="cls-11" d="M199.84,130.1c0-5.8-6.1-10.5-13.7-10.5s-13.7,4.7-13.7,10.5a9,9,0,0,0,2.5,6,14.14,14.14,0,0,1-2.4,3.6.37.37,0,0,0-.1.3v.3a.22.22,0,0,0,.2.2.37.37,0,0,0,.3.1,11.76,11.76,0,0,0,5.8-1.6,15.55,15.55,0,0,0,7.3,1.6C193.74,140.6,199.84,135.9,199.84,130.1Zm8,14.5a8.57,8.57,0,0,0,2.5-6c0-4.4-3.5-8.2-8.5-9.7a5.28,5.28,0,0,1,.1,1.3c0,7-7.1,12.6-15.8,12.6a14.77,14.77,0,0,1-2.1-.1c2.1,3.8,6.9,6.4,12.6,6.4a18.45,18.45,0,0,0,7.3-1.6,11,11,0,0,0,5.8,1.6.37.37,0,0,0,.3-.1c.1-.1.2-.1.2-.2s.1-.2,0-.3-.1-.2-.1-.3a22.07,22.07,0,0,1-2.3-3.6Z"/></g></g></g></svg>