<?xml version="1.0" encoding="utf-8"?>
<!-- Generator: Adobe Illustrator 23.1.1, SVG Export Plug-In . SVG Version: 6.00 Build 0)  -->
<svg version="1.1" id="Layer_1" xmlns="http://www.w3.org/2000/svg" xmlns:xlink="http://www.w3.org/1999/xlink" x="0px" y="0px"
	 viewBox="0 0 173.1 293.1" style="enable-background:new 0 0 173.1 293.1;" xml:space="preserve">
<style type="text/css">
	.st0{enable-background:new    ;}
	.st1{fill:#010101;}
	.st2{fill:#C1C1C1;}
	.st3{fill:#737373;}
	.st4{fill:#00AA64;}
	.st5{fill:#FF3756;}
	.st6{fill:#FFEB00;}
</style>
<title>colorpalettetablet2</title>
<g>
	<g id="Layer_1-2">
		<g class="st0">
			<path d="M59.6,16.6h-1.5l-0.4,3.1h-0.6l0.4-3.1h-1.2l-0.4,3.1h-0.6l0.4-3.1h-1.6l0-0.6h1.6l0.2-1.4h-1.5v-0.6H56l0.4-2.8H57
				l-0.4,2.8h1.2l0.4-2.8h0.6l-0.4,2.8h1.4l0,0.6h-1.5L58.2,16h1.4L59.6,16.6z M56.5,14.6l-0.2,1.4h1.3l0.2-1.4H56.5z"/>
			<path d="M68.8,17.2c0,1.1-0.2,1.7-0.6,2.1c-0.5,0.5-1.2,0.8-2.1,0.8c-0.9,0-1.6-0.3-2.1-0.8c-0.4-0.5-0.6-1-0.6-2.4v-3.1
				c0-1.3,0.1-1.8,0.5-2.3c0.4-0.6,1.2-0.9,2.1-0.9c0.9,0,1.6,0.2,2,0.7c0.5,0.5,0.7,1,0.7,2.1V17.2z M64.1,17
				c0,1.2,0.1,1.5,0.4,1.9c0.4,0.4,0.9,0.6,1.5,0.6c0.7,0,1.3-0.3,1.6-0.7c0.2-0.3,0.4-0.8,0.4-1.5v-3.7c0-0.8-0.2-1.2-0.6-1.6
				c-0.4-0.3-0.8-0.5-1.4-0.5c-0.7,0-1.3,0.3-1.6,0.8c-0.3,0.4-0.3,0.7-0.3,1.7V17z"/>
			<path d="M73.2,13.6v-0.8l3-2.2V20h-0.7v-8L73.2,13.6z"/>
			<path d="M87,17.2c0,1.1-0.2,1.7-0.6,2.1c-0.5,0.5-1.2,0.8-2.1,0.8c-0.9,0-1.6-0.3-2.1-0.8c-0.4-0.5-0.6-1-0.6-2.4v-3.1
				c0-1.3,0.1-1.8,0.5-2.3c0.4-0.6,1.2-0.9,2.1-0.9c0.9,0,1.6,0.2,2,0.7c0.5,0.5,0.7,1,0.7,2.1V17.2z M82.3,17
				c0,1.2,0.1,1.5,0.4,1.9c0.4,0.4,0.9,0.6,1.5,0.6c0.7,0,1.3-0.3,1.6-0.7c0.2-0.3,0.4-0.8,0.4-1.5v-3.7c0-0.8-0.2-1.2-0.6-1.6
				c-0.4-0.3-0.8-0.5-1.4-0.5c-0.7,0-1.3,0.3-1.6,0.8c-0.3,0.4-0.3,0.7-0.3,1.7V17z"/>
			<path d="M91.4,13.6v-0.8l3-2.2V20h-0.7v-8L91.4,13.6z"/>
			<path d="M105.2,17.2c0,1.1-0.2,1.7-0.6,2.1c-0.5,0.5-1.2,0.8-2.1,0.8c-0.9,0-1.6-0.3-2.1-0.8c-0.4-0.5-0.6-1-0.6-2.4v-3.1
				c0-1.3,0.1-1.8,0.5-2.3c0.4-0.6,1.2-0.9,2.1-0.9c0.9,0,1.6,0.2,2,0.7c0.5,0.5,0.7,1,0.7,2.1V17.2z M100.5,17
				c0,1.2,0.1,1.5,0.4,1.9c0.4,0.4,0.9,0.6,1.5,0.6c0.7,0,1.3-0.3,1.6-0.7c0.2-0.3,0.4-0.8,0.4-1.5v-3.7c0-0.8-0.2-1.2-0.6-1.6
				c-0.4-0.3-0.8-0.5-1.4-0.5c-0.7,0-1.3,0.3-1.6,0.8c-0.3,0.4-0.3,0.7-0.3,1.7V17z"/>
			<path d="M109.6,13.6v-0.8l3-2.2V20h-0.7v-8L109.6,13.6z"/>
		</g>
		<g class="st0">
			<path d="M59.6,60h-1.5l-0.4,3.1h-0.6l0.4-3.1h-1.2l-0.4,3.1h-0.6l0.4-3.1h-1.6l0-0.6h1.6l0.2-1.4h-1.5v-0.6H56l0.4-2.8H57
				l-0.4,2.8h1.2l0.4-2.8h0.6l-0.4,2.8h1.4l0,0.6h-1.5l-0.2,1.4h1.4L59.6,60z M56.5,58.1l-0.2,1.4h1.3l0.2-1.4H56.5z"/>
			<path d="M63.8,55.1v-0.7h5l-3.7,9.1h-0.9l3.4-8.4H63.8z"/>
			<path d="M72.8,55.1v-0.7h5.1L75,57.8c0.1,0,0.2,0,0.3,0c1.5,0,2.7,1.2,2.7,2.8c0,1.7-1.3,3-3.1,3c-1.4,0-2.4-0.7-2.8-2l0.7-0.2
				c0.4,1,1.1,1.5,2,1.5c1.3,0,2.4-1,2.4-2.2c0-1.3-1-2.2-2.4-2.2c-0.5,0-0.8,0.1-1.3,0.4l-0.2-0.2l3-3.7H72.8z"/>
			<path d="M82,55.1v-0.7h5l-3.7,9.1h-0.9l3.4-8.4H82z"/>
			<path d="M91,55.1v-0.7h5.1l-2.8,3.5c0.1,0,0.2,0,0.3,0c1.5,0,2.7,1.2,2.7,2.8c0,1.7-1.3,3-3.1,3c-1.4,0-2.4-0.7-2.8-2l0.7-0.2
				c0.4,1,1.1,1.5,2,1.5c1.3,0,2.4-1,2.4-2.2c0-1.3-1-2.2-2.4-2.2c-0.5,0-0.8,0.1-1.3,0.4l-0.2-0.2l3-3.7H91z"/>
			<path d="M100.2,55.1v-0.7h5l-3.7,9.1h-0.9l3.4-8.4H100.2z"/>
			<path d="M109.2,55.1v-0.7h5.1l-2.8,3.5c0.1,0,0.2,0,0.3,0c1.5,0,2.7,1.2,2.7,2.8c0,1.7-1.3,3-3.1,3c-1.4,0-2.4-0.7-2.8-2l0.7-0.2
				c0.4,1,1.1,1.5,2,1.5c1.3,0,2.4-1,2.4-2.2c0-1.3-1-2.2-2.4-2.2c-0.5,0-0.8,0.1-1.3,0.4l-0.2-0.2l3-3.7H109.2z"/>
		</g>
		<g class="st0">
			<path d="M59.6,104h-1.5l-0.4,3.1h-0.6l0.4-3.1h-1.2l-0.4,3.1h-0.6l0.4-3.1h-1.6l0-0.6h1.6l0.2-1.4h-1.5v-0.6H56l0.4-2.8H57
				l-0.4,2.8h1.2l0.4-2.8h0.6l-0.4,2.8h1.4l0,0.6h-1.5l-0.2,1.4h1.4L59.6,104z M56.5,102.1l-0.2,1.4h1.3l0.2-1.4H56.5z"/>
			<path d="M71,106c-0.4,0.6-0.7,0.8-1.2,1.1c-0.6,0.4-1.4,0.6-2.2,0.6c-1.3,0-2.4-0.5-3.2-1.4c-0.8-0.9-1.2-2.2-1.2-3.5
				c0-2.8,1.9-4.8,4.4-4.8c1.4,0,2.5,0.5,3.4,1.7l-0.6,0.5c-0.4-0.5-0.6-0.6-0.9-0.8c-0.5-0.4-1.2-0.6-1.9-0.6c-2,0-3.6,1.8-3.6,4.1
				c0,2.4,1.5,4.1,3.6,4.1c1.1,0,1.9-0.4,2.7-1.5L71,106z"/>
			<path d="M75,101.1v-0.8l3-2.2v9.3h-0.7v-8L75,101.1z"/>
			<path d="M91,106c-0.4,0.6-0.7,0.8-1.2,1.1c-0.6,0.4-1.4,0.6-2.2,0.6c-1.3,0-2.4-0.5-3.2-1.4c-0.8-0.9-1.2-2.2-1.2-3.5
				c0-2.8,1.9-4.8,4.4-4.8c1.4,0,2.5,0.5,3.4,1.7l-0.6,0.5c-0.4-0.5-0.6-0.6-0.9-0.8c-0.5-0.4-1.2-0.6-1.9-0.6c-2,0-3.6,1.8-3.6,4.1
				c0,2.4,1.5,4.1,3.6,4.1c1.1,0,1.9-0.4,2.7-1.5L91,106z"/>
			<path d="M95,101.1v-0.8l3-2.2v9.3h-0.7v-8L95,101.1z"/>
			<path d="M111,106c-0.4,0.6-0.7,0.8-1.2,1.1c-0.6,0.4-1.4,0.6-2.2,0.6c-1.3,0-2.4-0.5-3.2-1.4c-0.8-0.9-1.2-2.2-1.2-3.5
				c0-2.8,1.9-4.8,4.4-4.8c1.4,0,2.5,0.5,3.4,1.7l-0.6,0.5c-0.4-0.5-0.6-0.6-0.9-0.8c-0.5-0.4-1.2-0.6-1.9-0.6c-2,0-3.6,1.8-3.6,4.1
				c0,2.4,1.5,4.1,3.6,4.1c1.1,0,1.9-0.4,2.7-1.5L111,106z"/>
			<path d="M115,101.1v-0.8l3-2.2v9.3h-0.7v-8L115,101.1z"/>
		</g>
		<g class="st0">
			<path d="M59.6,184.7h-1.5l-0.4,3.1h-0.6l0.4-3.1h-1.2l-0.4,3.1h-0.6l0.4-3.1h-1.6l0-0.6h1.6l0.2-1.4h-1.5v-0.6H56l0.4-2.8H57
				l-0.4,2.8h1.2l0.4-2.8h0.6l-0.4,2.8h1.4l0,0.6h-1.5l-0.2,1.4h1.4L59.6,184.7z M56.5,182.8l-0.2,1.4h1.3l0.2-1.4H56.5z"/>
			<path d="M64.6,183.1h3.8v0.7h-3.8v4.4h-0.8v-9.3h4.6v0.7h-3.8V183.1z"/>
			<path d="M73,183.1h3.8v0.7H73v4.4h-0.8v-9.3h4.6v0.7H73V183.1z"/>
			<path d="M81.5,183.1h3.9v0.7h-3.9v3.7h3.9v0.7h-4.7v-9.3h4.7v0.7h-3.9V183.1z"/>
			<path d="M91.9,178.8c1.7,0,2.8,1,2.8,2.5c0,0.6-0.2,1.1-0.5,1.5c-0.2,0.3-0.4,0.4-1,0.6c0.5,0.1,0.8,0.2,1.1,0.4
				c0.5,0.4,0.8,1.1,0.8,1.8c0,0.9-0.4,1.6-1,2.1c-0.6,0.4-1.2,0.5-2.4,0.5h-2.2v-9.3H91.9z M90.2,183.1h1.4c0.8,0,1.3-0.1,1.7-0.4
				c0.4-0.3,0.7-0.9,0.7-1.5c0-0.7-0.3-1.3-0.8-1.5c-0.4-0.2-0.8-0.2-1.8-0.2h-1.1V183.1z M90.2,187.4h1.3c1.2,0,1.6-0.1,2-0.3
				c0.5-0.3,0.8-0.8,0.8-1.5c0-1.2-0.7-1.8-2.3-1.8h-1.8V187.4z"/>
			<path d="M104,185.3c0,1.1-0.2,1.7-0.6,2.1c-0.5,0.5-1.2,0.8-2.1,0.8c-0.9,0-1.6-0.3-2.1-0.8c-0.4-0.5-0.6-1-0.6-2.4V182
				c0-1.3,0.1-1.8,0.5-2.3c0.4-0.6,1.2-0.9,2.1-0.9c0.9,0,1.6,0.2,2,0.7c0.5,0.5,0.7,1,0.7,2.1V185.3z M99.4,185.1
				c0,1.2,0.1,1.5,0.4,1.9c0.4,0.4,0.9,0.6,1.5,0.6c0.7,0,1.3-0.3,1.6-0.7c0.2-0.3,0.3-0.8,0.3-1.5v-3.7c0-0.8-0.2-1.2-0.6-1.6
				c-0.4-0.3-0.8-0.5-1.4-0.5c-0.7,0-1.3,0.3-1.6,0.8c-0.3,0.4-0.3,0.7-0.3,1.7V185.1z"/>
			<path d="M113.1,185.3c0,1.1-0.2,1.7-0.6,2.1c-0.5,0.5-1.2,0.8-2.1,0.8c-0.9,0-1.6-0.3-2.1-0.8c-0.4-0.5-0.6-1-0.6-2.4V182
				c0-1.3,0.1-1.8,0.5-2.3c0.4-0.6,1.2-0.9,2.1-0.9c0.9,0,1.6,0.2,2,0.7c0.5,0.5,0.7,1,0.7,2.1V185.3z M108.5,185.1
				c0,1.2,0.1,1.5,0.4,1.9c0.4,0.4,0.9,0.6,1.5,0.6c0.7,0,1.3-0.3,1.6-0.7c0.2-0.3,0.4-0.8,0.4-1.5v-3.7c0-0.8-0.2-1.2-0.6-1.6
				c-0.4-0.3-0.8-0.5-1.4-0.5c-0.7,0-1.3,0.3-1.6,0.8c-0.3,0.4-0.3,0.7-0.3,1.7V185.1z"/>
		</g>
		<g class="st0">
			<path d="M59.6,228.2h-1.5l-0.4,3.1h-0.6l0.4-3.1h-1.2l-0.4,3.1h-0.6l0.4-3.1h-1.6l0-0.6h1.6l0.2-1.4h-1.5v-0.6H56l0.4-2.8H57
				l-0.4,2.8h1.2l0.4-2.8h0.6l-0.4,2.8h1.4l0,0.6h-1.5l-0.2,1.4h1.4L59.6,228.2z M56.5,226.2l-0.2,1.4h1.3l0.2-1.4H56.5z"/>
			<path d="M68.8,228.8c0,1.1-0.2,1.7-0.6,2.1c-0.5,0.5-1.2,0.8-2.1,0.8c-0.9,0-1.6-0.3-2.1-0.8c-0.4-0.5-0.6-1-0.6-2.4v-3.1
				c0-1.3,0.1-1.8,0.5-2.3c0.4-0.6,1.2-0.9,2.1-0.9c0.9,0,1.6,0.2,2,0.7c0.5,0.5,0.7,1,0.7,2.1V228.8z M64.1,228.5
				c0,1.2,0.1,1.5,0.4,1.9c0.4,0.4,0.9,0.6,1.5,0.6c0.7,0,1.3-0.3,1.6-0.7c0.2-0.3,0.4-0.8,0.4-1.5v-3.7c0-0.8-0.2-1.2-0.6-1.6
				c-0.4-0.3-0.8-0.5-1.4-0.5c-0.7,0-1.3,0.3-1.6,0.8c-0.3,0.4-0.3,0.7-0.3,1.7V228.5z"/>
			<path d="M77.9,228.8c0,1.1-0.2,1.7-0.6,2.1c-0.5,0.5-1.2,0.8-2.1,0.8c-0.9,0-1.6-0.3-2.1-0.8c-0.4-0.5-0.6-1-0.6-2.4v-3.1
				c0-1.3,0.1-1.8,0.5-2.3c0.4-0.6,1.2-0.9,2.1-0.9c0.9,0,1.6,0.2,2,0.7c0.5,0.5,0.7,1,0.7,2.1V228.8z M73.2,228.5
				c0,1.2,0.1,1.5,0.4,1.9c0.4,0.4,0.9,0.6,1.5,0.6c0.7,0,1.3-0.3,1.6-0.7c0.2-0.3,0.4-0.8,0.4-1.5v-3.7c0-0.8-0.2-1.2-0.6-1.6
				c-0.4-0.3-0.8-0.5-1.4-0.5c-0.7,0-1.3,0.3-1.6,0.8c-0.3,0.4-0.3,0.7-0.3,1.7V228.5z"/>
		</g>
		<g class="st0">
			<path d="M82.7,229.1l-1,2.5h-0.8l3.7-9.3h0.9l3.6,9.3h-0.9l-0.9-2.5H82.7z M84.9,223.3l-2,5.1h3.9L84.9,223.3z"/>
		</g>
		<g class="st0">
			<path d="M93.6,229.1l-1,2.5h-0.8l3.7-9.3h0.9l3.6,9.3H99l-0.9-2.5H93.6z M95.9,223.3l-2,5.1h3.9L95.9,223.3z"/>
			<path d="M104.6,226.2c0.5-0.2,0.7-0.2,1.1-0.2c1.6,0,2.9,1.2,2.9,2.8c0,1.6-1.3,3-3,3c-1.7,0-2.9-1.3-2.9-3c0-0.6,0.1-1,0.5-1.7
				l2.9-4.6h0.9L104.6,226.2z M103.4,228.8c0,1.3,1,2.3,2.2,2.3c1.2,0,2.2-1,2.2-2.2c0-1.2-1-2.2-2.1-2.2
				C104.4,226.7,103.4,227.6,103.4,228.8z"/>
			<path d="M111.8,229.4v-0.5l4.6-6.8v6.6h1.2v0.7h-1.2v2.2h-0.7v-2.2H111.8z M115.7,224.3l-3,4.4h3V224.3z"/>
		</g>
		<g class="st0">
			<path d="M59.6,272.1h-1.5l-0.4,3.1h-0.6l0.4-3.1h-1.2l-0.4,3.1h-0.6l0.4-3.1h-1.6l0-0.6h1.6l0.2-1.4h-1.5v-0.6H56l0.4-2.8H57
				l-0.4,2.8h1.2l0.4-2.8h0.6l-0.4,2.8h1.4l0,0.6h-1.5l-0.2,1.4h1.4L59.6,272.1z M56.5,270.2l-0.2,1.4h1.3l0.2-1.4H56.5z"/>
			<path d="M64.6,270.5h3.8v0.7h-3.8v4.4h-0.8v-9.3h4.6v0.7h-3.8V270.5z"/>
			<path d="M73,270.5h3.8v0.7H73v4.4h-0.8v-9.3h4.6v0.7H73V270.5z"/>
			<path d="M80.5,267.2v-0.7h5.1l-2.8,3.5c0.1,0,0.2,0,0.3,0c1.5,0,2.7,1.2,2.7,2.8c0,1.7-1.3,3-3.1,3c-1.4,0-2.4-0.7-2.8-2l0.7-0.2
				c0.4,1,1.1,1.5,2,1.5c1.3,0,2.4-1,2.4-2.2c0-1.3-1-2.2-2.4-2.2c-0.5,0-0.8,0.1-1.3,0.4l-0.2-0.2l3-3.7H80.5z"/>
			<path d="M89.8,267.2v-0.7h5l-3.7,9.1h-0.9l3.4-8.4H89.8z"/>
			<path d="M99.6,269.9c0.5-0.2,1-0.3,1.5-0.3c1.7,0,3,1.3,3,3c0,1.8-1.3,3.1-3.2,3.1c-0.7,0-1.4-0.2-1.9-0.7
				c-0.4-0.3-0.6-0.6-0.8-1.1l0.8-0.3c0.2,0.4,0.3,0.6,0.5,0.8c0.4,0.4,0.9,0.6,1.5,0.6c1.3,0,2.4-1,2.4-2.4c0-1.3-1-2.3-2.4-2.3
				c-0.8,0-1.3,0.2-2,0.9v-4.8h3.7v0.7l-2.9,0V269.9z"/>
			<path d="M109.2,270.2c0.5-0.2,0.7-0.2,1.1-0.2c1.6,0,2.9,1.2,2.9,2.8c0,1.6-1.3,3-3,3c-1.7,0-2.9-1.3-2.9-3c0-0.6,0.1-1,0.5-1.7
				l2.9-4.6h0.9L109.2,270.2z M108,272.7c0,1.3,1,2.3,2.2,2.3c1.2,0,2.2-1,2.2-2.2c0-1.2-1-2.2-2.1-2.2
				C109,270.6,108,271.5,108,272.7z"/>
		</g>
		<path class="st1" d="M1.6,10.2c-2,4.3-2.3,9.5-0.2,13.7s7,7.2,11.6,6.4c1.4-0.3,2.7-0.8,3.9-1.5c5.5-3.3,8.5-9.6,7.7-16
			C23.8,7.4,19.5,1.7,14,0.2S3.6,6,1.6,10.2z"/>
		<path class="st2" d="M1.6,93c-2,4.3-2.3,9.5-0.2,13.7s7,7.2,11.6,6.4c1.4-0.3,2.7-0.8,3.9-1.5c5.5-3.3,8.5-9.6,7.7-16
			C23.8,90.2,19.5,84.5,14,83S3.6,88.8,1.6,93z"/>
		<path class="st3" d="M1.6,54.4c-2,4.3-2.3,9.5-0.2,13.7s7,7.2,11.6,6.4c1.4-0.2,2.7-0.7,3.9-1.5c5.5-3.3,8.5-9.6,7.7-16
			c-0.8-5.4-5.2-11.1-10.6-12.6S3.6,50.2,1.6,54.4z"/>
		<path class="st4" d="M1.6,226.3c-2,4.3-2.3,9.5-0.2,13.7s7,7.2,11.6,6.4c1.4-0.3,2.7-0.8,3.9-1.5c5.5-3.3,8.5-9.6,7.7-16
			c-0.8-5.4-5.2-11.1-10.6-12.6S3.6,222.1,1.6,226.3z"/>
		<path class="st5" d="M1.6,268.1c-2,4.3-2.3,9.5-0.2,13.7s7,7.2,11.6,6.4c1.4-0.3,2.7-0.8,3.9-1.5c5.5-3.3,8.5-9.6,7.7-16
			c-0.8-5.4-5.2-11.1-10.6-12.6S3.6,263.9,1.6,268.1z"/>
		<path class="st6" d="M1.6,183.1c-2,4.3-2.3,9.5-0.2,13.7s7,7.2,11.6,6.4c1.4-0.3,2.7-0.8,3.9-1.5c5.5-3.3,8.5-9.6,7.7-16
			c-0.8-5.4-5.2-11.1-10.7-12.6S3.6,178.8,1.6,183.1z"/>
	</g>
</g>
</svg>
