<?xml version="1.0" encoding="utf-8"?>
<!-- Generator: Adobe Illustrator 23.1.1, SVG Export Plug-In . SVG Version: 6.00 Build 0)  -->
<svg version="1.1" id="Layer_1" xmlns="http://www.w3.org/2000/svg" xmlns:xlink="http://www.w3.org/1999/xlink" x="0px" y="0px"
	 viewBox="0 0 185 300.5" style="enable-background:new 0 0 185 300.5;" xml:space="preserve">
<style type="text/css">
	.st0{enable-background:new    ;}
	.st1{fill:#2A2D7D;}
	.st2{fill:#580000;}
	.st3{fill:#FF3351;}
	.st4{fill:#FF6262;}
	.st5{opacity:0.5;fill:#FF4344;enable-background:new    ;}
	.st6{fill:#FFD1D1;}
	.st7{fill:#BF7FB9;}
</style>
<title>colorpalettetablet1</title>
<g>
	<g id="Layer_1-2">
		<g class="st0">
			<path d="M59.5,13.8H58l-0.4,3.1H57l0.4-3.1h-1.2l-0.4,3.1h-0.6l0.4-3.1H54l0-0.6h1.6l0.2-1.4h-1.5v-0.6H56l0.4-2.8H57l-0.4,2.8
				h1.2l0.4-2.8h0.6l-0.4,2.8h1.4l0,0.6h-1.5l-0.2,1.4h1.4L59.5,13.8z M56.5,11.9l-0.2,1.4h1.3l0.2-1.4H56.5z"/>
			<path d="M65.2,11.6c0.5-0.2,1-0.3,1.5-0.3c1.7,0,3,1.3,3,3c0,1.8-1.3,3.1-3.2,3.1c-0.7,0-1.4-0.2-1.9-0.7
				c-0.4-0.3-0.6-0.6-0.8-1.1l0.8-0.3c0.2,0.4,0.3,0.6,0.5,0.8c0.4,0.4,0.9,0.6,1.5,0.6c1.3,0,2.4-1,2.4-2.4c0-1.3-1-2.3-2.4-2.3
				c-0.8,0-1.3,0.2-2,0.9V8.1h3.7v0.7l-2.9,0V11.6z"/>
			<path d="M78.6,12.7c0.5,0.5,0.8,1.1,0.8,1.9c0,1.6-1.2,2.8-2.9,2.8c-1.7,0-2.8-1.1-2.8-2.7c0-0.8,0.3-1.5,0.8-2
				c0.3-0.3,0.6-0.5,1.2-0.6c-0.6-0.2-0.8-0.3-1.1-0.6c-0.3-0.4-0.5-0.9-0.5-1.4c0-1.2,1-2.2,2.5-2.2C78,8,79,8.9,79,10.1
				c0,0.6-0.2,1.1-0.6,1.5c-0.3,0.3-0.5,0.4-1,0.5C78,12.3,78.3,12.4,78.6,12.7z M74.5,14.6c0,1.1,0.9,2.1,2,2.1s2-0.9,2-2.1
				c0-1.1-0.9-2.1-2-2.1C75.4,12.5,74.5,13.5,74.5,14.6z M74.9,10.1c0,0.9,0.7,1.6,1.7,1.6c0.9,0,1.7-0.7,1.7-1.5
				c0-0.8-0.8-1.5-1.7-1.5C75.6,8.6,74.9,9.2,74.9,10.1z"/>
			<path d="M89,14.5c0,1.1-0.2,1.7-0.6,2.1c-0.5,0.5-1.2,0.8-2.1,0.8c-0.9,0-1.6-0.3-2.1-0.8c-0.4-0.5-0.6-1-0.6-2.4v-3.1
				c0-1.3,0.1-1.8,0.5-2.3C84.6,8.3,85.4,8,86.3,8c0.9,0,1.6,0.2,2,0.7c0.5,0.5,0.7,1,0.7,2.1V14.5z M84.4,14.2
				c0,1.2,0.1,1.5,0.4,1.9c0.4,0.4,0.9,0.6,1.5,0.6c0.7,0,1.3-0.3,1.6-0.7c0.2-0.3,0.4-0.8,0.4-1.5v-3.7c0-0.8-0.2-1.2-0.6-1.6
				c-0.4-0.3-0.8-0.5-1.4-0.5c-0.7,0-1.3,0.3-1.6,0.8c-0.3,0.4-0.3,0.7-0.3,1.7V14.2z"/>
			<path d="M98.8,14.5c0,1.1-0.2,1.7-0.6,2.1c-0.5,0.5-1.2,0.8-2.1,0.8c-0.9,0-1.6-0.3-2.1-0.8c-0.4-0.5-0.6-1-0.6-2.4v-3.1
				c0-1.3,0.1-1.8,0.5-2.3C94.4,8.3,95.2,8,96.1,8c0.9,0,1.6,0.2,2,0.7c0.5,0.5,0.7,1,0.7,2.1V14.5z M94.2,14.2
				c0,1.2,0.1,1.5,0.4,1.9c0.4,0.4,0.9,0.6,1.5,0.6c0.7,0,1.3-0.3,1.6-0.7c0.2-0.3,0.4-0.8,0.4-1.5v-3.7c0-0.8-0.2-1.2-0.6-1.6
				c-0.4-0.3-0.8-0.5-1.4-0.5c-0.7,0-1.3,0.3-1.6,0.8c-0.3,0.4-0.3,0.7-0.3,1.7V14.2z"/>
			<path d="M108.6,14.5c0,1.1-0.2,1.7-0.6,2.1c-0.5,0.5-1.2,0.8-2.1,0.8c-0.9,0-1.6-0.3-2.1-0.8c-0.4-0.5-0.6-1-0.6-2.4v-3.1
				c0-1.3,0.1-1.8,0.5-2.3c0.4-0.6,1.2-0.9,2.1-0.9c0.9,0,1.6,0.2,2,0.7c0.5,0.5,0.7,1,0.7,2.1V14.5z M104,14.2
				c0,1.2,0.1,1.5,0.4,1.9c0.4,0.4,0.9,0.6,1.5,0.6c0.7,0,1.3-0.3,1.6-0.7c0.2-0.3,0.4-0.8,0.4-1.5v-3.7c0-0.8-0.2-1.2-0.6-1.6
				c-0.4-0.3-0.8-0.5-1.4-0.5c-0.7,0-1.3,0.3-1.6,0.8c-0.3,0.4-0.3,0.7-0.3,1.7V14.2z"/>
			<path d="M118.4,14.5c0,1.1-0.2,1.7-0.6,2.1c-0.5,0.5-1.2,0.8-2.1,0.8c-0.9,0-1.6-0.3-2.1-0.8c-0.4-0.5-0.6-1-0.6-2.4v-3.1
				c0-1.3,0.1-1.8,0.5-2.3c0.4-0.6,1.2-0.9,2.1-0.9c0.9,0,1.6,0.2,2,0.7c0.5,0.5,0.7,1,0.7,2.1V14.5z M113.8,14.2
				c0,1.2,0.1,1.5,0.4,1.9c0.4,0.4,0.9,0.6,1.5,0.6c0.7,0,1.3-0.3,1.6-0.7c0.2-0.3,0.4-0.8,0.4-1.5v-3.7c0-0.8-0.2-1.2-0.6-1.6
				c-0.4-0.3-0.8-0.5-1.4-0.5c-0.7,0-1.3,0.3-1.6,0.8c-0.3,0.4-0.3,0.7-0.3,1.7V14.2z"/>
		</g>
		<g class="st0">
			<path d="M59.5,57.3H58l-0.4,3.1H57l0.4-3.1h-1.2l-0.4,3.1h-0.6l0.4-3.1H54l0-0.6h1.6l0.2-1.4h-1.5v-0.6H56l0.4-2.8H57l-0.4,2.8
				h1.2l0.4-2.8h0.6l-0.4,2.8h1.4l0,0.6h-1.5l-0.2,1.4h1.4L59.5,57.3z M56.5,55.3l-0.2,1.4h1.3l0.2-1.4H56.5z"/>
			<path d="M69,60v0.7h-5l3.2-4.5c1-1.4,1.3-2,1.3-2.6c0-0.9-0.7-1.6-1.8-1.6c-0.7,0-1.3,0.3-1.5,0.8c-0.1,0.3-0.2,0.5-0.2,1h-0.8
				c0.1-1.7,1-2.5,2.5-2.5c1.5,0,2.5,0.9,2.5,2.2c0,0.8-0.3,1.4-1,2.4l-2.9,4H69z"/>
			<path d="M74.9,58.3l-1,2.5h-0.8l3.7-9.3h0.9l3.6,9.3h-0.9l-0.9-2.5H74.9z M77.2,52.4l-2,5.1h3.9L77.2,52.4z"/>
			<path d="M89.8,60v0.7h-5l3.2-4.5c1-1.4,1.3-2,1.3-2.6c0-0.9-0.7-1.6-1.8-1.6c-0.7,0-1.3,0.3-1.5,0.8c-0.1,0.3-0.2,0.5-0.2,1h-0.8
				c0.1-1.7,1-2.5,2.5-2.5c1.5,0,2.5,0.9,2.5,2.2c0,0.8-0.3,1.4-1,2.4l-2.9,4H89.8z"/>
			<path d="M95.2,51.4h2.4c2.7,0,4.3,1.7,4.3,4.5c0,3.1-1.8,4.9-4.7,4.9h-2V51.4z M96,60h0.4c1.9,0,2.6-0.2,3.3-0.7
				c0.9-0.7,1.4-1.8,1.4-3.4c0-2.4-1.3-3.8-3.6-3.8H96V60z"/>
			<path d="M106.6,52.3v-0.7h5l-3.7,9.1h-0.9l3.4-8.4H106.6z"/>
			<path d="M116.4,51.4h2.4c2.7,0,4.3,1.7,4.3,4.5c0,3.1-1.8,4.9-4.7,4.9h-2V51.4z M117.2,60h0.4c1.9,0,2.6-0.2,3.3-0.7
				c0.9-0.7,1.4-1.8,1.4-3.4c0-2.4-1.3-3.8-3.6-3.8h-1.6V60z"/>
		</g>
		<g class="st0">
			<path d="M59.5,101.3H58l-0.4,3.1H57l0.4-3.1h-1.2l-0.4,3.1h-0.6l0.4-3.1H54l0-0.6h1.6l0.2-1.4h-1.5v-0.6H56l0.4-2.8H57l-0.4,2.8
				h1.2l0.4-2.8h0.6l-0.4,2.8h1.4l0,0.6h-1.5l-0.2,1.4h1.4L59.5,101.3z M56.5,99.3l-0.2,1.4h1.3l0.2-1.4H56.5z"/>
			<path d="M66.9,95.3c1.7,0,2.8,1,2.8,2.5c0,0.6-0.2,1.1-0.5,1.5c-0.2,0.3-0.4,0.4-1,0.6c0.5,0.1,0.8,0.2,1.1,0.4
				c0.5,0.4,0.8,1.1,0.8,1.8c0,0.9-0.4,1.6-1,2.1c-0.6,0.4-1.2,0.5-2.4,0.5h-2.2v-9.3H66.9z M65.3,99.6h1.4c0.8,0,1.3-0.1,1.7-0.4
				c0.4-0.3,0.7-0.9,0.7-1.5c0-0.7-0.3-1.3-0.8-1.5c-0.4-0.2-0.8-0.2-1.8-0.2h-1.1V99.6z M65.3,104h1.3c1.2,0,1.6-0.1,2-0.3
				c0.5-0.3,0.8-0.8,0.8-1.5c0-1.2-0.7-1.8-2.3-1.8h-1.8V104z"/>
			<path d="M75.6,99.6h3.8v0.7h-3.8v4.4h-0.8v-9.3h4.6v0.7h-3.8V99.6z"/>
			<path d="M84,96.3v-0.7h5l-3.7,9.1h-0.9l3.4-8.4H84z"/>
			<path d="M94.6,99.6h3.8v0.7h-3.8v4.4h-0.8v-9.3h4.6v0.7h-3.8V99.6z"/>
			<path d="M105.3,95.3c1.7,0,2.8,1,2.8,2.5c0,0.6-0.2,1.1-0.5,1.5c-0.2,0.3-0.4,0.4-1,0.6c0.5,0.1,0.8,0.2,1.1,0.4
				c0.5,0.4,0.8,1.1,0.8,1.8c0,0.9-0.4,1.6-1,2.1c-0.6,0.4-1.2,0.5-2.4,0.5h-2.2v-9.3H105.3z M103.7,99.6h1.4c0.8,0,1.3-0.1,1.7-0.4
				c0.4-0.3,0.7-0.9,0.7-1.5c0-0.7-0.3-1.3-0.8-1.5c-0.4-0.2-0.8-0.2-1.8-0.2h-1.1V99.6z M103.7,104h1.3c1.2,0,1.6-0.1,2-0.3
				c0.5-0.3,0.8-0.8,0.8-1.5c0-1.2-0.7-1.8-2.3-1.8h-1.8V104z"/>
			<path d="M116.5,100.9c-0.5,0.2-0.7,0.2-1.1,0.2c-1.6,0-2.8-1.2-2.8-2.8c0-1.6,1.3-2.9,3-2.9c1.6,0,2.9,1.3,2.9,2.9
				c0,0.6-0.1,1.1-0.5,1.6l-2.9,4.8h-0.9L116.5,100.9z M113.3,98.3c0,1.2,1,2.2,2.1,2.2c1.2,0,2.2-0.9,2.2-2.2
				c0-1.2-0.9-2.2-2.1-2.2C114.3,96.1,113.3,97.1,113.3,98.3z"/>
			<path d="M128.4,95.3h0.9l-3.4,9.3h-0.7l-3.3-9.3h0.9l2.8,8L128.4,95.3z"/>
		</g>
		<g class="st0">
			<path d="M59.5,181.2H58l-0.4,3.1H57l0.4-3.1h-1.2l-0.4,3.1h-0.6l0.4-3.1H54l0-0.6h1.6l0.2-1.4h-1.5v-0.6H56l0.4-2.8H57l-0.4,2.8
				h1.2l0.4-2.8h0.6l-0.4,2.8h1.4l0,0.6h-1.5l-0.2,1.4h1.4L59.5,181.2z M56.5,179.3l-0.2,1.4h1.3l0.2-1.4H56.5z"/>
			<path d="M65.3,179.6h3.8v0.7h-3.8v4.4h-0.8v-9.3h4.6v0.7h-3.8V179.6z"/>
			<path d="M74.4,179.6h3.8v0.7h-3.8v4.4h-0.8v-9.3h4.6v0.7h-3.8V179.6z"/>
			<path d="M82.6,176.2v-0.7h5.1l-2.8,3.5c0.1,0,0.2,0,0.3,0c1.5,0,2.7,1.2,2.7,2.8c0,1.7-1.3,3-3.1,3c-1.4,0-2.4-0.7-2.8-2l0.7-0.2
				c0.4,1,1.1,1.5,2,1.5c1.3,0,2.4-1,2.4-2.2c0-1.3-1-2.2-2.4-2.2c-0.5,0-0.8,0.1-1.3,0.4l-0.2-0.2l3-3.7H82.6z"/>
			<path d="M92.4,176.2v-0.7h5.1l-2.8,3.5c0.1,0,0.2,0,0.3,0c1.5,0,2.7,1.2,2.7,2.8c0,1.7-1.3,3-3.1,3c-1.4,0-2.4-0.7-2.8-2l0.7-0.2
				c0.4,1,1.1,1.5,2,1.5c1.3,0,2.4-1,2.4-2.2c0-1.3-1-2.2-2.4-2.2c-0.5,0-0.8,0.1-1.3,0.4l-0.2-0.2l3-3.7H92.4z"/>
			<path d="M103,178.9c0.5-0.2,1-0.3,1.5-0.3c1.7,0,3,1.3,3,3c0,1.8-1.3,3.1-3.2,3.1c-0.7,0-1.4-0.2-1.9-0.7
				c-0.4-0.3-0.6-0.6-0.8-1.1l0.8-0.3c0.2,0.4,0.3,0.6,0.5,0.8c0.4,0.4,0.9,0.6,1.5,0.6c1.3,0,2.4-1,2.4-2.4c0-1.3-1-2.3-2.4-2.3
				c-0.8,0-1.3,0.2-2,0.9v-4.8h3.7v0.7l-2.9,0V178.9z"/>
			<path d="M112.4,178.3v-0.8l3-2.2v9.3h-0.7v-8L112.4,178.3z"/>
		</g>
		<g class="st0">
			<path d="M71.5,200.6H70l-0.4,3.1H69l0.4-3.1h-1.2l-0.4,3.1h-0.6l0.4-3.1H66l0-0.6h1.6l0.2-1.4h-1.5v-0.6h1.6l0.4-2.8h0.6
				l-0.4,2.8h1.2l0.4-2.8h0.6l-0.4,2.8h1.4l0,0.6h-1.5l-0.2,1.4h1.4L71.5,200.6z M68.4,198.7l-0.2,1.4h1.3l0.2-1.4H68.4z"/>
			<path d="M77.3,199h3.8v0.7h-3.8v4.4h-0.8v-9.3h4.6v0.7h-3.8V199z"/>
			<path d="M86.4,199h3.8v0.7h-3.8v4.4h-0.8v-9.3h4.6v0.7h-3.8V199z"/>
			<path d="M95.9,198.7c0.5-0.2,0.7-0.2,1.1-0.2c1.6,0,2.9,1.2,2.9,2.8c0,1.6-1.3,3-3,3c-1.7,0-2.9-1.3-2.9-3c0-0.6,0.1-1,0.5-1.7
				l2.9-4.6h0.9L95.9,198.7z M94.8,201.2c0,1.3,1,2.3,2.2,2.3c1.2,0,2.2-1,2.2-2.2c0-1.2-1-2.2-2.1-2.2
				C95.7,199.1,94.8,200,94.8,201.2z"/>
			<path d="M109,203.3v0.7h-5l3.2-4.5c1-1.4,1.3-2,1.3-2.6c0-0.9-0.7-1.6-1.8-1.6c-0.7,0-1.3,0.3-1.5,0.8c-0.1,0.3-0.2,0.5-0.2,1
				h-0.8c0.1-1.7,1-2.5,2.5-2.5c1.5,0,2.5,0.9,2.5,2.2c0,0.8-0.3,1.4-1,2.4l-2.9,4H109z"/>
			<path d="M115.5,198.7c0.5-0.2,0.7-0.2,1.1-0.2c1.6,0,2.9,1.2,2.9,2.8c0,1.6-1.3,3-3,3c-1.7,0-2.9-1.3-2.9-3c0-0.6,0.1-1,0.5-1.7
				l2.9-4.6h0.9L115.5,198.7z M114.4,201.2c0,1.3,1,2.3,2.2,2.3c1.2,0,2.2-1,2.2-2.2c0-1.2-1-2.2-2.1-2.2
				C115.3,199.1,114.4,200,114.4,201.2z"/>
			<path d="M128.6,203.3v0.7h-5l3.2-4.5c1-1.4,1.3-2,1.3-2.6c0-0.9-0.7-1.6-1.8-1.6c-0.7,0-1.3,0.3-1.5,0.8c-0.1,0.3-0.2,0.5-0.2,1
				h-0.8c0.1-1.7,1-2.5,2.5-2.5c1.5,0,2.5,0.9,2.5,2.2c0,0.8-0.3,1.4-1,2.4l-2.9,4H128.6z"/>
		</g>
		<g class="st0">
			<path d="M59.5,260.1H58l-0.4,3.1H57l0.4-3.1h-1.2l-0.4,3.1h-0.6l0.4-3.1H54l0-0.6h1.6l0.2-1.4h-1.5v-0.6H56l0.4-2.8H57l-0.4,2.8
				h1.2l0.4-2.8h0.6l-0.4,2.8h1.4l0,0.6h-1.5l-0.2,1.4h1.4L59.5,260.1z M56.5,258.2l-0.2,1.4h1.3l0.2-1.4H56.5z"/>
			<path d="M65.3,258.5h3.8v0.7h-3.8v4.4h-0.8v-9.3h4.6v0.7h-3.8V258.5z"/>
			<path d="M74.4,258.5h3.8v0.7h-3.8v4.4h-0.8v-9.3h4.6v0.7h-3.8V258.5z"/>
			<path d="M82,261.4v-0.5l4.6-6.8v6.6h1.2v0.7h-1.2v2.2h-0.7v-2.2H82z M85.9,256.2l-3,4.4h3V256.2z"/>
			<path d="M92.4,255.2v-0.7h5.1l-2.8,3.5c0.1,0,0.2,0,0.3,0c1.5,0,2.7,1.2,2.7,2.8c0,1.7-1.3,3-3.1,3c-1.4,0-2.4-0.7-2.8-2l0.7-0.2
				c0.4,1,1.1,1.5,2,1.5c1.3,0,2.4-1,2.4-2.2c0-1.3-1-2.2-2.4-2.2c-0.5,0-0.8,0.1-1.3,0.4l-0.2-0.2l3-3.7H92.4z"/>
			<path d="M101.6,261.4v-0.5l4.6-6.8v6.6h1.2v0.7h-1.2v2.2h-0.7v-2.2H101.6z M105.5,256.2l-3,4.4h3V256.2z"/>
			<path d="M111.4,261.4v-0.5l4.6-6.8v6.6h1.2v0.7h-1.2v2.2h-0.7v-2.2H111.4z M115.3,256.2l-3,4.4h3V256.2z"/>
		</g>
		<g class="st0">
			<path d="M71.5,279.5H70l-0.4,3.1H69l0.4-3.1h-1.2l-0.4,3.1h-0.6l0.4-3.1H66l0-0.6h1.6l0.2-1.4h-1.5V277h1.6l0.4-2.8h0.6l-0.4,2.8
				h1.2l0.4-2.8h0.6l-0.4,2.8h1.4l0,0.6h-1.5l-0.2,1.4h1.4L71.5,279.5z M68.4,277.6l-0.2,1.4h1.3l0.2-1.4H68.4z"/>
			<path d="M77.3,277.9h3.8v0.7h-3.8v4.4h-0.8v-9.3h4.6v0.7h-3.8V277.9z"/>
			<path d="M86.4,277.9h3.8v0.7h-3.8v4.4h-0.8v-9.3h4.6v0.7h-3.8V277.9z"/>
			<path d="M94.7,273.6h2.4c2.7,0,4.3,1.7,4.3,4.5c0,3.1-1.8,4.9-4.7,4.9h-2V273.6z M95.5,282.2h0.4c1.9,0,2.6-0.2,3.3-0.7
				c0.9-0.7,1.4-1.8,1.4-3.4c0-2.4-1.3-3.8-3.6-3.8h-1.6V282.2z"/>
			<path d="M106.4,276.6v-0.8l3-2.2v9.3h-0.7v-8L106.4,276.6z"/>
			<path d="M115.9,273.6h2.4c2.7,0,4.3,1.7,4.3,4.5c0,3.1-1.8,4.9-4.7,4.9h-2V273.6z M116.7,282.2h0.4c1.9,0,2.6-0.2,3.3-0.7
				c0.9-0.7,1.4-1.8,1.4-3.4c0-2.4-1.3-3.8-3.6-3.8h-1.6V282.2z"/>
			<path d="M127.7,276.6v-0.8l3-2.2v9.3h-0.7v-8L127.7,276.6z"/>
		</g>
		<path class="st1" d="M1.6,53.5c-2,4.3-2.3,9.5-0.2,13.7s7,7.2,11.6,6.4c1.4-0.3,2.7-0.8,3.9-1.5c5.5-3.3,8.5-9.6,7.7-16
			C23.8,50.7,19.5,45,14,43.5S3.6,49.3,1.6,53.5z"/>
		<path class="st2" d="M1.6,10.2c-2,4.3-2.3,9.5-0.2,13.7s7,7.2,11.6,6.4c1.4-0.3,2.7-0.8,3.9-1.5c5.5-3.3,8.5-9.6,7.7-16
			C23.8,7.4,19.5,1.7,14,0.2S3.6,6,1.6,10.2z"/>
		<path class="st3" d="M1.6,180.3c-2,4.3-2.3,9.5-0.2,13.7s7,7.2,11.6,6.4c1.4-0.3,2.7-0.8,3.9-1.5c5.5-3.3,8.5-9.6,7.7-16
			c-0.8-5.4-5.2-11.1-10.6-12.6S3.6,176.1,1.6,180.3z"/>
		<path class="st4" d="M13.8,195.5c-2,4.3-2.3,9.5-0.2,13.7s7,7.2,11.6,6.4c1.4-0.3,2.8-0.8,4-1.5c5.5-3.3,8.5-9.6,7.6-16
			c-0.9-5.4-5.2-11.1-10.7-12.6S15.8,191.3,13.8,195.5z"/>
		<path class="st5" d="M1.6,250.4c-2,4.3-2.3,9.5-0.2,13.7s7,7.2,11.6,6.4c1.4-0.3,2.7-0.8,3.9-1.5c5.5-3.3,8.5-9.6,7.7-16
			c-0.8-5.4-5.2-11.1-10.6-12.6S3.6,246.2,1.6,250.4z"/>
		<path class="st6" d="M13.8,265.6c-2,4.3-2.3,9.5-0.2,13.7s7,7.2,11.6,6.4c1.4-0.3,2.8-0.8,4-1.5c5.5-3.3,8.5-9.6,7.6-16
			c-0.9-5.4-5.2-11.1-10.7-12.6S15.8,261.4,13.8,265.6z"/>
		<path class="st7" d="M1.6,96.8c-2,4.3-2.3,9.5-0.2,13.7s7,7.2,11.6,6.4c1.4-0.3,2.7-0.8,3.9-1.5c5.5-3.3,8.5-9.6,7.7-16
			c-0.8-5.4-5.2-11.1-10.7-12.6S3.6,92.6,1.6,96.8z"/>
	</g>
</g>
</svg>
