<svg xmlns="http://www.w3.org/2000/svg" viewBox="0 0 173.06 293.07"><defs><style>.cls-1{font-size:14px;font-family:NeuzeitGro-Lig, Neuzeit Grotesk;letter-spacing:0.15em;}.cls-2{letter-spacing:0.19em;}.cls-3{fill:#010101;}.cls-4{fill:#c1c1c1;}.cls-5{fill:#737373;}.cls-6{fill:#00aa64;}.cls-7{fill:#ff3756;}.cls-8{fill:#ffeb00;}</style></defs><title>colorpalettetablet2</title><g id="Layer_2" data-name="Layer 2"><g id="Layer_1-2" data-name="Layer 1"><text class="cls-1" transform="translate(53.47 20.03)">#010101</text><text class="cls-1" transform="translate(53.47 63.48)">#737373</text><text class="cls-1" transform="translate(53.47 107.45)">#C1C1C1</text><text class="cls-1" transform="translate(53.47 188.15)">#FFEB00</text><text class="cls-1" transform="translate(53.47 231.6)">#00<tspan class="cls-2" x="27.3" y="0">A</tspan><tspan x="38.23" y="0">A64</tspan></text><text class="cls-1" transform="translate(53.47 275.57)">#FF3756</text><path class="cls-3" d="M1.65,10.23c-2,4.3-2.33,9.49-.22,13.72s7,7.17,11.62,6.37A11.92,11.92,0,0,0,17,28.82a16.16,16.16,0,0,0,7.66-16C23.83,7.38,19.47,1.68,14,.2S3.59,6,1.65,10.23Z"/><path class="cls-4" d="M1.65,93c-2,4.3-2.33,9.49-.22,13.73s7,7.17,11.62,6.36a11.92,11.92,0,0,0,3.95-1.5,16.15,16.15,0,0,0,7.66-16C23.83,90.18,19.47,84.48,14,83S3.59,88.8,1.65,93Z"/><path class="cls-5" d="M1.65,54.38c-2,4.3-2.33,9.5-.22,13.73s7,7.17,11.62,6.36A11.7,11.7,0,0,0,17,73a16.15,16.15,0,0,0,7.66-16c-.83-5.41-5.19-11.11-10.63-12.6S3.59,50.16,1.65,54.38Z"/><path class="cls-6" d="M1.65,226.32c-2,4.3-2.33,9.5-.22,13.73s7,7.17,11.62,6.37A11.94,11.94,0,0,0,17,244.91a16.14,16.14,0,0,0,7.66-16c-.83-5.41-5.19-11.11-10.63-12.59S3.59,222.1,1.65,226.32Z"/><path class="cls-7" d="M1.65,268.09c-2,4.3-2.33,9.49-.22,13.72s7,7.17,11.62,6.37a11.92,11.92,0,0,0,3.95-1.5,16.16,16.16,0,0,0,7.66-16c-.83-5.41-5.19-11.11-10.63-12.59S3.59,263.87,1.65,268.09Z"/><path class="cls-8" d="M1.65,183.05c-2,4.3-2.33,9.5-.22,13.73s7,7.17,11.62,6.37A11.94,11.94,0,0,0,17,201.64a16.14,16.14,0,0,0,7.66-16C23.83,180.21,19.47,174.51,14,173S3.59,178.83,1.65,183.05Z"/></g></g></svg>