<svg xmlns="http://www.w3.org/2000/svg" viewBox="0 0 185 300.46"><defs><style>.cls-1{font-size:14px;font-family:NeuzeitGro-Lig, Neuzeit Grotesk;letter-spacing:0.2em;}.cls-2{fill:#2a2d7d;}.cls-3{fill:#580000;}.cls-4{fill:#ff3351;}.cls-5{fill:#ff6262;}.cls-6{fill:#ff4344;opacity:0.5;}.cls-7{fill:#ffd1d1;}.cls-8{fill:#bf7fb9;}</style></defs><title>colorpalettetablet1</title><g id="Layer_2" data-name="Layer 2"><g id="Layer_1-2" data-name="Layer 1"><text class="cls-1" transform="translate(53.43 17.27)">#580000</text><text class="cls-1" transform="translate(53.43 60.72)">#2A2D7D</text><text class="cls-1" transform="translate(53.43 104.69)">#BF7FB9V</text><text class="cls-1" transform="translate(53.43 184.65)">#FF3351</text><text class="cls-1" transform="translate(65.4 204.05)">#FF6262</text><text class="cls-1" transform="translate(53.43 263.56)">#FF4344</text><text class="cls-1" transform="translate(65.4 282.96)">#FFD1D1</text><path class="cls-2" d="M1.65,53.5c-2,4.3-2.33,9.49-.22,13.72s7,7.17,11.62,6.37A11.92,11.92,0,0,0,17,72.09a16.16,16.16,0,0,0,7.66-16C23.83,50.65,19.47,45,14,43.47S3.59,49.28,1.65,53.5Z"/><path class="cls-3" d="M1.65,10.23c-2,4.3-2.33,9.49-.22,13.72s7,7.17,11.62,6.37A11.92,11.92,0,0,0,17,28.82a16.16,16.16,0,0,0,7.66-16C23.83,7.38,19.47,1.68,14,.2S3.59,6,1.65,10.23Z"/><path class="cls-4" d="M1.65,180.29c-2,4.3-2.33,9.5-.22,13.73s7,7.17,11.62,6.36a11.92,11.92,0,0,0,3.95-1.5,16.15,16.15,0,0,0,7.66-16c-.83-5.41-5.19-11.11-10.63-12.6S3.59,176.07,1.65,180.29Z"/><path class="cls-5" d="M13.82,195.52c-2,4.3-2.33,9.49-.22,13.73s7,7.17,11.62,6.36a12.05,12.05,0,0,0,4-1.5,16.15,16.15,0,0,0,7.65-16C36,192.67,31.64,187,26.2,185.49S15.76,191.3,13.82,195.52Z"/><path class="cls-6" d="M1.65,250.42c-2,4.3-2.33,9.49-.22,13.73s7,7.17,11.62,6.36A11.92,11.92,0,0,0,17,269a16.15,16.15,0,0,0,7.66-16c-.83-5.41-5.19-11.12-10.63-12.6S3.59,246.2,1.65,250.42Z"/><path class="cls-7" d="M13.82,265.64c-2,4.31-2.33,9.5-.22,13.73s7,7.17,11.62,6.37a12.05,12.05,0,0,0,4-1.5,16.15,16.15,0,0,0,7.65-16C36,262.8,31.64,257.1,26.2,255.62S15.76,261.42,13.82,265.64Z"/><path class="cls-8" d="M1.65,96.77c-2,4.3-2.33,9.49-.22,13.72s7,7.17,11.62,6.37a11.92,11.92,0,0,0,3.95-1.5,16.16,16.16,0,0,0,7.66-16C23.83,93.92,19.47,88.22,14,86.74S3.59,92.55,1.65,96.77Z"/></g></g></svg>