<?xml version="1.0" encoding="utf-8"?>
<!-- Generator: Adobe Illustrator 23.0.6, SVG Export Plug-In . SVG Version: 6.00 Build 0)  -->
<svg version="1.1" id="Layer_1" xmlns="http://www.w3.org/2000/svg" xmlns:xlink="http://www.w3.org/1999/xlink" x="0px" y="0px"
	 viewBox="0 0 38 34.7" style="enable-background:new 0 0 38 34.7;" xml:space="preserve">
<style type="text/css">
	.st0{fill:#0F0000;}
	.st1{fill:none;stroke:#0F0000;stroke-width:0.5;stroke-miterlimit:10;}
</style>
<title>resume</title>
<g>
	<g id="Layer_1-2">
		<polygon points="8.8,6.2 18.8,23.4 28.8,6.2 		"/>
		<path class="st0" d="M38,34.7H0v-9.2h38V34.7z M0.3,34.4h37.4v-8.6H0.3V34.4z"/>
		<rect x="18.6" class="st0" width="0.3" height="7.3"/>
		<path d="M14.6,32.4h-1v-4.7h1.5c1.1,0,1.7,0.5,1.7,1.5c0,0.8-0.6,1.5-1.4,1.6c-0.1,0-0.2,0-0.2,0h-0.5v1.6H14.6z M15,30
			c0.6,0,0.9-0.3,0.9-0.7s-0.3-0.8-0.9-0.8h-0.4V30H15z"/>
		<path d="M17.7,27.8H19c0.6-0.1,1.2,0.1,1.7,0.5s0.7,1.1,0.7,1.7c0,0.7-0.2,1.4-0.7,1.9c-0.5,0.4-1,0.6-1.6,0.5h-1.4V27.8z
			 M18.7,31.6h0.2c0.4,0,0.8-0.1,1.1-0.3c0.4-0.3,0.5-0.8,0.5-1.2c0.1-0.8-0.5-1.5-1.3-1.5c-0.1,0-0.1,0-0.2,0h-0.4L18.7,31.6z"/>
		<path d="M23.3,29.7h1.6v0.8h-1.6v1.9h-1v-4.7h2.6v0.8h-1.6V29.7z"/>
	</g>
</g>
<rect x="0.3" y="25.5" class="st1" width="37.4" height="8.9"/>
</svg>
