<svg xmlns="http://www.w3.org/2000/svg" viewBox="0 0 657.16 40.14"><defs><style>.cls-1,.cls-4{fill:#fff;}.cls-1,.cls-2{opacity:0.5;}.cls-2{fill:#ef3d5a;}.cls-3{fill:#231f20;}.cls-5{fill:#2e307d;}</style></defs><title>flowchart</title><g id="Layer_2" data-name="Layer 2"><g id="Layer_1-2" data-name="Layer 1"><rect class="cls-1" x="581.41" y="5.89" width="75.75" height="28.35" rx="14.17"/><rect class="cls-2" x="581.41" y="5.89" width="75.75" height="28.35" rx="14.17"/><path class="cls-3" d="M609.94,21.24a1.13,1.13,0,0,0,1.23,1.21,1.21,1.21,0,0,0,1.33-1.18c0-.6-.31-.88-1.4-1.25a3.47,3.47,0,0,1-1.4-.69,1.72,1.72,0,0,1-.54-1.32,2.07,2.07,0,0,1,4.13,0h-.88a1.35,1.35,0,0,0-.16-.72,1.2,1.2,0,0,0-1-.49A1.11,1.11,0,0,0,610,18a.94.94,0,0,0,.39.8,4,4,0,0,0,1.12.49,3.12,3.12,0,0,1,1.37.75,1.79,1.79,0,0,1,.47,1.23,2,2,0,0,1-2.19,2,2,2,0,0,1-1.85-.94,1.76,1.76,0,0,1-.24-.9v-.15Z"/><path class="cls-3" d="M618.28,18.31h.79V23.1h-.79v-.92a2,2,0,0,1-1.75,1,2.3,2.3,0,0,1-2.26-2.5,2.33,2.33,0,0,1,2.28-2.53,2,2,0,0,1,1.73.91Zm-2.78,1.16a2.2,2.2,0,0,0-.39,1.27,1.64,1.64,0,0,0,1.54,1.79,1.77,1.77,0,0,0,1.64-1.87,1.62,1.62,0,0,0-1.62-1.76A1.32,1.32,0,0,0,615.5,19.47Z"/><path class="cls-3" d="M624.31,18.31,622.5,23.1h-.84l-1.75-4.79h.83L622.09,22l1.4-3.66Z"/><path class="cls-3" d="M625.49,21a1.45,1.45,0,0,0,.32.87,1.55,1.55,0,0,0,1.29.66,1.65,1.65,0,0,0,1.43-.82l.7.26a2.36,2.36,0,0,1-2.13,1.29,2.38,2.38,0,0,1-2.45-2.5,2.43,2.43,0,1,1,4.85-.07c0,.06,0,.2,0,.31Zm3.17-.58a1.54,1.54,0,0,0-.27-.83,1.68,1.68,0,0,0-1.32-.65,1.55,1.55,0,0,0-1.3.67,2,2,0,0,0-.27.81Z"/><rect class="cls-4" x="132.9" y="5.89" width="100.65" height="28.35"/><path class="cls-5" d="M234.05,34.74H132.4V5.39H234.05Zm-100.65-1h99.65V6.39H133.4Z"/><path class="cls-3" d="M146.17,21.24a1.13,1.13,0,0,0,1.23,1.21,1.21,1.21,0,0,0,1.33-1.18c0-.6-.31-.88-1.4-1.25a3.61,3.61,0,0,1-1.41-.69,1.75,1.75,0,0,1-.54-1.31,2.07,2.07,0,0,1,4.13,0h-.87a1.27,1.27,0,0,0-.17-.72,1.2,1.2,0,0,0-1-.49A1.11,1.11,0,0,0,146.27,18a.94.94,0,0,0,.39.8,4,4,0,0,0,1.12.49,3.18,3.18,0,0,1,1.37.75,1.79,1.79,0,0,1,.47,1.23,2,2,0,0,1-2.19,2,1.94,1.94,0,0,1-1.85-.94,1.67,1.67,0,0,1-.24-.9v-.15Z"/><path class="cls-3" d="M151.33,21a1.45,1.45,0,0,0,.31.87,1.55,1.55,0,0,0,1.29.66,1.65,1.65,0,0,0,1.43-.82l.7.26a2.35,2.35,0,0,1-2.13,1.29,2.38,2.38,0,0,1-2.45-2.5,2.43,2.43,0,1,1,4.85-.07c0,.06,0,.2,0,.31Zm3.16-.58a1.54,1.54,0,0,0-.27-.83,1.65,1.65,0,0,0-1.32-.65,1.53,1.53,0,0,0-1.29.67,1.87,1.87,0,0,0-.28.81Z"/><path class="cls-3" d="M156.41,23.1V16.16h.8V23.1Z"/><path class="cls-3" d="M159.25,21a1.52,1.52,0,0,0,.32.87,1.55,1.55,0,0,0,1.29.66,1.65,1.65,0,0,0,1.43-.82l.7.26a2.36,2.36,0,0,1-2.13,1.29,2.38,2.38,0,0,1-2.45-2.5,2.43,2.43,0,1,1,4.85-.07c0,.06,0,.2,0,.31Zm3.17-.58a1.54,1.54,0,0,0-.27-.83,1.65,1.65,0,0,0-1.32-.65,1.52,1.52,0,0,0-1.29.67,1.87,1.87,0,0,0-.28.81Z"/><path class="cls-3" d="M168.14,22.51a2.45,2.45,0,0,1-1.77.71,2.34,2.34,0,0,1-2.35-2.5,2.42,2.42,0,0,1,4.14-1.81l-.51.51a1.76,1.76,0,0,0-1.21-.5,1.62,1.62,0,0,0-1.61,1.77,1.63,1.63,0,0,0,1.59,1.8,1.69,1.69,0,0,0,1.23-.52Z"/><path class="cls-3" d="M170.18,22.12c0,.25.07.3.37.3h.36v.68h-.74c-.56,0-.78-.22-.78-.74V19h-.67v-.69h.67V16.8h.79v1.51h.73V19h-.73Z"/><path class="cls-3" d="M175.81,16l.58.21-.9,2.48-.72-.26Zm1.82,0,.59.21-.91,2.47-.72-.25Z"/><path class="cls-3" d="M180.22,22.12c0,.25.08.3.37.3H181v.68h-.74c-.56,0-.78-.22-.78-.74V19h-.66v-.69h.66V16.8h.79v1.51H181V19h-.73Z"/><path class="cls-3" d="M182.44,21a1.45,1.45,0,0,0,.31.87,1.55,1.55,0,0,0,1.29.66,1.65,1.65,0,0,0,1.44-.82l.7.26a2.43,2.43,0,0,1-4.58-1.21,2.43,2.43,0,1,1,4.85-.07c0,.06,0,.2,0,.31Zm3.16-.58a1.46,1.46,0,0,0-.27-.83A1.65,1.65,0,0,0,184,18.9a1.53,1.53,0,0,0-1.29.67,1.87,1.87,0,0,0-.27.81Z"/><path class="cls-3" d="M188.38,18.31V19a1.51,1.51,0,0,1,1.37-.78,1.24,1.24,0,0,1,1.29.88,1.56,1.56,0,0,1,1.52-.88,1.44,1.44,0,0,1,1.21.51c.23.3.29.57.29,1.33V23.1h-.79V20.22c0-.58,0-.72-.13-.92a1,1,0,0,0-.83-.4c-.7,0-1.09.47-1.09,1.32V23.1h-.79V20.23a1.81,1.81,0,0,0-.15-.91.82.82,0,0,0-.78-.42c-.7,0-1.12.5-1.12,1.33V23.1h-.79V18.31Z"/><path class="cls-3" d="M196.33,18.31v.87a1.86,1.86,0,0,1,1.75-1,2.27,2.27,0,0,1,2.26,2.48,2.31,2.31,0,0,1-2.26,2.55A2.39,2.39,0,0,1,197,23a1.78,1.78,0,0,1-.7-.61v3h-.79v-7Zm0,2.47a1.58,1.58,0,0,0,1.59,1.75,1.63,1.63,0,0,0,1.58-1.83,1.86,1.86,0,0,0-.42-1.3,1.56,1.56,0,0,0-1.13-.5A1.68,1.68,0,0,0,196.33,20.78Z"/><path class="cls-3" d="M201.54,23.1V16.16h.79V23.1Z"/><path class="cls-3" d="M207.54,18.31h.79V23.1h-.79v-.92a2,2,0,0,1-1.75,1,2.29,2.29,0,0,1-2.25-2.5,2.33,2.33,0,0,1,2.27-2.53,2,2,0,0,1,1.73.91Zm-2.78,1.16a2.2,2.2,0,0,0-.39,1.27,1.64,1.64,0,0,0,1.54,1.79,1.77,1.77,0,0,0,1.64-1.87,1.62,1.62,0,0,0-1.62-1.76A1.32,1.32,0,0,0,204.76,19.47Z"/><path class="cls-3" d="M210.74,22.12c0,.25.07.3.36.3h.37v.68h-.74c-.56,0-.78-.22-.78-.74V19h-.67v-.69H210V16.8h.79v1.51h.73V19h-.73Z"/><path class="cls-3" d="M213,21a1.52,1.52,0,0,0,.32.87,1.55,1.55,0,0,0,1.29.66,1.65,1.65,0,0,0,1.43-.82l.7.26a2.36,2.36,0,0,1-2.13,1.29,2.38,2.38,0,0,1-2.45-2.5,2.43,2.43,0,1,1,4.85-.07c0,.06,0,.2,0,.31Zm3.17-.58a1.54,1.54,0,0,0-.27-.83,1.67,1.67,0,0,0-1.32-.65,1.55,1.55,0,0,0-1.3.67,2,2,0,0,0-.27.81Z"/><path class="cls-3" d="M218.23,18.72l-.57-.2.89-2.49.73.25Zm1.82,0-.58-.2.9-2.49.73.25Z"/><rect class="cls-4" x="279.45" y="0.5" width="98.26" height="39.14"/><path class="cls-5" d="M378.21,40.14H279V0h99.26Zm-98.26-1h97.26V1H280Z"/><path class="cls-3" d="M295.83,16.66a3,3,0,0,1-2.54,1.17,3.08,3.08,0,0,1-2.38-1,3.92,3.92,0,0,1-.92-2.57,3.36,3.36,0,0,1,3.31-3.6,3.41,3.41,0,0,1,1.74.47,3.8,3.8,0,0,1,.81.72l-.6.56a2.46,2.46,0,0,0-1.92-1,2.56,2.56,0,0,0-2.45,2.8A2.57,2.57,0,0,0,293.37,17a2.3,2.3,0,0,0,1.88-1Z"/><path class="cls-3" d="M297.67,13.58a1.75,1.75,0,0,1,1.44-.78,1.61,1.61,0,0,1,1.12.43,1.66,1.66,0,0,1,.37,1.25v3.23h-.79V14.52c0-.65-.32-1-.89-1a1.23,1.23,0,0,0-.94.43,1.25,1.25,0,0,0-.31,1v2.81h-.8V10.77h.8Z"/><path class="cls-3" d="M306.66,15.33a2.45,2.45,0,0,1-2.46,2.49,2.37,2.37,0,0,1-2.42-2.52,2.36,2.36,0,0,1,2.45-2.5A2.39,2.39,0,0,1,306.66,15.33Zm-4.07,0a1.61,1.61,0,0,0,1.63,1.77,1.63,1.63,0,0,0,1.62-1.77,1.63,1.63,0,1,0-3.25,0Z"/><path class="cls-3" d="M312.36,15.33a2.45,2.45,0,0,1-2.46,2.49,2.37,2.37,0,0,1-2.42-2.52,2.36,2.36,0,0,1,2.45-2.5A2.39,2.39,0,0,1,312.36,15.33Zm-4.07,0a1.62,1.62,0,0,0,1.63,1.77,1.64,1.64,0,0,0,1.63-1.77,1.64,1.64,0,1,0-3.26,0Z"/><path class="cls-3" d="M315.78,14.22v-.05c0-.45-.36-.73-.91-.73s-.87.27-.87.69.21.57,1.08.81a2.49,2.49,0,0,1,1.16.55,1.36,1.36,0,0,1,.39.94c0,.83-.69,1.39-1.71,1.39s-1.71-.51-1.79-1.47h.78a.89.89,0,0,0,1,.83c.54,0,.9-.28.9-.71s-.28-.62-1.1-.83c-1-.28-1.51-.72-1.51-1.45s.68-1.39,1.69-1.39a1.47,1.47,0,0,1,1.68,1.42Z"/><path class="cls-3" d="M318.3,15.57a1.54,1.54,0,0,0,.31.87,1.56,1.56,0,0,0,1.3.65,1.65,1.65,0,0,0,1.43-.82l.7.26a2.43,2.43,0,0,1-4.58-1.2,2.43,2.43,0,1,1,4.85-.08c0,.07,0,.2,0,.32Zm3.17-.59a1.63,1.63,0,0,0-.27-.82,1.67,1.67,0,0,0-1.33-.66,1.53,1.53,0,0,0-1.29.67,2,2,0,0,0-.27.81Z"/><path class="cls-3" d="M327.42,16.73c0,.24.07.29.36.29h.37v.69h-.74c-.56,0-.78-.22-.78-.75V13.61H326v-.7h.67V11.4h.79v1.51h.73v.7h-.73Z"/><path class="cls-3" d="M329.64,15.57a1.47,1.47,0,0,0,.31.87,1.54,1.54,0,0,0,1.29.65,1.65,1.65,0,0,0,1.43-.82l.7.26a2.35,2.35,0,0,1-2.13,1.29,2.38,2.38,0,0,1-2.45-2.49,2.43,2.43,0,1,1,4.85-.08c0,.07,0,.2,0,.32ZM332.8,15a1.46,1.46,0,0,0-.27-.82,1.63,1.63,0,0,0-1.32-.66,1.53,1.53,0,0,0-1.29.67,1.84,1.84,0,0,0-.27.81Z"/><path class="cls-3" d="M335.58,12.91v.67a1.49,1.49,0,0,1,1.36-.78,1.24,1.24,0,0,1,1.29.87,1.57,1.57,0,0,1,1.52-.87,1.43,1.43,0,0,1,1.22.51c.23.3.29.57.29,1.33v3.07h-.79V14.83c0-.59,0-.72-.14-.92a.92.92,0,0,0-.83-.41c-.7,0-1.08.47-1.08,1.33v2.88h-.79V14.84a1.75,1.75,0,0,0-.16-.92.83.83,0,0,0-.78-.42c-.7,0-1.11.5-1.11,1.34v2.87h-.79v-4.8Z"/><path class="cls-3" d="M343.53,12.91v.88a1.85,1.85,0,0,1,1.75-1,2.26,2.26,0,0,1,2.25,2.47,2.3,2.3,0,0,1-2.25,2.55,2.23,2.23,0,0,1-1-.25,1.65,1.65,0,0,1-.7-.61v3h-.79v-7Zm0,2.48a1.58,1.58,0,0,0,1.58,1.75,1.63,1.63,0,0,0,1.58-1.84,1.88,1.88,0,0,0-.41-1.3,1.58,1.58,0,0,0-1.14-.5A1.67,1.67,0,0,0,343.53,15.39Z"/><path class="cls-3" d="M348.73,17.71V10.77h.79v6.94Z"/><path class="cls-3" d="M354.74,12.91h.79v4.8h-.79v-.93a2,2,0,0,1-1.75,1,2.29,2.29,0,0,1-2.26-2.49A2.33,2.33,0,0,1,353,12.8a2,2,0,0,1,1.73.9ZM352,14.08a2.18,2.18,0,0,0-.4,1.27,1.65,1.65,0,0,0,1.54,1.79,1.78,1.78,0,0,0,1.65-1.88,1.62,1.62,0,0,0-1.63-1.76A1.29,1.29,0,0,0,352,14.08Z"/><path class="cls-3" d="M357.93,16.73c0,.24.07.29.37.29h.36v.69h-.74c-.56,0-.78-.22-.78-.75V13.61h-.67v-.7h.67V11.4h.79v1.51h.73v.7h-.73Z"/><path class="cls-3" d="M360.15,15.57a1.47,1.47,0,0,0,.31.87,1.54,1.54,0,0,0,1.29.65,1.67,1.67,0,0,0,1.44-.82l.69.26a2.34,2.34,0,0,1-2.13,1.29,2.38,2.38,0,0,1-2.44-2.49,2.42,2.42,0,1,1,4.84-.08c0,.07,0,.2,0,.32Zm3.16-.59a1.46,1.46,0,0,0-.27-.82,1.63,1.63,0,0,0-1.32-.66,1.53,1.53,0,0,0-1.29.67,1.84,1.84,0,0,0-.27.81Z"/><path class="cls-3" d="M294.59,30.2h-.79V26.1h-.66v-.7h.66v-.65c0-.94.49-1.5,1.32-1.5h.22V24c-.57.07-.73.23-.75.79v.65h.75v.7h-.75Z"/><path class="cls-3" d="M297.2,25.4v.81a1.34,1.34,0,0,1,.44-.63,1.49,1.49,0,0,1,.92-.29h.18v.8h-.22a1.22,1.22,0,0,0-1,.55,1.8,1.8,0,0,0-.28,1.13V30.2h-.79V25.4Z"/><path class="cls-3" d="M304,27.81a2.45,2.45,0,0,1-2.46,2.5,2.37,2.37,0,0,1-2.42-2.52,2.44,2.44,0,1,1,4.88,0Zm-4.07,0a1.62,1.62,0,0,0,1.64,1.78,1.64,1.64,0,0,0,1.62-1.78,1.64,1.64,0,1,0-3.26,0Z"/><path class="cls-3" d="M306,25.4v.67a1.48,1.48,0,0,1,1.36-.78,1.24,1.24,0,0,1,1.29.87,1.57,1.57,0,0,1,1.52-.87,1.45,1.45,0,0,1,1.22.5,1.93,1.93,0,0,1,.29,1.34V30.2h-.79V27.31c0-.58,0-.71-.14-.91A.92.92,0,0,0,310,26c-.7,0-1.08.47-1.08,1.32V30.2h-.79V27.33a1.75,1.75,0,0,0-.16-.92.83.83,0,0,0-.78-.42c-.7,0-1.11.5-1.11,1.34V30.2h-.79V25.4Z"/><path class="cls-3" d="M317.25,29.22c0,.24.07.29.36.29H318v.69h-.73c-.57,0-.78-.22-.78-.75V26.1h-.67v-.7h.67V23.89h.79V25.4H318v.7h-.72Z"/><path class="cls-3" d="M319.86,26.07a1.72,1.72,0,0,1,1.44-.78,1.61,1.61,0,0,1,1.12.43,1.66,1.66,0,0,1,.37,1.25V30.2H322V27c0-.65-.32-1-.89-1a1.23,1.23,0,0,0-.94.43,1.25,1.25,0,0,0-.31,1V30.2h-.79V23.26h.79Z"/><path class="cls-3" d="M324.81,28.05a1.54,1.54,0,0,0,.31.88,1.59,1.59,0,0,0,1.3.65,1.65,1.65,0,0,0,1.43-.82l.7.26a2.36,2.36,0,0,1-2.13,1.29,2.51,2.51,0,1,1,2.4-2.57c0,.06,0,.2,0,.31Zm3.17-.58a1.63,1.63,0,0,0-.27-.82,1.67,1.67,0,0,0-1.33-.66,1.53,1.53,0,0,0-1.29.67,2,2,0,0,0-.27.81Z"/><path class="cls-3" d="M337.58,27.81a2.45,2.45,0,0,1-2.45,2.5,2.37,2.37,0,0,1-2.43-2.52,2.44,2.44,0,1,1,4.88,0Zm-4.07,0a1.62,1.62,0,0,0,1.64,1.78,1.64,1.64,0,0,0,1.62-1.78,1.64,1.64,0,1,0-3.26,0Z"/><path class="cls-3" d="M339.58,25.4v.87a1.87,1.87,0,0,1,1.75-1,2.27,2.27,0,0,1,2.26,2.47,2.31,2.31,0,0,1-2.26,2.55,2.23,2.23,0,0,1-1.05-.25,1.7,1.7,0,0,1-.7-.61v3h-.79V25.4Zm0,2.48a1.57,1.57,0,0,0,1.58,1.74,1.62,1.62,0,0,0,1.58-1.83,1.86,1.86,0,0,0-.41-1.3,1.57,1.57,0,0,0-1.14-.5A1.68,1.68,0,0,0,339.58,27.88Z"/><path class="cls-3" d="M345.58,29.22c0,.24.08.29.37.29h.36v.69h-.74c-.56,0-.78-.22-.78-.75V26.1h-.66v-.7h.66V23.89h.79V25.4h.73v.7h-.73Z"/><path class="cls-3" d="M348.27,24.06a.5.5,0,0,1-.51.5.51.51,0,0,1,0-1A.51.51,0,0,1,348.27,24.06Zm-.11,6.14h-.8V25.4h.8Z"/><path class="cls-3" d="M354.24,27.81a2.45,2.45,0,0,1-2.45,2.5,2.37,2.37,0,0,1-2.43-2.52,2.44,2.44,0,1,1,4.88,0Zm-4.07,0a1.62,1.62,0,0,0,1.64,1.78,1.64,1.64,0,0,0,1.62-1.78A1.61,1.61,0,0,0,351.82,26,1.63,1.63,0,0,0,350.17,27.8Z"/><path class="cls-3" d="M356.24,25.4v.68a1.62,1.62,0,0,1,1.43-.79,1.67,1.67,0,0,1,1.11.39,1.57,1.57,0,0,1,.41,1.28V30.2h-.79V27.14a1.32,1.32,0,0,0-.18-.82.93.93,0,0,0-.75-.33,1.22,1.22,0,0,0-.92.41,1.13,1.13,0,0,0-.31.87V30.2h-.79V25.4Z"/><path class="cls-3" d="M363,26.71v-.05c0-.45-.36-.73-.91-.73s-.87.27-.87.69.21.57,1.08.81a2.49,2.49,0,0,1,1.16.55,1.34,1.34,0,0,1,.39.94c0,.83-.69,1.39-1.71,1.39s-1.71-.51-1.79-1.48h.78a.89.89,0,0,0,1,.84c.54,0,.9-.28.9-.71s-.28-.63-1.1-.83c-1-.28-1.51-.72-1.51-1.45s.68-1.39,1.69-1.39a1.46,1.46,0,0,1,1.67,1.42Z"/><rect class="cls-4" x="410.98" y="5.89" width="125.9" height="28.35"/><path class="cls-5" d="M537.38,34.74H410.48V5.39h126.9Zm-125.9-1h124.9V6.39H411.48Z"/><path class="cls-3" d="M422.78,23.1h-.87V16.16h.8l3.71,5.23V16.16h.87V23.1h-.77l-3.74-5.3Z"/><path class="cls-3" d="M432.58,18.31h.79V23.1h-.79v-.92a2,2,0,0,1-1.75,1,2.3,2.3,0,0,1-2.26-2.5,2.33,2.33,0,0,1,2.28-2.53,2,2,0,0,1,1.73.91Zm-2.78,1.16a2.2,2.2,0,0,0-.4,1.27,1.65,1.65,0,0,0,1.54,1.79,1.77,1.77,0,0,0,1.65-1.87A1.62,1.62,0,0,0,431,18.9,1.31,1.31,0,0,0,429.8,19.47Z"/><path class="cls-3" d="M435.75,18.31V19a1.49,1.49,0,0,1,1.36-.78,1.23,1.23,0,0,1,1.29.88,1.58,1.58,0,0,1,1.52-.88,1.46,1.46,0,0,1,1.22.51c.23.3.29.57.29,1.33V23.1h-.79V20.22c0-.58,0-.72-.13-.92a1,1,0,0,0-.84-.4c-.69,0-1.08.47-1.08,1.32V23.1h-.79V20.23a1.69,1.69,0,0,0-.16-.91.8.8,0,0,0-.78-.42c-.69,0-1.11.5-1.11,1.33V23.1H435V18.31Z"/><path class="cls-3" d="M443.45,21a1.51,1.51,0,0,0,.31.87,1.57,1.57,0,0,0,1.29.66,1.65,1.65,0,0,0,1.44-.82l.7.26a2.43,2.43,0,0,1-4.58-1.21,2.43,2.43,0,1,1,4.85-.07c0,.06,0,.2,0,.31Zm3.16-.58a1.46,1.46,0,0,0-.27-.83A1.65,1.65,0,0,0,445,18.9a1.53,1.53,0,0,0-1.29.67,1.87,1.87,0,0,0-.27.81Z"/><path class="cls-3" d="M452.6,23.1h-.79V19h-.66v-.69h.66v-.65c0-.95.49-1.51,1.32-1.51h.22v.71c-.57.06-.73.23-.75.79v.65h.75V19h-.75Z"/><path class="cls-3" d="M458.79,20.72a2.45,2.45,0,0,1-2.46,2.5,2.37,2.37,0,0,1-2.42-2.52,2.44,2.44,0,1,1,4.88,0Zm-4.07,0a1.63,1.63,0,0,0,1.64,1.78A1.64,1.64,0,0,0,458,20.71a1.64,1.64,0,1,0-3.26,0Z"/><path class="cls-3" d="M460,23.1V16.16h.79V23.1Z"/><path class="cls-3" d="M466,16.16h.79V23.1H466v-.82a2,2,0,0,1-1.72.94A2.28,2.28,0,0,1,462,20.73a2.34,2.34,0,0,1,2.25-2.54A2.07,2.07,0,0,1,466,19Zm-3.14,4.58a1.61,1.61,0,0,0,1.54,1.79,1.67,1.67,0,0,0,1.6-1.81,1.62,1.62,0,0,0-1.55-1.82A1.64,1.64,0,0,0,462.83,20.74Z"/><path class="cls-3" d="M468.81,21a1.51,1.51,0,0,0,.31.87,1.57,1.57,0,0,0,1.3.66,1.65,1.65,0,0,0,1.43-.82l.7.26a2.36,2.36,0,0,1-2.13,1.29,2.38,2.38,0,0,1-2.45-2.5,2.43,2.43,0,1,1,4.85-.07c0,.06,0,.2,0,.31Zm3.17-.58a1.63,1.63,0,0,0-.27-.83,1.69,1.69,0,0,0-1.33-.65,1.53,1.53,0,0,0-1.29.67,1.87,1.87,0,0,0-.27.81Z"/><path class="cls-3" d="M474.75,18.31v.81a1.38,1.38,0,0,1,.44-.64,1.55,1.55,0,0,1,.92-.29h.18V19h-.21a1.23,1.23,0,0,0-1,.55,1.78,1.78,0,0,0-.29,1.14V23.1H474V18.31Z"/><path class="cls-3" d="M484,18.31h.79V23.1H484v-.92a2,2,0,0,1-1.75,1,2.3,2.3,0,0,1-2.26-2.5,2.33,2.33,0,0,1,2.28-2.53,2,2,0,0,1,1.73.91Zm-2.78,1.16a2.2,2.2,0,0,0-.4,1.27,1.65,1.65,0,0,0,1.54,1.79A1.77,1.77,0,0,0,484,20.66a1.62,1.62,0,0,0-1.63-1.76A1.31,1.31,0,0,0,481.24,19.47Z"/><path class="cls-3" d="M487.19,18.31V19a1.65,1.65,0,0,1,1.43-.79,1.67,1.67,0,0,1,1.11.4,1.56,1.56,0,0,1,.4,1.28V23.1h-.79V20a1.37,1.37,0,0,0-.17-.82.93.93,0,0,0-.75-.32,1.19,1.19,0,0,0-.92.4,1.14,1.14,0,0,0-.31.88V23.1h-.79V18.31Z"/><path class="cls-3" d="M495.29,16.16h.79V23.1h-.79v-.82a2,2,0,0,1-1.72.94,2.29,2.29,0,0,1-2.26-2.49,2.35,2.35,0,0,1,2.26-2.54,2.07,2.07,0,0,1,1.72.84Zm-3.15,4.58a1.61,1.61,0,0,0,1.54,1.79,1.67,1.67,0,0,0,1.61-1.81,1.62,1.62,0,0,0-1.55-1.82A1.65,1.65,0,0,0,492.14,20.74Z"/><path class="cls-3" d="M505.29,20.72a2.45,2.45,0,0,1-2.46,2.5,2.37,2.37,0,0,1-2.42-2.52,2.44,2.44,0,1,1,4.88,0Zm-4.07,0a1.62,1.62,0,0,0,1.63,1.78,1.65,1.65,0,0,0,1.63-1.78,1.64,1.64,0,1,0-3.26,0Z"/><path class="cls-3" d="M507.29,22.12c0,.24.07.3.36.3H508v.68h-.73c-.57,0-.78-.22-.78-.75V19h-.67v-.69h.67V16.8h.79v1.51H508V19h-.72Z"/><path class="cls-3" d="M509.9,19a1.75,1.75,0,0,1,1.44-.78,1.61,1.61,0,0,1,1.12.44,1.64,1.64,0,0,1,.37,1.25V23.1H512V19.92c0-.66-.32-1-.89-1a1.19,1.19,0,0,0-.94.43,1.24,1.24,0,0,0-.31,1V23.1h-.79V16.16h.79Z"/><path class="cls-3" d="M514.85,21a1.51,1.51,0,0,0,.31.87,1.57,1.57,0,0,0,1.3.66,1.65,1.65,0,0,0,1.43-.82l.7.26a2.36,2.36,0,0,1-2.13,1.29,2.38,2.38,0,0,1-2.45-2.5,2.43,2.43,0,1,1,4.85-.07c0,.06,0,.2,0,.31Zm3.17-.58a1.63,1.63,0,0,0-.27-.83,1.69,1.69,0,0,0-1.33-.65,1.53,1.53,0,0,0-1.29.67,1.87,1.87,0,0,0-.27.81Z"/><path class="cls-3" d="M520.79,18.31v.81a1.38,1.38,0,0,1,.44-.64,1.55,1.55,0,0,1,.92-.29h.18V19h-.21a1.23,1.23,0,0,0-1,.55,1.78,1.78,0,0,0-.29,1.14V23.1H520V18.31Z"/><path class="cls-3" d="M525.55,19.62v-.05c0-.45-.36-.73-.92-.73s-.86.27-.86.68.21.58,1.07.81a2.48,2.48,0,0,1,1.17.56,1.32,1.32,0,0,1,.38.93c0,.84-.68,1.4-1.7,1.4s-1.71-.51-1.79-1.48h.78a.88.88,0,0,0,1,.83c.54,0,.89-.28.89-.7s-.27-.63-1.09-.84c-1-.28-1.51-.72-1.51-1.44s.68-1.4,1.69-1.4a1.46,1.46,0,0,1,1.67,1.43Z"/><rect class="cls-1" y="4.33" width="75.75" height="31.48" rx="15.74"/><rect class="cls-2" y="4.33" width="75.75" height="31.48" rx="15.74"/><path class="cls-3" d="M14.29,16.16h1.84a3.09,3.09,0,0,1,3.35,3.36,3.63,3.63,0,0,1-1.09,2.78,3.5,3.5,0,0,1-2.42.8H14.29Zm.87,6.19h.31a3.06,3.06,0,0,0,2.18-.52,2.78,2.78,0,0,0,.93-2.3A2.32,2.32,0,0,0,16.1,16.9h-.94Z"/><path class="cls-3" d="M24.39,18.31h.79V23.1h-.79v-.92a2,2,0,0,1-1.75,1,2.3,2.3,0,0,1-2.26-2.5,2.33,2.33,0,0,1,2.28-2.53,2,2,0,0,1,1.73.91Zm-2.78,1.16a2.17,2.17,0,0,0-.39,1.27,1.64,1.64,0,0,0,1.54,1.79,1.77,1.77,0,0,0,1.64-1.87,1.62,1.62,0,0,0-1.62-1.76A1.32,1.32,0,0,0,21.61,19.47Z"/><path class="cls-3" d="M29,19.62v-.05c0-.45-.36-.73-.91-.73s-.87.27-.87.68.21.58,1.07.81a2.48,2.48,0,0,1,1.17.56,1.32,1.32,0,0,1,.38.93c0,.84-.68,1.4-1.7,1.4s-1.71-.51-1.79-1.48h.78a.88.88,0,0,0,1,.83c.54,0,.89-.28.89-.7s-.27-.63-1.09-.84c-1-.28-1.51-.72-1.51-1.44s.68-1.4,1.69-1.4a1.46,1.46,0,0,1,1.67,1.43Z"/><path class="cls-3" d="M31.83,19a1.78,1.78,0,0,1,1.45-.78,1.59,1.59,0,0,1,1.11.44,1.64,1.64,0,0,1,.38,1.25V23.1H34V19.92c0-.66-.33-1-.9-1a1.21,1.21,0,0,0-.94.43,1.28,1.28,0,0,0-.31,1V23.1H31V16.16h.79Z"/><path class="cls-3" d="M37.12,23.1h-.79V16.16h.79v3a1.94,1.94,0,0,1,1.68-.94,2.31,2.31,0,0,1,2.28,2.53,2.28,2.28,0,0,1-2.23,2.5,2,2,0,0,1-1.73-.94Zm0-2.39a1.59,1.59,0,1,0,3.14,0,1.59,1.59,0,1,0-3.14,0Z"/><path class="cls-3" d="M46.79,20.72a2.45,2.45,0,0,1-2.46,2.5,2.37,2.37,0,0,1-2.42-2.52,2.44,2.44,0,1,1,4.88,0Zm-4.07,0a1.62,1.62,0,0,0,1.63,1.78A1.65,1.65,0,0,0,46,20.71a1.64,1.64,0,1,0-3.26,0Z"/><path class="cls-3" d="M51.62,18.31h.79V23.1h-.79v-.92a2,2,0,0,1-1.75,1,2.3,2.3,0,0,1-2.26-2.5,2.33,2.33,0,0,1,2.28-2.53,2,2,0,0,1,1.73.91Zm-2.78,1.16a2.18,2.18,0,0,0-.4,1.27A1.65,1.65,0,0,0,50,22.53a1.77,1.77,0,0,0,1.65-1.87A1.62,1.62,0,0,0,50,18.9,1.31,1.31,0,0,0,48.84,19.47Z"/><path class="cls-3" d="M54.79,18.31v.81a1.38,1.38,0,0,1,.44-.64,1.54,1.54,0,0,1,.91-.29h.19V19h-.22a1.23,1.23,0,0,0-1,.55,1.78,1.78,0,0,0-.28,1.14V23.1H54V18.31Z"/><path class="cls-3" d="M60.73,16.16h.79V23.1h-.79v-.82a2,2,0,0,1-1.71.94,2.28,2.28,0,0,1-2.26-2.49A2.34,2.34,0,0,1,59,18.19a2.06,2.06,0,0,1,1.71.84Zm-3.14,4.58a1.61,1.61,0,0,0,1.54,1.79,1.66,1.66,0,0,0,1.6-1.81,1.62,1.62,0,0,0-1.55-1.82A1.65,1.65,0,0,0,57.59,20.74Z"/><rect class="cls-3" x="536.88" y="19.69" width="39.15" height="0.75"/><polygon class="cls-3" points="574.93 23.81 581.41 20.07 574.93 16.33 574.93 23.81"/><rect class="cls-3" x="377.71" y="19.69" width="27.89" height="0.75"/><polygon class="cls-3" points="404.51 23.81 410.98 20.07 404.51 16.33 404.51 23.81"/><rect class="cls-3" x="233.55" y="19.69" width="40.52" height="0.75"/><polygon class="cls-3" points="272.97 23.81 279.45 20.07 272.97 16.33 272.97 23.81"/><rect class="cls-3" x="75.75" y="19.69" width="51.77" height="0.75"/><polygon class="cls-3" points="126.43 23.81 132.9 20.07 126.43 16.33 126.43 23.81"/></g></g></svg>