<svg xmlns="http://www.w3.org/2000/svg" viewBox="0 0 280.99 465.06"><defs><style>.cls-1,.cls-2{fill:#fff;}.cls-1,.cls-3{opacity:0.5;}.cls-3{fill:#ef3d5a;}.cls-4{fill:#231f20;}.cls-5{fill:#2e307d;}.cls-6{fill:#d181b6;}</style></defs><title>flowchart1mobile</title><g id="Layer_2" data-name="Layer 2"><g id="Layer_1-2" data-name="Layer 1"><rect class="cls-1" x="89.06" width="98.95" height="28.35" rx="14.17"/><rect class="cls-2" x="102.62" y="436.72" width="75.75" height="28.35" rx="14.17"/><rect class="cls-3" x="102.62" y="436.72" width="75.75" height="28.35" rx="14.17"/><path class="cls-4" d="M121.49,450.17c0,.14,0,.33,0,.39a3.35,3.35,0,0,1-3.33,3.49,3.6,3.6,0,0,1,0-7.19,3.25,3.25,0,0,1,2.61,1.26l-.66.53a2.75,2.75,0,0,0-.58-.55,2.33,2.33,0,0,0-1.37-.44,2.81,2.81,0,0,0,0,5.59,2.54,2.54,0,0,0,2-1,2.46,2.46,0,0,0,.44-1.31h-2.41v-.75Z"/><path class="cls-4" d="M123.2,451.78a1.48,1.48,0,0,0,.31.88,1.57,1.57,0,0,0,1.29.65,1.65,1.65,0,0,0,1.43-.82l.7.26A2.35,2.35,0,0,1,124.8,454a2.52,2.52,0,1,1,2.4-2.57c0,.06,0,.2,0,.31Zm3.16-.58a1.51,1.51,0,0,0-.27-.82,1.63,1.63,0,0,0-1.32-.66,1.53,1.53,0,0,0-1.29.67,1.79,1.79,0,0,0-.27.81Z"/><path class="cls-4" d="M129.11,453c0,.24.07.29.36.29h.36v.68h-.73c-.57,0-.79-.21-.79-.74v-3.35h-.66v-.7h.66v-1.51h.8v1.51h.72v.7h-.72Z"/><path class="cls-4" d="M136.3,450.44v-.05c0-.45-.37-.73-.92-.73s-.86.27-.86.69.21.57,1.07.81a2.35,2.35,0,0,1,1.16.55,1.34,1.34,0,0,1,.39.94c0,.83-.69,1.39-1.71,1.39a1.56,1.56,0,0,1-1.79-1.48h.78a.89.89,0,0,0,1,.83c.54,0,.9-.28.9-.7s-.27-.63-1.09-.84c-1-.28-1.51-.71-1.51-1.44s.67-1.4,1.68-1.4a1.47,1.47,0,0,1,1.68,1.43Z"/><path class="cls-4" d="M142.85,451.54a2.45,2.45,0,0,1-2.45,2.5,2.52,2.52,0,1,1,2.45-2.5Zm-4.06,0a1.62,1.62,0,0,0,1.63,1.78,1.64,1.64,0,0,0,1.62-1.78,1.63,1.63,0,1,0-3.25,0Z"/><path class="cls-4" d="M144.06,453.92V447h.79v6.94Z"/><path class="cls-4" d="M150,449.13v3.07a1.57,1.57,0,0,1-.48,1.34,2.14,2.14,0,0,1-2.76,0,1.72,1.72,0,0,1-.48-1.33v-3.07h.79v3.05a1.07,1.07,0,0,0,1.07,1.15A1.12,1.12,0,0,0,149,453a1.06,1.06,0,0,0,.21-.77v-3.07Z"/><path class="cls-4" d="M152.33,453c0,.24.08.29.37.29h.36v.68h-.74c-.56,0-.78-.21-.78-.74v-3.35h-.66v-.7h.66v-1.51h.79v1.51h.73v.7h-.73Z"/><path class="cls-4" d="M155,447.79a.51.51,0,1,1-.5-.53A.5.5,0,0,1,155,447.79Zm-.12,6.13h-.79v-4.79h.79Z"/><path class="cls-4" d="M161,451.54a2.45,2.45,0,0,1-2.45,2.5,2.52,2.52,0,1,1,2.45-2.5Zm-4.07,0a1.63,1.63,0,0,0,1.64,1.78,1.64,1.64,0,0,0,1.62-1.78,1.61,1.61,0,0,0-1.61-1.79A1.63,1.63,0,0,0,156.92,451.53Z"/><path class="cls-4" d="M163,449.13v.67a1.65,1.65,0,0,1,1.43-.79,1.67,1.67,0,0,1,1.11.4,1.56,1.56,0,0,1,.41,1.28v3.23h-.8v-3.05A1.39,1.39,0,0,0,165,450a1,1,0,0,0-.75-.32,1.22,1.22,0,0,0-.92.41,1.13,1.13,0,0,0-.31.87v2.92h-.79v-4.79Z"/><rect class="cls-2" x="45.64" y="186.83" width="66.01" height="28.35"/><path class="cls-5" d="M112.14,215.68h-67V186.33h67Zm-66-1h65V187.33h-65Z"/><path class="cls-4" d="M58.66,202.18a1.13,1.13,0,0,0,1.23,1.21,1.21,1.21,0,0,0,1.33-1.18c0-.6-.31-.88-1.41-1.25a3.47,3.47,0,0,1-1.4-.69,1.72,1.72,0,0,1-.54-1.32A2.07,2.07,0,0,1,62,199h-.88a1.37,1.37,0,0,0-.16-.72,1.21,1.21,0,0,0-1-.49,1.11,1.11,0,0,0-1.18,1.13,1,1,0,0,0,.4.8,3.89,3.89,0,0,0,1.11.49,3.12,3.12,0,0,1,1.37.75,1.75,1.75,0,0,1,.47,1.23,2,2,0,0,1-2.18,2,2,2,0,0,1-1.86-.94,1.75,1.75,0,0,1-.23-.9v-.15Z"/><path class="cls-4" d="M63.81,201.9a1.45,1.45,0,0,0,.31.87,1.55,1.55,0,0,0,1.29.66,1.67,1.67,0,0,0,1.44-.82l.69.26a2.34,2.34,0,0,1-2.13,1.29,2.52,2.52,0,1,1,2.41-2.57c0,.06,0,.2,0,.31Zm3.16-.58a1.41,1.41,0,0,0-.27-.82,1.63,1.63,0,0,0-1.32-.66,1.53,1.53,0,0,0-1.29.67,1.75,1.75,0,0,0-.27.81Z"/><path class="cls-4" d="M68.9,204V197.1h.79V204Z"/><path class="cls-4" d="M71.74,201.9a1.45,1.45,0,0,0,.31.87,1.55,1.55,0,0,0,1.29.66,1.67,1.67,0,0,0,1.44-.82l.69.26a2.34,2.34,0,0,1-2.13,1.29,2.52,2.52,0,1,1,2.41-2.57c0,.06,0,.2,0,.31Zm3.16-.58a1.41,1.41,0,0,0-.27-.82,1.63,1.63,0,0,0-1.32-.66,1.53,1.53,0,0,0-1.29.67,1.75,1.75,0,0,0-.27.81Z"/><path class="cls-4" d="M80.63,203.45a2.49,2.49,0,0,1-1.77.71,2.52,2.52,0,0,1,0-5,2.37,2.37,0,0,1,1.75.72l-.51.51a1.79,1.79,0,0,0-1.22-.5,1.8,1.8,0,0,0,0,3.57,1.7,1.7,0,0,0,1.23-.52Z"/><path class="cls-4" d="M82.67,203.07c0,.23.07.29.36.29h.36V204h-.73c-.57,0-.78-.21-.78-.75v-3.35h-.67v-.69h.67v-1.51h.79v1.51h.72v.69h-.72Z"/><path class="cls-4" d="M88.51,204h-.79v-4.1h-.65v-.69h.65v-.65c0-.95.49-1.51,1.32-1.51h.22v.71c-.57.06-.72.23-.75.79v.65h.75v.69h-.75Z"/><path class="cls-4" d="M91.17,197.9a.5.5,0,0,1-.51.5.49.49,0,0,1-.5-.51.5.5,0,0,1,.51-.51A.51.51,0,0,1,91.17,197.9ZM91.05,204h-.79v-4.79h.79Z"/><path class="cls-4" d="M92.65,204V197.1h.79V204Z"/><path class="cls-4" d="M95.49,201.9a1.45,1.45,0,0,0,.31.87,1.55,1.55,0,0,0,1.29.66,1.67,1.67,0,0,0,1.44-.82l.69.26a2.34,2.34,0,0,1-2.13,1.29,2.52,2.52,0,1,1,2.4-2.57c0,.06,0,.2,0,.31Zm3.16-.58a1.41,1.41,0,0,0-.27-.82,1.63,1.63,0,0,0-1.32-.66,1.53,1.53,0,0,0-1.29.67,1.75,1.75,0,0,0-.27.81Z"/><rect class="cls-2" x="45.64" y="146.4" width="66.01" height="28.35"/><path class="cls-5" d="M112.14,175.24h-67V145.9h67Zm-66-1h65V146.9h-65Z"/><path class="cls-4" d="M67.45,157.46a.5.5,0,0,1-.51.5.49.49,0,0,1-.5-.51.5.5,0,0,1,.51-.51A.51.51,0,0,1,67.45,157.46Zm-.11,6.14h-.79v-4.79h.79Z"/><path class="cls-4" d="M69.72,158.81v.67a1.65,1.65,0,0,1,1.43-.79,1.67,1.67,0,0,1,1.11.4,1.56,1.56,0,0,1,.41,1.28v3.23h-.79v-3.06a1.36,1.36,0,0,0-.18-.82,1,1,0,0,0-.75-.32,1.2,1.2,0,0,0-.92.41,1.13,1.13,0,0,0-.31.87v2.92h-.79v-4.79Z"/><path class="cls-4" d="M77.77,158.81,76,163.6h-.83l-1.76-4.79h.84l1.35,3.66,1.39-3.66Z"/><path class="cls-4" d="M79.5,157.46a.5.5,0,0,1-.51.5.49.49,0,0,1-.5-.51.5.5,0,0,1,.51-.51A.51.51,0,0,1,79.5,157.46Zm-.11,6.14H78.6v-4.79h.79Z"/><path class="cls-4" d="M81.82,162.63c0,.24.08.29.37.29h.36v.68h-.74c-.56,0-.78-.21-.78-.74V159.5h-.66v-.69H81V157.3h.79v1.51h.73v.69h-.73Z"/><path class="cls-4" d="M84,161.46a1.49,1.49,0,0,0,.31.87,1.57,1.57,0,0,0,1.29.66,1.65,1.65,0,0,0,1.44-.82l.7.26a2.47,2.47,0,1,1-2.17-3.74,2.39,2.39,0,0,1,2.44,2.46c0,.06,0,.2,0,.31Zm3.16-.58a1.41,1.41,0,0,0-.27-.82,1.63,1.63,0,0,0-1.32-.66,1.53,1.53,0,0,0-1.29.67,1.87,1.87,0,0,0-.27.81Z"/><rect class="cls-2" x="45.64" y="226.55" width="66.01" height="28.35"/><path class="cls-5" d="M112.14,255.39h-67V226.05h67Zm-66-1h65V227.05h-65Z"/><path class="cls-4" d="M57,241.9a1.12,1.12,0,0,0,1.23,1.2,1.2,1.2,0,0,0,1.33-1.17c0-.61-.31-.89-1.4-1.25a3.44,3.44,0,0,1-1.41-.7,1.73,1.73,0,0,1-.54-1.31,2.07,2.07,0,0,1,4.13,0h-.87a1.3,1.3,0,0,0-.17-.72,1.21,1.21,0,0,0-1-.49,1.11,1.11,0,0,0-1.18,1.14,1,1,0,0,0,.4.8,4.4,4.4,0,0,0,1.11.49,3.07,3.07,0,0,1,1.38.75,1.79,1.79,0,0,1,.47,1.22,2,2,0,0,1-2.19,2,2,2,0,0,1-1.85-.93,1.72,1.72,0,0,1-.24-.91v-.14Z"/><path class="cls-4" d="M62.11,241.61a1.54,1.54,0,0,0,.31.88,1.6,1.6,0,0,0,1.3.65,1.65,1.65,0,0,0,1.43-.82l.7.26a2.36,2.36,0,0,1-2.13,1.29,2.51,2.51,0,1,1,2.4-2.57c0,.06,0,.2,0,.31Zm3.17-.58a1.54,1.54,0,0,0-.27-.82,1.67,1.67,0,0,0-1.33-.66,1.53,1.53,0,0,0-1.29.67,2.13,2.13,0,0,0-.27.81Z"/><path class="cls-4" d="M67.2,243.76v-6.94H68v6.94Z"/><path class="cls-4" d="M70,241.61a1.54,1.54,0,0,0,.31.88,1.59,1.59,0,0,0,1.3.65,1.65,1.65,0,0,0,1.43-.82l.7.26a2.36,2.36,0,0,1-2.13,1.29,2.51,2.51,0,1,1,2.4-2.57c0,.06,0,.2,0,.31Zm3.17-.58a1.63,1.63,0,0,0-.27-.82,1.67,1.67,0,0,0-1.33-.66,1.53,1.53,0,0,0-1.29.67,2.13,2.13,0,0,0-.27.81Z"/><path class="cls-4" d="M78.93,243.16a2.45,2.45,0,0,1-1.77.71,2.51,2.51,0,0,1,0-5,2.4,2.4,0,0,1,1.75.71l-.51.51a1.77,1.77,0,0,0-1.22-.5,1.8,1.8,0,0,0,0,3.57,1.65,1.65,0,0,0,1.23-.52Z"/><path class="cls-4" d="M81,242.78c0,.24.07.29.36.29h.37v.69H81c-.56,0-.78-.22-.78-.75v-3.35h-.67V239h.67v-1.51H81V239h.73v.7H81Z"/><path class="cls-4" d="M86.79,242.78c0,.24.07.29.36.29h.37v.69h-.74c-.57,0-.78-.22-.78-.75v-3.35h-.67V239H86v-1.51h.79V239h.73v.7h-.73Z"/><path class="cls-4" d="M93,241.37a2.45,2.45,0,0,1-2.46,2.5,2.51,2.51,0,1,1,2.46-2.5Zm-4.07,0a1.62,1.62,0,0,0,1.64,1.78,1.64,1.64,0,0,0,1.62-1.78,1.64,1.64,0,1,0-3.26,0Z"/><path class="cls-4" d="M98.74,241.37a2.45,2.45,0,0,1-2.45,2.5,2.51,2.51,0,1,1,2.45-2.5Zm-4.06,0a1.61,1.61,0,0,0,1.63,1.78,1.63,1.63,0,0,0,1.62-1.78,1.63,1.63,0,1,0-3.25,0Z"/><path class="cls-4" d="M100,243.76v-6.94h.79v6.94Z"/><rect class="cls-2" x="150.96" y="102.48" width="96.57" height="28.35"/><path class="cls-5" d="M248,131.32H150.46V102H248Zm-96.58-1H247V103H151.46Z"/><rect class="cls-2" x="29.55" y="102.48" width="98.19" height="28.35"/><path class="cls-5" d="M128.23,131.32H29.05V102h99.18Zm-98.18-1h97.18V103H30.05Z"/><path class="cls-4" d="M163.21,118.08l-.63,1.61h-.91l2.61-7h1l2.55,7h-1l-.57-1.61Zm1.57-4.23-1.31,3.48h2.58Z"/><path class="cls-4" d="M172.42,119.09a2.45,2.45,0,0,1-1.77.71,2.52,2.52,0,0,1,0-5,2.37,2.37,0,0,1,1.75.72l-.51.51a1.77,1.77,0,0,0-1.22-.5,1.8,1.8,0,0,0,0,3.57,1.69,1.69,0,0,0,1.23-.52Z"/><path class="cls-4" d="M177,119.09a2.45,2.45,0,0,1-1.77.71,2.52,2.52,0,0,1,0-5,2.37,2.37,0,0,1,1.75.72l-.51.51a1.77,1.77,0,0,0-1.22-.5,1.8,1.8,0,0,0,0,3.57,1.7,1.7,0,0,0,1.23-.52Z"/><path class="cls-4" d="M178.3,117.54a1.54,1.54,0,0,0,.31.88,1.57,1.57,0,0,0,1.29.65,1.65,1.65,0,0,0,1.44-.82l.7.26a2.43,2.43,0,0,1-4.58-1.21,2.43,2.43,0,1,1,4.85-.07c0,.06,0,.2,0,.31Zm3.16-.58a1.43,1.43,0,0,0-.27-.82,1.63,1.63,0,0,0-1.32-.66,1.53,1.53,0,0,0-1.29.67,1.92,1.92,0,0,0-.27.81Z"/><path class="cls-4" d="M184.24,114.89v.87a1.86,1.86,0,0,1,1.75-1,2.27,2.27,0,0,1,2.26,2.48A2.31,2.31,0,0,1,186,119.8a2.26,2.26,0,0,1-1.05-.25,1.78,1.78,0,0,1-.7-.61v3h-.79v-7Zm0,2.48a1.58,1.58,0,0,0,1.59,1.74,1.63,1.63,0,0,0,1.58-1.83A1.86,1.86,0,0,0,187,116a1.56,1.56,0,0,0-1.13-.5A1.68,1.68,0,0,0,184.24,117.37Z"/><path class="cls-4" d="M190.25,118.71c0,.24.07.29.36.29H191v.69h-.74c-.57,0-.78-.22-.78-.75v-3.36h-.67v-.69h.67v-1.51h.79v1.51H191v.69h-.73Z"/><path class="cls-4" d="M196.13,113.55a.5.5,0,0,1-.51.49.51.51,0,0,1,0-1A.5.5,0,0,1,196.13,113.55Zm-.12,6.14h-.79v-4.8H196Z"/><path class="cls-4" d="M198.4,114.89v.67a1.63,1.63,0,0,1,1.42-.79,1.65,1.65,0,0,1,1.11.4,1.52,1.52,0,0,1,.41,1.28v3.24h-.79v-3.06a1.3,1.3,0,0,0-.18-.83.93.93,0,0,0-.75-.32,1.19,1.19,0,0,0-.91.41,1.13,1.13,0,0,0-.31.87v2.93h-.8v-4.8Z"/><path class="cls-4" d="M206.44,114.89l-1.81,4.8h-.83l-1.76-4.8h.83l1.35,3.66,1.4-3.66Z"/><path class="cls-4" d="M208.18,113.55a.5.5,0,0,1-.51.49.51.51,0,1,1,0-1A.5.5,0,0,1,208.18,113.55Zm-.12,6.14h-.79v-4.8h.79Z"/><path class="cls-4" d="M210.5,118.71c0,.24.07.29.36.29h.37v.69h-.74c-.56,0-.78-.22-.78-.75v-3.36H209v-.69h.67v-1.51h.79v1.51h.73v.69h-.73Z"/><path class="cls-4" d="M215.88,114.89h.79v4.8h-.79v-.93a2,2,0,0,1-1.75,1,2.3,2.3,0,0,1-2.26-2.5,2.33,2.33,0,0,1,2.28-2.53,2,2,0,0,1,1.73.91Zm-2.78,1.16a2.22,2.22,0,0,0-.39,1.27,1.64,1.64,0,0,0,1.54,1.79,1.77,1.77,0,0,0,1.64-1.87,1.62,1.62,0,0,0-1.62-1.76A1.32,1.32,0,0,0,213.1,116.05Z"/><path class="cls-4" d="M219.07,118.71c0,.24.08.29.37.29h.36v.69h-.74c-.56,0-.78-.22-.78-.75v-3.36h-.66v-.69h.66v-1.51h.79v1.51h.73v.69h-.73Z"/><path class="cls-4" d="M221.76,113.55a.5.5,0,0,1-.51.49.51.51,0,0,1,0-1A.5.5,0,0,1,221.76,113.55Zm-.11,6.14h-.8v-4.8h.8Z"/><path class="cls-4" d="M227.73,117.3a2.45,2.45,0,0,1-2.45,2.5,2.52,2.52,0,1,1,2.45-2.5Zm-4.07,0a1.64,1.64,0,1,0,1.65-1.79A1.63,1.63,0,0,0,223.66,117.29Z"/><path class="cls-4" d="M229.73,114.89v.67a1.65,1.65,0,0,1,1.43-.79,1.67,1.67,0,0,1,1.11.4,1.56,1.56,0,0,1,.41,1.28v3.24h-.79v-3.06a1.37,1.37,0,0,0-.18-.83,1,1,0,0,0-.75-.32,1.22,1.22,0,0,0-.92.41,1.13,1.13,0,0,0-.31.87v2.93h-.79v-4.8Z"/><path class="cls-4" d="M42.2,118.63a3.31,3.31,0,0,1-4.92.16,3.89,3.89,0,0,1-.93-2.57,3.37,3.37,0,0,1,3.32-3.6,3.43,3.43,0,0,1,1.74.47,3.31,3.31,0,0,1,.81.72l-.6.56a2.46,2.46,0,0,0-1.93-1,2.82,2.82,0,0,0,0,5.59,2.3,2.3,0,0,0,1.89-1Z"/><path class="cls-4" d="M47.71,117.3a2.45,2.45,0,0,1-2.45,2.5,2.52,2.52,0,1,1,2.45-2.5Zm-4.06,0a1.62,1.62,0,0,0,1.63,1.78,1.64,1.64,0,0,0,1.62-1.78,1.63,1.63,0,1,0-3.25,0Z"/><path class="cls-4" d="M48.92,119.69v-6.94h.79v6.94Z"/><path class="cls-4" d="M51.31,119.69v-6.94h.79v6.94Z"/><path class="cls-4" d="M57.31,114.89h.79v4.8h-.79v-.93a2,2,0,0,1-1.75,1,2.3,2.3,0,0,1-2.26-2.5,2.33,2.33,0,0,1,2.28-2.53,2,2,0,0,1,1.73.91Zm-2.78,1.16a2.22,2.22,0,0,0-.39,1.27,1.64,1.64,0,0,0,1.54,1.79,1.77,1.77,0,0,0,1.64-1.87,1.62,1.62,0,0,0-1.62-1.76A1.32,1.32,0,0,0,54.53,116.05Z"/><path class="cls-4" d="M60.48,119.69h-.79v-6.94h.79v3a2,2,0,0,1,1.69-.94,2.31,2.31,0,0,1,2.28,2.53,2.28,2.28,0,0,1-2.24,2.5,2,2,0,0,1-1.73-.94Zm0-2.4a1.59,1.59,0,1,0,3.15,0,1.59,1.59,0,1,0-3.15,0Z"/><path class="cls-4" d="M70.15,117.3a2.45,2.45,0,0,1-2.45,2.5,2.52,2.52,0,1,1,2.45-2.5Zm-4.07,0a1.63,1.63,0,0,0,1.64,1.78,1.64,1.64,0,0,0,1.62-1.78,1.61,1.61,0,0,0-1.61-1.79A1.63,1.63,0,0,0,66.08,117.29Z"/><path class="cls-4" d="M72.15,114.89v.81a1.34,1.34,0,0,1,.44-.63,1.48,1.48,0,0,1,.91-.3h.19v.81a.94.94,0,0,0-.22,0,1.22,1.22,0,0,0-1,.56,1.74,1.74,0,0,0-.28,1.13v2.44h-.79v-4.8Z"/><path class="cls-4" d="M78.12,114.89h.79v4.8h-.79v-.93a2,2,0,0,1-1.74,1,2.29,2.29,0,0,1-2.26-2.5,2.33,2.33,0,0,1,2.28-2.53,2,2,0,0,1,1.72.91Zm-2.78,1.16a2.3,2.3,0,0,0-.39,1.27,1.65,1.65,0,0,0,1.54,1.79,1.77,1.77,0,0,0,1.64-1.87,1.62,1.62,0,0,0-1.62-1.76A1.34,1.34,0,0,0,75.34,116.05Z"/><path class="cls-4" d="M81.32,118.71c0,.24.07.29.36.29h.37v.69h-.74c-.56,0-.78-.22-.78-.75v-3.35h-.67v-.7h.67v-1.51h.79v1.51h.73v.7h-.73Z"/><path class="cls-4" d="M84,113.55a.5.5,0,0,1-.51.5.51.51,0,1,1,.51-.5Zm-.11,6.14H83.1v-4.8h.79Z"/><path class="cls-4" d="M90,117.3a2.45,2.45,0,0,1-2.46,2.5A2.52,2.52,0,1,1,90,117.3Zm-4.07,0a1.62,1.62,0,0,0,1.63,1.78,1.65,1.65,0,0,0,1.63-1.78,1.64,1.64,0,1,0-3.26,0Z"/><path class="cls-4" d="M92,114.89v.67a1.63,1.63,0,0,1,1.42-.79,1.65,1.65,0,0,1,1.11.4,1.52,1.52,0,0,1,.41,1.28v3.24h-.79v-3.06a1.3,1.3,0,0,0-.18-.83.93.93,0,0,0-.75-.32,1.19,1.19,0,0,0-.91.41,1.13,1.13,0,0,0-.31.87v2.93h-.8v-4.8Z"/><path class="cls-4" d="M100.39,114.89v.81a1.34,1.34,0,0,1,.44-.63,1.49,1.49,0,0,1,.92-.3h.18v.81a.86.86,0,0,0-.21,0,1.22,1.22,0,0,0-1,.56,1.73,1.73,0,0,0-.29,1.13v2.44H99.6v-4.8Z"/><path class="cls-4" d="M107.23,117.3a2.45,2.45,0,0,1-2.45,2.5,2.52,2.52,0,1,1,2.45-2.5Zm-4.07,0a1.63,1.63,0,0,0,1.64,1.78,1.64,1.64,0,0,0,1.62-1.78,1.64,1.64,0,1,0-3.26,0Z"/><path class="cls-4" d="M112.93,117.3a2.45,2.45,0,0,1-2.45,2.5,2.52,2.52,0,1,1,2.45-2.5Zm-4.06,0a1.62,1.62,0,0,0,1.63,1.78,1.64,1.64,0,0,0,1.62-1.78,1.63,1.63,0,1,0-3.25,0Z"/><path class="cls-4" d="M114.93,114.89v.66a1.51,1.51,0,0,1,1.37-.78,1.24,1.24,0,0,1,1.29.88,1.56,1.56,0,0,1,1.52-.88,1.44,1.44,0,0,1,1.21.51,1.93,1.93,0,0,1,.29,1.34v3.07h-.79V116.8c0-.58,0-.72-.13-.91a.94.94,0,0,0-.83-.41c-.7,0-1.09.47-1.09,1.32v2.89H117v-2.88a1.86,1.86,0,0,0-.15-.91.84.84,0,0,0-.78-.42c-.7,0-1.12.5-1.12,1.33v2.88h-.79v-4.8Z"/><rect class="cls-2" x="134.58" y="227.55" width="129.34" height="28.35"/><path class="cls-5" d="M264.42,256.4H134.08V227.05H264.42Zm-129.34-1H263.42V228.05H135.08Z"/><path class="cls-4" d="M145.66,240.89h2.7v.75h-2.7v3.12h-.88v-6.94h3.58v.75h-2.7Z"/><path class="cls-4" d="M150.3,238.62a.5.5,0,0,1-.51.5.51.51,0,0,1,0-1A.51.51,0,0,1,150.3,238.62Zm-.12,6.14h-.79V240h.79Z"/><path class="cls-4" d="M151.78,244.76v-6.94h.79v6.94Z"/><path class="cls-4" d="M154.62,242.61a1.48,1.48,0,0,0,.31.88,1.57,1.57,0,0,0,1.29.65,1.68,1.68,0,0,0,1.44-.82l.69.26a2.35,2.35,0,0,1-2.13,1.29,2.51,2.51,0,1,1,2.4-2.57c0,.06,0,.2,0,.31Zm3.16-.58a1.46,1.46,0,0,0-.27-.82,1.63,1.63,0,0,0-1.32-.66,1.53,1.53,0,0,0-1.29.67,1.84,1.84,0,0,0-.27.81Z"/><path class="cls-4" d="M163.79,238.62a.5.5,0,1,1-.49-.52A.5.5,0,0,1,163.79,238.62Zm-.11,6.14h-.79V240h.79Z"/><path class="cls-4" d="M166.06,240v.68a1.72,1.72,0,0,1,2.54-.4,1.57,1.57,0,0,1,.41,1.28v3.24h-.79V241.7a1.25,1.25,0,0,0-.18-.82.93.93,0,0,0-.75-.33,1.19,1.19,0,0,0-.91.41,1.13,1.13,0,0,0-.32.87v2.93h-.79V240Z"/><path class="cls-4" d="M177.43,244.16a2.45,2.45,0,0,1-1.77.71,2.51,2.51,0,0,1,0-5,2.4,2.4,0,0,1,1.75.71l-.51.51a1.79,1.79,0,0,0-1.22-.5,1.8,1.8,0,0,0,0,3.57,1.67,1.67,0,0,0,1.23-.52Z"/><path class="cls-4" d="M182.77,242.37a2.45,2.45,0,0,1-2.46,2.5,2.51,2.51,0,1,1,2.46-2.5Zm-4.07,0a1.61,1.61,0,0,0,1.63,1.78,1.63,1.63,0,0,0,1.62-1.78,1.63,1.63,0,1,0-3.25,0Z"/><path class="cls-4" d="M184,244.76v-6.94h.79v6.94Z"/><path class="cls-4" d="M186.36,244.76v-6.94h.79v6.94Z"/><path class="cls-4" d="M192.36,240h.79v4.8h-.79v-.93a2,2,0,0,1-1.75,1,2.3,2.3,0,0,1-2.26-2.5,2.33,2.33,0,0,1,2.28-2.52,2,2,0,0,1,1.73.9Zm-2.78,1.17a2.17,2.17,0,0,0-.39,1.27,1.64,1.64,0,0,0,1.54,1.79,1.78,1.78,0,0,0,1.64-1.88,1.62,1.62,0,0,0-1.62-1.76A1.31,1.31,0,0,0,189.58,241.13Z"/><path class="cls-4" d="M195.54,244.76h-.79v-6.94h.79v3a1.93,1.93,0,0,1,1.68-.93,2.31,2.31,0,0,1,2.28,2.52,2.28,2.28,0,0,1-2.24,2.5,1.94,1.94,0,0,1-1.72-.93Zm0-2.4c0,1.1.62,1.83,1.56,1.83a1.61,1.61,0,0,0,1.58-1.79,1.59,1.59,0,1,0-3.14,0Z"/><path class="cls-4" d="M201.5,240v.81a1.27,1.27,0,0,1,.44-.63,1.46,1.46,0,0,1,.91-.29H203v.8h-.22a1.21,1.21,0,0,0-1,.55,1.74,1.74,0,0,0-.28,1.13v2.44h-.79V240Z"/><path class="cls-4" d="M207.47,240h.79v4.8h-.79v-.93a2,2,0,0,1-1.75,1,2.29,2.29,0,0,1-2.25-2.5,2.32,2.32,0,0,1,2.28-2.52,2,2,0,0,1,1.72.9Zm-2.78,1.17a2.17,2.17,0,0,0-.39,1.27,1.64,1.64,0,0,0,1.54,1.79,1.78,1.78,0,0,0,1.64-1.88,1.62,1.62,0,0,0-1.62-1.76A1.31,1.31,0,0,0,204.69,241.13Z"/><path class="cls-4" d="M210.67,243.78c0,.24.07.29.36.29h.37v.69h-.74c-.57,0-.78-.22-.78-.75v-3.35h-.67V240h.67v-1.51h.79V240h.73v.7h-.73Z"/><path class="cls-4" d="M213.35,238.62a.5.5,0,0,1-.51.5.51.51,0,0,1,0-1A.51.51,0,0,1,213.35,238.62Zm-.11,6.14h-.79V240h.79Z"/><path class="cls-4" d="M219.33,242.37a2.45,2.45,0,0,1-2.46,2.5,2.51,2.51,0,1,1,2.46-2.5Zm-4.07,0a1.61,1.61,0,0,0,1.63,1.78,1.63,1.63,0,0,0,1.62-1.78,1.63,1.63,0,1,0-3.25,0Z"/><path class="cls-4" d="M221.32,240v.68a1.72,1.72,0,0,1,2.54-.4,1.54,1.54,0,0,1,.41,1.28v3.24h-.79V241.7a1.25,1.25,0,0,0-.18-.82.91.91,0,0,0-.75-.33,1.19,1.19,0,0,0-.91.41,1.13,1.13,0,0,0-.32.87v2.93h-.79V240Z"/><path class="cls-4" d="M231.17,241.27v-.05c0-.45-.37-.73-.92-.73s-.86.27-.86.69.21.57,1.07.81a2.48,2.48,0,0,1,1.17.55,1.33,1.33,0,0,1,.38.94c0,.83-.68,1.39-1.71,1.39s-1.7-.51-1.78-1.48h.78a.88.88,0,0,0,1,.84c.55,0,.9-.28.9-.71s-.27-.62-1.09-.83c-1-.28-1.51-.72-1.51-1.45s.67-1.39,1.68-1.39,1.64.52,1.68,1.42Z"/><path class="cls-4" d="M234,240v.87a1.87,1.87,0,0,1,1.75-1,2.27,2.27,0,0,1,2.26,2.47,2.31,2.31,0,0,1-2.26,2.55,2.23,2.23,0,0,1-1-.25,1.65,1.65,0,0,1-.7-.61v3h-.79v-7Zm0,2.48a1.58,1.58,0,0,0,1.58,1.75,1.63,1.63,0,0,0,1.58-1.84,1.88,1.88,0,0,0-.41-1.3,1.57,1.57,0,0,0-1.14-.5A1.67,1.67,0,0,0,234,242.44Z"/><path class="cls-4" d="M242.8,240h.79v4.8h-.79v-.93a2,2,0,0,1-1.74,1,2.29,2.29,0,0,1-2.26-2.5,2.32,2.32,0,0,1,2.28-2.52,2,2,0,0,1,1.72.9ZM240,241.13a2.18,2.18,0,0,0-.4,1.27,1.65,1.65,0,0,0,1.54,1.79,1.77,1.77,0,0,0,1.64-1.88,1.62,1.62,0,0,0-1.62-1.76A1.29,1.29,0,0,0,240,241.13Z"/><path class="cls-4" d="M248.92,244.16a2.45,2.45,0,0,1-1.77.71,2.51,2.51,0,0,1,0-5,2.39,2.39,0,0,1,1.74.71l-.51.51a1.76,1.76,0,0,0-1.21-.5,1.8,1.8,0,0,0,0,3.57,1.64,1.64,0,0,0,1.22-.52Z"/><path class="cls-4" d="M250.22,242.61a1.55,1.55,0,0,0,.32.88,1.57,1.57,0,0,0,1.29.65,1.65,1.65,0,0,0,1.43-.82l.7.26a2.36,2.36,0,0,1-2.13,1.29,2.51,2.51,0,1,1,2.4-2.57c0,.06,0,.2,0,.31Zm3.17-.58a1.54,1.54,0,0,0-.27-.82,1.65,1.65,0,0,0-1.33-.66,1.55,1.55,0,0,0-1.29.67,2.13,2.13,0,0,0-.27.81Z"/><rect class="cls-3" x="89.06" width="98.95" height="28.35" rx="14.17"/><path class="cls-4" d="M115,10.27h1.85a3.09,3.09,0,0,1,3.35,3.36,3.62,3.62,0,0,1-1.1,2.78,3.46,3.46,0,0,1-2.41.8H115Zm.88,6.19h.31a3.06,3.06,0,0,0,2.18-.52,2.78,2.78,0,0,0,.93-2.3A2.32,2.32,0,0,0,116.76,11h-.93Z"/><path class="cls-4" d="M125.06,12.41h.79v4.8h-.79v-.93a2,2,0,0,1-1.75,1,2.29,2.29,0,0,1-2.26-2.49,2.33,2.33,0,0,1,2.28-2.53,2,2,0,0,1,1.73.9Zm-2.78,1.17a2.18,2.18,0,0,0-.4,1.27,1.65,1.65,0,0,0,1.54,1.79,1.78,1.78,0,0,0,1.65-1.88A1.61,1.61,0,0,0,123.45,13,1.3,1.3,0,0,0,122.28,13.58Z"/><path class="cls-4" d="M129.65,13.72v-.05c0-.45-.37-.73-.92-.73s-.86.27-.86.69.21.57,1.07.81a2.48,2.48,0,0,1,1.17.55,1.35,1.35,0,0,1,.38.94c0,.83-.69,1.39-1.7,1.39s-1.71-.51-1.79-1.47h.78a.88.88,0,0,0,1,.83c.54,0,.89-.28.89-.71s-.27-.62-1.09-.83c-1-.28-1.51-.72-1.51-1.45s.67-1.39,1.68-1.39,1.64.52,1.68,1.42Z"/><path class="cls-4" d="M132.5,13.08A1.78,1.78,0,0,1,134,12.3a1.56,1.56,0,0,1,1.11.44,1.63,1.63,0,0,1,.38,1.24v3.23h-.8V14c0-.66-.32-1-.89-1a1.22,1.22,0,0,0-.94.42,1.25,1.25,0,0,0-.31,1v2.81h-.79V10.27h.79Z"/><path class="cls-4" d="M137.79,17.21H137V10.27h.79v3a2,2,0,0,1,1.68-.93,2.31,2.31,0,0,1,2.28,2.53,2.27,2.27,0,0,1-2.24,2.49,2,2,0,0,1-1.72-.93Zm0-2.39a1.59,1.59,0,1,0,3.14,0,1.59,1.59,0,1,0-3.14,0Z"/><path class="cls-4" d="M147.46,14.83A2.45,2.45,0,0,1,145,17.32a2.37,2.37,0,0,1-2.43-2.51,2.45,2.45,0,1,1,4.89,0Zm-4.07,0A1.62,1.62,0,0,0,145,16.6a1.64,1.64,0,0,0,1.62-1.78,1.63,1.63,0,1,0-3.25,0Z"/><path class="cls-4" d="M152.28,12.41h.79v4.8h-.79v-.93a2,2,0,0,1-1.74,1,2.29,2.29,0,0,1-2.26-2.49,2.33,2.33,0,0,1,2.28-2.53,2,2,0,0,1,1.72.9Zm-2.78,1.17a2.25,2.25,0,0,0-.39,1.27,1.65,1.65,0,0,0,1.54,1.79,1.77,1.77,0,0,0,1.64-1.88A1.61,1.61,0,0,0,150.67,13,1.31,1.31,0,0,0,149.5,13.58Z"/><path class="cls-4" d="M155.46,12.41v.81a1.32,1.32,0,0,1,.44-.63,1.46,1.46,0,0,1,.91-.29H157v.8h-.22a1.23,1.23,0,0,0-1,.55,1.74,1.74,0,0,0-.28,1.13v2.44h-.79v-4.8Z"/><path class="cls-4" d="M161.4,10.27h.79v6.94h-.79v-.82a2,2,0,0,1-1.72.93,2.29,2.29,0,0,1-2.26-2.48,2.35,2.35,0,0,1,2.26-2.54,2.07,2.07,0,0,1,1.72.84Zm-3.14,4.58a1.61,1.61,0,0,0,1.54,1.79,1.67,1.67,0,0,0,1.6-1.81A1.61,1.61,0,0,0,159.85,13,1.64,1.64,0,0,0,158.26,14.85Z"/><polygon class="cls-2" points="220.28 378.31 167.93 378.31 172.27 350.3 224.63 350.3 220.28 378.31"/><path class="cls-6" d="M220.71,378.81H167.35l4.49-29h53.37Zm-52.19-1h51.34l4.18-27H172.7Z"/><path class="cls-4" d="M181.63,366.29a3.31,3.31,0,0,1-4.92.16,4,4,0,0,1-.93-2.57,3.37,3.37,0,0,1,3.32-3.6,3.41,3.41,0,0,1,1.74.47,3.31,3.31,0,0,1,.81.72l-.6.56a2.46,2.46,0,0,0-1.93-.95,2.82,2.82,0,0,0,0,5.59,2.3,2.3,0,0,0,1.88-1Z"/><path class="cls-4" d="M187.15,365a2.45,2.45,0,0,1-2.46,2.5,2.52,2.52,0,1,1,2.46-2.5Zm-4.07,0a1.62,1.62,0,0,0,1.63,1.78,1.64,1.64,0,0,0,1.62-1.78,1.63,1.63,0,1,0-3.25,0Z"/><path class="cls-4" d="M189.15,362.55v.66a1.49,1.49,0,0,1,1.36-.78,1.24,1.24,0,0,1,1.29.88,1.56,1.56,0,0,1,1.52-.88,1.46,1.46,0,0,1,1.22.51,2,2,0,0,1,.29,1.34v3.07H194v-2.89c0-.58,0-.71-.14-.91a.94.94,0,0,0-.83-.41c-.7,0-1.08.47-1.08,1.32v2.89h-.79v-2.88a1.82,1.82,0,0,0-.16-.91.84.84,0,0,0-.78-.42c-.7,0-1.11.5-1.11,1.33v2.88h-.8v-4.8Z"/><path class="cls-4" d="M197.18,362.55v.66a1.49,1.49,0,0,1,1.36-.78,1.23,1.23,0,0,1,1.29.88,1.57,1.57,0,0,1,1.52-.88,1.46,1.46,0,0,1,1.22.51,1.93,1.93,0,0,1,.29,1.34v3.07h-.79v-2.89c0-.58,0-.71-.13-.91a1,1,0,0,0-.84-.41c-.69,0-1.08.47-1.08,1.32v2.89h-.79v-2.88a1.71,1.71,0,0,0-.16-.91.82.82,0,0,0-.78-.42c-.69,0-1.11.5-1.11,1.33v2.88h-.79v-4.8Z"/><path class="cls-4" d="M204.88,365.2a1.54,1.54,0,0,0,.31.88,1.57,1.57,0,0,0,1.29.65,1.65,1.65,0,0,0,1.44-.82l.7.26A2.43,2.43,0,0,1,204,365a2.43,2.43,0,1,1,4.85-.07c0,.06,0,.2,0,.31Zm3.16-.58a1.43,1.43,0,0,0-.27-.82,1.63,1.63,0,0,0-1.32-.66,1.53,1.53,0,0,0-1.29.67,1.92,1.92,0,0,0-.27.81Z"/><path class="cls-4" d="M210.82,362.55v.67a1.71,1.71,0,0,1,2.54-.39,1.56,1.56,0,0,1,.41,1.28v3.24H213v-3.06a1.37,1.37,0,0,0-.18-.83,1,1,0,0,0-.75-.32,1.23,1.23,0,0,0-.92.41,1.16,1.16,0,0,0-.31.87v2.93H210v-4.8Z"/><path class="cls-4" d="M216.17,366.37c0,.24.08.29.37.29h.36v.69h-.74c-.56,0-.78-.22-.78-.75v-3.35h-.67v-.7h.67V361h.79v1.51h.73v.7h-.73Z"/><polygon class="cls-2" points="108.72 378.31 56.37 378.31 60.71 350.3 113.06 350.3 108.72 378.31"/><path class="cls-6" d="M109.15,378.81H55.78l4.5-29h53.36Zm-52.2-1h51.34l4.19-27H61.13Z"/><polygon class="cls-2" points="164.5 378.31 112.15 378.31 116.49 350.3 168.84 350.3 164.5 378.31"/><path class="cls-6" d="M164.93,378.81H111.57l4.49-29h53.36Zm-52.2-1h51.34l4.19-27H116.92Z"/><path class="cls-4" d="M74.16,360.4H76a3.1,3.1,0,0,1,3.35,3.37,3.59,3.59,0,0,1-1.09,2.77,3.43,3.43,0,0,1-2.41.81H74.16Zm.87,6.2h.32a3.1,3.1,0,0,0,2.17-.52,2.76,2.76,0,0,0,.94-2.3A2.33,2.33,0,0,0,76,361.14H75Z"/><path class="cls-4" d="M81.39,362.55v.81a1.34,1.34,0,0,1,.44-.63,1.49,1.49,0,0,1,.92-.3h.18v.81a.9.9,0,0,0-.22,0,1.23,1.23,0,0,0-1,.56,1.74,1.74,0,0,0-.28,1.13v2.44H80.6v-4.8Z"/><path class="cls-4" d="M87.37,362.55h.79v4.8h-.79v-.93a2,2,0,0,1-1.75,1,2.3,2.3,0,0,1-2.26-2.5,2.34,2.34,0,0,1,2.28-2.53,2,2,0,0,1,1.73.91Zm-2.78,1.16a2.23,2.23,0,0,0-.4,1.27,1.65,1.65,0,0,0,1.54,1.79,1.77,1.77,0,0,0,1.65-1.87,1.62,1.62,0,0,0-1.63-1.76A1.31,1.31,0,0,0,84.59,363.71Z"/><path class="cls-4" d="M96.07,362.55l-1.71,4.8h-.72l-1.1-3.65-1.16,3.65h-.75L89,362.55h.81L91,366.08l1.1-3.53h.78L94,366.08l1.25-3.53Z"/><path class="cls-4" d="M135.68,367.35h-.88v-7h1.86c1.64,0,2.55.75,2.55,2.13a2.14,2.14,0,0,1-.74,1.68,2.61,2.61,0,0,1-1.72.48h-1.07Zm.9-3.41a2.37,2.37,0,0,0,.87-.12,1.32,1.32,0,0,0,.87-1.27,1.28,1.28,0,0,0-.88-1.26,2.93,2.93,0,0,0-1-.14h-.79v2.79Z"/><path class="cls-4" d="M141.07,361.21a.5.5,0,0,1-.51.49.51.51,0,0,1,0-1A.5.5,0,0,1,141.07,361.21Zm-.11,6.14h-.8v-4.8h.8Z"/><path class="cls-4" d="M143.34,362.55v.67a1.63,1.63,0,0,1,1.42-.79,1.68,1.68,0,0,1,1.12.4,1.56,1.56,0,0,1,.4,1.28v3.24h-.79v-3.06a1.3,1.3,0,0,0-.18-.83.93.93,0,0,0-.75-.32,1.19,1.19,0,0,0-.91.41,1.13,1.13,0,0,0-.31.87v2.93h-.79v-4.8Z"/><polygon class="cls-2" points="276.07 378.31 223.72 378.31 228.06 350.3 280.41 350.3 276.07 378.31"/><path class="cls-6" d="M276.5,378.81H223.13l4.5-29H281Zm-52.2-1h51.34l4.19-27H228.48Z"/><path class="cls-4" d="M236.43,367.35h-.87v-7h1.89c1.48,0,2.37.76,2.37,2a1.89,1.89,0,0,1-1,1.75,2.86,2.86,0,0,1-1.29.29l2.7,2.89h-1.11l-2.7-2.92Zm.88-3.51c1.05,0,1.62-.48,1.62-1.35s-.52-1.34-1.48-1.34h-1v2.69Z"/><path class="cls-4" d="M241.53,365.2a1.54,1.54,0,0,0,.31.88,1.58,1.58,0,0,0,1.29.65,1.65,1.65,0,0,0,1.44-.82l.7.26a2.43,2.43,0,0,1-4.58-1.21,2.43,2.43,0,1,1,4.85-.07c0,.06,0,.2,0,.31Zm3.16-.58a1.43,1.43,0,0,0-.27-.82,1.63,1.63,0,0,0-1.32-.66,1.53,1.53,0,0,0-1.29.67,1.92,1.92,0,0,0-.27.81Z"/><path class="cls-4" d="M251.06,362.55v7h-.79v-3a2,2,0,0,1-1.73.92,2.24,2.24,0,0,1-1.74-.81,2.75,2.75,0,0,1-.5-1.72,2.27,2.27,0,0,1,2.31-2.5,1.81,1.81,0,0,1,1.66.94v-.82ZM247.13,365a1.58,1.58,0,1,0,3.12,0,1.86,1.86,0,0,0-.45-1.36,1.59,1.59,0,0,0-1.1-.48A1.64,1.64,0,0,0,247.13,365Z"/><path class="cls-4" d="M256.2,362.55v3.07a1.6,1.6,0,0,1-.47,1.34,2.08,2.08,0,0,1-1.39.5A2,2,0,0,1,253,367a1.72,1.72,0,0,1-.48-1.33v-3.07h.79v3.05a1.07,1.07,0,0,0,1.07,1.15,1.15,1.15,0,0,0,.86-.36,1.11,1.11,0,0,0,.2-.77v-3.07Z"/><path class="cls-4" d="M258.12,365.2a1.48,1.48,0,0,0,.31.88,1.57,1.57,0,0,0,1.29.65,1.67,1.67,0,0,0,1.44-.82l.69.26a2.34,2.34,0,0,1-2.13,1.29,2.52,2.52,0,1,1,2.4-2.57v.31Zm3.16-.58a1.43,1.43,0,0,0-.27-.82,1.63,1.63,0,0,0-1.32-.66,1.53,1.53,0,0,0-1.29.67,1.79,1.79,0,0,0-.27.81Z"/><path class="cls-4" d="M265.47,363.86v-.05c0-.45-.37-.73-.92-.73s-.86.27-.86.69.21.57,1.07.81a2.35,2.35,0,0,1,1.16.55,1.34,1.34,0,0,1,.39.94c0,.83-.69,1.39-1.71,1.39a1.56,1.56,0,0,1-1.79-1.48h.78a.9.9,0,0,0,1,.84c.54,0,.9-.29.9-.71s-.27-.63-1.09-.84c-1.05-.28-1.51-.71-1.51-1.44s.67-1.4,1.68-1.4a1.47,1.47,0,0,1,1.68,1.43Z"/><path class="cls-4" d="M268.37,366.37c0,.24.07.29.36.29h.37v.69h-.74c-.56,0-.78-.22-.78-.75v-3.35h-.67v-.7h.67V361h.79v1.51h.73v.7h-.73Z"/><polygon class="cls-2" points="52.94 378.31 0.58 378.31 4.92 350.3 57.27 350.3 52.94 378.31"/><path class="cls-6" d="M53.36,378.81H0l4.49-29H57.86Zm-52.19-1H52.51l4.18-27H5.35Z"/><path class="cls-4" d="M21.56,367.35h-.87v-6.2H18.92v-.75h4.4v.75H21.56Z"/><path class="cls-4" d="M26.51,362.55h.87l-2.86,7.11h-.87l1-2.46L23,362.55h.84l1.29,3.56Z"/><path class="cls-4" d="M29,362.55v.87a1.86,1.86,0,0,1,1.75-1A2.27,2.27,0,0,1,33,364.91a2.31,2.31,0,0,1-2.26,2.55,2.26,2.26,0,0,1-1.05-.25,1.78,1.78,0,0,1-.7-.61v3h-.79v-7ZM29,365a1.57,1.57,0,0,0,1.58,1.74,1.63,1.63,0,0,0,1.59-1.83,1.86,1.86,0,0,0-.42-1.3,1.57,1.57,0,0,0-1.14-.5A1.68,1.68,0,0,0,29,365Z"/><path class="cls-4" d="M34.68,365.2a1.55,1.55,0,0,0,.32.88,1.57,1.57,0,0,0,1.29.65,1.65,1.65,0,0,0,1.43-.82l.7.26a2.36,2.36,0,0,1-2.13,1.29,2.52,2.52,0,1,1,2.4-2.57c0,.06,0,.2,0,.31Zm3.17-.58a1.51,1.51,0,0,0-.27-.82,1.63,1.63,0,0,0-1.32-.66,1.55,1.55,0,0,0-1.3.67,2.07,2.07,0,0,0-.27.81Z"/><polygon class="cls-4" points="252.61 342.98 251.86 342.98 251.86 300.86 122.09 300.86 122.09 300.11 252.61 300.11 252.61 342.98"/><polygon class="cls-4" points="255.98 341.89 252.24 348.37 248.5 341.89 255.98 341.89"/><polygon class="cls-4" points="200.44 342.98 199.69 342.98 199.69 300.86 87.3 300.86 87.3 342.98 86.55 342.98 86.55 300.11 200.44 300.11 200.44 342.98"/><polygon class="cls-4" points="203.81 341.89 200.07 348.37 196.33 341.89 203.81 341.89"/><polygon class="cls-4" points="83.18 341.89 86.92 348.37 90.66 341.89 83.18 341.89"/><polygon class="cls-4" points="140.87 342.98 140.12 342.98 140.12 300.86 33.13 300.86 33.13 342.98 32.38 342.98 32.38 300.11 140.87 300.11 140.87 342.98"/><polygon class="cls-4" points="144.24 341.89 140.5 348.37 136.76 341.89 144.24 341.89"/><polygon class="cls-4" points="29.01 341.89 32.75 348.37 36.49 341.89 29.01 341.89"/><polygon class="cls-4" points="159.9 406.58 29.38 406.58 29.38 378.31 30.13 378.31 30.13 405.83 159.9 405.83 159.9 406.58"/><polygon class="cls-4" points="195.44 406.58 81.55 406.58 81.55 378.31 82.3 378.31 82.3 405.83 194.69 405.83 194.69 378.31 195.44 378.31 195.44 406.58"/><polygon class="cls-4" points="249.61 406.58 140.72 406.58 140.72 378.31 141.47 378.31 141.47 405.83 248.86 405.83 248.86 378.31 249.61 378.31 249.61 406.58"/><polygon class="cls-4" points="199.63 97.09 198.88 97.09 198.88 43.08 79.02 43.08 79.02 97.09 78.27 97.09 78.27 42.33 199.63 42.33 199.63 97.09"/><polygon class="cls-4" points="82.38 96 78.64 102.48 74.9 96 82.38 96"/><polygon class="cls-4" points="195.51 96 199.25 102.48 202.99 96 195.51 96"/><rect class="cls-4" x="138.17" y="28.35" width="0.75" height="14.36"/><rect class="cls-4" x="198.88" y="131.51" width="0.75" height="89.65"/><polygon class="cls-4" points="195.51 220.07 199.25 226.55 202.99 220.07 195.51 220.07"/><rect class="cls-4" x="78.26" y="215.18" width="0.75" height="7.42"/><polygon class="cls-4" points="83.19 221.99 74.08 221.99 78.64 226.55 83.19 221.99"/><rect class="cls-4" x="78.26" y="174.74" width="0.75" height="8.15"/><polygon class="cls-4" points="83.19 182.28 74.08 182.28 78.64 186.84 83.19 182.28"/><rect class="cls-4" x="78.26" y="130.82" width="0.75" height="11.63"/><polygon class="cls-4" points="83.19 141.84 74.08 141.84 78.64 146.4 83.19 141.84"/><rect class="cls-4" x="140.71" y="406.2" width="0.75" height="23.5"/><polygon class="cls-4" points="137.35 428.61 141.09 435.09 144.83 428.61 137.35 428.61"/><polygon class="cls-4" points="199.63 282.41 78.27 282.41 78.27 254.89 79.02 254.89 79.02 281.66 198.88 281.66 198.88 255.9 199.63 255.9 199.63 282.41"/><rect class="cls-4" x="140.12" y="282.04" width="0.75" height="18.45"/></g></g></svg>