<?xml version="1.0" encoding="utf-8"?>
<!-- Generator: Adobe Illustrator 23.0.6, SVG Export Plug-In . SVG Version: 6.00 Build 0)  -->
<svg version="1.1" id="Layer_1" xmlns="http://www.w3.org/2000/svg" xmlns:xlink="http://www.w3.org/1999/xlink" x="0px" y="0px"
	 viewBox="0 0 20 33.2" style="enable-background:new 0 0 20 33.2;" xml:space="preserve">
<style type="text/css">
	.st0{fill:#0F0000;}
</style>
<title>go up</title>
<g>
	<g id="Layer_1-2">
		<polygon class="st0" points="20,17.3 10,0 0,17.3 		"/>
		<path d="M3.5,28.4h0.9v3c0.1,0.5-0.1,1-0.4,1.4c-0.4,0.3-0.8,0.5-1.3,0.5C2,33.2,1.4,33,1,32.6L1.5,32c0.2,0.3,0.6,0.5,1,0.5
			c0.5,0.1,0.9-0.3,0.9-0.8c0-0.1,0-0.2,0-0.2v-0.2c-0.3,0.4-0.7,0.6-1.1,0.5c-0.9,0-1.6-0.7-1.5-1.6c0-0.1,0-0.1,0-0.2
			c-0.1-0.9,0.6-1.6,1.5-1.7c0,0,0.1,0,0.1,0c0.4,0,0.8,0.2,1,0.5V28.4z M1.7,30c-0.1,0.5,0.3,0.9,0.8,1c0,0,0.1,0,0.1,0
			c0.3,0,0.5-0.1,0.7-0.3c0.1-0.2,0.2-0.4,0.2-0.6c0-0.3-0.1-0.5-0.2-0.8C2.9,29,2.3,29,2,29.4C1.8,29.5,1.7,29.8,1.7,30z"/>
		<path d="M8.7,30c0,0.9-0.8,1.7-1.7,1.7c0,0,0,0,0,0c-1,0.1-1.8-0.6-1.9-1.6s0.6-1.8,1.6-1.9c0.1,0,0.2,0,0.3,0
			c0.9,0,1.7,0.7,1.8,1.6C8.7,30,8.7,30,8.7,30z M6.1,30c0,0.5,0.4,0.9,0.9,0.9s0.9-0.4,0.9-0.9c0-0.5-0.4-0.9-0.9-0.9
			C6.4,29.1,6.1,29.5,6.1,30C6.1,30,6.1,30,6.1,30z"/>
		<path d="M14.6,28.4v2c0.1,0.4-0.1,0.7-0.4,1c-0.3,0.2-0.7,0.3-1.1,0.3c-0.4,0-0.8-0.1-1.1-0.4c-0.2-0.2-0.4-0.6-0.3-0.9v-2.1h0.9
			v2c0,0.3,0.2,0.6,0.5,0.6c0,0,0,0,0.1,0c0.3,0,0.5-0.2,0.5-0.5c0,0,0-0.1,0-0.1v-2.1H14.6z"/>
		<path d="M16.5,28.4v0.4c0.2-0.3,0.6-0.5,1.1-0.5c0.3,0,0.6,0.1,0.9,0.3c0.5,0.3,0.8,0.9,0.7,1.5c0.1,0.9-0.6,1.6-1.4,1.7
			c-0.1,0-0.1,0-0.2,0c-0.4,0-0.8-0.1-1.1-0.5v1.8h-0.9v-4.7H16.5z M16.5,30.1c-0.1,0.5,0.3,0.9,0.8,1c0,0,0.1,0,0.1,0
			c0.5,0.1,1-0.3,1.1-0.9c0.1-0.5-0.3-1-0.9-1.1c-0.5-0.1-1,0.3-1.1,0.9C16.5,30,16.5,30,16.5,30.1z"/>
	</g>
</g>
</svg>
