<svg xmlns="http://www.w3.org/2000/svg" viewBox="0 0 329.33 543.86"><defs><style>.cls-1,.cls-2{fill:none;stroke-miterlimit:10;}.cls-1{stroke:#00008c;stroke-width:0.8px;}.cls-2{stroke:#ff2031;stroke-width:0.67px;}</style></defs><title>typographytablet2</title><g id="Layer_2" data-name="Layer 2"><g id="Layer_1-2" data-name="Layer 1"><path d="M7.05,488.14l.1.08a3.32,3.32,0,0,0,.26,1.17c.27.73,2.25,5.78,3.87,9.74.32.34.61.5,1.78.84l-.12.4-1.93,0-1.87,0,.09-.34.66-.51c-.14-.5-.65-1.74-1.42-3.62a35.28,35.28,0,0,1-4,.09c-.72,1.81-1,2.52-1.3,3.41l1.62.57-.09.4-2.18,0-1.82,0,.11-.4L2,499.42c.54-1.12,2.52-5.68,4-9.44a.77.77,0,0,0,.07-.56L5.9,489Zm-.58,2.42c-.79,2.12-1.3,3.4-1.71,4.57.49,0,2.68.07,3.47.07-.68-1.82-1.2-3.24-1.72-4.64Z"/><path d="M18.46,495.44c0-2-.83-2.4-1.86-2.4a2.34,2.34,0,0,0-1.15.38,15.82,15.82,0,0,1-.18,1.71l-.21.07a4.76,4.76,0,0,1-1-1.47,9,9,0,0,1,2-1.19,3.81,3.81,0,0,1,1.26-.29A2.48,2.48,0,0,1,19.7,495c0,1.21,0,2.78,0,4a2.55,2.55,0,0,0,1.45,1.08l-.15.29a1.49,1.49,0,0,1-.7.16c-1.21,0-1.59-.56-1.77-1.05h0a3.33,3.33,0,0,1-2.22,1.09A2.13,2.13,0,0,1,14,498.53a1.6,1.6,0,0,1,.72-1.47,16.17,16.17,0,0,1,3.75-1.28Zm-1.59,4.23a2.13,2.13,0,0,0,1.39-.65.75.75,0,0,0,.18-.43l0-2.25a12.61,12.61,0,0,0-2.49.88,1,1,0,0,0-.65,1A1.45,1.45,0,0,0,16.87,499.67Z"/><path d="M26.45,488.63c.86-.09,2.86-.25,4-.25,2.64,0,4.26.77,4.26,2.72,0,1.76-1.62,2.55-2.91,2.79V494c2.57.27,3.72,1.34,3.72,2.9,0,3.12-3.53,3.5-5.94,3.5-1.15,0-2.21,0-3.29-.06l.12-.39,1.34-.51c0-.25.1-1.8.1-4.27v-5.83L26.31,489Zm2.75,5.73v.57c0,1.42-.07,3.39.06,4.83,2.52,0,3.46-.4,4-1a2.62,2.62,0,0,0,.63-1.84C33.9,495.56,33.27,494.28,29.2,494.36Zm0-.6c2.16,0,4.06-.52,4.06-2.55a1.8,1.8,0,0,0-1-1.72,5.07,5.07,0,0,0-2.52-.45H29.2Z"/><path d="M37.63,493.49c0-1.65,0-3.19-.07-4.64l-1-.44.14-.34a11.79,11.79,0,0,1,2.27-.57c0,2.07,0,3.85,0,5.58a6.6,6.6,0,0,1,2.12-.83,3.78,3.78,0,0,1,3.82,3.92,4.34,4.34,0,0,1-4.39,4.42,5.71,5.71,0,0,1-1.75-.56,6.24,6.24,0,0,1-1.06.54Zm1.26,6a4.14,4.14,0,0,0,1.33.29,3.19,3.19,0,0,0,3.2-3.44,3,3,0,0,0-2.93-3.16,3.19,3.19,0,0,0-1.6.45Z"/><path d="M60.26,488.86a4,4,0,0,1,1.27-.54l.13.08a12.69,12.69,0,0,1-.72,2.79l-.27.18a10.13,10.13,0,0,1-.58-1.88,4.83,4.83,0,0,0-2.41-.61,5.22,5.22,0,0,0-5.53,5.55c0,3.17,2.22,5.47,5.76,5.47a3.45,3.45,0,0,0,1.3-.18,27.33,27.33,0,0,1,2-1.92h.45a8.79,8.79,0,0,1-1.17,2.3,9.23,9.23,0,0,1-3.13.59c-3.35,0-6.73-1.85-6.73-6.17s3.69-6.36,6.8-6.36A5.55,5.55,0,0,1,60.26,488.86Z"/><path d="M67.36,492.25a3.6,3.6,0,0,1,2.22.67,10.15,10.15,0,0,1-.61,1.81l-.27.13a12.1,12.1,0,0,1-.53-1.86,1.56,1.56,0,0,0-.75-.14,3.19,3.19,0,0,0-3.19,3.46,3.23,3.23,0,0,0,3.33,3.46,1.4,1.4,0,0,0,.51-.17,8.43,8.43,0,0,1,1.49-1l.11.22a3.82,3.82,0,0,1-1.14,1.51,6.24,6.24,0,0,1-1.69.29,3.93,3.93,0,0,1-4-4.09A4.28,4.28,0,0,1,67.36,492.25Z"/><path d="M75.25,488.61c.38,0,2-.23,4-.23,4.27,0,7.47,1.65,7.47,5.8a5.62,5.62,0,0,1-3.9,5.56,13.36,13.36,0,0,1-4.69.67c-1.42,0-2.37,0-3.15-.06l.13-.41,1.46-.44c.07-.19.11-2.3.11-5.32v-4.9L75.08,489ZM78,494.18c0,3,0,5.36.09,5.58,2.25,0,4.09-.34,5.29-1.41a5.1,5.1,0,0,0,1.73-4.14,4.68,4.68,0,0,0-1.67-3.87c-1.23-1-2.92-1.35-5.44-1.31Z"/><path d="M95.57,499.06A3.27,3.27,0,0,0,97,500.14l-.13.3a1.25,1.25,0,0,1-.72.15,1.89,1.89,0,0,1-1.71-1h0a4.63,4.63,0,0,1-2.18,1,3.86,3.86,0,0,1-3.8-4,4.35,4.35,0,0,1,4.32-4.34,3.28,3.28,0,0,1,1.55.56l0,0c0-1.37,0-2.41,0-3.93l-1.12-.46.16-.33a11,11,0,0,1,2.33-.57c0,2-.06,3.72-.06,5.69Zm-1.26-5.6a2.9,2.9,0,0,0-1.48-.44,3.19,3.19,0,0,0-3,3.33,3.07,3.07,0,0,0,2.9,3.25,2.9,2.9,0,0,0,1.62-.62Z"/><path d="M102.32,488.47c.68,0,1.4,0,2.11,0h4.44a8.68,8.68,0,0,1,1.41-.2l0,0c0,.49-.34,2-.46,2.56l-.29.16c-.18-.43-.56-1.53-.67-1.93l-3.78.13v4.56a43.73,43.73,0,0,0,4.57-.22l.06.14c-.08.15-.87,1-1.08,1s-3.1-.18-3.55-.18c0,1.21,0,3.46.07,5l4,.15c.31-.44,1.06-1.61,1.44-2.06l.36-.05a21.3,21.3,0,0,1-.61,2.83c-1.19-.06-2.25-.06-3.29-.06h-2.74l-2.36,0,.12-.41,1.57-.49c.06-.22.11-2.27.11-5.31v-4.83l-1.57-.45Z"/><path d="M113.6,496.1a2.44,2.44,0,0,0,0,.27,3,3,0,0,0,3,3.33,1.71,1.71,0,0,0,.65-.1c.59-.4,1.06-.72,1.44-.92l.09.28a4,4,0,0,1-.94,1.19,5.65,5.65,0,0,1-1.89.44,3.67,3.67,0,0,1-3.71-4,4.08,4.08,0,0,1,3.82-4.34,2.86,2.86,0,0,1,3,3c0,.22,0,.51-.18.58a5.07,5.07,0,0,1-1.64.23Zm3.89-.63a1.42,1.42,0,0,0,.09-.56,1.87,1.87,0,0,0-1.71-2.07c-1.64,0-2.23,1.91-2.25,2.63Z"/><path d="M124.69,488.49h6.43c.14,0,1.1-.21,1.35-.21l.05,0c0,.33-.27,2.09-.39,2.61l-.33.19c-.28-.74-.46-1.3-.68-2l-3.73.16v4.83a42.47,42.47,0,0,0,4.68-.23l.06.18a5.56,5.56,0,0,1-1,1c-.47,0-3.3-.18-3.77-.18,0,3.13,0,4,.08,4.54l2,.54-.17.41-2.55,0-2.15,0,.11-.4,1.28-.55c0-.27.07-1.93.07-5.21v-4.86l-1.51-.49Z"/><path d="M133.3,500l1.17-.54c0-.24.05-1.55.05-3.68v-2.5l-1.24-.29.3-.54h.94a5.54,5.54,0,0,1,1.17-3.87,3.12,3.12,0,0,1,2.36-1.11,2,2,0,0,1,1.24.37,9,9,0,0,1-.57,1.55l-.26.15a10,10,0,0,1-.64-1.39.79.79,0,0,0-.2,0c-1,0-1.6,1-1.73,2.79,0,.56-.06,1.1-.07,1.55h2.36l-.33.58-2,.22c0,.36-.06,1.22-.06,2.39,0,2.75,0,3.53.06,3.78l1.73.52-.13.4-2.41,0-1.84,0Z"/><path d="M149.64,494.61c1-.07,4.18-.16,4.9-.15a52.39,52.39,0,0,1-1,6.14h-.13a.8.8,0,0,1-.72-.57,8.69,8.69,0,0,1-3,.66c-3.89,0-6.59-2.43-6.59-6.23,0-3.47,2.83-6.3,6.9-6.3a5,5,0,0,1,2.95.81,4.06,4.06,0,0,1,1.32-.74l.11.09a15.62,15.62,0,0,1-.74,3l-.33.14a12.27,12.27,0,0,1-.52-1.91,5.39,5.39,0,0,0-2.61-.64,5.46,5.46,0,1,0,.07,10.91,7.13,7.13,0,0,0,2.42-.4c.09-1.33.23-2.95.34-4l-4-.09-.07-.22Z"/><path d="M162,493.29v0a2.52,2.52,0,0,1,.65,1.82,2.88,2.88,0,0,1-3.08,2.79,3,3,0,0,1-1.38-.31,1.81,1.81,0,0,0-.58.88,1,1,0,0,0,.86.82,19.16,19.16,0,0,1,3.59,0,2,2,0,0,1,1.1.43,1.9,1.9,0,0,1,.66,1.48,3.29,3.29,0,0,1-1.4,2.47,5.17,5.17,0,0,1-3.23,1.15c-1.71,0-3.06-.9-3.06-2.18a.74.74,0,0,1,.2-.47l1.55-1.73,0,0a3.42,3.42,0,0,1-.68-.49,2,2,0,0,1-.67-1.17c0-.2.63-.83,1.24-1.35a2.5,2.5,0,0,1-1.18-2.22,3,3,0,0,1,3.31-2.93,8.21,8.21,0,0,1,1.33.14c.58.11,1,.18,1.23.2L164,492l.08.16-.76,1.08Zm-3.58,7.33a3.62,3.62,0,0,0-1,1.6c0,1.25,1.32,1.68,2.36,1.68,1.53,0,2.93-.69,2.93-2.16a1.21,1.21,0,0,0-.95-1.21,8.41,8.41,0,0,0-1.8-.12A4.33,4.33,0,0,0,158.46,500.62Zm-.54-5.54c0,1.09.58,2.26,1.78,2.26s1.73-.95,1.73-2.3a2,2,0,0,0-1.76-2.21C158.51,492.83,157.92,493.91,157.92,495.08Z"/><path d="M169.4,488.49h3.5l-.11.39-.74.56v4.12h6.57v-4.1l-.9-.63.17-.34h3.69l-.17.43-1.44.5v4.79c0,2,.06,5,.13,5.17l1.67.56-.16.43-2.32,0-1.48,0,.11-.43.68-.54c.06-1.8,0-3.37,0-5.1a19.14,19.14,0,0,1-2.36.11h-4.21c0,1.51-.05,3,0,4.9l.75.66-.14.4-1.37,0-2.25,0,.16-.41,1.37-.51c0-.47.11-3.15.11-5.35v-4.71l-1.46-.49Z"/><path d="M190.34,499.09c0,.31.09.38.34.49l1,.45-.13.38a18.52,18.52,0,0,1-2.62-.15c.07-.76.16-1.92.16-4.57,0-2.18-1.23-2.49-2.07-2.49a3.09,3.09,0,0,0-1.95.72c0,1.75,0,5.21.06,5.57l1.31.5-.14.38-1.88,0-1.74,0,.12-.38,1-.5c0-.27.05-1.88.05-4.23s0-4.34-.07-6.4l-1-.45.11-.34c.47-.14,1.15-.32,2.29-.57,0,1.8-.06,3.83-.06,5.83l0,0a3.93,3.93,0,0,1,2.56-1.1,2.63,2.63,0,0,1,2.66,2.68Z"/><path d="M197.14,488.49h4.16l-.12.41-1.34.49v4.79c0,3,.06,4.95.09,5.27l1.68.51-.13.41-2.29,0-2.37,0,.11-.41,1.45-.51c.08-.3.11-2.27.11-5.27v-4.83l-1.46-.49Z"/><path d="M203,492.75a11.34,11.34,0,0,1,2.14-.5v3.6c0,2,0,3.06,0,3.6l1.29.52-.12.4-1.91,0-1.77,0,.13-.4,1-.52c0-.59.06-2.2.06-3.64v-2.28l-1-.45Zm1.58-4.17a2,2,0,0,1,.81.91l0,.15a3,3,0,0,1-.87.93l-.12,0a3.08,3.08,0,0,1-.81-.94l0-.14a3.76,3.76,0,0,1,.9-.95Z"/><path d="M211.74,488.49H216l-.12.43-1.23.5c0,1.6,0,7.15,0,8.43a4.27,4.27,0,0,1-.27,1.73,8.14,8.14,0,0,1-2.46,3.72l-.47-.27v-.1c1.65-1.41,1.89-3.1,1.85-5.22v-4.15c0-2.93-.05-3.8-.07-4.17l-1.62-.49Z"/><path d="M216.87,492.74a11.46,11.46,0,0,1,2.23-.49v6.64a6.81,6.81,0,0,1-.68,3,8.94,8.94,0,0,1-2.2,2.9l-.45-.22,0-.2c1.88-1.44,2.11-3.35,2.11-5.56,0-1.53,0-4.32-.05-5.37-.31-.12-.69-.27-1.05-.43Zm1.62-4.18a2.44,2.44,0,0,1,.81.93l-.05.13a2.78,2.78,0,0,1-.89.94l-.1.05a2.83,2.83,0,0,1-.83-.95l0-.13a3.73,3.73,0,0,1,.88-.95Z"/><path d="M225.73,488.49h4.14l-.11.41-1.35.49v4.79c0,3,.05,4.95.09,5.27l1.67.51-.11.41-2.44,0-2.25,0,.1-.41,1.48-.51c.07-.32.11-2.27.11-5.27v-4.81l-1.44-.51Zm10.62.46-1.86.45a1.45,1.45,0,0,0-.59.36c-.76.72-1.55,1.61-3.67,4v.05c1.44,1.68,2.77,3.05,4.08,4.43s2,1.95,2.25,2.29l-.23.07a4.48,4.48,0,0,1-3.19-1.55c-1-1-2.62-2.72-4.24-4.57v-.16c2.52-2.87,3.61-4.11,4.32-5.12a4.11,4.11,0,0,1-.08-.77c1.35-.09,2.87,0,3.48.05Z"/><path d="M241.06,500l-.09.38-2,0-1.8,0,.13-.38,1-.52c0-.31.06-1.41.06-3.46,0-2.5,0-4.86-.07-7.13l-1-.48.16-.33a16.48,16.48,0,0,1,2.21-.57c-.05,2-.05,4.28-.05,6.51,0,1.19,0,5.17,0,5.46Zm4.32.67a3.61,3.61,0,0,1-2.23-.88,34.87,34.87,0,0,1-3.13-3.55l0-.11c.83-.92,1.82-2.05,2.54-3l.32-.88a17.29,17.29,0,0,1,2.33.21l-.24.38c-.25.15-1.42.51-1.8.69-.7.68-.92.92-1.92,2.05v0c1.09,1.4,3.34,3.9,4.26,4.91Z"/><path d="M250.67,488.49h4.14l-.14.41-1.28.5v4.74c0,2.86,0,5.17.08,5.38l4,.24c.43-.65,1.19-1.82,1.58-2.29l.36,0a23.91,23.91,0,0,1-.59,3c-.63,0-2.25-.07-6.09-.07l-2.43,0,.13-.4,1.51-.5c0-.25.07-2.49.07-5.31V489.4l-1.51-.52Z"/><path d="M264,500l-.18.41-1.78,0-1.91,0,.11-.38,1.15-.49c0-.79,0-1.9,0-6.3,0-1.62,0-3.51-.07-4.41l-1.05-.39.2-.36a16.62,16.62,0,0,1,2.21-.54c0,2-.05,3.69-.05,5.63,0,3.62,0,5,0,6.37Z"/><path d="M269.84,488.5h2.67a3,3,0,0,0,.23.86c.36.77,1.82,3.69,4.23,8.7h0c.47-.94,2.73-5.42,4.36-8.86a2.65,2.65,0,0,0,0-.7h3.1l-.15.44-1.54.48c.07,2.07.37,9.53.43,10l1.64.53-.07.41-2.26,0-2,0,.12-.41,1.16-.51c-.08-2.07-.13-6.64-.18-9.29h0c-1,2.27-2.54,5.31-4.81,10.39l-.3,0c-.94-2-1.64-3.68-4.45-9.9H272c-.17,2.53-.46,6.76-.52,8.73l1.62.57-.12.4-2.13,0-1.8,0,.09-.4,1.28-.55c.27-1.81.7-5.82,1.05-9.58-.13-.47-.28-.54-1.79-.89Z"/><path d="M287.12,493.6l-1-.36.11-.36a8.81,8.81,0,0,1,2.12-.63l-.09,1.49h0a4.9,4.9,0,0,1,2.81-1.49,2.26,2.26,0,0,1,2.16,1.51c1.31-1.13,2.12-1.51,3-1.51a2.43,2.43,0,0,1,2.41,2.7v4.3c0,.17.13.25.32.35l1,.39-.07.38-1.87,0-1.6,0,.09-.4.81-.5c0-.68.09-1.91.07-3.91,0-.93-.11-2.34-1.77-2.34a3.44,3.44,0,0,0-2.23,1.12,13.11,13.11,0,0,1,.11,1.56l0,3.57,1.08.52-.11.38-1.58,0-1.62,0,.09-.41.85-.47c0-1.32,0-2.74,0-4.07,0-.85-.12-2.2-1.8-2.2a3.54,3.54,0,0,0-2.09,1.14c0,2.3,0,4.48,0,5.13l1.15.47-.12.41-1.75,0-1.69,0,.11-.41,1-.47c0-.4.05-2,.05-3.57Z"/><path d="M5.16,522l-2.09,0-2,0,.09-.4L2.64,521c0-.83.23-3.8.32-9.13-.7-1.08-.79-1-2-1.33l.14-.41L3.36,510A5.46,5.46,0,0,0,4,511c2.42,3.07,5.17,6.25,7.62,9h0c0-.83-.11-7.72-.12-8.91l-1.43-.6.18-.39h3.95l-.13.45-1.57.54c0,.83-.16,6-.19,9.32,0,.58,0,1.43-.09,1.86l-.17.07c-1.58-1.12-4.75-5.08-8.49-9.72h0c0,3.13,0,7.52.13,8.33l1.56.63Z"/><path d="M16.06,515.25l-1-.41.11-.36a8.15,8.15,0,0,1,2.11-.63l-.08,1.44h0c1.48-1.22,2.16-1.44,2.86-1.44,1.86,0,2.4,1.53,2.4,2.86v4.09a.32.32,0,0,0,.21.34l1.12.43-.13.4-1.9,0-1.48,0,.13-.43.72-.51c0-.54.07-1.85.07-4.21a1.76,1.76,0,0,0-1.79-2,3.39,3.39,0,0,0-2.17,1.12c0,1.35,0,4.81.05,5.19l1,.45-.12.41-1.64,0-1.75,0,.13-.4,1-.46c0-.31,0-1.93,0-4.25Z"/><path d="M41.68,515.94a6,6,0,0,1-6.19,6.35,6,6,0,0,1-6.27-6.14,6.24,6.24,0,0,1,6.18-6.39C38.82,509.82,41.68,512.09,41.68,515.94Zm-10.84-.07c0,3,1.87,5.79,4.83,5.79,3.18,0,4.41-2.84,4.41-5.67,0-3.18-2-5.58-4.7-5.58C32.52,510.41,30.84,512.73,30.84,515.87Z"/><path d="M51.31,517.94a4,4,0,0,1-4,4.25,3.93,3.93,0,0,1-4-4.06,4.17,4.17,0,0,1,4-4.28A3.94,3.94,0,0,1,51.31,517.94Zm-6.45.09c0,1.73.94,3.56,2.61,3.56s2.33-1.89,2.33-3.49c0-1.76-.85-3.67-2.47-3.67S44.86,516.15,44.86,518Z"/><path d="M57.19,510.27a30,30,0,0,1,3.57-.29,5.86,5.86,0,0,1,3.26.75,3.18,3.18,0,0,1,1.44,2.76,3.65,3.65,0,0,1-3.78,3.69,2.68,2.68,0,0,1-.71-.07l-.18-.43c2.16-.17,3.15-1.37,3.15-3.1,0-2.34-1.76-3-4.1-2.94v4.88c0,4.33.11,5.17.11,5.5l1.94.54-.16.41-2.63,0-2,0,.09-.4,1.28-.54c.07-.37.07-1.17.07-5.42V511l-1.46-.31Z"/><path d="M69,515l0,0a5.37,5.37,0,0,1,2.5-1.17A3.6,3.6,0,0,1,75,517.68a4.46,4.46,0,0,1-4.38,4.51,3.86,3.86,0,0,1-1.51-.56l0,0c0,1.4,0,2.61.07,3.54l1.69.51-.18.39h-4l.17-.43.91-.41c0-.69.1-2.4.1-5v-5.07l-1-.53.18-.32a8.05,8.05,0,0,1,2.07-.5Zm.07,6a3,3,0,0,0,1.51.43,3.2,3.2,0,0,0,3-3.47c0-1.57-.91-3.12-2.62-3.12a3.46,3.46,0,0,0-1.91.78Z"/><path d="M93.2,515.85a6,6,0,0,1-4.6,6.26v0c2.26,1.3,4,2.2,5.37,2.88l-.18.27a7.84,7.84,0,0,1-3.85-1c-.81-.4-1.71-1-3.28-1.84a6.1,6.1,0,0,0-1-.32c-2.61-.79-4.88-2.54-4.88-6a6.19,6.19,0,0,1,6.17-6.38A6.06,6.06,0,0,1,93.2,515.85ZM82.34,516c0,2.81,1.84,5.59,4.93,5.78,3-.21,4.32-3,4.32-5.79,0-3.1-2-5.55-4.69-5.55S82.34,512.88,82.34,516Z"/><path d="M102.07,519.56c0,2,0,4.62,0,5.63l1.56.49-.12.41H99.28l.11-.39,1.35-.49c0-1.44,0-2.88.07-3.82h0a4.58,4.58,0,0,1-2,.81,3.82,3.82,0,0,1-3.82-4,4.39,4.39,0,0,1,4.32-4.32,3.06,3.06,0,0,1,1.77.68,4.2,4.2,0,0,1,1.6-.7l.06.11a3.88,3.88,0,0,1-.58,1.33Zm-1.26-4.43a2.38,2.38,0,0,0-1.5-.49,3.17,3.17,0,0,0-3,3.32,3,3,0,0,0,2.88,3.29,3,3,0,0,0,1.62-.5Z"/><path d="M108.71,510.34a25,25,0,0,1,4-.36c2.83,0,4.32,1,4.32,3s-1.51,2.79-2.86,3.22v0c.4.63,1.77,2.54,2.86,3.93s1.28,1.6,1.52,1.9l-.11.13a3.77,3.77,0,0,1-2.69-1.42,40.43,40.43,0,0,1-3.29-4.41l.05-.11c1.71-.49,3.06-1.23,3.06-3,0-2.31-2-2.67-4.14-2.62v5.59c0,2.44,0,3.85,0,4.79l1.8.54-.14.41-2.47,0-2.2,0,.13-.41L110,521c0-.71.12-2.42.12-4.78V511l-1.55-.2Z"/><path d="M119.9,514.43a6.6,6.6,0,0,1,1.82-.58,8.67,8.67,0,0,1,.18,1.84h0a3.13,3.13,0,0,1,2.56-1.84,1.18,1.18,0,0,1,.84.27,8.15,8.15,0,0,1-.52,1.82l-.2.12a5.89,5.89,0,0,1-.61-1.15.62.62,0,0,0-.27,0c-.58,0-1.41.74-1.78,1.73v4.5l1.83.5-.09.38-2.45,0-1.76,0,.09-.38,1-.52c.06-1.89.08-4.86.08-5.76l-.94-.54Z"/><path d="M136.5,510.38a5,5,0,0,1,1.15-.6l.13.09a20.49,20.49,0,0,1-.63,2.67l-.27.14a12.94,12.94,0,0,1-.56-1.71,2.92,2.92,0,0,0-1.66-.49,2.12,2.12,0,0,0-2.26,2.13,1.91,1.91,0,0,0,1,1.83c.79.49,1.75.94,2.72,1.46,1.75.92,2.09,1.93,2.09,2.87,0,2.84-2.67,3.52-4.09,3.52a5.61,5.61,0,0,1-3.44-1.18,14.48,14.48,0,0,1,.76-2.18l.29-.11c.07.23.14.56.48,2.43a4.11,4.11,0,0,0,1.82.34c1.68,0,2.77-.92,2.77-2.43a2.15,2.15,0,0,0-1.35-2c-.9-.51-1.85-.94-2.72-1.46a3.1,3.1,0,0,1-1.65-2.75,3.29,3.29,0,0,1,3.45-3.23A3.14,3.14,0,0,1,136.5,510.38Z"/><path d="M143.84,514.28a3.73,3.73,0,0,1,.89-.45l.14.15a10.58,10.58,0,0,1-.45,2.07l-.21.12c-.2-.36-.44-.95-.64-1.38a1.5,1.5,0,0,0-1-.31,1.3,1.3,0,0,0-1.42,1.33,1,1,0,0,0,.63,1c.45.27,1.55.72,2.14,1a2.05,2.05,0,0,1,1.39,1.89c0,1.87-2,2.45-3,2.45a5.06,5.06,0,0,1-2.6-.78,15.37,15.37,0,0,1,.42-1.89l.25-.12c.23.43.61,1.54.77,2a3.08,3.08,0,0,0,1.12.2,1.58,1.58,0,0,0,1.76-1.39,1.12,1.12,0,0,0-.73-1.13c-.49-.26-1.1-.54-1.81-.87a2.21,2.21,0,0,1-1.51-2.07,2.54,2.54,0,0,1,3.94-1.82Z"/><path d="M160.05,510.09c.34-.09,1-.2,1.4-.25l0,.05a24.49,24.49,0,0,1-.5,2.77l-.28.16c-.16-.45-.63-1.92-.68-2.1l-3.31.12v4.5c0,4.65.11,5.14.11,5.68l2.1.54-.14.41L156,522l-2.77,0,.12-.41,1.93-.54c0-.63.06-1,.06-5.08v-5.1l-3.12-.12c-.2.43-.81,1.71-1,2l-.27.07c-.05-.68-.07-2.36-.05-2.91l.05-.07c.25,0,.95.17,1.28.25Z"/><path d="M165.82,514.08l-.34.62-2.47.19V520a1.23,1.23,0,0,0,.33.88,1.39,1.39,0,0,0,.9.27,2.51,2.51,0,0,0,1.46-.42l.09,0,0,.54a2.5,2.5,0,0,1-2,.87,2.23,2.23,0,0,1-1.62-.72,2.85,2.85,0,0,1-.43-2v-4.61l-1.23-.19.33-.62h.91a18.66,18.66,0,0,1,.36-2,1.55,1.55,0,0,1,1-.58l-.08,2.61Z"/><path d="M170.92,510.09h3.85l-.11.39-.95.54v7a3.25,3.25,0,0,0,.54,1.92,3.63,3.63,0,0,0,3,1.39,3.52,3.52,0,0,0,2.9-1.28,3.9,3.9,0,0,0,.66-2.27c.09-2.41,0-4.68,0-6.77l-1.33-.54.15-.39h3.78l-.11.39-1.46.54c0,.4-.07.89-.22,6.52a5,5,0,0,1-.73,2.79,5.12,5.12,0,0,1-8,0,5.09,5.09,0,0,1-.56-2.65c0-2.63,0-5.64,0-6.65l-1.51-.5Z"/><path d="M183.73,514.59l.16-.36a12.24,12.24,0,0,1,2.2-.27c-.07.75-.13,2.19-.13,5.36a1.92,1.92,0,0,0,.35,1.26,1.78,1.78,0,0,0,1.38.56,2.55,2.55,0,0,0,2.15-1.19v-4.7c-.17-.3-.45-.43-1.21-.7l.16-.34a10.77,10.77,0,0,1,2.36-.25c-.05.84-.05,2-.05,6.64a2.12,2.12,0,0,0,1.45,1l-.12.3a1.84,1.84,0,0,1-.9.2,1.57,1.57,0,0,1-1.66-1.39h0a3.69,3.69,0,0,1-2.65,1.43,2.57,2.57,0,0,1-1.8-.69,3,3,0,0,1-.7-2.25c0-1.13.05-2.93.05-4.25Z"/><path d="M200.76,510.52l-.52.48c.3.87.86,2.31,3.56,9.06h0c1.06-2.86,2.41-6.34,3.31-9l-.68-.52.16-.41h3l-.1.41a3.72,3.72,0,0,0-1.46.78c-.6,1.18-3.26,7.92-4.07,10a7.11,7.11,0,0,1-.63,1h-.22c-.37-1.06-2.82-7.36-4.28-10.91-.36-.45-.67-.59-1.66-.9l.2-.39h3.46Z"/><path d="M208.81,514.05c.43,0,.9,0,1.54,0s1,0,1.54,0l-.17.45-.57.39c.37,1.1,1.06,2.83,2.07,5.3h0c.36-.9.71-1.69,2-5.21l-.87-.52.15-.41c.28,0,.84,0,1.26,0s1.08,0,1.47,0l-.12.43a2,2,0,0,0-1.14.83c-.29.54-1.89,4.39-2.57,6.1a3.16,3.16,0,0,1-.54.87h-.15c-.16-.35-1.73-4.38-2.82-7a2,2,0,0,0-1.23-.85Z"/><path d="M221.71,510.09H225l-.12.39-.54.42c.32,1,.94,2.39,3.76,9.38h0c.56-1.12,1.13-2.31,2.18-4.65-.67-1.64-1.44-3.4-2-4.48a2.48,2.48,0,0,0-1.38-.67l.16-.39h2.56l0,.05.07.81c.17.51.33.92,1.34,3.19h0a32.37,32.37,0,0,0,1.37-3.19l0-.81,0-.05h2.52l-.12.39a3.24,3.24,0,0,0-1.68.85c-.23.41-.7,1.19-1.87,3.62.14.36.85,2,2.25,5.22h0c.81-2.18,2.1-5.65,3.31-9.22l-.59-.47.14-.39h3l-.09.39a3.53,3.53,0,0,0-1.55.72c-.49.89-2.43,6.05-4,10.14a4.87,4.87,0,0,1-.67.95h-.13c-.34-.7-1.38-3.31-2.44-5.78h0c-1.21,2.51-1.84,3.8-2.36,4.9a4,4,0,0,1-.68.88h-.11c-.51-1.17-3.64-9-4.61-11.11a2.81,2.81,0,0,0-1.41-.7Z"/><path d="M242,514.48l-.73.45c.27.88.79,2.45,1.71,5.2h.05c.65-1.67,1.23-3,1.77-4.44l-.15-1a4.7,4.7,0,0,1,1.17-.61l.13.09.07,1.29c.43,1.28,1.08,2.9,1.8,4.79h0c.64-2,1.08-3.34,1.63-5.29l-1-.45.16-.43c.47,0,.95,0,1.42,0s1,0,1.41,0l-.09.43a2.18,2.18,0,0,0-1.1.67c-.24.55-1.19,3.27-2.27,6.37a6.7,6.7,0,0,1-.6.76h-.14c-.63-1.61-1.33-3.5-2.14-5.51h0c-.74,1.76-1.1,2.59-2,4.73a5.45,5.45,0,0,1-.58.78h-.14c-.63-1.84-1.82-5.35-2.49-7.1-.23-.34-.46-.48-1.15-.7l.16-.43,1.64,0c.49,0,1,0,1.53,0Z"/><path d="M256.67,510.09h3.74l-.1.43-.46.47c1,1.82,1.64,2.79,2.26,3.74h0c.76-1.19,1.28-2,2.22-3.71l-.53-.54.17-.39h3.24l-.13.43a3.9,3.9,0,0,0-1.93.88c-.43.6-1.11,1.5-2.71,3.94,1,1.75,2.44,4.2,3.08,5.17.21.34.34.47.59.54l1.75.54-.18.38-2.47,0-1.71,0,.11-.4.61-.45c-.27-.5-1.12-2-2.6-4.46h0c-.87,1.4-1.8,2.75-2.59,4.28l.84.63-.12.4-1.59,0-2.07,0,.13-.4,1.17-.41a1.56,1.56,0,0,0,.79-.61c.38-.49,1.53-2.09,3.1-4.56-1.14-2-1.95-3.36-2.69-4.52a.85.85,0,0,0-.66-.55l-1.46-.44Z"/><path d="M272.58,516.88h0c.43-.76.77-1.25,1-1.86a2.19,2.19,0,0,0,.15-.95h2.64l-.12.41a6,6,0,0,0-1.84.77c-.45.6-.81,1.07-1.57,2.2.56,1,1.55,2.68,1.88,3.17a1.26,1.26,0,0,0,.61.5l1.37.42-.17.41c-.54,0-1.9.09-2.57.09-.45-.86-.76-1.47-1.87-3.38h0c-.83,1.38-1,1.74-1.39,2.41a1.93,1.93,0,0,0,.49.52l-.12.38-1.34,0-1.51,0,.09-.4,1-.43a1.49,1.49,0,0,0,.72-.57c.52-.72.86-1.16,1.76-2.54-1.08-1.91-1.47-2.6-1.74-3a5.28,5.28,0,0,0-1.57-.61l.16-.39h2.78l-.11.7Z"/><path d="M281.38,510.09h3.37l-.11.39-.41.4c.34.7,1.26,2.3,2.84,5.06h.06c.93-1.69,2-3.73,2.62-5l-.59-.47.16-.43h3l-.17.43-.79.29a1.34,1.34,0,0,0-.95.65c-.76,1.13-1.95,3.16-2.85,4.84a1.35,1.35,0,0,0-.18.7c0,2.34,0,3.76.06,4l2.14.55-.14.4-2.76,0L284,522l.12-.38L286,521c0-.36.12-1.54.12-3.83a1.13,1.13,0,0,0-.16-.65c-.54-1-1.86-3.28-3-5.26a3,3,0,0,0-1.68-.81Z"/><path d="M297,514.05l1.22,0c.5,0,1,0,1.46,0l-.07.41a2.53,2.53,0,0,0-1.12.78c-.72,1.56-2,4.86-3.83,9.16-.13.54-.27,1.3-.44,2a1,1,0,0,1-.43.07,1.83,1.83,0,0,1-1.19-.51c.18-.32.9-1.26,1.48-2,.25-.51.72-1.48,1-2.17-.16-.3-1.77-4.79-2.49-6.5a1.93,1.93,0,0,0-1.26-.79l.16-.41c.51,0,1,0,1.54,0l1.63,0-.12.43-.61.43c.18.6.77,2.25,1.83,5.17h0c.79-2,1.58-4.11,1.92-5.17l-.86-.43Z"/><path d="M11.17,531.88c-.63.92-4.93,6.79-7.76,10.88v0c1.69,0,5.56.08,6.27.08.41-.62,1.24-1.93,1.63-2.4l.24,0c-.06.57-.38,2.62-.52,3.16-.58,0-4.87-.07-9.65-.07l-.11-.14c1.2-1.68,5.47-7.55,7.94-10.91l-.11,0c-1.89,0-4.21-.13-5.78-.13-.18.4-.65,1.59-.88,2.06l-.31.14c-.07-.59-.14-2.45-.16-2.95l.07-.07c.67.09,1,.16,1.23.19h7.88Z"/><path d="M18.91,535.85c-.92,1.54-3.49,5.32-4.61,7.07l0,0c1.46,0,3.29-.09,3.44-.14.57-.81.95-1.34,1.2-1.63l.26-.08a19.71,19.71,0,0,1-.4,2.55c-.88,0-2.07-.09-3.62-.09H12.39v-.14c1.44-2,3.17-4.65,4.81-7.1l0,0c-.29,0-1,0-3.22.09-.2.34-.65,1.19-.85,1.44l-.25.05a17.58,17.58,0,0,1-.11-2.28l.06-.06,1.22.16H18.8Z"/><path d="M32.36,537.68c0,4.67-2.15,6.11-3.91,6.11s-3.91-1.39-3.91-5.91c0-4.23,2.2-6.1,4-6.1C30.75,531.78,32.36,533.88,32.36,537.68Zm-6.38.11c0,2.48.78,5.38,2.52,5.38s2.43-2.26,2.43-5.38c0-2.12-.57-5.42-2.48-5.42S26,535.4,26,537.79Z"/><path d="M34.37,533.34l.2-.39c.21-.11,2-.65,3.26-1.17H38c0,1.45.11,10.39.12,10.89l2.35.5-.15.4-3,0-3,0,.15-.4,2.12-.5c.06-1,.18-4.16.18-9.38Z"/><path d="M43,542.63a1.4,1.4,0,0,0,.3-.23,26.82,26.82,0,0,0,3.32-3.73,5.49,5.49,0,0,0,1.2-3.35,2.42,2.42,0,0,0-2.44-2.7,3,3,0,0,0-1.48.38,13.59,13.59,0,0,1-.56,2.2l-.23.16a10.72,10.72,0,0,1-.76-1.78,5.39,5.39,0,0,1,3.67-1.8,3.14,3.14,0,0,1,3.26,3.35c0,1.6-.84,2.84-2.12,4.24-1,1.07-2.07,2.15-3,3.08v0c1,0,3.54-.11,4.52-.14a13.55,13.55,0,0,1,1-1.18l.41,0a17.79,17.79,0,0,1-.73,2.52c-.58,0-2.15-.09-3.8-.09H42.32v-.21Z"/><path d="M52.35,540.78a20.63,20.63,0,0,1,.51,2.11,3.16,3.16,0,0,0,1.24.21,2.79,2.79,0,0,0,3-2.79,2.44,2.44,0,0,0-2.43-2.56,17.31,17.31,0,0,1-1.8.35l-.07-.13a2.47,2.47,0,0,1,.74-1,9.93,9.93,0,0,1,1.13.07,2.43,2.43,0,0,0,1.93-2.4,2.06,2.06,0,0,0-2.22-2.16,2.8,2.8,0,0,0-1.46.4,11.18,11.18,0,0,1-.41,2l-.27.15a12.16,12.16,0,0,1-.77-1.73,5.31,5.31,0,0,1,3.4-1.53c2.43,0,3.13,1.58,3.13,2.66,0,1.6-1.24,2.34-2.5,2.85v.05c2.16.23,3.13,1.39,3.13,2.9,0,2.3-2.27,3.55-4.28,3.55a5,5,0,0,1-3.12-1,8.24,8.24,0,0,1,.83-1.88Z"/><path d="M65.89,542.67l1.73.52-.15.38-2.3,0-2.58,0,.15-.38,1.74-.52c0-.7.08-1.39.08-2.56l-4.65.06-.34-.56c1-1.8,4.48-7,4.88-7.37a3.93,3.93,0,0,1,1.38-.46l.06,7.63H67a7.16,7.16,0,0,1,1-1.21l.18,0c0,.4-.31,2.45-.39,2.77l-.26.11a4.87,4.87,0,0,1-.54-1.08l-1.08,0ZM64.7,533l0,0c-2,3.1-2.72,4.19-3.91,6.41.59,0,2,0,3.83.07Z"/><path d="M69.45,538c.4-2.42.78-5.24.9-6,1.37,0,3.73,0,4,0A5.24,5.24,0,0,0,76,531.6l.17.34a6.06,6.06,0,0,1-1.25,1,1.37,1.37,0,0,1-.68.17c-.63,0-2.41,0-3.28,0-.21,1.17-.45,2.54-.74,4.16l0,0a5.45,5.45,0,0,1,2.56-.72c2.73,0,3.44,1.87,3.44,3.15,0,2.79-2.51,4-4.4,4a5.15,5.15,0,0,1-2.79-.83,11.18,11.18,0,0,1,.78-2l.27-.13c.16.41.48,1.78.57,2.16a2.3,2.3,0,0,0,.88.13A3.06,3.06,0,0,0,74.78,540a2.4,2.4,0,0,0-2.61-2.59,5.07,5.07,0,0,0-2.45.76Z"/><path d="M84.88,532.14c-2.86.43-5.37,2.39-5.58,5.63l0,0a5.15,5.15,0,0,1,3-1.35,3.24,3.24,0,0,1,3.14,3.49,3.71,3.71,0,0,1-3.77,3.86c-2.43,0-3.92-1.95-3.92-4.87A7,7,0,0,1,79.62,534a7.9,7.9,0,0,1,5-2.36Zm-5.37,6.23c-.14.14-.25.36-.25.93,0,1.82.83,3.89,2.56,3.89s2.23-1.58,2.23-3c0-1.91-1.12-2.82-2.32-2.82A3.36,3.36,0,0,0,79.51,538.37Z"/><path d="M87.94,543.57a46.12,46.12,0,0,1,2.54-4.84,49.38,49.38,0,0,0,2.77-5.59c-.61,0-1.32,0-2.63,0s-2.27,0-2.86,0c-.06.15-.6,1.28-.7,1.44l-.31.15c-.07-.22-.11-2.51-.09-2.79l0-.06c.35.06.81.09,1,.11h3.38c1.23,0,2.29,0,3.1,0l0,.43c-.26,1.64-4.31,8.81-4.56,10.05l-.12,1.06-1.39.24Z"/><path d="M102.54,534.59c0,1.38-1.15,2.14-2.11,2.82v0a8.21,8.21,0,0,1,1.4.9,2.75,2.75,0,0,1,1.1,2.23,3.38,3.38,0,0,1-3.72,3.21c-2.25,0-3.55-1.48-3.55-2.94,0-1.22.57-1.89,2.41-3.11l0,0a7.39,7.39,0,0,1-1-.68,2.78,2.78,0,0,1-1-2.13,3.2,3.2,0,0,1,3.27-3.11A2.87,2.87,0,0,1,102.54,534.59Zm-.92,6.44a2,2,0,0,0-.69-1.6,8.12,8.12,0,0,0-2.3-1.42A3.07,3.07,0,0,0,97,540.62a2.42,2.42,0,0,0,2.41,2.57A2.09,2.09,0,0,0,101.62,541Zm-4.31-6.55a2.08,2.08,0,0,0,.83,1.67,9.51,9.51,0,0,0,1.73,1,3.07,3.07,0,0,0,1.46-2.54,2.11,2.11,0,0,0-2-2.27A2,2,0,0,0,97.31,534.48Z"/><path d="M104.93,543.37c.68-.16,4.73-1.1,5.42-5.27l0,0a4.44,4.44,0,0,1-2.59,1,3.31,3.31,0,0,1-3.31-3.44,3.77,3.77,0,0,1,3.74-3.83c2.9,0,3.75,2.81,3.75,4.75a7.25,7.25,0,0,1-6.74,7.33Zm.86-8a2.61,2.61,0,0,0,2.6,2.83,2.65,2.65,0,0,0,1.6-.5.91.91,0,0,0,.38-.54,7.16,7.16,0,0,0,0-.89c0-2.3-.9-3.87-2.36-3.87S105.78,533.88,105.79,535.32Z"/><path d="M3.88,392.63l-.72,2.07H.55l4.14-12H7.77l4.1,12H9.17l-.68-2.07Zm2.3-7-1.67,5H7.84Z"/><path d="M19.38,386.36h2.28v8.34H19.38v-1.15a3.43,3.43,0,0,1-2.9,1.44,4,4,0,0,1-4-4.36,4.26,4.26,0,0,1,4.2-4.56,3.28,3.28,0,0,1,2.72,1.35Zm-4.47,4.23a2.36,2.36,0,0,0,2.2,2.56,2.48,2.48,0,0,0,2.3-2.63,2.27,2.27,0,1,0-4.5.07Z"/><path d="M33.31,382.69a5.16,5.16,0,0,1,3.06.68,3.1,3.1,0,0,1,1.15,2.54,2.89,2.89,0,0,1-.75,2,2.75,2.75,0,0,1-1.27.73,2.68,2.68,0,0,1,1.43.64,2.85,2.85,0,0,1,.86,2.16,3.13,3.13,0,0,1-1.24,2.63,4.52,4.52,0,0,1-2.68.58H29.44v-12Zm-1.41,5.1h1c1.46,0,2.15-.53,2.15-1.64a1.46,1.46,0,0,0-.72-1.35,3.63,3.63,0,0,0-1.55-.24H31.9Zm0,5.09h1.21a2.57,2.57,0,0,0,1.6-.32,1.45,1.45,0,0,0,.6-1.28,1.47,1.47,0,0,0-.69-1.37,3,3,0,0,0-1.65-.29H31.9Z"/><path d="M41.89,394.7H39.61v-12h2.28v4.68a3.26,3.26,0,0,1,2.7-1.3,4.2,4.2,0,0,1,4.2,4.51c0,2.61-1.66,4.41-4.09,4.41a3.17,3.17,0,0,1-2.81-1.37Zm0-4.11a2.27,2.27,0,1,0,4.5,0A2.38,2.38,0,0,0,44.15,388,2.44,2.44,0,0,0,41.86,390.59Z"/><path d="M65.84,393.12a6,6,0,0,1-4.47,1.81,5.52,5.52,0,0,1-4.3-1.8,6.61,6.61,0,0,1-1.62-4.41c0-3.65,2.48-6.26,6-6.26a5.86,5.86,0,0,1,4.53,1.9L64.34,386a4,4,0,0,0-2.81-1.24A3.61,3.61,0,0,0,58,388.67a3.72,3.72,0,0,0,3.71,4,3.31,3.31,0,0,0,2.68-1.23Z"/><path d="M74.42,393.75a4.47,4.47,0,0,1-3.2,1.24,4.46,4.46,0,0,1,0-8.92,4.74,4.74,0,0,1,3.33,1.39L73,388.85a2.35,2.35,0,1,0-1.62,4.1,2.23,2.23,0,0,0,1.62-.7Z"/><path d="M81.29,382.69H84.7A6.1,6.1,0,0,1,89,384a5.87,5.87,0,0,1,1.89,4.54A6.28,6.28,0,0,1,89,393.31a6.07,6.07,0,0,1-4.16,1.39H81.29Zm2.47,10h.47a4,4,0,0,0,2.83-.83,4.14,4.14,0,0,0,1.35-3.21,3.6,3.6,0,0,0-3.75-3.94h-.9Z"/><path d="M99.1,382.69h2.28v12H99.1v-1.1A3.07,3.07,0,0,1,96.31,395a4,4,0,0,1-4.13-4.38,4.48,4.48,0,0,1,1.34-3.38,4.16,4.16,0,0,1,2.82-1.16,3.49,3.49,0,0,1,2.76,1.21Zm-4.49,7.94a2.26,2.26,0,1,0,4.49,0A2.36,2.36,0,0,0,96.88,388,2.39,2.39,0,0,0,94.61,390.63Z"/><path d="M111.21,387.66h4.21v2h-4.21v3h4.21v2h-6.68v-12h6.68v2h-4.21Z"/><path d="M119.2,391.08a2.23,2.23,0,0,0,4.11.79l2.1.58a4.41,4.41,0,0,1-4,2.54,4.35,4.35,0,0,1-4.54-4.47,4.25,4.25,0,0,1,4.4-4.45,4.35,4.35,0,0,1,4.52,4.56l0,.45Zm4.18-1.31a2,2,0,0,0-2.13-1.77,2,2,0,0,0-2,1.77Z"/><path d="M135.37,387.66h4.21v2h-4.21v5H132.9v-12h6.68v2h-4.21Z"/><path d="M143.63,394.7h-2.29v-6.41h-.92v-1.93h.92v-.47c0-2.23,1.1-3.27,3.39-3.2v2.11c-.8.09-1.1.39-1.1,1.09v.47h1.1v1.93h-1.1Z"/><path d="M163.61,388v.65a5.91,5.91,0,0,1-1.75,4.47,6.11,6.11,0,0,1-4.43,1.85,6.24,6.24,0,1,1,4.85-10.17l-1.86,1.46a3.59,3.59,0,0,0-2.95-1.5,3.79,3.79,0,0,0-3.71,4,3.84,3.84,0,0,0,3.76,4,3.54,3.54,0,0,0,2.69-1.21A3.39,3.39,0,0,0,161,390H157.6v-2Z"/><path d="M171.35,386.36h2.25v7.73c0,1.71-.32,2.7-1.12,3.47a4.8,4.8,0,0,1-3.45,1.26,5.56,5.56,0,0,1-4.09-1.65l1.42-1.44a3.3,3.3,0,0,0,2.58,1.15,2.22,2.22,0,0,0,2.41-2.47v-.85a3.56,3.56,0,0,1-2.94,1.43c-2.28,0-3.94-1.86-3.94-4.4,0-2.7,1.68-4.52,4.18-4.52a3.13,3.13,0,0,1,2.7,1.32Zm-4.45,4.13a2.28,2.28,0,0,0,4,1.69,2.35,2.35,0,0,0,.43-1.48,2.66,2.66,0,0,0-.61-1.94,2.3,2.3,0,0,0-1.57-.65A2.22,2.22,0,0,0,166.9,390.49Z"/><path d="M183.86,394.7h-2.47v-12h2.47v5.08h4.55v-5.08h2.47v12h-2.47v-4.92h-4.55Z"/><path d="M195.56,387.26a2.81,2.81,0,0,1,2.28-1.19,3,3,0,0,1,2,.78,2.88,2.88,0,0,1,.74,2.36v5.49h-2.29v-5.17c0-.93-.48-1.53-1.24-1.53a1.43,1.43,0,0,0-1,.42,1.5,1.5,0,0,0-.47,1.31v5h-2.29v-12h2.29Z"/><path d="M210.79,394.7h-2.47v-12h2.47Z"/><path d="M215.57,384a1.27,1.27,0,1,1-1.26-1.29A1.23,1.23,0,0,1,215.57,384Zm-.12,10.7h-2.29v-8.34h2.29Z"/><path d="M227.83,390.43c.06,3.24-1.49,4.54-5.29,4.45V392.7l.5,0a2.71,2.71,0,0,0,1.66-.45c.5-.42.66-1,.66-2.43v-5.13h-2.82v-2h5.29Z"/><path d="M232.31,395a3.63,3.63,0,0,1-.79,2.66,3.21,3.21,0,0,1-2.45.9h-.61v-2.09h.34c.77,0,1.23-.54,1.23-1.46v-8.61h2.28Zm.13-11a1.27,1.27,0,1,1-1.26-1.29A1.23,1.23,0,0,1,232.44,384Z"/><path d="M242.57,394.7H240.1v-12h2.47v5.22l3.41-5.22h2.86L245,388.47l3.89,6.23h-2.9l-3.37-5.35Z"/><path d="M252.4,394.7h-2.29v-12h2.29v6.88l2.32-3.21h2.65l-2.83,4,2.83,4.34h-2.65l-2.32-3.46Z"/><path d="M270.63,392.67v2h-6.48v-12h2.47v10Z"/><path d="M272.15,394.7v-12h2.28v12Z"/><path d="M284.69,394.7h-2.47v-12H285L288.6,390l3.6-7.29H295v12h-2.47v-7.49l-3.92,7.85-3.91-7.85Z"/><path d="M299.65,386.36v1.05a2.39,2.39,0,0,1,2.28-1.34,2.3,2.3,0,0,1,2.27,1.39,3,3,0,0,1,4.54-.61,3.11,3.11,0,0,1,.67,2.39v5.46h-2.29v-5c0-1.14-.41-1.68-1.28-1.68s-1.33.61-1.33,1.68v5h-2.29v-4.95c0-1.15-.43-1.75-1.26-1.75s-1.31.6-1.31,1.75v4.95h-2.29v-8.34Z"/><path d="M4.24,416.3H1.77v-12H4.2l5,7.49v-7.49h2.46v12H9.28l-5-7.6Z"/><path d="M16.35,408v1a2.39,2.39,0,0,1,2.27-1.32,3,3,0,0,1,2.05.78,3.24,3.24,0,0,1,.74,2.57v5.28H19.13v-5.17a1.76,1.76,0,0,0-.2-1,1.32,1.32,0,0,0-1.1-.56,1.49,1.49,0,0,0-1.48,1.64v5.06H14.06V408Z"/><path d="M39.43,406.07a6.25,6.25,0,1,1-10.87,4.29,6.26,6.26,0,0,1,10.87-4.29Zm-8.35,4.25a3.7,3.7,0,1,0,3.7-4A3.76,3.76,0,0,0,31.08,410.32Z"/><path d="M51.31,412.21a4.43,4.43,0,0,1-4.56,4.38,4.46,4.46,0,1,1,0-8.92A4.38,4.38,0,0,1,51.31,412.21Zm-6.77-.07a2.24,2.24,0,1,0,4.46,0,2.16,2.16,0,0,0-2.21-2.45A2.2,2.2,0,0,0,44.54,412.14Z"/><path d="M61,416.3H58.52v-12h3.84c2.84,0,4.45,1.39,4.45,3.83s-1.64,4.06-4.29,4.06H61Zm1.06-6.16c1.43,0,2.25-.68,2.25-1.89a1.92,1.92,0,0,0-2.19-1.93H61v3.82Z"/><path d="M70.6,408v1a3.09,3.09,0,0,1,2.74-1.32,4,4,0,0,1,2.32.69,4.3,4.3,0,0,1,1.89,3.8c0,2.66-1.65,4.43-4.16,4.43a3.44,3.44,0,0,1-2.79-1.19V420H68.32V408Zm0,4.27a2.25,2.25,0,0,0,2.22,2.52,2.6,2.6,0,0,0,.07-5.15A2.37,2.37,0,0,0,70.6,412.23Z"/><path d="M94.64,417l-1.08-1.29a6.21,6.21,0,0,1-9.33-5.33,6.18,6.18,0,0,1,6.26-6.31,6,6,0,0,1,6.14,6.15,6.39,6.39,0,0,1-1.38,4.08l1.13,1.23Zm-1-4.57a4.58,4.58,0,0,0,.52-2.18,3.71,3.71,0,1,0-3.78,4,2.45,2.45,0,0,0,1.48-.4l-.81-1,1.72-1.48Z"/><path d="M107.11,408V420h-2.29V415.4a3.47,3.47,0,0,1-2.83,1.19c-2.43,0-4.08-1.79-4.08-4.4a4.2,4.2,0,0,1,4.25-4.52,3,3,0,0,1,2.66,1.25v-1Zm-6.75,4.22a2.34,2.34,0,0,0,2.21,2.57,2.37,2.37,0,0,0,2.27-2.56,2.26,2.26,0,1,0-4.48,0Z"/><path d="M117.37,416.3H114.9v-12h3.71c3,0,4.57,1.31,4.57,3.78a3.46,3.46,0,0,1-2.84,3.62l3.31,4.61h-3l-3.29-4.77Zm1.11-6.21c1.41,0,2.2-.69,2.2-1.89a1.79,1.79,0,0,0-2-1.88h-1.33v3.77Z"/><path d="M127.57,408v1.23a2.1,2.1,0,0,1,.74-1.12,2.41,2.41,0,0,1,1.35-.4,1.53,1.53,0,0,1,.27,0V410l-.48,0a1.88,1.88,0,0,0-1.54.75,2.39,2.39,0,0,0-.34,1.53v4h-2.28V408Z"/><path d="M138.5,412.79V413a1.49,1.49,0,0,0,1.64,1.4,1.42,1.42,0,0,0,1.58-1.27,1.2,1.2,0,0,0-.49-1,4.85,4.85,0,0,0-1.45-.66c-2.63-.94-3.57-1.93-3.57-3.77,0-2.18,1.6-3.64,4-3.64a3.75,3.75,0,0,1,4.05,3.68h-2.48a1.42,1.42,0,0,0-1.57-1.5,1.3,1.3,0,0,0-1.47,1.26,1.26,1.26,0,0,0,.73,1.14,8.67,8.67,0,0,0,1.41.59,6.88,6.88,0,0,1,2.5,1.33,3.14,3.14,0,0,1,1,2.33c0,2.19-1.66,3.65-4.15,3.65s-4.06-1.44-4.05-3.74Z"/><path d="M149.62,410.38v-.15a.94.94,0,0,0-1.06-.86c-.56,0-.92.3-.92.75a.67.67,0,0,0,.24.54c.25.2.27.2,1.42.56,1.87.58,2.61,1.32,2.61,2.67,0,1.62-1.3,2.7-3.24,2.7s-3.19-1-3.28-2.74h2.2c.11.72.43,1,1.1,1a.81.81,0,0,0,.91-.79c0-.5-.32-.74-1.54-1.11-1.8-.54-2.61-1.35-2.61-2.67,0-1.58,1.27-2.65,3.22-2.65s3.06,1,3.11,2.71Z"/><path d="M163.25,416.3h-2.47v-10h-2.86v-2h8.17v2h-2.84Z"/><path d="M169.69,413.85c0,.4.15.5.65.54h.4v1.91h-1.82c-1.12,0-1.53-.49-1.52-1.59v-4.86h-1v-1.92h1v-2.24h2.29v2.24h1.05v1.92h-1.05Z"/><path d="M180.19,411.33a3.16,3.16,0,0,0,.54,2.2,2.16,2.16,0,0,0,1.67.73,2.19,2.19,0,0,0,1.75-.82,3.24,3.24,0,0,0,.47-2.13v-7h2.48v6.95a5.51,5.51,0,0,1-1.19,3.89,4.61,4.61,0,0,1-3.47,1.4A4.85,4.85,0,0,1,178.8,415a5.25,5.25,0,0,1-1.08-3.8v-6.95h2.47Z"/><path d="M196.44,408v5.28a2.82,2.82,0,0,1-.94,2.48,4.66,4.66,0,0,1-5.49-.05,3.1,3.1,0,0,1-.88-2.43V408h2.29v5.13a1.41,1.41,0,0,0,1.38,1.57,1.28,1.28,0,0,0,1.35-1.42V408Z"/><path d="M210.35,404.29h2.54l-3.78,12h-2.63l-3.63-12h2.54l2.43,8Z"/><path d="M221.3,408l-3,8.34H215.9l-3-8.34h2.38l1.83,5,1.86-5Z"/><path d="M239.5,404.29h2.57l-3.35,12h-2.48l-1.89-7.87-1.89,7.87H230l-3.27-12h2.61l1.92,7.58,2-7.58h2.45L237.5,412Z"/><path d="M255.21,408l-2.72,8.34h-2.37l-1.46-5.11-1.5,5.11h-2.43L242.05,408h2.32l1.68,5.08,1.46-5.08h2.19l1.5,5.08,1.69-5.08Z"/><path d="M263.51,416.3h-2.85l3.78-6.34-3.36-5.67h2.84l1.93,3.44,2-3.44h2.81L267.25,410,271,416.3h-2.81l-2.32-4.18Z"/><path d="M273.91,416.3h-2.7l2.9-4.14L271,408h2.88l1.53,2.22,1.48-2.22h2.79l-3,4.2,2.91,4.14h-2.77L275.44,414Z"/><path d="M291.37,416.3H288.9V411l-4-6.71h2.93l2.33,4.16,2.28-4.16h2.88L291.37,411Z"/><path d="M301.15,408h2.42l-4.69,12.14h-2.45l1.56-4L295.08,408h2.43l1.69,5Z"/><path d="M9.68,435.88v2H.74l5.62-10h-5v-2h8.84l-5.6,10Z"/><path d="M17.52,436v1.93H10.7l3.49-6.41H11v-1.93h6.76L14.3,436Z"/><path d="M31.65,434.26a3.64,3.64,0,0,1-1,2.92,3.81,3.81,0,0,1-2.73.95,4,4,0,0,1-2.88-1c-.67-.67-.9-1.54-.9-3.41v-3.83a4.22,4.22,0,0,1,.81-3.06,3.82,3.82,0,0,1,2.89-1.12,3.94,3.94,0,0,1,2.72.94,3.46,3.46,0,0,1,1.08,3ZM26.47,434c0,1,0,1.17.25,1.46a1.45,1.45,0,0,0,1.21.58,1.42,1.42,0,0,0,1.2-.61,2.68,2.68,0,0,0,.26-1.44v-4.18a2,2,0,0,0-.37-1.46,1.41,1.41,0,0,0-1.09-.45,1.36,1.36,0,0,0-1.21.59,2.68,2.68,0,0,0-.25,1.43Z"/><path d="M34.46,430.12V428l4.5-2.34V437.9H36.64V429Z"/><path d="M49.2,435.87v2H41.91l4.2-6.41c.91-1.4,1.09-1.78,1.09-2.36a1.33,1.33,0,0,0-1.42-1.33,1.37,1.37,0,0,0-1.35.84,3.14,3.14,0,0,0-.18,1.16H42.13c0-2.54,1.42-4.09,3.8-4.09,2.1,0,3.6,1.33,3.6,3.19a6.46,6.46,0,0,1-1.48,3.67l-2.25,3.3Z"/><path d="M51.45,427.94v-2h7.31l-3.33,4.49a3.39,3.39,0,0,1,3.21,3.61,3.92,3.92,0,0,1-4,4.07,3.71,3.71,0,0,1-3.17-1.58,3.88,3.88,0,0,1-.61-1.91l2.07-.07a1.61,1.61,0,0,0,1.65,1.49,1.81,1.81,0,0,0,1.84-1.83,1.78,1.78,0,0,0-1.85-1.84,1.91,1.91,0,0,0-1.1.31l-1.3-1.1,2.74-3.66Z"/><path d="M60,435.43v-1.92l4.21-7.66h2.41v7.6h1.1v2h-1.1v2.47H64.45v-2.47ZM64.45,429l-2.52,4.46h2.52Z"/><path d="M71.77,430.63a3.43,3.43,0,0,1,1.48-.33,3.55,3.55,0,0,1,3.49,3.76,4,4,0,0,1-6.71,3,4.19,4.19,0,0,1-1-1.65l2-.76A1.71,1.71,0,0,0,72.73,436a1.85,1.85,0,1,0-1.55-2.89H69.67V426h6.12v2.09h-4Z"/><path d="M81.85,430.7a1.89,1.89,0,0,1,.63-.11,3.43,3.43,0,0,1,3.33,3.55,4,4,0,0,1-4,4A3.76,3.76,0,0,1,78,434.28a6.52,6.52,0,0,1,1.31-3.6l3-4.72h2.63Zm-1.67,3.54A1.68,1.68,0,0,0,81.89,436a1.73,1.73,0,0,0,1.75-1.73,1.69,1.69,0,0,0-1.7-1.74A1.73,1.73,0,0,0,80.18,434.24Z"/><path d="M87.67,428.05V426h7.09L90,437.9H87.65l3.89-9.85Z"/><path d="M103.8,434.42a3.66,3.66,0,0,1-3.93,3.71A3.55,3.55,0,0,1,96,434.55a2.87,2.87,0,0,1,1.78-2.93,2.6,2.6,0,0,1-1.42-2.49,3.37,3.37,0,0,1,3.6-3.42,3.32,3.32,0,0,1,3.53,3.35,3.07,3.07,0,0,1-.51,1.75,2.13,2.13,0,0,1-.93.81A2.79,2.79,0,0,1,103.8,434.42Zm-5.57,0a1.62,1.62,0,0,0,1.68,1.66,1.65,1.65,0,0,0,1.65-1.66,1.67,1.67,0,0,0-1.63-1.68A1.66,1.66,0,0,0,98.23,434.39Zm.24-5.26a1.48,1.48,0,0,0,1.47,1.51,1.48,1.48,0,1,0,0-2.95A1.42,1.42,0,0,0,98.47,429.13Z"/><path d="M109,433.18a2.08,2.08,0,0,1-.54.07,3.45,3.45,0,0,1-3.48-3.58,3.9,3.9,0,0,1,4-4,3.77,3.77,0,0,1,3.85,3.89,6.58,6.58,0,0,1-1.29,3.6l-3,4.7H106Zm-1.8-3.62a1.71,1.71,0,1,0,3.42,0,1.71,1.71,0,1,0-3.42,0Z"/><path class="cls-1" d="M5.19,14.52l-1,2.88H.56L6.31.73h4.27l5.7,16.67H12.53l-.95-2.88Zm3.19-9.7-2.32,6.9h4.62Z"/><path class="cls-1" d="M23.08,14.52l-1,2.88H18.46L24.21.73h4.27l5.7,16.67H30.43l-.95-2.88Zm3.2-9.7L24,11.72h4.62Z"/><path class="cls-1" d="M51.33.73c2.05,0,3.38.3,4.25,1a4.27,4.27,0,0,1,1.6,3.52,4,4,0,0,1-1,2.85,3.78,3.78,0,0,1-1.75,1,3.7,3.7,0,0,1,2,.9,3.9,3.9,0,0,1,1.2,3,4.34,4.34,0,0,1-1.73,3.65,6.36,6.36,0,0,1-3.72.8H46V.73ZM49.38,7.8h1.38c2,0,3-.73,3-2.28a2,2,0,0,0-1-1.87,5.1,5.1,0,0,0-2.15-.33h-1.2Zm0,7.07h1.68a3.55,3.55,0,0,0,2.22-.45,2,2,0,0,0,.83-1.77,2,2,0,0,0-1-1.9,4.23,4.23,0,0,0-2.3-.4H49.38Z"/><path class="cls-1" d="M66.88.73c2.05,0,3.38.3,4.25,1a4.27,4.27,0,0,1,1.6,3.52,4,4,0,0,1-1,2.85,3.78,3.78,0,0,1-1.75,1,3.7,3.7,0,0,1,2,.9,3.9,3.9,0,0,1,1.2,3,4.34,4.34,0,0,1-1.73,3.65,6.36,6.36,0,0,1-3.72.8H61.51V.73ZM64.93,7.8h1.38c2,0,3-.73,3-2.28a2,2,0,0,0-1-1.87,5.1,5.1,0,0,0-2.15-.33h-1.2Zm0,7.07h1.68a3.55,3.55,0,0,0,2.22-.45,2,2,0,0,0,.83-1.77,2,2,0,0,0-1-1.9,4.23,4.23,0,0,0-2.3-.4H64.93Z"/><path class="cls-1" d="M99.41,15.2a8.33,8.33,0,0,1-6.2,2.52,7.69,7.69,0,0,1-6-2.5A9.24,9.24,0,0,1,85,9.1C85,4,88.43.4,93.26.4a8.13,8.13,0,0,1,6.3,2.65L97.33,5.3a5.48,5.48,0,0,0-3.9-1.73c-2.92,0-5,2.25-5,5.45s2.15,5.53,5.15,5.53a4.62,4.62,0,0,0,3.72-1.7Z"/><path class="cls-1" d="M116.11,15.2a8.33,8.33,0,0,1-6.2,2.52,7.69,7.69,0,0,1-6-2.5,9.24,9.24,0,0,1-2.25-6.12C101.68,4,105.13.4,110,.4a8.13,8.13,0,0,1,6.3,2.65L114,5.3a5.48,5.48,0,0,0-3.9-1.73c-2.92,0-5,2.25-5,5.45s2.15,5.53,5.15,5.53a4.62,4.62,0,0,0,3.72-1.7Z"/><path class="cls-1" d="M128.38.73h4.73c2.7,0,4.52.55,6,1.84a8.12,8.12,0,0,1,2.62,6.3,8.75,8.75,0,0,1-2.65,6.6,8.4,8.4,0,0,1-5.77,1.93h-4.93Zm3.43,13.84h.65a5.51,5.51,0,0,0,3.92-1.15A5.7,5.7,0,0,0,138.26,9c0-3.32-2-5.47-5.2-5.47h-1.25Z"/><path class="cls-1" d="M145.66.73h4.72c2.7,0,4.53.55,6,1.84A8.12,8.12,0,0,1,159,8.87a8.74,8.74,0,0,1-2.64,6.6,8.45,8.45,0,0,1-5.78,1.93h-4.92Zm3.42,13.84h.65a5.54,5.54,0,0,0,3.93-1.15A5.7,5.7,0,0,0,155.53,9c0-3.32-2-5.47-5.2-5.47h-1.25Z"/><path class="cls-1" d="M174.53,7.62h5.85v2.8h-5.85V14.6h5.85v2.8h-9.27V.73h9.27V3.52h-5.85Z"/><path class="cls-1" d="M187.36,7.62h5.85v2.8h-5.85V14.6h5.85v2.8h-9.28V.73h9.28V3.52h-5.85Z"/><path class="cls-1" d="M209.51,7.62h5.84v2.8h-5.84v7h-3.43V.73h9.27V3.52h-5.84Z"/><path class="cls-1" d="M222.43,7.62h5.85v2.8h-5.85v7H219V.73h9.27V3.52h-5.85Z"/><path class="cls-1" d="M257,8.05V9a8.23,8.23,0,0,1-2.42,6.2,8.57,8.57,0,0,1-6.15,2.57,8.39,8.39,0,0,1-8.57-8.62,8.6,8.6,0,0,1,15.29-5.5l-2.57,2a5,5,0,0,0-4.1-2.07,5.26,5.26,0,0,0-5.15,5.55,5.32,5.32,0,0,0,5.22,5.52A4.93,4.93,0,0,0,252.28,13a4.69,4.69,0,0,0,1-2.1h-4.65V8.05Z"/><path class="cls-1" d="M277.05,8.05V9a8.23,8.23,0,0,1-2.42,6.2,8.57,8.57,0,0,1-6.15,2.57A8.4,8.4,0,0,1,259.9,9.1a8.6,8.6,0,0,1,15.3-5.5l-2.57,2a5,5,0,0,0-4.1-2.07,5.26,5.26,0,0,0-5.15,5.55,5.32,5.32,0,0,0,5.22,5.52A4.93,4.93,0,0,0,272.33,13a4.69,4.69,0,0,0,1-2.1H268.7V8.05Z"/><path class="cls-1" d="M293,17.4h-3.42V.73H293v7h6.33v-7h3.42V17.4h-3.42V10.57H293Z"/><path class="cls-1" d="M310.88,17.4h-3.42V.73h3.42v7h6.32v-7h3.43V17.4H317.2V10.57h-6.32Z"/><path class="cls-1" d="M5.69,47.4H2.26V30.73H5.69Z"/><path class="cls-1" d="M13.83,47.4H10.41V30.73h3.42Z"/><path class="cls-1" d="M33.68,41.47c.08,4.5-2.07,6.3-7.35,6.18v-3a6.58,6.58,0,0,0,.7,0,3.75,3.75,0,0,0,2.3-.63c.7-.57.93-1.35.93-3.37V33.52H26.33V30.73h7.35Z"/><path class="cls-1" d="M44.53,41.47c.08,4.5-2.07,6.3-7.35,6.18v-3a6.58,6.58,0,0,0,.7,0,3.75,3.75,0,0,0,2.3-.63c.7-.57.93-1.35.93-3.37V33.52H37.18V30.73h7.35Z"/><path class="cls-1" d="M61.18,47.4H57.76V30.73h3.42V38l4.73-7.24h4l-5.4,8,5.4,8.65h-4L61.18,40Z"/><path class="cls-1" d="M76.51,47.4H73.08V30.73h3.43V38l4.72-7.24h4l-5.39,8L85.2,47.4h-4L76.51,40Z"/><path class="cls-1" d="M106.15,44.57V47.4h-9V30.73h3.42V44.57Z"/><path class="cls-1" d="M118.68,44.57V47.4h-9V30.73h3.43V44.57Z"/><path class="cls-1" d="M134.38,47.4H131V30.73h3.87l5,10.12,5-10.12h3.88V47.4h-3.43V37L139.8,47.9,134.38,37Z"/><path class="cls-1" d="M156.83,47.4h-3.42V30.73h3.87l5,10.12,5-10.12h3.88V47.4H167.7V37l-5.45,10.9L156.83,37Z"/><path class="cls-1" d="M5.69,77.4H2.26V60.73H5.64l7,10.39V60.73H16V77.4H12.68l-7-10.55Z"/><path class="cls-1" d="M24.18,77.4H20.76V60.73h3.37l7,10.39V60.73h3.42V77.4H31.18l-7-10.55Z"/><path class="cls-1" d="M62.28,63.2a8.68,8.68,0,1,1-15.1,6,8.7,8.7,0,0,1,15.1-6Zm-11.6,5.9a5.13,5.13,0,1,0,10.25.07c0-3.22-2.15-5.6-5.1-5.6A5.21,5.21,0,0,0,50.68,69.1Z"/><path class="cls-1" d="M82.63,63.2a8.68,8.68,0,1,1-15.1,6,8.7,8.7,0,0,1,15.1-6ZM71,69.1a5.13,5.13,0,1,0,10.25.07c0-3.22-2.15-5.6-5.1-5.6A5.21,5.21,0,0,0,71,69.1Z"/><path class="cls-1" d="M100.88,77.4H97.46V60.73h5.32c4,0,6.18,1.92,6.18,5.32s-2.28,5.62-5.95,5.62h-2.13Zm1.48-8.55c2,0,3.12-.95,3.12-2.63s-1.17-2.67-3-2.67h-1.55v5.3Z"/><path class="cls-1" d="M115.91,77.4h-3.43V60.73h5.33c4,0,6.17,1.92,6.17,5.32s-2.27,5.62-6,5.62h-2.12Zm1.47-8.55c2,0,3.13-.95,3.13-2.63s-1.18-2.67-3.05-2.67h-1.55v5.3Z"/><path class="cls-1" d="M149.9,78.35l-1.5-1.8A8.3,8.3,0,0,1,144,77.72a8.66,8.66,0,0,1,.12-17.32,8.35,8.35,0,0,1,8.53,8.52,8.9,8.9,0,0,1-1.93,5.68l1.58,1.7ZM148.48,72a6.36,6.36,0,0,0,.72-3A5.15,5.15,0,1,0,144,74.55a3.37,3.37,0,0,0,2-.55l-1.12-1.33,2.4-2Z"/><path class="cls-1" d="M170.28,78.35l-1.5-1.8a8.34,8.34,0,0,1-4.38,1.17,8.66,8.66,0,0,1,.13-17.32,8.34,8.34,0,0,1,8.52,8.52,8.94,8.94,0,0,1-1.92,5.68l1.57,1.7ZM168.85,72a6.37,6.37,0,0,0,.73-3,5.15,5.15,0,1,0-5.25,5.58,3.41,3.41,0,0,0,2-.55l-1.12-1.33,2.39-2Z"/><path class="cls-1" d="M189.18,77.4h-3.42V60.73h5.15c4.12,0,6.34,1.82,6.34,5.24a4.8,4.8,0,0,1-3.94,5l4.59,6.4h-4.15l-4.57-6.63Zm1.55-8.63c2,0,3.05-1,3.05-2.62a2.48,2.48,0,0,0-2.75-2.6h-1.85v5.22Z"/><path class="cls-1" d="M205,77.4h-3.42V60.73h5.15c4.12,0,6.34,1.82,6.34,5.24a4.8,4.8,0,0,1-3.95,5l4.6,6.4H209.6L205,70.77Zm1.55-8.63c1.95,0,3-1,3-2.62a2.48,2.48,0,0,0-2.75-2.6H205v5.22Z"/><path class="cls-1" d="M228.56,72.52v.23a2.07,2.07,0,0,0,2.27,2,2,2,0,0,0,2.2-1.78,1.64,1.64,0,0,0-.68-1.32,6.56,6.56,0,0,0-2-.93c-3.65-1.3-5-2.67-5-5.22,0-3,2.23-5.05,5.5-5.05a5.21,5.21,0,0,1,5.62,5.1h-3.44a2,2,0,0,0-2.18-2.08,1.82,1.82,0,0,0-2,1.75,1.75,1.75,0,0,0,1,1.58,11.66,11.66,0,0,0,1.95.82,9.42,9.42,0,0,1,3.47,1.85,4.34,4.34,0,0,1,1.32,3.23c0,3-2.29,5.07-5.74,5.07s-5.65-2-5.63-5.2Z"/><path class="cls-1" d="M243.16,72.52v.23a2.07,2.07,0,0,0,2.27,2,2,2,0,0,0,2.2-1.78A1.64,1.64,0,0,0,247,71.6a6.56,6.56,0,0,0-2-.93c-3.65-1.3-5-2.67-5-5.22,0-3,2.23-5.05,5.5-5.05a5.21,5.21,0,0,1,5.62,5.1h-3.45a2,2,0,0,0-2.17-2.08,1.82,1.82,0,0,0-2,1.75,1.75,1.75,0,0,0,1,1.58,11.41,11.41,0,0,0,1.94.82,9.48,9.48,0,0,1,3.48,1.85,4.34,4.34,0,0,1,1.32,3.23c0,3-2.3,5.07-5.74,5.07s-5.65-2-5.63-5.2Z"/><path class="cls-1" d="M269.56,77.4h-3.43V63.52h-4V60.73H273.5v2.79h-3.94Z"/><path class="cls-1" d="M283.15,77.4h-3.42V63.52h-4V60.73H287.1v2.79h-4Z"/><path class="cls-1" d="M302.1,70.5a4.45,4.45,0,0,0,.75,3,3.15,3.15,0,0,0,4.75-.13,4.47,4.47,0,0,0,.65-3V60.73h3.45v9.64c0,2.45-.52,4.15-1.65,5.4a6.4,6.4,0,0,1-4.82,2,6.71,6.71,0,0,1-5.05-2.07c-1.07-1.2-1.5-2.7-1.5-5.28V60.73h3.42Z"/><path class="cls-1" d="M319.33,70.5a4.4,4.4,0,0,0,.75,3,3.15,3.15,0,0,0,4.75-.13,4.47,4.47,0,0,0,.65-3V60.73h3.45v9.64c0,2.45-.53,4.15-1.65,5.4a6.43,6.43,0,0,1-4.83,2,6.73,6.73,0,0,1-5.05-2.07c-1.07-1.2-1.5-2.7-1.5-5.28V60.73h3.43Z"/><path class="cls-1" d="M11,90.73h3.53L9.26,107.4H5.61L.56,90.73H4.09L7.46,101.9Z"/><path class="cls-1" d="M26.28,90.73h3.53L24.56,107.4H20.91L15.86,90.73h3.53l3.37,11.17Z"/><path class="cls-1" d="M57.68,90.73h3.57L56.61,107.4H53.16L50.53,96.47,47.91,107.4H44.46L39.91,90.73h3.62l2.68,10.52,2.7-10.52h3.4l2.6,10.69Z"/><path class="cls-1" d="M81.21,90.73h3.57L80.13,107.4H76.68L74.06,96.47,71.43,107.4H68L63.44,90.73h3.62l2.67,10.52,2.7-10.52h3.4l2.6,10.69Z"/><path class="cls-1" d="M98.86,107.4h-4l5.25-8.8-4.68-7.87h4l2.68,4.77,2.75-4.77h3.9l-4.7,7.87,5.17,8.8h-3.9l-3.22-5.8Z"/><path class="cls-1" d="M114.63,107.4h-3.95l5.25-8.8-4.67-7.87h3.95l2.67,4.77,2.75-4.77h3.9l-4.7,7.87,5.18,8.8h-3.9l-3.23-5.8Z"/><path class="cls-1" d="M143.83,107.4h-3.42v-7.35l-5.58-9.32h4.08l3.22,5.77,3.18-5.77h4l-5.48,9.32Z"/><path class="cls-1" d="M159,107.4h-3.43v-7.35L150,90.73h4.07l3.23,5.77,3.17-5.77h4L159,100.05Z"/><path class="cls-1" d="M13.23,134.6v2.8H.84l7.79-13.88H1.71v-2.79H14L6.21,134.6Z"/><path class="cls-1" d="M28.48,134.6v2.8H16.09l7.79-13.88H17v-2.79H29.23L21.46,134.6Z"/><path class="cls-1" d="M51,132.35a5.11,5.11,0,0,1-1.37,4.05,5.35,5.35,0,0,1-3.8,1.32,5.58,5.58,0,0,1-4-1.4c-.92-.92-1.25-2.12-1.25-4.72v-5.33c0-2.15.33-3.37,1.12-4.24a5.33,5.33,0,0,1,4-1.55,5.53,5.53,0,0,1,3.77,1.3c1.08.94,1.5,2.09,1.5,4.09Zm-7.2-.4c0,1.32,0,1.62.35,2a2,2,0,0,0,1.68.8,1.93,1.93,0,0,0,1.67-.85,3.7,3.7,0,0,0,.35-2v-5.8c0-1.12-.12-1.6-.5-2a2,2,0,0,0-1.52-.63,1.85,1.85,0,0,0-1.68.83,3.64,3.64,0,0,0-.35,2Z"/><path class="cls-1" d="M56.13,126.6v-3l6.25-3.24v17H59.16V125Z"/><path class="cls-1" d="M77.86,134.57v2.83H67.73l5.83-8.9c1.27-2,1.52-2.48,1.52-3.28a1.85,1.85,0,0,0-2-1.85,1.91,1.91,0,0,0-1.88,1.18,4.28,4.28,0,0,0-.25,1.6H68c0-3.53,2-5.67,5.27-5.67,2.92,0,5,1.84,5,4.42,0,1.52-.58,2.92-2,5.1l-3.13,4.57Z"/><path class="cls-1" d="M82.23,123.57v-2.75H92.38l-4.62,6.23a4.71,4.71,0,0,1,4.45,5,5.44,5.44,0,0,1-5.55,5.65,5.14,5.14,0,0,1-4.4-2.2,5.35,5.35,0,0,1-.85-2.65l2.87-.1a2.25,2.25,0,0,0,2.3,2.08,2.51,2.51,0,0,0,2.55-2.55,2.47,2.47,0,0,0-2.57-2.55,2.72,2.72,0,0,0-1.53.42l-1.8-1.52,3.8-5.08Z"/><path class="cls-1" d="M95.41,134V131.3l5.85-10.62h3.35v10.54h1.52V134h-1.52v3.43h-3.08V134Zm6.12-9-3.5,6.2h3.5Z"/><path class="cls-1" d="M113,127.3a4.73,4.73,0,0,1,2.05-.45,4.93,4.93,0,0,1,4.85,5.22,5.54,5.54,0,0,1-9.33,4.15,5.76,5.76,0,0,1-1.37-2.3l2.8-1a2.36,2.36,0,0,0,2.32,1.83,2.46,2.46,0,0,0,2.45-2.55,2.51,2.51,0,0,0-4.6-1.45H110v-9.88h8.5v2.9H113Z"/><path class="cls-1" d="M128.21,127.4a2.43,2.43,0,0,1,.87-.15,4.77,4.77,0,0,1,4.63,4.92,5.54,5.54,0,0,1-5.55,5.55,5.22,5.22,0,0,1-5.3-5.35c0-1.52.5-2.9,1.82-5l4.15-6.55h3.65Zm-2.33,4.92a2.33,2.33,0,0,0,2.38,2.4,2.4,2.4,0,0,0,2.42-2.4,2.34,2.34,0,0,0-2.35-2.42A2.42,2.42,0,0,0,125.88,132.32Z"/><path class="cls-1" d="M137.53,123.72v-2.9h9.85l-6.55,16.58h-3.32l5.4-13.68Z"/><path class="cls-1" d="M161.18,132.57c0,3-2.25,5.15-5.45,5.15s-5.34-2-5.34-5a4,4,0,0,1,2.47-4.08,3.59,3.59,0,0,1-2-3.45,4.68,4.68,0,0,1,5-4.74,4.61,4.61,0,0,1,4.9,4.64,4.29,4.29,0,0,1-.7,2.43,2.83,2.83,0,0,1-1.3,1.12A3.88,3.88,0,0,1,161.18,132.57Zm-7.72,0a2.23,2.23,0,0,0,2.32,2.3,2.29,2.29,0,0,0,2.3-2.3,2.32,2.32,0,0,0-2.27-2.32A2.29,2.29,0,0,0,153.46,132.52Zm.32-7.3a2.05,2.05,0,0,0,2.05,2.1,2.05,2.05,0,1,0,0-4.1A2,2,0,0,0,153.78,125.22Z"/><path class="cls-1" d="M169.68,130.85a3.52,3.52,0,0,1-.75.1,4.8,4.8,0,0,1-4.82-5,5.41,5.41,0,0,1,5.52-5.49,5.22,5.22,0,0,1,5.35,5.39,9.12,9.12,0,0,1-1.8,5l-4.1,6.53h-3.6Zm-2.5-5a2.38,2.38,0,1,0,2.43-2.37A2.39,2.39,0,0,0,167.18,125.82Z"/><path class="cls-2" d="M5.19,206.58l-1,2.87H.56l5.75-16.67h4.27l5.7,16.67H12.53l-.95-2.87Zm3.19-9.7-2.32,6.9h4.62Z"/><path class="cls-2" d="M23.08,206.58l-1,2.87H18.46l5.75-16.67h4.27l5.7,16.67H30.43l-.95-2.87Zm3.2-9.7L24,203.78h4.62Z"/><path class="cls-2" d="M51.33,192.78c2.05,0,3.38.3,4.25.95a4.28,4.28,0,0,1,1.6,3.52,4,4,0,0,1-1,2.85,3.69,3.69,0,0,1-1.75,1,3.85,3.85,0,0,1,2,.9,3.92,3.92,0,0,1,1.2,3,4.32,4.32,0,0,1-1.73,3.65,6.29,6.29,0,0,1-3.72.8H46V192.78Zm-1.95,7.07h1.38c2,0,3-.72,3-2.27a2.06,2.06,0,0,0-1-1.88,5.3,5.3,0,0,0-2.15-.32h-1.2Zm0,7.08h1.68a3.55,3.55,0,0,0,2.22-.45,2,2,0,0,0,.83-1.78,2.05,2.05,0,0,0-1-1.9,4.23,4.23,0,0,0-2.3-.4H49.38Z"/><path class="cls-2" d="M66.88,192.78c2.05,0,3.38.3,4.25.95a4.28,4.28,0,0,1,1.6,3.52,4,4,0,0,1-1,2.85,3.69,3.69,0,0,1-1.75,1,3.85,3.85,0,0,1,2,.9,3.92,3.92,0,0,1,1.2,3,4.32,4.32,0,0,1-1.73,3.65,6.29,6.29,0,0,1-3.72.8H61.51V192.78Zm-1.95,7.07h1.38c2,0,3-.72,3-2.27a2.06,2.06,0,0,0-1-1.88,5.3,5.3,0,0,0-2.15-.32h-1.2Zm0,7.08h1.68a3.55,3.55,0,0,0,2.22-.45,2,2,0,0,0,.83-1.78,2.05,2.05,0,0,0-1-1.9,4.23,4.23,0,0,0-2.3-.4H64.93Z"/><path class="cls-2" d="M99.41,207.25a8.34,8.34,0,0,1-6.2,2.53,7.69,7.69,0,0,1-6-2.5A9.28,9.28,0,0,1,85,201.15c0-5.07,3.45-8.69,8.28-8.69a8.15,8.15,0,0,1,6.3,2.64l-2.23,2.25a5.51,5.51,0,0,0-3.9-1.72c-2.92,0-5,2.25-5,5.45s2.15,5.52,5.15,5.52a4.59,4.59,0,0,0,3.72-1.7Z"/><path class="cls-2" d="M116.11,207.25a8.34,8.34,0,0,1-6.2,2.53,7.69,7.69,0,0,1-6-2.5,9.28,9.28,0,0,1-2.25-6.13c0-5.07,3.45-8.69,8.28-8.69a8.15,8.15,0,0,1,6.3,2.64L114,197.35a5.51,5.51,0,0,0-3.9-1.72c-2.92,0-5,2.25-5,5.45s2.15,5.52,5.15,5.52a4.59,4.59,0,0,0,3.72-1.7Z"/><path class="cls-2" d="M128.38,192.78h4.73c2.7,0,4.52.55,6,1.85a8.11,8.11,0,0,1,2.62,6.3,8.78,8.78,0,0,1-2.65,6.6,8.4,8.4,0,0,1-5.77,1.92h-4.93Zm3.43,13.85h.65a5.56,5.56,0,0,0,3.92-1.15,5.72,5.72,0,0,0,1.88-4.45c0-3.33-2-5.48-5.2-5.48h-1.25Z"/><path class="cls-2" d="M145.66,192.78h4.72c2.7,0,4.53.55,6,1.85a8.11,8.11,0,0,1,2.62,6.3,8.77,8.77,0,0,1-2.64,6.6,8.45,8.45,0,0,1-5.78,1.92h-4.92Zm3.42,13.85h.65a5.58,5.58,0,0,0,3.93-1.15,5.71,5.71,0,0,0,1.87-4.45c0-3.33-2-5.48-5.2-5.48h-1.25Z"/><path class="cls-2" d="M174.53,199.68h5.85v2.8h-5.85v4.17h5.85v2.8h-9.27V192.78h9.27v2.8h-5.85Z"/><path class="cls-2" d="M187.36,199.68h5.85v2.8h-5.85v4.17h5.85v2.8h-9.28V192.78h9.28v2.8h-5.85Z"/><path class="cls-2" d="M209.51,199.68h5.84v2.8h-5.84v7h-3.43V192.78h9.27v2.8h-5.84Z"/><path class="cls-2" d="M222.43,199.68h5.85v2.8h-5.85v7H219V192.78h9.27v2.8h-5.85Z"/><path class="cls-2" d="M257,200.1v.9a8.22,8.22,0,0,1-2.42,6.2,8.54,8.54,0,0,1-6.15,2.58,8.66,8.66,0,0,1,0-17.32,8.49,8.49,0,0,1,6.75,3.19l-2.57,2a5,5,0,0,0-4.1-2.08,5.26,5.26,0,0,0-5.15,5.55,5.33,5.33,0,0,0,5.22,5.53,4.94,4.94,0,0,0,3.73-1.68,4.64,4.64,0,0,0,1-2.1h-4.65v-2.8Z"/><path class="cls-2" d="M277.05,200.1v.9a8.22,8.22,0,0,1-2.42,6.2,8.54,8.54,0,0,1-6.15,2.58,8.66,8.66,0,1,1,6.72-14.13l-2.57,2a5,5,0,0,0-4.1-2.08,5.26,5.26,0,0,0-5.15,5.55,5.33,5.33,0,0,0,5.22,5.53,4.94,4.94,0,0,0,3.73-1.68,4.64,4.64,0,0,0,1-2.1H268.7v-2.8Z"/><path class="cls-2" d="M293,209.45h-3.42V192.78H293v7.05h6.33v-7.05h3.42v16.67h-3.42v-6.82H293Z"/><path class="cls-2" d="M310.88,209.45h-3.42V192.78h3.42v7.05h6.32v-7.05h3.43v16.67H317.2v-6.82h-6.32Z"/><path class="cls-2" d="M5.69,239.45H2.26V222.78H5.69Z"/><path class="cls-2" d="M13.83,239.45H10.41V222.78h3.42Z"/><path class="cls-2" d="M33.68,233.53c.08,4.5-2.07,6.3-7.35,6.17v-3l.7,0a3.75,3.75,0,0,0,2.3-.62c.7-.58.93-1.35.93-3.38v-7.12H26.33v-2.8h7.35Z"/><path class="cls-2" d="M44.53,233.53c.08,4.5-2.07,6.3-7.35,6.17v-3l.7,0a3.75,3.75,0,0,0,2.3-.62c.7-.58.93-1.35.93-3.38v-7.12H37.18v-2.8h7.35Z"/><path class="cls-2" d="M61.18,239.45H57.76V222.78h3.42V230l4.73-7.25h4l-5.4,8,5.4,8.65h-4L61.18,232Z"/><path class="cls-2" d="M76.51,239.45H73.08V222.78h3.43V230l4.72-7.25h4l-5.39,8,5.39,8.65h-4L76.51,232Z"/><path class="cls-2" d="M106.15,236.63v2.82h-9V222.78h3.42v13.85Z"/><path class="cls-2" d="M118.68,236.63v2.82h-9V222.78h3.43v13.85Z"/><path class="cls-2" d="M134.38,239.45H131V222.78h3.87l5,10.12,5-10.12h3.88v16.67h-3.43v-10.4L139.8,240l-5.42-10.9Z"/><path class="cls-2" d="M156.83,239.45h-3.42V222.78h3.87l5,10.12,5-10.12h3.88v16.67H167.7v-10.4L162.25,240l-5.42-10.9Z"/><path class="cls-2" d="M5.69,269.45H2.26V252.78H5.64l7,10.4v-10.4H16v16.67H12.68l-7-10.55Z"/><path class="cls-2" d="M24.18,269.45H20.76V252.78h3.37l7,10.4v-10.4h3.42v16.67H31.18l-7-10.55Z"/><path class="cls-2" d="M62.28,255.25a8.68,8.68,0,1,1-15.1,5.95,8.71,8.71,0,0,1,15.1-5.95Zm-11.6,5.9a5.13,5.13,0,1,0,10.25.08c0-3.23-2.15-5.6-5.1-5.6A5.21,5.21,0,0,0,50.68,261.15Z"/><path class="cls-2" d="M82.63,255.25a8.68,8.68,0,1,1-15.1,5.95,8.71,8.71,0,0,1,15.1-5.95ZM71,261.15a5.13,5.13,0,1,0,10.25.08c0-3.23-2.15-5.6-5.1-5.6A5.21,5.21,0,0,0,71,261.15Z"/><path class="cls-2" d="M100.88,269.45H97.46V252.78h5.32c4,0,6.18,1.93,6.18,5.32s-2.28,5.63-5.95,5.63h-2.13Zm1.48-8.55c2,0,3.12-.95,3.12-2.62s-1.17-2.68-3-2.68h-1.55v5.3Z"/><path class="cls-2" d="M115.91,269.45h-3.43V252.78h5.33c4,0,6.17,1.93,6.17,5.32s-2.27,5.63-6,5.63h-2.12Zm1.47-8.55c2,0,3.13-.95,3.13-2.62s-1.18-2.68-3.05-2.68h-1.55v5.3Z"/><path class="cls-2" d="M149.9,270.4l-1.5-1.8a8.31,8.31,0,0,1-4.37,1.18,8.66,8.66,0,0,1,.12-17.32,8.35,8.35,0,0,1,8.53,8.52,8.87,8.87,0,0,1-1.93,5.67l1.58,1.7Zm-1.42-6.35a6.34,6.34,0,0,0,.72-3A5.15,5.15,0,1,0,144,266.6a3.37,3.37,0,0,0,2-.55l-1.12-1.32,2.4-2.05Z"/><path class="cls-2" d="M170.28,270.4l-1.5-1.8a8.35,8.35,0,0,1-4.38,1.18,8.66,8.66,0,0,1,.13-17.32,8.34,8.34,0,0,1,8.52,8.52,8.92,8.92,0,0,1-1.92,5.67l1.57,1.7Zm-1.43-6.35a6.35,6.35,0,0,0,.73-3,5.15,5.15,0,1,0-5.25,5.57,3.41,3.41,0,0,0,2-.55l-1.12-1.32,2.39-2.05Z"/><path class="cls-2" d="M189.18,269.45h-3.42V252.78h5.15c4.12,0,6.34,1.82,6.34,5.25a4.8,4.8,0,0,1-3.94,5l4.59,6.4h-4.15l-4.57-6.62Zm1.55-8.62c2,0,3.05-.95,3.05-2.63a2.48,2.48,0,0,0-2.75-2.6h-1.85v5.23Z"/><path class="cls-2" d="M205,269.45h-3.42V252.78h5.15c4.12,0,6.34,1.82,6.34,5.25a4.8,4.8,0,0,1-3.95,5l4.6,6.4H209.6L205,262.83Zm1.55-8.62c1.95,0,3-.95,3-2.63a2.48,2.48,0,0,0-2.75-2.6H205v5.23Z"/><path class="cls-2" d="M228.56,264.58v.22a2.07,2.07,0,0,0,2.27,1.95A2,2,0,0,0,233,265a1.66,1.66,0,0,0-.68-1.33,6.63,6.63,0,0,0-2-.92c-3.65-1.3-5-2.68-5-5.23,0-3,2.23-5,5.5-5a5.2,5.2,0,0,1,5.62,5.09h-3.44a2,2,0,0,0-2.18-2.07,1.82,1.82,0,0,0-2,1.75,1.74,1.74,0,0,0,1,1.57,11.38,11.38,0,0,0,1.95.83,9.27,9.27,0,0,1,3.47,1.85,4.32,4.32,0,0,1,1.32,3.22c0,3.05-2.29,5.08-5.74,5.08s-5.65-2-5.63-5.2Z"/><path class="cls-2" d="M243.16,264.58v.22a2.07,2.07,0,0,0,2.27,1.95,2,2,0,0,0,2.2-1.77,1.66,1.66,0,0,0-.68-1.33,6.63,6.63,0,0,0-2-.92c-3.65-1.3-5-2.68-5-5.23,0-3,2.23-5,5.5-5a5.2,5.2,0,0,1,5.62,5.09h-3.45a2,2,0,0,0-2.17-2.07,1.82,1.82,0,0,0-2,1.75,1.74,1.74,0,0,0,1,1.57,11.13,11.13,0,0,0,1.94.83,9.33,9.33,0,0,1,3.48,1.85,4.32,4.32,0,0,1,1.32,3.22c0,3.05-2.3,5.08-5.74,5.08s-5.65-2-5.63-5.2Z"/><path class="cls-2" d="M269.56,269.45h-3.43V255.58h-4v-2.8H273.5v2.8h-3.94Z"/><path class="cls-2" d="M283.15,269.45h-3.42V255.58h-4v-2.8H287.1v2.8h-4Z"/><path class="cls-2" d="M302.1,262.55a4.45,4.45,0,0,0,.75,3.05,3.14,3.14,0,0,0,4.75-.12,4.49,4.49,0,0,0,.65-3v-9.75h3.45v9.65c0,2.45-.52,4.15-1.65,5.4a6.4,6.4,0,0,1-4.82,1.95,6.68,6.68,0,0,1-5.05-2.08c-1.07-1.2-1.5-2.7-1.5-5.27v-9.65h3.42Z"/><path class="cls-2" d="M319.33,262.55a4.4,4.4,0,0,0,.75,3.05,3.14,3.14,0,0,0,4.75-.12,4.49,4.49,0,0,0,.65-3v-9.75h3.45v9.65c0,2.45-.53,4.15-1.65,5.4a6.43,6.43,0,0,1-4.83,1.95,6.7,6.7,0,0,1-5.05-2.08c-1.07-1.2-1.5-2.7-1.5-5.27v-9.65h3.43Z"/><path class="cls-2" d="M11,282.78h3.53L9.26,299.45H5.61L.56,282.78H4.09L7.46,294Z"/><path class="cls-2" d="M26.28,282.78h3.53l-5.25,16.67H20.91l-5.05-16.67h3.53L22.76,294Z"/><path class="cls-2" d="M57.68,282.78h3.57l-4.64,16.67H53.16l-2.63-10.92-2.62,10.92H44.46l-4.55-16.67h3.62l2.68,10.52,2.7-10.52h3.4l2.6,10.7Z"/><path class="cls-2" d="M81.21,282.78h3.57l-4.65,16.67H76.68l-2.62-10.92-2.63,10.92H68l-4.54-16.67h3.62l2.67,10.52,2.7-10.52h3.4l2.6,10.7Z"/><path class="cls-2" d="M98.86,299.45h-4l5.25-8.8-4.68-7.87h4l2.68,4.77,2.75-4.77h3.9l-4.7,7.87,5.17,8.8h-3.9l-3.22-5.8Z"/><path class="cls-2" d="M114.63,299.45h-3.95l5.25-8.8-4.67-7.87h3.95l2.67,4.77,2.75-4.77h3.9l-4.7,7.87,5.18,8.8h-3.9l-3.23-5.8Z"/><path class="cls-2" d="M143.83,299.45h-3.42V292.1l-5.58-9.32h4.08l3.22,5.77,3.18-5.77h4l-5.48,9.32Z"/><path class="cls-2" d="M159,299.45h-3.43V292.1L150,282.78h4.07l3.23,5.77,3.17-5.77h4L159,292.1Z"/><path class="cls-2" d="M13.23,326.65v2.8H.84l7.79-13.87H1.71v-2.8H14L6.21,326.65Z"/><path class="cls-2" d="M28.48,326.65v2.8H16.09l7.79-13.87H17v-2.8H29.23l-7.77,13.87Z"/><path class="cls-2" d="M51,324.4c0,1.93-.4,3.13-1.37,4.05a5.31,5.31,0,0,1-3.8,1.33,5.58,5.58,0,0,1-4-1.4c-.92-.93-1.25-2.13-1.25-4.73v-5.32c0-2.15.33-3.37,1.12-4.25a5.33,5.33,0,0,1,4-1.55,5.53,5.53,0,0,1,3.77,1.3c1.08.95,1.5,2.1,1.5,4.1Zm-7.2-.4c0,1.33,0,1.63.35,2a2,2,0,0,0,1.68.8,2,2,0,0,0,1.67-.85,3.75,3.75,0,0,0,.35-2v-5.8c0-1.13-.12-1.6-.5-2a2,2,0,0,0-1.52-.62,1.87,1.87,0,0,0-1.68.82,3.71,3.71,0,0,0-.35,2Z"/><path class="cls-2" d="M56.13,318.65v-3l6.25-3.25v17H59.16V317Z"/><path class="cls-2" d="M77.86,326.63v2.82H67.73l5.83-8.9c1.27-1.95,1.52-2.47,1.52-3.27a1.84,1.84,0,0,0-2-1.85,1.91,1.91,0,0,0-1.88,1.17,4.28,4.28,0,0,0-.25,1.6H68c0-3.52,2-5.67,5.27-5.67,2.92,0,5,1.85,5,4.42,0,1.53-.58,2.93-2,5.1l-3.13,4.58Z"/><path class="cls-2" d="M82.23,315.63v-2.75H92.38l-4.62,6.22a4.72,4.72,0,0,1,4.45,5,5.44,5.44,0,0,1-5.55,5.65,5.14,5.14,0,0,1-4.4-2.2,5.35,5.35,0,0,1-.85-2.65l2.87-.1a2.24,2.24,0,0,0,2.3,2.07,2.51,2.51,0,0,0,2.55-2.55,2.47,2.47,0,0,0-2.57-2.55,2.72,2.72,0,0,0-1.53.43l-1.8-1.53,3.8-5.07Z"/><path class="cls-2" d="M95.41,326v-2.68l5.85-10.62h3.35v10.55h1.52V326h-1.52v3.42h-3.08V326Zm6.12-8.95-3.5,6.2h3.5Z"/><path class="cls-2" d="M113,319.35a4.88,4.88,0,0,1,2.05-.45,4.94,4.94,0,0,1,4.85,5.23,5.37,5.37,0,0,1-5.48,5.65,5.44,5.44,0,0,1-3.85-1.5,5.9,5.9,0,0,1-1.37-2.3l2.8-1.05a2.35,2.35,0,0,0,2.32,1.82,2.56,2.56,0,1,0-2.15-4H110v-9.87h8.5v2.9H113Z"/><path class="cls-2" d="M128.21,319.45a2.68,2.68,0,0,1,.87-.15,4.77,4.77,0,0,1,4.63,4.93,5.54,5.54,0,0,1-5.55,5.55,5.22,5.22,0,0,1-5.3-5.35c0-1.53.5-2.9,1.82-5l4.15-6.55h3.65Zm-2.33,4.93a2.34,2.34,0,0,0,2.38,2.4,2.4,2.4,0,0,0,2.42-2.4,2.35,2.35,0,0,0-2.35-2.43A2.42,2.42,0,0,0,125.88,324.38Z"/><path class="cls-2" d="M137.53,315.78v-2.9h9.85l-6.55,16.57h-3.32l5.4-13.67Z"/><path class="cls-2" d="M161.18,324.63c0,3-2.25,5.15-5.45,5.15s-5.34-2-5.34-5a4,4,0,0,1,2.47-4.07,3.6,3.6,0,0,1-2-3.45,4.68,4.68,0,0,1,5-4.75,4.61,4.61,0,0,1,4.9,4.65,4.23,4.23,0,0,1-.7,2.42,2.85,2.85,0,0,1-1.3,1.13A3.88,3.88,0,0,1,161.18,324.63Zm-7.72-.05a2.24,2.24,0,0,0,2.32,2.3,2.29,2.29,0,0,0,2.3-2.3,2.33,2.33,0,0,0-2.27-2.33A2.29,2.29,0,0,0,153.46,324.58Zm.32-7.3a2.06,2.06,0,0,0,2.05,2.1,2.05,2.05,0,1,0,0-4.1A2,2,0,0,0,153.78,317.28Z"/><path class="cls-2" d="M169.68,322.9a3,3,0,0,1-.75.1,4.8,4.8,0,0,1-4.82-5,5.41,5.41,0,0,1,5.52-5.5,5.23,5.23,0,0,1,5.35,5.4,9.17,9.17,0,0,1-1.8,5l-4.1,6.52h-3.6Zm-2.5-5a2.38,2.38,0,1,0,4.75,0,2.38,2.38,0,1,0-4.75,0Z"/></g></g></svg>