<svg xmlns="http://www.w3.org/2000/svg" viewBox="0 0 216.45 544.03"><defs><style>.cls-1,.cls-2{fill:none;stroke-miterlimit:10;}.cls-1{stroke:#00008c;stroke-width:0.8px;}.cls-2{stroke:#ff2031;stroke-width:0.67px;}</style></defs><title>typographytablet1</title><g id="Layer_2" data-name="Layer 2"><g id="Layer_1-2" data-name="Layer 1"><path d="M2.73,390.2H.81v-9.34H2.7l3.91,5.83v-5.83H8.53v9.34H6.65l-3.92-5.91Z"/><path d="M11.86,387.39a1.73,1.73,0,0,0,3.19.61l1.64.45a3.43,3.43,0,0,1-3.15,2A3.37,3.37,0,0,1,10,387a3.3,3.3,0,0,1,3.42-3.46A3.37,3.37,0,0,1,16.94,387v.36Zm3.25-1A1.59,1.59,0,0,0,13.46,385a1.53,1.53,0,0,0-1.6,1.37Z"/><path d="M23.78,383.72v4.1a2.22,2.22,0,0,1-.73,1.93,3.2,3.2,0,0,1-2.1.67,3.23,3.23,0,0,1-2.18-.71,2.42,2.42,0,0,1-.68-1.89v-4.1h1.78v4A1.09,1.09,0,0,0,21,388.93,1,1,0,0,0,22,387.82v-4.1Z"/><path d="M29.91,388.7v1.5H24.6l2.72-5H24.85v-1.49H30.1l-2.7,5Z"/><path d="M32.45,387.39a1.74,1.74,0,0,0,3.2.61l1.64.45a3.45,3.45,0,0,1-3.16,2A3.38,3.38,0,0,1,30.6,387,3.3,3.3,0,0,1,34,383.49,3.38,3.38,0,0,1,37.54,387l0,.36Zm3.25-1A1.58,1.58,0,0,0,34.05,385a1.54,1.54,0,0,0-1.6,1.37Z"/><path d="M40.68,381.88a1,1,0,1,1-1-1A1,1,0,0,1,40.68,381.88Zm-.09,8.32H38.81v-6.48h1.78Z"/><path d="M44.21,388.3c0,.3.12.39.51.42H45v1.48H43.61c-.87,0-1.19-.38-1.18-1.23v-3.78h-.74v-1.5h.74V382h1.78v1.74H45v1.5h-.82Z"/><path d="M59.76,385v.51a4.59,4.59,0,0,1-1.36,3.47A4.79,4.79,0,0,1,55,390.38a4.85,4.85,0,1,1,3.77-7.91l-1.44,1.13a2.81,2.81,0,0,0-2.3-1.16,3,3,0,0,0-2.89,3.11,3,3,0,0,0,2.93,3.1,2.76,2.76,0,0,0,2.09-.94,2.61,2.61,0,0,0,.57-1.18h-2.6V385Z"/><path d="M62.82,383.72v.95a1.65,1.65,0,0,1,.57-.87,1.83,1.83,0,0,1,1-.31.9.9,0,0,1,.21,0v1.82l-.37,0a1.46,1.46,0,0,0-1.2.59,1.8,1.8,0,0,0-.26,1.19v3.12H61v-6.48Z"/><path d="M72.34,387a3.43,3.43,0,0,1-3.54,3.4,3.47,3.47,0,1,1,0-6.93A3.4,3.4,0,0,1,72.34,387Zm-5.26,0a1.7,1.7,0,0,0,1.73,1.87A1.73,1.73,0,0,0,70.55,387a1.69,1.69,0,0,0-1.72-1.9A1.71,1.71,0,0,0,67.08,387Z"/><path d="M75.5,388.3c0,.3.11.39.51.42h.31v1.48H74.9c-.87,0-1.19-.38-1.18-1.23v-3.78H73v-1.5h.74V382H75.5v1.74h.82v1.5H75.5Z"/><path d="M79,387.39a1.74,1.74,0,0,0,3.2.61l1.64.45a3.44,3.44,0,0,1-3.15,2A3.37,3.37,0,0,1,77.13,387a3.29,3.29,0,0,1,3.41-3.46A3.38,3.38,0,0,1,84.06,387l0,.36Zm3.25-1A1.58,1.58,0,0,0,80.57,385a1.54,1.54,0,0,0-1.6,1.37Z"/><path d="M88.1,385.59v-.11a.73.73,0,0,0-.82-.67c-.44,0-.72.24-.72.59a.54.54,0,0,0,.19.42c.19.15.2.15,1.1.43,1.46.45,2,1,2,2.07,0,1.26-1,2.1-2.52,2.1s-2.48-.78-2.55-2.12h1.71c.08.56.34.81.86.81a.64.64,0,0,0,.71-.62c0-.39-.25-.57-1.21-.87-1.4-.42-2-1.05-2-2.07,0-1.23,1-2.06,2.51-2.06a2.12,2.12,0,0,1,2.42,2.1Z"/><path d="M93,390.2H91.21v-9.34H93v5.35l1.8-2.49h2.06l-2.19,3.1,2.19,3.38H94.79L93,387.51Z"/><path d="M98.6,392.05l-1.2-.28.81-3.47,1.64.4Z"/><path d="M2.73,407H.81v-9.34H2.73Z"/><path d="M8.78,407v-9.34h1.78V407Z"/><path d="M14.2,398.68a1,1,0,0,1-2,0,1,1,0,1,1,2,0ZM14.1,407H12.32v-6.48H14.1Z"/><path d="M17.64,407H15.86v-9.34h1.78V403l1.81-2.49h2.06l-2.2,3.1,2.2,3.38H19.45l-1.81-2.69Z"/><path d="M23.67,404.19a1.74,1.74,0,0,0,3.2.61l1.64.45a3.45,3.45,0,0,1-3.15,2,3.38,3.38,0,0,1-3.53-3.48,3.29,3.29,0,0,1,3.41-3.46,3.38,3.38,0,0,1,3.52,3.54v.36Zm3.25-1a1.58,1.58,0,0,0-1.65-1.37,1.54,1.54,0,0,0-1.6,1.37Z"/><path d="M36.09,405.1c0,.3.11.39.51.42h.31V407H35.49c-.87,0-1.19-.38-1.18-1.23V402h-.74v-1.5h.74v-1.74h1.78v1.74h.82V402h-.82Z"/><path d="M44.77,403.82a3.44,3.44,0,0,1-3.54,3.41,3.47,3.47,0,1,1,0-6.94A3.4,3.4,0,0,1,44.77,403.82Zm-5.26-.05a1.74,1.74,0,1,0,3.47,0,1.69,1.69,0,0,0-1.72-1.9A1.71,1.71,0,0,0,39.51,403.77Z"/><path d="M52.07,407H50.29v-9.34h1.78v3.64a2.52,2.52,0,0,1,2.1-1,3.26,3.26,0,0,1,3.26,3.5,3.16,3.16,0,0,1-3.18,3.44,2.44,2.44,0,0,1-2.18-1.07Zm0-3.19a1.76,1.76,0,1,0,3.5,0,1.85,1.85,0,0,0-1.72-2A1.9,1.9,0,0,0,52,403.81Z"/><path d="M60.2,404.19a1.73,1.73,0,0,0,3.19.61l1.64.45a3.44,3.44,0,0,1-3.15,2,3.38,3.38,0,0,1-3.53-3.48,3.3,3.3,0,0,1,3.42-3.46,3.37,3.37,0,0,1,3.51,3.54v.36Zm3.25-1a1.58,1.58,0,0,0-1.65-1.37,1.53,1.53,0,0,0-1.6,1.37Z"/><path d="M76.32,400.52v4.1a2.22,2.22,0,0,1-.73,1.93,3.61,3.61,0,0,1-4.27,0,2.38,2.38,0,0,1-.69-1.89v-4.1h1.78v4a1.09,1.09,0,0,0,1.08,1.22,1,1,0,0,0,1.05-1.11v-4.1Z"/><path d="M80.72,402.39v-.11a.73.73,0,0,0-.82-.67c-.44,0-.72.24-.72.59a.54.54,0,0,0,.19.42c.19.15.21.15,1.1.43,1.46.45,2,1,2,2.07,0,1.26-1,2.11-2.52,2.11s-2.48-.79-2.55-2.13h1.71c.09.56.34.81.86.81a.64.64,0,0,0,.71-.62c0-.39-.25-.57-1.2-.87-1.41-.42-2-1.05-2-2.07,0-1.23,1-2.06,2.51-2.06a2.14,2.14,0,0,1,2.43,2.1Z"/><path d="M85.25,404.19a1.73,1.73,0,0,0,3.19.61l1.64.45a3.45,3.45,0,0,1-3.15,2,3.38,3.38,0,0,1-3.53-3.48,3.29,3.29,0,0,1,3.41-3.46,3.38,3.38,0,0,1,3.52,3.54v.36Zm3.25-1a1.6,1.6,0,0,0-1.66-1.37,1.52,1.52,0,0,0-1.59,1.37Z"/><path d="M96.57,397.66h1.78V407H96.57v-.85a2.38,2.38,0,0,1-2.17,1.08,3.14,3.14,0,0,1-3.21-3.41,3.51,3.51,0,0,1,1-2.63,3.23,3.23,0,0,1,2.2-.9,2.72,2.72,0,0,1,2.14.94Zm-3.49,6.17a1.77,1.77,0,1,0,1.77-2A1.85,1.85,0,0,0,93.08,403.83Z"/><path d="M110.94,403.82a3.45,3.45,0,0,1-3.55,3.41,3.47,3.47,0,1,1,0-6.94A3.41,3.41,0,0,1,110.94,403.82Zm-5.27-.05a1.74,1.74,0,1,0,3.48,0,1.69,1.69,0,0,0-1.73-1.9A1.71,1.71,0,0,0,105.67,403.77Z"/><path d="M114,400.52v.79a1.85,1.85,0,0,1,1.76-1,2.36,2.36,0,0,1,1.6.6,2.53,2.53,0,0,1,.58,2V407h-1.78v-4a1.41,1.41,0,0,0-.16-.76,1,1,0,0,0-.85-.43,1.15,1.15,0,0,0-1.15,1.27V407h-1.78v-6.48Z"/><path d="M125.66,407h-1.78v-9.34h1.78v3.64a2.55,2.55,0,0,1,2.1-1,3.26,3.26,0,0,1,3.27,3.5,3.16,3.16,0,0,1-3.18,3.44,2.47,2.47,0,0,1-2.19-1.07Zm0-3.19a1.77,1.77,0,1,0,3.51,0,1.85,1.85,0,0,0-1.73-2A1.9,1.9,0,0,0,125.63,403.81Z"/><path d="M137.93,400.52v4.1a2.22,2.22,0,0,1-.73,1.93,3.61,3.61,0,0,1-4.27,0,2.42,2.42,0,0,1-.69-1.89v-4.1H134v4a1.1,1.1,0,0,0,1.08,1.22,1,1,0,0,0,1.05-1.11v-4.1Z"/><path d="M141.43,405.1c0,.3.11.39.5.42h.31V407h-1.42c-.86,0-1.19-.38-1.17-1.23V402h-.74v-1.5h.74v-1.74h1.78v1.74h.81V402h-.81Z"/><path d="M145.54,405.1c0,.3.11.39.51.42h.3V407h-1.41c-.87,0-1.19-.38-1.18-1.23V402H143v-1.5h.74v-1.74h1.78v1.74h.81V402h-.81Z"/><path d="M154.22,403.82a3.44,3.44,0,0,1-3.54,3.41,3.47,3.47,0,1,1,0-6.94A3.4,3.4,0,0,1,154.22,403.82Zm-5.26-.05a1.74,1.74,0,1,0,3.47,0,1.69,1.69,0,0,0-1.72-1.9A1.71,1.71,0,0,0,149,403.77Z"/><path d="M157.32,400.52v.79a1.85,1.85,0,0,1,1.76-1,2.36,2.36,0,0,1,1.6.6,2.53,2.53,0,0,1,.57,2V407h-1.78v-4a1.42,1.42,0,0,0-.15-.76,1,1,0,0,0-.86-.43,1.15,1.15,0,0,0-1.14,1.27V407h-1.78v-6.48Z"/><path d="M165.74,402.39v-.11a.73.73,0,0,0-.82-.67c-.44,0-.72.24-.72.59a.54.54,0,0,0,.19.42c.19.15.21.15,1.1.43,1.46.45,2,1,2,2.07,0,1.26-1,2.11-2.52,2.11s-2.48-.79-2.55-2.13h1.71c.09.56.34.81.86.81a.64.64,0,0,0,.71-.62c0-.39-.25-.57-1.2-.87-1.41-.42-2-1.05-2-2.07,0-1.23,1-2.06,2.5-2.06a2.12,2.12,0,0,1,2.42,2.1Z"/><path d="M5.69,417.32H7.47v6.48H5.69v-.9A2.68,2.68,0,0,1,3.43,424a3.14,3.14,0,0,1-3.12-3.39,3.3,3.3,0,0,1,3.26-3.54,2.55,2.55,0,0,1,2.12,1.05Zm-3.48,3.29a1.84,1.84,0,0,0,1.71,2,1.94,1.94,0,0,0,1.8-2.05,1.8,1.8,0,0,0-1.78-2A1.81,1.81,0,0,0,2.21,420.61Z"/><path d="M11,417.32v.79a1.87,1.87,0,0,1,1.77-1,2.35,2.35,0,0,1,1.59.6,2.53,2.53,0,0,1,.58,2v4.1H13.15v-4A1.42,1.42,0,0,0,13,419a1,1,0,0,0-.86-.43A1.15,1.15,0,0,0,11,419.86v3.94H9.21v-6.48Z"/><path d="M21.62,414.46H23.4v9.34H21.62V423A2.38,2.38,0,0,1,19.45,424a3.13,3.13,0,0,1-3.21-3.4,3.47,3.47,0,0,1,1-2.63,3.21,3.21,0,0,1,2.2-.9,2.72,2.72,0,0,1,2.14.94Zm-3.49,6.17a1.82,1.82,0,0,0,1.75,2,2,2,0,1,0-1.75-2Z"/><path d="M36,420.62a3.43,3.43,0,0,1-3.54,3.4,3.47,3.47,0,1,1,0-6.93A3.4,3.4,0,0,1,36,420.62Zm-5.26-.05a1.74,1.74,0,1,0,3.47,0,1.69,1.69,0,0,0-1.72-1.9A1.71,1.71,0,0,0,30.72,420.57Z"/><path d="M39.15,421.9c0,.3.11.39.5.42H40v1.48H38.54c-.87,0-1.19-.38-1.17-1.23v-3.78h-.75v-1.5h.75v-1.74h1.78v1.74H40v1.5h-.81Z"/><path d="M43.09,418a2.2,2.2,0,0,1,1.78-.93,2.4,2.4,0,0,1,1.56.6,2.26,2.26,0,0,1,.57,1.84v4.27H45.22v-4c0-.73-.38-1.19-1-1.19a1.1,1.1,0,0,0-.79.32,1.21,1.21,0,0,0-.37,1v3.87H41.31v-9.34h1.78Z"/><path d="M50.15,421a1.73,1.73,0,0,0,3.19.62l1.64.45a3.43,3.43,0,0,1-3.15,2,3.37,3.37,0,0,1-3.53-3.47,3.3,3.3,0,0,1,3.42-3.46,3.37,3.37,0,0,1,3.51,3.54V421Zm3.25-1a1.59,1.59,0,0,0-1.65-1.37,1.53,1.53,0,0,0-1.6,1.37Z"/><path d="M58.28,417.32v.95a1.6,1.6,0,0,1,.58-.87,1.81,1.81,0,0,1,1-.31,1,1,0,0,1,.21,0v1.82l-.38,0a1.42,1.42,0,0,0-1.19.59,1.79,1.79,0,0,0-.27,1.19v3.12H56.5v-6.48Z"/><path d="M67.14,418a2.2,2.2,0,0,1,1.78-.93,2.4,2.4,0,0,1,1.56.6,2.26,2.26,0,0,1,.57,1.84v4.27H69.27v-4c0-.73-.37-1.19-1-1.19a1.11,1.11,0,0,0-.8.32,1.21,1.21,0,0,0-.37,1v3.87H65.37v-9.34h1.77Z"/><path d="M74.2,421a1.73,1.73,0,0,0,3.19.62l1.64.45a3.43,3.43,0,0,1-3.15,2,3.37,3.37,0,0,1-3.53-3.47,3.3,3.3,0,0,1,3.42-3.46,3.37,3.37,0,0,1,3.51,3.54V421Zm3.25-1a1.58,1.58,0,0,0-1.65-1.37A1.53,1.53,0,0,0,74.2,420Z"/><path d="M85.53,417.32h1.78v6.48H85.53v-.9A2.65,2.65,0,0,1,83.27,424a3.14,3.14,0,0,1-3.12-3.39,3.3,3.3,0,0,1,3.26-3.54,2.54,2.54,0,0,1,2.12,1.05Zm-3.48,3.29a1.84,1.84,0,0,0,1.71,2,1.94,1.94,0,0,0,1.8-2.05,1.77,1.77,0,1,0-3.51.06Z"/><path d="M94,414.46h1.78v9.34H94V423A2.39,2.39,0,0,1,91.85,424a3.13,3.13,0,0,1-3.2-3.4,3.5,3.5,0,0,1,1-2.63,3.23,3.23,0,0,1,2.2-.9A2.74,2.74,0,0,1,94,418Zm-3.49,6.17a1.82,1.82,0,0,0,1.75,2,2,2,0,1,0-1.75-2Z"/><path d="M99.43,415.48a1,1,0,0,1-2,0,1,1,0,1,1,2,0Zm-.1,8.32H97.55v-6.48h1.78Z"/><path d="M102.87,417.32v.79a1.87,1.87,0,0,1,1.77-1,2.35,2.35,0,0,1,1.59.6,2.53,2.53,0,0,1,.58,2v4.1H105v-4a1.42,1.42,0,0,0-.15-.76,1,1,0,0,0-.86-.43,1.15,1.15,0,0,0-1.15,1.27v3.94h-1.78v-6.48Z"/><path d="M113.33,417.32h1.75v6a3.42,3.42,0,0,1-.87,2.71,3.74,3.74,0,0,1-2.69,1,4.33,4.33,0,0,1-3.18-1.29l1.11-1.12a2.55,2.55,0,0,0,2,.9,1.73,1.73,0,0,0,1.88-1.92v-.66a2.76,2.76,0,0,1-2.28,1.1,3.15,3.15,0,0,1-3.07-3.41,3.21,3.21,0,0,1,3.25-3.52,2.44,2.44,0,0,1,2.1,1Zm-3.46,3.2a1.78,1.78,0,0,0,3.1,1.32,1.81,1.81,0,0,0,.33-1.15,2.06,2.06,0,0,0-.47-1.51,1.82,1.82,0,0,0-1.22-.51A1.73,1.73,0,0,0,109.87,420.52Z"/><path d="M119.69,419.19v-.11a.74.74,0,0,0-.83-.67c-.44,0-.71.24-.71.59a.53.53,0,0,0,.18.42c.19.15.21.15,1.1.43,1.46.45,2,1,2,2.07,0,1.26-1,2.1-2.52,2.1s-2.48-.78-2.55-2.12h1.71c.09.56.34.81.86.81a.64.64,0,0,0,.71-.62c0-.39-.25-.57-1.2-.87-1.4-.42-2-1.05-2-2.07,0-1.23,1-2.06,2.5-2.06a2.13,2.13,0,0,1,2.43,2.1Z"/><path d="M124.85,423a1,1,0,1,1-1-1.05A1,1,0,0,1,124.85,423Z"/><path class="cls-1" d="M5,17.4H1.58V.73H5l7,10.39V.73h3.42V17.4H12L5,6.85Z"/><path class="cls-1" d="M22.93,7.62h5.85v2.8H22.93V14.6h5.85v2.8H19.51V.73h9.27V3.52H22.93Z"/><path class="cls-1" d="M36.06,10.5a4.35,4.35,0,0,0,.75,3.05,3.13,3.13,0,0,0,4.74-.13,4.47,4.47,0,0,0,.65-2.95V.73h3.45v9.64c0,2.45-.52,4.15-1.65,5.4a6.4,6.4,0,0,1-4.82,1.95,6.73,6.73,0,0,1-5-2.07c-1.07-1.2-1.5-2.7-1.5-5.28V.73h3.43Z"/><path class="cls-1" d="M60.93,14.6v2.8H48.53l7.8-13.88H49.41V.73H61.68L53.91,14.6Z"/><path class="cls-1" d="M68,7.62h5.85v2.8H68V14.6h5.85v2.8H64.58V.73h9.27V3.52H68Z"/><path class="cls-1" d="M81.41,17.4H78V.73h3.43Z"/><path class="cls-1" d="M91.85,17.4H88.43V3.52h-4V.73H95.8V3.52h-4Z"/><path class="cls-1" d="M124,8.05V9a8.21,8.21,0,0,1-2.43,6.2,8.55,8.55,0,0,1-6.15,2.57,8.39,8.39,0,0,1-8.57-8.62,8.6,8.6,0,0,1,15.3-5.5l-2.58,2a5,5,0,0,0-4.1-2.07A5.26,5.26,0,0,0,110.3,9.1a5.32,5.32,0,0,0,5.23,5.52A4.91,4.91,0,0,0,119.25,13a4.8,4.8,0,0,0,1-2.1h-4.65V8.05Z"/><path class="cls-1" d="M131.13,17.4h-3.42V.73h5.14C137,.73,139.2,2.55,139.2,6a4.8,4.8,0,0,1-3.95,5l4.6,6.4H135.7l-4.57-6.63Zm1.55-8.63c1.95,0,3-.95,3-2.62A2.48,2.48,0,0,0,133,3.55h-1.85V8.77Z"/><path class="cls-1" d="M157.53,3.2a8.52,8.52,0,0,1,2.12,6,8.61,8.61,0,0,1-17.22,0,8.7,8.7,0,0,1,15.1-5.95Zm-11.6,5.9a5.13,5.13,0,1,0,10.25.07c0-3.22-2.15-5.6-5.1-5.6A5.21,5.21,0,0,0,145.93,9.1Z"/><path class="cls-1" d="M168.9,17.4h-3.42V3.52h-4V.73h11.34V3.52H168.9Z"/><path class="cls-1" d="M179.08,7.62h5.85v2.8h-5.85V14.6h5.85v2.8h-9.27V.73h9.27V3.52h-5.85Z"/><path class="cls-1" d="M191.65,12.52v.23a2.08,2.08,0,0,0,2.28,1.95,2,2,0,0,0,2.2-1.78,1.64,1.64,0,0,0-.68-1.32,6.56,6.56,0,0,0-2-.93c-3.65-1.3-5-2.67-5-5.22,0-3,2.22-5,5.5-5a5.21,5.21,0,0,1,5.62,5.1h-3.45A2,2,0,0,0,194,3.42a1.81,1.81,0,0,0-2,1.75,1.76,1.76,0,0,0,1,1.58,12.08,12.08,0,0,0,2,.82,9.48,9.48,0,0,1,3.48,1.85,4.34,4.34,0,0,1,1.32,3.23c0,3-2.3,5.07-5.75,5.07s-5.64-2-5.62-5.2Z"/><path class="cls-1" d="M207,17.4h-3.42V.73H207V8L211.73.73h4l-5.4,8,5.4,8.65h-4L207,10Z"/><path class="cls-1" d="M7,30.73c2,0,3.37.3,4.24.95a4.27,4.27,0,0,1,1.6,3.52,4,4,0,0,1-1.05,2.85,3.78,3.78,0,0,1-1.75,1,3.7,3.7,0,0,1,2,.9,3.9,3.9,0,0,1,1.2,3,4.34,4.34,0,0,1-1.73,3.65,6.36,6.36,0,0,1-3.72.8H1.58V30.73ZM5,37.8H6.38c2,0,3-.73,3-2.28a2,2,0,0,0-1-1.87,5.08,5.08,0,0,0-2.14-.33H5Zm0,7.07H6.68a3.59,3.59,0,0,0,2.23-.45,2.35,2.35,0,0,0-.13-3.67,4.23,4.23,0,0,0-2.3-.4H5Z"/><path class="cls-1" d="M31.45,33.2a8.68,8.68,0,1,1-15.09,5.95A8.7,8.7,0,0,1,31.45,33.2ZM19.86,39.1a5.13,5.13,0,1,0,10.24.07c0-3.22-2.15-5.6-5.1-5.6A5.21,5.21,0,0,0,19.86,39.1Z"/><path class="cls-1" d="M46.53,44.57V47.4h-9V30.73H41V44.57Z"/><path class="cls-1" d="M50.06,30.73h4.72c2.7,0,4.52.55,6,1.84a8.12,8.12,0,0,1,2.62,6.3,8.75,8.75,0,0,1-2.65,6.6A8.4,8.4,0,0,1,55,47.4H50.06Zm3.42,13.84h.65a5.51,5.51,0,0,0,3.92-1.15A5.7,5.7,0,0,0,59.93,39c0-3.32-2-5.47-5.2-5.47H53.48Z"/><path class="cls-2" d="M5,209.45H1.58V192.78H5l7,10.4v-10.4h3.42v16.67H12L5,198.9Z"/><path class="cls-2" d="M22.93,199.68h5.85v2.8H22.93v4.17h5.85v2.8H19.51V192.78h9.27v2.8H22.93Z"/><path class="cls-2" d="M36.06,202.55a4.35,4.35,0,0,0,.75,3,3.12,3.12,0,0,0,4.74-.12,4.49,4.49,0,0,0,.65-2.95v-9.75h3.45v9.65c0,2.45-.52,4.15-1.65,5.4a6.4,6.4,0,0,1-4.82,1.95,6.7,6.7,0,0,1-5-2.08c-1.07-1.2-1.5-2.7-1.5-5.27v-9.65h3.43Z"/><path class="cls-2" d="M60.93,206.65v2.8H48.53l7.8-13.87H49.41v-2.8H61.68l-7.77,13.87Z"/><path class="cls-2" d="M68,199.68h5.85v2.8H68v4.17h5.85v2.8H64.58V192.78h9.27v2.8H68Z"/><path class="cls-2" d="M81.41,209.45H78V192.78h3.43Z"/><path class="cls-2" d="M91.85,209.45H88.43V195.58h-4v-2.8H95.8v2.8h-4Z"/><path class="cls-2" d="M124,200.1v.9a8.19,8.19,0,0,1-2.43,6.2,8.52,8.52,0,0,1-6.15,2.58,8.66,8.66,0,0,1,0-17.32,8.5,8.5,0,0,1,6.75,3.19l-2.58,2a5,5,0,0,0-4.1-2.07,5.25,5.25,0,0,0-5.15,5.54,5.33,5.33,0,0,0,5.23,5.53,4.91,4.91,0,0,0,3.72-1.68,4.75,4.75,0,0,0,1-2.1h-4.65v-2.8Z"/><path class="cls-2" d="M131.13,209.45h-3.42V192.78h5.14c4.13,0,6.35,1.83,6.35,5.25a4.8,4.8,0,0,1-3.95,5l4.6,6.4H135.7l-4.57-6.62Zm1.55-8.62c1.95,0,3-1,3-2.63a2.48,2.48,0,0,0-2.75-2.59h-1.85v5.22Z"/><path class="cls-2" d="M157.53,195.26a8.68,8.68,0,1,1-15.1,5.94,8.7,8.7,0,0,1,15.1-5.94Zm-11.6,5.89a5.13,5.13,0,1,0,10.25.08c0-3.23-2.15-5.6-5.1-5.6A5.21,5.21,0,0,0,145.93,201.15Z"/><path class="cls-2" d="M168.9,209.45h-3.42V195.58h-4v-2.8h11.34v2.8H168.9Z"/><path class="cls-2" d="M179.08,199.68h5.85v2.8h-5.85v4.17h5.85v2.8h-9.27V192.78h9.27v2.8h-5.85Z"/><path class="cls-2" d="M191.65,204.58v.22a2.08,2.08,0,0,0,2.28,1.95,2,2,0,0,0,2.2-1.77,1.66,1.66,0,0,0-.68-1.33,6.63,6.63,0,0,0-2-.92c-3.65-1.3-5-2.68-5-5.23,0-3,2.22-5,5.5-5a5.21,5.21,0,0,1,5.62,5.09h-3.45a2,2,0,0,0-2.17-2.07,1.81,1.81,0,0,0-2,1.75,1.74,1.74,0,0,0,1,1.57,11.78,11.78,0,0,0,2,.83,9.33,9.33,0,0,1,3.48,1.85,4.32,4.32,0,0,1,1.32,3.22c0,3.05-2.3,5.08-5.75,5.08s-5.64-2-5.62-5.2Z"/><path class="cls-2" d="M207,209.45h-3.42V192.78H207V200l4.73-7.25h4l-5.4,8,5.4,8.65h-4L207,202Z"/><path class="cls-2" d="M7,222.78c2,0,3.37.3,4.24.95a4.3,4.3,0,0,1,1.6,3.52,4,4,0,0,1-1.05,2.85,3.69,3.69,0,0,1-1.75,1,3.85,3.85,0,0,1,2,.9,3.92,3.92,0,0,1,1.2,3,4.32,4.32,0,0,1-1.73,3.65,6.29,6.29,0,0,1-3.72.8H1.58V222.78ZM5,229.85H6.38c2,0,3-.72,3-2.27a2.07,2.07,0,0,0-1-1.88,5.27,5.27,0,0,0-2.14-.32H5Zm0,7.08H6.68a3.59,3.59,0,0,0,2.23-.45,2.36,2.36,0,0,0-.13-3.68,4.23,4.23,0,0,0-2.3-.4H5Z"/><path class="cls-2" d="M31.45,225.26a8.68,8.68,0,1,1-15.09,5.94,8.7,8.7,0,0,1,15.09-5.94Zm-11.59,5.89a5.13,5.13,0,1,0,10.24.08c0-3.23-2.15-5.6-5.1-5.6A5.2,5.2,0,0,0,19.86,231.15Z"/><path class="cls-2" d="M46.53,236.63v2.82h-9V222.78H41v13.85Z"/><path class="cls-2" d="M50.06,222.78h4.72c2.7,0,4.52.55,6,1.85a8.11,8.11,0,0,1,2.62,6.3,8.78,8.78,0,0,1-2.65,6.6A8.4,8.4,0,0,1,55,239.45H50.06Zm3.42,13.85h.65a5.56,5.56,0,0,0,3.92-1.15A5.72,5.72,0,0,0,59.93,231c0-3.33-2-5.47-5.2-5.47H53.48Z"/><path d="M.15,484.1l1.39,0,1.19,0-.1.31-.42.32c.26.75.73,1.87,2.93,7.3h0c.43-.87.88-1.79,1.69-3.61-.51-1.28-1.12-2.65-1.52-3.49a2,2,0,0,0-1.08-.52l.12-.31,1.36,0,.63,0,0,0,.06.63a24.53,24.53,0,0,0,1,2.48h0c.6-1.35.8-1.7,1.07-2.48l0-.63,0,0,.65,0,1.31,0-.09.31a2.58,2.58,0,0,0-1.31.66c-.18.32-.54.92-1.45,2.82.11.28.65,1.56,1.75,4.06h0c.63-1.7,1.63-4.4,2.57-7.17l-.46-.37.11-.31.83,0,1.51,0-.07.31a2.66,2.66,0,0,0-1.2.56c-.38.69-1.89,4.71-3.14,7.89a3.75,3.75,0,0,1-.52.74h-.1c-.26-.55-1.08-2.58-1.9-4.5h0l-1.84,3.81a3,3,0,0,1-.53.69H4.68c-.39-.91-2.83-7-3.59-8.64A2,2,0,0,0,0,484.41Z"/><path d="M17.1,489.51c0-1.55-.65-1.86-1.45-1.86a1.8,1.8,0,0,0-.89.29c0,.35-.07.93-.14,1.33l-.17.06a3.75,3.75,0,0,1-.8-1.15,6.84,6.84,0,0,1,1.6-.92,2.79,2.79,0,0,1,1-.23,1.93,1.93,0,0,1,1.83,2.14c0,.94,0,2.16,0,3.13a2,2,0,0,0,1.13.84l-.12.22a1.08,1.08,0,0,1-.54.13c-.94,0-1.24-.44-1.38-.81h0a2.61,2.61,0,0,1-1.72.84,1.65,1.65,0,0,1-1.75-1.6,1.25,1.25,0,0,1,.56-1.15,12.38,12.38,0,0,1,2.91-1Zm-1.24,3.29a1.63,1.63,0,0,0,1.08-.5.54.54,0,0,0,.14-.34l0-1.75a9.4,9.4,0,0,0-1.93.69.76.76,0,0,0-.51.77A1.13,1.13,0,0,0,15.86,492.8Z"/><path d="M20.1,487.48a5.65,5.65,0,0,1,1.42-.45,7.2,7.2,0,0,1,.14,1.43h0a2.45,2.45,0,0,1,2-1.43.93.93,0,0,1,.65.21,6.47,6.47,0,0,1-.4,1.42l-.16.09a4.77,4.77,0,0,1-.47-.89.41.41,0,0,0-.21,0c-.45,0-1.09.57-1.39,1.34v3.5l1.43.39-.07.3-1.9,0-1.38,0,.07-.3.82-.4c0-1.47,0-3.78,0-4.48l-.73-.42Z"/><path d="M26.08,488.12l-.75-.32.08-.28a6.53,6.53,0,0,1,1.64-.49L27,488.15h0c1.15-.95,1.68-1.12,2.23-1.12,1.44,0,1.86,1.19,1.86,2.23v3.18a.25.25,0,0,0,.17.26l.87.34-.1.31-1.48,0-1.15,0,.09-.34.57-.39c0-.42.05-1.44.05-3.28,0-1.12-.66-1.57-1.39-1.57a2.69,2.69,0,0,0-1.69.87c0,1.05,0,3.74,0,4l.81.35-.09.32-1.28,0-1.36,0,.1-.31.77-.36c0-.24,0-1.5,0-3.31Z"/><path d="M39.11,490.21a3.1,3.1,0,0,1-3.1,3.31,3.06,3.06,0,0,1-3.08-3.16A3.24,3.24,0,0,1,36.05,487,3.07,3.07,0,0,1,39.11,490.21Zm-5,.07c0,1.35.73,2.77,2,2.77s1.81-1.47,1.81-2.71-.66-2.86-1.92-2.86S34.09,488.82,34.09,490.28Z"/><path d="M43.89,487a2.8,2.8,0,0,1,1.72.52,6.86,6.86,0,0,1-.47,1.41l-.21.1a10.39,10.39,0,0,1-.41-1.44,1.18,1.18,0,0,0-.59-.11,2.49,2.49,0,0,0-2.48,2.69A2.52,2.52,0,0,0,44,492.89a1.25,1.25,0,0,0,.4-.13A6.6,6.6,0,0,1,45.6,492l.08.17a3,3,0,0,1-.88,1.17,4.7,4.7,0,0,1-1.32.23,3.05,3.05,0,0,1-3.13-3.18A3.33,3.33,0,0,1,43.89,487Z"/><path d="M49.34,493.05l-.07.3-1.56,0-1.4,0,.1-.3.81-.4c0-.24,0-1.09,0-2.69,0-1.95,0-3.78,0-5.55l-.77-.38.12-.25a14,14,0,0,1,1.73-.45c0,1.56,0,3.34,0,5.07,0,.93,0,4,0,4.25Zm3.36.52a2.83,2.83,0,0,1-1.74-.68,26.9,26.9,0,0,1-2.44-2.76V490c.65-.71,1.42-1.59,2-2.32l.25-.69a12,12,0,0,1,1.8.17l-.18.29c-.19.12-1.1.4-1.4.54-.54.53-.71.71-1.5,1.59v0c.86,1.09,2.61,3,3.32,3.82Z"/><path d="M56.85,484.24a26.23,26.23,0,0,1,2.78-.22,4.4,4.4,0,0,1,2.53.59,2.46,2.46,0,0,1,1.12,2.14,2.84,2.84,0,0,1-2.94,2.87,2,2,0,0,1-.54-.05l-.14-.34a2.3,2.3,0,0,0,2.45-2.41c0-1.82-1.38-2.37-3.2-2.28v3.79c0,3.37.09,4,.09,4.28l1.51.42-.13.32-2,0-1.58,0,.07-.31,1-.42a41.12,41.12,0,0,0,.06-4.22v-3.61l-1.14-.24Z"/><path d="M64.6,487.48A5.57,5.57,0,0,1,66,487a6.52,6.52,0,0,1,.14,1.43h0a2.45,2.45,0,0,1,2-1.43,1,1,0,0,1,.66.21,6.48,6.48,0,0,1-.41,1.42l-.15.09a4.16,4.16,0,0,1-.48-.89.41.41,0,0,0-.21,0c-.45,0-1.09.57-1.39,1.34v3.5l1.43.39-.07.3-1.9,0-1.38,0,.07-.3.82-.4c0-1.47,0-3.78,0-4.48l-.73-.42Z"/><path d="M75.69,490.21a3.1,3.1,0,0,1-3.1,3.31,3.06,3.06,0,0,1-3.08-3.16A3.25,3.25,0,0,1,72.63,487,3.07,3.07,0,0,1,75.69,490.21Zm-5,.07c0,1.35.73,2.77,2,2.77s1.8-1.47,1.8-2.71-.66-2.86-1.92-2.86S70.67,488.82,70.67,490.28Z"/><path d="M76.69,494.64a2.29,2.29,0,0,0,.89-1.6.79.79,0,0,0-.16-.48l-.52-.28v-.21l1-.61h.18a1.24,1.24,0,0,1,.45,1.1A2.84,2.84,0,0,1,77,495Z"/><path d="M83.3,484.1l1.57,0,1.65,0-.11.33-1,.39v3.68c0,2.23,0,4,0,4.19l3.14.18c.34-.5.93-1.41,1.23-1.78l.28,0a17.24,17.24,0,0,1-.46,2.32c-.49,0-1.75-.06-4.73-.06l-1.89,0,.09-.31,1.18-.39c0-.2.06-1.94.06-4.13v-3.7l-1.18-.41Z"/><path d="M91.18,487.42a9.24,9.24,0,0,1,1.67-.39v2.8c0,1.57,0,2.38,0,2.8l1,.41-.1.31-1.49,0-1.37,0L91,493l.81-.41c0-.46,0-1.7,0-2.83V488l-.75-.35Zm1.24-3.25a1.68,1.68,0,0,1,.63.72l0,.11a2.35,2.35,0,0,1-.67.73l-.1,0a2.48,2.48,0,0,1-.63-.73l0-.11a3,3,0,0,1,.7-.75Z"/><path d="M99.07,487.84v0a2,2,0,0,1,.5,1.42,2.24,2.24,0,0,1-2.39,2.17,2.36,2.36,0,0,1-1.08-.24,1.34,1.34,0,0,0-.45.69.8.8,0,0,0,.67.63,15,15,0,0,1,2.79,0,1.59,1.59,0,0,1,.85.33,1.46,1.46,0,0,1,.52,1.15,2.51,2.51,0,0,1-1.09,1.92,4,4,0,0,1-2.51.9c-1.33,0-2.38-.7-2.38-1.7a.54.54,0,0,1,.16-.36l1.2-1.35v0a2.86,2.86,0,0,1-.54-.38,1.51,1.51,0,0,1-.51-.91c0-.16.49-.65,1-1a1.94,1.94,0,0,1-.92-1.73A2.36,2.36,0,0,1,97.42,487a6.77,6.77,0,0,1,1,.11c.45.09.77.14,1,.16l1.21-.49.06.12-.59.84Zm-2.79,5.7a2.79,2.79,0,0,0-.77,1.25c0,1,1,1.3,1.83,1.3,1.2,0,2.29-.53,2.29-1.68a1,1,0,0,0-.74-.94,6.7,6.7,0,0,0-1.4-.09A3.38,3.38,0,0,0,96.28,493.54Zm-.42-4.31c0,.85.45,1.77,1.39,1.77s1.34-.75,1.34-1.8a1.55,1.55,0,0,0-1.37-1.72C96.32,487.48,95.86,488.32,95.86,489.23Z"/><path d="M107.06,492.35c0,.24.07.3.27.38l.78.35-.1.3a14.36,14.36,0,0,1-2-.12,33.3,33.3,0,0,0,.13-3.55c0-1.7-1-1.94-1.62-1.94a2.37,2.37,0,0,0-1.51.56c0,1.36,0,4.05,0,4.33l1,.39-.12.3-1.45,0-1.36,0,.1-.3.75-.39c0-.21,0-1.45,0-3.29s0-3.38,0-5l-.8-.35.08-.27c.37-.11.9-.25,1.78-.45,0,1.4,0,3,0,4.54l0,0a3.06,3.06,0,0,1,2-.86,2,2,0,0,1,2.07,2.09Z"/><path d="M112.58,487.21l-.27.48-1.92.15v4a1,1,0,0,0,.25.68,1.07,1.07,0,0,0,.7.21,2,2,0,0,0,1.14-.32h.07l0,.42a1.93,1.93,0,0,1-1.53.68,1.76,1.76,0,0,1-1.26-.56,2.28,2.28,0,0,1-.33-1.53v-3.59l-1-.15.26-.48h.71a14,14,0,0,1,.28-1.58,1.21,1.21,0,0,1,.76-.45l-.06,2Z"/><path d="M113.47,494.64a2.31,2.31,0,0,0,.88-1.6.78.78,0,0,0-.15-.48l-.52-.28v-.21l1-.61h.18a1.22,1.22,0,0,1,.45,1.1,2.81,2.81,0,0,1-1.59,2.4Z"/><path d="M123.78,487.21l-.27.48-1.92.15v4a1,1,0,0,0,.25.68,1.07,1.07,0,0,0,.7.21,2,2,0,0,0,1.14-.32h.07l0,.42a1.93,1.93,0,0,1-1.53.68,1.76,1.76,0,0,1-1.26-.56,2.22,2.22,0,0,1-.33-1.53v-3.59l-1-.15.26-.48h.71a14,14,0,0,1,.28-1.58,1.21,1.21,0,0,1,.76-.45l-.06,2Z"/><path d="M130.16,492.35c0,.24.07.3.27.38l.78.35-.1.3a14.36,14.36,0,0,1-2-.12c.05-.58.13-1.49.13-3.55,0-1.7-1-1.94-1.62-1.94a2.37,2.37,0,0,0-1.51.56c0,1.36,0,4.05,0,4.33l1,.39-.12.3-1.45,0-1.36,0,.1-.3.75-.39c0-.21,0-1.45,0-3.29s0-3.38,0-5l-.8-.35.08-.27c.37-.11.9-.25,1.78-.45,0,1.4,0,3,0,4.54l0,0a3.06,3.06,0,0,1,2-.86,2,2,0,0,1,2.07,2.09Z"/><path d="M133.07,490a1.48,1.48,0,0,0,0,.21,2.34,2.34,0,0,0,2.31,2.59,1.34,1.34,0,0,0,.5-.08c.46-.31.83-.56,1.12-.72l.07.23a3.19,3.19,0,0,1-.73.92,4.42,4.42,0,0,1-1.47.34,2.85,2.85,0,0,1-2.88-3.11,3.17,3.17,0,0,1,3-3.38,2.23,2.23,0,0,1,2.3,2.37c0,.17-.05.39-.15.45a3.9,3.9,0,0,1-1.27.18Zm3-.49a1.31,1.31,0,0,0,.07-.44,1.46,1.46,0,0,0-1.33-1.61c-1.28,0-1.74,1.49-1.76,2.05Z"/><path d="M145.08,487a2.86,2.86,0,0,1,1.73.52,7.59,7.59,0,0,1-.48,1.41l-.21.1a10.39,10.39,0,0,1-.41-1.44,1.13,1.13,0,0,0-.58-.11,2.48,2.48,0,0,0-2.48,2.69,2.51,2.51,0,0,0,2.59,2.69,1.2,1.2,0,0,0,.39-.13,6.6,6.6,0,0,1,1.16-.81l.09.17a3.09,3.09,0,0,1-.88,1.17,4.84,4.84,0,0,1-1.32.23,3.06,3.06,0,0,1-3.14-3.18A3.33,3.33,0,0,1,145.08,487Z"/><path d="M153.84,490.21a3.1,3.1,0,0,1-3.1,3.31,3.06,3.06,0,0,1-3.08-3.16,3.24,3.24,0,0,1,3.12-3.33A3.07,3.07,0,0,1,153.84,490.21Zm-5,.07c0,1.35.73,2.77,2,2.77s1.81-1.47,1.81-2.71-.66-2.86-1.92-2.86S148.82,488.82,148.82,490.28Z"/><path d="M155.75,488.08l-.76-.28.09-.28a7.29,7.29,0,0,1,1.65-.49l-.07,1.16h0a3.86,3.86,0,0,1,2.19-1.16,1.76,1.76,0,0,1,1.68,1.18,3.58,3.58,0,0,1,2.32-1.18,1.89,1.89,0,0,1,1.88,2.1v3.35c0,.13.1.2.25.27l.77.3-.06.3-1.45,0-1.25,0,.07-.31.63-.39c0-.53.07-1.49.06-3,0-.73-.09-1.82-1.38-1.82a2.68,2.68,0,0,0-1.73.87,10.49,10.49,0,0,1,.08,1.21v2.78l.84.4-.09.3-1.23,0-1.26,0,.07-.32.66-.37c0-1,0-2.13,0-3.16,0-.66-.1-1.71-1.4-1.71a2.79,2.79,0,0,0-1.63.88c0,1.79,0,3.49,0,4l.89.37-.1.32-1.35,0-1.32,0L155,493l.76-.37c0-.31,0-1.58,0-2.77Z"/><path d="M168.06,487.93h0A4.17,4.17,0,0,1,170,487a2.81,2.81,0,0,1,2.71,3,3.48,3.48,0,0,1-3.41,3.51,2.94,2.94,0,0,1-1.17-.44l0,0c0,1.09,0,2,.05,2.76l1.32.39-.14.31-1.75,0-1.37,0,.12-.34.72-.32c0-.53.07-1.87.07-3.91V488l-.79-.41.14-.25a6.91,6.91,0,0,1,1.61-.39Zm.05,4.63a2.38,2.38,0,0,0,1.18.34,2.49,2.49,0,0,0,2.35-2.7,2.2,2.2,0,0,0-2-2.43,2.75,2.75,0,0,0-1.49.61Z"/><path d="M176.56,493l-.14.32-1.39,0-1.49,0,.09-.3.9-.37c0-.62,0-1.49,0-4.91,0-1.26,0-2.73-.05-3.43l-.82-.31.16-.28a14.94,14.94,0,0,1,1.72-.42c0,1.56,0,2.87,0,4.39,0,2.81,0,3.86,0,5Z"/><path d="M177.48,487.42a9.24,9.24,0,0,1,1.67-.39v2.8c0,1.57,0,2.38,0,2.8l1,.41-.1.31-1.48,0-1.37,0,.09-.31.82-.41c0-.46,0-1.7,0-2.83V488l-.76-.35Zm1.23-3.25a1.62,1.62,0,0,1,.63.72l0,.11a2.48,2.48,0,0,1-.67.73l-.1,0a2.35,2.35,0,0,1-.63-.73l0-.11a2.84,2.84,0,0,1,.7-.75Z"/><path d="M181,490.71l.45-.93.72,0,2.69-.15v.07l-.57.64Z"/><path d="M1.22,504.88l-.76-.28.09-.28a6.39,6.39,0,0,1,1.65-.49L2.13,505h0a3.84,3.84,0,0,1,2.18-1.16A1.76,1.76,0,0,1,6,505a3.62,3.62,0,0,1,2.33-1.18,1.89,1.89,0,0,1,1.88,2.1v3.35c0,.13.09.2.25.27l.77.3-.06.3-1.45,0-1.25,0,.07-.31.63-.39c0-.53.07-1.49.06-3,0-.73-.09-1.82-1.38-1.82a2.66,2.66,0,0,0-1.73.87c0,.26.08.71.08,1.21v2.78l.84.4-.09.3-1.23,0-1.26,0,.07-.32.66-.37c0-1,0-2.13,0-3.16,0-.66-.09-1.71-1.4-1.71a2.8,2.8,0,0,0-1.62.88c0,1.79,0,3.49,0,4l.9.37-.1.32-1.36,0-1.31,0,.08-.32.76-.37c0-.31,0-1.58,0-2.77Z"/><path d="M13.12,506.83a.75.75,0,0,0,0,.21,2.34,2.34,0,0,0,2.32,2.59,1.37,1.37,0,0,0,.5-.08c.46-.31.83-.56,1.12-.72l.07.23a3.19,3.19,0,0,1-.73.92,4.42,4.42,0,0,1-1.47.34A2.85,2.85,0,0,1,12,507.21a3.17,3.17,0,0,1,3-3.38,2.23,2.23,0,0,1,2.29,2.37c0,.17,0,.39-.14.45a3.9,3.9,0,0,1-1.27.18Zm3-.49a1.1,1.1,0,0,0,.07-.44,1.45,1.45,0,0,0-1.33-1.61c-1.27,0-1.73,1.49-1.75,2Z"/><path d="M19.11,504.92l-.76-.32.09-.28a6,6,0,0,1,1.64-.49L20,505h0c1.15-.95,1.68-1.12,2.23-1.12,1.44,0,1.86,1.19,1.86,2.23v3.18a.25.25,0,0,0,.17.26l.87.34-.1.31-1.49,0-1.15,0,.1-.34.56-.39c0-.42.06-1.44.06-3.28,0-1.12-.66-1.57-1.39-1.57a2.64,2.64,0,0,0-1.69.87c0,1.05,0,3.74,0,4l.81.35-.1.32-1.27,0-1.36,0,.1-.31.77-.36c0-.24,0-1.5,0-3.31Z"/><path d="M29.65,504l-.26.48-1.92.15v4a1,1,0,0,0,.25.68,1.07,1.07,0,0,0,.7.21,2,2,0,0,0,1.14-.32h.07l0,.42a1.94,1.94,0,0,1-1.53.68,1.76,1.76,0,0,1-1.26-.56,2.21,2.21,0,0,1-.34-1.53v-3.59l-.95-.15.25-.48h.72a12,12,0,0,1,.28-1.58,1.21,1.21,0,0,1,.75-.45l-.05,2Z"/><path d="M33.91,506.31c0-1.55-.65-1.86-1.44-1.86a1.8,1.8,0,0,0-.9.29,11,11,0,0,1-.14,1.33l-.17.06a3.93,3.93,0,0,1-.8-1.15,7.06,7.06,0,0,1,1.6-.92,2.84,2.84,0,0,1,1-.23A1.94,1.94,0,0,1,34.88,506c0,.94,0,2.16,0,3.13a2,2,0,0,0,1.12.84l-.11.22a1.13,1.13,0,0,1-.55.13c-.94,0-1.23-.44-1.37-.81h0a2.59,2.59,0,0,1-1.72.84,1.66,1.66,0,0,1-1.75-1.6,1.27,1.27,0,0,1,.56-1.15,12.38,12.38,0,0,1,2.91-1Zm-1.23,3.29a1.65,1.65,0,0,0,1.08-.5.69.69,0,0,0,.14-.34l0-1.75a9.62,9.62,0,0,0-1.93.69.76.76,0,0,0-.5.77A1.12,1.12,0,0,0,32.68,509.6Z"/><path d="M36.92,504.28a5.19,5.19,0,0,1,1.41-.45,6.52,6.52,0,0,1,.14,1.43h0a2.45,2.45,0,0,1,2-1.43,1,1,0,0,1,.66.21,6.48,6.48,0,0,1-.41,1.42l-.15.09a4.16,4.16,0,0,1-.48-.89.39.39,0,0,0-.21,0c-.45,0-1.09.57-1.39,1.34v3.5l1.43.39-.07.3-1.9,0-1.37,0,.07-.3.81-.4c0-1.47.05-3.78.05-4.48l-.72-.42Z"/><path d="M46.2,504l.95,0c.4,0,.82,0,1.14,0l-.06.33a2.08,2.08,0,0,0-.87.6c-.56,1.22-1.57,3.78-3,7.13-.1.42-.21,1-.34,1.51a.72.72,0,0,1-.33.06,1.46,1.46,0,0,1-.93-.39c.14-.26.7-1,1.15-1.56.2-.39.56-1.15.79-1.68-.13-.24-1.38-3.73-1.94-5.06a1.49,1.49,0,0,0-1-.61l.13-.33c.39,0,.78,0,1.19,0l1.27,0-.09.34-.48.34c.14.46.6,1.75,1.43,4h0c.61-1.56,1.23-3.2,1.5-4l-.68-.34Z"/><path d="M55.85,504l-.27.48-1.92.15v4a1,1,0,0,0,.25.68,1.07,1.07,0,0,0,.7.21,2,2,0,0,0,1.14-.32h.07l0,.42a1.93,1.93,0,0,1-1.53.68,1.76,1.76,0,0,1-1.26-.56,2.28,2.28,0,0,1-.33-1.53v-3.59l-1-.15L52,504h.71a14,14,0,0,1,.28-1.58,1.21,1.21,0,0,1,.76-.45l-.06,2Z"/><path d="M57.55,506.83a1.48,1.48,0,0,0,0,.21,2.34,2.34,0,0,0,2.31,2.59,1.43,1.43,0,0,0,.51-.08c.46-.31.82-.56,1.12-.72l.07.23a3.37,3.37,0,0,1-.73.92,4.48,4.48,0,0,1-1.47.34,2.86,2.86,0,0,1-2.89-3.11,3.17,3.17,0,0,1,3-3.38,2.23,2.23,0,0,1,2.3,2.37c0,.17,0,.39-.14.45a4,4,0,0,1-1.28.18Zm3-.49a1.31,1.31,0,0,0,.07-.44,1.46,1.46,0,0,0-1.33-1.61c-1.28,0-1.74,1.49-1.75,2Z"/><path d="M65.52,506.18h0a16.31,16.31,0,0,0,.81-1.44,1.6,1.6,0,0,0,.11-.74h2.06l-.1.32a4.75,4.75,0,0,0-1.42.6c-.35.47-.63.83-1.22,1.71.43.8,1.2,2.09,1.45,2.47a1,1,0,0,0,.48.39l1.06.32-.12.32c-.42,0-1.49.07-2,.07-.35-.67-.59-1.14-1.46-2.63h0c-.64,1.08-.81,1.36-1.08,1.88a1.59,1.59,0,0,0,.38.4l-.1.3-1,0-1.18,0,.07-.31.77-.34a1.1,1.1,0,0,0,.56-.44c.41-.56.67-.9,1.37-2-.84-1.48-1.15-2-1.36-2.3a4.13,4.13,0,0,0-1.21-.47l.12-.31h2.16l-.09.55Z"/><path d="M73.12,504l-.26.48-1.92.15v4a1,1,0,0,0,.25.68,1.07,1.07,0,0,0,.7.21,2,2,0,0,0,1.14-.32h.07l0,.42a1.94,1.94,0,0,1-1.53.68,1.76,1.76,0,0,1-1.26-.56,2.21,2.21,0,0,1-.34-1.53v-3.59l-1-.15.25-.48H70a12,12,0,0,1,.28-1.58A1.21,1.21,0,0,1,71,502l0,2Z"/><path d="M75.15,508.61a2.26,2.26,0,0,1,.74.81l0,.13a2.37,2.37,0,0,1-.76.78l-.1,0a2.33,2.33,0,0,1-.74-.79l0-.14a2.7,2.7,0,0,1,.76-.78Z"/><path d="M80.26,500.9l1.39,0,1.19,0-.1.31-.42.32c.25.75.73,1.87,2.93,7.3h0c.43-.87.88-1.79,1.69-3.61-.52-1.28-1.12-2.65-1.53-3.49a1.93,1.93,0,0,0-1.07-.52l.12-.31,1.36,0,.63,0,0,.05.06.63a24.53,24.53,0,0,0,1,2.48h0a26.46,26.46,0,0,0,1.06-2.48l0-.63,0-.05.64,0,1.32,0-.1.31a2.54,2.54,0,0,0-1.3.66c-.18.32-.55.92-1.46,2.82.12.28.66,1.56,1.75,4.06h0c.63-1.7,1.64-4.4,2.58-7.17l-.46-.37.11-.31.83,0,1.51,0-.07.31a2.77,2.77,0,0,0-1.21.56c-.37.69-1.89,4.71-3.13,7.89a3.75,3.75,0,0,1-.52.74h-.1c-.27-.55-1.08-2.58-1.9-4.5h0l-1.84,3.81a3,3,0,0,1-.53.69h-.08c-.4-.91-2.83-7-3.59-8.64a2,2,0,0,0-1.09-.55Z"/><path d="M94.23,504.22a9.24,9.24,0,0,1,1.67-.39v2.8c0,1.57,0,2.38,0,2.8l1,.41-.1.31-1.49,0-1.37,0,.1-.31.81-.41c0-.46,0-1.7,0-2.83v-1.77l-.75-.35ZM95.47,501a1.62,1.62,0,0,1,.63.72l0,.11a2.38,2.38,0,0,1-.68.73l-.09,0a2.38,2.38,0,0,1-.64-.73l0-.11a3,3,0,0,1,.7-.75Z"/><path d="M101.56,504l-.27.48-1.92.15v4a1,1,0,0,0,.25.68,1.13,1.13,0,0,0,.71.21,2,2,0,0,0,1.13-.32h.07l0,.42a1.92,1.92,0,0,1-1.52.68,1.78,1.78,0,0,1-1.27-.56,2.28,2.28,0,0,1-.33-1.53v-3.59l-.95-.15.25-.48h.71a14,14,0,0,1,.28-1.58,1.21,1.21,0,0,1,.76-.45l-.06,2Z"/><path d="M107.94,509.15c0,.24.07.3.27.38l.78.35-.09.3a14.42,14.42,0,0,1-2.05-.12,33.3,33.3,0,0,0,.13-3.55c0-1.7-1-1.94-1.61-1.94a2.38,2.38,0,0,0-1.52.56c0,1.36,0,4.05,0,4.33l1,.39-.12.3-1.45,0-1.36,0,.1-.3.75-.39c0-.21,0-1.45,0-3.29s0-3.38-.06-5l-.8-.35.09-.27c.36-.11.89-.25,1.77-.45,0,1.4,0,3,0,4.54l0,0a3.06,3.06,0,0,1,2-.86,2,2,0,0,1,2.07,2.09Z"/><path d="M113.92,504.88l-.76-.28.09-.28a6.39,6.39,0,0,1,1.65-.49l-.07,1.16h0a3.84,3.84,0,0,1,2.18-1.16,1.76,1.76,0,0,1,1.68,1.18,3.62,3.62,0,0,1,2.33-1.18,1.89,1.89,0,0,1,1.87,2.1v3.35c0,.13.1.2.26.27l.77.3-.06.3-1.46,0-1.24,0,.07-.31.63-.39c0-.53.07-1.49,0-3,0-.73-.08-1.82-1.37-1.82a2.68,2.68,0,0,0-1.74.87,10.07,10.07,0,0,1,.09,1.21l0,2.78.85.4-.09.3-1.23,0-1.26,0,.07-.32.66-.37c0-1,0-2.13,0-3.16,0-.66-.09-1.71-1.4-1.71a2.8,2.8,0,0,0-1.62.88c0,1.79,0,3.49,0,4l.9.37-.1.32-1.36,0-1.31,0,.08-.32.76-.37c0-.31,0-1.58,0-2.77Z"/><path d="M128.38,504l1,0c.4,0,.82,0,1.14,0l-.06.33a2.08,2.08,0,0,0-.87.6c-.56,1.22-1.57,3.78-3,7.13-.1.42-.21,1-.34,1.51a.72.72,0,0,1-.33.06,1.46,1.46,0,0,1-.93-.39c.14-.26.7-1,1.15-1.56.2-.39.56-1.15.79-1.68-.13-.24-1.38-3.73-1.94-5.06a1.49,1.49,0,0,0-1-.61l.13-.33c.39,0,.78,0,1.19,0l1.27,0-.09.34-.48.34c.14.46.6,1.75,1.43,4h0c.61-1.56,1.23-3.2,1.5-4l-.68-.34Z"/><path d="M136.21,504.32l-.58.35c.21.69.62,1.91,1.33,4.05h0c.51-1.3,1-2.37,1.38-3.46l-.12-.8a4.1,4.1,0,0,1,.92-.48l.09.08.06,1c.34,1,.84,2.26,1.4,3.73h0c.5-1.53.84-2.61,1.27-4.12l-.78-.35.13-.34c.36,0,.74,0,1.1,0s.74,0,1.09,0l-.07.34a1.77,1.77,0,0,0-.85.52c-.18.43-.93,2.55-1.77,5a5.46,5.46,0,0,1-.46.59h-.11c-.49-1.25-1-2.72-1.67-4.29h0c-.58,1.37-.86,2-1.53,3.68a5.08,5.08,0,0,1-.45.61h-.11c-.49-1.43-1.42-4.16-1.94-5.52-.18-.27-.36-.38-.89-.55l.12-.34,1.28,0c.38,0,.8,0,1.19,0Z"/><path d="M145.14,506.83a.75.75,0,0,0,0,.21,2.34,2.34,0,0,0,2.31,2.59,1.43,1.43,0,0,0,.51-.08c.46-.31.82-.56,1.12-.72l.07.23a3.37,3.37,0,0,1-.73.92,4.42,4.42,0,0,1-1.47.34,2.86,2.86,0,0,1-2.89-3.11,3.18,3.18,0,0,1,3-3.38,2.23,2.23,0,0,1,2.3,2.37c0,.17,0,.39-.14.45a3.9,3.9,0,0,1-1.27.18Zm3-.49a1.31,1.31,0,0,0,.07-.44,1.46,1.46,0,0,0-1.33-1.61c-1.27,0-1.73,1.49-1.75,2Z"/><path d="M156.05,509.13a2.57,2.57,0,0,0,1.09.84l-.1.23a.93.93,0,0,1-.56.12,1.46,1.46,0,0,1-1.33-.82h0a3.66,3.66,0,0,1-1.7.82,3,3,0,0,1-3-3.11,3.39,3.39,0,0,1,3.37-3.38,2.57,2.57,0,0,1,1.2.44l0,0c0-1.06,0-1.88,0-3.05l-.87-.37.13-.25a8.83,8.83,0,0,1,1.81-.45c0,1.56,0,2.9,0,4.43Zm-1-4.36a2.26,2.26,0,0,0-1.15-.34,2.48,2.48,0,0,0-2.37,2.59,2.39,2.39,0,0,0,2.25,2.53,2.32,2.32,0,0,0,1.27-.48Z"/><path d="M162.29,504.64v0a2,2,0,0,1,.5,1.42,2.24,2.24,0,0,1-2.39,2.17,2.36,2.36,0,0,1-1.08-.24,1.34,1.34,0,0,0-.45.69.8.8,0,0,0,.67.63,15,15,0,0,1,2.79,0,1.63,1.63,0,0,1,.86.33,1.49,1.49,0,0,1,.51,1.15,2.51,2.51,0,0,1-1.09,1.92,4,4,0,0,1-2.51.9c-1.33,0-2.38-.7-2.38-1.7a.54.54,0,0,1,.16-.36l1.2-1.35v0a2.54,2.54,0,0,1-.53-.38,1.48,1.48,0,0,1-.52-.91c0-.16.49-.65,1-1.05a2,2,0,0,1-.92-1.73,2.37,2.37,0,0,1,2.58-2.28,6.77,6.77,0,0,1,1,.11c.45.09.77.14,1,.16l1.2-.49.06.12-.59.84Zm-2.79,5.7a2.88,2.88,0,0,0-.77,1.25c0,1,1,1.3,1.84,1.3,1.19,0,2.28-.53,2.28-1.68a1,1,0,0,0-.74-.94,6.7,6.7,0,0,0-1.4-.09A3.43,3.43,0,0,0,159.5,510.34Zm-.42-4.31c0,.85.45,1.77,1.39,1.77s1.34-.75,1.34-1.8a1.55,1.55,0,0,0-1.37-1.72C159.54,504.28,159.08,505.12,159.08,506Z"/><path d="M165.49,506.83a1.48,1.48,0,0,0,0,.21,2.34,2.34,0,0,0,2.31,2.59,1.34,1.34,0,0,0,.5-.08c.47-.31.83-.56,1.12-.72l.07.23a3.34,3.34,0,0,1-.72.92,4.48,4.48,0,0,1-1.47.34,2.86,2.86,0,0,1-2.89-3.11,3.17,3.17,0,0,1,3-3.38,2.23,2.23,0,0,1,2.3,2.37.64.64,0,0,1-.14.45,4,4,0,0,1-1.28.18Zm3-.49a1.31,1.31,0,0,0,.07-.44,1.46,1.46,0,0,0-1.33-1.61c-1.28,0-1.74,1.49-1.75,2Z"/><path d="M170.71,507.51l.45-.93.72,0,2.69-.15v.07l-.57.64Z"/><path d="M179.1,504.17a2.8,2.8,0,0,1,.69-.35l.11.11a7.75,7.75,0,0,1-.35,1.61l-.17.1c-.15-.28-.33-.74-.49-1.08a1.17,1.17,0,0,0-.81-.24,1,1,0,0,0-1.11,1,.82.82,0,0,0,.49.8c.35.21,1.21.56,1.67.78a1.59,1.59,0,0,1,1.08,1.47c0,1.46-1.53,1.91-2.37,1.91a4,4,0,0,1-2-.61,13.16,13.16,0,0,1,.33-1.47l.19-.09c.19.33.48,1.2.61,1.52a2.23,2.23,0,0,0,.86.16,1.24,1.24,0,0,0,1.38-1.08.87.87,0,0,0-.58-.88c-.38-.2-.85-.43-1.4-.68a1.7,1.7,0,0,1-1.17-1.61,1.82,1.82,0,0,1,2-1.75A1.79,1.79,0,0,1,179.1,504.17Z"/><path d="M187,509.15a.33.33,0,0,0,.26.38l.79.35-.1.3a14.42,14.42,0,0,1-2.05-.12,33.3,33.3,0,0,0,.13-3.55c0-1.7-1-1.94-1.61-1.94a2.35,2.35,0,0,0-1.51.56c0,1.36,0,4.05,0,4.33l1,.39-.11.3-1.46,0-1.36,0,.1-.3.76-.39c0-.21,0-1.45,0-3.29s0-3.38-.06-5l-.8-.35.09-.27c.36-.11.89-.25,1.78-.45,0,1.4,0,3,0,4.54l0,0a3.08,3.08,0,0,1,2-.86,2.06,2.06,0,0,1,2.08,2.09Z"/><path d="M192.26,506.31c0-1.55-.64-1.86-1.44-1.86a1.8,1.8,0,0,0-.9.29,11,11,0,0,1-.14,1.33l-.17.06a3.92,3.92,0,0,1-.79-1.15,7,7,0,0,1,1.59-.92,2.84,2.84,0,0,1,1-.23,1.94,1.94,0,0,1,1.84,2.14c0,.94,0,2.16,0,3.13a2,2,0,0,0,1.12.84l-.11.22a1.1,1.1,0,0,1-.55.13c-.94,0-1.23-.44-1.37-.81h0a2.61,2.61,0,0,1-1.73.84,1.66,1.66,0,0,1-1.75-1.6,1.27,1.27,0,0,1,.56-1.15,12.32,12.32,0,0,1,2.92-1ZM191,509.6a1.65,1.65,0,0,0,1.08-.5.69.69,0,0,0,.14-.34l0-1.75a9.74,9.74,0,0,0-1.94.69.76.76,0,0,0-.5.77A1.13,1.13,0,0,0,191,509.6Z"/><path d="M196.55,504.73h0a4.17,4.17,0,0,1,2-.91,2.8,2.8,0,0,1,2.7,3,3.47,3.47,0,0,1-3.4,3.51,3,3,0,0,1-1.18-.44l0,0c0,1.09,0,2,0,2.76l1.32.39-.14.31-1.75,0-1.38,0,.13-.34.72-.32c0-.53.06-1.87.06-3.91v-4l-.78-.41.14-.25a6.78,6.78,0,0,1,1.61-.39Zm0,4.63a2.38,2.38,0,0,0,1.18.34,2.49,2.49,0,0,0,2.35-2.7,2.2,2.2,0,0,0-2-2.43,2.72,2.72,0,0,0-1.49.61Z"/><path d="M203.57,506.83a1.48,1.48,0,0,0,0,.21,2.34,2.34,0,0,0,2.31,2.59,1.43,1.43,0,0,0,.51-.08c.46-.31.82-.56,1.12-.72l.07.23a3.57,3.57,0,0,1-.73.92,4.48,4.48,0,0,1-1.47.34,2.86,2.86,0,0,1-2.89-3.11,3.17,3.17,0,0,1,3-3.38,2.23,2.23,0,0,1,2.3,2.37c0,.17,0,.39-.14.45a4,4,0,0,1-1.28.18Zm3-.49a1.31,1.31,0,0,0,.07-.44,1.46,1.46,0,0,0-1.33-1.61c-1.28,0-1.74,1.49-1.75,2Z"/><path d="M214.48,509.13a2.63,2.63,0,0,0,1.09.84l-.09.23a1,1,0,0,1-.56.12,1.49,1.49,0,0,1-1.34-.82h0a3.57,3.57,0,0,1-1.69.82,3,3,0,0,1-3-3.11,3.39,3.39,0,0,1,3.36-3.38,2.6,2.6,0,0,1,1.21.44v0c0-1.06,0-1.88,0-3.05l-.87-.37.13-.25a8.66,8.66,0,0,1,1.8-.45c0,1.56,0,2.9,0,4.43Zm-1-4.36a2.24,2.24,0,0,0-1.15-.34A2.47,2.47,0,0,0,210,507a2.38,2.38,0,0,0,2.25,2.53,2.29,2.29,0,0,0,1.26-.48Z"/><path d="M3.61,521a3,3,0,0,1,.69-.35l.11.11a7.75,7.75,0,0,1-.35,1.61l-.17.1c-.15-.28-.33-.74-.49-1.08a1.17,1.17,0,0,0-.81-.24,1,1,0,0,0-1.1,1A.82.82,0,0,0,2,523c.35.21,1.2.56,1.66.78a1.59,1.59,0,0,1,1.08,1.47c0,1.46-1.53,1.91-2.37,1.91a3.9,3.9,0,0,1-2-.61A11.25,11.25,0,0,1,.66,525l.19-.1c.19.34.48,1.21.61,1.53a2.25,2.25,0,0,0,.87.16,1.23,1.23,0,0,0,1.37-1.08.87.87,0,0,0-.58-.88c-.37-.2-.85-.43-1.4-.68a1.72,1.72,0,0,1-1.17-1.61,1.82,1.82,0,0,1,2-1.75A1.79,1.79,0,0,1,3.61,521Z"/><path d="M6.89,523.63a1.48,1.48,0,0,0,0,.21,2.34,2.34,0,0,0,2.31,2.59,1.37,1.37,0,0,0,.5-.08c.46-.31.83-.56,1.12-.72l.07.23a3.19,3.19,0,0,1-.73.92,4.42,4.42,0,0,1-1.47.34A2.85,2.85,0,0,1,5.8,524a3.17,3.17,0,0,1,3-3.38A2.23,2.23,0,0,1,11.06,523c0,.17,0,.39-.14.45a3.9,3.9,0,0,1-1.27.18Zm3-.49a1.1,1.1,0,0,0,.07-.44,1.45,1.45,0,0,0-1.33-1.61c-1.27,0-1.73,1.49-1.75,2Z"/><path d="M12.26,521.08a5.27,5.27,0,0,1,1.42-.45,7.2,7.2,0,0,1,.14,1.43h0a2.45,2.45,0,0,1,2-1.43,1,1,0,0,1,.66.21,7.08,7.08,0,0,1-.41,1.42l-.16.09a4.77,4.77,0,0,1-.47-.89.41.41,0,0,0-.21,0c-.45,0-1.09.57-1.39,1.34v3.5l1.43.39-.07.3-1.9,0-1.38,0,.07-.3.82-.4c0-1.47.05-3.78.05-4.48l-.73-.42Z"/><path d="M17.54,521a8.44,8.44,0,0,1,1.67-.39v2.8c0,1.57,0,2.38,0,2.8l1,.41-.1.31-1.49,0-1.37,0,.1-.31.81-.41c0-.46,0-1.7,0-2.83v-1.77l-.75-.35Zm1.24-3.25a1.68,1.68,0,0,1,.63.72l-.05.11a2.35,2.35,0,0,1-.67.73l-.1,0a2.48,2.48,0,0,1-.63-.73l0-.11a3,3,0,0,1,.7-.75Z"/><path d="M20.92,526.68l.91-.42c0-.18,0-1.2,0-2.86v-1.94l-1-.23.24-.42h.73a4.29,4.29,0,0,1,.91-3,2.4,2.4,0,0,1,1.83-.87,1.49,1.49,0,0,1,1,.3,7.08,7.08,0,0,1-.45,1.2l-.19.11a6.24,6.24,0,0,1-.51-1.08l-.15,0c-.77,0-1.25.8-1.35,2.17,0,.43,0,.85-.05,1.2h1.83l-.25.45-1.58.17c0,.28,0,1,0,1.86,0,2.15,0,2.75,0,2.94l1.34.41-.1.31-1.87,0-1.43,0Z"/><path d="M28.34,521a2.8,2.8,0,0,1,.69-.35l.11.11a8.46,8.46,0,0,1-.35,1.61l-.17.1c-.16-.28-.34-.74-.49-1.08a1.17,1.17,0,0,0-.81-.24,1,1,0,0,0-1.11,1,.82.82,0,0,0,.49.8c.35.21,1.2.56,1.67.78a1.59,1.59,0,0,1,1.08,1.47c0,1.46-1.53,1.91-2.37,1.91a3.93,3.93,0,0,1-2-.61,13.16,13.16,0,0,1,.32-1.47l.2-.1c.18.34.48,1.21.6,1.53a2.29,2.29,0,0,0,.87.16,1.23,1.23,0,0,0,1.37-1.08.86.86,0,0,0-.57-.88c-.38-.2-.86-.43-1.4-.68a1.71,1.71,0,0,1-1.18-1.61A2,2,0,0,1,28.34,521Z"/><path d="M31.85,525.41a2.26,2.26,0,0,1,.74.81l0,.13a2.37,2.37,0,0,1-.76.78l-.1,0a2.33,2.33,0,0,1-.74-.79l0-.14a2.7,2.7,0,0,1,.76-.78Z"/><path d="M37.34,517.7l1.57,0,1.67,0-.1.33-1,.37v3.73c0,2.34,0,3.85.07,4.1l1.3.4-.1.32-1.77,0-1.85,0,.08-.32,1.14-.4c0-.23.08-1.76.08-4.1v-3.75L37.25,518Z"/><path d="M48.58,520.63a2.8,2.8,0,0,1,1.73.52,7.59,7.59,0,0,1-.48,1.41l-.21.1a10.39,10.39,0,0,1-.41-1.44,1.15,1.15,0,0,0-.59-.11,2.48,2.48,0,0,0-2.47,2.69,2.51,2.51,0,0,0,2.59,2.69,1.2,1.2,0,0,0,.39-.13,6.6,6.6,0,0,1,1.16-.81l.09.17a3,3,0,0,1-.89,1.17,4.69,4.69,0,0,1-1.31.23A3.06,3.06,0,0,1,45,523.94,3.33,3.33,0,0,1,48.58,520.63Z"/><path d="M51.62,521.08a5.19,5.19,0,0,1,1.41-.45,6.52,6.52,0,0,1,.14,1.43h0a2.45,2.45,0,0,1,2-1.43,1,1,0,0,1,.66.21,6.48,6.48,0,0,1-.41,1.42l-.15.09a4.67,4.67,0,0,1-.48-.89.39.39,0,0,0-.21,0c-.45,0-1.09.57-1.38,1.34v3.5l1.42.39-.07.3-1.9,0-1.37,0,.07-.3.81-.4c0-1.47.06-3.78.06-4.48l-.73-.42Z"/><path d="M57.63,523.63a.75.75,0,0,0,0,.21,2.34,2.34,0,0,0,2.31,2.59,1.43,1.43,0,0,0,.51-.08c.46-.31.82-.56,1.12-.72l.07.23a3.37,3.37,0,0,1-.73.92,4.42,4.42,0,0,1-1.47.34A2.86,2.86,0,0,1,56.53,524a3.18,3.18,0,0,1,3-3.38A2.23,2.23,0,0,1,61.8,523c0,.17,0,.39-.14.45a3.9,3.9,0,0,1-1.27.18Zm3-.49a1.31,1.31,0,0,0,.07-.44,1.46,1.46,0,0,0-1.33-1.61c-1.27,0-1.74,1.49-1.75,2Z"/><path d="M66.35,523.11c0-1.55-.65-1.86-1.44-1.86a1.8,1.8,0,0,0-.9.29,11,11,0,0,1-.14,1.33l-.17.06a3.75,3.75,0,0,1-.8-1.15,7.06,7.06,0,0,1,1.6-.92,2.84,2.84,0,0,1,1-.23,1.94,1.94,0,0,1,1.84,2.14c0,.94,0,2.16,0,3.13a2,2,0,0,0,1.12.84l-.11.22a1.13,1.13,0,0,1-.55.13c-.94,0-1.23-.44-1.37-.81h0a2.59,2.59,0,0,1-1.72.84,1.66,1.66,0,0,1-1.75-1.6,1.27,1.27,0,0,1,.56-1.15,12.38,12.38,0,0,1,2.91-1Zm-1.23,3.29a1.65,1.65,0,0,0,1.08-.5.59.59,0,0,0,.13-.34l0-1.75a9.62,9.62,0,0,0-1.93.69.76.76,0,0,0-.5.77A1.12,1.12,0,0,0,65.12,526.4Z"/><path d="M72.83,520.81l-.26.48-1.92.15v4a1,1,0,0,0,.25.68,1.07,1.07,0,0,0,.7.21,2,2,0,0,0,1.13-.32h.07l0,.42a1.94,1.94,0,0,1-1.53.68,1.76,1.76,0,0,1-1.26-.56,2.21,2.21,0,0,1-.34-1.53v-3.59l-1-.15.25-.48h.72a12,12,0,0,1,.28-1.58,1.19,1.19,0,0,1,.75-.45l0,2Z"/><path d="M74.54,523.63a.75.75,0,0,0,0,.21,2.34,2.34,0,0,0,2.32,2.59,1.37,1.37,0,0,0,.5-.08c.46-.31.83-.56,1.12-.72l.07.23a3.19,3.19,0,0,1-.73.92,4.42,4.42,0,0,1-1.47.34A2.85,2.85,0,0,1,73.45,524a3.17,3.17,0,0,1,3-3.38A2.23,2.23,0,0,1,78.71,523c0,.17,0,.39-.14.45a3.9,3.9,0,0,1-1.27.18Zm3-.49a1.1,1.1,0,0,0,.07-.44,1.45,1.45,0,0,0-1.33-1.61c-1.27,0-1.73,1.49-1.75,2Z"/><path d="M89.79,523.11c0-1.55-.65-1.86-1.45-1.86a1.8,1.8,0,0,0-.89.29c0,.35-.07.93-.14,1.33l-.17.06a3.75,3.75,0,0,1-.8-1.15,6.84,6.84,0,0,1,1.6-.92,2.79,2.79,0,0,1,1-.23,1.93,1.93,0,0,1,1.83,2.14c0,.94,0,2.16,0,3.13a2,2,0,0,0,1.13.84l-.12.22a1.08,1.08,0,0,1-.54.13c-.94,0-1.24-.44-1.38-.81h0a2.59,2.59,0,0,1-1.72.84,1.65,1.65,0,0,1-1.75-1.6,1.25,1.25,0,0,1,.56-1.15,12.38,12.38,0,0,1,2.91-1Zm-1.24,3.29a1.63,1.63,0,0,0,1.08-.5.54.54,0,0,0,.14-.34l0-1.75a9.4,9.4,0,0,0-1.93.69.76.76,0,0,0-.51.77A1.13,1.13,0,0,0,88.55,526.4Z"/><path d="M96.73,521.72,96,521.4l.09-.28a5.92,5.92,0,0,1,1.64-.49l-.06,1.12h0c1.15-1,1.68-1.12,2.23-1.12,1.44,0,1.86,1.19,1.86,2.23V526a.25.25,0,0,0,.17.26l.86.34-.09.31-1.49,0-1.15,0,.1-.34.56-.39c0-.42.06-1.44.06-3.28,0-1.12-.66-1.57-1.39-1.57a2.64,2.64,0,0,0-1.69.87c0,1,0,3.74,0,4l.81.35-.1.32-1.27,0-1.36,0,.1-.31.77-.36c0-.24,0-1.5,0-3.31Z"/><path d="M103.71,521a8.44,8.44,0,0,1,1.67-.39v2.8c0,1.57,0,2.38,0,2.8l1,.41-.1.31-1.49,0-1.37,0,.1-.31.81-.41c0-.46,0-1.7,0-2.83v-1.77l-.76-.35Zm1.24-3.25a1.62,1.62,0,0,1,.63.72l0,.11a2.38,2.38,0,0,1-.68.73l-.09,0a2.38,2.38,0,0,1-.64-.73l0-.11a3,3,0,0,1,.7-.75Z"/><path d="M110.74,520.63a2.77,2.77,0,0,1,1.73.52,7.59,7.59,0,0,1-.48,1.41l-.21.1a9.37,9.37,0,0,1-.4-1.44,1.21,1.21,0,0,0-.59-.11,2.48,2.48,0,0,0-2.48,2.69,2.51,2.51,0,0,0,2.59,2.69,1.2,1.2,0,0,0,.39-.13,6.6,6.6,0,0,1,1.16-.81l.09.17a3.09,3.09,0,0,1-.88,1.17,4.84,4.84,0,0,1-1.32.23,3.06,3.06,0,0,1-3.14-3.18A3.33,3.33,0,0,1,110.74,520.63Z"/><path d="M114.41,523.63a1.48,1.48,0,0,0,0,.21,2.34,2.34,0,0,0,2.31,2.59,1.34,1.34,0,0,0,.5-.08c.46-.31.83-.56,1.12-.72l.07.23a3.19,3.19,0,0,1-.73.92,4.42,4.42,0,0,1-1.47.34,2.85,2.85,0,0,1-2.88-3.11,3.17,3.17,0,0,1,3-3.38,2.23,2.23,0,0,1,2.3,2.37.64.64,0,0,1-.14.45,4,4,0,0,1-1.28.18Zm3-.49a1.31,1.31,0,0,0,.07-.44,1.46,1.46,0,0,0-1.33-1.61c-1.28,0-1.74,1.49-1.75,2Z"/><path d="M126.42,520.63a2.77,2.77,0,0,1,1.73.52,6.92,6.92,0,0,1-.48,1.41l-.21.1a10.7,10.7,0,0,1-.4-1.44,1.18,1.18,0,0,0-.59-.11A2.48,2.48,0,0,0,124,523.8a2.51,2.51,0,0,0,2.59,2.69,1.2,1.2,0,0,0,.39-.13,7,7,0,0,1,1.16-.81l.09.17a3.09,3.09,0,0,1-.88,1.17,4.84,4.84,0,0,1-1.32.23,3.06,3.06,0,0,1-3.14-3.18A3.33,3.33,0,0,1,126.42,520.63Z"/><path d="M135.18,523.81a3.1,3.1,0,0,1-3.1,3.31A3.06,3.06,0,0,1,129,524a3.24,3.24,0,0,1,3.12-3.33A3.07,3.07,0,0,1,135.18,523.81Zm-5,.07c0,1.35.73,2.77,2,2.77s1.81-1.47,1.81-2.71-.66-2.86-1.92-2.86S130.16,522.42,130.16,523.88Z"/><path d="M137.09,521.72l-.76-.32.09-.28a6.14,6.14,0,0,1,1.64-.49l-.06,1.12h0c1.15-1,1.68-1.12,2.23-1.12,1.44,0,1.86,1.19,1.86,2.23V526a.25.25,0,0,0,.17.26l.87.34-.1.31-1.49,0-1.14,0,.09-.34.56-.39c0-.42.06-1.44.06-3.28,0-1.12-.66-1.57-1.39-1.57a2.64,2.64,0,0,0-1.69.87c0,1,0,3.74,0,4l.81.35-.1.32-1.27,0-1.36,0,.1-.31.77-.36c0-.24,0-1.5,0-3.31Z"/><path d="M147.64,520.81l-.27.48-1.92.15v4a1,1,0,0,0,.25.68,1.07,1.07,0,0,0,.7.21,2,2,0,0,0,1.14-.32h.07l0,.42a1.94,1.94,0,0,1-1.53.68,1.76,1.76,0,0,1-1.26-.56,2.22,2.22,0,0,1-.33-1.53v-3.59l-1-.15.25-.48h.72a14,14,0,0,1,.28-1.58,1.21,1.21,0,0,1,.76-.45l-.06,2Z"/><path d="M148.57,521.08a5.16,5.16,0,0,1,1.42-.45,7.2,7.2,0,0,1,.14,1.43h0a2.46,2.46,0,0,1,2-1.43.94.94,0,0,1,.66.21,6.47,6.47,0,0,1-.4,1.42l-.16.09a5.32,5.32,0,0,1-.48-.89.39.39,0,0,0-.21,0c-.44,0-1.09.57-1.38,1.34v3.5l1.43.39-.07.3-1.91,0-1.37,0,.07-.3.81-.4c0-1.47.06-3.78.06-4.48l-.73-.42Z"/><path d="M157.06,523.11c0-1.55-.65-1.86-1.45-1.86a1.8,1.8,0,0,0-.89.29c0,.35-.07.93-.14,1.33l-.17.06a3.75,3.75,0,0,1-.8-1.15,6.84,6.84,0,0,1,1.6-.92,2.79,2.79,0,0,1,1-.23,1.93,1.93,0,0,1,1.83,2.14c0,.94,0,2.16,0,3.13a2,2,0,0,0,1.12.84L159,527a1.08,1.08,0,0,1-.54.13c-.94,0-1.24-.44-1.38-.81h0a2.59,2.59,0,0,1-1.72.84,1.66,1.66,0,0,1-1.75-1.6,1.25,1.25,0,0,1,.56-1.15,12.38,12.38,0,0,1,2.91-1Zm-1.24,3.29a1.63,1.63,0,0,0,1.08-.5.54.54,0,0,0,.14-.34l0-1.75a9.4,9.4,0,0,0-1.93.69.76.76,0,0,0-.51.77A1.13,1.13,0,0,0,155.82,526.4Z"/><path d="M163.23,521a2.8,2.8,0,0,1,.69-.35l.11.11a8.46,8.46,0,0,1-.35,1.61l-.17.1c-.15-.28-.34-.74-.49-1.08a1.17,1.17,0,0,0-.81-.24,1,1,0,0,0-1.11,1,.82.82,0,0,0,.49.8c.35.21,1.21.56,1.67.78a1.59,1.59,0,0,1,1.08,1.47c0,1.46-1.53,1.91-2.37,1.91a3.93,3.93,0,0,1-2-.61c0-.23.26-1.28.32-1.47l.2-.1c.18.34.48,1.21.6,1.53a2.33,2.33,0,0,0,.87.16,1.23,1.23,0,0,0,1.37-1.08.86.86,0,0,0-.57-.88c-.38-.2-.85-.43-1.4-.68a1.71,1.71,0,0,1-1.18-1.61,2,2,0,0,1,3.07-1.41Z"/><path d="M169.17,520.81l-.27.48-1.92.15v4a1,1,0,0,0,.25.68,1.07,1.07,0,0,0,.7.21,2,2,0,0,0,1.14-.32h.07l0,.42a1.93,1.93,0,0,1-1.53.68,1.76,1.76,0,0,1-1.26-.56A2.22,2.22,0,0,1,166,525v-3.59l-1-.15.26-.48H166a14,14,0,0,1,.28-1.58,1.21,1.21,0,0,1,.76-.45l-.06,2Z"/><path d="M175.21,521.12l-.57.35c.21.69.62,1.91,1.33,4h0c.51-1.3,1-2.37,1.37-3.46l-.11-.8a4,4,0,0,1,.91-.48l.1.08.06,1c.33,1,.84,2.26,1.4,3.73h0c.5-1.53.84-2.61,1.27-4.12l-.78-.35.12-.34,1.11,0c.36,0,.74,0,1.09,0l-.07.34a1.72,1.72,0,0,0-.85.52c-.18.43-.93,2.55-1.77,5a5.46,5.46,0,0,1-.46.59h-.11c-.49-1.25-1-2.72-1.67-4.29h0c-.57,1.37-.85,2-1.52,3.68a5.08,5.08,0,0,1-.45.61h-.11c-.49-1.43-1.42-4.16-1.94-5.52-.18-.27-.36-.38-.89-.55l.12-.34,1.28,0c.38,0,.8,0,1.19,0Z"/><path d="M183.35,521a8.29,8.29,0,0,1,1.66-.39v2.8c0,1.57,0,2.38,0,2.8l1,.41-.1.31-1.48,0-1.38,0,.1-.31.81-.41c0-.46.05-1.7.05-2.83v-1.77l-.76-.35Zm1.23-3.25a1.62,1.62,0,0,1,.63.72l0,.11a2.48,2.48,0,0,1-.67.73l-.1,0a2.35,2.35,0,0,1-.63-.73l0-.11a3,3,0,0,1,.71-.75Z"/><path d="M190.67,520.81l-.27.48-1.91.15v4a1,1,0,0,0,.25.68,1.07,1.07,0,0,0,.7.21,2,2,0,0,0,1.13-.32h.07l0,.42a1.92,1.92,0,0,1-1.52.68,1.74,1.74,0,0,1-1.26-.56,2.21,2.21,0,0,1-.34-1.53v-3.59l-1-.15.25-.48h.71a12.18,12.18,0,0,1,.29-1.58,1.19,1.19,0,0,1,.75-.45l0,2Z"/><path d="M197.05,526c0,.24.07.3.27.38l.79.35-.1.3a14.42,14.42,0,0,1-2-.12,33.3,33.3,0,0,0,.13-3.55c0-1.7-1-1.94-1.61-1.94a2.4,2.4,0,0,0-1.52.56c0,1.36,0,4.05,0,4.33l1,.39-.11.3-1.46,0-1.36,0,.1-.3.76-.39c0-.21,0-1.45,0-3.29s0-3.38-.06-5l-.8-.35.09-.27c.36-.11.89-.25,1.78-.45,0,1.4,0,3,0,4.54l0,0a3.08,3.08,0,0,1,2-.86,2,2,0,0,1,2.07,2.09Z"/><path d="M4.22,537.61l-.27.48L2,538.24v4a1,1,0,0,0,.25.68,1.07,1.07,0,0,0,.7.21,2,2,0,0,0,1.14-.32h.07l0,.42a1.93,1.93,0,0,1-1.53.68,1.76,1.76,0,0,1-1.26-.56A2.22,2.22,0,0,1,1,541.83v-3.59l-1-.15.26-.48h.71A14,14,0,0,1,1.33,536a1.21,1.21,0,0,1,.76-.45l-.06,2Z"/><path d="M10.6,542.75c0,.24.07.3.27.38l.78.35-.1.3a14.36,14.36,0,0,1-2-.12c.05-.58.12-1.49.12-3.55,0-1.7-1-1.94-1.61-1.94a2.37,2.37,0,0,0-1.51.56c0,1.36,0,4,0,4.33l1,.39-.12.3-1.45,0-1.36,0,.1-.3.75-.39c0-.21,0-1.45,0-3.29s0-3.38,0-5l-.8-.35.08-.27c.37-.11.9-.25,1.78-.45,0,1.4,0,3,0,4.54l0,0a3,3,0,0,1,2-.86,2,2,0,0,1,2.07,2.09Z"/><path d="M13.51,540.43a1.48,1.48,0,0,0,0,.21,2.34,2.34,0,0,0,2.31,2.59,1.34,1.34,0,0,0,.5-.08c.46-.31.83-.56,1.12-.72l.07.23a3.19,3.19,0,0,1-.73.92,4.42,4.42,0,0,1-1.47.34,2.85,2.85,0,0,1-2.88-3.11,3.17,3.17,0,0,1,3-3.38,2.22,2.22,0,0,1,2.29,2.37c0,.17,0,.39-.14.45a3.9,3.9,0,0,1-1.27.18Zm3-.49a1.31,1.31,0,0,0,.07-.44,1.46,1.46,0,0,0-1.33-1.61c-1.28,0-1.74,1.49-1.76,2.05Z"/><path d="M25.52,537.43a2.86,2.86,0,0,1,1.73.52,7.59,7.59,0,0,1-.48,1.41l-.21.1a10.39,10.39,0,0,1-.41-1.44,1.13,1.13,0,0,0-.58-.11,2.48,2.48,0,0,0-2.48,2.69,2.51,2.51,0,0,0,2.59,2.69,1.2,1.2,0,0,0,.39-.13,6.6,6.6,0,0,1,1.16-.81l.09.17a3,3,0,0,1-.89,1.17,4.69,4.69,0,0,1-1.31.23A3.06,3.06,0,0,1,22,540.74,3.33,3.33,0,0,1,25.52,537.43Z"/><path d="M30.9,543.43l-.14.32-1.39,0-1.48,0,.08-.3.9-.37c0-.62,0-1.49,0-4.91,0-1.26,0-2.73-.06-3.43l-.81-.31.15-.28a15.13,15.13,0,0,1,1.73-.42c0,1.56-.05,2.87-.05,4.39,0,2.81,0,3.86,0,5Z"/><path d="M32.77,540.43a1.48,1.48,0,0,0,0,.21,2.34,2.34,0,0,0,2.31,2.59,1.43,1.43,0,0,0,.51-.08c.46-.31.82-.56,1.12-.72l.07.23a3.37,3.37,0,0,1-.73.92,4.48,4.48,0,0,1-1.47.34,2.86,2.86,0,0,1-2.89-3.11,3.17,3.17,0,0,1,3-3.38A2.23,2.23,0,0,1,37,539.8c0,.17,0,.39-.14.45a4,4,0,0,1-1.28.18Zm3-.49a1.31,1.31,0,0,0,.07-.44,1.46,1.46,0,0,0-1.33-1.61c-1.28,0-1.74,1.49-1.75,2.05Z"/><path d="M41.5,539.91c0-1.55-.65-1.86-1.44-1.86a1.8,1.8,0,0,0-.9.29,11,11,0,0,1-.14,1.33l-.17.06a3.93,3.93,0,0,1-.8-1.15,7.06,7.06,0,0,1,1.6-.92,2.84,2.84,0,0,1,1-.23,1.93,1.93,0,0,1,1.83,2.14c0,.94,0,2.16,0,3.13a2,2,0,0,0,1.12.84l-.11.22a1.13,1.13,0,0,1-.55.13c-.94,0-1.23-.44-1.37-.81h0a2.59,2.59,0,0,1-1.72.84,1.66,1.66,0,0,1-1.75-1.6,1.25,1.25,0,0,1,.56-1.15,12.38,12.38,0,0,1,2.91-1Zm-1.23,3.29a1.61,1.61,0,0,0,1.07-.5.54.54,0,0,0,.14-.34l0-1.75a9.62,9.62,0,0,0-1.93.69.75.75,0,0,0-.5.77A1.12,1.12,0,0,0,40.27,543.2Z"/><path d="M45.12,538.52l-.75-.32.08-.28a6.14,6.14,0,0,1,1.64-.49L46,538.55h0c1.15-.95,1.68-1.12,2.23-1.12,1.44,0,1.86,1.19,1.86,2.23v3.18a.25.25,0,0,0,.17.26l.87.34-.1.31-1.48,0-1.15,0,.09-.34.57-.39c0-.42.05-1.44.05-3.28,0-1.12-.66-1.57-1.39-1.57a2.69,2.69,0,0,0-1.69.87c0,1.05,0,3.74,0,4l.81.35-.09.32-1.28,0-1.36,0,.1-.31.77-.36c0-.24,0-1.5,0-3.31Z"/><path d="M58.75,539.91c0-1.55-.65-1.86-1.45-1.86a1.8,1.8,0,0,0-.89.29c0,.35-.07.93-.14,1.33l-.17.06a3.75,3.75,0,0,1-.8-1.15,6.84,6.84,0,0,1,1.6-.92,2.79,2.79,0,0,1,1-.23,1.93,1.93,0,0,1,1.83,2.14c0,.94,0,2.16,0,3.13a2,2,0,0,0,1.13.84l-.12.22a1.08,1.08,0,0,1-.54.13c-.94,0-1.24-.44-1.38-.81h0a2.59,2.59,0,0,1-1.72.84,1.65,1.65,0,0,1-1.75-1.6,1.25,1.25,0,0,1,.56-1.15,12.38,12.38,0,0,1,2.91-1Zm-1.24,3.29a1.63,1.63,0,0,0,1.08-.5.54.54,0,0,0,.14-.34l0-1.75a9.4,9.4,0,0,0-1.93.69.76.76,0,0,0-.51.77A1.13,1.13,0,0,0,57.51,543.2Z"/><path d="M62.37,538.52l-.76-.32.09-.28a6.14,6.14,0,0,1,1.64-.49l-.06,1.12h0c1.15-.95,1.68-1.12,2.23-1.12,1.44,0,1.86,1.19,1.86,2.23v3.18a.25.25,0,0,0,.17.26l.87.34-.1.31-1.49,0-1.14,0,.09-.34.56-.39c0-.42.06-1.44.06-3.28,0-1.12-.66-1.57-1.39-1.57a2.64,2.64,0,0,0-1.69.87c0,1.05,0,3.74,0,4l.81.35-.1.32-1.27,0-1.36,0,.1-.31.77-.36c0-.24,0-1.5,0-3.31Z"/><path d="M74.78,542.73a2.57,2.57,0,0,0,1.09.84l-.1.23a.91.91,0,0,1-.56.12,1.46,1.46,0,0,1-1.33-.82h0a3.66,3.66,0,0,1-1.7.82,3,3,0,0,1-3-3.11,3.38,3.38,0,0,1,3.36-3.38,2.57,2.57,0,0,1,1.2.44l0,0c0-1.06,0-1.88,0-3.05l-.86-.37.12-.25a8.83,8.83,0,0,1,1.81-.45c0,1.56,0,2.9,0,4.43Zm-1-4.36a2.26,2.26,0,0,0-1.15-.34,2.48,2.48,0,0,0-2.37,2.59,2.39,2.39,0,0,0,2.26,2.53,2.32,2.32,0,0,0,1.26-.48Z"/><path d="M80.5,538.4c0-1.29,0-2.48,0-3.62l-.8-.33.11-.27a9.65,9.65,0,0,1,1.76-.45c0,1.61,0,3,0,4.35a5.13,5.13,0,0,1,1.65-.65,2.94,2.94,0,0,1,3,3.05,3.38,3.38,0,0,1-3.41,3.44,4.39,4.39,0,0,1-1.36-.44,4.29,4.29,0,0,1-.83.42Zm1,4.68a3.66,3.66,0,0,0,1,.22A2.48,2.48,0,0,0,85,540.62a2.3,2.3,0,0,0-2.28-2.46,2.53,2.53,0,0,0-1.25.35Z"/><path d="M93.54,540.61a3.1,3.1,0,0,1-3.1,3.31,3.06,3.06,0,0,1-3.08-3.16,3.25,3.25,0,0,1,3.12-3.33A3.07,3.07,0,0,1,93.54,540.61Zm-5,.07c0,1.35.73,2.77,2,2.77s1.81-1.47,1.81-2.71-.66-2.86-1.92-2.86S88.52,539.22,88.52,540.68Z"/><path d="M97.34,543.43l-.14.32-1.38,0-1.49,0,.09-.3.89-.37c0-.62,0-1.49,0-4.91,0-1.26,0-2.73,0-3.43l-.82-.31.16-.28a14.94,14.94,0,0,1,1.72-.42c0,1.56,0,2.87,0,4.39,0,2.81,0,3.86,0,5Z"/><path d="M103.69,542.73a2.57,2.57,0,0,0,1.09.84l-.1.23a.91.91,0,0,1-.56.12,1.46,1.46,0,0,1-1.33-.82h0a3.66,3.66,0,0,1-1.7.82,3,3,0,0,1-3-3.11,3.38,3.38,0,0,1,3.36-3.38,2.57,2.57,0,0,1,1.2.44l0,0c0-1.06,0-1.88,0-3.05l-.87-.37.12-.25a8.83,8.83,0,0,1,1.81-.45c0,1.56,0,2.9,0,4.43Zm-1-4.36a2.26,2.26,0,0,0-1.15-.34,2.48,2.48,0,0,0-2.37,2.59,2.39,2.39,0,0,0,2.26,2.53,2.32,2.32,0,0,0,1.26-.48Z"/><path d="M111.92,543.75l-1.63,0-1.58,0,.07-.31L110,543c0-.64.18-3,.25-7.1-.55-.84-.62-.75-1.54-1l.11-.33,1.74-.07a4,4,0,0,0,.52.79c1.87,2.38,4,4.86,5.92,7h0c0-.65-.08-6-.09-6.94l-1.11-.46.14-.31,1.33,0,1.74,0-.1.35-1.22.42c0,.65-.13,4.67-.15,7.26,0,.45,0,1.11-.07,1.44l-.13.06c-1.23-.87-3.7-3.95-6.61-7.57h0c0,2.44,0,5.86.1,6.49l1.22.49Z"/><path d="M120.65,540.43a1.48,1.48,0,0,0,0,.21,2.34,2.34,0,0,0,2.31,2.59,1.43,1.43,0,0,0,.51-.08c.46-.31.82-.56,1.12-.72l.07.23a3.57,3.57,0,0,1-.73.92,4.48,4.48,0,0,1-1.47.34,2.86,2.86,0,0,1-2.89-3.11,3.17,3.17,0,0,1,3-3.38,2.23,2.23,0,0,1,2.3,2.37c0,.17,0,.39-.14.45a4,4,0,0,1-1.28.18Zm3-.49a1.31,1.31,0,0,0,.07-.44,1.46,1.46,0,0,0-1.33-1.61c-1.28,0-1.74,1.49-1.75,2.05Z"/><path d="M125.75,538l.13-.28a9.07,9.07,0,0,1,1.7-.21c0,.58-.09,1.7-.09,4.17a1.55,1.55,0,0,0,.26,1,1.41,1.41,0,0,0,1.08.43,2,2,0,0,0,1.67-.92v-3.66c-.13-.23-.35-.33-.94-.54l.13-.27a8.25,8.25,0,0,1,1.83-.19c0,.65,0,1.56,0,5.16a1.64,1.64,0,0,0,1.13.82l-.1.23a1.33,1.33,0,0,1-.7.16,1.22,1.22,0,0,1-1.28-1.08h0a2.9,2.9,0,0,1-2.06,1.11,2,2,0,0,1-1.4-.54,2.31,2.31,0,0,1-.55-1.75c0-.88,0-2.28,0-3.3Z"/><path d="M138.51,537.74c-.72,1.2-2.72,4.15-3.59,5.5v0a26.78,26.78,0,0,0,2.68-.11c.45-.63.74-1,.94-1.26l.19-.07a14.93,14.93,0,0,1-.3,2c-.69,0-1.61-.07-2.82-.07h-2.19v-.11c1.13-1.58,2.47-3.61,3.74-5.52v0c-.22,0-.81,0-2.51.07-.15.26-.5.92-.65,1.12l-.2,0a13.44,13.44,0,0,1-.09-1.78l0,0,1,.12h3.71Z"/><path d="M140.8,540.43a1.48,1.48,0,0,0,0,.21,2.34,2.34,0,0,0,2.31,2.59,1.37,1.37,0,0,0,.5-.08c.46-.31.83-.56,1.12-.72l.07.23a3.19,3.19,0,0,1-.73.92,4.42,4.42,0,0,1-1.47.34,2.85,2.85,0,0,1-2.88-3.11,3.17,3.17,0,0,1,3-3.38A2.23,2.23,0,0,1,145,539.8c0,.17,0,.39-.14.45a3.9,3.9,0,0,1-1.27.18Zm3-.49a1.1,1.1,0,0,0,.07-.44,1.45,1.45,0,0,0-1.33-1.61c-1.27,0-1.73,1.49-1.75,2.05Z"/><path d="M146.09,537.82a9.24,9.24,0,0,1,1.67-.39v2.8c0,1.57,0,2.38,0,2.8l1,.41-.09.31-1.49,0-1.37,0,.1-.31.81-.41c0-.46,0-1.7,0-2.83v-1.77l-.76-.35Zm1.23-3.25a1.56,1.56,0,0,1,.63.72l0,.11a2.48,2.48,0,0,1-.67.73l-.1,0a2.48,2.48,0,0,1-.63-.73l0-.11a3,3,0,0,1,.7-.75Z"/><path d="M153.42,537.61l-.27.48-1.92.15v4a1,1,0,0,0,.25.68,1.07,1.07,0,0,0,.7.21,2,2,0,0,0,1.14-.32h.07l0,.42a1.94,1.94,0,0,1-1.53.68,1.76,1.76,0,0,1-1.26-.56,2.22,2.22,0,0,1-.33-1.53v-3.59l-1-.15.25-.48h.72a12,12,0,0,1,.28-1.58,1.21,1.21,0,0,1,.76-.45l-.06,2Z"/><path d="M162.66,539.27c.78-.06,3.25-.13,3.81-.12a42.87,42.87,0,0,1-.82,4.78h-.1c-.37-.07-.53-.29-.55-.45a6.77,6.77,0,0,1-2.36.52c-3,0-5.13-1.89-5.13-4.85,0-2.7,2.2-4.9,5.37-4.9a3.9,3.9,0,0,1,2.3.63,2.83,2.83,0,0,1,1-.57l.08.07a11.73,11.73,0,0,1-.57,2.35l-.25.11a8.37,8.37,0,0,1-.41-1.48,4.26,4.26,0,1,0-2,8A5.35,5.35,0,0,0,165,543c.07-1,.18-2.29.27-3.12l-3.14-.07-.05-.17Z"/><path d="M168.06,537.88a5.19,5.19,0,0,1,1.41-.45,6.52,6.52,0,0,1,.14,1.43h0a2.45,2.45,0,0,1,2-1.43,1,1,0,0,1,.66.21,6.48,6.48,0,0,1-.41,1.42l-.15.09a4.16,4.16,0,0,1-.48-.89.41.41,0,0,0-.21,0c-.45,0-1.09.57-1.39,1.34v3.5l1.43.39-.07.3-1.9,0-1.38,0,.07-.3.82-.4c0-1.47,0-3.78,0-4.48l-.73-.42Z"/><path d="M179.15,540.61a3.1,3.1,0,0,1-3.1,3.31,3.06,3.06,0,0,1-3.08-3.16,3.25,3.25,0,0,1,3.12-3.33A3.07,3.07,0,0,1,179.15,540.61Zm-5,.07c0,1.35.73,2.77,2,2.77S178,542,178,540.74s-.66-2.86-1.92-2.86S174.13,539.22,174.13,540.68Z"/><path d="M184.06,537.61l-.27.48-1.91.15v4a1,1,0,0,0,.25.68,1.07,1.07,0,0,0,.7.21,2,2,0,0,0,1.13-.32H184l0,.42a1.92,1.92,0,0,1-1.52.68,1.74,1.74,0,0,1-1.26-.56,2.21,2.21,0,0,1-.34-1.53v-3.59l-.95-.15.25-.48h.71a14,14,0,0,1,.28-1.58,1.23,1.23,0,0,1,.76-.45l-.05,2Z"/><path d="M185.77,540.43a.75.75,0,0,0,0,.21,2.34,2.34,0,0,0,2.31,2.59,1.43,1.43,0,0,0,.51-.08c.46-.31.82-.56,1.12-.72l.07.23a3.37,3.37,0,0,1-.73.92,4.42,4.42,0,0,1-1.47.34,2.86,2.86,0,0,1-2.89-3.11,3.18,3.18,0,0,1,3-3.38,2.23,2.23,0,0,1,2.3,2.37c0,.17,0,.39-.14.45a3.9,3.9,0,0,1-1.27.18Zm3-.49a1.31,1.31,0,0,0,.07-.44,1.46,1.46,0,0,0-1.33-1.61c-1.27,0-1.74,1.49-1.75,2.05Z"/><path d="M194.24,537.77a2.93,2.93,0,0,1,.68-.35l.12.11a8.46,8.46,0,0,1-.35,1.61l-.17.1c-.16-.28-.34-.74-.49-1.08a1.17,1.17,0,0,0-.81-.24,1,1,0,0,0-1.11,1,.82.82,0,0,0,.49.8c.35.21,1.2.56,1.67.78a1.58,1.58,0,0,1,1.07,1.47c0,1.46-1.52,1.91-2.36,1.91a3.93,3.93,0,0,1-2-.61,11.25,11.25,0,0,1,.32-1.47l.2-.09c.18.33.48,1.2.6,1.52a2.29,2.29,0,0,0,.87.16,1.23,1.23,0,0,0,1.37-1.08.86.86,0,0,0-.57-.88c-.38-.2-.86-.42-1.4-.68a1.71,1.71,0,0,1-1.18-1.61,2,2,0,0,1,3.07-1.41Z"/><path d="M199.14,543.45l-.07.3-1.56,0-1.4,0,.1-.3.81-.4c0-.24,0-1.09,0-2.69,0-2,0-3.78-.05-5.55l-.77-.38.12-.25a14,14,0,0,1,1.73-.45c-.05,1.56-.05,3.34-.05,5.07,0,.93,0,4,0,4.25Zm3.36.52a2.85,2.85,0,0,1-1.74-.68,25.74,25.74,0,0,1-2.43-2.76l0-.09c.65-.71,1.42-1.59,2-2.32l.25-.69a12.26,12.26,0,0,1,1.81.17l-.19.29c-.19.12-1.1.4-1.4.54-.54.53-.71.71-1.5,1.59v0c.86,1.09,2.61,3,3.32,3.82Z"/><path d="M204.74,542.21a2.35,2.35,0,0,1,.74.81l0,.13a2.19,2.19,0,0,1-.76.78l-.09,0a2.27,2.27,0,0,1-.75-.79l.05-.14a2.81,2.81,0,0,1,.75-.78Z"/></g></g></svg>