<svg xmlns="http://www.w3.org/2000/svg" viewBox="0 0 341.51 556.66"><defs><style>.cls-1,.cls-15{font-size:18px;}.cls-1{font-family:WarnockPro-Light, Warnock Pro;font-weight:300;}.cls-2{letter-spacing:0.01em;}.cls-3{letter-spacing:0.01em;}.cls-4{letter-spacing:0em;}.cls-5{letter-spacing:-0.02em;}.cls-6{letter-spacing:0em;}.cls-7{letter-spacing:-0.02em;}.cls-8{letter-spacing:0.01em;}.cls-9{letter-spacing:0.01em;}.cls-10{letter-spacing:-0.11em;}.cls-11{letter-spacing:-0.02em;}.cls-12{letter-spacing:-0.04em;}.cls-13{letter-spacing:-0.04em;}.cls-14{letter-spacing:-0.05em;}.cls-15,.cls-17,.cls-24{font-family:NeuzeitGro-Bol, Neuzeit Grotesk;}.cls-16{letter-spacing:0em;}.cls-17,.cls-24{font-size:25px;fill:none;stroke-miterlimit:10;}.cls-17{stroke:#00008c;stroke-width:0.8px;}.cls-17,.cls-22,.cls-24{letter-spacing:0.08em;}.cls-18{letter-spacing:0.05em;}.cls-19{letter-spacing:0.03em;}.cls-20{letter-spacing:0.06em;}.cls-21{letter-spacing:0.08em;}.cls-23{letter-spacing:0.06em;}.cls-24{stroke:#ff2031;stroke-width:0.67px;}</style></defs><title>typographytablet2</title><g id="Layer_2" data-name="Layer 2"><g id="Layer_1-2" data-name="Layer 1"><text class="cls-1" transform="translate(0.75 504.19)"><tspan class="cls-2">A</tspan><tspan x="12.8" y="0">a Bb Cc </tspan><tspan class="cls-3" x="73.94" y="0">D</tspan><tspan class="cls-4" x="87.21" y="0">d Ee </tspan><tspan class="cls-5" x="123.28" y="0">F</tspan><tspan x="132.23" y="0">f </tspan><tspan class="cls-6" x="141.73" y="0">G</tspan><tspan x="155.18" y="0">g Hh Ii </tspan><tspan class="cls-7" x="210.49" y="0">J</tspan><tspan x="215.66" y="0">j Kk Ll Mm</tspan><tspan x="0" y="21.6">Nn </tspan><tspan class="cls-8" x="27.92" y="21.6">O</tspan><tspan x="42.16" y="21.6">o Pp </tspan><tspan class="cls-3" x="79.43" y="21.6">Q</tspan><tspan x="93.67" y="21.6">q </tspan><tspan class="cls-9" x="107.35" y="21.6">R</tspan><tspan x="118.4" y="21.6">r Ss </tspan><tspan class="cls-10" x="149.6" y="21.6">T</tspan><tspan x="159.68" y="21.6">t </tspan><tspan class="cls-11" x="169.79" y="21.6">U</tspan><tspan x="182.7" y="21.6">u </tspan><tspan class="cls-12" x="196.59" y="21.6">V</tspan><tspan x="208.22" y="21.6">v </tspan><tspan class="cls-13" x="220.79" y="21.6">W</tspan><tspan x="238.23" y="21.6">w Xx </tspan><tspan class="cls-14" x="280.58" y="21.6">Y</tspan><tspan x="290.88" y="21.6">y</tspan><tspan x="0" y="43.2">Zz 0123456789</tspan></text><text class="cls-15" transform="translate(0.75 398.54)"><tspan class="cls-16">A</tspan><tspan x="11.34" y="0">a Bb Cc Dd Ee Ff Gg Hh Ii Jj Kk Ll Mm</tspan><tspan x="0" y="21.6">Nn Oo Pp Qq Rr Ss Tt Uu Vv Ww Xx Yy</tspan><tspan x="0" y="43.2">Zz 0123456789</tspan></text><text class="cls-17" transform="translate(0.75 21.24)">A<tspan class="cls-18" x="17.9" y="0">A BB </tspan><tspan class="cls-19" x="83.55" y="0">C</tspan><tspan class="cls-18" x="100.25" y="0">C DD EE FF GG HH </tspan><tspan class="cls-18"><tspan x="0" y="30">II JJ KK LL MM</tspan><tspan x="0" y="60">NN OO PP QQ RR </tspan><tspan class="cls-20" x="223.95" y="60">S</tspan><tspan x="238.55" y="60">S </tspan><tspan class="cls-21" x="261.57" y="60">T</tspan><tspan x="275.17" y="60">T UU </tspan><tspan x="0" y="90">VV </tspan><tspan class="cls-22" x="39.35" y="90">W</tspan><tspan x="62.87" y="90">W XX YY</tspan></tspan><tspan class="cls-23"><tspan x="0" y="120">Z</tspan><tspan class="cls-18" x="15.25" y="120">Z 0123456789</tspan></tspan></text><text class="cls-24" transform="translate(0.75 213.29)">A<tspan class="cls-18" x="17.9" y="0">A BB </tspan><tspan class="cls-19" x="83.55" y="0">C</tspan><tspan class="cls-18" x="100.25" y="0">C DD EE FF GG HH </tspan><tspan class="cls-18"><tspan x="0" y="30">II JJ KK LL MM</tspan><tspan x="0" y="60">NN OO PP QQ RR </tspan><tspan class="cls-20" x="223.95" y="60">S</tspan><tspan x="238.55" y="60">S </tspan><tspan class="cls-21" x="261.57" y="60">T</tspan><tspan x="275.17" y="60">T UU </tspan><tspan x="0" y="90">VV </tspan><tspan class="cls-22" x="39.35" y="90">W</tspan><tspan x="62.87" y="90">W XX YY</tspan></tspan><tspan class="cls-23"><tspan x="0" y="120">Z</tspan><tspan class="cls-18" x="15.25" y="120">Z 0123456789</tspan></tspan></text></g></g></svg>