<svg xmlns="http://www.w3.org/2000/svg" viewBox="0 0 218.12 547.87"><defs><style>.cls-1{font-size:14px;}.cls-1,.cls-13,.cls-22{font-family:NeuzeitGro-Bol, Neuzeit Grotesk;}.cls-2{letter-spacing:0em;}.cls-3{letter-spacing:-0.01em;}.cls-4{letter-spacing:0em;}.cls-5{letter-spacing:0em;}.cls-6{letter-spacing:0em;}.cls-7{letter-spacing:-0.02em;}.cls-8{letter-spacing:0.01em;}.cls-9{letter-spacing:0em;}.cls-10{letter-spacing:0em;}.cls-11{letter-spacing:0em;}.cls-12{letter-spacing:0.01em;}.cls-13,.cls-22{font-size:25px;fill:none;stroke-miterlimit:10;letter-spacing:0.05em;}.cls-13{stroke:#00008c;stroke-width:0.8px;}.cls-14{letter-spacing:0.04em;}.cls-15{letter-spacing:0.06em;}.cls-16{letter-spacing:0.05em;}.cls-17{letter-spacing:0.04em;}.cls-18{letter-spacing:0.03em;}.cls-19{letter-spacing:0.06em;}.cls-20{letter-spacing:0.06em;}.cls-21{letter-spacing:0.05em;}.cls-22{stroke:#ff2031;stroke-width:0.67px;}</style></defs><title>typographytablet1</title><g id="Layer_2" data-name="Layer 2"><g id="Layer_1-2" data-name="Layer 1"><text class="cls-1" transform="translate(0.4 394.04)"><tspan class="cls-2">N</tspan><tspan x="9.72" y="0">e</tspan><tspan class="cls-3" x="17.5" y="0">uz</tspan><tspan x="30.31" y="0">eit Gr</tspan><tspan class="cls-4" x="64.99" y="0">o</tspan><tspan class="cls-5" x="72.93" y="0">t</tspan><tspan x="76.83" y="0">e</tspan><tspan class="cls-6" x="84.62" y="0">s</tspan><tspan x="90.49" y="0">k,</tspan><tspan x="0" y="16.8">I li</tspan><tspan class="cls-7" x="15.15" y="16.8">k</tspan><tspan x="21.53" y="16.8">e </tspan><tspan class="cls-5" x="33.52" y="16.8">t</tspan><tspan x="37.42" y="16.8">o be used on bu</tspan><tspan class="cls-8" x="138.85" y="16.8">t</tspan><tspan class="cls-5" x="142.96" y="16.8">t</tspan><tspan x="146.87" y="16.8">ons </tspan><tspan x="0" y="33.6">and </tspan><tspan class="cls-9" x="28.63" y="33.6">o</tspan><tspan class="cls-10" x="36.57" y="33.6">t</tspan><tspan class="cls-11" x="40.6" y="33.6">her headi</tspan><tspan class="cls-10" x="100.38" y="33.6">ng</tspan><tspan class="cls-12" x="116.2" y="33.6">s</tspan><tspan x="122.15" y="33.6">.</tspan></text><text class="cls-13" transform="translate(0.4 21.24)">NE<tspan class="cls-14" x="31.32" y="0">U</tspan><tspan class="cls-15" x="48.37" y="0">Z</tspan><tspan class="cls-16" x="63.57" y="0">EIT G</tspan><tspan class="cls-17" x="126.12" y="0">R</tspan><tspan class="cls-18" x="141.67" y="0">O</tspan><tspan class="cls-19" x="161.6" y="0">T</tspan><tspan class="cls-20" x="174.65" y="0">E</tspan><tspan x="187.72" y="0">SK</tspan><tspan class="cls-21"><tspan x="0" y="30">B</tspan><tspan class="cls-16" x="15.6" y="30">OLD</tspan></tspan></text><text class="cls-22" transform="translate(0.4 213.29)">NE<tspan class="cls-14" x="31.32" y="0">U</tspan><tspan class="cls-15" x="48.37" y="0">Z</tspan><tspan class="cls-16" x="63.57" y="0">EIT G</tspan><tspan class="cls-17" x="126.12" y="0">R</tspan><tspan class="cls-18" x="141.67" y="0">O</tspan><tspan class="cls-19" x="161.6" y="0">T</tspan><tspan class="cls-20" x="174.65" y="0">E</tspan><tspan x="187.72" y="0">SK</tspan><tspan class="cls-21"><tspan x="0" y="30">B</tspan><tspan class="cls-16" x="15.6" y="30">OLD</tspan></tspan></text><path d="M.72,487.94l1.39,0,1.19,0-.1.31-.42.33c.25.74.73,1.86,2.93,7.29h0c.43-.87.88-1.79,1.69-3.61-.52-1.28-1.12-2.65-1.53-3.49a1.93,1.93,0,0,0-1.07-.52l.12-.31,1.36,0,.63,0L7,488l.06.63a24.53,24.53,0,0,0,1,2.48h0a26.46,26.46,0,0,0,1.06-2.48l0-.63,0-.05.64,0,1.32,0-.1.31a2.54,2.54,0,0,0-1.3.66c-.18.32-.55.93-1.46,2.82.12.28.66,1.57,1.75,4.06h0c.63-1.7,1.64-4.4,2.58-7.17l-.46-.37.11-.31.83,0,1.51,0-.07.31a2.89,2.89,0,0,0-1.21.56c-.37.69-1.89,4.71-3.13,7.89a3.75,3.75,0,0,1-.52.74h-.1c-.27-.54-1.08-2.58-1.9-4.49h0c-.94,1.94-1.43,2.95-1.84,3.81a3.19,3.19,0,0,1-.53.68H5.25c-.4-.91-2.83-7-3.59-8.64a2.18,2.18,0,0,0-1.09-.55Z"/><path d="M17.66,493.35c0-1.55-.64-1.86-1.44-1.86a1.84,1.84,0,0,0-.9.29,11,11,0,0,1-.14,1.33l-.16.06a3.63,3.63,0,0,1-.8-1.15,7,7,0,0,1,1.59-.92,2.89,2.89,0,0,1,1-.23A1.94,1.94,0,0,1,18.63,493c0,.93,0,2.15,0,3.12a2,2,0,0,0,1.12.84l-.11.22a1.1,1.1,0,0,1-.55.13c-.93,0-1.23-.43-1.37-.81h0a2.61,2.61,0,0,1-1.73.84,1.65,1.65,0,0,1-1.75-1.6,1.27,1.27,0,0,1,.56-1.15,12.49,12.49,0,0,1,2.92-1Zm-1.23,3.29a1.65,1.65,0,0,0,1.08-.5.61.61,0,0,0,.14-.34l0-1.75a9.74,9.74,0,0,0-1.94.69.76.76,0,0,0-.5.77A1.13,1.13,0,0,0,16.43,496.64Z"/><path d="M20.67,491.32a5.52,5.52,0,0,1,1.42-.45,7.2,7.2,0,0,1,.14,1.43h0a2.47,2.47,0,0,1,2-1.43.94.94,0,0,1,.66.21,6.31,6.31,0,0,1-.4,1.42l-.16.1a5.32,5.32,0,0,1-.47-.9.44.44,0,0,0-.21,0c-.45,0-1.1.57-1.39,1.34v3.5l1.43.4-.07.29H20.35l.07-.29.81-.41c0-1.47.06-3.78.06-4.48l-.73-.42Z"/><path d="M26.65,492l-.76-.32.09-.28a6.4,6.4,0,0,1,1.64-.49L27.56,492h0c1.15-.95,1.68-1.12,2.23-1.12,1.44,0,1.86,1.19,1.86,2.23v3.18a.27.27,0,0,0,.17.27l.87.33-.1.31H30l.1-.34.56-.39c0-.42.06-1.44.06-3.28,0-1.12-.66-1.57-1.39-1.57a2.64,2.64,0,0,0-1.69.87c0,1,0,3.74,0,4l.81.35-.1.32H25.74l.1-.31.77-.36c0-.24,0-1.5,0-3.31Z"/><path d="M39.67,494.05a3.09,3.09,0,0,1-3.09,3.31,3.05,3.05,0,0,1-3.08-3.15,3.25,3.25,0,0,1,3.12-3.34A3.06,3.06,0,0,1,39.67,494.05Zm-5,.07c0,1.35.73,2.78,2,2.78s1.81-1.48,1.81-2.72-.66-2.86-1.92-2.86S34.66,492.67,34.66,494.12Z"/><path d="M44.46,490.87a2.83,2.83,0,0,1,1.72.52,7.84,7.84,0,0,1-.47,1.42l-.21.09a9.14,9.14,0,0,1-.41-1.44,1.18,1.18,0,0,0-.59-.11A2.49,2.49,0,0,0,42,494a2.52,2.52,0,0,0,2.59,2.69,1.2,1.2,0,0,0,.39-.13,7,7,0,0,1,1.17-.81l.08.17a3,3,0,0,1-.88,1.17,4.77,4.77,0,0,1-1.32.23,3.06,3.06,0,0,1-3.14-3.18A3.33,3.33,0,0,1,44.46,490.87Z"/><path d="M49.9,496.9l-.07.29H46.88l.1-.29.81-.41c0-.24,0-1.09,0-2.69,0-1.95,0-3.78,0-5.55l-.78-.37.13-.26a13.82,13.82,0,0,1,1.72-.45c0,1.56,0,3.34,0,5.08,0,.92,0,4,0,4.24Zm3.37.51a2.8,2.8,0,0,1-1.74-.68A25.76,25.76,0,0,1,49.09,494v-.09c.64-.71,1.41-1.59,2-2.32l.26-.69a12,12,0,0,1,1.8.17l-.18.29c-.2.12-1.11.4-1.4.54a21.43,21.43,0,0,0-1.5,1.59v0c.85,1.09,2.61,3,3.32,3.83Z"/><path d="M57.42,488.08a26,26,0,0,1,2.78-.22,4.44,4.44,0,0,1,2.53.59,2.46,2.46,0,0,1,1.12,2.14,2.84,2.84,0,0,1-2.94,2.87,2.05,2.05,0,0,1-.55,0l-.14-.34a2.29,2.29,0,0,0,2.45-2.41c0-1.82-1.37-2.37-3.19-2.28v3.8c0,3.36.08,4,.08,4.27l1.52.42-.13.32H57.32l.07-.31,1-.42c0-.29,0-.91,0-4.21v-3.62l-1.13-.24Z"/><path d="M65.16,491.32a5.52,5.52,0,0,1,1.42-.45,7.2,7.2,0,0,1,.14,1.43h0a2.45,2.45,0,0,1,2-1.43.93.93,0,0,1,.65.21,6.31,6.31,0,0,1-.4,1.42l-.16.1a5.32,5.32,0,0,1-.47-.9.41.41,0,0,0-.21,0c-.45,0-1.1.57-1.39,1.34v3.5l1.43.4-.07.29H64.84l.07-.29.81-.41c0-1.47.06-3.78.06-4.48l-.73-.42Z"/><path d="M76.26,494.05a3.1,3.1,0,0,1-3.1,3.31,3.05,3.05,0,0,1-3.08-3.15,3.25,3.25,0,0,1,3.12-3.34A3.07,3.07,0,0,1,76.26,494.05Zm-5,.07c0,1.35.73,2.78,2,2.78s1.81-1.48,1.81-2.72-.66-2.86-1.92-2.86S71.24,492.67,71.24,494.12Z"/><path d="M77.26,498.48a2.29,2.29,0,0,0,.88-1.6.73.73,0,0,0-.15-.47l-.52-.29v-.2l1-.62h.18a1.24,1.24,0,0,1,.45,1.11,2.79,2.79,0,0,1-1.59,2.39Z"/><path d="M83.87,487.94l1.57,0,1.65,0-.11.33-1,.39v3.68c0,2.23,0,4,.06,4.19l3.14.18c.33-.5.92-1.41,1.23-1.78l.28,0a19,19,0,0,1-.46,2.32c-.49,0-1.75-.05-4.74-.05H83.6l.1-.31,1.18-.39c0-.2.05-1.93.05-4.13v-3.7l-1.17-.41Z"/><path d="M91.75,491.26a9.24,9.24,0,0,1,1.67-.39v2.8c0,1.57,0,2.39,0,2.81l1,.4-.09.31H91.5l.1-.31.81-.4c0-.47,0-1.71,0-2.83v-1.78l-.76-.35ZM93,488a1.56,1.56,0,0,1,.63.72l0,.11a2.36,2.36,0,0,1-.67.73l-.1,0a2.48,2.48,0,0,1-.63-.73l0-.11a3,3,0,0,1,.7-.75Z"/><path d="M99.63,491.68v0a2,2,0,0,1,.51,1.42,2.24,2.24,0,0,1-2.4,2.17,2.35,2.35,0,0,1-1.07-.24,1.34,1.34,0,0,0-.45.69.8.8,0,0,0,.67.63,15,15,0,0,1,2.79,0,1.63,1.63,0,0,1,.85.34,1.45,1.45,0,0,1,.52,1.14,2.51,2.51,0,0,1-1.09,1.92,4,4,0,0,1-2.51.9c-1.33,0-2.38-.7-2.38-1.7a.58.58,0,0,1,.15-.36l1.21-1.34,0,0a3.19,3.19,0,0,1-.53-.38,1.53,1.53,0,0,1-.52-.91c0-.16.49-.65,1-1.05a1.94,1.94,0,0,1-.92-1.72A2.36,2.36,0,0,1,98,490.87a7,7,0,0,1,1,.11c.45.09.77.14,1,.16l1.21-.49,0,.12-.59.84Zm-2.78,5.71a2.71,2.71,0,0,0-.77,1.24c0,1,1,1.31,1.83,1.31,1.19,0,2.29-.54,2.29-1.69a.93.93,0,0,0-.75-.93,6.4,6.4,0,0,0-1.4-.1A3.27,3.27,0,0,0,96.85,497.39Zm-.42-4.32c0,.86.45,1.77,1.38,1.77s1.35-.75,1.35-1.8a1.55,1.55,0,0,0-1.37-1.72C96.89,491.32,96.43,492.16,96.43,493.07Z"/><path d="M107.63,496.2c0,.23.07.29.27.37l.78.35-.1.3a15.8,15.8,0,0,1-2-.11c0-.59.12-1.5.12-3.56,0-1.7-1-1.94-1.61-1.94a2.33,2.33,0,0,0-1.51.57c0,1.35,0,4,0,4.32l1,.4-.11.29h-2.81l.09-.29.76-.4c0-.21,0-1.45,0-3.29s0-3.37,0-5l-.8-.35.08-.27c.37-.11.9-.25,1.78-.45,0,1.41,0,3,0,4.54l0,0a3,3,0,0,1,2-.86,2.06,2.06,0,0,1,2.07,2.09Z"/><path d="M113.14,491.05l-.26.48-1.92.15v4a.93.93,0,0,0,.25.68,1,1,0,0,0,.7.21,1.94,1.94,0,0,0,1.14-.32l.07,0,0,.42a2,2,0,0,1-1.53.67,1.76,1.76,0,0,1-1.26-.56,2.19,2.19,0,0,1-.34-1.53v-3.59l-.95-.15.25-.48H110a12,12,0,0,1,.28-1.58A1.21,1.21,0,0,1,111,489l-.05,2Z"/><path d="M114,498.48a2.29,2.29,0,0,0,.88-1.6.8.8,0,0,0-.15-.47l-.52-.29v-.2l1-.62h.18a1.24,1.24,0,0,1,.45,1.11,2.81,2.81,0,0,1-1.6,2.39Z"/><path d="M124.34,491.05l-.26.48-1.92.15v4a.93.93,0,0,0,.25.68,1,1,0,0,0,.7.21,1.94,1.94,0,0,0,1.14-.32l.07,0,0,.42a2,2,0,0,1-1.53.67,1.76,1.76,0,0,1-1.26-.56,2.19,2.19,0,0,1-.34-1.53v-3.59l-1-.15.25-.48h.72a12,12,0,0,1,.28-1.58,1.21,1.21,0,0,1,.75-.45l0,2Z"/><path d="M130.73,496.2c0,.23.07.29.27.37l.78.35-.1.3a15.72,15.72,0,0,1-2-.11c.05-.59.12-1.5.12-3.56,0-1.7-.95-1.94-1.61-1.94a2.33,2.33,0,0,0-1.51.57c0,1.35,0,4,0,4.32l1,.4-.11.29h-2.81l.09-.29.76-.4c0-.21,0-1.45,0-3.29s0-3.37,0-5l-.8-.35.08-.27c.37-.11.9-.25,1.78-.45,0,1.41,0,3,0,4.54l0,0a3,3,0,0,1,2-.86,2.06,2.06,0,0,1,2.07,2.09Z"/><path d="M133.64,493.87a.75.75,0,0,0,0,.21,2.34,2.34,0,0,0,2.32,2.59,1.37,1.37,0,0,0,.5-.08c.46-.31.83-.56,1.12-.72l.07.23a3.19,3.19,0,0,1-.73.92,4.42,4.42,0,0,1-1.47.34,2.86,2.86,0,0,1-2.89-3.11,3.18,3.18,0,0,1,3-3.38,2.23,2.23,0,0,1,2.3,2.37c0,.17,0,.39-.14.45a3.9,3.9,0,0,1-1.27.18Zm3-.49a1.08,1.08,0,0,0,.07-.43,1.45,1.45,0,0,0-1.33-1.62c-1.27,0-1.73,1.49-1.75,2.05Z"/><path d="M145.65,490.87a2.86,2.86,0,0,1,1.73.52,7.93,7.93,0,0,1-.48,1.42l-.21.09a10.39,10.39,0,0,1-.41-1.44,1.18,1.18,0,0,0-.59-.11,2.49,2.49,0,0,0-2.48,2.69,2.52,2.52,0,0,0,2.6,2.69,1.28,1.28,0,0,0,.39-.13,6.6,6.6,0,0,1,1.16-.81l.08.17a2.92,2.92,0,0,1-.88,1.17,4.69,4.69,0,0,1-1.31.23,3.06,3.06,0,0,1-3.14-3.18A3.33,3.33,0,0,1,145.65,490.87Z"/><path d="M154.4,494.05a3.09,3.09,0,0,1-3.09,3.31,3.05,3.05,0,0,1-3.08-3.15,3.25,3.25,0,0,1,3.12-3.34A3.06,3.06,0,0,1,154.4,494.05Zm-5,.07c0,1.35.73,2.78,2,2.78s1.81-1.48,1.81-2.72-.66-2.86-1.92-2.86S149.39,492.67,149.39,494.12Z"/><path d="M156.32,491.92l-.76-.28.09-.28a7.29,7.29,0,0,1,1.65-.49l-.07,1.17h0a3.81,3.81,0,0,1,2.18-1.17,1.76,1.76,0,0,1,1.68,1.18,3.62,3.62,0,0,1,2.33-1.18,1.89,1.89,0,0,1,1.88,2.1v3.35c0,.13.09.2.25.27l.77.31-.06.29h-2.7l.07-.31.63-.39c0-.53.07-1.49.05-3,0-.73-.08-1.82-1.37-1.82a2.66,2.66,0,0,0-1.73.87c0,.26.08.71.08,1.22l0,2.77.85.41-.09.29h-2.49l.07-.32.66-.37c0-1,0-2.13,0-3.16,0-.66-.09-1.71-1.4-1.71a2.8,2.8,0,0,0-1.62.88c0,1.79,0,3.49,0,4l.9.37-.1.32h-2.67l.08-.32.76-.37c0-.3,0-1.58,0-2.77Z"/><path d="M168.62,491.77h0a4.17,4.17,0,0,1,1.95-.91,2.8,2.8,0,0,1,2.7,3,3.46,3.46,0,0,1-3.4,3.5,2.89,2.89,0,0,1-1.18-.44l0,0c0,1.09,0,2,.06,2.76l1.32.39-.14.31-1.75,0-1.38,0,.13-.34.71-.32c0-.53.07-1.86.07-3.91v-3.95l-.78-.41.14-.25a6.78,6.78,0,0,1,1.61-.39Zm.06,4.64a2.35,2.35,0,0,0,3.53-2.37,2.2,2.2,0,0,0-2-2.43,2.72,2.72,0,0,0-1.49.61Z"/><path d="M177.12,496.87l-.14.32h-2.87l.09-.29.89-.38c0-.62,0-1.49,0-4.91,0-1.26,0-2.73-.06-3.43l-.81-.3.16-.29a14.94,14.94,0,0,1,1.72-.42c0,1.56,0,2.88,0,4.39,0,2.81,0,3.86,0,5Z"/><path d="M178.05,491.26a8.86,8.86,0,0,1,1.66-.39v2.8c0,1.57,0,2.39,0,2.81l1,.4-.1.31h-2.86l.1-.31.81-.4c0-.47.05-1.71.05-2.83v-1.78l-.76-.35Zm1.23-3.25a1.62,1.62,0,0,1,.63.72l0,.11a2.27,2.27,0,0,1-.68.73l-.09,0a2.35,2.35,0,0,1-.63-.73l0-.11a3,3,0,0,1,.7-.75Z"/><path d="M181.6,494.56l.45-.94.71,0,2.69-.16,0,.07-.58.65Z"/><path d="M1.79,508.72,1,508.44l.08-.28a7.38,7.38,0,0,1,1.66-.49l-.07,1.16h0a3.89,3.89,0,0,1,2.19-1.16,1.76,1.76,0,0,1,1.68,1.18,3.58,3.58,0,0,1,2.33-1.18,1.89,1.89,0,0,1,1.87,2.1v3.35c0,.13.1.2.25.27l.78.31-.06.29H9.06l.07-.31.63-.39c0-.53.07-1.49.05-3,0-.73-.08-1.82-1.37-1.82a2.68,2.68,0,0,0-1.74.87,10.1,10.1,0,0,1,.09,1.22l0,2.77.84.41-.08.29H5l.07-.32.65-.37c0-1,0-2.13,0-3.16,0-.66-.1-1.71-1.4-1.71a2.77,2.77,0,0,0-1.62.88c0,1.79,0,3.49,0,4l.9.37-.1.32H.9l.09-.32.75-.37c0-.3.05-1.58.05-2.77Z"/><path d="M13.69,510.67a.75.75,0,0,0,0,.21A2.34,2.34,0,0,0,16,513.47a1.43,1.43,0,0,0,.51-.08c.46-.31.82-.56,1.12-.72l.07.23a3.37,3.37,0,0,1-.73.92,4.42,4.42,0,0,1-1.47.34,2.86,2.86,0,0,1-2.89-3.11,3.18,3.18,0,0,1,3-3.38,2.23,2.23,0,0,1,2.3,2.37c0,.17,0,.39-.14.45a3.9,3.9,0,0,1-1.27.18Zm3-.49a1.29,1.29,0,0,0,.07-.43,1.46,1.46,0,0,0-1.33-1.62c-1.27,0-1.74,1.49-1.75,2.05Z"/><path d="M19.68,508.76l-.76-.32.09-.28a6.32,6.32,0,0,1,1.63-.49l-.05,1.12h0c1.14-1,1.68-1.12,2.22-1.12,1.45,0,1.87,1.19,1.87,2.23v3.18a.27.27,0,0,0,.17.27l.86.33-.1.31H23l.1-.34.56-.39c0-.42.06-1.44.06-3.28,0-1.12-.66-1.57-1.39-1.57a2.69,2.69,0,0,0-1.7.87c0,1.05,0,3.74.05,4l.81.35-.1.32H18.77l.1-.31.77-.36c0-.24,0-1.5,0-3.31Z"/><path d="M30.22,507.85l-.26.48-1.92.15v4a1,1,0,0,0,.25.68,1,1,0,0,0,.7.21,1.9,1.9,0,0,0,1.13-.32h.07l0,.43a2,2,0,0,1-1.53.67,1.76,1.76,0,0,1-1.26-.56,2.19,2.19,0,0,1-.34-1.53v-3.59l-.95-.15.25-.48h.72a12,12,0,0,1,.28-1.58,1.19,1.19,0,0,1,.75-.45l-.05,2Z"/><path d="M34.48,510.15c0-1.55-.65-1.86-1.45-1.86a1.8,1.8,0,0,0-.89.29c0,.35-.07.93-.14,1.33l-.17.06a3.63,3.63,0,0,1-.8-1.15,6.84,6.84,0,0,1,1.6-.92,2.79,2.79,0,0,1,1-.23,1.93,1.93,0,0,1,1.83,2.15c0,.93,0,2.15,0,3.12a2,2,0,0,0,1.12.84l-.12.22a1.08,1.08,0,0,1-.54.13c-.94,0-1.24-.43-1.38-.81h0a2.59,2.59,0,0,1-1.72.84,1.65,1.65,0,0,1-1.75-1.6,1.25,1.25,0,0,1,.56-1.15,12.38,12.38,0,0,1,2.91-1Zm-1.24,3.29a1.63,1.63,0,0,0,1.08-.5.54.54,0,0,0,.14-.34l0-1.75a9.4,9.4,0,0,0-1.93.69.76.76,0,0,0-.51.77A1.13,1.13,0,0,0,33.24,513.44Z"/><path d="M37.49,508.12a5.57,5.57,0,0,1,1.41-.45A7.2,7.2,0,0,1,39,509.1h0a2.45,2.45,0,0,1,2-1.43,1,1,0,0,1,.66.21,6.89,6.89,0,0,1-.41,1.42l-.15.1a4.58,4.58,0,0,1-.48-.9.41.41,0,0,0-.21,0c-.45,0-1.09.57-1.39,1.34v3.5l1.43.4-.07.29H37.16l.07-.29.82-.41c0-1.47.05-3.78.05-4.48l-.73-.42Z"/><path d="M46.77,507.83l.95,0,1.14,0-.06.32a2,2,0,0,0-.87.6c-.56,1.22-1.57,3.78-3,7.13-.1.42-.21,1-.34,1.51a.61.61,0,0,1-.33.06,1.46,1.46,0,0,1-.93-.39c.14-.25.7-1,1.15-1.56.2-.39.56-1.15.78-1.68-.12-.24-1.37-3.72-1.93-5.06a1.49,1.49,0,0,0-1-.61l.13-.32,1.19,0,1.27,0-.1.33-.47.34c.14.46.6,1.75,1.43,4h0c.62-1.56,1.24-3.19,1.5-4l-.67-.34Z"/><path d="M56.42,507.85l-.27.48-1.92.15v4a1,1,0,0,0,.25.68,1,1,0,0,0,.7.21,1.94,1.94,0,0,0,1.14-.32h.07l0,.43a2,2,0,0,1-1.53.67,1.76,1.76,0,0,1-1.26-.56c-.24-.32-.33-.62-.33-1.53v-3.59l-1-.15.25-.48h.72a12,12,0,0,1,.28-1.58,1.21,1.21,0,0,1,.76-.45l-.06,2Z"/><path d="M58.12,510.67a1.48,1.48,0,0,0,0,.21,2.34,2.34,0,0,0,2.31,2.59,1.34,1.34,0,0,0,.5-.08c.46-.31.83-.56,1.12-.72l.07.23a3.19,3.19,0,0,1-.73.92,4.42,4.42,0,0,1-1.47.34A2.85,2.85,0,0,1,57,511.05a3.17,3.17,0,0,1,3-3.38A2.23,2.23,0,0,1,62.3,510a.64.64,0,0,1-.14.45,4,4,0,0,1-1.28.18Zm3-.49a1.29,1.29,0,0,0,.07-.43,1.46,1.46,0,0,0-1.33-1.62c-1.28,0-1.74,1.49-1.75,2.05Z"/><path d="M66.09,510h0c.33-.59.6-1,.81-1.45a1.75,1.75,0,0,0,.11-.74H69.1l-.1.32a4.84,4.84,0,0,0-1.43.6c-.35.47-.63.83-1.22,1.71.44.8,1.21,2.09,1.46,2.47a.94.94,0,0,0,.48.39l1.06.32-.12.33c-.42,0-1.49.07-2,.07-.35-.68-.59-1.15-1.45-2.64h0c-.65,1.08-.81,1.36-1.08,1.88a1.56,1.56,0,0,0,.38.41l-.1.29H62.73l.07-.31.77-.33a1.28,1.28,0,0,0,.56-.45c.4-.56.67-.9,1.37-2-.84-1.48-1.15-2-1.36-2.3a4.11,4.11,0,0,0-1.22-.47l.13-.31h2.16l-.09.55Z"/><path d="M73.69,507.85l-.27.48-1.91.15v4a1,1,0,0,0,.25.68,1,1,0,0,0,.7.21,1.9,1.9,0,0,0,1.13-.32h.07l0,.43a1.93,1.93,0,0,1-1.52.67,1.76,1.76,0,0,1-1.26-.56,2.19,2.19,0,0,1-.34-1.53v-3.59l-1-.15.25-.48h.72a12,12,0,0,1,.28-1.58,1.19,1.19,0,0,1,.75-.45l0,2Z"/><path d="M75.72,512.45a2.26,2.26,0,0,1,.74.81l0,.13a2.25,2.25,0,0,1-.75.78l-.1,0a2.3,2.3,0,0,1-.74-.78l0-.14a2.72,2.72,0,0,1,.75-.79Z"/><path d="M80.83,504.74l1.39,0,1.19,0-.1.31-.42.33c.25.74.73,1.86,2.93,7.29h0c.44-.87.89-1.79,1.7-3.61-.52-1.28-1.12-2.65-1.53-3.49a2,2,0,0,0-1.08-.52l.13-.31,1.36,0,.63,0,0,.05,0,.63a26.34,26.34,0,0,0,1,2.48h0a26.46,26.46,0,0,0,1.06-2.48l0-.63,0-.05.64,0,1.32,0-.1.31a2.54,2.54,0,0,0-1.3.66c-.18.32-.55.93-1.46,2.82.11.28.66,1.57,1.75,4.06h0c.63-1.7,1.64-4.4,2.58-7.17l-.46-.37.11-.31.82,0,1.52,0-.07.31a2.66,2.66,0,0,0-1.21.56c-.38.69-1.89,4.71-3.14,7.89a3.72,3.72,0,0,1-.51.74h-.1c-.27-.54-1.08-2.58-1.91-4.49h0L86,513.56a3.54,3.54,0,0,1-.53.68h-.09c-.39-.91-2.83-7-3.58-8.64a2.1,2.1,0,0,0-1.1-.55Z"/><path d="M94.8,508.06a9.24,9.24,0,0,1,1.67-.39v2.8c0,1.57,0,2.38,0,2.81l1,.4-.09.31H94.55l.1-.31.81-.4c0-.47,0-1.71,0-2.83v-1.78l-.75-.35ZM96,504.81a1.64,1.64,0,0,1,.64.72l0,.11a2.36,2.36,0,0,1-.67.73l-.1,0a2.48,2.48,0,0,1-.63-.73l0-.11a3,3,0,0,1,.7-.75Z"/><path d="M102.13,507.85l-.27.48-1.92.15v4a1,1,0,0,0,.25.68,1,1,0,0,0,.7.21,1.94,1.94,0,0,0,1.14-.32h.07l0,.43a2,2,0,0,1-1.53.67,1.76,1.76,0,0,1-1.26-.56c-.24-.32-.33-.62-.33-1.53v-3.59l-1-.15.26-.48H99a14,14,0,0,1,.28-1.58,1.21,1.21,0,0,1,.76-.45l-.06,2Z"/><path d="M108.51,513c0,.23.07.29.27.37l.78.35-.1.3a15.8,15.8,0,0,1-2-.11c0-.59.12-1.5.12-3.56,0-1.7-1-1.94-1.61-1.94a2.33,2.33,0,0,0-1.51.57c0,1.35,0,4,0,4.32l1,.4-.11.29h-2.81l.1-.29.75-.4c0-.21,0-1.45,0-3.29s0-3.37,0-5l-.8-.35.08-.27c.37-.11.9-.25,1.78-.45,0,1.41,0,3,0,4.54l0,0a3,3,0,0,1,2-.86,2,2,0,0,1,2.07,2.09Z"/><path d="M114.49,508.72l-.76-.28.08-.28a7.22,7.22,0,0,1,1.66-.49l-.07,1.16h0a3.89,3.89,0,0,1,2.19-1.16,1.76,1.76,0,0,1,1.68,1.18,3.58,3.58,0,0,1,2.33-1.18,1.89,1.89,0,0,1,1.87,2.1v3.35c0,.13.1.2.25.27l.77.31-.05.29h-2.71l.08-.31.63-.39c0-.53.07-1.49.05-3,0-.73-.08-1.82-1.37-1.82a2.68,2.68,0,0,0-1.74.87,10.1,10.1,0,0,1,.09,1.22l0,2.77.84.41-.08.29h-2.49l.06-.32.66-.37c0-1,0-2.13,0-3.16,0-.66-.1-1.71-1.4-1.71a2.77,2.77,0,0,0-1.62.88c0,1.79,0,3.49,0,4l.9.37-.1.32H113.6l.09-.32.75-.37c0-.3,0-1.58,0-2.77Z"/><path d="M129,507.83l1,0,1.14,0-.06.32a2,2,0,0,0-.87.6c-.56,1.22-1.57,3.78-3,7.13-.1.42-.21,1-.34,1.51a.61.61,0,0,1-.33.06,1.46,1.46,0,0,1-.93-.39c.14-.25.7-1,1.15-1.56.2-.39.56-1.15.78-1.68-.12-.24-1.37-3.72-1.93-5.06a1.49,1.49,0,0,0-1-.61l.13-.32,1.19,0,1.27,0-.1.33-.47.34c.14.46.6,1.75,1.43,4h0c.62-1.56,1.24-3.19,1.5-4l-.67-.34Z"/><path d="M136.77,508.16l-.57.35c.21.69.62,1.91,1.33,4h0c.51-1.3,1-2.37,1.37-3.46l-.11-.8a3.65,3.65,0,0,1,.91-.47l.1.07.06,1c.33,1,.84,2.26,1.4,3.73h0c.5-1.53.84-2.6,1.27-4.12l-.78-.35.12-.33,1.11,0,1.09,0-.07.33a1.72,1.72,0,0,0-.85.52c-.18.43-.93,2.55-1.77,5a4.63,4.63,0,0,1-.46.59h-.11c-.49-1.25-1-2.72-1.67-4.29h0c-.57,1.37-.85,2-1.52,3.69a4.94,4.94,0,0,1-.45.6h-.11c-.49-1.43-1.42-4.16-1.94-5.52-.18-.27-.36-.38-.89-.55l.12-.33,1.28,0,1.19,0Z"/><path d="M145.7,510.67a1.48,1.48,0,0,0,0,.21,2.34,2.34,0,0,0,2.31,2.59,1.43,1.43,0,0,0,.51-.08c.46-.31.82-.56,1.12-.72l.07.23a3.37,3.37,0,0,1-.73.92,4.48,4.48,0,0,1-1.47.34,2.86,2.86,0,0,1-2.89-3.11,3.17,3.17,0,0,1,3-3.38,2.23,2.23,0,0,1,2.3,2.37c0,.17,0,.39-.14.45a4,4,0,0,1-1.28.18Zm3-.49a1.29,1.29,0,0,0,.07-.43,1.46,1.46,0,0,0-1.33-1.62c-1.28,0-1.74,1.49-1.75,2.05Z"/><path d="M156.61,513a2.59,2.59,0,0,0,1.1.84l-.1.24a1,1,0,0,1-.56.11,1.47,1.47,0,0,1-1.33-.81h0a3.66,3.66,0,0,1-1.69.81,3,3,0,0,1-3-3.11,3.39,3.39,0,0,1,3.36-3.38,2.6,2.6,0,0,1,1.21.44v0c0-1.06,0-1.87,0-3l-.87-.37.13-.25a8.63,8.63,0,0,1,1.81-.45c0,1.56,0,2.9,0,4.43Zm-1-4.36a2.24,2.24,0,0,0-1.15-.34,2.48,2.48,0,0,0-2.36,2.6,2.38,2.38,0,0,0,2.25,2.52,2.19,2.19,0,0,0,1.26-.48Z"/><path d="M162.86,508.48v0a2,2,0,0,1,.5,1.42A2.24,2.24,0,0,1,161,512.1a2.36,2.36,0,0,1-1.08-.24,1.34,1.34,0,0,0-.45.69.8.8,0,0,0,.67.63,15,15,0,0,1,2.79,0,1.63,1.63,0,0,1,.85.34,1.42,1.42,0,0,1,.52,1.14,2.51,2.51,0,0,1-1.09,1.92,4,4,0,0,1-2.51.9c-1.33,0-2.38-.7-2.38-1.7a.58.58,0,0,1,.15-.36l1.21-1.34,0,0a3.19,3.19,0,0,1-.53-.38,1.53,1.53,0,0,1-.52-.91c0-.16.5-.65,1-1.05a1.94,1.94,0,0,1-.92-1.72,2.36,2.36,0,0,1,2.57-2.29,6.77,6.77,0,0,1,1,.11c.45.09.77.14.95.16l1.21-.49,0,.12-.58.84Zm-2.79,5.71a2.71,2.71,0,0,0-.77,1.24c0,1,1,1.3,1.83,1.3,1.19,0,2.29-.53,2.29-1.68a.93.93,0,0,0-.75-.93,6.4,6.4,0,0,0-1.4-.1A3.27,3.27,0,0,0,160.07,514.19Zm-.42-4.32c0,.86.45,1.77,1.39,1.77s1.34-.75,1.34-1.8a1.55,1.55,0,0,0-1.37-1.72C160.11,508.12,159.65,509,159.65,509.87Z"/><path d="M166.06,510.67a1.48,1.48,0,0,0,0,.21,2.34,2.34,0,0,0,2.31,2.59,1.34,1.34,0,0,0,.5-.08c.46-.31.83-.56,1.12-.72l.07.23a3.19,3.19,0,0,1-.73.92,4.42,4.42,0,0,1-1.47.34,2.85,2.85,0,0,1-2.88-3.11,3.17,3.17,0,0,1,3-3.38,2.22,2.22,0,0,1,2.29,2.37c0,.17,0,.39-.14.45a3.9,3.9,0,0,1-1.27.18Zm3-.49a1.06,1.06,0,0,0,.08-.43,1.46,1.46,0,0,0-1.33-1.62c-1.28,0-1.74,1.49-1.76,2.05Z"/><path d="M171.28,511.36l.45-.94.71,0,2.69-.16,0,.07-.58.65Z"/><path d="M179.67,508a2.8,2.8,0,0,1,.69-.35l.11.11a8.46,8.46,0,0,1-.35,1.61l-.17.1c-.15-.28-.34-.74-.49-1.08a1.17,1.17,0,0,0-.81-.24,1,1,0,0,0-1.11,1,.82.82,0,0,0,.49.8c.35.21,1.21.56,1.67.78a1.6,1.6,0,0,1,1.08,1.47c0,1.46-1.53,1.91-2.37,1.91a3.93,3.93,0,0,1-2-.6,12.86,12.86,0,0,1,.32-1.48l.2-.09c.18.33.48,1.2.6,1.52a2.29,2.29,0,0,0,.87.16,1.23,1.23,0,0,0,1.37-1.08.86.86,0,0,0-.57-.88c-.38-.2-.85-.42-1.4-.68a1.71,1.71,0,0,1-1.18-1.61,2,2,0,0,1,3.07-1.41Z"/><path d="M187.55,513c0,.23.07.29.27.37l.78.35-.09.3a15.86,15.86,0,0,1-2-.11,33.71,33.71,0,0,0,.13-3.56c0-1.7-1-1.94-1.61-1.94a2.33,2.33,0,0,0-1.52.57c0,1.35,0,4,0,4.32l1,.4-.11.29H181.6l.1-.29.75-.4c0-.21.05-1.45.05-3.29s0-3.37-.06-5l-.8-.35.09-.27c.36-.11.89-.25,1.77-.45,0,1.41,0,3,0,4.54l0,0a3.06,3.06,0,0,1,2-.86,2,2,0,0,1,2.07,2.09Z"/><path d="M192.83,510.15c0-1.55-.64-1.86-1.44-1.86a1.8,1.8,0,0,0-.9.29,11,11,0,0,1-.14,1.33l-.17.06a3.8,3.8,0,0,1-.8-1.15,7.06,7.06,0,0,1,1.6-.92,2.84,2.84,0,0,1,1-.23,1.94,1.94,0,0,1,1.84,2.15c0,.93,0,2.15,0,3.12a2,2,0,0,0,1.12.84l-.11.22a1.13,1.13,0,0,1-.55.13c-.94,0-1.23-.43-1.37-.81h0a2.59,2.59,0,0,1-1.72.84,1.65,1.65,0,0,1-1.75-1.6,1.27,1.27,0,0,1,.56-1.15,12.38,12.38,0,0,1,2.91-1Zm-1.23,3.29a1.65,1.65,0,0,0,1.08-.5.69.69,0,0,0,.14-.34l0-1.75a9.62,9.62,0,0,0-1.93.69.76.76,0,0,0-.5.77A1.12,1.12,0,0,0,191.6,513.44Z"/><path d="M197.11,508.57h0a4.13,4.13,0,0,1,2-.91,2.81,2.81,0,0,1,2.7,3,3.46,3.46,0,0,1-3.4,3.5,2.84,2.84,0,0,1-1.18-.44l0,0c0,1.09,0,2,.06,2.76l1.32.39-.14.31-1.75,0-1.38,0,.13-.34.71-.32c0-.53.07-1.86.07-3.91v-3.95l-.78-.41.14-.25a6.78,6.78,0,0,1,1.61-.39Zm.06,4.64a2.46,2.46,0,0,0,1.18.33,2.49,2.49,0,0,0,2.35-2.7,2.21,2.21,0,0,0-2-2.43,2.73,2.73,0,0,0-1.48.61Z"/><path d="M204.14,510.67a1.48,1.48,0,0,0,0,.21,2.34,2.34,0,0,0,2.31,2.59,1.34,1.34,0,0,0,.5-.08c.46-.31.83-.56,1.12-.72l.07.23a3.19,3.19,0,0,1-.73.92,4.42,4.42,0,0,1-1.47.34,2.85,2.85,0,0,1-2.88-3.11,3.17,3.17,0,0,1,3-3.38,2.23,2.23,0,0,1,2.3,2.37c0,.17,0,.39-.15.45a3.9,3.9,0,0,1-1.27.18Zm3-.49a1.29,1.29,0,0,0,.07-.43,1.46,1.46,0,0,0-1.33-1.62c-1.28,0-1.74,1.49-1.75,2.05Z"/><path d="M215.05,513a2.63,2.63,0,0,0,1.09.84l-.1.24a1,1,0,0,1-.56.11,1.47,1.47,0,0,1-1.33-.81h0a3.65,3.65,0,0,1-1.7.81,3,3,0,0,1-2.95-3.11,3.38,3.38,0,0,1,3.36-3.38,2.54,2.54,0,0,1,1.2.44l0,0c0-1.06,0-1.87,0-3l-.87-.37.12-.25a8.83,8.83,0,0,1,1.81-.45c0,1.56,0,2.9,0,4.43Zm-1-4.36a2.26,2.26,0,0,0-1.15-.34,2.48,2.48,0,0,0-2.37,2.6,2.39,2.39,0,0,0,2.26,2.52,2.24,2.24,0,0,0,1.26-.48Z"/><path d="M4.18,524.81a2.8,2.8,0,0,1,.69-.35l.11.11a8.46,8.46,0,0,1-.35,1.61l-.17.1c-.15-.28-.34-.74-.49-1.08a1.17,1.17,0,0,0-.81-.24,1,1,0,0,0-1.11,1,.82.82,0,0,0,.49.8c.35.21,1.21.56,1.67.78a1.6,1.6,0,0,1,1.08,1.47c0,1.46-1.53,1.91-2.37,1.91a3.87,3.87,0,0,1-2-.61,13.16,13.16,0,0,1,.33-1.47l.19-.09c.18.33.48,1.2.6,1.52a2.33,2.33,0,0,0,.87.16,1.24,1.24,0,0,0,1.38-1.08.87.87,0,0,0-.58-.88c-.38-.2-.85-.42-1.4-.68a1.71,1.71,0,0,1-1.18-1.61,1.83,1.83,0,0,1,2-1.75A1.79,1.79,0,0,1,4.18,524.81Z"/><path d="M7.46,527.47a.75.75,0,0,0,0,.21,2.34,2.34,0,0,0,2.31,2.59,1.43,1.43,0,0,0,.51-.08c.46-.31.82-.56,1.12-.72l.07.23a3.37,3.37,0,0,1-.73.92,4.42,4.42,0,0,1-1.47.34,2.86,2.86,0,0,1-2.89-3.11,3.18,3.18,0,0,1,3-3.38,2.23,2.23,0,0,1,2.3,2.37c0,.17,0,.39-.14.45a3.9,3.9,0,0,1-1.27.18Zm3-.49a1.31,1.31,0,0,0,.07-.44,1.46,1.46,0,0,0-1.33-1.61c-1.27,0-1.74,1.49-1.75,2.05Z"/><path d="M12.83,524.92a5.52,5.52,0,0,1,1.42-.45,7.2,7.2,0,0,1,.14,1.43h0a2.45,2.45,0,0,1,2-1.43.94.94,0,0,1,.66.21,6.47,6.47,0,0,1-.4,1.42l-.16.09a4.77,4.77,0,0,1-.47-.89.44.44,0,0,0-.21,0c-.45,0-1.1.57-1.39,1.34v3.5l1.43.4-.07.29H12.51l.07-.29.81-.41c0-1.47.06-3.78.06-4.48l-.73-.42Z"/><path d="M18.11,524.86a9.24,9.24,0,0,1,1.67-.39v2.8c0,1.57,0,2.38,0,2.81l1,.4-.09.31H17.86l.1-.31.81-.4c0-.47,0-1.71,0-2.83v-1.78l-.76-.35Zm1.23-3.25a1.56,1.56,0,0,1,.63.72l0,.11a2.36,2.36,0,0,1-.67.73l-.1,0a2.48,2.48,0,0,1-.63-.73l0-.11a2.84,2.84,0,0,1,.7-.75Z"/><path d="M21.48,530.52l.91-.42c0-.18.05-1.2.05-2.85v-2l-1-.23.24-.42h.73a4.24,4.24,0,0,1,.91-3,2.4,2.4,0,0,1,1.83-.87,1.54,1.54,0,0,1,1,.3,7.08,7.08,0,0,1-.45,1.2l-.2.11a6.65,6.65,0,0,1-.5-1.07l-.15,0c-.77,0-1.25.8-1.35,2.17,0,.43,0,.85-.05,1.2h1.83l-.25.45-1.58.17c0,.28-.05,1-.05,1.86,0,2.15,0,2.75.05,3l1.34.4-.1.31h-3.3Z"/><path d="M28.91,524.81a2.93,2.93,0,0,1,.68-.35l.11.11a7.75,7.75,0,0,1-.35,1.61l-.16.1c-.16-.28-.34-.74-.49-1.08a1.21,1.21,0,0,0-.82-.24,1,1,0,0,0-1.1,1,.82.82,0,0,0,.49.8c.35.21,1.2.56,1.66.78A1.6,1.6,0,0,1,30,529.05c0,1.46-1.52,1.91-2.36,1.91a3.84,3.84,0,0,1-2-.61,11.25,11.25,0,0,1,.32-1.47l.2-.09c.18.33.47,1.2.6,1.52a2.29,2.29,0,0,0,.87.16A1.23,1.23,0,0,0,29,529.39a.88.88,0,0,0-.57-.88c-.38-.2-.86-.42-1.41-.68a1.72,1.72,0,0,1-1.17-1.61,2,2,0,0,1,3.07-1.41Z"/><path d="M32.42,529.25a2.35,2.35,0,0,1,.74.81l0,.13a2.25,2.25,0,0,1-.75.78l-.1,0a2.24,2.24,0,0,1-.74-.79l0-.13a2.72,2.72,0,0,1,.75-.79Z"/><path d="M37.91,521.54l1.57,0,1.66,0-.1.33-1,.37V526c0,2.34,0,3.85.07,4.11l1.3.39-.1.32H37.65l.09-.32,1.13-.39c.06-.24.09-1.77.09-4.11v-3.75l-1.14-.38Z"/><path d="M49.15,524.47a2.8,2.8,0,0,1,1.72.52,7.13,7.13,0,0,1-.47,1.42l-.21.09a10.39,10.39,0,0,1-.41-1.44,1.18,1.18,0,0,0-.59-.11,2.49,2.49,0,0,0-2.48,2.69,2.52,2.52,0,0,0,2.59,2.69,1.25,1.25,0,0,0,.4-.13,6.6,6.6,0,0,1,1.16-.81l.08.17a2.92,2.92,0,0,1-.88,1.17,4.7,4.7,0,0,1-1.32.23,3.05,3.05,0,0,1-3.13-3.18A3.33,3.33,0,0,1,49.15,524.47Z"/><path d="M52.19,524.92a5.57,5.57,0,0,1,1.41-.45,6.52,6.52,0,0,1,.14,1.43h0a2.45,2.45,0,0,1,2-1.43,1,1,0,0,1,.66.21A6.48,6.48,0,0,1,56,526.1l-.15.09a4.16,4.16,0,0,1-.48-.89.41.41,0,0,0-.21,0c-.45,0-1.09.57-1.39,1.34v3.5l1.43.4-.07.29H51.86l.07-.29.82-.41c0-1.47,0-3.78,0-4.48l-.73-.42Z"/><path d="M58.19,527.47a1.48,1.48,0,0,0,0,.21,2.34,2.34,0,0,0,2.31,2.59,1.43,1.43,0,0,0,.51-.08c.46-.31.82-.56,1.12-.72l.07.23a3.57,3.57,0,0,1-.73.92A4.48,4.48,0,0,1,60,531a2.86,2.86,0,0,1-2.89-3.11,3.17,3.17,0,0,1,3-3.38,2.23,2.23,0,0,1,2.3,2.37c0,.17,0,.39-.14.45a4,4,0,0,1-1.28.18Zm3-.49a1.31,1.31,0,0,0,.07-.44A1.46,1.46,0,0,0,60,524.93c-1.28,0-1.74,1.49-1.75,2.05Z"/><path d="M66.92,527c0-1.55-.65-1.86-1.45-1.86a1.8,1.8,0,0,0-.89.29c0,.35-.07.93-.14,1.33l-.17.06a3.63,3.63,0,0,1-.8-1.15,6.84,6.84,0,0,1,1.6-.92,2.79,2.79,0,0,1,1-.23,1.93,1.93,0,0,1,1.83,2.15c0,.93,0,2.15,0,3.12a2,2,0,0,0,1.13.84l-.12.22a1.08,1.08,0,0,1-.54.13c-.94,0-1.24-.43-1.38-.81h0a2.59,2.59,0,0,1-1.72.84,1.65,1.65,0,0,1-1.75-1.6,1.25,1.25,0,0,1,.56-1.15,12.38,12.38,0,0,1,2.91-1Zm-1.24,3.29a1.63,1.63,0,0,0,1.08-.5.54.54,0,0,0,.14-.34l0-1.75a9.4,9.4,0,0,0-1.93.69.76.76,0,0,0-.51.77A1.13,1.13,0,0,0,65.68,530.24Z"/><path d="M73.4,524.65l-.27.48-1.92.15v4a.94.94,0,0,0,.26.68,1,1,0,0,0,.7.21,2,2,0,0,0,1.13-.32h.07l0,.43a1.94,1.94,0,0,1-1.52.67,1.74,1.74,0,0,1-1.26-.56,2.19,2.19,0,0,1-.34-1.53v-3.59l-1-.15.25-.48h.71a14,14,0,0,1,.28-1.58,1.21,1.21,0,0,1,.76-.45l-.06,2Z"/><path d="M75.11,527.47a.75.75,0,0,0,0,.21,2.34,2.34,0,0,0,2.31,2.59,1.43,1.43,0,0,0,.51-.08c.46-.31.82-.56,1.12-.72l.07.23a3.37,3.37,0,0,1-.73.92,4.42,4.42,0,0,1-1.47.34A2.86,2.86,0,0,1,74,527.85a3.18,3.18,0,0,1,3-3.38,2.23,2.23,0,0,1,2.3,2.37c0,.17,0,.39-.14.45a3.9,3.9,0,0,1-1.27.18Zm3-.49a1.31,1.31,0,0,0,.07-.44,1.46,1.46,0,0,0-1.33-1.61c-1.27,0-1.74,1.49-1.75,2.05Z"/><path d="M90.35,527c0-1.55-.64-1.86-1.44-1.86a1.84,1.84,0,0,0-.9.29,11,11,0,0,1-.14,1.33l-.16.06a3.63,3.63,0,0,1-.8-1.15,7,7,0,0,1,1.59-.92,2.89,2.89,0,0,1,1-.23,1.94,1.94,0,0,1,1.83,2.15c0,.93,0,2.15,0,3.12a2,2,0,0,0,1.12.84l-.11.22a1.1,1.1,0,0,1-.55.13c-.93,0-1.23-.43-1.37-.81h0a2.61,2.61,0,0,1-1.73.84,1.66,1.66,0,0,1-1.75-1.6,1.27,1.27,0,0,1,.56-1.15,12.66,12.66,0,0,1,2.92-1Zm-1.23,3.29a1.65,1.65,0,0,0,1.08-.5.61.61,0,0,0,.14-.34l0-1.75a9.74,9.74,0,0,0-1.94.69.76.76,0,0,0-.5.77A1.13,1.13,0,0,0,89.12,530.24Z"/><path d="M97.3,525.56l-.76-.32.08-.28a6.53,6.53,0,0,1,1.64-.49l-.05,1.12h0c1.14-1,1.68-1.12,2.22-1.12,1.45,0,1.87,1.19,1.87,2.23v3.18a.28.28,0,0,0,.16.27l.87.33-.1.31h-2.63l.1-.34.56-.39c0-.42,0-1.44,0-3.28,0-1.12-.65-1.57-1.38-1.57a2.69,2.69,0,0,0-1.7.87c0,1,0,3.74,0,4l.81.35-.1.32H96.39l.09-.31.77-.36c0-.24,0-1.5,0-3.31Z"/><path d="M104.28,524.86a9.24,9.24,0,0,1,1.67-.39v2.8c0,1.57,0,2.38,0,2.81l1,.4-.1.31H104l.1-.31.81-.4c0-.47,0-1.71,0-2.83v-1.78l-.75-.35Zm1.23-3.25a1.64,1.64,0,0,1,.64.72l-.05.11a2.36,2.36,0,0,1-.67.73l-.1,0a2.48,2.48,0,0,1-.63-.73l0-.11a3,3,0,0,1,.7-.75Z"/><path d="M111.31,524.47A2.86,2.86,0,0,1,113,525a7.93,7.93,0,0,1-.48,1.42l-.21.09a10.39,10.39,0,0,1-.41-1.44,1.18,1.18,0,0,0-.59-.11,2.48,2.48,0,0,0-2.47,2.69,2.51,2.51,0,0,0,2.59,2.69,1.28,1.28,0,0,0,.39-.13,6.6,6.6,0,0,1,1.16-.81l.08.17a2.92,2.92,0,0,1-.88,1.17,4.69,4.69,0,0,1-1.31.23,3.06,3.06,0,0,1-3.14-3.18A3.33,3.33,0,0,1,111.31,524.47Z"/><path d="M115,527.47a.75.75,0,0,0,0,.21,2.34,2.34,0,0,0,2.32,2.59,1.37,1.37,0,0,0,.5-.08c.46-.31.83-.56,1.12-.72l.07.23a3.19,3.19,0,0,1-.73.92,4.42,4.42,0,0,1-1.47.34,2.85,2.85,0,0,1-2.88-3.11,3.17,3.17,0,0,1,3-3.38,2.23,2.23,0,0,1,2.29,2.37c0,.17,0,.39-.14.45a3.9,3.9,0,0,1-1.27.18Zm3-.49a1.1,1.1,0,0,0,.07-.44,1.45,1.45,0,0,0-1.33-1.61c-1.27,0-1.73,1.49-1.75,2.05Z"/><path d="M127,524.47a2.86,2.86,0,0,1,1.73.52,7.93,7.93,0,0,1-.48,1.42l-.21.09a10.39,10.39,0,0,1-.41-1.44A1.18,1.18,0,0,0,127,525a2.48,2.48,0,0,0-2.47,2.69,2.51,2.51,0,0,0,2.59,2.69,1.2,1.2,0,0,0,.39-.13,6.6,6.6,0,0,1,1.16-.81l.09.17a2.93,2.93,0,0,1-.89,1.17,4.69,4.69,0,0,1-1.31.23,3.06,3.06,0,0,1-3.14-3.18A3.33,3.33,0,0,1,127,524.47Z"/><path d="M135.74,527.65a3.09,3.09,0,0,1-3.09,3.31,3.06,3.06,0,0,1-3.08-3.15,3.25,3.25,0,0,1,3.12-3.34A3.06,3.06,0,0,1,135.74,527.65Zm-5,.07c0,1.35.73,2.78,2,2.78s1.81-1.48,1.81-2.72-.66-2.86-1.92-2.86S130.73,526.27,130.73,527.72Z"/><path d="M137.66,525.56l-.76-.32L137,525a6.28,6.28,0,0,1,1.64-.49l-.06,1.12h0c1.15-1,1.68-1.12,2.23-1.12,1.44,0,1.86,1.19,1.86,2.23v3.18a.27.27,0,0,0,.17.27l.86.33-.09.31H141l.1-.34.56-.39c0-.42.06-1.44.06-3.28,0-1.12-.66-1.57-1.39-1.57a2.64,2.64,0,0,0-1.69.87c0,1,0,3.74,0,4l.81.35-.1.32h-2.63l.1-.31.77-.36c0-.24,0-1.5,0-3.31Z"/><path d="M148.2,524.65l-.26.48-1.92.15v4a1,1,0,0,0,.25.68,1,1,0,0,0,.7.21,2,2,0,0,0,1.13-.32h.07l0,.43a2,2,0,0,1-1.53.67,1.76,1.76,0,0,1-1.26-.56,2.19,2.19,0,0,1-.34-1.53v-3.59l-1-.15.25-.48H145a12,12,0,0,1,.28-1.58,1.21,1.21,0,0,1,.75-.45l0,2Z"/><path d="M149.14,524.92a5.57,5.57,0,0,1,1.41-.45,6.52,6.52,0,0,1,.14,1.43h0a2.45,2.45,0,0,1,2-1.43,1,1,0,0,1,.66.21,6.48,6.48,0,0,1-.41,1.42l-.15.09a4.16,4.16,0,0,1-.48-.89.39.39,0,0,0-.21,0c-.45,0-1.09.57-1.38,1.34v3.5l1.42.4-.07.29h-3.27l.07-.29.81-.41c0-1.47.05-3.78.05-4.48l-.72-.42Z"/><path d="M157.62,527c0-1.55-.64-1.86-1.44-1.86a1.8,1.8,0,0,0-.89.29c0,.35-.08.93-.15,1.33l-.16.06a3.63,3.63,0,0,1-.8-1.15,6.84,6.84,0,0,1,1.6-.92,2.79,2.79,0,0,1,1-.23,1.94,1.94,0,0,1,1.83,2.15c0,.93,0,2.15,0,3.12a2,2,0,0,0,1.12.84l-.11.22a1.08,1.08,0,0,1-.54.13c-.94,0-1.24-.43-1.38-.81h0a2.61,2.61,0,0,1-1.72.84,1.66,1.66,0,0,1-1.76-1.6,1.27,1.27,0,0,1,.56-1.15,12.66,12.66,0,0,1,2.92-1Zm-1.23,3.29a1.65,1.65,0,0,0,1.08-.5.61.61,0,0,0,.14-.34l0-1.75a9.4,9.4,0,0,0-1.93.69.76.76,0,0,0-.51.77A1.13,1.13,0,0,0,156.39,530.24Z"/><path d="M163.8,524.81a2.93,2.93,0,0,1,.68-.35l.12.11a8.46,8.46,0,0,1-.35,1.61l-.17.1c-.16-.28-.34-.74-.49-1.08a1.17,1.17,0,0,0-.81-.24,1,1,0,0,0-1.11,1,.82.82,0,0,0,.49.8c.35.21,1.2.56,1.67.78a1.59,1.59,0,0,1,1.07,1.47c0,1.46-1.52,1.91-2.36,1.91a3.84,3.84,0,0,1-2-.61,11.25,11.25,0,0,1,.32-1.47l.2-.09c.18.33.47,1.2.6,1.52a2.29,2.29,0,0,0,.87.16,1.23,1.23,0,0,0,1.37-1.08.86.86,0,0,0-.57-.88c-.38-.2-.86-.42-1.4-.68a1.71,1.71,0,0,1-1.18-1.61,2,2,0,0,1,3.07-1.41Z"/><path d="M169.73,524.65l-.26.48-1.92.15v4a1,1,0,0,0,.25.68,1,1,0,0,0,.7.21,2,2,0,0,0,1.14-.32h.07l0,.43a2,2,0,0,1-1.53.67,1.76,1.76,0,0,1-1.26-.56,2.19,2.19,0,0,1-.34-1.53v-3.59l-1-.15.25-.48h.72a12,12,0,0,1,.28-1.58,1.21,1.21,0,0,1,.75-.45l0,2Z"/><path d="M175.78,525l-.57.35c.21.69.61,1.91,1.33,4.05h0c.5-1.3.95-2.37,1.37-3.46l-.11-.8a3.48,3.48,0,0,1,.91-.47l.1.07.06,1c.33,1,.84,2.26,1.4,3.73h0c.51-1.53.84-2.6,1.28-4.12l-.79-.35.13-.33,1.11,0,1.09,0-.07.33a1.76,1.76,0,0,0-.86.52c-.18.43-.92,2.55-1.76,5a5.75,5.75,0,0,1-.46.59h-.11c-.49-1.25-1-2.72-1.67-4.29h0c-.57,1.37-.85,2-1.53,3.69a4,4,0,0,1-.44.6h-.12c-.49-1.43-1.41-4.16-1.93-5.52-.18-.27-.36-.38-.9-.55l.13-.33,1.27,0,1.2,0Z"/><path d="M183.91,524.86a9.24,9.24,0,0,1,1.67-.39v2.8c0,1.57,0,2.38,0,2.81l1,.4-.1.31h-2.86l.1-.31.81-.4c0-.47,0-1.71,0-2.83v-1.78l-.75-.35Zm1.24-3.25a1.62,1.62,0,0,1,.63.72l0,.11a2.39,2.39,0,0,1-.68.73l-.1,0a2.48,2.48,0,0,1-.63-.73l0-.11a3,3,0,0,1,.7-.75Z"/><path d="M191.24,524.65l-.27.48-1.92.15v4a1,1,0,0,0,.25.68,1.06,1.06,0,0,0,.7.21,2,2,0,0,0,1.14-.32h.07l0,.43a1.94,1.94,0,0,1-1.52.67,1.78,1.78,0,0,1-1.27-.56,2.26,2.26,0,0,1-.33-1.53v-3.59l-.95-.15.25-.48h.71a14,14,0,0,1,.28-1.58,1.21,1.21,0,0,1,.76-.45l-.06,2Z"/><path d="M197.62,529.79c0,.24.07.3.27.38l.78.35-.09.3a15.86,15.86,0,0,1-2.05-.11,33.71,33.71,0,0,0,.13-3.56c0-1.7-1-1.94-1.62-1.94a2.37,2.37,0,0,0-1.51.56c0,1.36,0,4.05,0,4.33l1,.4-.12.29h-2.81l.1-.29.75-.4c0-.21,0-1.45,0-3.29s0-3.37-.06-5l-.8-.35.08-.27c.37-.11.9-.25,1.78-.45,0,1.4,0,3,0,4.54l0,0a3.06,3.06,0,0,1,2-.86,2,2,0,0,1,2.07,2.09Z"/><path d="M4.78,541.45l-.26.48-1.92.15v4a.93.93,0,0,0,.25.68,1,1,0,0,0,.7.21,1.94,1.94,0,0,0,1.14-.32l.07,0,0,.42a2,2,0,0,1-1.53.67,1.76,1.76,0,0,1-1.26-.56,2.19,2.19,0,0,1-.34-1.53v-3.59l-.95-.15.25-.48h.72a12,12,0,0,1,.28-1.58,1.21,1.21,0,0,1,.75-.45l0,2Z"/><path d="M11.17,546.6c0,.23.07.29.26.37l.79.35-.1.3a15.72,15.72,0,0,1-2-.11c.05-.59.12-1.5.12-3.56,0-1.7-.95-1.94-1.61-1.94a2.33,2.33,0,0,0-1.51.57c0,1.35,0,4,0,4.32l1,.4-.11.29H5.21l.1-.29.76-.4c0-.21,0-1.45,0-3.29s0-3.37-.05-5l-.8-.35.08-.27c.37-.11.9-.25,1.78-.45,0,1.41,0,3,0,4.54l0,0a3,3,0,0,1,2-.86,2.06,2.06,0,0,1,2.07,2.09Z"/><path d="M14.08,544.27a.75.75,0,0,0,0,.21,2.34,2.34,0,0,0,2.32,2.59,1.41,1.41,0,0,0,.5-.08c.46-.31.83-.56,1.12-.72l.07.23a3.19,3.19,0,0,1-.73.92,4.42,4.42,0,0,1-1.47.34A2.86,2.86,0,0,1,13,544.65a3.18,3.18,0,0,1,3-3.38,2.23,2.23,0,0,1,2.3,2.37c0,.17,0,.39-.14.45a3.9,3.9,0,0,1-1.27.18Zm3-.49a1.29,1.29,0,0,0,.07-.43,1.46,1.46,0,0,0-1.33-1.62c-1.27,0-1.73,1.49-1.75,2Z"/><path d="M26.09,541.27a2.8,2.8,0,0,1,1.72.52,7.13,7.13,0,0,1-.47,1.42l-.21.09a10.39,10.39,0,0,1-.41-1.44,1.18,1.18,0,0,0-.59-.11,2.49,2.49,0,0,0-2.48,2.69,2.52,2.52,0,0,0,2.6,2.69,1.28,1.28,0,0,0,.39-.13,6.6,6.6,0,0,1,1.16-.81l.08.17a2.92,2.92,0,0,1-.88,1.17,4.7,4.7,0,0,1-1.32.23,3.05,3.05,0,0,1-3.13-3.18A3.33,3.33,0,0,1,26.09,541.27Z"/><path d="M31.47,547.27l-.14.32H28.46l.08-.29.9-.38c0-.62,0-1.49,0-4.91,0-1.26,0-2.73-.05-3.43l-.81-.31.15-.28a15.47,15.47,0,0,1,1.72-.42c0,1.56,0,2.88,0,4.39,0,2.81,0,3.86,0,5Z"/><path d="M33.34,544.27a1.48,1.48,0,0,0,0,.21,2.34,2.34,0,0,0,2.31,2.59,1.34,1.34,0,0,0,.5-.08c.47-.31.83-.56,1.12-.72l.07.23a3.34,3.34,0,0,1-.72.92,4.49,4.49,0,0,1-1.48.34,2.85,2.85,0,0,1-2.88-3.11,3.17,3.17,0,0,1,3-3.38,2.23,2.23,0,0,1,2.3,2.37.64.64,0,0,1-.14.45,4,4,0,0,1-1.28.18Zm3-.49a1.29,1.29,0,0,0,.07-.43,1.46,1.46,0,0,0-1.33-1.62c-1.28,0-1.74,1.49-1.75,2Z"/><path d="M42.07,543.75c0-1.55-.65-1.86-1.45-1.86a1.8,1.8,0,0,0-.89.29c0,.35-.07.93-.14,1.33l-.17.06a3.63,3.63,0,0,1-.8-1.15,6.84,6.84,0,0,1,1.6-.92,2.79,2.79,0,0,1,1-.23A1.93,1.93,0,0,1,43,543.42c0,.93,0,2.15,0,3.12a2,2,0,0,0,1.12.84l-.11.22a1.08,1.08,0,0,1-.54.13c-.94,0-1.24-.43-1.38-.81h0a2.61,2.61,0,0,1-1.72.84,1.65,1.65,0,0,1-1.75-1.6,1.25,1.25,0,0,1,.56-1.15,12.38,12.38,0,0,1,2.91-1ZM40.83,547a1.63,1.63,0,0,0,1.08-.5.54.54,0,0,0,.14-.34l0-1.75a9.4,9.4,0,0,0-1.93.69.76.76,0,0,0-.51.77A1.13,1.13,0,0,0,40.83,547Z"/><path d="M45.69,542.36l-.76-.32.09-.28a6.4,6.4,0,0,1,1.64-.49l-.06,1.12h0c1.15-.95,1.68-1.12,2.23-1.12,1.44,0,1.86,1.19,1.86,2.23v3.18a.27.27,0,0,0,.17.27l.87.33-.1.31H49l.1-.34.56-.39c0-.42.06-1.44.06-3.28,0-1.12-.66-1.57-1.39-1.57a2.64,2.64,0,0,0-1.69.87c0,1,0,3.74,0,4l.81.35-.1.32H44.78l.1-.31.77-.36c0-.24,0-1.5,0-3.31Z"/><path d="M59.31,543.75c0-1.55-.64-1.86-1.44-1.86a1.84,1.84,0,0,0-.9.29,11,11,0,0,1-.14,1.33l-.16.06a3.63,3.63,0,0,1-.8-1.15,7,7,0,0,1,1.59-.92,2.89,2.89,0,0,1,1-.23,1.94,1.94,0,0,1,1.83,2.15c0,.93,0,2.15,0,3.12a2,2,0,0,0,1.12.84l-.11.22a1.1,1.1,0,0,1-.55.13c-.93,0-1.23-.43-1.37-.81h0a2.61,2.61,0,0,1-1.73.84,1.65,1.65,0,0,1-1.75-1.6,1.27,1.27,0,0,1,.56-1.15,12.66,12.66,0,0,1,2.92-1ZM58.08,547a1.65,1.65,0,0,0,1.08-.5.61.61,0,0,0,.14-.34l0-1.75a9.74,9.74,0,0,0-1.94.69.76.76,0,0,0-.5.77A1.13,1.13,0,0,0,58.08,547Z"/><path d="M62.94,542.36l-.76-.32.09-.28a6.28,6.28,0,0,1,1.64-.49l-.06,1.12h0c1.15-.95,1.68-1.12,2.22-1.12,1.45,0,1.87,1.19,1.87,2.23v3.18a.27.27,0,0,0,.17.27l.86.33-.09.31H66.27l.1-.34.56-.39c0-.42.06-1.44.06-3.28,0-1.12-.66-1.57-1.39-1.57a2.64,2.64,0,0,0-1.69.87c0,1,0,3.74,0,4l.81.35-.1.32H62l.1-.31.77-.36c0-.24,0-1.5,0-3.31Z"/><path d="M75.34,546.57a2.59,2.59,0,0,0,1.1.84l-.1.24a1,1,0,0,1-.56.11,1.47,1.47,0,0,1-1.33-.81h0a3.66,3.66,0,0,1-1.69.81,3,3,0,0,1-3-3.11,3.39,3.39,0,0,1,3.37-3.38,2.57,2.57,0,0,1,1.2.44v0c0-1.06,0-1.87,0-3.05l-.87-.37.13-.25a8.63,8.63,0,0,1,1.81-.45c0,1.56,0,2.9,0,4.43Zm-1-4.36a2.2,2.2,0,0,0-1.14-.34,2.48,2.48,0,0,0-2.37,2.6A2.38,2.38,0,0,0,73.1,547a2.19,2.19,0,0,0,1.26-.48Z"/><path d="M81.07,542.24c0-1.29,0-2.48-.06-3.62l-.8-.33.12-.27a9.21,9.21,0,0,1,1.76-.45c0,1.62,0,3,0,4.35a5.13,5.13,0,0,1,1.65-.65,2.94,2.94,0,0,1,3,3.06,3.38,3.38,0,0,1-3.42,3.43,4.21,4.21,0,0,1-1.36-.44,4.26,4.26,0,0,1-.82.42Zm1,4.68a3.58,3.58,0,0,0,1,.22,2.48,2.48,0,0,0,2.49-2.67A2.31,2.31,0,0,0,83.3,542a2.5,2.5,0,0,0-1.25.35Z"/><path d="M94.11,544.45a3.1,3.1,0,0,1-3.1,3.31,3.05,3.05,0,0,1-3.08-3.15,3.25,3.25,0,0,1,3.12-3.34A3.07,3.07,0,0,1,94.11,544.45Zm-5,.07c0,1.35.73,2.78,2,2.78s1.81-1.48,1.81-2.72-.66-2.86-1.92-2.86S89.09,543.07,89.09,544.52Z"/><path d="M97.91,547.27l-.14.32H94.9l.08-.29.9-.38c0-.62,0-1.49,0-4.91,0-1.26,0-2.73-.06-3.43l-.81-.31.15-.28a15.66,15.66,0,0,1,1.73-.42c0,1.56,0,2.88,0,4.39,0,2.81,0,3.86,0,5Z"/><path d="M104.25,546.57a2.59,2.59,0,0,0,1.1.84l-.1.24a1,1,0,0,1-.56.11,1.47,1.47,0,0,1-1.33-.81h0a3.66,3.66,0,0,1-1.69.81,3,3,0,0,1-3-3.11,3.39,3.39,0,0,1,3.37-3.38,2.57,2.57,0,0,1,1.2.44v0c0-1.06,0-1.87,0-3.05l-.87-.37.13-.25a8.63,8.63,0,0,1,1.81-.45c0,1.56,0,2.9,0,4.43Zm-1-4.36a2.2,2.2,0,0,0-1.14-.34,2.48,2.48,0,0,0-2.37,2.6A2.38,2.38,0,0,0,102,547a2.19,2.19,0,0,0,1.26-.48Z"/><path d="M112.49,547.59h-3.21l.07-.31,1.18-.47c0-.65.18-3,.25-7.11-.55-.84-.62-.75-1.54-1l.11-.33,1.73-.07a5.18,5.18,0,0,0,.52.79c1.88,2.38,4,4.86,5.93,7h0c0-.65-.08-6-.1-6.93l-1.1-.47.14-.31,1.33,0,1.73,0-.09.35-1.22.43c0,.64-.13,4.66-.16,7.25a12.39,12.39,0,0,1-.07,1.44l-.12.06c-1.24-.87-3.7-4-6.62-7.56h0c0,2.43,0,5.85.1,6.48l1.21.49Z"/><path d="M121.22,544.27a1.48,1.48,0,0,0,0,.21,2.34,2.34,0,0,0,2.31,2.59,1.34,1.34,0,0,0,.5-.08c.46-.31.83-.56,1.12-.72l.07.23a3.19,3.19,0,0,1-.73.92,4.42,4.42,0,0,1-1.47.34,2.85,2.85,0,0,1-2.88-3.11,3.17,3.17,0,0,1,3-3.38,2.23,2.23,0,0,1,2.3,2.37c0,.17-.05.39-.15.45a3.9,3.9,0,0,1-1.27.18Zm3-.49a1.29,1.29,0,0,0,.07-.43,1.46,1.46,0,0,0-1.33-1.62c-1.28,0-1.74,1.49-1.75,2Z"/><path d="M126.32,541.85l.12-.28a9.18,9.18,0,0,1,1.71-.21c-.05.58-.1,1.71-.1,4.17a1.48,1.48,0,0,0,.27,1,1.4,1.4,0,0,0,1.08.44,2,2,0,0,0,1.66-.93v-3.66c-.12-.23-.35-.33-.93-.54l.12-.27a8.4,8.4,0,0,1,1.84-.19c0,.65,0,1.57,0,5.16a1.64,1.64,0,0,0,1.13.82l-.1.24a1.49,1.49,0,0,1-.7.15,1.23,1.23,0,0,1-1.29-1.08h0a2.84,2.84,0,0,1-2.05,1.11,2,2,0,0,1-1.4-.53,2.33,2.33,0,0,1-.55-1.76c0-.88,0-2.28,0-3.3Z"/><path d="M139.07,541.58c-.71,1.21-2.71,4.15-3.58,5.51h0c1.14,0,2.56-.07,2.68-.11a14.82,14.82,0,0,1,.94-1.26l.19-.07a13.79,13.79,0,0,1-.31,2c-.68,0-1.61-.07-2.81-.07H134v-.12c1.12-1.58,2.47-3.61,3.74-5.52v0c-.23,0-.81,0-2.51.07-.15.26-.5.92-.66,1.12l-.19,0a11.93,11.93,0,0,1-.09-1.78l0,0,1,.12H139Z"/><path d="M141.37,544.27a.75.75,0,0,0,0,.21,2.34,2.34,0,0,0,2.31,2.59,1.43,1.43,0,0,0,.51-.08c.46-.31.82-.56,1.12-.72l.07.23a3.37,3.37,0,0,1-.73.92,4.42,4.42,0,0,1-1.47.34,2.86,2.86,0,0,1-2.89-3.11,3.18,3.18,0,0,1,3-3.38,2.23,2.23,0,0,1,2.3,2.37c0,.17,0,.39-.14.45a3.9,3.9,0,0,1-1.27.18Zm3-.49a1.29,1.29,0,0,0,.07-.43,1.46,1.46,0,0,0-1.33-1.62c-1.27,0-1.74,1.49-1.75,2Z"/><path d="M146.66,541.66a9.24,9.24,0,0,1,1.67-.39v2.8c0,1.57,0,2.39,0,2.81l1,.4-.1.31h-2.85l.09-.31.82-.4c0-.47,0-1.71,0-2.83v-1.78l-.76-.35Zm1.23-3.25a1.62,1.62,0,0,1,.63.72l0,.11a2.36,2.36,0,0,1-.67.73l-.1,0a2.35,2.35,0,0,1-.63-.73l0-.11a2.84,2.84,0,0,1,.7-.75Z"/><path d="M154,541.45l-.26.48-1.92.15v4a.93.93,0,0,0,.25.68,1,1,0,0,0,.7.21,1.9,1.9,0,0,0,1.13-.32l.07,0,0,.42a2,2,0,0,1-1.53.67,1.76,1.76,0,0,1-1.26-.56,2.19,2.19,0,0,1-.34-1.53v-3.59l-1-.15.25-.48h.72a12,12,0,0,1,.28-1.58,1.19,1.19,0,0,1,.75-.45l0,2Z"/><path d="M163.22,543.11c.79-.06,3.25-.13,3.81-.11a41.1,41.1,0,0,1-.81,4.77h-.1a.62.62,0,0,1-.56-.45,6.51,6.51,0,0,1-2.35.52c-3,0-5.13-1.89-5.13-4.84,0-2.71,2.2-4.91,5.37-4.91a3.84,3.84,0,0,1,2.29.63,2.88,2.88,0,0,1,1-.57l.08.07a11.56,11.56,0,0,1-.57,2.35l-.26.11a9.41,9.41,0,0,1-.4-1.48A4.29,4.29,0,0,0,159.3,543a4.05,4.05,0,0,0,4.34,4.2,5.62,5.62,0,0,0,1.88-.3c.07-1,.18-2.3.27-3.13l-3.14-.07-.06-.17Z"/><path d="M168.62,541.72a5.52,5.52,0,0,1,1.42-.45,7.2,7.2,0,0,1,.14,1.43h0a2.45,2.45,0,0,1,2-1.43.93.93,0,0,1,.65.21,6.31,6.31,0,0,1-.4,1.42l-.16.1a5.32,5.32,0,0,1-.47-.9.41.41,0,0,0-.21,0c-.45,0-1.1.57-1.39,1.34v3.5l1.43.4-.07.29H168.3l.07-.29.81-.41c0-1.47.06-3.78.06-4.48l-.73-.42Z"/><path d="M179.71,544.45a3.09,3.09,0,0,1-3.09,3.31,3.05,3.05,0,0,1-3.08-3.15,3.25,3.25,0,0,1,3.12-3.34A3.06,3.06,0,0,1,179.71,544.45Zm-5,.07c0,1.35.73,2.78,2,2.78s1.81-1.48,1.81-2.72-.66-2.86-1.92-2.86S174.7,543.07,174.7,544.52Z"/><path d="M184.63,541.45l-.27.48-1.92.15v4a1,1,0,0,0,.25.68,1,1,0,0,0,.7.21,1.91,1.91,0,0,0,1.14-.32l.07,0,0,.42a2,2,0,0,1-1.53.67,1.76,1.76,0,0,1-1.26-.56,2.26,2.26,0,0,1-.33-1.53v-3.59l-.95-.15.25-.48h.71a14,14,0,0,1,.28-1.58,1.21,1.21,0,0,1,.76-.45l-.06,2Z"/><path d="M186.33,544.27a1.48,1.48,0,0,0,0,.21,2.34,2.34,0,0,0,2.31,2.59,1.43,1.43,0,0,0,.51-.08c.46-.31.82-.56,1.12-.72l.07.23a3.37,3.37,0,0,1-.73.92,4.48,4.48,0,0,1-1.47.34,2.86,2.86,0,0,1-2.89-3.11,3.17,3.17,0,0,1,3-3.38,2.23,2.23,0,0,1,2.3,2.37c0,.17,0,.39-.14.45a4,4,0,0,1-1.28.18Zm3-.49a1.29,1.29,0,0,0,.07-.43,1.46,1.46,0,0,0-1.33-1.62c-1.28,0-1.74,1.49-1.75,2Z"/><path d="M194.81,541.61a2.93,2.93,0,0,1,.68-.35l.11.11a7.75,7.75,0,0,1-.35,1.61l-.16.1c-.16-.28-.34-.74-.49-1.08a1.21,1.21,0,0,0-.82-.24,1,1,0,0,0-1.1,1,.82.82,0,0,0,.49.8c.35.21,1.2.56,1.66.78a1.6,1.6,0,0,1,1.08,1.47c0,1.46-1.53,1.91-2.37,1.91a3.89,3.89,0,0,1-2-.6,11.05,11.05,0,0,1,.32-1.48l.2-.09c.18.33.47,1.2.6,1.52a2.25,2.25,0,0,0,.87.16,1.23,1.23,0,0,0,1.37-1.08.88.88,0,0,0-.57-.88c-.38-.2-.86-.42-1.41-.68a1.72,1.72,0,0,1-1.17-1.61,1.82,1.82,0,0,1,2-1.75A1.85,1.85,0,0,1,194.81,541.61Z"/><path d="M199.71,547.3l-.08.29h-2.95l.1-.29.81-.41c0-.24,0-1.09,0-2.69,0-2,0-3.78,0-5.55l-.77-.38.12-.25a13.82,13.82,0,0,1,1.72-.45c0,1.56,0,3.34,0,5.08,0,.92,0,4,0,4.24Zm3.36.51a2.8,2.8,0,0,1-1.74-.68,25.76,25.76,0,0,1-2.44-2.76v-.09c.64-.71,1.41-1.59,2-2.32l.26-.69a12,12,0,0,1,1.8.17l-.18.29c-.19.12-1.11.4-1.4.54-.55.53-.71.71-1.5,1.59v0c.86,1.09,2.61,3,3.32,3.83Z"/><path d="M205.3,546.05a2.28,2.28,0,0,1,.75.81l0,.13a2.27,2.27,0,0,1-.76.78l-.1,0a2.4,2.4,0,0,1-.74-.78l0-.14a2.75,2.75,0,0,1,.76-.79Z"/></g></g></svg>