<svg xmlns="http://www.w3.org/2000/svg" viewBox="0 0 34.62 19.95"><defs><style>.cls-1{fill:#0f0000;}</style></defs><title>back</title><g id="Layer_2" data-name="Layer 2"><g id="Layer_1-2" data-name="Layer 1"><polygon class="cls-1" points="17.27 0 0 9.97 17.27 19.95 17.27 0"/><path d="M20.42,12.25h-.89V7.58h.89V9.4a1.25,1.25,0,0,1,1-.5,1.63,1.63,0,0,1,1.63,1.75,1.57,1.57,0,0,1-1.59,1.71,1.22,1.22,0,0,1-1.09-.53Zm0-1.59a.88.88,0,0,0,.86,1,.9.9,0,0,0,.89-1,.92.92,0,0,0-.86-1A1,1,0,0,0,20.41,10.66Z"/><path d="M26.43,9h.89v3.24h-.89V11.8a1.31,1.31,0,0,1-1.12.56,1.57,1.57,0,0,1-1.57-1.69A1.66,1.66,0,0,1,25.38,8.9a1.25,1.25,0,0,1,1.05.52ZM24.7,10.66a.91.91,0,0,0,.85,1,1,1,0,0,0,.9-1,.88.88,0,1,0-1.75,0Z"/><path d="M31.12,11.88a1.7,1.7,0,0,1-1.24.48,1.66,1.66,0,0,1-1.72-1.71A1.67,1.67,0,0,1,29.88,8.9a1.84,1.84,0,0,1,1.3.54l-.6.54a.86.86,0,0,0-.66-.29.88.88,0,0,0-.86.93.89.89,0,0,0,.89,1,.86.86,0,0,0,.63-.27Z"/><path d="M32.69,12.25H31.8V7.58h.89v2.68L33.59,9h1l-1.1,1.55,1.1,1.69h-1l-.9-1.34Z"/></g></g></svg>