<?xml version="1.0" encoding="utf-8"?>
<!-- Generator: Adobe Illustrator 23.0.6, SVG Export Plug-In . SVG Version: 6.00 Build 0)  -->
<svg version="1.1" id="Layer_1" xmlns="http://www.w3.org/2000/svg" xmlns:xlink="http://www.w3.org/1999/xlink" x="0px" y="0px"
	 viewBox="0 0 38 34.7" style="enable-background:new 0 0 38 34.7;" xml:space="preserve">
<style type="text/css">
	.st0{fill:none;}
	.st1{fill:#0F0000;}
</style>
<title>resume</title>
<g>
	<path class="st0" d="M15.9,29.3c0-0.4-0.3-0.8-0.9-0.8h-0.4V30H15C15.6,30,15.9,29.7,15.9,29.3z"/>
	<path class="st0" d="M0.3,34.4h37.4v-8.6H0.3V34.4z M22.3,27.7h2.6v0.8h-1.6v1.2h1.6v0.8h-1.6v1.9h-1V27.7z M17.7,27.8H19
		c0.6-0.1,1.2,0.1,1.7,0.5c0.5,0.4,0.7,1.1,0.7,1.7c0,0.7-0.2,1.4-0.7,1.9c-0.5,0.4-1,0.6-1.6,0.5h-1.4V27.8z M13.6,27.7h1.5
		c1.1,0,1.7,0.5,1.7,1.5c0,0.8-0.6,1.5-1.4,1.6c-0.1,0-0.2,0-0.2,0h-0.5v1.6h-0.1h-1V27.7z"/>
	<path class="st0" d="M20.5,30.1c0.1-0.8-0.5-1.5-1.3-1.5c-0.1,0-0.1,0-0.2,0h-0.4l0.1,3h0.2c0.4,0,0.8-0.1,1.1-0.3
		C20.4,31,20.5,30.5,20.5,30.1z"/>
	<polygon points="28.8,6.2 18.9,6.2 18.9,0 18.6,0 18.6,6.2 8.8,6.2 18.8,23.4 	"/>
	<path class="st1" d="M0,25.5v9.2h38v-9.2H0z M37.7,34.4H0.3v-8.6h37.4V34.4z"/>
	<path d="M14.7,32.4v-1.6h0.5c0,0,0.1,0,0.2,0c0.8-0.1,1.4-0.8,1.4-1.6c0-1-0.6-1.5-1.7-1.5h-1.5v4.7h1H14.7z M14.6,28.5H15
		c0.6,0,0.9,0.4,0.9,0.8c0,0.4-0.3,0.7-0.9,0.7h-0.4V28.5z"/>
	<path d="M20.7,31.9c0.5-0.5,0.7-1.2,0.7-1.9c0-0.6-0.2-1.3-0.7-1.7c-0.5-0.4-1.1-0.6-1.7-0.5h-1.3v4.6h1.4
		C19.7,32.5,20.2,32.3,20.7,31.9z M18.7,31.6l-0.1-3H19c0.1,0,0.1,0,0.2,0c0.8,0,1.4,0.7,1.3,1.5c0,0.4-0.1,0.9-0.5,1.2
		c-0.3,0.2-0.7,0.3-1.1,0.3H18.7z"/>
	<polygon points="23.3,30.5 24.9,30.5 24.9,29.7 23.3,29.7 23.3,28.5 24.9,28.5 24.9,27.7 22.3,27.7 22.3,32.4 23.3,32.4 	"/>
</g>
</svg>
