<svg width="32" height="32" viewBox="0 0 32 32" fill="none" xmlns="http://www.w3.org/2000/svg">
<path d="M0.556425 10.6184H7.16675V31.9832H0.556425V10.6184ZM3.8449 0C4.60535 0 5.34872 0.225774 5.98101 0.648771C6.6133 1.07177 7.10611 1.67299 7.39712 2.37641C7.68813 3.07983 7.76427 3.85385 7.61591 4.60059C7.46756 5.34734 7.10137 6.03327 6.56365 6.57164C6.02593 7.11001 5.34084 7.47665 4.595 7.62519C3.84916 7.77372 3.07608 7.69749 2.37352 7.40612C1.67096 7.11476 1.07046 6.62135 0.647982 5.98829C0.225499 5.35523 0 4.61095 0 3.84958C0 2.82861 0.405086 1.84945 1.12614 1.12752C1.8472 0.405579 2.82517 0 3.8449 0" fill="black"/>
<path d="M11.3234 10.6186H17.6834V13.5378H17.7724C18.4094 12.4485 19.3295 11.5526 20.4348 10.9453C21.54 10.3381 22.789 10.0423 24.0489 10.0893C30.7593 10.0893 32.0002 14.5127 32.0002 20.2676V31.9667H25.3732V21.5935C25.3732 19.1144 25.3286 15.9278 21.9233 15.9278C18.518 15.9278 17.9504 18.6297 17.9504 21.4152V32.0002H11.3234V10.6186Z" fill="black"/>
</svg>
