<svg xmlns="http://www.w3.org/2000/svg" viewBox="0 0 19.95 23.85"><defs><style>.cls-1{fill:#0f0000;}</style></defs><title>scroll</title><g id="Layer_2" data-name="Layer 2"><g id="Layer_1-2" data-name="Layer 1"><polygon class="cls-1" points="0 6.58 9.97 23.85 19.95 6.58 0 6.58"/><path d="M3.25,2.37V2.31c0-.19-.18-.33-.42-.33s-.35.11-.35.29a.26.26,0,0,0,.09.21c.1.08.1.08.55.22.73.22,1,.51,1,1S3.63,4.78,2.88,4.78A1.12,1.12,0,0,1,1.6,3.72h.86c0,.28.16.4.42.4s.36-.12.36-.3-.13-.29-.6-.44c-.7-.21-1-.52-1-1s.5-1,1.26-1A1.06,1.06,0,0,1,4.09,2.37Z"/><path d="M7.72,4.3a1.73,1.73,0,0,1-1.25.48A1.66,1.66,0,0,1,4.76,3.07,1.66,1.66,0,0,1,6.48,1.32a1.83,1.83,0,0,1,1.3.54l-.6.54a.86.86,0,0,0-.66-.29A.88.88,0,0,0,5.66,3a.89.89,0,0,0,1.52.68Z"/><path d="M9.31,1.43V1.9a.8.8,0,0,1,.29-.43.91.91,0,0,1,.52-.15h.11v.91H10a.73.73,0,0,0-.6.29,1,1,0,0,0-.13.6V4.67H8.42V1.43Z"/><path d="M14.25,3.08a1.72,1.72,0,0,1-1.78,1.7,1.68,1.68,0,0,1-1.75-1.73,1.66,1.66,0,0,1,1.77-1.73A1.7,1.7,0,0,1,14.25,3.08Zm-2.64,0a.87.87,0,1,0,1.74,0,.84.84,0,0,0-.86-.95A.85.85,0,0,0,11.61,3.05Z"/><path d="M15.08,4.67V0H16V4.67Z"/><path d="M17,4.67V0h.89V4.67Z"/></g></g></svg>